G04*
G04 #@! TF.GenerationSoftware,Altium Limited,Altium Designer,19.0.10 (269)*
G04*
G04 Layer_Color=128*
%FSLAX43Y43*%
%MOMM*%
G71*
G01*
G75*
%ADD36R,0.850X0.750*%
%ADD41R,0.900X0.750*%
%ADD42R,0.850X0.700*%
%ADD43R,0.900X0.800*%
%ADD45R,0.700X0.850*%
%ADD46R,0.800X0.900*%
%ADD47R,1.350X1.150*%
%ADD137R,3.000X3.810*%
%ADD138R,0.750X0.900*%
%ADD139R,0.750X0.850*%
%ADD140R,0.850X0.900*%
%ADD141R,1.350X1.050*%
%ADD142R,1.000X1.350*%
%ADD143R,1.150X1.350*%
%ADD144R,1.200X0.800*%
%ADD145R,1.550X0.900*%
%ADD146R,1.500X3.000*%
%ADD147R,0.700X0.500*%
%ADD148R,0.500X0.700*%
D36*
X163050Y135875D02*
D03*
Y137125D02*
D03*
D41*
X189250Y55125D02*
D03*
Y53875D02*
D03*
X180830Y60125D02*
D03*
Y58875D02*
D03*
X81330Y144875D02*
D03*
Y146125D02*
D03*
X71230Y78500D02*
D03*
Y77250D02*
D03*
X58530Y75750D02*
D03*
Y74500D02*
D03*
X88425Y81793D02*
D03*
Y83043D02*
D03*
X171700Y113475D02*
D03*
Y114725D02*
D03*
X186480Y114675D02*
D03*
Y115925D02*
D03*
X163600Y99475D02*
D03*
Y100725D02*
D03*
X118000Y128225D02*
D03*
Y126975D02*
D03*
X156650Y124475D02*
D03*
Y125725D02*
D03*
D42*
X119650Y110425D02*
D03*
Y111675D02*
D03*
X188900Y148050D02*
D03*
Y146800D02*
D03*
X123300Y123790D02*
D03*
Y122540D02*
D03*
X176000Y134375D02*
D03*
Y133125D02*
D03*
X121000Y137100D02*
D03*
Y138350D02*
D03*
X150610Y142250D02*
D03*
Y143500D02*
D03*
X158070Y142175D02*
D03*
Y143425D02*
D03*
X167250Y130125D02*
D03*
Y131375D02*
D03*
X190500Y146800D02*
D03*
Y148050D02*
D03*
X71230Y76000D02*
D03*
Y74750D02*
D03*
X55990Y127375D02*
D03*
Y126125D02*
D03*
X58530Y127375D02*
D03*
Y126125D02*
D03*
X69500Y76000D02*
D03*
Y77250D02*
D03*
X94540Y145400D02*
D03*
Y144150D02*
D03*
X92000D02*
D03*
Y145400D02*
D03*
X106540Y145300D02*
D03*
Y144050D02*
D03*
X104000D02*
D03*
Y145300D02*
D03*
X133500Y69875D02*
D03*
Y68625D02*
D03*
X154800Y125725D02*
D03*
Y124475D02*
D03*
X116400Y126995D02*
D03*
Y128245D02*
D03*
D43*
X173250Y129900D02*
D03*
Y131300D02*
D03*
Y128500D02*
D03*
X175000Y142875D02*
D03*
Y141625D02*
D03*
X169875Y128650D02*
D03*
Y131450D02*
D03*
Y130050D02*
D03*
X180500Y145750D02*
D03*
Y144500D02*
D03*
X135000Y69875D02*
D03*
Y68625D02*
D03*
D45*
X121500Y125600D02*
D03*
X120250D02*
D03*
X113075Y79750D02*
D03*
X111925D02*
D03*
X119600Y138350D02*
D03*
X118350D02*
D03*
X150610Y145250D02*
D03*
X151860D02*
D03*
X158070Y145300D02*
D03*
X159320D02*
D03*
X113125Y75250D02*
D03*
X111875D02*
D03*
Y82000D02*
D03*
X113125D02*
D03*
X111925Y77500D02*
D03*
X113075D02*
D03*
X152445Y81268D02*
D03*
X153695D02*
D03*
Y82768D02*
D03*
X152445D02*
D03*
X138125Y68650D02*
D03*
X139375D02*
D03*
D46*
X100750Y145300D02*
D03*
X102000D02*
D03*
X147750Y145250D02*
D03*
X149000D02*
D03*
X134800Y124700D02*
D03*
X132000D02*
D03*
X133400D02*
D03*
X126950D02*
D03*
X129750D02*
D03*
X128350D02*
D03*
X135573Y128950D02*
D03*
X132773D02*
D03*
X134173D02*
D03*
X135573Y126200D02*
D03*
X132773D02*
D03*
X134173D02*
D03*
X163625Y132950D02*
D03*
X164875D02*
D03*
X156370Y145300D02*
D03*
X155120D02*
D03*
X97125Y145400D02*
D03*
X98375D02*
D03*
X108375Y145300D02*
D03*
X109625D02*
D03*
X90000Y145400D02*
D03*
X88750D02*
D03*
X187625Y121750D02*
D03*
X186375D02*
D03*
X187625Y119210D02*
D03*
X186375D02*
D03*
X152445Y84268D02*
D03*
X153695D02*
D03*
D47*
X81250Y79592D02*
D03*
Y78143D02*
D03*
X76750Y79525D02*
D03*
Y80975D02*
D03*
X81250Y82842D02*
D03*
Y81393D02*
D03*
X76750Y82775D02*
D03*
Y84225D02*
D03*
D137*
X116500Y62000D02*
D03*
X123900D02*
D03*
D138*
X112275Y109125D02*
D03*
X113525D02*
D03*
X90375Y142500D02*
D03*
X89125D02*
D03*
X144750Y143750D02*
D03*
X143500D02*
D03*
X67250Y74500D02*
D03*
X68500D02*
D03*
X129875Y105750D02*
D03*
X128625D02*
D03*
D139*
X118975Y130500D02*
D03*
X120225D02*
D03*
D140*
X143150Y62000D02*
D03*
X141850D02*
D03*
D141*
X128625Y60875D02*
D03*
Y59375D02*
D03*
Y64750D02*
D03*
Y63250D02*
D03*
D142*
X179750Y118250D02*
D03*
X178250D02*
D03*
D143*
X128350Y107960D02*
D03*
X129875D02*
D03*
D144*
X180690Y122920D02*
D03*
X178290Y123870D02*
D03*
Y121970D02*
D03*
X180750Y114130D02*
D03*
Y112230D02*
D03*
X178350Y113180D02*
D03*
D145*
X175250Y114675D02*
D03*
Y117325D02*
D03*
Y121825D02*
D03*
Y119175D02*
D03*
D146*
X117400Y141250D02*
D03*
X124000D02*
D03*
X128950D02*
D03*
X135550D02*
D03*
X132700Y65750D02*
D03*
X139300D02*
D03*
X132700Y62000D02*
D03*
X139300D02*
D03*
D147*
X192100Y125080D02*
D03*
Y124280D02*
D03*
Y123480D02*
D03*
Y125880D02*
D03*
X190500Y125080D02*
D03*
Y124280D02*
D03*
Y123480D02*
D03*
Y125880D02*
D03*
X189700Y114779D02*
D03*
Y112379D02*
D03*
Y113179D02*
D03*
Y113979D02*
D03*
X191300Y114779D02*
D03*
Y112379D02*
D03*
Y113179D02*
D03*
Y113979D02*
D03*
X189200Y94950D02*
D03*
Y92550D02*
D03*
Y93350D02*
D03*
Y94150D02*
D03*
X190800Y94950D02*
D03*
Y92550D02*
D03*
Y93350D02*
D03*
Y94150D02*
D03*
X189200Y90700D02*
D03*
Y88300D02*
D03*
Y89100D02*
D03*
Y89900D02*
D03*
X190800Y90700D02*
D03*
Y88300D02*
D03*
Y89100D02*
D03*
Y89900D02*
D03*
D148*
X157200Y63050D02*
D03*
X154800D02*
D03*
X155600D02*
D03*
X156400D02*
D03*
X157200Y61450D02*
D03*
X154800D02*
D03*
X155600D02*
D03*
X156400D02*
D03*
X152950Y63050D02*
D03*
X150550D02*
D03*
X151350D02*
D03*
X152150D02*
D03*
X152950Y61450D02*
D03*
X150550D02*
D03*
X151350D02*
D03*
X152150D02*
D03*
M02*
