G04*
G04 #@! TF.GenerationSoftware,Altium Limited,Altium Designer,19.0.10 (269)*
G04*
G04 Layer_Color=65535*
%FSLAX43Y43*%
%MOMM*%
G71*
G01*
G75*
%ADD10C,0.250*%
%ADD11C,0.400*%
%ADD12C,0.127*%
%ADD13C,0.200*%
%ADD14C,0.600*%
%ADD15C,0.180*%
%ADD16C,0.254*%
%ADD17C,0.350*%
%ADD18R,0.400X1.300*%
D10*
X138125Y69475D02*
G03*
X138125Y69475I-125J0D01*
G01*
X131575Y136400D02*
G03*
X131575Y136400I-125J0D01*
G01*
X177825Y71250D02*
G03*
X177825Y71250I-125J0D01*
G01*
X174075Y140700D02*
G03*
X174075Y140700I-125J0D01*
G01*
X88550Y62470D02*
G03*
X88550Y62470I-125J0D01*
G01*
X169775Y98050D02*
G03*
X169775Y98050I-125J0D01*
G01*
X134385Y107980D02*
G03*
X134385Y107980I-125J0D01*
G01*
X147245Y83268D02*
G03*
X147245Y83268I-125J0D01*
G01*
X129375Y89791D02*
G03*
X129375Y89791I-125J0D01*
G01*
X80216Y83421D02*
G03*
X80216Y83421I-125J0D01*
G01*
X166950Y121505D02*
G03*
X166950Y121505I-125J0D01*
G01*
X145185Y142400D02*
G03*
X145185Y142400I-125J0D01*
G01*
X90795Y141150D02*
G03*
X90795Y141150I-125J0D01*
G01*
X125880Y53100D02*
Y51500D01*
Y53100D02*
X126566D01*
X126794Y53023D01*
X126870Y52947D01*
X126946Y52795D01*
Y52643D01*
X126870Y52490D01*
X126794Y52414D01*
X126566Y52338D01*
X125880D01*
X126413D02*
X126946Y51500D01*
X128295Y53100D02*
X127304D01*
Y51500D01*
X128295D01*
X127304Y52338D02*
X127914D01*
X128561Y53100D02*
X129171Y51500D01*
X129780Y53100D02*
X129171Y51500D01*
X131243Y52795D02*
X131395Y52871D01*
X131624Y53100D01*
Y51500D01*
X132492Y51652D02*
X132416Y51576D01*
X132492Y51500D01*
X132568Y51576D01*
X132492Y51652D01*
X133376Y53100D02*
X133147Y53023D01*
X132995Y52795D01*
X132918Y52414D01*
Y52186D01*
X132995Y51805D01*
X133147Y51576D01*
X133376Y51500D01*
X133528D01*
X133756Y51576D01*
X133909Y51805D01*
X133985Y52186D01*
Y52414D01*
X133909Y52795D01*
X133756Y53023D01*
X133528Y53100D01*
X133376D01*
D11*
X165840Y60340D02*
G03*
X165840Y60340I-250J0D01*
G01*
X161050Y53250D02*
G03*
X161050Y53250I-250J0D01*
G01*
X199250Y107590D02*
G03*
X199250Y107590I-250J0D01*
G01*
X169250Y120400D02*
G03*
X169250Y120400I-200J0D01*
G01*
X199250Y76090D02*
G03*
X199250Y76090I-250J0D01*
G01*
X137500Y52250D02*
G03*
X137500Y52250I-250J0D01*
G01*
D12*
X95500Y107250D02*
G03*
X95500Y107250I-11000J0D01*
G01*
X122800Y56270D02*
G03*
X122800Y56270I-300J0D01*
G01*
X119300D02*
G03*
X119300Y56270I-300J0D01*
G01*
X159000Y126750D02*
G03*
X159000Y124750I0J-1000D01*
G01*
X161500D02*
G03*
X161500Y126750I0J1000D01*
G01*
X115750Y126000D02*
G03*
X115750Y124000I0J-1000D01*
G01*
X118250D02*
G03*
X118250Y126000I0J1000D01*
G01*
X101300Y46850D02*
X110300D01*
X101300D02*
Y61350D01*
X110300D01*
Y46850D02*
Y61350D01*
X101300Y47600D02*
X110300D01*
X101300Y49350D02*
X110300D01*
X107550Y47600D02*
Y49350D01*
X104050Y47600D02*
Y49350D01*
X50000Y111830D02*
Y112480D01*
Y121980D02*
Y123130D01*
Y111830D02*
X63000D01*
Y123130D01*
X50000D02*
X63000D01*
X52500Y114980D02*
Y121980D01*
X50000D02*
X52500D01*
Y113480D02*
Y114980D01*
X50000Y112480D02*
X52500Y113480D01*
X140800Y147700D02*
Y150300D01*
X136400D02*
X140800D01*
X136400Y147700D02*
Y150300D01*
Y147700D02*
X140800D01*
X159500Y78700D02*
X166800D01*
X159500Y61000D02*
Y78700D01*
Y61000D02*
X166800D01*
Y78700D01*
X125250Y51000D02*
Y53670D01*
Y51000D02*
X134500D01*
Y53670D01*
X125250D02*
X134500D01*
X51000Y57000D02*
Y67250D01*
Y57000D02*
X55500D01*
Y67250D01*
X51000D02*
X55500D01*
X149300Y75700D02*
Y78300D01*
Y75700D02*
X153700D01*
Y78300D01*
X149300D02*
X153700D01*
X120000Y103000D02*
Y105400D01*
X84500Y95450D02*
X85100D01*
X83900D02*
X84500D01*
Y94850D02*
Y96050D01*
X88100Y93750D02*
Y96850D01*
X80900Y93750D02*
X88100D01*
X80900D02*
Y96850D01*
Y117650D02*
Y120750D01*
X88100Y117650D02*
Y120750D01*
X80900D02*
X88100D01*
X161550Y51750D02*
Y57250D01*
Y51750D02*
X187550D01*
Y57250D01*
X161550D02*
X187550D01*
X195000Y108340D02*
Y129140D01*
X200500D01*
Y108340D02*
Y129140D01*
X195000Y108340D02*
X200500D01*
X159000Y124750D02*
X161500D01*
X159000Y126750D02*
X161500D01*
X137750Y71140D02*
Y72440D01*
X133750Y71140D02*
X137750D01*
X133750D02*
Y72440D01*
X137750D01*
X194150Y145850D02*
Y150250D01*
X196750D01*
Y145850D02*
Y150250D01*
X194150Y145850D02*
X196750D01*
X60050Y51850D02*
Y56250D01*
X62650D01*
Y51850D02*
Y56250D01*
X60050Y51850D02*
X62650D01*
X151050Y107050D02*
Y111450D01*
X148450Y107050D02*
X151050D01*
X148450D02*
Y111450D01*
X151050D01*
X51700Y145850D02*
Y150250D01*
X54300D01*
Y145850D02*
Y150250D01*
X51700Y145850D02*
X54300D01*
X198700D02*
Y150250D01*
X201300D01*
Y145850D02*
Y150250D01*
X198700Y145850D02*
X201300D01*
X198700Y51470D02*
Y55870D01*
X201300D01*
Y51470D02*
Y55870D01*
X198700Y51470D02*
X201300D01*
X51700Y51820D02*
Y56220D01*
X54300D01*
Y51820D02*
Y56220D01*
X51700Y51820D02*
X54300D01*
X111500Y150200D02*
X115900D01*
Y147600D02*
Y150200D01*
X111500Y147600D02*
X115900D01*
X111500D02*
Y150200D01*
X145628Y107050D02*
Y111450D01*
X143028Y107050D02*
X145628D01*
X143028D02*
Y111450D01*
X145628D01*
X115750Y124000D02*
X118250D01*
X115750Y126000D02*
X118250D01*
X195000Y76840D02*
X200500D01*
Y97640D01*
X195000D02*
X200500D01*
X195000Y76840D02*
Y97640D01*
X138090Y51620D02*
Y57120D01*
Y51620D02*
X158890D01*
Y57120D01*
X138090D02*
X158890D01*
D13*
X74720Y44420D02*
G03*
X75207Y43420I1270J0D01*
G01*
X90563D02*
G03*
X91050Y44420I-783J1000D01*
G01*
X74720Y49020D02*
G03*
X74320Y49420I-400J0D01*
G01*
X91450D02*
G03*
X91050Y49020I0J-400D01*
G01*
X139975Y66175D02*
Y69175D01*
X138975Y66175D02*
Y69175D01*
Y66175D02*
X139975D01*
X138975Y69175D02*
X139975D01*
X159500Y59300D02*
X161550Y57250D01*
X159500Y59300D02*
Y61000D01*
X121600Y132000D02*
Y135000D01*
X131400Y132000D02*
Y135000D01*
X170250Y69650D02*
X177750D01*
X170250Y65850D02*
X177750D01*
Y69650D01*
X170250Y65850D02*
Y69650D01*
X113690Y89932D02*
X118770D01*
X113690Y87392D02*
Y89932D01*
Y87392D02*
X118770D01*
Y89932D01*
X133230Y93770D02*
X138310D01*
X133230Y91230D02*
Y93770D01*
Y91230D02*
X138310D01*
Y93770D01*
X114730Y112930D02*
X117270D01*
X114730Y97690D02*
X117270D01*
X114730D02*
Y112930D01*
X117270Y97690D02*
Y112930D01*
X121880Y110430D02*
Y112970D01*
X126960D01*
Y110430D02*
Y112970D01*
X121880Y110430D02*
X126960D01*
X62340Y150170D02*
X67420D01*
X62340Y147630D02*
Y150170D01*
Y147630D02*
X67420D01*
Y150170D01*
X167370Y101730D02*
Y104270D01*
X128635D02*
X167370D01*
X126730D02*
X128635D01*
X126730Y101730D02*
Y104270D01*
Y101730D02*
X167370D01*
X173750Y136300D02*
Y139300D01*
X165350Y136300D02*
Y139300D01*
X173750Y136250D02*
Y139250D01*
X165350Y136250D02*
Y139250D01*
X177100Y142750D02*
X178000Y143650D01*
X178100D01*
X183000D02*
X183900Y142750D01*
X182900Y143650D02*
X183000D01*
X181700Y136850D02*
X183900Y136850D01*
Y142750D01*
X181700Y143650D02*
X182900D01*
X178100D02*
X179300D01*
X177100Y136850D02*
X177100Y142750D01*
X177100Y136850D02*
X179300D01*
X121975Y86087D02*
Y87687D01*
X124675Y86087D02*
Y87687D01*
X98285Y49420D02*
Y61820D01*
X67485Y49420D02*
Y61820D01*
X67485D02*
X98285D01*
X91050Y44420D02*
Y49020D01*
X74720Y44420D02*
Y49020D01*
X67676Y43420D02*
Y49420D01*
X92666Y43420D02*
Y49420D01*
X98094Y43420D02*
Y49420D01*
X75207Y43420D02*
X90563D01*
X92666D02*
X98094D01*
X67676D02*
X73104D01*
X73104Y43420D02*
Y49420D01*
X67485D02*
X67676D01*
X73104D02*
X74320D01*
X98094D02*
X98285D01*
X91450D02*
X92666D01*
X162550Y49250D02*
X186550D01*
Y43750D02*
Y49250D01*
X162550Y43750D02*
X186550D01*
X162550D02*
Y49250D01*
X161780D02*
Y51750D01*
Y49250D02*
X187180D01*
Y51750D01*
X161780D02*
X187180D01*
X163720Y147780D02*
Y150320D01*
X173880D01*
X163720Y147780D02*
X173880D01*
Y150320D01*
X184310Y147730D02*
Y150270D01*
X176690Y147730D02*
X184310D01*
X176690D02*
Y150270D01*
X184310D01*
X200500Y108570D02*
Y128740D01*
X203000D01*
Y108570D02*
Y128740D01*
X200500Y108570D02*
X203000D01*
Y109340D02*
X208500D01*
Y127940D01*
X203000D02*
X208500D01*
X203000Y109340D02*
Y127940D01*
X112350Y82500D02*
X112650D01*
X112350Y81500D02*
X112650D01*
X112350D02*
Y82500D01*
X168050Y100550D02*
Y101350D01*
X168750D01*
X168050Y98350D02*
Y99150D01*
Y98350D02*
X168750D01*
X141575Y106905D02*
Y111595D01*
X134745Y106905D02*
Y111595D01*
X141575D01*
X134745Y106905D02*
X141575D01*
X148070Y83018D02*
X148570D01*
X148070Y79918D02*
X148570D01*
X148070D02*
Y83018D01*
X148570Y79918D02*
Y83018D01*
X127900Y90116D02*
X128200D01*
X127900Y93016D02*
X128200D01*
Y90116D02*
Y93016D01*
X127900Y90116D02*
Y93016D01*
X81285Y77706D02*
Y83294D01*
X84485Y77706D02*
Y83294D01*
X81285Y77706D02*
X84485D01*
X81285Y83294D02*
X84485D01*
X168250Y116300D02*
Y121200D01*
X170250Y116300D02*
Y121200D01*
X168250D02*
X170250D01*
X168250Y116300D02*
X170250D01*
X143950Y142650D02*
Y144850D01*
X144330Y142650D02*
Y144850D01*
X143950D02*
X144330D01*
X143950Y142650D02*
X144330D01*
X51990Y73060D02*
X100740D01*
X51990Y67980D02*
X100740D01*
X51990D02*
Y73060D01*
X100740Y67980D02*
Y73060D01*
X100740Y128980D02*
Y134060D01*
X51990Y128980D02*
Y134060D01*
Y128980D02*
X100740D01*
X51990Y134060D02*
X100740D01*
X145520Y93100D02*
X147120D01*
X145520Y90400D02*
X147120D01*
X145520Y89600D02*
X147120D01*
X145520Y86900D02*
X147120D01*
X140770Y76150D02*
X142370D01*
X140770Y78850D02*
X142370D01*
X140770Y72650D02*
X142370D01*
X140770Y75350D02*
X142370D01*
X152250Y132600D02*
X153150Y133500D01*
X152150Y132600D02*
X152250D01*
X146350Y133500D02*
X147250Y132600D01*
X147350D01*
X146350Y139400D02*
X148550Y139400D01*
X146350Y133500D02*
Y139400D01*
X147350Y132600D02*
X148550D01*
X150950D02*
X152150D01*
X153150Y133500D02*
X153150Y139400D01*
X150950D02*
X153150D01*
X160250Y132600D02*
X161150Y133500D01*
X160150Y132600D02*
X160250D01*
X154350Y133500D02*
X155250Y132600D01*
X155350D01*
X154350Y139400D02*
X156550Y139400D01*
X154350Y133500D02*
Y139400D01*
X155350Y132600D02*
X156550D01*
X158950D02*
X160150D01*
X161150Y133500D02*
X161150Y139400D01*
X158950D02*
X161150D01*
X138350Y135450D02*
X139250Y136350D01*
X139350D01*
X144250D02*
X145150Y135450D01*
X144150Y136350D02*
X144250D01*
X142950Y129550D02*
X145150Y129550D01*
Y135450D01*
X142950Y136350D02*
X144150D01*
X139350D02*
X140550D01*
X138350Y129550D02*
X138350Y135450D01*
X138350Y129550D02*
X140550D01*
X110150Y138250D02*
X111050Y139150D01*
X111150D01*
X116050D02*
X116950Y138250D01*
X115950Y139150D02*
X116050D01*
X114750Y132350D02*
X116950Y132350D01*
Y138250D01*
X114750Y139150D02*
X115950D01*
X111150D02*
X112350D01*
X110150Y132350D02*
X110150Y138250D01*
X110150Y132350D02*
X112350D01*
X89560Y141400D02*
X89940D01*
X89560Y143600D02*
X89940D01*
Y141400D02*
Y143600D01*
X89560Y141400D02*
Y143600D01*
X203000Y77840D02*
Y96440D01*
X208500D01*
Y77840D02*
Y96440D01*
X203000Y77840D02*
X208500D01*
X200500Y77070D02*
X203000D01*
Y97240D01*
X200500D02*
X203000D01*
X200500Y77070D02*
Y97240D01*
X139090Y49120D02*
X157690D01*
Y43620D02*
Y49120D01*
X139090Y43620D02*
X157690D01*
X139090D02*
Y49120D01*
X138320D02*
Y51620D01*
Y49120D02*
X158490D01*
Y51620D01*
X138320D02*
X158490D01*
X159340Y147630D02*
Y150170D01*
X154260Y147630D02*
X159340D01*
X154260D02*
Y150170D01*
X159340D01*
X151880Y147630D02*
Y150170D01*
X146800Y147630D02*
X151880D01*
X146800D02*
Y150170D01*
X151880D01*
X88211Y147730D02*
X95831D01*
Y150270D01*
X88211D02*
X95831D01*
X88211Y147730D02*
Y150270D01*
X100190Y147730D02*
X107810D01*
Y150270D01*
X100190D02*
X107810D01*
X100190Y147730D02*
Y150270D01*
X182630Y112860D02*
X185170D01*
X182630D02*
Y123020D01*
X185170Y112860D02*
Y123020D01*
X182630D02*
X185170D01*
X72440Y147780D02*
Y150320D01*
X82600D01*
X72440Y147780D02*
X82600D01*
Y150320D01*
X166750Y130150D02*
X167750D01*
X166750Y129850D02*
Y130150D01*
X167750Y129850D02*
Y130150D01*
X123750Y124650D02*
X124750D01*
X123750Y124350D02*
Y124650D01*
X124750Y124350D02*
Y124650D01*
X112350Y77000D02*
Y78000D01*
Y77000D02*
X112650D01*
X112350Y78000D02*
X112650D01*
X112350Y79250D02*
Y80250D01*
Y79250D02*
X112650D01*
X112350Y80250D02*
X112650D01*
X124270Y147730D02*
Y150270D01*
X119190Y147730D02*
X124270D01*
X119190D02*
Y150270D01*
X124270D01*
X127190Y147730D02*
Y150270D01*
X132270D01*
Y147730D02*
Y150270D01*
X127190Y147730D02*
X132270D01*
X112350Y74750D02*
Y75750D01*
Y74750D02*
X112650D01*
X112350Y75750D02*
X112650D01*
X137000Y146621D02*
X137114Y146678D01*
X137286Y146850D01*
Y145650D01*
X137937Y146564D02*
Y146621D01*
X137994Y146735D01*
X138051Y146793D01*
X138165Y146850D01*
X138394D01*
X138508Y146793D01*
X138565Y146735D01*
X138622Y146621D01*
Y146507D01*
X138565Y146393D01*
X138451Y146221D01*
X137880Y145650D01*
X138680D01*
X138948Y146850D02*
X139405Y145650D01*
X139862Y146850D02*
X139405Y145650D01*
D14*
X82550Y82405D02*
G03*
X82550Y82405I-300J0D01*
G01*
D15*
X80500Y90750D02*
X84500D01*
X80500Y87250D02*
Y90750D01*
Y87250D02*
X88500D01*
Y90750D01*
X84500D02*
X88500D01*
X104050Y66000D02*
Y136000D01*
X50100D02*
X104050D01*
X55750Y66000D02*
X104050Y66000D01*
X117947Y104230D02*
Y103430D01*
X117680Y104230D02*
X118213D01*
X118308D02*
X118842Y103430D01*
Y104230D02*
X118308Y103430D01*
X160006Y64080D02*
X160805D01*
X160920Y64248D02*
X160006Y64781D01*
Y65063D02*
X160044Y64986D01*
X160120Y64910D01*
X160196Y64872D01*
X160310Y64834D01*
X160501D01*
X160615Y64872D01*
X160691Y64910D01*
X160767Y64986D01*
X160805Y65063D01*
Y65215D01*
X160767Y65291D01*
X160691Y65367D01*
X160615Y65405D01*
X160501Y65444D01*
X160310D01*
X160196Y65405D01*
X160120Y65367D01*
X160044Y65291D01*
X160006Y65215D01*
Y65063D01*
Y66754D02*
Y66259D01*
X160805D01*
Y66754D01*
X160386Y66259D02*
Y66563D01*
X160006Y66887D02*
X160805Y67420D01*
X160006D02*
X160805Y66887D01*
X160425Y67599D02*
Y67942D01*
X160386Y68056D01*
X160348Y68094D01*
X160272Y68132D01*
X160158D01*
X160082Y68094D01*
X160044Y68056D01*
X160006Y67942D01*
Y67599D01*
X160805D01*
Y68921D02*
X160006Y68616D01*
X160805Y68311D01*
X160539Y68426D02*
Y68807D01*
X160006Y69107D02*
X160805D01*
X160006D02*
X160805Y69641D01*
X160006D02*
X160805D01*
X160006Y69862D02*
X160805D01*
X160006D02*
Y70128D01*
X160044Y70242D01*
X160120Y70319D01*
X160196Y70357D01*
X160310Y70395D01*
X160501D01*
X160615Y70357D01*
X160691Y70319D01*
X160767Y70242D01*
X160805Y70128D01*
Y69862D01*
X160006Y71069D02*
Y70574D01*
X160805D01*
Y71069D01*
X160386Y70574D02*
Y70879D01*
X160006Y71202D02*
X160805D01*
X160006D02*
Y71545D01*
X160044Y71659D01*
X160082Y71697D01*
X160158Y71736D01*
X160234D01*
X160310Y71697D01*
X160348Y71659D01*
X160386Y71545D01*
Y71202D01*
Y71469D02*
X160805Y71736D01*
X118137Y109480D02*
X117756D01*
X117718Y109137D01*
X117756Y109175D01*
X117870Y109213D01*
X117985D01*
X118099Y109175D01*
X118175Y109099D01*
X118213Y108985D01*
Y108909D01*
X118175Y108794D01*
X118099Y108718D01*
X117985Y108680D01*
X117870D01*
X117756Y108718D01*
X117718Y108756D01*
X117680Y108832D01*
X118392Y109480D02*
X118697Y108680D01*
X119002Y109480D02*
X118697Y108680D01*
X185680Y119730D02*
Y118930D01*
X186137D01*
X113370Y97930D02*
X114170D01*
X113370Y98463D02*
X114170D01*
X113751Y97930D02*
Y98463D01*
X113561Y99255D02*
X113484Y99217D01*
X113408Y99141D01*
X113370Y99065D01*
Y98913D01*
X113408Y98836D01*
X113484Y98760D01*
X113561Y98722D01*
X113675Y98684D01*
X113865D01*
X113980Y98722D01*
X114056Y98760D01*
X114132Y98836D01*
X114170Y98913D01*
Y99065D01*
X114132Y99141D01*
X114056Y99217D01*
X113980Y99255D01*
X113827Y99480D02*
Y100166D01*
X113523Y100402D02*
X113484Y100478D01*
X113370Y100592D01*
X114170D01*
X113370Y101217D02*
X113408Y101103D01*
X113523Y101026D01*
X113713Y100988D01*
X113827D01*
X114018Y101026D01*
X114132Y101103D01*
X114170Y101217D01*
Y101293D01*
X114132Y101407D01*
X114018Y101484D01*
X113827Y101522D01*
X113713D01*
X113523Y101484D01*
X113408Y101407D01*
X113370Y101293D01*
Y101217D01*
Y102329D02*
X114170D01*
X113370D02*
Y102672D01*
X113408Y102786D01*
X113446Y102824D01*
X113523Y102862D01*
X113599D01*
X113675Y102824D01*
X113713Y102786D01*
X113751Y102672D01*
Y102329D02*
Y102672D01*
X113789Y102786D01*
X113827Y102824D01*
X113903Y102862D01*
X114018D01*
X114094Y102824D01*
X114132Y102786D01*
X114170Y102672D01*
Y102329D01*
X113370Y103041D02*
X114170D01*
Y103498D01*
X113370Y103586D02*
X113941D01*
X114056Y103624D01*
X114132Y103700D01*
X114170Y103814D01*
Y103891D01*
X114132Y104005D01*
X114056Y104081D01*
X113941Y104119D01*
X113370D01*
Y104835D02*
Y104340D01*
X114170D01*
Y104835D01*
X113751Y104340D02*
Y104645D01*
X113370Y105235D02*
X114170D01*
X113370Y104968D02*
Y105502D01*
Y105825D02*
X113408Y105749D01*
X113484Y105673D01*
X113561Y105635D01*
X113675Y105597D01*
X113865D01*
X113980Y105635D01*
X114056Y105673D01*
X114132Y105749D01*
X114170Y105825D01*
Y105978D01*
X114132Y106054D01*
X114056Y106130D01*
X113980Y106168D01*
X113865Y106206D01*
X113675D01*
X113561Y106168D01*
X113484Y106130D01*
X113408Y106054D01*
X113370Y105978D01*
Y105825D01*
Y106621D02*
X113408Y106545D01*
X113484Y106469D01*
X113561Y106431D01*
X113675Y106393D01*
X113865D01*
X113980Y106431D01*
X114056Y106469D01*
X114132Y106545D01*
X114170Y106621D01*
Y106774D01*
X114132Y106850D01*
X114056Y106926D01*
X113980Y106964D01*
X113865Y107002D01*
X113675D01*
X113561Y106964D01*
X113484Y106926D01*
X113408Y106850D01*
X113370Y106774D01*
Y106621D01*
Y107456D02*
X114170D01*
X113370Y107189D02*
Y107722D01*
Y107817D02*
X114170D01*
X113370Y108351D02*
X114170D01*
X113751Y107817D02*
Y108351D01*
X186137Y116980D02*
X185756D01*
X185718Y116637D01*
X185756Y116675D01*
X185870Y116713D01*
X185985D01*
X186099Y116675D01*
X186175Y116599D01*
X186213Y116485D01*
Y116409D01*
X186175Y116294D01*
X186099Y116218D01*
X185985Y116180D01*
X185870D01*
X185756Y116218D01*
X185718Y116256D01*
X185680Y116332D01*
X186392Y116980D02*
X186697Y116180D01*
X187002Y116980D02*
X186697Y116180D01*
X118251Y106789D02*
X118213Y106866D01*
X118137Y106942D01*
X118061Y106980D01*
X117909D01*
X117832Y106942D01*
X117756Y106866D01*
X117718Y106789D01*
X117680Y106675D01*
Y106485D01*
X117718Y106370D01*
X117756Y106294D01*
X117832Y106218D01*
X117909Y106180D01*
X118061D01*
X118137Y106218D01*
X118213Y106294D01*
X118251Y106370D01*
Y106485D01*
X118061D02*
X118251D01*
X118434Y106980D02*
Y106180D01*
Y106980D02*
X118967Y106180D01*
Y106980D02*
Y106180D01*
X119188Y106980D02*
Y106180D01*
Y106980D02*
X119455D01*
X119569Y106942D01*
X119645Y106866D01*
X119683Y106789D01*
X119721Y106675D01*
Y106485D01*
X119683Y106370D01*
X119645Y106294D01*
X119569Y106218D01*
X119455Y106180D01*
X119188D01*
X75770Y145075D02*
Y144580D01*
X76570D01*
Y145075D01*
X76151Y144580D02*
Y144885D01*
X75961Y145780D02*
X75884Y145742D01*
X75808Y145665D01*
X75770Y145589D01*
Y145437D01*
X75808Y145361D01*
X75884Y145285D01*
X75961Y145247D01*
X76075Y145208D01*
X76265D01*
X76380Y145247D01*
X76456Y145285D01*
X76532Y145361D01*
X76570Y145437D01*
Y145589D01*
X76532Y145665D01*
X76456Y145742D01*
X76380Y145780D01*
X75770Y146004D02*
X76570D01*
X75770Y146538D02*
X76570D01*
X76151Y146004D02*
Y146538D01*
X75770Y146987D02*
X75808Y146911D01*
X75884Y146835D01*
X75961Y146797D01*
X76075Y146759D01*
X76265D01*
X76380Y146797D01*
X76456Y146835D01*
X76532Y146911D01*
X76570Y146987D01*
Y147139D01*
X76532Y147216D01*
X76456Y147292D01*
X76380Y147330D01*
X76265Y147368D01*
X76075D01*
X75961Y147330D01*
X75884Y147292D01*
X75808Y147216D01*
X75770Y147139D01*
Y146987D01*
X186251Y114289D02*
X186213Y114366D01*
X186137Y114442D01*
X186061Y114480D01*
X185909D01*
X185832Y114442D01*
X185756Y114366D01*
X185718Y114289D01*
X185680Y114175D01*
Y113985D01*
X185718Y113870D01*
X185756Y113794D01*
X185832Y113718D01*
X185909Y113680D01*
X186061D01*
X186137Y113718D01*
X186213Y113794D01*
X186251Y113870D01*
Y113985D01*
X186061D02*
X186251D01*
X186434Y114480D02*
Y113680D01*
Y114480D02*
X186967Y113680D01*
Y114480D02*
Y113680D01*
X187188Y114480D02*
Y113680D01*
Y114480D02*
X187455D01*
X187569Y114442D01*
X187645Y114366D01*
X187683Y114289D01*
X187721Y114175D01*
Y113985D01*
X187683Y113870D01*
X187645Y113794D01*
X187569Y113718D01*
X187455Y113680D01*
X187188D01*
X78520Y145555D02*
X79320D01*
X78520Y145288D02*
Y145822D01*
Y145917D02*
X79320D01*
X78520D02*
Y146260D01*
X78558Y146374D01*
X78596Y146412D01*
X78673Y146450D01*
X78749D01*
X78825Y146412D01*
X78863Y146374D01*
X78901Y146260D01*
Y145917D01*
Y146183D02*
X79320Y146450D01*
X78520Y146629D02*
X79320D01*
X78711Y147368D02*
X78634Y147330D01*
X78558Y147254D01*
X78520Y147178D01*
Y147025D01*
X78558Y146949D01*
X78634Y146873D01*
X78711Y146835D01*
X78825Y146797D01*
X79015D01*
X79130Y146835D01*
X79206Y146873D01*
X79282Y146949D01*
X79320Y147025D01*
Y147178D01*
X79282Y147254D01*
X79206Y147330D01*
X79130Y147368D01*
X79015D01*
Y147178D02*
Y147368D01*
X118175Y112030D02*
X117680D01*
Y111230D01*
X118175D01*
X117680Y111649D02*
X117985D01*
X118308Y112030D02*
Y111230D01*
Y112030D02*
X118842Y111230D01*
Y112030D02*
Y111230D01*
X185680Y121980D02*
Y121180D01*
X186213Y121980D02*
Y121180D01*
X185680Y121599D02*
X186213D01*
X181308Y113644D02*
X181213Y113597D01*
X181118Y113501D01*
X181070Y113406D01*
Y113216D01*
X181118Y113120D01*
X181213Y113025D01*
X181308Y112978D01*
X181451Y112930D01*
X181689D01*
X181832Y112978D01*
X181927Y113025D01*
X182022Y113120D01*
X182070Y113216D01*
Y113406D01*
X182022Y113501D01*
X181927Y113597D01*
X181832Y113644D01*
X182070Y114687D02*
X181070Y114306D01*
X182070Y113925D01*
X181737Y114068D02*
Y114544D01*
X181070Y114920D02*
X182070D01*
X181070D02*
X182070Y115587D01*
X181070D02*
X182070D01*
X181070Y115863D02*
X182070D01*
X181070D02*
Y116291D01*
X181118Y116434D01*
X181165Y116482D01*
X181261Y116529D01*
X181356D01*
X181451Y116482D01*
X181499Y116434D01*
X181546Y116291D01*
Y115863D02*
Y116291D01*
X181594Y116434D01*
X181642Y116482D01*
X181737Y116529D01*
X181880D01*
X181975Y116482D01*
X182022Y116434D01*
X182070Y116291D01*
Y115863D01*
X181070Y116753D02*
X181784D01*
X181927Y116801D01*
X182022Y116896D01*
X182070Y117039D01*
Y117134D01*
X182022Y117277D01*
X181927Y117372D01*
X181784Y117420D01*
X181070D01*
X181213Y118362D02*
X181118Y118267D01*
X181070Y118124D01*
Y117934D01*
X181118Y117791D01*
X181213Y117696D01*
X181308D01*
X181403Y117743D01*
X181451Y117791D01*
X181499Y117886D01*
X181594Y118172D01*
X181642Y118267D01*
X181689Y118315D01*
X181784Y118362D01*
X181927D01*
X182022Y118267D01*
X182070Y118124D01*
Y117934D01*
X182022Y117791D01*
X181927Y117696D01*
X117680Y101730D02*
Y100930D01*
Y101730D02*
X118023D01*
X118137Y101692D01*
X118175Y101654D01*
X118213Y101577D01*
Y101501D01*
X118175Y101425D01*
X118137Y101387D01*
X118023Y101349D01*
X117680D01*
X117947D02*
X118213Y100930D01*
X118392Y101730D02*
X118925Y100930D01*
Y101730D02*
X118392Y100930D01*
X163931Y78225D02*
X163550D01*
X163512Y77882D01*
X163550Y77920D01*
X163664Y77958D01*
X163779D01*
X163893Y77920D01*
X163969Y77844D01*
X164007Y77730D01*
Y77654D01*
X163969Y77539D01*
X163893Y77463D01*
X163779Y77425D01*
X163664D01*
X163550Y77463D01*
X163512Y77501D01*
X163474Y77577D01*
X164186Y78225D02*
X164491Y77425D01*
X164795Y78225D02*
X164491Y77425D01*
X163931Y76447D02*
X163550D01*
X163512Y76104D01*
X163550Y76142D01*
X163664Y76180D01*
X163779D01*
X163893Y76142D01*
X163969Y76066D01*
X164007Y75952D01*
Y75876D01*
X163969Y75761D01*
X163893Y75685D01*
X163779Y75647D01*
X163664D01*
X163550Y75685D01*
X163512Y75723D01*
X163474Y75800D01*
X164186Y76447D02*
X164491Y75647D01*
X164795Y76447D02*
X164491Y75647D01*
X163550Y74669D02*
X163969D01*
X163740Y74365D01*
X163855D01*
X163931Y74326D01*
X163969Y74288D01*
X164007Y74174D01*
Y74098D01*
X163969Y73984D01*
X163893Y73908D01*
X163779Y73869D01*
X163664D01*
X163550Y73908D01*
X163512Y73946D01*
X163474Y74022D01*
X164186Y74669D02*
X164491Y73869D01*
X164795Y74669D02*
X164491Y73869D01*
X164974Y74669D02*
X165393D01*
X165165Y74365D01*
X165279D01*
X165355Y74326D01*
X165393Y74288D01*
X165431Y74174D01*
Y74098D01*
X165393Y73984D01*
X165317Y73908D01*
X165203Y73869D01*
X165089D01*
X164974Y73908D01*
X164936Y73946D01*
X164898Y74022D01*
X164007Y62111D02*
X163931Y62187D01*
X163817Y62225D01*
X163664D01*
X163550Y62187D01*
X163474Y62111D01*
Y62034D01*
X163512Y61958D01*
X163550Y61920D01*
X163626Y61882D01*
X163855Y61806D01*
X163931Y61768D01*
X163969Y61730D01*
X164007Y61654D01*
Y61539D01*
X163931Y61463D01*
X163817Y61425D01*
X163664D01*
X163550Y61463D01*
X163474Y61539D01*
X164757Y62034D02*
X164719Y62111D01*
X164643Y62187D01*
X164567Y62225D01*
X164415D01*
X164338Y62187D01*
X164262Y62111D01*
X164224Y62034D01*
X164186Y61920D01*
Y61730D01*
X164224Y61615D01*
X164262Y61539D01*
X164338Y61463D01*
X164415Y61425D01*
X164567D01*
X164643Y61463D01*
X164719Y61539D01*
X164757Y61615D01*
X164982Y62225D02*
Y61425D01*
X165439D01*
X164007Y63888D02*
X163931Y63965D01*
X163817Y64003D01*
X163664D01*
X163550Y63965D01*
X163474Y63888D01*
Y63812D01*
X163512Y63736D01*
X163550Y63698D01*
X163626Y63660D01*
X163855Y63584D01*
X163931Y63546D01*
X163969Y63507D01*
X164007Y63431D01*
Y63317D01*
X163931Y63241D01*
X163817Y63203D01*
X163664D01*
X163550Y63241D01*
X163474Y63317D01*
X164186Y64003D02*
Y63203D01*
Y64003D02*
X164453D01*
X164567Y63965D01*
X164643Y63888D01*
X164681Y63812D01*
X164719Y63698D01*
Y63507D01*
X164681Y63393D01*
X164643Y63317D01*
X164567Y63241D01*
X164453Y63203D01*
X164186D01*
X165508D02*
X165203Y64003D01*
X164898Y63203D01*
X165013Y63469D02*
X165393D01*
X163474Y65361D02*
X163817D01*
X163931Y65400D01*
X163969Y65438D01*
X164007Y65514D01*
Y65628D01*
X163969Y65704D01*
X163931Y65742D01*
X163817Y65780D01*
X163474D01*
Y64981D01*
X164757Y65590D02*
X164719Y65666D01*
X164643Y65742D01*
X164567Y65780D01*
X164415D01*
X164338Y65742D01*
X164262Y65666D01*
X164224Y65590D01*
X164186Y65476D01*
Y65285D01*
X164224Y65171D01*
X164262Y65095D01*
X164338Y65019D01*
X164415Y64981D01*
X164567D01*
X164643Y65019D01*
X164719Y65095D01*
X164757Y65171D01*
X164982Y65628D02*
X165058Y65666D01*
X165172Y65780D01*
Y64981D01*
X165645Y65780D02*
X166064D01*
X165835Y65476D01*
X165949D01*
X166026Y65438D01*
X166064Y65400D01*
X166102Y65285D01*
Y65209D01*
X166064Y65095D01*
X165988Y65019D01*
X165873Y64981D01*
X165759D01*
X165645Y65019D01*
X165607Y65057D01*
X165569Y65133D01*
X164007Y72777D02*
X163931Y72853D01*
X163817Y72891D01*
X163664D01*
X163550Y72853D01*
X163474Y72777D01*
Y72701D01*
X163512Y72625D01*
X163550Y72587D01*
X163626Y72549D01*
X163855Y72473D01*
X163931Y72434D01*
X163969Y72396D01*
X164007Y72320D01*
Y72206D01*
X163931Y72130D01*
X163817Y72092D01*
X163664D01*
X163550Y72130D01*
X163474Y72206D01*
X164719Y72777D02*
X164643Y72853D01*
X164529Y72891D01*
X164376D01*
X164262Y72853D01*
X164186Y72777D01*
Y72701D01*
X164224Y72625D01*
X164262Y72587D01*
X164338Y72549D01*
X164567Y72473D01*
X164643Y72434D01*
X164681Y72396D01*
X164719Y72320D01*
Y72206D01*
X164643Y72130D01*
X164529Y72092D01*
X164376D01*
X164262Y72130D01*
X164186Y72206D01*
X163474Y71114D02*
Y70314D01*
Y71114D02*
X163779Y70314D01*
X164083Y71114D02*
X163779Y70314D01*
X164083Y71114D02*
Y70314D01*
X164540Y71114D02*
X164464Y71076D01*
X164388Y70999D01*
X164350Y70923D01*
X164312Y70809D01*
Y70619D01*
X164350Y70504D01*
X164388Y70428D01*
X164464Y70352D01*
X164540Y70314D01*
X164693D01*
X164769Y70352D01*
X164845Y70428D01*
X164883Y70504D01*
X164921Y70619D01*
Y70809D01*
X164883Y70923D01*
X164845Y70999D01*
X164769Y71076D01*
X164693Y71114D01*
X164540D01*
X165641Y70999D02*
X165565Y71076D01*
X165451Y71114D01*
X165298D01*
X165184Y71076D01*
X165108Y70999D01*
Y70923D01*
X165146Y70847D01*
X165184Y70809D01*
X165260Y70771D01*
X165489Y70695D01*
X165565Y70657D01*
X165603Y70619D01*
X165641Y70542D01*
Y70428D01*
X165565Y70352D01*
X165451Y70314D01*
X165298D01*
X165184Y70352D01*
X165108Y70428D01*
X165820Y71114D02*
Y70314D01*
X163474Y69336D02*
Y68536D01*
Y69336D02*
X163779Y68536D01*
X164083Y69336D02*
X163779Y68536D01*
X164083Y69336D02*
Y68536D01*
X164312Y69336D02*
Y68536D01*
X165013Y69222D02*
X164936Y69298D01*
X164822Y69336D01*
X164670D01*
X164555Y69298D01*
X164479Y69222D01*
Y69146D01*
X164517Y69069D01*
X164555Y69031D01*
X164632Y68993D01*
X164860Y68917D01*
X164936Y68879D01*
X164974Y68841D01*
X165013Y68765D01*
Y68650D01*
X164936Y68574D01*
X164822Y68536D01*
X164670D01*
X164555Y68574D01*
X164479Y68650D01*
X165420Y69336D02*
X165344Y69298D01*
X165268Y69222D01*
X165230Y69146D01*
X165192Y69031D01*
Y68841D01*
X165230Y68727D01*
X165268Y68650D01*
X165344Y68574D01*
X165420Y68536D01*
X165572D01*
X165649Y68574D01*
X165725Y68650D01*
X165763Y68727D01*
X165801Y68841D01*
Y69031D01*
X165763Y69146D01*
X165725Y69222D01*
X165649Y69298D01*
X165572Y69336D01*
X165420D01*
X163474Y67558D02*
Y66758D01*
Y67558D02*
X163817D01*
X163931Y67520D01*
X163969Y67482D01*
X164007Y67406D01*
Y67330D01*
X163969Y67253D01*
X163931Y67215D01*
X163817Y67177D01*
X163474D01*
X163740D02*
X164007Y66758D01*
X164719Y67444D02*
X164643Y67520D01*
X164529Y67558D01*
X164376D01*
X164262Y67520D01*
X164186Y67444D01*
Y67368D01*
X164224Y67292D01*
X164262Y67253D01*
X164338Y67215D01*
X164567Y67139D01*
X164643Y67101D01*
X164681Y67063D01*
X164719Y66987D01*
Y66873D01*
X164643Y66796D01*
X164529Y66758D01*
X164376D01*
X164262Y66796D01*
X164186Y66873D01*
X165165Y67558D02*
Y66758D01*
X164898Y67558D02*
X165431D01*
X160668Y76281D02*
X160630Y76357D01*
X160554Y76433D01*
X160478Y76472D01*
X160325D01*
X160249Y76433D01*
X160173Y76357D01*
X160135Y76281D01*
X160097Y76167D01*
Y75976D01*
X160135Y75862D01*
X160173Y75786D01*
X160249Y75710D01*
X160325Y75672D01*
X160478D01*
X160554Y75710D01*
X160630Y75786D01*
X160668Y75862D01*
Y75976D01*
X160478D02*
X160668D01*
X160851Y76472D02*
Y75672D01*
Y76472D02*
X161384Y75672D01*
Y76472D02*
Y75672D01*
X161605Y76472D02*
Y75672D01*
Y76472D02*
X161872D01*
X161986Y76433D01*
X162062Y76357D01*
X162100Y76281D01*
X162138Y76167D01*
Y75976D01*
X162100Y75862D01*
X162062Y75786D01*
X161986Y75710D01*
X161872Y75672D01*
X161605D01*
X160668Y78064D02*
X160630Y78141D01*
X160554Y78217D01*
X160478Y78255D01*
X160325D01*
X160249Y78217D01*
X160173Y78141D01*
X160135Y78064D01*
X160097Y77950D01*
Y77760D01*
X160135Y77645D01*
X160173Y77569D01*
X160249Y77493D01*
X160325Y77455D01*
X160478D01*
X160554Y77493D01*
X160630Y77569D01*
X160668Y77645D01*
Y77760D01*
X160478D02*
X160668D01*
X160851Y78255D02*
Y77455D01*
Y78255D02*
X161384Y77455D01*
Y78255D02*
Y77455D01*
X161605Y78255D02*
Y77455D01*
Y78255D02*
X161872D01*
X161986Y78217D01*
X162062Y78141D01*
X162100Y78064D01*
X162138Y77950D01*
Y77760D01*
X162100Y77645D01*
X162062Y77569D01*
X161986Y77493D01*
X161872Y77455D01*
X161605D01*
X162153Y72791D02*
X162115Y72867D01*
X162001Y72905D01*
X161925D01*
X161810Y72867D01*
X161734Y72753D01*
X161696Y72562D01*
Y72372D01*
X161734Y72219D01*
X161810Y72143D01*
X161925Y72105D01*
X161963D01*
X162077Y72143D01*
X162153Y72219D01*
X162191Y72334D01*
Y72372D01*
X162153Y72486D01*
X162077Y72562D01*
X161963Y72600D01*
X161925D01*
X161810Y72562D01*
X161734Y72486D01*
X161696Y72372D01*
X162229Y74688D02*
X161849Y73888D01*
X161696Y74688D02*
X162229D01*
X162153Y71122D02*
X161772D01*
X161734Y70779D01*
X161772Y70817D01*
X161887Y70855D01*
X162001D01*
X162115Y70817D01*
X162191Y70741D01*
X162229Y70626D01*
Y70550D01*
X162191Y70436D01*
X162115Y70360D01*
X162001Y70322D01*
X161887D01*
X161772Y70360D01*
X161734Y70398D01*
X161696Y70474D01*
X161925Y62205D02*
X161810Y62167D01*
X161734Y62053D01*
X161696Y61862D01*
Y61748D01*
X161734Y61557D01*
X161810Y61443D01*
X161925Y61405D01*
X162001D01*
X162115Y61443D01*
X162191Y61557D01*
X162229Y61748D01*
Y61862D01*
X162191Y62053D01*
X162115Y62167D01*
X162001Y62205D01*
X161925D01*
X162077Y69338D02*
X161696Y68805D01*
X162268D01*
X162077Y69338D02*
Y68538D01*
X161772Y67555D02*
X162191D01*
X161963Y67250D01*
X162077D01*
X162153Y67212D01*
X162191Y67174D01*
X162229Y67060D01*
Y66984D01*
X162191Y66869D01*
X162115Y66793D01*
X162001Y66755D01*
X161887D01*
X161772Y66793D01*
X161734Y66831D01*
X161696Y66907D01*
X161734Y65581D02*
Y65619D01*
X161772Y65695D01*
X161810Y65733D01*
X161887Y65772D01*
X162039D01*
X162115Y65733D01*
X162153Y65695D01*
X162191Y65619D01*
Y65543D01*
X162153Y65467D01*
X162077Y65353D01*
X161696Y64972D01*
X162229D01*
X161963Y63836D02*
X162039Y63874D01*
X162153Y63988D01*
Y63188D01*
X140150Y57605D02*
Y58101D01*
X139350D01*
Y57605D01*
X139769Y58101D02*
Y57796D01*
X142650Y58900D02*
X141850D01*
X142650D02*
Y58557D01*
X142612Y58443D01*
X142574Y58405D01*
X142497Y58367D01*
X142421D01*
X142345Y58405D01*
X142307Y58443D01*
X142269Y58557D01*
Y58900D01*
Y58634D02*
X141850Y58367D01*
X142536Y57655D02*
X142612Y57731D01*
X142650Y57845D01*
Y57998D01*
X142612Y58112D01*
X142536Y58188D01*
X142459D01*
X142383Y58150D01*
X142345Y58112D01*
X142307Y58036D01*
X142231Y57807D01*
X142193Y57731D01*
X142155Y57693D01*
X142079Y57655D01*
X141964D01*
X141888Y57731D01*
X141850Y57845D01*
Y57998D01*
X141888Y58112D01*
X141964Y58188D01*
X145200Y58900D02*
X144400D01*
X145200D02*
Y58634D01*
X145162Y58519D01*
X145086Y58443D01*
X145009Y58405D01*
X144895Y58367D01*
X144705D01*
X144590Y58405D01*
X144514Y58443D01*
X144438Y58519D01*
X144400Y58634D01*
Y58900D01*
X145200Y57807D02*
X144667Y58188D01*
Y57617D01*
X145200Y57807D02*
X144400D01*
X147650Y58900D02*
X146850D01*
X147650D02*
Y58634D01*
X147612Y58519D01*
X147536Y58443D01*
X147459Y58405D01*
X147345Y58367D01*
X147155D01*
X147040Y58405D01*
X146964Y58443D01*
X146888Y58519D01*
X146850Y58634D01*
Y58900D01*
X147650Y57731D02*
Y58112D01*
X147307Y58150D01*
X147345Y58112D01*
X147383Y57998D01*
Y57883D01*
X147345Y57769D01*
X147269Y57693D01*
X147155Y57655D01*
X147079D01*
X146964Y57693D01*
X146888Y57769D01*
X146850Y57883D01*
Y57998D01*
X146888Y58112D01*
X146926Y58150D01*
X147002Y58188D01*
X150250Y58900D02*
X149450D01*
X150250D02*
Y58634D01*
X150212Y58519D01*
X150136Y58443D01*
X150059Y58405D01*
X149945Y58367D01*
X149755D01*
X149640Y58405D01*
X149564Y58443D01*
X149488Y58519D01*
X149450Y58634D01*
Y58900D01*
X150136Y57731D02*
X150212Y57769D01*
X150250Y57883D01*
Y57960D01*
X150212Y58074D01*
X150097Y58150D01*
X149907Y58188D01*
X149717D01*
X149564Y58150D01*
X149488Y58074D01*
X149450Y57960D01*
Y57921D01*
X149488Y57807D01*
X149564Y57731D01*
X149679Y57693D01*
X149717D01*
X149831Y57731D01*
X149907Y57807D01*
X149945Y57921D01*
Y57960D01*
X149907Y58074D01*
X149831Y58150D01*
X149717Y58188D01*
X152800Y58900D02*
X152000D01*
X152800D02*
Y58634D01*
X152762Y58519D01*
X152686Y58443D01*
X152609Y58405D01*
X152495Y58367D01*
X152305D01*
X152190Y58405D01*
X152114Y58443D01*
X152038Y58519D01*
X152000Y58634D01*
Y58900D01*
X152800Y57655D02*
X152000Y58036D01*
X152800Y58188D02*
Y57655D01*
X155300Y58900D02*
X154500D01*
X155300D02*
Y58557D01*
X155262Y58443D01*
X155224Y58405D01*
X155147Y58367D01*
X155071D01*
X154995Y58405D01*
X154957Y58443D01*
X154919Y58557D01*
Y58900D02*
Y58557D01*
X154881Y58443D01*
X154843Y58405D01*
X154767Y58367D01*
X154652D01*
X154576Y58405D01*
X154538Y58443D01*
X154500Y58557D01*
Y58900D01*
X155300Y58188D02*
X154500D01*
Y57731D01*
X157686Y59167D02*
X157762Y59243D01*
X157800Y59357D01*
Y59510D01*
X157762Y59624D01*
X157686Y59700D01*
X157609D01*
X157533Y59662D01*
X157495Y59624D01*
X157457Y59548D01*
X157381Y59319D01*
X157343Y59243D01*
X157305Y59205D01*
X157229Y59167D01*
X157114D01*
X157038Y59243D01*
X157000Y59357D01*
Y59510D01*
X157038Y59624D01*
X157114Y59700D01*
X157800Y58988D02*
X157000D01*
X157800D02*
Y58645D01*
X157762Y58531D01*
X157724Y58493D01*
X157647Y58455D01*
X157571D01*
X157495Y58493D01*
X157457Y58531D01*
X157419Y58645D01*
Y58988D01*
Y58721D02*
X157000Y58455D01*
X157800Y58276D02*
X157000Y57971D01*
X157800Y57666D02*
X157000Y57971D01*
X191995Y81350D02*
X191500D01*
Y80550D01*
X191995D01*
X191500Y80969D02*
X191805D01*
X192128Y81350D02*
Y80550D01*
Y81350D02*
X192662Y80550D01*
Y81350D02*
Y80550D01*
X193454Y81159D02*
X193416Y81236D01*
X193340Y81312D01*
X193263Y81350D01*
X193111D01*
X193035Y81312D01*
X192959Y81236D01*
X192921Y81159D01*
X192883Y81045D01*
Y80855D01*
X192921Y80740D01*
X192959Y80664D01*
X193035Y80588D01*
X193111Y80550D01*
X193263D01*
X193340Y80588D01*
X193416Y80664D01*
X193454Y80740D01*
X193679Y81350D02*
Y80550D01*
Y81350D02*
X194021D01*
X194136Y81312D01*
X194174Y81274D01*
X194212Y81197D01*
Y81121D01*
X194174Y81045D01*
X194136Y81007D01*
X194021Y80969D01*
X193679D01*
X193945D02*
X194212Y80550D01*
X191995Y78700D02*
X191500D01*
Y77900D01*
X191995D01*
X191500Y78319D02*
X191805D01*
X192128Y78700D02*
Y77900D01*
Y78700D02*
X192662Y77900D01*
Y78700D02*
Y77900D01*
X193454Y78509D02*
X193416Y78586D01*
X193340Y78662D01*
X193263Y78700D01*
X193111D01*
X193035Y78662D01*
X192959Y78586D01*
X192921Y78509D01*
X192883Y78395D01*
Y78205D01*
X192921Y78090D01*
X192959Y78014D01*
X193035Y77938D01*
X193111Y77900D01*
X193263D01*
X193340Y77938D01*
X193416Y78014D01*
X193454Y78090D01*
X193679Y78700D02*
Y77900D01*
X194136D01*
X192300Y83231D02*
X192643D01*
X192757Y83269D01*
X192795Y83307D01*
X192833Y83383D01*
Y83497D01*
X192795Y83574D01*
X192757Y83612D01*
X192643Y83650D01*
X192300D01*
Y82850D01*
X193012Y83650D02*
Y82850D01*
X193545Y83650D02*
Y82850D01*
X193012Y83269D02*
X193545D01*
X194375Y82850D02*
X194071Y83650D01*
X193766Y82850D01*
X193880Y83117D02*
X194261D01*
X192300Y85881D02*
X192643D01*
X192757Y85919D01*
X192795Y85957D01*
X192833Y86033D01*
Y86147D01*
X192795Y86224D01*
X192757Y86262D01*
X192643Y86300D01*
X192300D01*
Y85500D01*
X193012Y86300D02*
Y85500D01*
X193545Y86300D02*
Y85500D01*
X193012Y85919D02*
X193545D01*
X193766Y86300D02*
Y85500D01*
Y86300D02*
X194109D01*
X194223Y86262D01*
X194261Y86224D01*
X194299Y86147D01*
Y86071D01*
X194261Y85995D01*
X194223Y85957D01*
X194109Y85919D01*
X193766D02*
X194109D01*
X194223Y85881D01*
X194261Y85843D01*
X194299Y85767D01*
Y85652D01*
X194261Y85576D01*
X194223Y85538D01*
X194109Y85500D01*
X193766D01*
X192795Y88850D02*
X192300D01*
Y88050D01*
X192795D01*
X192300Y88469D02*
X192604D01*
X192928Y88850D02*
Y88050D01*
Y88850D02*
X193461Y88050D01*
Y88850D02*
Y88050D01*
X194292D02*
X193987Y88850D01*
X193682Y88050D01*
X193797Y88317D02*
X194177D01*
X192795Y91400D02*
X192300D01*
Y90600D01*
X192795D01*
X192300Y91019D02*
X192604D01*
X192928Y91400D02*
Y90600D01*
Y91400D02*
X193461Y90600D01*
Y91400D02*
Y90600D01*
X193682Y91400D02*
Y90600D01*
Y91400D02*
X194025D01*
X194139Y91362D01*
X194177Y91324D01*
X194216Y91247D01*
Y91171D01*
X194177Y91095D01*
X194139Y91057D01*
X194025Y91019D01*
X193682D02*
X194025D01*
X194139Y90981D01*
X194177Y90943D01*
X194216Y90867D01*
Y90752D01*
X194177Y90676D01*
X194139Y90638D01*
X194025Y90600D01*
X193682D01*
X193099Y94000D02*
Y93200D01*
Y94000D02*
X193633Y93200D01*
Y94000D02*
Y93200D01*
X194425Y93809D02*
X194387Y93886D01*
X194311Y93962D01*
X194234Y94000D01*
X194082D01*
X194006Y93962D01*
X193930Y93886D01*
X193892Y93809D01*
X193854Y93695D01*
Y93505D01*
X193892Y93390D01*
X193930Y93314D01*
X194006Y93238D01*
X194082Y93200D01*
X194234D01*
X194311Y93238D01*
X194387Y93314D01*
X194425Y93390D01*
X193099Y96450D02*
Y95650D01*
Y96450D02*
X193633Y95650D01*
Y96450D02*
Y95650D01*
X194425Y96259D02*
X194387Y96336D01*
X194311Y96412D01*
X194234Y96450D01*
X194082D01*
X194006Y96412D01*
X193930Y96336D01*
X193892Y96259D01*
X193854Y96145D01*
Y95955D01*
X193892Y95840D01*
X193930Y95764D01*
X194006Y95688D01*
X194082Y95650D01*
X194234D01*
X194311Y95688D01*
X194387Y95764D01*
X194425Y95840D01*
X191321Y109859D02*
X191283Y109936D01*
X191207Y110012D01*
X191131Y110050D01*
X190979D01*
X190902Y110012D01*
X190826Y109936D01*
X190788Y109859D01*
X190750Y109745D01*
Y109555D01*
X190788Y109440D01*
X190826Y109364D01*
X190902Y109288D01*
X190979Y109250D01*
X191131D01*
X191207Y109288D01*
X191283Y109364D01*
X191321Y109440D01*
X192155Y109250D02*
X191851Y110050D01*
X191546Y109250D01*
X191660Y109517D02*
X192041D01*
X192342Y110050D02*
Y109250D01*
Y110050D02*
X192875Y109250D01*
Y110050D02*
Y109250D01*
X193363Y110050D02*
Y109250D01*
X193096Y110050D02*
X193629D01*
X193725D02*
X194258Y109250D01*
Y110050D02*
X193725Y109250D01*
X191321Y112609D02*
X191283Y112686D01*
X191207Y112762D01*
X191131Y112800D01*
X190979D01*
X190902Y112762D01*
X190826Y112686D01*
X190788Y112609D01*
X190750Y112495D01*
Y112305D01*
X190788Y112190D01*
X190826Y112114D01*
X190902Y112038D01*
X190979Y112000D01*
X191131D01*
X191207Y112038D01*
X191283Y112114D01*
X191321Y112190D01*
X192155Y112000D02*
X191851Y112800D01*
X191546Y112000D01*
X191660Y112267D02*
X192041D01*
X192342Y112800D02*
Y112000D01*
Y112800D02*
X192875Y112000D01*
Y112800D02*
Y112000D01*
X193096Y112800D02*
Y112000D01*
Y112800D02*
X193439D01*
X193553Y112762D01*
X193591Y112724D01*
X193629Y112647D01*
Y112571D01*
X193591Y112495D01*
X193553Y112457D01*
X193439Y112419D01*
X193096D01*
X193363D02*
X193629Y112000D01*
X193808Y112800D02*
X194342Y112000D01*
Y112800D02*
X193808Y112000D01*
X193149Y115350D02*
Y114550D01*
Y115350D02*
X193682Y114550D01*
Y115350D02*
Y114550D01*
X194475Y115159D02*
X194437Y115236D01*
X194360Y115312D01*
X194284Y115350D01*
X194132D01*
X194056Y115312D01*
X193980Y115236D01*
X193941Y115159D01*
X193903Y115045D01*
Y114855D01*
X193941Y114740D01*
X193980Y114664D01*
X194056Y114588D01*
X194132Y114550D01*
X194284D01*
X194360Y114588D01*
X194437Y114664D01*
X194475Y114740D01*
X191283Y117786D02*
X191207Y117862D01*
X191093Y117900D01*
X190940D01*
X190826Y117862D01*
X190750Y117786D01*
Y117709D01*
X190788Y117633D01*
X190826Y117595D01*
X190902Y117557D01*
X191131Y117481D01*
X191207Y117443D01*
X191245Y117405D01*
X191283Y117329D01*
Y117214D01*
X191207Y117138D01*
X191093Y117100D01*
X190940D01*
X190826Y117138D01*
X190750Y117214D01*
X191729Y117900D02*
Y117100D01*
X191462Y117900D02*
X191995D01*
X192091Y117481D02*
X192433D01*
X192548Y117519D01*
X192586Y117557D01*
X192624Y117633D01*
Y117747D01*
X192586Y117824D01*
X192548Y117862D01*
X192433Y117900D01*
X192091D01*
Y117100D01*
X193298Y117900D02*
X192803D01*
Y117100D01*
X193298D01*
X192803Y117519D02*
X193108D01*
X193431Y117900D02*
Y117100D01*
Y117900D02*
X193965Y117100D01*
Y117900D02*
Y117100D01*
X191683Y120450D02*
Y119650D01*
X192140D01*
X192228Y120450D02*
Y119650D01*
X192395Y120450D02*
Y119650D01*
Y120450D02*
X192700Y119650D01*
X193005Y120450D02*
X192700Y119650D01*
X193005Y120450D02*
Y119650D01*
X193233Y120450D02*
Y119650D01*
X193690D01*
X191683Y122900D02*
Y122100D01*
X192140D01*
X192228Y122900D02*
Y122100D01*
X192395Y122900D02*
Y122100D01*
Y122900D02*
X192700Y122100D01*
X193005Y122900D02*
X192700Y122100D01*
X193005Y122900D02*
Y122100D01*
X193233Y122900D02*
Y122100D01*
Y122900D02*
X193576D01*
X193690Y122862D01*
X193728Y122824D01*
X193766Y122747D01*
Y122671D01*
X193728Y122595D01*
X193690Y122557D01*
X193576Y122519D01*
X193233D01*
X193500D02*
X193766Y122100D01*
X192883Y125286D02*
X192807Y125362D01*
X192692Y125400D01*
X192540D01*
X192426Y125362D01*
X192349Y125286D01*
Y125209D01*
X192388Y125133D01*
X192426Y125095D01*
X192502Y125057D01*
X192730Y124981D01*
X192807Y124943D01*
X192845Y124905D01*
X192883Y124829D01*
Y124714D01*
X192807Y124638D01*
X192692Y124600D01*
X192540D01*
X192426Y124638D01*
X192349Y124714D01*
X193328Y125400D02*
Y124600D01*
X193062Y125400D02*
X193595D01*
X193690Y124981D02*
X194033D01*
X194147Y125019D01*
X194185Y125057D01*
X194223Y125133D01*
Y125247D01*
X194185Y125324D01*
X194147Y125362D01*
X194033Y125400D01*
X193690D01*
Y124600D01*
X192483Y128000D02*
Y127200D01*
Y128000D02*
X192749D01*
X192864Y127962D01*
X192940Y127886D01*
X192978Y127809D01*
X193016Y127695D01*
Y127505D01*
X192978Y127390D01*
X192940Y127314D01*
X192864Y127238D01*
X192749Y127200D01*
X192483D01*
X193195Y128000D02*
Y127200D01*
X193363Y128000D02*
Y127200D01*
Y128000D02*
X193705D01*
X193820Y127962D01*
X193858Y127924D01*
X193896Y127847D01*
Y127771D01*
X193858Y127695D01*
X193820Y127657D01*
X193705Y127619D01*
X193363D01*
X193629D02*
X193896Y127200D01*
X182814Y145917D02*
X182738Y145840D01*
X182700Y145726D01*
Y145574D01*
X182738Y145459D01*
X182814Y145383D01*
X182891D01*
X182967Y145421D01*
X183005Y145459D01*
X183043Y145536D01*
X183119Y145764D01*
X183157Y145840D01*
X183195Y145878D01*
X183271Y145917D01*
X183386D01*
X183462Y145840D01*
X183500Y145726D01*
Y145574D01*
X183462Y145459D01*
X183386Y145383D01*
X182700Y146096D02*
X183500D01*
X182891Y146834D02*
X182814Y146796D01*
X182738Y146720D01*
X182700Y146644D01*
Y146492D01*
X182738Y146415D01*
X182814Y146339D01*
X182891Y146301D01*
X183005Y146263D01*
X183195D01*
X183310Y146301D01*
X183386Y146339D01*
X183462Y146415D01*
X183500Y146492D01*
Y146644D01*
X183462Y146720D01*
X183386Y146796D01*
X183310Y146834D01*
X183195D01*
Y146644D02*
Y146834D01*
X180200Y146507D02*
Y146126D01*
X180543Y146088D01*
X180505Y146126D01*
X180467Y146240D01*
Y146354D01*
X180505Y146469D01*
X180581Y146545D01*
X180695Y146583D01*
X180771D01*
X180886Y146545D01*
X180962Y146469D01*
X181000Y146354D01*
Y146240D01*
X180962Y146126D01*
X180924Y146088D01*
X180848Y146050D01*
X180200Y146762D02*
X181000Y147067D01*
X180200Y147371D02*
X181000Y147067D01*
X177681Y145821D02*
X177604Y145783D01*
X177528Y145707D01*
X177490Y145631D01*
Y145479D01*
X177528Y145402D01*
X177604Y145326D01*
X177681Y145288D01*
X177795Y145250D01*
X177985D01*
X178100Y145288D01*
X178176Y145326D01*
X178252Y145402D01*
X178290Y145479D01*
Y145631D01*
X178252Y145707D01*
X178176Y145783D01*
X178100Y145821D01*
X177985D01*
Y145631D02*
Y145821D01*
X177490Y146004D02*
X178290D01*
X177490D02*
X178290Y146537D01*
X177490D02*
X178290D01*
X177490Y146758D02*
X178290D01*
X177490D02*
Y147025D01*
X177528Y147139D01*
X177604Y147215D01*
X177681Y147253D01*
X177795Y147291D01*
X177985D01*
X178100Y147253D01*
X178176Y147215D01*
X178252Y147139D01*
X178290Y147025D01*
Y146758D01*
X172950Y146876D02*
X172150Y146571D01*
X172950Y146267D01*
X172683Y146381D02*
Y146762D01*
X172303Y147063D02*
X172264Y147139D01*
X172150Y147253D01*
X172950D01*
X170450Y146609D02*
X169650Y146305D01*
X170450Y146000D01*
X170183Y146114D02*
Y146495D01*
X169841Y146834D02*
X169803D01*
X169726Y146872D01*
X169688Y146910D01*
X169650Y146986D01*
Y147139D01*
X169688Y147215D01*
X169726Y147253D01*
X169803Y147291D01*
X169879D01*
X169955Y147253D01*
X170069Y147177D01*
X170450Y146796D01*
Y147329D01*
X167150Y146000D02*
X167950D01*
X167150D02*
Y146343D01*
X167188Y146457D01*
X167226Y146495D01*
X167303Y146533D01*
X167379D01*
X167455Y146495D01*
X167493Y146457D01*
X167531Y146343D01*
Y146000D02*
Y146343D01*
X167569Y146457D01*
X167607Y146495D01*
X167683Y146533D01*
X167798D01*
X167874Y146495D01*
X167912Y146457D01*
X167950Y146343D01*
Y146000D01*
X167341Y146750D02*
X167303D01*
X167226Y146788D01*
X167188Y146826D01*
X167150Y146903D01*
Y147055D01*
X167188Y147131D01*
X167226Y147169D01*
X167303Y147207D01*
X167379D01*
X167455Y147169D01*
X167569Y147093D01*
X167950Y146712D01*
Y147245D01*
X164650Y146267D02*
X165450D01*
X164650D02*
Y146609D01*
X164688Y146724D01*
X164726Y146762D01*
X164803Y146800D01*
X164879D01*
X164955Y146762D01*
X164993Y146724D01*
X165031Y146609D01*
Y146267D02*
Y146609D01*
X165069Y146724D01*
X165107Y146762D01*
X165183Y146800D01*
X165298D01*
X165374Y146762D01*
X165412Y146724D01*
X165450Y146609D01*
Y146267D01*
X164803Y146979D02*
X164764Y147055D01*
X164650Y147169D01*
X165450D01*
X155241Y145671D02*
X155164Y145633D01*
X155088Y145557D01*
X155050Y145481D01*
Y145329D01*
X155088Y145252D01*
X155164Y145176D01*
X155241Y145138D01*
X155355Y145100D01*
X155545D01*
X155660Y145138D01*
X155736Y145176D01*
X155812Y145252D01*
X155850Y145329D01*
Y145481D01*
X155812Y145557D01*
X155736Y145633D01*
X155660Y145671D01*
X155545D01*
Y145481D02*
Y145671D01*
X155050Y145854D02*
X155850D01*
X155050D02*
X155850Y146387D01*
X155050D02*
X155850D01*
X155050Y146608D02*
X155850D01*
X155050D02*
Y146875D01*
X155088Y146989D01*
X155164Y147065D01*
X155241Y147103D01*
X155355Y147141D01*
X155545D01*
X155660Y147103D01*
X155736Y147065D01*
X155812Y146989D01*
X155850Y146875D01*
Y146608D01*
X147891Y145671D02*
X147814Y145633D01*
X147738Y145557D01*
X147700Y145481D01*
Y145329D01*
X147738Y145252D01*
X147814Y145176D01*
X147891Y145138D01*
X148005Y145100D01*
X148195D01*
X148310Y145138D01*
X148386Y145176D01*
X148462Y145252D01*
X148500Y145329D01*
Y145481D01*
X148462Y145557D01*
X148386Y145633D01*
X148310Y145671D01*
X148195D01*
Y145481D02*
Y145671D01*
X147700Y145854D02*
X148500D01*
X147700D02*
X148500Y146387D01*
X147700D02*
X148500D01*
X147700Y146608D02*
X148500D01*
X147700D02*
Y146875D01*
X147738Y146989D01*
X147814Y147065D01*
X147891Y147103D01*
X148005Y147141D01*
X148195D01*
X148310Y147103D01*
X148386Y147065D01*
X148462Y146989D01*
X148500Y146875D01*
Y146608D01*
X119950Y146267D02*
X120750D01*
X119950D02*
Y146609D01*
X119988Y146724D01*
X120026Y146762D01*
X120103Y146800D01*
X120179D01*
X120255Y146762D01*
X120293Y146724D01*
X120331Y146609D01*
Y146267D02*
Y146609D01*
X120369Y146724D01*
X120407Y146762D01*
X120483Y146800D01*
X120598D01*
X120674Y146762D01*
X120712Y146724D01*
X120750Y146609D01*
Y146267D01*
X120103Y146979D02*
X120064Y147055D01*
X119950Y147169D01*
X120750D01*
X122700Y146000D02*
X123500D01*
X122700D02*
Y146343D01*
X122738Y146457D01*
X122776Y146495D01*
X122853Y146533D01*
X122929D01*
X123005Y146495D01*
X123043Y146457D01*
X123081Y146343D01*
Y146000D02*
Y146343D01*
X123119Y146457D01*
X123157Y146495D01*
X123233Y146533D01*
X123348D01*
X123424Y146495D01*
X123462Y146457D01*
X123500Y146343D01*
Y146000D01*
X122891Y146750D02*
X122853D01*
X122776Y146788D01*
X122738Y146826D01*
X122700Y146903D01*
Y147055D01*
X122738Y147131D01*
X122776Y147169D01*
X122853Y147207D01*
X122929D01*
X123005Y147169D01*
X123119Y147093D01*
X123500Y146712D01*
Y147245D01*
X128856Y146609D02*
X128056Y146305D01*
X128856Y146000D01*
X128589Y146114D02*
Y146495D01*
X128247Y146834D02*
X128209D01*
X128132Y146872D01*
X128094Y146910D01*
X128056Y146986D01*
Y147139D01*
X128094Y147215D01*
X128132Y147253D01*
X128209Y147291D01*
X128285D01*
X128361Y147253D01*
X128475Y147177D01*
X128856Y146796D01*
Y147329D01*
X131500Y146876D02*
X130700Y146571D01*
X131500Y146267D01*
X131233Y146381D02*
Y146762D01*
X130853Y147063D02*
X130814Y147139D01*
X130700Y147253D01*
X131500D01*
X66119Y145000D02*
Y145343D01*
X66081Y145457D01*
X66043Y145495D01*
X65967Y145533D01*
X65853D01*
X65776Y145495D01*
X65738Y145457D01*
X65700Y145343D01*
Y145000D01*
X66500D01*
Y146322D02*
X65700Y146017D01*
X66500Y145712D01*
X66233Y145826D02*
Y146207D01*
X65700Y146965D02*
Y146584D01*
X66043Y146546D01*
X66005Y146584D01*
X65967Y146699D01*
Y146813D01*
X66005Y146927D01*
X66081Y147003D01*
X66195Y147041D01*
X66271D01*
X66386Y147003D01*
X66462Y146927D01*
X66500Y146813D01*
Y146699D01*
X66462Y146584D01*
X66424Y146546D01*
X66348Y146508D01*
X106314Y145917D02*
X106238Y145840D01*
X106200Y145726D01*
Y145574D01*
X106238Y145459D01*
X106314Y145383D01*
X106391D01*
X106467Y145421D01*
X106505Y145459D01*
X106543Y145536D01*
X106619Y145764D01*
X106657Y145840D01*
X106695Y145878D01*
X106771Y145917D01*
X106886D01*
X106962Y145840D01*
X107000Y145726D01*
Y145574D01*
X106962Y145459D01*
X106886Y145383D01*
X106200Y146096D02*
X107000D01*
X106391Y146834D02*
X106314Y146796D01*
X106238Y146720D01*
X106200Y146644D01*
Y146492D01*
X106238Y146415D01*
X106314Y146339D01*
X106391Y146301D01*
X106505Y146263D01*
X106695D01*
X106810Y146301D01*
X106886Y146339D01*
X106962Y146415D01*
X107000Y146492D01*
Y146644D01*
X106962Y146720D01*
X106886Y146796D01*
X106810Y146834D01*
X106695D01*
Y146644D02*
Y146834D01*
X103700Y145250D02*
X104500D01*
Y145707D01*
X103700Y146290D02*
Y145795D01*
X104500D01*
Y146290D01*
X104081Y145795D02*
Y146099D01*
X103700Y146423D02*
X104500D01*
X103700D02*
Y146690D01*
X103738Y146804D01*
X103814Y146880D01*
X103891Y146918D01*
X104005Y146956D01*
X104195D01*
X104310Y146918D01*
X104386Y146880D01*
X104462Y146804D01*
X104500Y146690D01*
Y146423D01*
X101141Y145821D02*
X101064Y145783D01*
X100988Y145707D01*
X100950Y145631D01*
Y145479D01*
X100988Y145402D01*
X101064Y145326D01*
X101141Y145288D01*
X101255Y145250D01*
X101445D01*
X101560Y145288D01*
X101636Y145326D01*
X101712Y145402D01*
X101750Y145479D01*
Y145631D01*
X101712Y145707D01*
X101636Y145783D01*
X101560Y145821D01*
X101445D01*
Y145631D02*
Y145821D01*
X100950Y146004D02*
X101750D01*
X100950D02*
X101750Y146537D01*
X100950D02*
X101750D01*
X100950Y146758D02*
X101750D01*
X100950D02*
Y147025D01*
X100988Y147139D01*
X101064Y147215D01*
X101141Y147253D01*
X101255Y147291D01*
X101445D01*
X101560Y147253D01*
X101636Y147215D01*
X101712Y147139D01*
X101750Y147025D01*
Y146758D01*
X94314Y145917D02*
X94238Y145840D01*
X94200Y145726D01*
Y145574D01*
X94238Y145459D01*
X94314Y145383D01*
X94391D01*
X94467Y145421D01*
X94505Y145459D01*
X94543Y145536D01*
X94619Y145764D01*
X94657Y145840D01*
X94695Y145878D01*
X94771Y145917D01*
X94886D01*
X94962Y145840D01*
X95000Y145726D01*
Y145574D01*
X94962Y145459D01*
X94886Y145383D01*
X94200Y146096D02*
X95000D01*
X94391Y146834D02*
X94314Y146796D01*
X94238Y146720D01*
X94200Y146644D01*
Y146492D01*
X94238Y146415D01*
X94314Y146339D01*
X94391Y146301D01*
X94505Y146263D01*
X94695D01*
X94810Y146301D01*
X94886Y146339D01*
X94962Y146415D01*
X95000Y146492D01*
Y146644D01*
X94962Y146720D01*
X94886Y146796D01*
X94810Y146834D01*
X94695D01*
Y146644D02*
Y146834D01*
X91700Y145250D02*
X92500D01*
Y145707D01*
X91700Y146290D02*
Y145795D01*
X92500D01*
Y146290D01*
X92081Y145795D02*
Y146099D01*
X91700Y146423D02*
X92500D01*
X91700D02*
Y146690D01*
X91738Y146804D01*
X91814Y146880D01*
X91891Y146918D01*
X92005Y146956D01*
X92195D01*
X92310Y146918D01*
X92386Y146880D01*
X92462Y146804D01*
X92500Y146690D01*
Y146423D01*
X89331Y145821D02*
X89254Y145783D01*
X89178Y145707D01*
X89140Y145631D01*
Y145479D01*
X89178Y145402D01*
X89254Y145326D01*
X89331Y145288D01*
X89445Y145250D01*
X89635D01*
X89750Y145288D01*
X89826Y145326D01*
X89902Y145402D01*
X89940Y145479D01*
Y145631D01*
X89902Y145707D01*
X89826Y145783D01*
X89750Y145821D01*
X89635D01*
Y145631D02*
Y145821D01*
X89140Y146004D02*
X89940D01*
X89140D02*
X89940Y146537D01*
X89140D02*
X89940D01*
X89140Y146758D02*
X89940D01*
X89140D02*
Y147025D01*
X89178Y147139D01*
X89254Y147215D01*
X89331Y147253D01*
X89445Y147291D01*
X89635D01*
X89750Y147253D01*
X89826Y147215D01*
X89902Y147139D01*
X89940Y147025D01*
Y146758D01*
X80950Y146492D02*
Y146111D01*
X81293Y146073D01*
X81255Y146111D01*
X81217Y146226D01*
Y146340D01*
X81255Y146454D01*
X81331Y146530D01*
X81445Y146568D01*
X81521D01*
X81636Y146530D01*
X81712Y146454D01*
X81750Y146340D01*
Y146226D01*
X81712Y146111D01*
X81674Y146073D01*
X81598Y146035D01*
X80950Y146747D02*
X81750Y147052D01*
X80950Y147357D02*
X81750Y147052D01*
X73391Y145807D02*
X73314Y145769D01*
X73238Y145692D01*
X73200Y145616D01*
Y145464D01*
X73238Y145388D01*
X73314Y145312D01*
X73391Y145273D01*
X73505Y145235D01*
X73695D01*
X73810Y145273D01*
X73886Y145312D01*
X73962Y145388D01*
X74000Y145464D01*
Y145616D01*
X73962Y145692D01*
X73886Y145769D01*
X73810Y145807D01*
X73695D01*
Y145616D02*
Y145807D01*
X73200Y145989D02*
X74000D01*
X73200D02*
X74000Y146523D01*
X73200D02*
X74000D01*
X73200Y146744D02*
X74000D01*
X73200D02*
Y147010D01*
X73238Y147124D01*
X73314Y147201D01*
X73391Y147239D01*
X73505Y147277D01*
X73695D01*
X73810Y147239D01*
X73886Y147201D01*
X73962Y147124D01*
X74000Y147010D01*
Y146744D01*
X63391Y145571D02*
X63314Y145533D01*
X63238Y145457D01*
X63200Y145381D01*
Y145229D01*
X63238Y145152D01*
X63314Y145076D01*
X63391Y145038D01*
X63505Y145000D01*
X63695D01*
X63810Y145038D01*
X63886Y145076D01*
X63962Y145152D01*
X64000Y145229D01*
Y145381D01*
X63962Y145457D01*
X63886Y145533D01*
X63810Y145571D01*
X63695D01*
Y145381D02*
Y145571D01*
X63200Y145754D02*
X64000D01*
X63200D02*
X64000Y146287D01*
X63200D02*
X64000D01*
X63200Y146508D02*
X64000D01*
X63200D02*
Y146775D01*
X63238Y146889D01*
X63314Y146965D01*
X63391Y147003D01*
X63505Y147041D01*
X63695D01*
X63810Y147003D01*
X63886Y146965D01*
X63962Y146889D01*
X64000Y146775D01*
Y146508D01*
X122738Y52964D02*
X122643Y52917D01*
X122548Y52821D01*
X122500Y52726D01*
Y52536D01*
X122548Y52440D01*
X122643Y52345D01*
X122738Y52298D01*
X122881Y52250D01*
X123119D01*
X123262Y52298D01*
X123357Y52345D01*
X123452Y52440D01*
X123500Y52536D01*
Y52726D01*
X123452Y52821D01*
X123357Y52917D01*
X123262Y52964D01*
X123119D01*
Y52726D02*
Y52964D01*
X122500Y53193D02*
X123500D01*
X122500D02*
X123500Y53859D01*
X122500D02*
X123500D01*
X122500Y54135D02*
X123500D01*
X122500D02*
Y54469D01*
X122548Y54611D01*
X122643Y54707D01*
X122738Y54754D01*
X122881Y54802D01*
X123119D01*
X123262Y54754D01*
X123357Y54707D01*
X123452Y54611D01*
X123500Y54469D01*
Y54135D01*
X99391Y53821D02*
X99314Y53783D01*
X99238Y53707D01*
X99200Y53631D01*
Y53479D01*
X99238Y53402D01*
X99314Y53326D01*
X99391Y53288D01*
X99505Y53250D01*
X99695D01*
X99810Y53288D01*
X99886Y53326D01*
X99962Y53402D01*
X100000Y53479D01*
Y53631D01*
X99962Y53707D01*
X99886Y53783D01*
X99810Y53821D01*
X99200Y54046D02*
X100000D01*
X99200D02*
X100000Y54579D01*
X99200D02*
X100000D01*
X99200Y55067D02*
X100000D01*
X99200Y54800D02*
Y55333D01*
Y55429D02*
X100000D01*
X99200D02*
Y55771D01*
X99238Y55886D01*
X99276Y55924D01*
X99353Y55962D01*
X99429D01*
X99505Y55924D01*
X99543Y55886D01*
X99581Y55771D01*
Y55429D01*
Y55695D02*
X100000Y55962D01*
X99314Y57112D02*
X100000D01*
X99657Y56769D02*
Y57455D01*
X184814Y147783D02*
X184738Y147707D01*
X184700Y147593D01*
Y147440D01*
X184738Y147326D01*
X184814Y147250D01*
X184891D01*
X184967Y147288D01*
X185005Y147326D01*
X185043Y147402D01*
X185119Y147631D01*
X185157Y147707D01*
X185195Y147745D01*
X185271Y147783D01*
X185386D01*
X185462Y147707D01*
X185500Y147593D01*
Y147440D01*
X185462Y147326D01*
X185386Y147250D01*
X184700Y148457D02*
Y147962D01*
X185500D01*
Y148457D01*
X185081Y147962D02*
Y148267D01*
X184700Y148591D02*
X185500D01*
X184700D02*
Y148933D01*
X184738Y149048D01*
X184776Y149086D01*
X184853Y149124D01*
X184929D01*
X185005Y149086D01*
X185043Y149048D01*
X185081Y148933D01*
Y148591D01*
Y148857D02*
X185500Y149124D01*
X184700Y149303D02*
X185500Y149608D01*
X184700Y149912D02*
X185500Y149608D01*
X184700Y150244D02*
X184738Y150167D01*
X184814Y150091D01*
X184891Y150053D01*
X185005Y150015D01*
X185195D01*
X185310Y150053D01*
X185386Y150091D01*
X185462Y150167D01*
X185500Y150244D01*
Y150396D01*
X185462Y150472D01*
X185386Y150548D01*
X185310Y150586D01*
X185195Y150625D01*
X185005D01*
X184891Y150586D01*
X184814Y150548D01*
X184738Y150472D01*
X184700Y150396D01*
Y150244D01*
X167233Y145486D02*
X167157Y145562D01*
X167043Y145600D01*
X166890D01*
X166776Y145562D01*
X166700Y145486D01*
Y145409D01*
X166738Y145333D01*
X166776Y145295D01*
X166852Y145257D01*
X167081Y145181D01*
X167157Y145143D01*
X167195Y145105D01*
X167233Y145029D01*
Y144914D01*
X167157Y144838D01*
X167043Y144800D01*
X166890D01*
X166776Y144838D01*
X166700Y144914D01*
X167679Y145600D02*
Y144800D01*
X167412Y145600D02*
X167945D01*
X168536D02*
X168041D01*
Y144800D01*
X168536D01*
X168041Y145219D02*
X168345D01*
X168669Y145181D02*
X169012D01*
X169126Y145219D01*
X169164Y145257D01*
X169202Y145333D01*
Y145447D01*
X169164Y145524D01*
X169126Y145562D01*
X169012Y145600D01*
X168669D01*
Y144800D01*
X169381Y145181D02*
X169724D01*
X169838Y145219D01*
X169876Y145257D01*
X169915Y145333D01*
Y145447D01*
X169876Y145524D01*
X169838Y145562D01*
X169724Y145600D01*
X169381D01*
Y144800D01*
X170589Y145600D02*
X170094D01*
Y144800D01*
X170589D01*
X170094Y145219D02*
X170398D01*
X170722Y145600D02*
Y144800D01*
Y145600D02*
X171065D01*
X171179Y145562D01*
X171217Y145524D01*
X171255Y145447D01*
Y145371D01*
X171217Y145295D01*
X171179Y145257D01*
X171065Y145219D01*
X170722D01*
X170989D02*
X171255Y144800D01*
X154700Y144800D02*
Y144000D01*
X155157D01*
X155245Y144800D02*
Y144000D01*
X155412Y144800D02*
Y144000D01*
Y144800D02*
X155717Y144000D01*
X156022Y144800D02*
X155717Y144000D01*
X156022Y144800D02*
Y144000D01*
X156879Y144800D02*
Y144000D01*
Y144800D02*
X157221D01*
X157336Y144762D01*
X157374Y144724D01*
X157412Y144647D01*
Y144571D01*
X157374Y144495D01*
X157336Y144457D01*
X157221Y144419D01*
X156879D01*
X157145D02*
X157412Y144000D01*
X147210Y144800D02*
Y144000D01*
X147667D01*
X147755Y144800D02*
Y144000D01*
X147922Y144800D02*
Y144000D01*
Y144800D02*
X148227Y144000D01*
X148532Y144800D02*
X148227Y144000D01*
X148532Y144800D02*
Y144000D01*
X149389Y144800D02*
Y144000D01*
X149846D01*
X100995Y144850D02*
X100500D01*
Y144050D01*
X100995D01*
X100500Y144469D02*
X100805D01*
X101128Y144850D02*
Y144050D01*
Y144850D02*
X101662Y144050D01*
Y144850D02*
Y144050D01*
X102454Y144659D02*
X102416Y144736D01*
X102340Y144812D01*
X102263Y144850D01*
X102111D01*
X102035Y144812D01*
X101959Y144736D01*
X101921Y144659D01*
X101883Y144545D01*
Y144355D01*
X101921Y144240D01*
X101959Y144164D01*
X102035Y144088D01*
X102111Y144050D01*
X102263D01*
X102340Y144088D01*
X102416Y144164D01*
X102454Y144240D01*
X103307Y144850D02*
Y144050D01*
Y144850D02*
X103650D01*
X103764Y144812D01*
X103802Y144774D01*
X103840Y144697D01*
Y144621D01*
X103802Y144545D01*
X103764Y144507D01*
X103650Y144469D01*
X103307D01*
X103574D02*
X103840Y144050D01*
X104019Y144850D02*
Y144050D01*
X104758Y144659D02*
X104720Y144736D01*
X104644Y144812D01*
X104568Y144850D01*
X104415D01*
X104339Y144812D01*
X104263Y144736D01*
X104225Y144659D01*
X104187Y144545D01*
Y144355D01*
X104225Y144240D01*
X104263Y144164D01*
X104339Y144088D01*
X104415Y144050D01*
X104568D01*
X104644Y144088D01*
X104720Y144164D01*
X104758Y144240D01*
Y144355D01*
X104568D02*
X104758D01*
X104941Y144850D02*
Y144050D01*
X105474Y144850D02*
Y144050D01*
X104941Y144469D02*
X105474D01*
X105962Y144850D02*
Y144050D01*
X105695Y144850D02*
X106228D01*
X88995D02*
X88500D01*
Y144050D01*
X88995D01*
X88500Y144469D02*
X88805D01*
X89128Y144850D02*
Y144050D01*
Y144850D02*
X89662Y144050D01*
Y144850D02*
Y144050D01*
X90454Y144659D02*
X90416Y144736D01*
X90340Y144812D01*
X90263Y144850D01*
X90111D01*
X90035Y144812D01*
X89959Y144736D01*
X89921Y144659D01*
X89883Y144545D01*
Y144355D01*
X89921Y144240D01*
X89959Y144164D01*
X90035Y144088D01*
X90111Y144050D01*
X90263D01*
X90340Y144088D01*
X90416Y144164D01*
X90454Y144240D01*
X91307Y144850D02*
Y144050D01*
X91764D01*
X92347Y144850D02*
X91852D01*
Y144050D01*
X92347D01*
X91852Y144469D02*
X92156D01*
X92480Y144850D02*
Y144050D01*
Y144850D02*
X92975D01*
X92480Y144469D02*
X92785D01*
X93333Y144850D02*
Y144050D01*
X93067Y144850D02*
X93600D01*
X72500Y144186D02*
Y143614D01*
X72538Y143500D01*
X72614Y143424D01*
X72729Y143386D01*
X72805D01*
X72919Y143424D01*
X72995Y143500D01*
X73033Y143614D01*
Y144186D01*
X73254D02*
Y143386D01*
X73711D01*
X74065Y144186D02*
Y143386D01*
X73799Y144186D02*
X74332D01*
X74427D02*
Y143386D01*
Y144186D02*
X74770D01*
X74884Y144147D01*
X74922Y144109D01*
X74960Y144033D01*
Y143957D01*
X74922Y143881D01*
X74884Y143843D01*
X74770Y143805D01*
X74427D01*
X74694D02*
X74960Y143386D01*
X75749D02*
X75444Y144186D01*
X75139Y143386D01*
X75254Y143652D02*
X75635D01*
X76469Y144071D02*
X76393Y144147D01*
X76278Y144186D01*
X76126D01*
X76012Y144147D01*
X75935Y144071D01*
Y143995D01*
X75974Y143919D01*
X76012Y143881D01*
X76088Y143843D01*
X76316Y143767D01*
X76393Y143729D01*
X76431Y143690D01*
X76469Y143614D01*
Y143500D01*
X76393Y143424D01*
X76278Y143386D01*
X76126D01*
X76012Y143424D01*
X75935Y143500D01*
X76876Y144186D02*
X76800Y144147D01*
X76724Y144071D01*
X76686Y143995D01*
X76648Y143881D01*
Y143690D01*
X76686Y143576D01*
X76724Y143500D01*
X76800Y143424D01*
X76876Y143386D01*
X77029D01*
X77105Y143424D01*
X77181Y143500D01*
X77219Y143576D01*
X77257Y143690D01*
Y143881D01*
X77219Y143995D01*
X77181Y144071D01*
X77105Y144147D01*
X77029Y144186D01*
X76876D01*
X77444D02*
Y143386D01*
Y144186D02*
X77977Y143386D01*
Y144186D02*
Y143386D01*
X78198Y144186D02*
Y143386D01*
X78937Y143995D02*
X78899Y144071D01*
X78822Y144147D01*
X78746Y144186D01*
X78594D01*
X78518Y144147D01*
X78442Y144071D01*
X78404Y143995D01*
X78365Y143881D01*
Y143690D01*
X78404Y143576D01*
X78442Y143500D01*
X78518Y143424D01*
X78594Y143386D01*
X78746D01*
X78822Y143424D01*
X78899Y143500D01*
X78937Y143576D01*
X62500Y144300D02*
Y143500D01*
Y144300D02*
X62843D01*
X62957Y144262D01*
X62995Y144224D01*
X63033Y144147D01*
Y144071D01*
X62995Y143995D01*
X62957Y143957D01*
X62843Y143919D01*
X62500D01*
X62767D02*
X63033Y143500D01*
X63479Y144300D02*
Y143500D01*
X63212Y144300D02*
X63745D01*
X64412Y144109D02*
X64374Y144186D01*
X64298Y144262D01*
X64222Y144300D01*
X64069D01*
X63993Y144262D01*
X63917Y144186D01*
X63879Y144109D01*
X63841Y143995D01*
Y143805D01*
X63879Y143690D01*
X63917Y143614D01*
X63993Y143538D01*
X64069Y143500D01*
X64222D01*
X64298Y143538D01*
X64374Y143614D01*
X64412Y143690D01*
X64637Y143386D02*
X65170Y144300D01*
X65223D02*
Y143500D01*
Y144300D02*
X65490D01*
X65604Y144262D01*
X65680Y144186D01*
X65718Y144109D01*
X65756Y143995D01*
Y143805D01*
X65718Y143690D01*
X65680Y143614D01*
X65604Y143538D01*
X65490Y143500D01*
X65223D01*
X66545D02*
X66240Y144300D01*
X65935Y143500D01*
X66050Y143767D02*
X66431D01*
X67303Y144109D02*
X67265Y144186D01*
X67189Y144262D01*
X67112Y144300D01*
X66960D01*
X66884Y144262D01*
X66808Y144186D01*
X66770Y144109D01*
X66731Y143995D01*
Y143805D01*
X66770Y143690D01*
X66808Y143614D01*
X66884Y143538D01*
X66960Y143500D01*
X67112D01*
X67189Y143538D01*
X67265Y143614D01*
X67303Y143690D01*
X149750Y75300D02*
X150131Y74300D01*
X150512Y75300D02*
X150131Y74300D01*
X150640Y75300D02*
Y74300D01*
Y75300D02*
X151069D01*
X151212Y75252D01*
X151259Y75205D01*
X151307Y75109D01*
Y75014D01*
X151259Y74919D01*
X151212Y74871D01*
X151069Y74824D01*
X150640D01*
X150974D02*
X151307Y74300D01*
X152149Y75300D02*
X151531D01*
Y74300D01*
X152149D01*
X151531Y74824D02*
X151911D01*
X152316Y75300D02*
Y74300D01*
Y75300D02*
X152935D01*
X152316Y74824D02*
X152697D01*
X52125Y111107D02*
X52030Y111202D01*
X51887Y111250D01*
X51697D01*
X51554Y111202D01*
X51459Y111107D01*
Y111012D01*
X51506Y110917D01*
X51554Y110869D01*
X51649Y110821D01*
X51935Y110726D01*
X52030Y110678D01*
X52078Y110631D01*
X52125Y110536D01*
Y110393D01*
X52030Y110298D01*
X51887Y110250D01*
X51697D01*
X51554Y110298D01*
X51459Y110393D01*
X52349Y111250D02*
Y110250D01*
Y111250D02*
X52682D01*
X52825Y111202D01*
X52920Y111107D01*
X52968Y111012D01*
X53016Y110869D01*
Y110631D01*
X52968Y110488D01*
X52920Y110393D01*
X52825Y110298D01*
X52682Y110250D01*
X52349D01*
X53239Y111059D02*
X53335Y111107D01*
X53477Y111250D01*
Y110250D01*
X81071Y91649D02*
X81033Y91726D01*
X80957Y91802D01*
X80881Y91840D01*
X80729D01*
X80652Y91802D01*
X80576Y91726D01*
X80538Y91649D01*
X80500Y91535D01*
Y91345D01*
X80538Y91230D01*
X80576Y91154D01*
X80652Y91078D01*
X80729Y91040D01*
X80881D01*
X80957Y91078D01*
X81033Y91154D01*
X81071Y91230D01*
X81372Y91840D02*
X81791D01*
X81563Y91535D01*
X81677D01*
X81753Y91497D01*
X81791Y91459D01*
X81829Y91345D01*
Y91269D01*
X81791Y91154D01*
X81715Y91078D01*
X81601Y91040D01*
X81486D01*
X81372Y91078D01*
X81334Y91116D01*
X81296Y91192D01*
X139650Y65750D02*
Y65179D01*
X139688Y65064D01*
X139764Y64988D01*
X139879Y64950D01*
X139955D01*
X140069Y64988D01*
X140145Y65064D01*
X140183Y65179D01*
Y65750D01*
X140480D02*
X140899D01*
X140671Y65445D01*
X140785D01*
X140861Y65407D01*
X140899Y65369D01*
X140937Y65255D01*
Y65179D01*
X140899Y65064D01*
X140823Y64988D01*
X140709Y64950D01*
X140595D01*
X140480Y64988D01*
X140442Y65026D01*
X140404Y65102D01*
X164300Y140500D02*
X164871D01*
X164986Y140538D01*
X165062Y140614D01*
X165100Y140729D01*
Y140805D01*
X165062Y140919D01*
X164986Y140995D01*
X164871Y141033D01*
X164300D01*
X164567Y141749D02*
X164681Y141711D01*
X164757Y141635D01*
X164795Y141521D01*
Y141483D01*
X164757Y141368D01*
X164681Y141292D01*
X164567Y141254D01*
X164529D01*
X164414Y141292D01*
X164338Y141368D01*
X164300Y141483D01*
Y141521D01*
X164338Y141635D01*
X164414Y141711D01*
X164567Y141749D01*
X164757D01*
X164948Y141711D01*
X165062Y141635D01*
X165100Y141521D01*
Y141445D01*
X165062Y141330D01*
X164986Y141292D01*
X119950Y131700D02*
X120521D01*
X120636Y131738D01*
X120712Y131814D01*
X120750Y131929D01*
Y132005D01*
X120712Y132119D01*
X120636Y132195D01*
X120521Y132233D01*
X119950D01*
Y132987D02*
X120750Y132606D01*
X119950Y132454D02*
Y132987D01*
X61374Y148050D02*
Y148478D01*
X61326Y148621D01*
X61279Y148669D01*
X61183Y148717D01*
X61041D01*
X60945Y148669D01*
X60898Y148621D01*
X60850Y148478D01*
Y148050D01*
X61850D01*
X60850Y149607D02*
X61850Y149131D01*
X60850Y148940D02*
Y149607D01*
X176091Y140921D02*
X176014Y140883D01*
X175938Y140807D01*
X175900Y140731D01*
Y140579D01*
X175938Y140502D01*
X176014Y140426D01*
X176091Y140388D01*
X176205Y140350D01*
X176395D01*
X176510Y140388D01*
X176586Y140426D01*
X176662Y140502D01*
X176700Y140579D01*
Y140731D01*
X176662Y140807D01*
X176586Y140883D01*
X176510Y140921D01*
X176014Y141603D02*
X175938Y141565D01*
X175900Y141451D01*
Y141375D01*
X175938Y141260D01*
X176053Y141184D01*
X176243Y141146D01*
X176433D01*
X176586Y141184D01*
X176662Y141260D01*
X176700Y141375D01*
Y141413D01*
X176662Y141527D01*
X176586Y141603D01*
X176471Y141641D01*
X176433D01*
X176319Y141603D01*
X176243Y141527D01*
X176205Y141413D01*
Y141375D01*
X176243Y141260D01*
X176319Y141184D01*
X176433Y141146D01*
X175900Y141893D02*
Y142311D01*
X176205Y142083D01*
Y142197D01*
X176243Y142273D01*
X176281Y142311D01*
X176395Y142350D01*
X176471D01*
X176586Y142311D01*
X176662Y142235D01*
X176700Y142121D01*
Y142007D01*
X176662Y141893D01*
X176624Y141854D01*
X176548Y141816D01*
X178250Y67850D02*
X178821D01*
X178936Y67888D01*
X179012Y67964D01*
X179050Y68079D01*
Y68155D01*
X179012Y68269D01*
X178936Y68345D01*
X178821Y68383D01*
X178250D01*
X178364Y69061D02*
X178288Y69023D01*
X178250Y68909D01*
Y68833D01*
X178288Y68718D01*
X178403Y68642D01*
X178593Y68604D01*
X178783D01*
X178936Y68642D01*
X179012Y68718D01*
X179050Y68833D01*
Y68871D01*
X179012Y68985D01*
X178936Y69061D01*
X178821Y69099D01*
X178783D01*
X178669Y69061D01*
X178593Y68985D01*
X178555Y68871D01*
Y68833D01*
X178593Y68718D01*
X178669Y68642D01*
X178783Y68604D01*
X133500Y141800D02*
X134300D01*
X133500D02*
Y142143D01*
X133538Y142257D01*
X133576Y142295D01*
X133653Y142333D01*
X133729D01*
X133805Y142295D01*
X133843Y142257D01*
X133881Y142143D01*
Y141800D01*
Y142067D02*
X134300Y142333D01*
X133691Y142550D02*
X133653D01*
X133576Y142588D01*
X133538Y142626D01*
X133500Y142703D01*
Y142855D01*
X133538Y142931D01*
X133576Y142969D01*
X133653Y143007D01*
X133729D01*
X133805Y142969D01*
X133919Y142893D01*
X134300Y142512D01*
Y143045D01*
X133500Y143415D02*
X133538Y143301D01*
X133614Y143263D01*
X133691D01*
X133767Y143301D01*
X133805Y143377D01*
X133843Y143529D01*
X133881Y143643D01*
X133957Y143720D01*
X134033Y143758D01*
X134148D01*
X134224Y143720D01*
X134262Y143682D01*
X134300Y143567D01*
Y143415D01*
X134262Y143301D01*
X134224Y143263D01*
X134148Y143224D01*
X134033D01*
X133957Y143263D01*
X133881Y143339D01*
X133843Y143453D01*
X133805Y143605D01*
X133767Y143682D01*
X133691Y143720D01*
X133614D01*
X133538Y143682D01*
X133500Y143567D01*
Y143415D01*
X50841Y128771D02*
X50764Y128733D01*
X50688Y128657D01*
X50650Y128581D01*
Y128429D01*
X50688Y128352D01*
X50764Y128276D01*
X50841Y128238D01*
X50955Y128200D01*
X51145D01*
X51260Y128238D01*
X51336Y128276D01*
X51412Y128352D01*
X51450Y128429D01*
Y128581D01*
X51412Y128657D01*
X51336Y128733D01*
X51260Y128771D01*
X50650Y129377D02*
X51183Y128996D01*
Y129567D01*
X50650Y129377D02*
X51450D01*
X50650Y129937D02*
X50688Y129823D01*
X50803Y129746D01*
X50993Y129708D01*
X51107D01*
X51298Y129746D01*
X51412Y129823D01*
X51450Y129937D01*
Y130013D01*
X51412Y130127D01*
X51298Y130203D01*
X51107Y130241D01*
X50993D01*
X50803Y130203D01*
X50688Y130127D01*
X50650Y130013D01*
Y129937D01*
X122100Y114450D02*
Y113450D01*
Y114450D02*
X122528D01*
X122671Y114402D01*
X122719Y114355D01*
X122767Y114259D01*
Y114164D01*
X122719Y114069D01*
X122671Y114021D01*
X122528Y113974D01*
X122100D02*
X122528D01*
X122671Y113926D01*
X122719Y113878D01*
X122767Y113783D01*
Y113640D01*
X122719Y113545D01*
X122671Y113498D01*
X122528Y113450D01*
X122100D01*
X123324Y114450D02*
Y113450D01*
X122990Y114450D02*
X123657D01*
X125180D02*
X124561D01*
Y113450D01*
X125180D01*
X124561Y113974D02*
X124942D01*
X125347Y114450D02*
Y113450D01*
Y114450D02*
X126013Y113450D01*
Y114450D02*
Y113450D01*
X114750Y113926D02*
X115178D01*
X115321Y113974D01*
X115369Y114021D01*
X115417Y114117D01*
Y114259D01*
X115369Y114355D01*
X115321Y114402D01*
X115178Y114450D01*
X114750D01*
Y113450D01*
X115640Y114259D02*
X115735Y114307D01*
X115878Y114450D01*
Y113450D01*
X117040Y114450D02*
X116564Y113450D01*
X116373Y114450D02*
X117040D01*
X133871Y95350D02*
X133395D01*
X133348Y94921D01*
X133395Y94969D01*
X133538Y95017D01*
X133681D01*
X133824Y94969D01*
X133919Y94874D01*
X133967Y94731D01*
Y94636D01*
X133919Y94493D01*
X133824Y94398D01*
X133681Y94350D01*
X133538D01*
X133395Y94398D01*
X133348Y94445D01*
X133300Y94540D01*
X134190Y95350D02*
X134571Y94350D01*
X134952Y95350D02*
X134571Y94350D01*
X136485Y95350D02*
X135866D01*
Y94350D01*
X136485D01*
X135866Y94874D02*
X136247D01*
X136652Y95350D02*
Y94350D01*
Y95350D02*
X137318Y94350D01*
Y95350D02*
Y94350D01*
X113545Y91550D02*
X114069D01*
X113783Y91169D01*
X113926D01*
X114021Y91121D01*
X114069Y91074D01*
X114117Y90931D01*
Y90836D01*
X114069Y90693D01*
X113974Y90598D01*
X113831Y90550D01*
X113688D01*
X113545Y90598D01*
X113498Y90645D01*
X113450Y90740D01*
X114340Y91550D02*
X114721Y90550D01*
X115102Y91550D02*
X114721Y90550D01*
X115326Y91550D02*
X115849D01*
X115564Y91169D01*
X115707D01*
X115802Y91121D01*
X115849Y91074D01*
X115897Y90931D01*
Y90836D01*
X115849Y90693D01*
X115754Y90598D01*
X115611Y90550D01*
X115469D01*
X115326Y90598D01*
X115278Y90645D01*
X115231Y90740D01*
X117525Y91550D02*
X116906D01*
Y90550D01*
X117525D01*
X116906Y91074D02*
X117287D01*
X117692Y91550D02*
Y90550D01*
Y91550D02*
X118358Y90550D01*
Y91550D02*
Y90550D01*
X143000Y146100D02*
Y145529D01*
X143038Y145414D01*
X143114Y145338D01*
X143229Y145300D01*
X143305D01*
X143419Y145338D01*
X143495Y145414D01*
X143533Y145529D01*
Y146100D01*
X143754Y145947D02*
X143830Y145986D01*
X143945Y146100D01*
Y145300D01*
X144569Y146100D02*
X144455Y146062D01*
X144379Y145947D01*
X144341Y145757D01*
Y145643D01*
X144379Y145452D01*
X144455Y145338D01*
X144569Y145300D01*
X144645D01*
X144760Y145338D01*
X144836Y145452D01*
X144874Y145643D01*
Y145757D01*
X144836Y145947D01*
X144760Y146062D01*
X144645Y146100D01*
X144569D01*
X89100Y140550D02*
Y139979D01*
X89138Y139864D01*
X89214Y139788D01*
X89329Y139750D01*
X89405D01*
X89519Y139788D01*
X89595Y139864D01*
X89633Y139979D01*
Y140550D01*
X90045D02*
X89930Y140512D01*
X89892Y140436D01*
Y140359D01*
X89930Y140283D01*
X90006Y140245D01*
X90159Y140207D01*
X90273Y140169D01*
X90349Y140093D01*
X90387Y140017D01*
Y139902D01*
X90349Y139826D01*
X90311Y139788D01*
X90197Y139750D01*
X90045D01*
X89930Y139788D01*
X89892Y139826D01*
X89854Y139902D01*
Y140017D01*
X89892Y140093D01*
X89968Y140169D01*
X90083Y140207D01*
X90235Y140245D01*
X90311Y140283D01*
X90349Y140359D01*
Y140436D01*
X90311Y140512D01*
X90197Y140550D01*
X90045D01*
X167450Y122700D02*
Y122129D01*
X167488Y122014D01*
X167564Y121938D01*
X167679Y121900D01*
X167755D01*
X167869Y121938D01*
X167945Y122014D01*
X167983Y122129D01*
Y122700D01*
X168661D02*
X168280D01*
X168242Y122357D01*
X168280Y122395D01*
X168395Y122433D01*
X168509D01*
X168623Y122395D01*
X168699Y122319D01*
X168737Y122205D01*
Y122129D01*
X168699Y122014D01*
X168623Y121938D01*
X168509Y121900D01*
X168395D01*
X168280Y121938D01*
X168242Y121976D01*
X168204Y122052D01*
X83050Y84600D02*
Y84029D01*
X83088Y83914D01*
X83164Y83838D01*
X83279Y83800D01*
X83355D01*
X83469Y83838D01*
X83545Y83914D01*
X83583Y84029D01*
Y84600D01*
X84185D02*
X83804Y84067D01*
X84375D01*
X84185Y84600D02*
Y83800D01*
X128125Y94400D02*
Y93829D01*
X128163Y93714D01*
X128239Y93638D01*
X128354Y93600D01*
X128430D01*
X128544Y93638D01*
X128620Y93714D01*
X128658Y93829D01*
Y94400D01*
X128917Y94209D02*
Y94247D01*
X128955Y94324D01*
X128993Y94362D01*
X129070Y94400D01*
X129222D01*
X129298Y94362D01*
X129336Y94324D01*
X129374Y94247D01*
Y94171D01*
X129336Y94095D01*
X129260Y93981D01*
X128879Y93600D01*
X129412D01*
X147350Y79450D02*
Y78879D01*
X147388Y78764D01*
X147464Y78688D01*
X147579Y78650D01*
X147655D01*
X147769Y78688D01*
X147845Y78764D01*
X147883Y78879D01*
Y79450D01*
X148104Y79297D02*
X148180Y79336D01*
X148295Y79450D01*
Y78650D01*
X155891Y77873D02*
X154891D01*
X155891Y78206D02*
Y77540D01*
X155367Y77421D02*
Y76992D01*
X155415Y76850D01*
X155462Y76802D01*
X155557Y76754D01*
X155700D01*
X155795Y76802D01*
X155843Y76850D01*
X155891Y76992D01*
Y77421D01*
X154891D01*
X154558Y76531D02*
Y75769D01*
X155891Y75640D02*
X154891Y75260D01*
X155891Y74879D02*
X154891Y75260D01*
X155891Y74750D02*
X154891D01*
X155891D02*
Y74131D01*
X155415Y74750D02*
Y74369D01*
X155891Y74017D02*
X154891D01*
X155891D02*
Y73588D01*
X155843Y73446D01*
X155795Y73398D01*
X155700Y73350D01*
X155605D01*
X155510Y73398D01*
X155462Y73446D01*
X155415Y73588D01*
Y74017D02*
Y73588D01*
X155367Y73446D01*
X155319Y73398D01*
X155224Y73350D01*
X155081D01*
X154986Y73398D01*
X154939Y73446D01*
X154891Y73588D01*
Y74017D01*
X155700Y73127D02*
X155748Y73031D01*
X155891Y72889D01*
X154891D01*
X193064Y146683D02*
X192988Y146607D01*
X192950Y146493D01*
Y146340D01*
X192988Y146226D01*
X193064Y146150D01*
X193141D01*
X193217Y146188D01*
X193255Y146226D01*
X193293Y146302D01*
X193369Y146531D01*
X193407Y146607D01*
X193445Y146645D01*
X193521Y146683D01*
X193636D01*
X193712Y146607D01*
X193750Y146493D01*
Y146340D01*
X193712Y146226D01*
X193636Y146150D01*
X192950Y147357D02*
Y146862D01*
X193750D01*
Y147357D01*
X193331Y146862D02*
Y147167D01*
X192950Y147491D02*
X193750D01*
X192950D02*
Y147833D01*
X192988Y147948D01*
X193026Y147986D01*
X193103Y148024D01*
X193179D01*
X193255Y147986D01*
X193293Y147948D01*
X193331Y147833D01*
Y147491D01*
Y147757D02*
X193750Y148024D01*
X192950Y148203D02*
X193750Y148508D01*
X192950Y148812D02*
X193750Y148508D01*
X192950Y149144D02*
X192988Y149067D01*
X193064Y148991D01*
X193141Y148953D01*
X193255Y148915D01*
X193445D01*
X193560Y148953D01*
X193636Y148991D01*
X193712Y149067D01*
X193750Y149144D01*
Y149296D01*
X193712Y149372D01*
X193636Y149448D01*
X193560Y149486D01*
X193445Y149525D01*
X193255D01*
X193141Y149486D01*
X193064Y149448D01*
X192988Y149372D01*
X192950Y149296D01*
Y149144D01*
X58400Y51680D02*
X59400D01*
X58400D02*
Y52108D01*
X58448Y52251D01*
X58495Y52299D01*
X58591Y52347D01*
X58686D01*
X58781Y52299D01*
X58829Y52251D01*
X58876Y52108D01*
Y51680D01*
Y52013D02*
X59400Y52347D01*
X58400Y53189D02*
Y52570D01*
X59400D01*
Y53189D01*
X58876Y52570D02*
Y52951D01*
X58543Y54022D02*
X58448Y53927D01*
X58400Y53784D01*
Y53594D01*
X58448Y53451D01*
X58543Y53356D01*
X58638D01*
X58733Y53403D01*
X58781Y53451D01*
X58829Y53546D01*
X58924Y53832D01*
X58972Y53927D01*
X59019Y53975D01*
X59114Y54022D01*
X59257D01*
X59352Y53927D01*
X59400Y53784D01*
Y53594D01*
X59352Y53451D01*
X59257Y53356D01*
X58400Y54865D02*
Y54246D01*
X59400D01*
Y54865D01*
X58876Y54246D02*
Y54627D01*
X58400Y55365D02*
X59400D01*
X58400Y55032D02*
Y55698D01*
X151500Y106950D02*
X152300D01*
Y107407D01*
X151691Y108066D02*
X151614Y108028D01*
X151538Y107952D01*
X151500Y107876D01*
Y107723D01*
X151538Y107647D01*
X151614Y107571D01*
X151691Y107533D01*
X151805Y107495D01*
X151995D01*
X152110Y107533D01*
X152186Y107571D01*
X152262Y107647D01*
X152300Y107723D01*
Y107876D01*
X152262Y107952D01*
X152186Y108028D01*
X152110Y108066D01*
X151500Y108291D02*
X152300D01*
X151500D02*
Y108557D01*
X151538Y108672D01*
X151614Y108748D01*
X151691Y108786D01*
X151805Y108824D01*
X151995D01*
X152110Y108786D01*
X152186Y108748D01*
X152262Y108672D01*
X152300Y108557D01*
Y108291D01*
X151500Y109631D02*
X152300D01*
X151500D02*
Y109974D01*
X151538Y110088D01*
X151576Y110126D01*
X151653Y110165D01*
X151729D01*
X151805Y110126D01*
X151843Y110088D01*
X151881Y109974D01*
Y109631D02*
Y109974D01*
X151919Y110088D01*
X151957Y110126D01*
X152033Y110165D01*
X152148D01*
X152224Y110126D01*
X152262Y110088D01*
X152300Y109974D01*
Y109631D01*
X151500Y110344D02*
X152300D01*
Y110801D01*
X55138Y147364D02*
X55043Y147317D01*
X54948Y147221D01*
X54900Y147126D01*
Y146936D01*
X54948Y146840D01*
X55043Y146745D01*
X55138Y146698D01*
X55281Y146650D01*
X55519D01*
X55662Y146698D01*
X55757Y146745D01*
X55852Y146840D01*
X55900Y146936D01*
Y147126D01*
X55852Y147221D01*
X55757Y147317D01*
X55662Y147364D01*
X55519D01*
Y147126D02*
Y147364D01*
X54900Y147593D02*
X55900D01*
X54900D02*
X55900Y148259D01*
X54900D02*
X55900D01*
X54900Y148535D02*
X55900D01*
X54900D02*
Y148869D01*
X54948Y149011D01*
X55043Y149107D01*
X55138Y149154D01*
X55281Y149202D01*
X55519D01*
X55662Y149154D01*
X55757Y149107D01*
X55852Y149011D01*
X55900Y148869D01*
Y148535D01*
X197488Y147464D02*
X197393Y147417D01*
X197298Y147321D01*
X197250Y147226D01*
Y147036D01*
X197298Y146940D01*
X197393Y146845D01*
X197488Y146798D01*
X197631Y146750D01*
X197869D01*
X198012Y146798D01*
X198107Y146845D01*
X198202Y146940D01*
X198250Y147036D01*
Y147226D01*
X198202Y147321D01*
X198107Y147417D01*
X198012Y147464D01*
X197869D01*
Y147226D02*
Y147464D01*
X197250Y147693D02*
X198250D01*
X197250D02*
X198250Y148359D01*
X197250D02*
X198250D01*
X197250Y148635D02*
X198250D01*
X197250D02*
Y148969D01*
X197298Y149111D01*
X197393Y149207D01*
X197488Y149254D01*
X197631Y149302D01*
X197869D01*
X198012Y149254D01*
X198107Y149207D01*
X198202Y149111D01*
X198250Y148969D01*
Y148635D01*
X197388Y53014D02*
X197293Y52967D01*
X197198Y52871D01*
X197150Y52776D01*
Y52586D01*
X197198Y52490D01*
X197293Y52395D01*
X197388Y52348D01*
X197531Y52300D01*
X197769D01*
X197912Y52348D01*
X198007Y52395D01*
X198102Y52490D01*
X198150Y52586D01*
Y52776D01*
X198102Y52871D01*
X198007Y52967D01*
X197912Y53014D01*
X197769D01*
Y52776D02*
Y53014D01*
X197150Y53243D02*
X198150D01*
X197150D02*
X198150Y53909D01*
X197150D02*
X198150D01*
X197150Y54185D02*
X198150D01*
X197150D02*
Y54519D01*
X197198Y54661D01*
X197293Y54757D01*
X197388Y54804D01*
X197531Y54852D01*
X197769D01*
X197912Y54804D01*
X198007Y54757D01*
X198102Y54661D01*
X198150Y54519D01*
Y54185D01*
X55228Y53314D02*
X55133Y53267D01*
X55038Y53171D01*
X54990Y53076D01*
Y52886D01*
X55038Y52790D01*
X55133Y52695D01*
X55228Y52648D01*
X55371Y52600D01*
X55609D01*
X55752Y52648D01*
X55847Y52695D01*
X55942Y52790D01*
X55990Y52886D01*
Y53076D01*
X55942Y53171D01*
X55847Y53267D01*
X55752Y53314D01*
X55609D01*
Y53076D02*
Y53314D01*
X54990Y53543D02*
X55990D01*
X54990D02*
X55990Y54209D01*
X54990D02*
X55990D01*
X54990Y54485D02*
X55990D01*
X54990D02*
Y54819D01*
X55038Y54961D01*
X55133Y55057D01*
X55228Y55104D01*
X55371Y55152D01*
X55609D01*
X55752Y55104D01*
X55847Y55057D01*
X55942Y54961D01*
X55990Y54819D01*
Y54485D01*
X111450Y147050D02*
Y146250D01*
Y147050D02*
X111717D01*
X111831Y147012D01*
X111907Y146936D01*
X111945Y146859D01*
X111983Y146745D01*
Y146555D01*
X111945Y146440D01*
X111907Y146364D01*
X111831Y146288D01*
X111717Y146250D01*
X111450D01*
X112734Y146859D02*
X112695Y146936D01*
X112619Y147012D01*
X112543Y147050D01*
X112391D01*
X112315Y147012D01*
X112238Y146936D01*
X112200Y146859D01*
X112162Y146745D01*
Y146555D01*
X112200Y146440D01*
X112238Y146364D01*
X112315Y146288D01*
X112391Y146250D01*
X112543D01*
X112619Y146288D01*
X112695Y146364D01*
X112734Y146440D01*
X112958Y147050D02*
X113263Y146250D01*
X113568Y147050D02*
X113263Y146250D01*
X113670Y147050D02*
Y146250D01*
Y147050D02*
X114013D01*
X114128Y147012D01*
X114166Y146974D01*
X114204Y146897D01*
Y146821D01*
X114166Y146745D01*
X114128Y146707D01*
X114013Y146669D01*
X113670D01*
X113937D02*
X114204Y146250D01*
X114878Y147050D02*
X114383D01*
Y146250D01*
X114878D01*
X114383Y146669D02*
X114687D01*
X115011Y147050D02*
Y146250D01*
Y147050D02*
X115506D01*
X115011Y146669D02*
X115316D01*
X146391Y106671D02*
X146314Y106633D01*
X146238Y106557D01*
X146200Y106481D01*
Y106329D01*
X146238Y106252D01*
X146314Y106176D01*
X146391Y106138D01*
X146505Y106100D01*
X146695D01*
X146810Y106138D01*
X146886Y106176D01*
X146962Y106252D01*
X147000Y106329D01*
Y106481D01*
X146962Y106557D01*
X146886Y106633D01*
X146810Y106671D01*
X146200Y107125D02*
X146238Y107048D01*
X146314Y106972D01*
X146391Y106934D01*
X146505Y106896D01*
X146695D01*
X146810Y106934D01*
X146886Y106972D01*
X146962Y107048D01*
X147000Y107125D01*
Y107277D01*
X146962Y107353D01*
X146886Y107429D01*
X146810Y107467D01*
X146695Y107505D01*
X146505D01*
X146391Y107467D01*
X146314Y107429D01*
X146238Y107353D01*
X146200Y107277D01*
Y107125D01*
Y107692D02*
X147000D01*
X146200D02*
X147000Y108225D01*
X146200D02*
X147000D01*
X146200Y108713D02*
X147000D01*
X146200Y108446D02*
Y108979D01*
Y109075D02*
X147000D01*
X146200D02*
Y109417D01*
X146238Y109532D01*
X146276Y109570D01*
X146353Y109608D01*
X146429D01*
X146505Y109570D01*
X146543Y109532D01*
X146581Y109417D01*
Y109075D01*
Y109341D02*
X147000Y109608D01*
Y110396D02*
X146200Y110092D01*
X147000Y109787D01*
X146733Y109901D02*
Y110282D01*
X146314Y111116D02*
X146238Y111040D01*
X146200Y110926D01*
Y110773D01*
X146238Y110659D01*
X146314Y110583D01*
X146391D01*
X146467Y110621D01*
X146505Y110659D01*
X146543Y110735D01*
X146619Y110964D01*
X146657Y111040D01*
X146695Y111078D01*
X146771Y111116D01*
X146886D01*
X146962Y111040D01*
X147000Y110926D01*
Y110773D01*
X146962Y110659D01*
X146886Y110583D01*
X146200Y111562D02*
X147000D01*
X146200Y111295D02*
Y111828D01*
X158813Y124400D02*
Y123400D01*
X158480Y124400D02*
X159147D01*
X159266D02*
Y123400D01*
X159932Y124400D02*
Y123400D01*
X159266Y123924D02*
X159932D01*
X160208Y124400D02*
Y123400D01*
Y124400D02*
X160589Y123400D01*
X160970Y124400D02*
X160589Y123400D01*
X160970Y124400D02*
Y123400D01*
X161303Y124162D02*
Y124209D01*
X161351Y124305D01*
X161398Y124352D01*
X161494Y124400D01*
X161684D01*
X161779Y124352D01*
X161827Y124305D01*
X161875Y124209D01*
Y124114D01*
X161827Y124019D01*
X161732Y123876D01*
X161256Y123400D01*
X161922D01*
X115683Y123650D02*
Y122650D01*
X115350Y123650D02*
X116017D01*
X116136D02*
Y122650D01*
X116802Y123650D02*
Y122650D01*
X116136Y123174D02*
X116802D01*
X117078Y123650D02*
Y122650D01*
Y123650D02*
X117459Y122650D01*
X117840Y123650D02*
X117459Y122650D01*
X117840Y123650D02*
Y122650D01*
X118126Y123459D02*
X118221Y123507D01*
X118364Y123650D01*
Y122650D01*
X166800Y126100D02*
Y125300D01*
Y126100D02*
X167143D01*
X167257Y126062D01*
X167295Y126024D01*
X167333Y125947D01*
Y125871D01*
X167295Y125795D01*
X167257Y125757D01*
X167143Y125719D01*
X166800D01*
X167067D02*
X167333Y125300D01*
X167588Y126100D02*
X168007D01*
X167779Y125795D01*
X167893D01*
X167969Y125757D01*
X168007Y125719D01*
X168045Y125605D01*
Y125529D01*
X168007Y125414D01*
X167931Y125338D01*
X167817Y125300D01*
X167703D01*
X167588Y125338D01*
X167550Y125376D01*
X167512Y125452D01*
X168301Y126100D02*
X168720D01*
X168491Y125795D01*
X168605D01*
X168682Y125757D01*
X168720Y125719D01*
X168758Y125605D01*
Y125529D01*
X168720Y125414D01*
X168643Y125338D01*
X168529Y125300D01*
X168415D01*
X168301Y125338D01*
X168263Y125376D01*
X168224Y125452D01*
X168200Y95000D02*
X167400D01*
X168200D02*
Y94657D01*
X168162Y94543D01*
X168124Y94505D01*
X168047Y94467D01*
X167971D01*
X167895Y94505D01*
X167857Y94543D01*
X167819Y94657D01*
Y95000D01*
Y94733D02*
X167400Y94467D01*
X168047Y94288D02*
X168086Y94212D01*
X168200Y94097D01*
X167400D01*
X168200Y93511D02*
X168162Y93625D01*
X168086Y93663D01*
X168009D01*
X167933Y93625D01*
X167895Y93549D01*
X167857Y93397D01*
X167819Y93282D01*
X167743Y93206D01*
X167667Y93168D01*
X167552D01*
X167476Y93206D01*
X167438Y93244D01*
X167400Y93358D01*
Y93511D01*
X167438Y93625D01*
X167476Y93663D01*
X167552Y93701D01*
X167667D01*
X167743Y93663D01*
X167819Y93587D01*
X167857Y93473D01*
X167895Y93320D01*
X167933Y93244D01*
X168009Y93206D01*
X168086D01*
X168162Y93244D01*
X168200Y93358D01*
Y93511D01*
X170100Y95000D02*
X169300D01*
X170100D02*
Y94657D01*
X170062Y94543D01*
X170024Y94505D01*
X169947Y94467D01*
X169871D01*
X169795Y94505D01*
X169757Y94543D01*
X169719Y94657D01*
Y95000D01*
Y94733D02*
X169300Y94467D01*
X169947Y94288D02*
X169986Y94212D01*
X170100Y94097D01*
X169300D01*
X170100Y93168D02*
X169300Y93549D01*
X170100Y93701D02*
Y93168D01*
X134750Y112950D02*
Y111950D01*
Y112950D02*
X135178D01*
X135321Y112902D01*
X135369Y112855D01*
X135417Y112759D01*
Y112664D01*
X135369Y112569D01*
X135321Y112521D01*
X135178Y112474D01*
X134750D01*
X135083D02*
X135417Y111950D01*
X135640Y112759D02*
X135736Y112807D01*
X135878Y112950D01*
Y111950D01*
X136945Y112807D02*
X136897Y112902D01*
X136754Y112950D01*
X136659D01*
X136516Y112902D01*
X136421Y112759D01*
X136373Y112521D01*
Y112283D01*
X136421Y112093D01*
X136516Y111998D01*
X136659Y111950D01*
X136707D01*
X136850Y111998D01*
X136945Y112093D01*
X136992Y112236D01*
Y112283D01*
X136945Y112426D01*
X136850Y112521D01*
X136707Y112569D01*
X136659D01*
X136516Y112521D01*
X136421Y112426D01*
X136373Y112283D01*
X168529Y102600D02*
X168452Y102562D01*
X168376Y102486D01*
X168338Y102409D01*
X168300Y102295D01*
Y102105D01*
X168338Y101990D01*
X168376Y101914D01*
X168452Y101838D01*
X168529Y101800D01*
X168681D01*
X168757Y101838D01*
X168833Y101914D01*
X168871Y101990D01*
X168909Y102105D01*
Y102295D01*
X168871Y102409D01*
X168833Y102486D01*
X168757Y102562D01*
X168681Y102600D01*
X168529D01*
X168643Y101952D02*
X168871Y101724D01*
X169096Y102447D02*
X169172Y102486D01*
X169286Y102600D01*
Y101800D01*
X115900Y82026D02*
X116328D01*
X116471Y82074D01*
X116519Y82121D01*
X116567Y82217D01*
Y82359D01*
X116519Y82455D01*
X116471Y82502D01*
X116328Y82550D01*
X115900D01*
Y81550D01*
X116790Y82550D02*
X117028Y81550D01*
X117266Y82550D02*
X117028Y81550D01*
X117266Y82550D02*
X117504Y81550D01*
X117742Y82550D02*
X117504Y81550D01*
X117942Y82550D02*
Y81550D01*
Y82550D02*
X118371D01*
X118514Y82502D01*
X118561Y82455D01*
X118609Y82359D01*
Y82264D01*
X118561Y82169D01*
X118514Y82121D01*
X118371Y82074D01*
X117942D01*
X118276D02*
X118609Y81550D01*
X153474Y147700D02*
Y148128D01*
X153426Y148271D01*
X153379Y148319D01*
X153283Y148367D01*
X153141D01*
X153045Y148319D01*
X152998Y148271D01*
X152950Y148128D01*
Y147700D01*
X153950D01*
X153141Y148590D02*
X153093Y148686D01*
X152950Y148828D01*
X153950D01*
X152950Y149419D02*
Y149942D01*
X153331Y149657D01*
Y149800D01*
X153379Y149895D01*
X153426Y149942D01*
X153569Y149990D01*
X153664D01*
X153807Y149942D01*
X153902Y149847D01*
X153950Y149704D01*
Y149561D01*
X153902Y149419D01*
X153855Y149371D01*
X153760Y149323D01*
X145924Y147700D02*
Y148128D01*
X145876Y148271D01*
X145829Y148319D01*
X145733Y148367D01*
X145591D01*
X145495Y148319D01*
X145448Y148271D01*
X145400Y148128D01*
Y147700D01*
X146400D01*
X145591Y148590D02*
X145543Y148686D01*
X145400Y148828D01*
X146400D01*
X145638Y149371D02*
X145591D01*
X145495Y149419D01*
X145448Y149466D01*
X145400Y149561D01*
Y149752D01*
X145448Y149847D01*
X145495Y149895D01*
X145591Y149942D01*
X145686D01*
X145781Y149895D01*
X145924Y149800D01*
X146400Y149323D01*
Y149990D01*
X175824Y147900D02*
Y148328D01*
X175776Y148471D01*
X175729Y148519D01*
X175633Y148567D01*
X175491D01*
X175395Y148519D01*
X175348Y148471D01*
X175300Y148328D01*
Y147900D01*
X176300D01*
X175491Y148790D02*
X175443Y148885D01*
X175300Y149028D01*
X176300D01*
X175491Y149523D02*
X175443Y149619D01*
X175300Y149762D01*
X176300D01*
X162860Y147800D02*
Y148228D01*
X162812Y148371D01*
X162765Y148419D01*
X162670Y148467D01*
X162527D01*
X162432Y148419D01*
X162384Y148371D01*
X162336Y148228D01*
Y147800D01*
X163336D01*
X162527Y148690D02*
X162479Y148786D01*
X162336Y148928D01*
X163336D01*
X162336Y149709D02*
X162384Y149566D01*
X162527Y149471D01*
X162765Y149423D01*
X162908D01*
X163146Y149471D01*
X163288Y149566D01*
X163336Y149709D01*
Y149804D01*
X163288Y149947D01*
X163146Y150042D01*
X162908Y150090D01*
X162765D01*
X162527Y150042D01*
X162384Y149947D01*
X162336Y149804D01*
Y149709D01*
X87274Y148150D02*
Y148578D01*
X87226Y148721D01*
X87179Y148769D01*
X87083Y148817D01*
X86941D01*
X86845Y148769D01*
X86798Y148721D01*
X86750Y148578D01*
Y148150D01*
X87750D01*
X87083Y149659D02*
X87226Y149612D01*
X87322Y149516D01*
X87369Y149374D01*
Y149326D01*
X87322Y149183D01*
X87226Y149088D01*
X87083Y149040D01*
X87036D01*
X86893Y149088D01*
X86798Y149183D01*
X86750Y149326D01*
Y149374D01*
X86798Y149516D01*
X86893Y149612D01*
X87083Y149659D01*
X87322D01*
X87560Y149612D01*
X87702Y149516D01*
X87750Y149374D01*
Y149278D01*
X87702Y149135D01*
X87607Y149088D01*
X99074Y148150D02*
Y148578D01*
X99026Y148721D01*
X98979Y148769D01*
X98883Y148817D01*
X98741D01*
X98645Y148769D01*
X98598Y148721D01*
X98550Y148578D01*
Y148150D01*
X99550D01*
X98550Y149278D02*
X98598Y149135D01*
X98693Y149088D01*
X98788D01*
X98883Y149135D01*
X98931Y149231D01*
X98979Y149421D01*
X99026Y149564D01*
X99122Y149659D01*
X99217Y149707D01*
X99360D01*
X99455Y149659D01*
X99502Y149612D01*
X99550Y149469D01*
Y149278D01*
X99502Y149135D01*
X99455Y149088D01*
X99360Y149040D01*
X99217D01*
X99122Y149088D01*
X99026Y149183D01*
X98979Y149326D01*
X98931Y149516D01*
X98883Y149612D01*
X98788Y149659D01*
X98693D01*
X98598Y149612D01*
X98550Y149469D01*
Y149278D01*
X183050Y123826D02*
X183478D01*
X183621Y123874D01*
X183669Y123921D01*
X183717Y124017D01*
Y124159D01*
X183669Y124255D01*
X183621Y124302D01*
X183478Y124350D01*
X183050D01*
Y123350D01*
X184512Y124350D02*
X184036D01*
X183988Y123921D01*
X184036Y123969D01*
X184178Y124017D01*
X184321D01*
X184464Y123969D01*
X184559Y123874D01*
X184607Y123731D01*
Y123636D01*
X184559Y123493D01*
X184464Y123398D01*
X184321Y123350D01*
X184178D01*
X184036Y123398D01*
X183988Y123445D01*
X183940Y123540D01*
X71424Y148150D02*
Y148578D01*
X71376Y148721D01*
X71329Y148769D01*
X71233Y148817D01*
X71091D01*
X70995Y148769D01*
X70948Y148721D01*
X70900Y148578D01*
Y148150D01*
X71900D01*
X71138Y149088D02*
X71091D01*
X70995Y149135D01*
X70948Y149183D01*
X70900Y149278D01*
Y149469D01*
X70948Y149564D01*
X70995Y149612D01*
X71091Y149659D01*
X71186D01*
X71281Y149612D01*
X71424Y149516D01*
X71900Y149040D01*
Y149707D01*
X165300Y128300D02*
X166100D01*
X165300D02*
Y128795D01*
X165681Y128300D02*
Y128605D01*
X165300Y128887D02*
X166100D01*
Y129344D01*
X165300Y129698D02*
X166100D01*
X165300Y129431D02*
Y129964D01*
X125350Y123350D02*
X126150D01*
X125350D02*
Y123845D01*
X125731Y123350D02*
Y123655D01*
X125350Y123937D02*
X126150D01*
Y124394D01*
X125350Y124748D02*
X126150D01*
X125350Y124481D02*
Y125014D01*
X116283Y77950D02*
Y76950D01*
X115950Y77950D02*
X116617D01*
X116736D02*
X117402Y76950D01*
Y77950D02*
X116736Y76950D01*
X115900Y80250D02*
Y79250D01*
Y80250D02*
X116328D01*
X116471Y80202D01*
X116519Y80155D01*
X116567Y80059D01*
Y79964D01*
X116519Y79869D01*
X116471Y79821D01*
X116328Y79774D01*
X115900D01*
X116233D02*
X116567Y79250D01*
X116790Y80250D02*
X117457Y79250D01*
Y80250D02*
X116790Y79250D01*
X134550Y82750D02*
X135550D01*
Y83321D01*
X134741Y83431D02*
X134693Y83526D01*
X134550Y83669D01*
X135550D01*
X134181Y73750D02*
Y73140D01*
X134143Y73026D01*
X134105Y72988D01*
X134029Y72950D01*
X133952D01*
X133876Y72988D01*
X133838Y73026D01*
X133800Y73140D01*
Y73217D01*
X134387Y73750D02*
Y72950D01*
Y73750D02*
X134691Y72950D01*
X134996Y73750D02*
X134691Y72950D01*
X134996Y73750D02*
Y72950D01*
X135224Y73331D02*
X135567D01*
X135682Y73369D01*
X135720Y73407D01*
X135758Y73483D01*
Y73597D01*
X135720Y73674D01*
X135682Y73712D01*
X135567Y73750D01*
X135224D01*
Y72950D01*
X136013Y73750D02*
X136432D01*
X136203Y73445D01*
X136318D01*
X136394Y73407D01*
X136432Y73369D01*
X136470Y73255D01*
Y73179D01*
X136432Y73064D01*
X136356Y72988D01*
X136241Y72950D01*
X136127D01*
X136013Y72988D01*
X135975Y73026D01*
X135937Y73102D01*
X127500Y145150D02*
Y144350D01*
Y145150D02*
X127805Y144350D01*
X128109Y145150D02*
X127805Y144350D01*
X128109Y145150D02*
Y144350D01*
X128605Y145150D02*
Y144350D01*
X128338Y145150D02*
X128871D01*
X128966D02*
Y144350D01*
Y145150D02*
X129309D01*
X129423Y145112D01*
X129461Y145074D01*
X129500Y144997D01*
Y144921D01*
X129461Y144845D01*
X129423Y144807D01*
X129309Y144769D01*
X128966D01*
X129233D02*
X129500Y144350D01*
X130307Y145150D02*
Y144350D01*
Y145150D02*
X130650D01*
X130764Y145112D01*
X130802Y145074D01*
X130840Y144997D01*
Y144921D01*
X130802Y144845D01*
X130764Y144807D01*
X130650Y144769D01*
X130307D01*
X130574D02*
X130840Y144350D01*
X119500Y145300D02*
Y144500D01*
Y145300D02*
X119805Y144500D01*
X120109Y145300D02*
X119805Y144500D01*
X120109Y145300D02*
Y144500D01*
X120605Y145300D02*
Y144500D01*
X120338Y145300D02*
X120871D01*
X120966D02*
Y144500D01*
Y145300D02*
X121309D01*
X121423Y145262D01*
X121461Y145224D01*
X121500Y145147D01*
Y145071D01*
X121461Y144995D01*
X121423Y144957D01*
X121309Y144919D01*
X120966D01*
X121233D02*
X121500Y144500D01*
X122307Y145300D02*
Y144500D01*
X122764D01*
X174641Y143921D02*
X174564Y143883D01*
X174488Y143807D01*
X174450Y143731D01*
Y143579D01*
X174488Y143502D01*
X174564Y143426D01*
X174641Y143388D01*
X174755Y143350D01*
X174945D01*
X175060Y143388D01*
X175136Y143426D01*
X175212Y143502D01*
X175250Y143579D01*
Y143731D01*
X175212Y143807D01*
X175136Y143883D01*
X175060Y143921D01*
X174450Y144603D02*
Y144222D01*
X174793Y144184D01*
X174755Y144222D01*
X174717Y144336D01*
Y144451D01*
X174755Y144565D01*
X174831Y144641D01*
X174945Y144679D01*
X175021D01*
X175136Y144641D01*
X175212Y144565D01*
X175250Y144451D01*
Y144336D01*
X175212Y144222D01*
X175174Y144184D01*
X175098Y144146D01*
X174717Y145353D02*
X174831Y145315D01*
X174907Y145239D01*
X174945Y145125D01*
Y145087D01*
X174907Y144973D01*
X174831Y144896D01*
X174717Y144858D01*
X174679D01*
X174564Y144896D01*
X174488Y144973D01*
X174450Y145087D01*
Y145125D01*
X174488Y145239D01*
X174564Y145315D01*
X174717Y145353D01*
X174907D01*
X175098Y145315D01*
X175212Y145239D01*
X175250Y145125D01*
Y145049D01*
X175212Y144934D01*
X175136Y144896D01*
X162821Y143809D02*
X162783Y143886D01*
X162707Y143962D01*
X162631Y144000D01*
X162479D01*
X162402Y143962D01*
X162326Y143886D01*
X162288Y143809D01*
X162250Y143695D01*
Y143505D01*
X162288Y143390D01*
X162326Y143314D01*
X162402Y143238D01*
X162479Y143200D01*
X162631D01*
X162707Y143238D01*
X162783Y143314D01*
X162821Y143390D01*
X163503Y144000D02*
X163122D01*
X163084Y143657D01*
X163122Y143695D01*
X163236Y143733D01*
X163351D01*
X163465Y143695D01*
X163541Y143619D01*
X163579Y143505D01*
Y143429D01*
X163541Y143314D01*
X163465Y143238D01*
X163351Y143200D01*
X163236D01*
X163122Y143238D01*
X163084Y143276D01*
X163046Y143352D01*
X163949Y144000D02*
X163834Y143962D01*
X163796Y143886D01*
Y143809D01*
X163834Y143733D01*
X163911Y143695D01*
X164063Y143657D01*
X164177Y143619D01*
X164253Y143543D01*
X164291Y143467D01*
Y143352D01*
X164253Y143276D01*
X164215Y143238D01*
X164101Y143200D01*
X163949D01*
X163834Y143238D01*
X163796Y143276D01*
X163758Y143352D01*
Y143467D01*
X163796Y143543D01*
X163873Y143619D01*
X163987Y143657D01*
X164139Y143695D01*
X164215Y143733D01*
X164253Y143809D01*
Y143886D01*
X164215Y143962D01*
X164101Y144000D01*
X163949D01*
X146771Y132009D02*
X146733Y132086D01*
X146657Y132162D01*
X146581Y132200D01*
X146429D01*
X146352Y132162D01*
X146276Y132086D01*
X146238Y132009D01*
X146200Y131895D01*
Y131705D01*
X146238Y131590D01*
X146276Y131514D01*
X146352Y131438D01*
X146429Y131400D01*
X146581D01*
X146657Y131438D01*
X146733Y131514D01*
X146771Y131590D01*
X147453Y132200D02*
X147072D01*
X147034Y131857D01*
X147072Y131895D01*
X147186Y131933D01*
X147301D01*
X147415Y131895D01*
X147491Y131819D01*
X147529Y131705D01*
Y131629D01*
X147491Y131514D01*
X147415Y131438D01*
X147301Y131400D01*
X147186D01*
X147072Y131438D01*
X147034Y131476D01*
X146996Y131552D01*
X148165Y132086D02*
X148127Y132162D01*
X148013Y132200D01*
X147937D01*
X147823Y132162D01*
X147746Y132047D01*
X147708Y131857D01*
Y131667D01*
X147746Y131514D01*
X147823Y131438D01*
X147937Y131400D01*
X147975D01*
X148089Y131438D01*
X148165Y131514D01*
X148203Y131629D01*
Y131667D01*
X148165Y131781D01*
X148089Y131857D01*
X147975Y131895D01*
X147937D01*
X147823Y131857D01*
X147746Y131781D01*
X147708Y131667D01*
X154771Y132009D02*
X154733Y132086D01*
X154657Y132162D01*
X154581Y132200D01*
X154429D01*
X154352Y132162D01*
X154276Y132086D01*
X154238Y132009D01*
X154200Y131895D01*
Y131705D01*
X154238Y131590D01*
X154276Y131514D01*
X154352Y131438D01*
X154429Y131400D01*
X154581D01*
X154657Y131438D01*
X154733Y131514D01*
X154771Y131590D01*
X155453Y132200D02*
X155072D01*
X155034Y131857D01*
X155072Y131895D01*
X155186Y131933D01*
X155301D01*
X155415Y131895D01*
X155491Y131819D01*
X155529Y131705D01*
Y131629D01*
X155491Y131514D01*
X155415Y131438D01*
X155301Y131400D01*
X155186D01*
X155072Y131438D01*
X155034Y131476D01*
X154996Y131552D01*
X156165Y132200D02*
X155784D01*
X155746Y131857D01*
X155784Y131895D01*
X155899Y131933D01*
X156013D01*
X156127Y131895D01*
X156203Y131819D01*
X156241Y131705D01*
Y131629D01*
X156203Y131514D01*
X156127Y131438D01*
X156013Y131400D01*
X155899D01*
X155784Y131438D01*
X155746Y131476D01*
X155708Y131552D01*
X134091Y137071D02*
X134014Y137033D01*
X133938Y136957D01*
X133900Y136881D01*
Y136729D01*
X133938Y136652D01*
X134014Y136576D01*
X134091Y136538D01*
X134205Y136500D01*
X134395D01*
X134510Y136538D01*
X134586Y136576D01*
X134662Y136652D01*
X134700Y136729D01*
Y136881D01*
X134662Y136957D01*
X134586Y137033D01*
X134510Y137071D01*
X133900Y137677D02*
X134433Y137296D01*
Y137867D01*
X133900Y137677D02*
X134700D01*
X134167Y138503D02*
X134281Y138465D01*
X134357Y138389D01*
X134395Y138275D01*
Y138237D01*
X134357Y138123D01*
X134281Y138046D01*
X134167Y138008D01*
X134129D01*
X134014Y138046D01*
X133938Y138123D01*
X133900Y138237D01*
Y138275D01*
X133938Y138389D01*
X134014Y138465D01*
X134167Y138503D01*
X134357D01*
X134548Y138465D01*
X134662Y138389D01*
X134700Y138275D01*
Y138199D01*
X134662Y138084D01*
X134586Y138046D01*
X132291Y142371D02*
X132214Y142333D01*
X132138Y142257D01*
X132100Y142181D01*
Y142029D01*
X132138Y141952D01*
X132214Y141876D01*
X132291Y141838D01*
X132405Y141800D01*
X132595D01*
X132710Y141838D01*
X132786Y141876D01*
X132862Y141952D01*
X132900Y142029D01*
Y142181D01*
X132862Y142257D01*
X132786Y142333D01*
X132710Y142371D01*
X132100Y142977D02*
X132633Y142596D01*
Y143167D01*
X132100Y142977D02*
X132900D01*
X132100Y143841D02*
X132900Y143461D01*
X132100Y143308D02*
Y143841D01*
X128441Y140971D02*
X128364Y140933D01*
X128288Y140857D01*
X128250Y140781D01*
Y140629D01*
X128288Y140552D01*
X128364Y140476D01*
X128441Y140438D01*
X128555Y140400D01*
X128745D01*
X128860Y140438D01*
X128936Y140476D01*
X129012Y140552D01*
X129050Y140629D01*
Y140781D01*
X129012Y140857D01*
X128936Y140933D01*
X128860Y140971D01*
X128250Y141577D02*
X128783Y141196D01*
Y141767D01*
X128250Y141577D02*
X129050D01*
X128364Y142365D02*
X128288Y142327D01*
X128250Y142213D01*
Y142137D01*
X128288Y142023D01*
X128403Y141946D01*
X128593Y141908D01*
X128783D01*
X128936Y141946D01*
X129012Y142023D01*
X129050Y142137D01*
Y142175D01*
X129012Y142289D01*
X128936Y142365D01*
X128821Y142403D01*
X128783D01*
X128669Y142365D01*
X128593Y142289D01*
X128555Y142175D01*
Y142137D01*
X128593Y142023D01*
X128669Y141946D01*
X128783Y141908D01*
X124341Y140921D02*
X124264Y140883D01*
X124188Y140807D01*
X124150Y140731D01*
Y140579D01*
X124188Y140502D01*
X124264Y140426D01*
X124341Y140388D01*
X124455Y140350D01*
X124645D01*
X124760Y140388D01*
X124836Y140426D01*
X124912Y140502D01*
X124950Y140579D01*
Y140731D01*
X124912Y140807D01*
X124836Y140883D01*
X124760Y140921D01*
X124150Y141527D02*
X124683Y141146D01*
Y141717D01*
X124150Y141527D02*
X124950D01*
X124150Y142315D02*
Y141934D01*
X124493Y141896D01*
X124455Y141934D01*
X124417Y142049D01*
Y142163D01*
X124455Y142277D01*
X124531Y142353D01*
X124645Y142391D01*
X124721D01*
X124836Y142353D01*
X124912Y142277D01*
X124950Y142163D01*
Y142049D01*
X124912Y141934D01*
X124874Y141896D01*
X124798Y141858D01*
X137241Y129621D02*
X137164Y129583D01*
X137088Y129507D01*
X137050Y129431D01*
Y129279D01*
X137088Y129202D01*
X137164Y129126D01*
X137241Y129088D01*
X137355Y129050D01*
X137545D01*
X137660Y129088D01*
X137736Y129126D01*
X137812Y129202D01*
X137850Y129279D01*
Y129431D01*
X137812Y129507D01*
X137736Y129583D01*
X137660Y129621D01*
X137050Y130227D02*
X137583Y129846D01*
Y130417D01*
X137050Y130227D02*
X137850D01*
X137050Y130939D02*
X137583Y130558D01*
Y131130D01*
X137050Y130939D02*
X137850D01*
X109091Y132971D02*
X109014Y132933D01*
X108938Y132857D01*
X108900Y132781D01*
Y132629D01*
X108938Y132552D01*
X109014Y132476D01*
X109091Y132438D01*
X109205Y132400D01*
X109395D01*
X109510Y132438D01*
X109586Y132476D01*
X109662Y132552D01*
X109700Y132629D01*
Y132781D01*
X109662Y132857D01*
X109586Y132933D01*
X109510Y132971D01*
X108900Y133577D02*
X109433Y133196D01*
Y133767D01*
X108900Y133577D02*
X109700D01*
X108900Y133984D02*
Y134403D01*
X109205Y134175D01*
Y134289D01*
X109243Y134365D01*
X109281Y134403D01*
X109395Y134441D01*
X109471D01*
X109586Y134403D01*
X109662Y134327D01*
X109700Y134213D01*
Y134099D01*
X109662Y133984D01*
X109624Y133946D01*
X109548Y133908D01*
X174091Y76921D02*
X174014Y76883D01*
X173938Y76807D01*
X173900Y76731D01*
Y76579D01*
X173938Y76502D01*
X174014Y76426D01*
X174091Y76388D01*
X174205Y76350D01*
X174395D01*
X174510Y76388D01*
X174586Y76426D01*
X174662Y76502D01*
X174700Y76579D01*
Y76731D01*
X174662Y76807D01*
X174586Y76883D01*
X174510Y76921D01*
X173900Y77222D02*
Y77641D01*
X174205Y77413D01*
Y77527D01*
X174243Y77603D01*
X174281Y77641D01*
X174395Y77679D01*
X174471D01*
X174586Y77641D01*
X174662Y77565D01*
X174700Y77451D01*
Y77336D01*
X174662Y77222D01*
X174624Y77184D01*
X174548Y77146D01*
X174167Y78353D02*
X174281Y78315D01*
X174357Y78239D01*
X174395Y78125D01*
Y78087D01*
X174357Y77973D01*
X174281Y77896D01*
X174167Y77858D01*
X174129D01*
X174014Y77896D01*
X173938Y77973D01*
X173900Y78087D01*
Y78125D01*
X173938Y78239D01*
X174014Y78315D01*
X174167Y78353D01*
X174357D01*
X174548Y78315D01*
X174662Y78239D01*
X174700Y78125D01*
Y78049D01*
X174662Y77934D01*
X174586Y77896D01*
X163791Y120771D02*
X163714Y120733D01*
X163638Y120657D01*
X163600Y120581D01*
Y120429D01*
X163638Y120352D01*
X163714Y120276D01*
X163791Y120238D01*
X163905Y120200D01*
X164095D01*
X164210Y120238D01*
X164286Y120276D01*
X164362Y120352D01*
X164400Y120429D01*
Y120581D01*
X164362Y120657D01*
X164286Y120733D01*
X164210Y120771D01*
X163791Y121034D02*
X163753D01*
X163676Y121072D01*
X163638Y121110D01*
X163600Y121186D01*
Y121339D01*
X163638Y121415D01*
X163676Y121453D01*
X163753Y121491D01*
X163829D01*
X163905Y121453D01*
X164019Y121377D01*
X164400Y120996D01*
Y121529D01*
X163600Y122241D02*
X164400Y121861D01*
X163600Y121708D02*
Y122241D01*
X135541Y63071D02*
X135464Y63033D01*
X135388Y62957D01*
X135350Y62881D01*
Y62729D01*
X135388Y62652D01*
X135464Y62576D01*
X135541Y62538D01*
X135655Y62500D01*
X135845D01*
X135960Y62538D01*
X136036Y62576D01*
X136112Y62652D01*
X136150Y62729D01*
Y62881D01*
X136112Y62957D01*
X136036Y63033D01*
X135960Y63071D01*
X135541Y63334D02*
X135503D01*
X135426Y63372D01*
X135388Y63410D01*
X135350Y63486D01*
Y63639D01*
X135388Y63715D01*
X135426Y63753D01*
X135503Y63791D01*
X135579D01*
X135655Y63753D01*
X135769Y63677D01*
X136150Y63296D01*
Y63829D01*
X135503Y64008D02*
X135464Y64084D01*
X135350Y64199D01*
X136150D01*
X125291Y94721D02*
X125214Y94683D01*
X125138Y94607D01*
X125100Y94531D01*
Y94379D01*
X125138Y94302D01*
X125214Y94226D01*
X125291Y94188D01*
X125405Y94150D01*
X125595D01*
X125710Y94188D01*
X125786Y94226D01*
X125862Y94302D01*
X125900Y94379D01*
Y94531D01*
X125862Y94607D01*
X125786Y94683D01*
X125710Y94721D01*
X125291Y94984D02*
X125253D01*
X125176Y95022D01*
X125138Y95060D01*
X125100Y95136D01*
Y95289D01*
X125138Y95365D01*
X125176Y95403D01*
X125253Y95441D01*
X125329D01*
X125405Y95403D01*
X125519Y95327D01*
X125900Y94946D01*
Y95479D01*
X125100Y95887D02*
X125138Y95773D01*
X125253Y95696D01*
X125443Y95658D01*
X125557D01*
X125748Y95696D01*
X125862Y95773D01*
X125900Y95887D01*
Y95963D01*
X125862Y96077D01*
X125748Y96153D01*
X125557Y96191D01*
X125443D01*
X125253Y96153D01*
X125138Y96077D01*
X125100Y95963D01*
Y95887D01*
X120741Y85321D02*
X120664Y85283D01*
X120588Y85207D01*
X120550Y85131D01*
Y84979D01*
X120588Y84902D01*
X120664Y84826D01*
X120741Y84788D01*
X120855Y84750D01*
X121045D01*
X121160Y84788D01*
X121236Y84826D01*
X121312Y84902D01*
X121350Y84979D01*
Y85131D01*
X121312Y85207D01*
X121236Y85283D01*
X121160Y85321D01*
X120703Y85546D02*
X120664Y85622D01*
X120550Y85736D01*
X121350D01*
X120817Y86628D02*
X120931Y86590D01*
X121007Y86513D01*
X121045Y86399D01*
Y86361D01*
X121007Y86247D01*
X120931Y86171D01*
X120817Y86133D01*
X120779D01*
X120664Y86171D01*
X120588Y86247D01*
X120550Y86361D01*
Y86399D01*
X120588Y86513D01*
X120664Y86590D01*
X120817Y86628D01*
X121007D01*
X121198Y86590D01*
X121312Y86513D01*
X121350Y86399D01*
Y86323D01*
X121312Y86209D01*
X121236Y86171D01*
X127891Y87621D02*
X127814Y87583D01*
X127738Y87507D01*
X127700Y87431D01*
Y87279D01*
X127738Y87202D01*
X127814Y87126D01*
X127891Y87088D01*
X128005Y87050D01*
X128195D01*
X128310Y87088D01*
X128386Y87126D01*
X128462Y87202D01*
X128500Y87279D01*
Y87431D01*
X128462Y87507D01*
X128386Y87583D01*
X128310Y87621D01*
X127853Y87846D02*
X127814Y87922D01*
X127700Y88036D01*
X128500D01*
X127700Y88623D02*
X127738Y88509D01*
X127814Y88471D01*
X127891D01*
X127967Y88509D01*
X128005Y88585D01*
X128043Y88737D01*
X128081Y88852D01*
X128157Y88928D01*
X128233Y88966D01*
X128348D01*
X128424Y88928D01*
X128462Y88890D01*
X128500Y88775D01*
Y88623D01*
X128462Y88509D01*
X128424Y88471D01*
X128348Y88433D01*
X128233D01*
X128157Y88471D01*
X128081Y88547D01*
X128043Y88661D01*
X128005Y88813D01*
X127967Y88890D01*
X127891Y88928D01*
X127814D01*
X127738Y88890D01*
X127700Y88775D01*
Y88623D01*
X131641Y87221D02*
X131564Y87183D01*
X131488Y87107D01*
X131450Y87031D01*
Y86879D01*
X131488Y86802D01*
X131564Y86726D01*
X131641Y86688D01*
X131755Y86650D01*
X131945D01*
X132060Y86688D01*
X132136Y86726D01*
X132212Y86802D01*
X132250Y86879D01*
Y87031D01*
X132212Y87107D01*
X132136Y87183D01*
X132060Y87221D01*
X131603Y87446D02*
X131564Y87522D01*
X131450Y87636D01*
X132250D01*
X131450Y88566D02*
X132250Y88185D01*
X131450Y88033D02*
Y88566D01*
X131641Y95471D02*
X131564Y95433D01*
X131488Y95357D01*
X131450Y95281D01*
Y95129D01*
X131488Y95052D01*
X131564Y94976D01*
X131641Y94938D01*
X131755Y94900D01*
X131945D01*
X132060Y94938D01*
X132136Y94976D01*
X132212Y95052D01*
X132250Y95129D01*
Y95281D01*
X132212Y95357D01*
X132136Y95433D01*
X132060Y95471D01*
X131603Y95696D02*
X131564Y95772D01*
X131450Y95886D01*
X132250D01*
X131564Y96740D02*
X131488Y96702D01*
X131450Y96587D01*
Y96511D01*
X131488Y96397D01*
X131603Y96321D01*
X131793Y96283D01*
X131983D01*
X132136Y96321D01*
X132212Y96397D01*
X132250Y96511D01*
Y96549D01*
X132212Y96663D01*
X132136Y96740D01*
X132021Y96778D01*
X131983D01*
X131869Y96740D01*
X131793Y96663D01*
X131755Y96549D01*
Y96511D01*
X131793Y96397D01*
X131869Y96321D01*
X131983Y96283D01*
X142791Y92137D02*
X142714Y92099D01*
X142638Y92023D01*
X142600Y91947D01*
Y91795D01*
X142638Y91718D01*
X142714Y91642D01*
X142791Y91604D01*
X142905Y91566D01*
X143095D01*
X143210Y91604D01*
X143286Y91642D01*
X143362Y91718D01*
X143400Y91795D01*
Y91947D01*
X143362Y92023D01*
X143286Y92099D01*
X143210Y92137D01*
X142753Y92362D02*
X142714Y92438D01*
X142600Y92553D01*
X143400D01*
X142753Y92949D02*
X142714Y93025D01*
X142600Y93139D01*
X143400D01*
X142791Y89221D02*
X142714Y89183D01*
X142638Y89107D01*
X142600Y89031D01*
Y88879D01*
X142638Y88802D01*
X142714Y88726D01*
X142791Y88688D01*
X142905Y88650D01*
X143095D01*
X143210Y88688D01*
X143286Y88726D01*
X143362Y88802D01*
X143400Y88879D01*
Y89031D01*
X143362Y89107D01*
X143286Y89183D01*
X143210Y89221D01*
X142753Y89446D02*
X142714Y89522D01*
X142600Y89636D01*
X143400D01*
X142600Y90261D02*
X142638Y90147D01*
X142753Y90071D01*
X142943Y90033D01*
X143057D01*
X143248Y90071D01*
X143362Y90147D01*
X143400Y90261D01*
Y90337D01*
X143362Y90452D01*
X143248Y90528D01*
X143057Y90566D01*
X142943D01*
X142753Y90528D01*
X142638Y90452D01*
X142600Y90337D01*
Y90261D01*
X144788Y76914D02*
X144693Y76867D01*
X144598Y76771D01*
X144550Y76676D01*
Y76486D01*
X144598Y76390D01*
X144693Y76295D01*
X144788Y76248D01*
X144931Y76200D01*
X145169D01*
X145312Y76248D01*
X145407Y76295D01*
X145502Y76390D01*
X145550Y76486D01*
Y76676D01*
X145502Y76771D01*
X145407Y76867D01*
X145312Y76914D01*
X144883Y77814D02*
X145026Y77766D01*
X145122Y77671D01*
X145169Y77528D01*
Y77481D01*
X145122Y77338D01*
X145026Y77243D01*
X144883Y77195D01*
X144836D01*
X144693Y77243D01*
X144598Y77338D01*
X144550Y77481D01*
Y77528D01*
X144598Y77671D01*
X144693Y77766D01*
X144883Y77814D01*
X145122D01*
X145360Y77766D01*
X145502Y77671D01*
X145550Y77528D01*
Y77433D01*
X145502Y77290D01*
X145407Y77243D01*
X144788Y73414D02*
X144693Y73367D01*
X144598Y73271D01*
X144550Y73176D01*
Y72986D01*
X144598Y72890D01*
X144693Y72795D01*
X144788Y72748D01*
X144931Y72700D01*
X145169D01*
X145312Y72748D01*
X145407Y72795D01*
X145502Y72890D01*
X145550Y72986D01*
Y73176D01*
X145502Y73271D01*
X145407Y73367D01*
X145312Y73414D01*
X144550Y73933D02*
X144598Y73790D01*
X144693Y73743D01*
X144788D01*
X144883Y73790D01*
X144931Y73885D01*
X144979Y74076D01*
X145026Y74219D01*
X145122Y74314D01*
X145217Y74362D01*
X145360D01*
X145455Y74314D01*
X145502Y74266D01*
X145550Y74123D01*
Y73933D01*
X145502Y73790D01*
X145455Y73743D01*
X145360Y73695D01*
X145217D01*
X145122Y73743D01*
X145026Y73838D01*
X144979Y73981D01*
X144931Y74171D01*
X144883Y74266D01*
X144788Y74314D01*
X144693D01*
X144598Y74266D01*
X144550Y74123D01*
Y73933D01*
X141591Y80571D02*
X141514Y80533D01*
X141438Y80457D01*
X141400Y80381D01*
Y80229D01*
X141438Y80152D01*
X141514Y80076D01*
X141591Y80038D01*
X141705Y80000D01*
X141895D01*
X142010Y80038D01*
X142086Y80076D01*
X142162Y80152D01*
X142200Y80229D01*
Y80381D01*
X142162Y80457D01*
X142086Y80533D01*
X142010Y80571D01*
X141400Y81329D02*
X142200Y80948D01*
X141400Y80796D02*
Y81329D01*
X153421Y84959D02*
X153383Y85036D01*
X153307Y85112D01*
X153231Y85150D01*
X153079D01*
X153002Y85112D01*
X152926Y85036D01*
X152888Y84959D01*
X152850Y84845D01*
Y84655D01*
X152888Y84540D01*
X152926Y84464D01*
X153002Y84388D01*
X153079Y84350D01*
X153231D01*
X153307Y84388D01*
X153383Y84464D01*
X153421Y84540D01*
X154103Y85150D02*
X153722D01*
X153684Y84807D01*
X153722Y84845D01*
X153836Y84883D01*
X153951D01*
X154065Y84845D01*
X154141Y84769D01*
X154179Y84655D01*
Y84579D01*
X154141Y84464D01*
X154065Y84388D01*
X153951Y84350D01*
X153836D01*
X153722Y84388D01*
X153684Y84426D01*
X153646Y84502D01*
X115900Y75750D02*
Y74750D01*
X116567Y75750D02*
Y74750D01*
X115900Y75274D02*
X116567D01*
X117462Y75750D02*
X116843D01*
Y74750D01*
X117462D01*
X116843Y75274D02*
X117224D01*
X118390Y74750D02*
X118009Y75750D01*
X117628Y74750D01*
X117771Y75083D02*
X118247D01*
X118623Y75750D02*
Y74750D01*
Y75750D02*
X119052D01*
X119195Y75702D01*
X119242Y75655D01*
X119290Y75559D01*
Y75464D01*
X119242Y75369D01*
X119195Y75321D01*
X119052Y75274D01*
X118623D01*
X118956D02*
X119290Y74750D01*
X119847Y75750D02*
Y74750D01*
X119514Y75750D02*
X120180D01*
X120299D02*
Y74750D01*
Y75750D02*
X120728D01*
X120870Y75702D01*
X120918Y75655D01*
X120966Y75559D01*
Y75464D01*
X120918Y75369D01*
X120870Y75321D01*
X120728Y75274D01*
X120299D02*
X120728D01*
X120870Y75226D01*
X120918Y75178D01*
X120966Y75083D01*
Y74940D01*
X120918Y74845D01*
X120870Y74798D01*
X120728Y74750D01*
X120299D01*
X121808Y75750D02*
X121189D01*
Y74750D01*
X121808D01*
X121189Y75274D02*
X121570D01*
X122737Y74750D02*
X122356Y75750D01*
X121975Y74750D01*
X122118Y75083D02*
X122594D01*
X123303Y75750D02*
Y74750D01*
X122970Y75750D02*
X123636D01*
X71450Y109350D02*
X70450D01*
X71450D02*
Y108922D01*
X71402Y108779D01*
X71355Y108731D01*
X71259Y108683D01*
X71164D01*
X71069Y108731D01*
X71021Y108779D01*
X70974Y108922D01*
Y109350D01*
Y109017D02*
X70450Y108683D01*
X71450Y108126D02*
X70450D01*
X71450Y108460D02*
Y107793D01*
X71212Y106960D02*
X71307Y107008D01*
X71402Y107103D01*
X71450Y107198D01*
Y107389D01*
X71402Y107484D01*
X71307Y107579D01*
X71212Y107627D01*
X71069Y107674D01*
X70831D01*
X70688Y107627D01*
X70593Y107579D01*
X70498Y107484D01*
X70450Y107389D01*
Y107198D01*
X70498Y107103D01*
X70593Y107008D01*
X70688Y106960D01*
X71450Y105894D02*
X70450D01*
X71450D02*
Y105465D01*
X71402Y105322D01*
X71355Y105275D01*
X71259Y105227D01*
X71164D01*
X71069Y105275D01*
X71021Y105322D01*
X70974Y105465D01*
Y105894D02*
Y105465D01*
X70926Y105322D01*
X70878Y105275D01*
X70783Y105227D01*
X70640D01*
X70545Y105275D01*
X70498Y105322D01*
X70450Y105465D01*
Y105894D01*
Y104242D02*
X71450Y104622D01*
X70450Y105003D01*
X70783Y104860D02*
Y104384D01*
X71450Y103675D02*
X70450D01*
X71450Y104008D02*
Y103342D01*
X160800Y131650D02*
Y130850D01*
Y131650D02*
X161143D01*
X161257Y131612D01*
X161295Y131574D01*
X161333Y131497D01*
Y131421D01*
X161295Y131345D01*
X161257Y131307D01*
X161143Y131269D01*
X160800D01*
X161067D02*
X161333Y130850D01*
X161588Y131650D02*
X162007D01*
X161779Y131345D01*
X161893D01*
X161969Y131307D01*
X162007Y131269D01*
X162045Y131155D01*
Y131079D01*
X162007Y130964D01*
X161931Y130888D01*
X161817Y130850D01*
X161703D01*
X161588Y130888D01*
X161550Y130926D01*
X161512Y131002D01*
X162605Y131650D02*
X162224Y131117D01*
X162796D01*
X162605Y131650D02*
Y130850D01*
D16*
X196500Y105400D02*
X200000D01*
X120000D02*
X123500D01*
X120000Y102000D02*
Y105400D01*
Y69200D02*
Y72600D01*
Y69200D02*
X123500D01*
X200000Y102000D02*
Y105400D01*
X196600Y69200D02*
X200000D01*
Y72600D01*
X117200Y51070D02*
X124300D01*
X117200Y50070D02*
X119000D01*
X117200D02*
Y57070D01*
X124300D01*
Y50070D02*
Y57070D01*
X119000Y50070D02*
X124300D01*
X158282Y75954D02*
Y76597D01*
X158210Y76811D01*
X158139Y76882D01*
X157996Y76954D01*
X157782D01*
X157639Y76882D01*
X157568Y76811D01*
X157496Y76597D01*
Y75954D01*
X158996D01*
X157711Y78146D02*
X157568Y78075D01*
X157496Y77861D01*
Y77718D01*
X157568Y77504D01*
X157782Y77361D01*
X158139Y77289D01*
X158496D01*
X158782Y77361D01*
X158925Y77504D01*
X158996Y77718D01*
Y77789D01*
X158925Y78004D01*
X158782Y78146D01*
X158568Y78218D01*
X158496D01*
X158282Y78146D01*
X158139Y78004D01*
X158068Y77789D01*
Y77718D01*
X158139Y77504D01*
X158282Y77361D01*
X158496Y77289D01*
X101886Y85983D02*
X101696Y85793D01*
X101600Y85507D01*
Y85126D01*
X101696Y84840D01*
X101886Y84650D01*
X102077D01*
X102267Y84745D01*
X102362Y84840D01*
X102457Y85031D01*
X102648Y85602D01*
X102743Y85793D01*
X102838Y85888D01*
X103029Y85983D01*
X103314D01*
X103505Y85793D01*
X103600Y85507D01*
Y85126D01*
X103505Y84840D01*
X103314Y84650D01*
X101600Y87097D02*
X103600D01*
X101600Y86431D02*
Y87764D01*
Y88002D02*
X103600D01*
X101600D02*
X103600Y88763D01*
X101600Y89525D02*
X103600Y88763D01*
X101600Y89525D02*
X103600D01*
X101600Y90287D02*
Y91334D01*
X102362Y90763D01*
Y91049D01*
X102457Y91239D01*
X102553Y91334D01*
X102838Y91429D01*
X103029D01*
X103314Y91334D01*
X103505Y91144D01*
X103600Y90858D01*
Y90573D01*
X103505Y90287D01*
X103410Y90192D01*
X103219Y90096D01*
X102077Y91972D02*
X101981D01*
X101791Y92067D01*
X101696Y92163D01*
X101600Y92353D01*
Y92734D01*
X101696Y92924D01*
X101791Y93020D01*
X101981Y93115D01*
X102172D01*
X102362Y93020D01*
X102648Y92829D01*
X103600Y91877D01*
Y93210D01*
X101600Y93658D02*
X103600D01*
X101600D02*
Y94895D01*
X102553Y93658D02*
Y94419D01*
X101600Y95314D02*
Y96362D01*
X102362Y95790D01*
Y96076D01*
X102457Y96267D01*
X102553Y96362D01*
X102838Y96457D01*
X103029D01*
X103314Y96362D01*
X103505Y96171D01*
X103600Y95886D01*
Y95600D01*
X103505Y95314D01*
X103410Y95219D01*
X103219Y95124D01*
X101600Y97476D02*
X101696Y97190D01*
X101981Y97000D01*
X102457Y96905D01*
X102743D01*
X103219Y97000D01*
X103505Y97190D01*
X103600Y97476D01*
Y97666D01*
X103505Y97952D01*
X103219Y98142D01*
X102743Y98238D01*
X102457D01*
X101981Y98142D01*
X101696Y97952D01*
X101600Y97666D01*
Y97476D01*
Y98876D02*
Y99923D01*
X102362Y99352D01*
Y99637D01*
X102457Y99828D01*
X102553Y99923D01*
X102838Y100018D01*
X103029D01*
X103314Y99923D01*
X103505Y99732D01*
X103600Y99447D01*
Y99161D01*
X103505Y98876D01*
X103410Y98780D01*
X103219Y98685D01*
X101600Y102037D02*
X103600D01*
X101600D02*
X103600Y103370D01*
X101600D02*
X103600D01*
X101600Y103922D02*
X103029D01*
X103314Y104017D01*
X103505Y104208D01*
X103600Y104493D01*
Y104684D01*
X103505Y104969D01*
X103314Y105160D01*
X103029Y105255D01*
X101600D01*
X102077Y107236D02*
X101886Y107140D01*
X101696Y106950D01*
X101600Y106760D01*
Y106379D01*
X101696Y106188D01*
X101886Y105998D01*
X102077Y105903D01*
X102362Y105807D01*
X102838D01*
X103124Y105903D01*
X103314Y105998D01*
X103505Y106188D01*
X103600Y106379D01*
Y106760D01*
X103505Y106950D01*
X103314Y107140D01*
X103124Y107236D01*
X101600Y107797D02*
X103600D01*
Y108940D01*
X101600Y110397D02*
Y109159D01*
X103600D01*
Y110397D01*
X102553Y109159D02*
Y109921D01*
X101600Y111301D02*
X101696Y111111D01*
X101886Y110921D01*
X102077Y110825D01*
X102362Y110730D01*
X102838D01*
X103124Y110825D01*
X103314Y110921D01*
X103505Y111111D01*
X103600Y111301D01*
Y111682D01*
X103505Y111873D01*
X103314Y112063D01*
X103124Y112158D01*
X102838Y112254D01*
X102362D01*
X102077Y112158D01*
X101886Y112063D01*
X101696Y111873D01*
X101600Y111682D01*
Y111301D01*
X102743Y112720D02*
Y114434D01*
X101886Y116167D02*
X101696Y116072D01*
X101600Y115786D01*
Y115596D01*
X101696Y115310D01*
X101981Y115120D01*
X102457Y115024D01*
X102933D01*
X103314Y115120D01*
X103505Y115310D01*
X103600Y115596D01*
Y115691D01*
X103505Y115977D01*
X103314Y116167D01*
X103029Y116262D01*
X102933D01*
X102648Y116167D01*
X102457Y115977D01*
X102362Y115691D01*
Y115596D01*
X102457Y115310D01*
X102648Y115120D01*
X102933Y115024D01*
X101600Y117652D02*
X102933Y116700D01*
Y118129D01*
X101600Y117652D02*
X103600D01*
X108500Y62471D02*
X109014D01*
X109186Y62528D01*
X109243Y62586D01*
X109300Y62700D01*
Y62871D01*
X109243Y62985D01*
X109186Y63043D01*
X109014Y63100D01*
X108500D01*
Y61900D01*
X109568Y63100D02*
X109854Y61900D01*
X110140Y63100D02*
X109854Y61900D01*
X110140Y63100D02*
X110425Y61900D01*
X110711Y63100D02*
X110425Y61900D01*
X110951Y63100D02*
Y61900D01*
Y63100D02*
X111465D01*
X111636Y63043D01*
X111694Y62985D01*
X111751Y62871D01*
Y62757D01*
X111694Y62643D01*
X111636Y62586D01*
X111465Y62528D01*
X110951D01*
X111351D02*
X111751Y61900D01*
X112962Y63100D02*
Y61900D01*
X113213Y63100D02*
Y61900D01*
Y63100D02*
X114013Y61900D01*
Y63100D02*
Y61900D01*
X101586Y129857D02*
X101472Y129800D01*
X101357Y129686D01*
X101300Y129571D01*
Y129343D01*
X101357Y129229D01*
X101472Y129114D01*
X101586Y129057D01*
X101757Y129000D01*
X102043D01*
X102214Y129057D01*
X102329Y129114D01*
X102443Y129229D01*
X102500Y129343D01*
Y129571D01*
X102443Y129686D01*
X102329Y129800D01*
X102214Y129857D01*
X101300Y130194D02*
X102500D01*
X101300D02*
X102500Y130994D01*
X101300D02*
X102500D01*
X101529Y131325D02*
X101472Y131439D01*
X101300Y131611D01*
X102500D01*
X101300Y132548D02*
X101357Y132376D01*
X101529Y132262D01*
X101814Y132205D01*
X101986D01*
X102271Y132262D01*
X102443Y132376D01*
X102500Y132548D01*
Y132662D01*
X102443Y132833D01*
X102271Y132948D01*
X101986Y133005D01*
X101814D01*
X101529Y132948D01*
X101357Y132833D01*
X101300Y132662D01*
Y132548D01*
X101586Y68857D02*
X101472Y68800D01*
X101357Y68686D01*
X101300Y68571D01*
Y68343D01*
X101357Y68229D01*
X101472Y68114D01*
X101586Y68057D01*
X101757Y68000D01*
X102043D01*
X102214Y68057D01*
X102329Y68114D01*
X102443Y68229D01*
X102500Y68343D01*
Y68571D01*
X102443Y68686D01*
X102329Y68800D01*
X102214Y68857D01*
X101300Y69194D02*
X102500D01*
X101300D02*
X102500Y69994D01*
X101300D02*
X102500D01*
X101300Y71125D02*
X102500Y70554D01*
X101300Y70325D02*
Y71125D01*
X195250Y130214D02*
X195893D01*
X196107Y130286D01*
X196178Y130357D01*
X196250Y130500D01*
Y130714D01*
X196178Y130857D01*
X196107Y130928D01*
X195893Y131000D01*
X195250D01*
Y129500D01*
X196585Y130714D02*
X196728Y130785D01*
X196942Y131000D01*
Y129500D01*
X198542Y130785D02*
X198471Y130928D01*
X198257Y131000D01*
X198114D01*
X197899Y130928D01*
X197757Y130714D01*
X197685Y130357D01*
Y130000D01*
X197757Y129714D01*
X197899Y129571D01*
X198114Y129500D01*
X198185D01*
X198399Y129571D01*
X198542Y129714D01*
X198614Y129928D01*
Y130000D01*
X198542Y130214D01*
X198399Y130357D01*
X198185Y130428D01*
X198114D01*
X197899Y130357D01*
X197757Y130214D01*
X197685Y130000D01*
X195250Y98714D02*
X195893D01*
X196107Y98786D01*
X196178Y98857D01*
X196250Y99000D01*
Y99214D01*
X196178Y99357D01*
X196107Y99428D01*
X195893Y99500D01*
X195250D01*
Y98000D01*
X196585Y99214D02*
X196728Y99285D01*
X196942Y99500D01*
Y98000D01*
X198542Y99500D02*
X197828D01*
X197757Y98857D01*
X197828Y98928D01*
X198042Y99000D01*
X198257D01*
X198471Y98928D01*
X198614Y98786D01*
X198685Y98571D01*
Y98428D01*
X198614Y98214D01*
X198471Y98071D01*
X198257Y98000D01*
X198042D01*
X197828Y98071D01*
X197757Y98143D01*
X197685Y98286D01*
X137036Y53250D02*
Y53893D01*
X136964Y54107D01*
X136893Y54178D01*
X136750Y54250D01*
X136536D01*
X136393Y54178D01*
X136322Y54107D01*
X136250Y53893D01*
Y53250D01*
X137750D01*
X136536Y54585D02*
X136465Y54728D01*
X136250Y54942D01*
X137750D01*
X136250Y56399D02*
X137250Y55685D01*
Y56756D01*
X136250Y56399D02*
X137750D01*
X184500Y58464D02*
X185143D01*
X185357Y58536D01*
X185428Y58607D01*
X185500Y58750D01*
Y58964D01*
X185428Y59107D01*
X185357Y59178D01*
X185143Y59250D01*
X184500D01*
Y57750D01*
X186692Y59035D02*
X186621Y59178D01*
X186407Y59250D01*
X186264D01*
X186050Y59178D01*
X185907Y58964D01*
X185835Y58607D01*
Y58250D01*
X185907Y57964D01*
X186050Y57821D01*
X186264Y57750D01*
X186335D01*
X186550Y57821D01*
X186692Y57964D01*
X186764Y58178D01*
Y58250D01*
X186692Y58464D01*
X186550Y58607D01*
X186335Y58678D01*
X186264D01*
X186050Y58607D01*
X185907Y58464D01*
X185835Y58250D01*
X118162Y57500D02*
X117781Y58500D01*
X117400Y57500D01*
X117543Y57833D02*
X118019D01*
X118395Y58500D02*
Y57786D01*
X118443Y57643D01*
X118538Y57548D01*
X118681Y57500D01*
X118776D01*
X118919Y57548D01*
X119014Y57643D01*
X119062Y57786D01*
Y58500D01*
X119338D02*
X120004Y57500D01*
Y58500D02*
X119338Y57500D01*
X121014Y57976D02*
X121442D01*
X121585Y58024D01*
X121632Y58071D01*
X121680Y58167D01*
Y58309D01*
X121632Y58405D01*
X121585Y58452D01*
X121442Y58500D01*
X121014D01*
Y57500D01*
X121904Y58500D02*
X122142Y57500D01*
X122380Y58500D02*
X122142Y57500D01*
X122380Y58500D02*
X122618Y57500D01*
X122856Y58500D02*
X122618Y57500D01*
X123056Y58500D02*
Y57500D01*
Y58500D02*
X123484D01*
X123627Y58452D01*
X123675Y58405D01*
X123722Y58309D01*
Y58214D01*
X123675Y58119D01*
X123627Y58071D01*
X123484Y58024D01*
X123056D01*
X123389D02*
X123722Y57500D01*
X65300Y51400D02*
X66800D01*
X65300D02*
Y52043D01*
X65372Y52257D01*
X65443Y52328D01*
X65586Y52400D01*
X65729D01*
X65872Y52328D01*
X65943Y52257D01*
X66014Y52043D01*
Y51400D01*
Y51900D02*
X66800Y52400D01*
X65515Y53735D02*
X65372Y53592D01*
X65300Y53378D01*
Y53092D01*
X65372Y52878D01*
X65515Y52735D01*
X65657D01*
X65800Y52807D01*
X65872Y52878D01*
X65943Y53021D01*
X66086Y53450D01*
X66157Y53592D01*
X66229Y53664D01*
X66372Y53735D01*
X66586D01*
X66729Y53592D01*
X66800Y53378D01*
Y53092D01*
X66729Y52878D01*
X66586Y52735D01*
X65657Y54142D02*
X65586D01*
X65443Y54214D01*
X65372Y54285D01*
X65300Y54428D01*
Y54714D01*
X65372Y54856D01*
X65443Y54928D01*
X65586Y54999D01*
X65729D01*
X65872Y54928D01*
X66086Y54785D01*
X66800Y54071D01*
Y55071D01*
X65300Y55549D02*
Y56335D01*
X65872Y55906D01*
Y56120D01*
X65943Y56263D01*
X66014Y56335D01*
X66229Y56406D01*
X66372D01*
X66586Y56335D01*
X66729Y56192D01*
X66800Y55978D01*
Y55763D01*
X66729Y55549D01*
X66657Y55478D01*
X66514Y55406D01*
X65657Y56813D02*
X65586D01*
X65443Y56885D01*
X65372Y56956D01*
X65300Y57099D01*
Y57384D01*
X65372Y57527D01*
X65443Y57599D01*
X65586Y57670D01*
X65729D01*
X65872Y57599D01*
X66086Y57456D01*
X66800Y56742D01*
Y57741D01*
D17*
X161600Y106850D02*
Y104850D01*
X162743D01*
X164390Y106373D02*
X164295Y106564D01*
X164104Y106754D01*
X163914Y106850D01*
X163533D01*
X163342Y106754D01*
X163152Y106564D01*
X163057Y106373D01*
X162962Y106088D01*
Y105612D01*
X163057Y105326D01*
X163152Y105136D01*
X163342Y104945D01*
X163533Y104850D01*
X163914D01*
X164104Y104945D01*
X164295Y105136D01*
X164390Y105326D01*
X164952Y106850D02*
Y104850D01*
Y106850D02*
X165618D01*
X165904Y106754D01*
X166094Y106564D01*
X166189Y106373D01*
X166285Y106088D01*
Y105612D01*
X166189Y105326D01*
X166094Y105136D01*
X165904Y104945D01*
X165618Y104850D01*
X164952D01*
D18*
X136450Y71790D02*
D03*
M02*
