G04*
G04 #@! TF.GenerationSoftware,Altium Limited,Altium Designer,19.0.10 (269)*
G04*
G04 Layer_Color=2752767*
%FSLAX43Y43*%
%MOMM*%
G71*
G01*
G75*
%ADD165C,0.051*%
%ADD166C,0.068*%
%ADD167C,0.034*%
D165*
X86797Y88797D02*
Y89203D01*
X87203D01*
Y88797D01*
X86797D01*
X81797D02*
Y89203D01*
X82203D01*
Y88797D01*
X81797D01*
X197500Y102797D02*
X197297Y103203D01*
X197703D01*
X197500Y102797D01*
Y71297D02*
X197297Y71703D01*
X197703D01*
X197500Y71297D01*
X122500D02*
X122297Y71703D01*
X122703D01*
X122500Y71297D01*
Y102797D02*
X122297Y103203D01*
X122703D01*
X122500Y102797D01*
X84500Y120547D02*
X84602Y120648D01*
X84703D01*
X84602Y120750D01*
X84703Y120852D01*
X84602D01*
X84500Y120953D01*
X84398Y120852D01*
X84297D01*
X84398Y120750D01*
X84297Y120648D01*
X84398D01*
X84500Y120547D01*
X85750Y93547D02*
X85852Y93648D01*
X85953D01*
X85852Y93750D01*
X85953Y93852D01*
X85852D01*
X85750Y93953D01*
X85648Y93852D01*
X85547D01*
X85648Y93750D01*
X85547Y93648D01*
X85648D01*
X85750Y93547D01*
X83250D02*
X83352Y93648D01*
X83453D01*
X83352Y93750D01*
X83453Y93852D01*
X83352D01*
X83250Y93953D01*
X83148Y93852D01*
X83047D01*
X83148Y93750D01*
X83047Y93648D01*
X83148D01*
X83250Y93547D01*
X95202Y58717D02*
X95303Y58920D01*
X95202Y59123D01*
X95405Y59022D01*
X95608Y59123D01*
X95507Y58920D01*
X95608Y58717D01*
X95405Y58818D01*
X95202Y58717D01*
X70162D02*
X70263Y58920D01*
X70162Y59123D01*
X70365Y59022D01*
X70568Y59123D01*
X70467Y58920D01*
X70568Y58717D01*
X70365Y58818D01*
X70162Y58717D01*
X88323Y60238D02*
Y60137D01*
X88527D01*
Y60238D01*
X88628D01*
Y60442D01*
X88527D01*
Y60543D01*
X88323D01*
Y60442D01*
X88222D01*
Y60238D01*
X88323D01*
X77243D02*
Y60137D01*
X77447D01*
Y60238D01*
X77548D01*
Y60442D01*
X77447D01*
Y60543D01*
X77243D01*
Y60442D01*
X77142D01*
Y60238D01*
X77243D01*
X80013D02*
Y60137D01*
X80217D01*
Y60238D01*
X80318D01*
Y60442D01*
X80217D01*
Y60543D01*
X80013D01*
Y60442D01*
X79912D01*
Y60238D01*
X80013D01*
X82783D02*
Y60137D01*
X82987D01*
Y60238D01*
X83088D01*
Y60442D01*
X82987D01*
Y60543D01*
X82783D01*
Y60442D01*
X82682D01*
Y60238D01*
X82783D01*
X85553D02*
Y60137D01*
X85757D01*
Y60238D01*
X85858D01*
Y60442D01*
X85757D01*
Y60543D01*
X85553D01*
Y60442D01*
X85452D01*
Y60238D01*
X85553D01*
X78628Y57398D02*
Y57297D01*
X78832D01*
Y57398D01*
X78933D01*
Y57602D01*
X78832D01*
Y57703D01*
X78628D01*
Y57602D01*
X78527D01*
Y57398D01*
X78628D01*
X81398D02*
Y57297D01*
X81602D01*
Y57398D01*
X81703D01*
Y57602D01*
X81602D01*
Y57703D01*
X81398D01*
Y57602D01*
X81297D01*
Y57398D01*
X81398D01*
X84168D02*
Y57297D01*
X84372D01*
Y57398D01*
X84473D01*
Y57602D01*
X84372D01*
Y57703D01*
X84168D01*
Y57602D01*
X84067D01*
Y57398D01*
X84168D01*
X86938D02*
Y57297D01*
X87142D01*
Y57398D01*
X87243D01*
Y57602D01*
X87142D01*
Y57703D01*
X86938D01*
Y57602D01*
X86837D01*
Y57398D01*
X86938D01*
X116297Y53467D02*
X116398D01*
X116500Y53568D01*
X116602Y53467D01*
X116703D01*
Y53568D01*
X116602Y53670D01*
X116703Y53772D01*
Y53873D01*
X116602D01*
X116500Y53772D01*
X116398Y53873D01*
X116297D01*
Y53772D01*
X116398Y53670D01*
X116297Y53568D01*
Y53467D01*
X119797D02*
X119898D01*
X120000Y53568D01*
X120102Y53467D01*
X120203D01*
Y53568D01*
X120102Y53670D01*
X120203Y53772D01*
Y53873D01*
X120102D01*
X120000Y53772D01*
X119898Y53873D01*
X119797D01*
Y53772D01*
X119898Y53670D01*
X119797Y53568D01*
Y53467D01*
X105297Y60020D02*
X105500Y60223D01*
X105703Y60020D01*
X105500Y59817D01*
X105297Y60020D01*
Y54020D02*
X105500Y54223D01*
X105703Y54020D01*
X105500Y53817D01*
X105297Y54020D01*
X109797Y56817D02*
Y57223D01*
X110203D01*
Y56817D01*
X109797D01*
X109898Y56918D02*
Y57122D01*
X110102D01*
Y56918D01*
X109898D01*
X159250Y125547D02*
X159047Y125953D01*
X159453D01*
X159250Y125547D01*
Y125648D02*
X159148Y125852D01*
X159352D01*
X159250Y125648D01*
X161250Y125547D02*
X161047Y125953D01*
X161453D01*
X161250Y125547D01*
Y125648D02*
X161148Y125852D01*
X161352D01*
X161250Y125648D01*
X76310Y71587D02*
X76412Y71688D01*
X76513D01*
X76412Y71790D01*
X76513Y71892D01*
X76412D01*
X76310Y71993D01*
X76208Y71892D01*
X76107D01*
X76208Y71790D01*
X76107Y71688D01*
X76208D01*
X76310Y71587D01*
Y71688D02*
X76361Y71739D01*
X76412D01*
X76361Y71790D01*
X76412Y71841D01*
X76361D01*
X76310Y71892D01*
X76259Y71841D01*
X76208D01*
X76259Y71790D01*
X76208Y71739D01*
X76259D01*
X76310Y71688D01*
X73770Y71587D02*
X73872Y71688D01*
X73973D01*
X73872Y71790D01*
X73973Y71892D01*
X73872D01*
X73770Y71993D01*
X73668Y71892D01*
X73567D01*
X73668Y71790D01*
X73567Y71688D01*
X73668D01*
X73770Y71587D01*
Y71688D02*
X73821Y71739D01*
X73872D01*
X73821Y71790D01*
X73872Y71841D01*
X73821D01*
X73770Y71892D01*
X73719Y71841D01*
X73668D01*
X73719Y71790D01*
X73668Y71739D01*
X73719D01*
X73770Y71688D01*
X76310Y69047D02*
X76412Y69148D01*
X76513D01*
X76412Y69250D01*
X76513Y69352D01*
X76412D01*
X76310Y69453D01*
X76208Y69352D01*
X76107D01*
X76208Y69250D01*
X76107Y69148D01*
X76208D01*
X76310Y69047D01*
Y69148D02*
X76361Y69199D01*
X76412D01*
X76361Y69250D01*
X76412Y69301D01*
X76361D01*
X76310Y69352D01*
X76259Y69301D01*
X76208D01*
X76259Y69250D01*
X76208Y69199D01*
X76259D01*
X76310Y69148D01*
X73770Y69047D02*
X73872Y69148D01*
X73973D01*
X73872Y69250D01*
X73973Y69352D01*
X73872D01*
X73770Y69453D01*
X73668Y69352D01*
X73567D01*
X73668Y69250D01*
X73567Y69148D01*
X73668D01*
X73770Y69047D01*
Y69148D02*
X73821Y69199D01*
X73872D01*
X73821Y69250D01*
X73872Y69301D01*
X73821D01*
X73770Y69352D01*
X73719Y69301D01*
X73668D01*
X73719Y69250D01*
X73668Y69199D01*
X73719D01*
X73770Y69148D01*
X71230Y71587D02*
X71332Y71688D01*
X71433D01*
X71332Y71790D01*
X71433Y71892D01*
X71332D01*
X71230Y71993D01*
X71128Y71892D01*
X71027D01*
X71128Y71790D01*
X71027Y71688D01*
X71128D01*
X71230Y71587D01*
Y71688D02*
X71281Y71739D01*
X71332D01*
X71281Y71790D01*
X71332Y71841D01*
X71281D01*
X71230Y71892D01*
X71179Y71841D01*
X71128D01*
X71179Y71790D01*
X71128Y71739D01*
X71179D01*
X71230Y71688D01*
Y69047D02*
X71332Y69148D01*
X71433D01*
X71332Y69250D01*
X71433Y69352D01*
X71332D01*
X71230Y69453D01*
X71128Y69352D01*
X71027D01*
X71128Y69250D01*
X71027Y69148D01*
X71128D01*
X71230Y69047D01*
Y69148D02*
X71281Y69199D01*
X71332D01*
X71281Y69250D01*
X71332Y69301D01*
X71281D01*
X71230Y69352D01*
X71179Y69301D01*
X71128D01*
X71179Y69250D01*
X71128Y69199D01*
X71179D01*
X71230Y69148D01*
X55990Y69047D02*
X56092Y69148D01*
X56193D01*
X56092Y69250D01*
X56193Y69352D01*
X56092D01*
X55990Y69453D01*
X55888Y69352D01*
X55787D01*
X55888Y69250D01*
X55787Y69148D01*
X55888D01*
X55990Y69047D01*
Y69148D02*
X56041Y69199D01*
X56092D01*
X56041Y69250D01*
X56092Y69301D01*
X56041D01*
X55990Y69352D01*
X55939Y69301D01*
X55888D01*
X55939Y69250D01*
X55888Y69199D01*
X55939D01*
X55990Y69148D01*
X53450Y69047D02*
X53552Y69148D01*
X53653D01*
X53552Y69250D01*
X53653Y69352D01*
X53552D01*
X53450Y69453D01*
X53348Y69352D01*
X53247D01*
X53348Y69250D01*
X53247Y69148D01*
X53348D01*
X53450Y69047D01*
Y69148D02*
X53501Y69199D01*
X53552D01*
X53501Y69250D01*
X53552Y69301D01*
X53501D01*
X53450Y69352D01*
X53399Y69301D01*
X53348D01*
X53399Y69250D01*
X53348Y69199D01*
X53399D01*
X53450Y69148D01*
X58530Y69047D02*
X58632Y69148D01*
X58733D01*
X58632Y69250D01*
X58733Y69352D01*
X58632D01*
X58530Y69453D01*
X58428Y69352D01*
X58327D01*
X58428Y69250D01*
X58327Y69148D01*
X58428D01*
X58530Y69047D01*
Y69148D02*
X58581Y69199D01*
X58632D01*
X58581Y69250D01*
X58632Y69301D01*
X58581D01*
X58530Y69352D01*
X58479Y69301D01*
X58428D01*
X58479Y69250D01*
X58428Y69199D01*
X58479D01*
X58530Y69148D01*
X61070Y69047D02*
X61172Y69148D01*
X61273D01*
X61172Y69250D01*
X61273Y69352D01*
X61172D01*
X61070Y69453D01*
X60968Y69352D01*
X60867D01*
X60968Y69250D01*
X60867Y69148D01*
X60968D01*
X61070Y69047D01*
Y69148D02*
X61121Y69199D01*
X61172D01*
X61121Y69250D01*
X61172Y69301D01*
X61121D01*
X61070Y69352D01*
X61019Y69301D01*
X60968D01*
X61019Y69250D01*
X60968Y69199D01*
X61019D01*
X61070Y69148D01*
X63610Y69047D02*
X63712Y69148D01*
X63813D01*
X63712Y69250D01*
X63813Y69352D01*
X63712D01*
X63610Y69453D01*
X63508Y69352D01*
X63407D01*
X63508Y69250D01*
X63407Y69148D01*
X63508D01*
X63610Y69047D01*
Y69148D02*
X63661Y69199D01*
X63712D01*
X63661Y69250D01*
X63712Y69301D01*
X63661D01*
X63610Y69352D01*
X63559Y69301D01*
X63508D01*
X63559Y69250D01*
X63508Y69199D01*
X63559D01*
X63610Y69148D01*
X66150Y69047D02*
X66252Y69148D01*
X66353D01*
X66252Y69250D01*
X66353Y69352D01*
X66252D01*
X66150Y69453D01*
X66048Y69352D01*
X65947D01*
X66048Y69250D01*
X65947Y69148D01*
X66048D01*
X66150Y69047D01*
Y69148D02*
X66201Y69199D01*
X66252D01*
X66201Y69250D01*
X66252Y69301D01*
X66201D01*
X66150Y69352D01*
X66099Y69301D01*
X66048D01*
X66099Y69250D01*
X66048Y69199D01*
X66099D01*
X66150Y69148D01*
X68690Y69047D02*
X68792Y69148D01*
X68893D01*
X68792Y69250D01*
X68893Y69352D01*
X68792D01*
X68690Y69453D01*
X68588Y69352D01*
X68487D01*
X68588Y69250D01*
X68487Y69148D01*
X68588D01*
X68690Y69047D01*
Y69148D02*
X68741Y69199D01*
X68792D01*
X68741Y69250D01*
X68792Y69301D01*
X68741D01*
X68690Y69352D01*
X68639Y69301D01*
X68588D01*
X68639Y69250D01*
X68588Y69199D01*
X68639D01*
X68690Y69148D01*
X53450Y71587D02*
X53552Y71688D01*
X53653D01*
X53552Y71790D01*
X53653Y71892D01*
X53552D01*
X53450Y71993D01*
X53348Y71892D01*
X53247D01*
X53348Y71790D01*
X53247Y71688D01*
X53348D01*
X53450Y71587D01*
Y71688D02*
X53501Y71739D01*
X53552D01*
X53501Y71790D01*
X53552Y71841D01*
X53501D01*
X53450Y71892D01*
X53399Y71841D01*
X53348D01*
X53399Y71790D01*
X53348Y71739D01*
X53399D01*
X53450Y71688D01*
X55990Y71587D02*
X56092Y71688D01*
X56193D01*
X56092Y71790D01*
X56193Y71892D01*
X56092D01*
X55990Y71993D01*
X55888Y71892D01*
X55787D01*
X55888Y71790D01*
X55787Y71688D01*
X55888D01*
X55990Y71587D01*
Y71688D02*
X56041Y71739D01*
X56092D01*
X56041Y71790D01*
X56092Y71841D01*
X56041D01*
X55990Y71892D01*
X55939Y71841D01*
X55888D01*
X55939Y71790D01*
X55888Y71739D01*
X55939D01*
X55990Y71688D01*
X58530Y71587D02*
X58632Y71688D01*
X58733D01*
X58632Y71790D01*
X58733Y71892D01*
X58632D01*
X58530Y71993D01*
X58428Y71892D01*
X58327D01*
X58428Y71790D01*
X58327Y71688D01*
X58428D01*
X58530Y71587D01*
Y71688D02*
X58581Y71739D01*
X58632D01*
X58581Y71790D01*
X58632Y71841D01*
X58581D01*
X58530Y71892D01*
X58479Y71841D01*
X58428D01*
X58479Y71790D01*
X58428Y71739D01*
X58479D01*
X58530Y71688D01*
X61070Y71587D02*
X61172Y71688D01*
X61273D01*
X61172Y71790D01*
X61273Y71892D01*
X61172D01*
X61070Y71993D01*
X60968Y71892D01*
X60867D01*
X60968Y71790D01*
X60867Y71688D01*
X60968D01*
X61070Y71587D01*
Y71688D02*
X61121Y71739D01*
X61172D01*
X61121Y71790D01*
X61172Y71841D01*
X61121D01*
X61070Y71892D01*
X61019Y71841D01*
X60968D01*
X61019Y71790D01*
X60968Y71739D01*
X61019D01*
X61070Y71688D01*
X63610Y71587D02*
X63712Y71688D01*
X63813D01*
X63712Y71790D01*
X63813Y71892D01*
X63712D01*
X63610Y71993D01*
X63508Y71892D01*
X63407D01*
X63508Y71790D01*
X63407Y71688D01*
X63508D01*
X63610Y71587D01*
Y71688D02*
X63661Y71739D01*
X63712D01*
X63661Y71790D01*
X63712Y71841D01*
X63661D01*
X63610Y71892D01*
X63559Y71841D01*
X63508D01*
X63559Y71790D01*
X63508Y71739D01*
X63559D01*
X63610Y71688D01*
X66150Y71587D02*
X66252Y71688D01*
X66353D01*
X66252Y71790D01*
X66353Y71892D01*
X66252D01*
X66150Y71993D01*
X66048Y71892D01*
X65947D01*
X66048Y71790D01*
X65947Y71688D01*
X66048D01*
X66150Y71587D01*
Y71688D02*
X66201Y71739D01*
X66252D01*
X66201Y71790D01*
X66252Y71841D01*
X66201D01*
X66150Y71892D01*
X66099Y71841D01*
X66048D01*
X66099Y71790D01*
X66048Y71739D01*
X66099D01*
X66150Y71688D01*
X68690Y71587D02*
X68792Y71688D01*
X68893D01*
X68792Y71790D01*
X68893Y71892D01*
X68792D01*
X68690Y71993D01*
X68588Y71892D01*
X68487D01*
X68588Y71790D01*
X68487Y71688D01*
X68588D01*
X68690Y71587D01*
Y71688D02*
X68741Y71739D01*
X68792D01*
X68741Y71790D01*
X68792Y71841D01*
X68741D01*
X68690Y71892D01*
X68639Y71841D01*
X68588D01*
X68639Y71790D01*
X68588Y71739D01*
X68639D01*
X68690Y71688D01*
X91550Y71587D02*
X91652Y71688D01*
X91753D01*
X91652Y71790D01*
X91753Y71892D01*
X91652D01*
X91550Y71993D01*
X91448Y71892D01*
X91347D01*
X91448Y71790D01*
X91347Y71688D01*
X91448D01*
X91550Y71587D01*
Y71688D02*
X91601Y71739D01*
X91652D01*
X91601Y71790D01*
X91652Y71841D01*
X91601D01*
X91550Y71892D01*
X91499Y71841D01*
X91448D01*
X91499Y71790D01*
X91448Y71739D01*
X91499D01*
X91550Y71688D01*
X89010Y71587D02*
X89112Y71688D01*
X89213D01*
X89112Y71790D01*
X89213Y71892D01*
X89112D01*
X89010Y71993D01*
X88908Y71892D01*
X88807D01*
X88908Y71790D01*
X88807Y71688D01*
X88908D01*
X89010Y71587D01*
Y71688D02*
X89061Y71739D01*
X89112D01*
X89061Y71790D01*
X89112Y71841D01*
X89061D01*
X89010Y71892D01*
X88959Y71841D01*
X88908D01*
X88959Y71790D01*
X88908Y71739D01*
X88959D01*
X89010Y71688D01*
X86470Y71587D02*
X86572Y71688D01*
X86673D01*
X86572Y71790D01*
X86673Y71892D01*
X86572D01*
X86470Y71993D01*
X86368Y71892D01*
X86267D01*
X86368Y71790D01*
X86267Y71688D01*
X86368D01*
X86470Y71587D01*
Y71688D02*
X86521Y71739D01*
X86572D01*
X86521Y71790D01*
X86572Y71841D01*
X86521D01*
X86470Y71892D01*
X86419Y71841D01*
X86368D01*
X86419Y71790D01*
X86368Y71739D01*
X86419D01*
X86470Y71688D01*
X83930Y71587D02*
X84032Y71688D01*
X84133D01*
X84032Y71790D01*
X84133Y71892D01*
X84032D01*
X83930Y71993D01*
X83828Y71892D01*
X83727D01*
X83828Y71790D01*
X83727Y71688D01*
X83828D01*
X83930Y71587D01*
Y71688D02*
X83981Y71739D01*
X84032D01*
X83981Y71790D01*
X84032Y71841D01*
X83981D01*
X83930Y71892D01*
X83879Y71841D01*
X83828D01*
X83879Y71790D01*
X83828Y71739D01*
X83879D01*
X83930Y71688D01*
X81390Y71587D02*
X81492Y71688D01*
X81593D01*
X81492Y71790D01*
X81593Y71892D01*
X81492D01*
X81390Y71993D01*
X81288Y71892D01*
X81187D01*
X81288Y71790D01*
X81187Y71688D01*
X81288D01*
X81390Y71587D01*
Y71688D02*
X81441Y71739D01*
X81492D01*
X81441Y71790D01*
X81492Y71841D01*
X81441D01*
X81390Y71892D01*
X81339Y71841D01*
X81288D01*
X81339Y71790D01*
X81288Y71739D01*
X81339D01*
X81390Y71688D01*
X78850Y71587D02*
X78952Y71688D01*
X79053D01*
X78952Y71790D01*
X79053Y71892D01*
X78952D01*
X78850Y71993D01*
X78748Y71892D01*
X78647D01*
X78748Y71790D01*
X78647Y71688D01*
X78748D01*
X78850Y71587D01*
Y71688D02*
X78901Y71739D01*
X78952D01*
X78901Y71790D01*
X78952Y71841D01*
X78901D01*
X78850Y71892D01*
X78799Y71841D01*
X78748D01*
X78799Y71790D01*
X78748Y71739D01*
X78799D01*
X78850Y71688D01*
X91550Y69047D02*
X91652Y69148D01*
X91753D01*
X91652Y69250D01*
X91753Y69352D01*
X91652D01*
X91550Y69453D01*
X91448Y69352D01*
X91347D01*
X91448Y69250D01*
X91347Y69148D01*
X91448D01*
X91550Y69047D01*
Y69148D02*
X91601Y69199D01*
X91652D01*
X91601Y69250D01*
X91652Y69301D01*
X91601D01*
X91550Y69352D01*
X91499Y69301D01*
X91448D01*
X91499Y69250D01*
X91448Y69199D01*
X91499D01*
X91550Y69148D01*
X89010Y69047D02*
X89112Y69148D01*
X89213D01*
X89112Y69250D01*
X89213Y69352D01*
X89112D01*
X89010Y69453D01*
X88908Y69352D01*
X88807D01*
X88908Y69250D01*
X88807Y69148D01*
X88908D01*
X89010Y69047D01*
Y69148D02*
X89061Y69199D01*
X89112D01*
X89061Y69250D01*
X89112Y69301D01*
X89061D01*
X89010Y69352D01*
X88959Y69301D01*
X88908D01*
X88959Y69250D01*
X88908Y69199D01*
X88959D01*
X89010Y69148D01*
X86470Y69047D02*
X86572Y69148D01*
X86673D01*
X86572Y69250D01*
X86673Y69352D01*
X86572D01*
X86470Y69453D01*
X86368Y69352D01*
X86267D01*
X86368Y69250D01*
X86267Y69148D01*
X86368D01*
X86470Y69047D01*
Y69148D02*
X86521Y69199D01*
X86572D01*
X86521Y69250D01*
X86572Y69301D01*
X86521D01*
X86470Y69352D01*
X86419Y69301D01*
X86368D01*
X86419Y69250D01*
X86368Y69199D01*
X86419D01*
X86470Y69148D01*
X83930Y69047D02*
X84032Y69148D01*
X84133D01*
X84032Y69250D01*
X84133Y69352D01*
X84032D01*
X83930Y69453D01*
X83828Y69352D01*
X83727D01*
X83828Y69250D01*
X83727Y69148D01*
X83828D01*
X83930Y69047D01*
Y69148D02*
X83981Y69199D01*
X84032D01*
X83981Y69250D01*
X84032Y69301D01*
X83981D01*
X83930Y69352D01*
X83879Y69301D01*
X83828D01*
X83879Y69250D01*
X83828Y69199D01*
X83879D01*
X83930Y69148D01*
X81390Y69047D02*
X81492Y69148D01*
X81593D01*
X81492Y69250D01*
X81593Y69352D01*
X81492D01*
X81390Y69453D01*
X81288Y69352D01*
X81187D01*
X81288Y69250D01*
X81187Y69148D01*
X81288D01*
X81390Y69047D01*
Y69148D02*
X81441Y69199D01*
X81492D01*
X81441Y69250D01*
X81492Y69301D01*
X81441D01*
X81390Y69352D01*
X81339Y69301D01*
X81288D01*
X81339Y69250D01*
X81288Y69199D01*
X81339D01*
X81390Y69148D01*
X78850Y69047D02*
X78952Y69148D01*
X79053D01*
X78952Y69250D01*
X79053Y69352D01*
X78952D01*
X78850Y69453D01*
X78748Y69352D01*
X78647D01*
X78748Y69250D01*
X78647Y69148D01*
X78748D01*
X78850Y69047D01*
Y69148D02*
X78901Y69199D01*
X78952D01*
X78901Y69250D01*
X78952Y69301D01*
X78901D01*
X78850Y69352D01*
X78799Y69301D01*
X78748D01*
X78799Y69250D01*
X78748Y69199D01*
X78799D01*
X78850Y69148D01*
X94090Y69047D02*
X94192Y69148D01*
X94293D01*
X94192Y69250D01*
X94293Y69352D01*
X94192D01*
X94090Y69453D01*
X93988Y69352D01*
X93887D01*
X93988Y69250D01*
X93887Y69148D01*
X93988D01*
X94090Y69047D01*
Y69148D02*
X94141Y69199D01*
X94192D01*
X94141Y69250D01*
X94192Y69301D01*
X94141D01*
X94090Y69352D01*
X94039Y69301D01*
X93988D01*
X94039Y69250D01*
X93988Y69199D01*
X94039D01*
X94090Y69148D01*
Y71587D02*
X94192Y71688D01*
X94293D01*
X94192Y71790D01*
X94293Y71892D01*
X94192D01*
X94090Y71993D01*
X93988Y71892D01*
X93887D01*
X93988Y71790D01*
X93887Y71688D01*
X93988D01*
X94090Y71587D01*
Y71688D02*
X94141Y71739D01*
X94192D01*
X94141Y71790D01*
X94192Y71841D01*
X94141D01*
X94090Y71892D01*
X94039Y71841D01*
X93988D01*
X94039Y71790D01*
X93988Y71739D01*
X94039D01*
X94090Y71688D01*
X96630Y69047D02*
X96732Y69148D01*
X96833D01*
X96732Y69250D01*
X96833Y69352D01*
X96732D01*
X96630Y69453D01*
X96528Y69352D01*
X96427D01*
X96528Y69250D01*
X96427Y69148D01*
X96528D01*
X96630Y69047D01*
Y69148D02*
X96681Y69199D01*
X96732D01*
X96681Y69250D01*
X96732Y69301D01*
X96681D01*
X96630Y69352D01*
X96579Y69301D01*
X96528D01*
X96579Y69250D01*
X96528Y69199D01*
X96579D01*
X96630Y69148D01*
X99170Y69047D02*
X99272Y69148D01*
X99373D01*
X99272Y69250D01*
X99373Y69352D01*
X99272D01*
X99170Y69453D01*
X99068Y69352D01*
X98967D01*
X99068Y69250D01*
X98967Y69148D01*
X99068D01*
X99170Y69047D01*
Y69148D02*
X99221Y69199D01*
X99272D01*
X99221Y69250D01*
X99272Y69301D01*
X99221D01*
X99170Y69352D01*
X99119Y69301D01*
X99068D01*
X99119Y69250D01*
X99068Y69199D01*
X99119D01*
X99170Y69148D01*
X96630Y71587D02*
X96732Y71688D01*
X96833D01*
X96732Y71790D01*
X96833Y71892D01*
X96732D01*
X96630Y71993D01*
X96528Y71892D01*
X96427D01*
X96528Y71790D01*
X96427Y71688D01*
X96528D01*
X96630Y71587D01*
Y71688D02*
X96681Y71739D01*
X96732D01*
X96681Y71790D01*
X96732Y71841D01*
X96681D01*
X96630Y71892D01*
X96579Y71841D01*
X96528D01*
X96579Y71790D01*
X96528Y71739D01*
X96579D01*
X96630Y71688D01*
X99170Y71587D02*
X99272Y71688D01*
X99373D01*
X99272Y71790D01*
X99373Y71892D01*
X99272D01*
X99170Y71993D01*
X99068Y71892D01*
X98967D01*
X99068Y71790D01*
X98967Y71688D01*
X99068D01*
X99170Y71587D01*
Y71688D02*
X99221Y71739D01*
X99272D01*
X99221Y71790D01*
X99272Y71841D01*
X99221D01*
X99170Y71892D01*
X99119Y71841D01*
X99068D01*
X99119Y71790D01*
X99068Y71739D01*
X99119D01*
X99170Y71688D01*
X99170Y132587D02*
X99272Y132688D01*
X99373D01*
X99272Y132790D01*
X99373Y132892D01*
X99272D01*
X99170Y132993D01*
X99068Y132892D01*
X98967D01*
X99068Y132790D01*
X98967Y132688D01*
X99068D01*
X99170Y132587D01*
Y132688D02*
X99221Y132739D01*
X99272D01*
X99221Y132790D01*
X99272Y132841D01*
X99221D01*
X99170Y132892D01*
X99119Y132841D01*
X99068D01*
X99119Y132790D01*
X99068Y132739D01*
X99119D01*
X99170Y132688D01*
X96630Y132587D02*
X96732Y132688D01*
X96833D01*
X96732Y132790D01*
X96833Y132892D01*
X96732D01*
X96630Y132993D01*
X96528Y132892D01*
X96427D01*
X96528Y132790D01*
X96427Y132688D01*
X96528D01*
X96630Y132587D01*
Y132688D02*
X96681Y132739D01*
X96732D01*
X96681Y132790D01*
X96732Y132841D01*
X96681D01*
X96630Y132892D01*
X96579Y132841D01*
X96528D01*
X96579Y132790D01*
X96528Y132739D01*
X96579D01*
X96630Y132688D01*
X99170Y130047D02*
X99272Y130148D01*
X99373D01*
X99272Y130250D01*
X99373Y130352D01*
X99272D01*
X99170Y130453D01*
X99068Y130352D01*
X98967D01*
X99068Y130250D01*
X98967Y130148D01*
X99068D01*
X99170Y130047D01*
Y130148D02*
X99221Y130199D01*
X99272D01*
X99221Y130250D01*
X99272Y130301D01*
X99221D01*
X99170Y130352D01*
X99119Y130301D01*
X99068D01*
X99119Y130250D01*
X99068Y130199D01*
X99119D01*
X99170Y130148D01*
X96630Y130047D02*
X96732Y130148D01*
X96833D01*
X96732Y130250D01*
X96833Y130352D01*
X96732D01*
X96630Y130453D01*
X96528Y130352D01*
X96427D01*
X96528Y130250D01*
X96427Y130148D01*
X96528D01*
X96630Y130047D01*
Y130148D02*
X96681Y130199D01*
X96732D01*
X96681Y130250D01*
X96732Y130301D01*
X96681D01*
X96630Y130352D01*
X96579Y130301D01*
X96528D01*
X96579Y130250D01*
X96528Y130199D01*
X96579D01*
X96630Y130148D01*
X94090Y132587D02*
X94192Y132688D01*
X94293D01*
X94192Y132790D01*
X94293Y132892D01*
X94192D01*
X94090Y132993D01*
X93988Y132892D01*
X93887D01*
X93988Y132790D01*
X93887Y132688D01*
X93988D01*
X94090Y132587D01*
Y132688D02*
X94141Y132739D01*
X94192D01*
X94141Y132790D01*
X94192Y132841D01*
X94141D01*
X94090Y132892D01*
X94039Y132841D01*
X93988D01*
X94039Y132790D01*
X93988Y132739D01*
X94039D01*
X94090Y132688D01*
Y130047D02*
X94192Y130148D01*
X94293D01*
X94192Y130250D01*
X94293Y130352D01*
X94192D01*
X94090Y130453D01*
X93988Y130352D01*
X93887D01*
X93988Y130250D01*
X93887Y130148D01*
X93988D01*
X94090Y130047D01*
Y130148D02*
X94141Y130199D01*
X94192D01*
X94141Y130250D01*
X94192Y130301D01*
X94141D01*
X94090Y130352D01*
X94039Y130301D01*
X93988D01*
X94039Y130250D01*
X93988Y130199D01*
X94039D01*
X94090Y130148D01*
X78850Y130047D02*
X78952Y130148D01*
X79053D01*
X78952Y130250D01*
X79053Y130352D01*
X78952D01*
X78850Y130453D01*
X78748Y130352D01*
X78647D01*
X78748Y130250D01*
X78647Y130148D01*
X78748D01*
X78850Y130047D01*
Y130148D02*
X78901Y130199D01*
X78952D01*
X78901Y130250D01*
X78952Y130301D01*
X78901D01*
X78850Y130352D01*
X78799Y130301D01*
X78748D01*
X78799Y130250D01*
X78748Y130199D01*
X78799D01*
X78850Y130148D01*
X81390Y130047D02*
X81492Y130148D01*
X81593D01*
X81492Y130250D01*
X81593Y130352D01*
X81492D01*
X81390Y130453D01*
X81288Y130352D01*
X81187D01*
X81288Y130250D01*
X81187Y130148D01*
X81288D01*
X81390Y130047D01*
Y130148D02*
X81441Y130199D01*
X81492D01*
X81441Y130250D01*
X81492Y130301D01*
X81441D01*
X81390Y130352D01*
X81339Y130301D01*
X81288D01*
X81339Y130250D01*
X81288Y130199D01*
X81339D01*
X81390Y130148D01*
X83930Y130047D02*
X84032Y130148D01*
X84133D01*
X84032Y130250D01*
X84133Y130352D01*
X84032D01*
X83930Y130453D01*
X83828Y130352D01*
X83727D01*
X83828Y130250D01*
X83727Y130148D01*
X83828D01*
X83930Y130047D01*
Y130148D02*
X83981Y130199D01*
X84032D01*
X83981Y130250D01*
X84032Y130301D01*
X83981D01*
X83930Y130352D01*
X83879Y130301D01*
X83828D01*
X83879Y130250D01*
X83828Y130199D01*
X83879D01*
X83930Y130148D01*
X86470Y130047D02*
X86572Y130148D01*
X86673D01*
X86572Y130250D01*
X86673Y130352D01*
X86572D01*
X86470Y130453D01*
X86368Y130352D01*
X86267D01*
X86368Y130250D01*
X86267Y130148D01*
X86368D01*
X86470Y130047D01*
Y130148D02*
X86521Y130199D01*
X86572D01*
X86521Y130250D01*
X86572Y130301D01*
X86521D01*
X86470Y130352D01*
X86419Y130301D01*
X86368D01*
X86419Y130250D01*
X86368Y130199D01*
X86419D01*
X86470Y130148D01*
X89010Y130047D02*
X89112Y130148D01*
X89213D01*
X89112Y130250D01*
X89213Y130352D01*
X89112D01*
X89010Y130453D01*
X88908Y130352D01*
X88807D01*
X88908Y130250D01*
X88807Y130148D01*
X88908D01*
X89010Y130047D01*
Y130148D02*
X89061Y130199D01*
X89112D01*
X89061Y130250D01*
X89112Y130301D01*
X89061D01*
X89010Y130352D01*
X88959Y130301D01*
X88908D01*
X88959Y130250D01*
X88908Y130199D01*
X88959D01*
X89010Y130148D01*
X91550Y130047D02*
X91652Y130148D01*
X91753D01*
X91652Y130250D01*
X91753Y130352D01*
X91652D01*
X91550Y130453D01*
X91448Y130352D01*
X91347D01*
X91448Y130250D01*
X91347Y130148D01*
X91448D01*
X91550Y130047D01*
Y130148D02*
X91601Y130199D01*
X91652D01*
X91601Y130250D01*
X91652Y130301D01*
X91601D01*
X91550Y130352D01*
X91499Y130301D01*
X91448D01*
X91499Y130250D01*
X91448Y130199D01*
X91499D01*
X91550Y130148D01*
X78850Y132587D02*
X78952Y132688D01*
X79053D01*
X78952Y132790D01*
X79053Y132892D01*
X78952D01*
X78850Y132993D01*
X78748Y132892D01*
X78647D01*
X78748Y132790D01*
X78647Y132688D01*
X78748D01*
X78850Y132587D01*
Y132688D02*
X78901Y132739D01*
X78952D01*
X78901Y132790D01*
X78952Y132841D01*
X78901D01*
X78850Y132892D01*
X78799Y132841D01*
X78748D01*
X78799Y132790D01*
X78748Y132739D01*
X78799D01*
X78850Y132688D01*
X81390Y132587D02*
X81492Y132688D01*
X81593D01*
X81492Y132790D01*
X81593Y132892D01*
X81492D01*
X81390Y132993D01*
X81288Y132892D01*
X81187D01*
X81288Y132790D01*
X81187Y132688D01*
X81288D01*
X81390Y132587D01*
Y132688D02*
X81441Y132739D01*
X81492D01*
X81441Y132790D01*
X81492Y132841D01*
X81441D01*
X81390Y132892D01*
X81339Y132841D01*
X81288D01*
X81339Y132790D01*
X81288Y132739D01*
X81339D01*
X81390Y132688D01*
X83930Y132587D02*
X84032Y132688D01*
X84133D01*
X84032Y132790D01*
X84133Y132892D01*
X84032D01*
X83930Y132993D01*
X83828Y132892D01*
X83727D01*
X83828Y132790D01*
X83727Y132688D01*
X83828D01*
X83930Y132587D01*
Y132688D02*
X83981Y132739D01*
X84032D01*
X83981Y132790D01*
X84032Y132841D01*
X83981D01*
X83930Y132892D01*
X83879Y132841D01*
X83828D01*
X83879Y132790D01*
X83828Y132739D01*
X83879D01*
X83930Y132688D01*
X86470Y132587D02*
X86572Y132688D01*
X86673D01*
X86572Y132790D01*
X86673Y132892D01*
X86572D01*
X86470Y132993D01*
X86368Y132892D01*
X86267D01*
X86368Y132790D01*
X86267Y132688D01*
X86368D01*
X86470Y132587D01*
Y132688D02*
X86521Y132739D01*
X86572D01*
X86521Y132790D01*
X86572Y132841D01*
X86521D01*
X86470Y132892D01*
X86419Y132841D01*
X86368D01*
X86419Y132790D01*
X86368Y132739D01*
X86419D01*
X86470Y132688D01*
X89010Y132587D02*
X89112Y132688D01*
X89213D01*
X89112Y132790D01*
X89213Y132892D01*
X89112D01*
X89010Y132993D01*
X88908Y132892D01*
X88807D01*
X88908Y132790D01*
X88807Y132688D01*
X88908D01*
X89010Y132587D01*
Y132688D02*
X89061Y132739D01*
X89112D01*
X89061Y132790D01*
X89112Y132841D01*
X89061D01*
X89010Y132892D01*
X88959Y132841D01*
X88908D01*
X88959Y132790D01*
X88908Y132739D01*
X88959D01*
X89010Y132688D01*
X91550Y132587D02*
X91652Y132688D01*
X91753D01*
X91652Y132790D01*
X91753Y132892D01*
X91652D01*
X91550Y132993D01*
X91448Y132892D01*
X91347D01*
X91448Y132790D01*
X91347Y132688D01*
X91448D01*
X91550Y132587D01*
Y132688D02*
X91601Y132739D01*
X91652D01*
X91601Y132790D01*
X91652Y132841D01*
X91601D01*
X91550Y132892D01*
X91499Y132841D01*
X91448D01*
X91499Y132790D01*
X91448Y132739D01*
X91499D01*
X91550Y132688D01*
X68690Y132587D02*
X68792Y132688D01*
X68893D01*
X68792Y132790D01*
X68893Y132892D01*
X68792D01*
X68690Y132993D01*
X68588Y132892D01*
X68487D01*
X68588Y132790D01*
X68487Y132688D01*
X68588D01*
X68690Y132587D01*
Y132688D02*
X68741Y132739D01*
X68792D01*
X68741Y132790D01*
X68792Y132841D01*
X68741D01*
X68690Y132892D01*
X68639Y132841D01*
X68588D01*
X68639Y132790D01*
X68588Y132739D01*
X68639D01*
X68690Y132688D01*
X66150Y132587D02*
X66252Y132688D01*
X66353D01*
X66252Y132790D01*
X66353Y132892D01*
X66252D01*
X66150Y132993D01*
X66048Y132892D01*
X65947D01*
X66048Y132790D01*
X65947Y132688D01*
X66048D01*
X66150Y132587D01*
Y132688D02*
X66201Y132739D01*
X66252D01*
X66201Y132790D01*
X66252Y132841D01*
X66201D01*
X66150Y132892D01*
X66099Y132841D01*
X66048D01*
X66099Y132790D01*
X66048Y132739D01*
X66099D01*
X66150Y132688D01*
X63610Y132587D02*
X63712Y132688D01*
X63813D01*
X63712Y132790D01*
X63813Y132892D01*
X63712D01*
X63610Y132993D01*
X63508Y132892D01*
X63407D01*
X63508Y132790D01*
X63407Y132688D01*
X63508D01*
X63610Y132587D01*
Y132688D02*
X63661Y132739D01*
X63712D01*
X63661Y132790D01*
X63712Y132841D01*
X63661D01*
X63610Y132892D01*
X63559Y132841D01*
X63508D01*
X63559Y132790D01*
X63508Y132739D01*
X63559D01*
X63610Y132688D01*
X61070Y132587D02*
X61172Y132688D01*
X61273D01*
X61172Y132790D01*
X61273Y132892D01*
X61172D01*
X61070Y132993D01*
X60968Y132892D01*
X60867D01*
X60968Y132790D01*
X60867Y132688D01*
X60968D01*
X61070Y132587D01*
Y132688D02*
X61121Y132739D01*
X61172D01*
X61121Y132790D01*
X61172Y132841D01*
X61121D01*
X61070Y132892D01*
X61019Y132841D01*
X60968D01*
X61019Y132790D01*
X60968Y132739D01*
X61019D01*
X61070Y132688D01*
X58530Y132587D02*
X58632Y132688D01*
X58733D01*
X58632Y132790D01*
X58733Y132892D01*
X58632D01*
X58530Y132993D01*
X58428Y132892D01*
X58327D01*
X58428Y132790D01*
X58327Y132688D01*
X58428D01*
X58530Y132587D01*
Y132688D02*
X58581Y132739D01*
X58632D01*
X58581Y132790D01*
X58632Y132841D01*
X58581D01*
X58530Y132892D01*
X58479Y132841D01*
X58428D01*
X58479Y132790D01*
X58428Y132739D01*
X58479D01*
X58530Y132688D01*
X55990Y132587D02*
X56092Y132688D01*
X56193D01*
X56092Y132790D01*
X56193Y132892D01*
X56092D01*
X55990Y132993D01*
X55888Y132892D01*
X55787D01*
X55888Y132790D01*
X55787Y132688D01*
X55888D01*
X55990Y132587D01*
Y132688D02*
X56041Y132739D01*
X56092D01*
X56041Y132790D01*
X56092Y132841D01*
X56041D01*
X55990Y132892D01*
X55939Y132841D01*
X55888D01*
X55939Y132790D01*
X55888Y132739D01*
X55939D01*
X55990Y132688D01*
X53450Y132587D02*
X53552Y132688D01*
X53653D01*
X53552Y132790D01*
X53653Y132892D01*
X53552D01*
X53450Y132993D01*
X53348Y132892D01*
X53247D01*
X53348Y132790D01*
X53247Y132688D01*
X53348D01*
X53450Y132587D01*
Y132688D02*
X53501Y132739D01*
X53552D01*
X53501Y132790D01*
X53552Y132841D01*
X53501D01*
X53450Y132892D01*
X53399Y132841D01*
X53348D01*
X53399Y132790D01*
X53348Y132739D01*
X53399D01*
X53450Y132688D01*
X68690Y130047D02*
X68792Y130148D01*
X68893D01*
X68792Y130250D01*
X68893Y130352D01*
X68792D01*
X68690Y130453D01*
X68588Y130352D01*
X68487D01*
X68588Y130250D01*
X68487Y130148D01*
X68588D01*
X68690Y130047D01*
Y130148D02*
X68741Y130199D01*
X68792D01*
X68741Y130250D01*
X68792Y130301D01*
X68741D01*
X68690Y130352D01*
X68639Y130301D01*
X68588D01*
X68639Y130250D01*
X68588Y130199D01*
X68639D01*
X68690Y130148D01*
X66150Y130047D02*
X66252Y130148D01*
X66353D01*
X66252Y130250D01*
X66353Y130352D01*
X66252D01*
X66150Y130453D01*
X66048Y130352D01*
X65947D01*
X66048Y130250D01*
X65947Y130148D01*
X66048D01*
X66150Y130047D01*
Y130148D02*
X66201Y130199D01*
X66252D01*
X66201Y130250D01*
X66252Y130301D01*
X66201D01*
X66150Y130352D01*
X66099Y130301D01*
X66048D01*
X66099Y130250D01*
X66048Y130199D01*
X66099D01*
X66150Y130148D01*
X63610Y130047D02*
X63712Y130148D01*
X63813D01*
X63712Y130250D01*
X63813Y130352D01*
X63712D01*
X63610Y130453D01*
X63508Y130352D01*
X63407D01*
X63508Y130250D01*
X63407Y130148D01*
X63508D01*
X63610Y130047D01*
Y130148D02*
X63661Y130199D01*
X63712D01*
X63661Y130250D01*
X63712Y130301D01*
X63661D01*
X63610Y130352D01*
X63559Y130301D01*
X63508D01*
X63559Y130250D01*
X63508Y130199D01*
X63559D01*
X63610Y130148D01*
X61070Y130047D02*
X61172Y130148D01*
X61273D01*
X61172Y130250D01*
X61273Y130352D01*
X61172D01*
X61070Y130453D01*
X60968Y130352D01*
X60867D01*
X60968Y130250D01*
X60867Y130148D01*
X60968D01*
X61070Y130047D01*
Y130148D02*
X61121Y130199D01*
X61172D01*
X61121Y130250D01*
X61172Y130301D01*
X61121D01*
X61070Y130352D01*
X61019Y130301D01*
X60968D01*
X61019Y130250D01*
X60968Y130199D01*
X61019D01*
X61070Y130148D01*
X58530Y130047D02*
X58632Y130148D01*
X58733D01*
X58632Y130250D01*
X58733Y130352D01*
X58632D01*
X58530Y130453D01*
X58428Y130352D01*
X58327D01*
X58428Y130250D01*
X58327Y130148D01*
X58428D01*
X58530Y130047D01*
Y130148D02*
X58581Y130199D01*
X58632D01*
X58581Y130250D01*
X58632Y130301D01*
X58581D01*
X58530Y130352D01*
X58479Y130301D01*
X58428D01*
X58479Y130250D01*
X58428Y130199D01*
X58479D01*
X58530Y130148D01*
X53450Y130047D02*
X53552Y130148D01*
X53653D01*
X53552Y130250D01*
X53653Y130352D01*
X53552D01*
X53450Y130453D01*
X53348Y130352D01*
X53247D01*
X53348Y130250D01*
X53247Y130148D01*
X53348D01*
X53450Y130047D01*
Y130148D02*
X53501Y130199D01*
X53552D01*
X53501Y130250D01*
X53552Y130301D01*
X53501D01*
X53450Y130352D01*
X53399Y130301D01*
X53348D01*
X53399Y130250D01*
X53348Y130199D01*
X53399D01*
X53450Y130148D01*
X55990Y130047D02*
X56092Y130148D01*
X56193D01*
X56092Y130250D01*
X56193Y130352D01*
X56092D01*
X55990Y130453D01*
X55888Y130352D01*
X55787D01*
X55888Y130250D01*
X55787Y130148D01*
X55888D01*
X55990Y130047D01*
Y130148D02*
X56041Y130199D01*
X56092D01*
X56041Y130250D01*
X56092Y130301D01*
X56041D01*
X55990Y130352D01*
X55939Y130301D01*
X55888D01*
X55939Y130250D01*
X55888Y130199D01*
X55939D01*
X55990Y130148D01*
X71230Y130047D02*
X71332Y130148D01*
X71433D01*
X71332Y130250D01*
X71433Y130352D01*
X71332D01*
X71230Y130453D01*
X71128Y130352D01*
X71027D01*
X71128Y130250D01*
X71027Y130148D01*
X71128D01*
X71230Y130047D01*
Y130148D02*
X71281Y130199D01*
X71332D01*
X71281Y130250D01*
X71332Y130301D01*
X71281D01*
X71230Y130352D01*
X71179Y130301D01*
X71128D01*
X71179Y130250D01*
X71128Y130199D01*
X71179D01*
X71230Y130148D01*
Y132587D02*
X71332Y132688D01*
X71433D01*
X71332Y132790D01*
X71433Y132892D01*
X71332D01*
X71230Y132993D01*
X71128Y132892D01*
X71027D01*
X71128Y132790D01*
X71027Y132688D01*
X71128D01*
X71230Y132587D01*
Y132688D02*
X71281Y132739D01*
X71332D01*
X71281Y132790D01*
X71332Y132841D01*
X71281D01*
X71230Y132892D01*
X71179Y132841D01*
X71128D01*
X71179Y132790D01*
X71128Y132739D01*
X71179D01*
X71230Y132688D01*
X73770Y130047D02*
X73872Y130148D01*
X73973D01*
X73872Y130250D01*
X73973Y130352D01*
X73872D01*
X73770Y130453D01*
X73668Y130352D01*
X73567D01*
X73668Y130250D01*
X73567Y130148D01*
X73668D01*
X73770Y130047D01*
Y130148D02*
X73821Y130199D01*
X73872D01*
X73821Y130250D01*
X73872Y130301D01*
X73821D01*
X73770Y130352D01*
X73719Y130301D01*
X73668D01*
X73719Y130250D01*
X73668Y130199D01*
X73719D01*
X73770Y130148D01*
X76310Y130047D02*
X76412Y130148D01*
X76513D01*
X76412Y130250D01*
X76513Y130352D01*
X76412D01*
X76310Y130453D01*
X76208Y130352D01*
X76107D01*
X76208Y130250D01*
X76107Y130148D01*
X76208D01*
X76310Y130047D01*
Y130148D02*
X76361Y130199D01*
X76412D01*
X76361Y130250D01*
X76412Y130301D01*
X76361D01*
X76310Y130352D01*
X76259Y130301D01*
X76208D01*
X76259Y130250D01*
X76208Y130199D01*
X76259D01*
X76310Y130148D01*
X73770Y132587D02*
X73872Y132688D01*
X73973D01*
X73872Y132790D01*
X73973Y132892D01*
X73872D01*
X73770Y132993D01*
X73668Y132892D01*
X73567D01*
X73668Y132790D01*
X73567Y132688D01*
X73668D01*
X73770Y132587D01*
Y132688D02*
X73821Y132739D01*
X73872D01*
X73821Y132790D01*
X73872Y132841D01*
X73821D01*
X73770Y132892D01*
X73719Y132841D01*
X73668D01*
X73719Y132790D01*
X73668Y132739D01*
X73719D01*
X73770Y132688D01*
X76310Y132587D02*
X76412Y132688D01*
X76513D01*
X76412Y132790D01*
X76513Y132892D01*
X76412D01*
X76310Y132993D01*
X76208Y132892D01*
X76107D01*
X76208Y132790D01*
X76107Y132688D01*
X76208D01*
X76310Y132587D01*
Y132688D02*
X76361Y132739D01*
X76412D01*
X76361Y132790D01*
X76412Y132841D01*
X76361D01*
X76310Y132892D01*
X76259Y132841D01*
X76208D01*
X76259Y132790D01*
X76208Y132739D01*
X76259D01*
X76310Y132688D01*
X116000Y124797D02*
X115797Y125203D01*
X116203D01*
X116000Y124797D01*
Y124898D02*
X115898Y125102D01*
X116102D01*
X116000Y124898D01*
X118000Y124797D02*
X117797Y125203D01*
X118203D01*
X118000Y124797D01*
Y124898D02*
X117898Y125102D01*
X118102D01*
X118000Y124898D01*
X192637Y139097D02*
X192738Y139300D01*
X192637Y139503D01*
X192840Y139402D01*
X193043Y139503D01*
X192942Y139300D01*
X193043Y139097D01*
X192840Y139198D01*
X192637Y139097D01*
X192738Y139198D02*
X192789Y139300D01*
X192738Y139402D01*
X192840Y139351D01*
X192942Y139402D01*
X192891Y139300D01*
X192942Y139198D01*
X192840Y139249D01*
X192738Y139198D01*
X192637Y62497D02*
X192738Y62700D01*
X192637Y62903D01*
X192840Y62802D01*
X193043Y62903D01*
X192942Y62700D01*
X193043Y62497D01*
X192840Y62598D01*
X192637Y62497D01*
X192738Y62598D02*
X192789Y62700D01*
X192738Y62802D01*
X192840Y62751D01*
X192942Y62802D01*
X192891Y62700D01*
X192942Y62598D01*
X192840Y62649D01*
X192738Y62598D01*
X59957Y62497D02*
X60058Y62700D01*
X59957Y62903D01*
X60160Y62802D01*
X60363Y62903D01*
X60262Y62700D01*
X60363Y62497D01*
X60160Y62598D01*
X59957Y62497D01*
X60058Y62598D02*
X60109Y62700D01*
X60058Y62802D01*
X60160Y62751D01*
X60262Y62802D01*
X60211Y62700D01*
X60262Y62598D01*
X60160Y62649D01*
X60058Y62598D01*
X59957Y139097D02*
X60058Y139300D01*
X59957Y139503D01*
X60160Y139402D01*
X60363Y139503D01*
X60262Y139300D01*
X60363Y139097D01*
X60160Y139198D01*
X59957Y139097D01*
X60058Y139198D02*
X60109Y139300D01*
X60058Y139402D01*
X60160Y139351D01*
X60262Y139402D01*
X60211Y139300D01*
X60262Y139198D01*
X60160Y139249D01*
X60058Y139198D01*
X53798Y116348D02*
Y116247D01*
X54002D01*
Y116348D01*
X54103D01*
Y116552D01*
X54002D01*
Y116653D01*
X53798D01*
Y116552D01*
X53697D01*
Y116348D01*
X53798D01*
X53849Y116399D02*
Y116348D01*
X53951D01*
Y116399D01*
X54002D01*
Y116501D01*
X53951D01*
Y116552D01*
X53849D01*
Y116501D01*
X53798D01*
Y116399D01*
X53849D01*
X69997Y113597D02*
X70098D01*
X70200Y113698D01*
X70302Y113597D01*
X70403D01*
Y113698D01*
X70302Y113800D01*
X70403Y113902D01*
Y114003D01*
X70302D01*
X70200Y113902D01*
X70098Y114003D01*
X69997D01*
Y113902D01*
X70098Y113800D01*
X69997Y113698D01*
Y113597D01*
X70098Y113698D02*
X70149D01*
X70200Y113749D01*
X70251Y113698D01*
X70302D01*
Y113749D01*
X70251Y113800D01*
X70302Y113851D01*
Y113902D01*
X70251D01*
X70200Y113851D01*
X70149Y113902D01*
X70098D01*
Y113851D01*
X70149Y113800D01*
X70098Y113749D01*
Y113698D01*
X159398Y141198D02*
Y141097D01*
X159602D01*
Y141198D01*
X159703D01*
Y141402D01*
X159602D01*
Y141503D01*
X159398D01*
Y141402D01*
X159297D01*
Y141198D01*
X159398D01*
X159449Y141249D02*
Y141198D01*
X159551D01*
Y141249D01*
X159602D01*
Y141351D01*
X159551D01*
Y141402D01*
X159449D01*
Y141351D01*
X159398D01*
Y141249D01*
X159449D01*
X159398Y139865D02*
Y139763D01*
X159602D01*
Y139865D01*
X159703D01*
Y140068D01*
X159602D01*
Y140170D01*
X159398D01*
Y140068D01*
X159297D01*
Y139865D01*
X159398D01*
X159449Y139916D02*
Y139865D01*
X159551D01*
Y139916D01*
X159602D01*
Y140017D01*
X159551D01*
Y140068D01*
X159449D01*
Y140017D01*
X159398D01*
Y139916D01*
X159449D01*
X147598Y139865D02*
Y139763D01*
X147802D01*
Y139865D01*
X147903D01*
Y140068D01*
X147802D01*
Y140170D01*
X147598D01*
Y140068D01*
X147497D01*
Y139865D01*
X147598D01*
X147649Y139916D02*
Y139865D01*
X147751D01*
Y139916D01*
X147802D01*
Y140017D01*
X147751D01*
Y140068D01*
X147649D01*
Y140017D01*
X147598D01*
Y139916D01*
X147649D01*
X147598Y141198D02*
Y141097D01*
X147802D01*
Y141198D01*
X147903D01*
Y141402D01*
X147802D01*
Y141503D01*
X147598D01*
Y141402D01*
X147497D01*
Y141198D01*
X147598D01*
X147649Y141249D02*
Y141198D01*
X147751D01*
Y141249D01*
X147802D01*
Y141351D01*
X147751D01*
Y141402D01*
X147649D01*
Y141351D01*
X147598D01*
Y141249D01*
X147649D01*
X147598Y138532D02*
Y138430D01*
X147802D01*
Y138532D01*
X147903D01*
Y138735D01*
X147802D01*
Y138837D01*
X147598D01*
Y138735D01*
X147497D01*
Y138532D01*
X147598D01*
X147649Y138583D02*
Y138532D01*
X147751D01*
Y138583D01*
X147802D01*
Y138684D01*
X147751D01*
Y138735D01*
X147649D01*
Y138684D01*
X147598D01*
Y138583D01*
X147649D01*
X147598Y137198D02*
Y137097D01*
X147802D01*
Y137198D01*
X147903D01*
Y137402D01*
X147802D01*
Y137503D01*
X147598D01*
Y137402D01*
X147497D01*
Y137198D01*
X147598D01*
X147649Y137249D02*
Y137198D01*
X147751D01*
Y137249D01*
X147802D01*
Y137351D01*
X147751D01*
Y137402D01*
X147649D01*
Y137351D01*
X147598D01*
Y137249D01*
X147649D01*
X152048Y139865D02*
Y139763D01*
X152252D01*
Y139865D01*
X152353D01*
Y140068D01*
X152252D01*
Y140170D01*
X152048D01*
Y140068D01*
X151947D01*
Y139865D01*
X152048D01*
X152099Y139916D02*
Y139865D01*
X152201D01*
Y139916D01*
X152252D01*
Y140017D01*
X152201D01*
Y140068D01*
X152099D01*
Y140017D01*
X152048D01*
Y139916D01*
X152099D01*
X152048Y141198D02*
Y141097D01*
X152252D01*
Y141198D01*
X152353D01*
Y141402D01*
X152252D01*
Y141503D01*
X152048D01*
Y141402D01*
X151947D01*
Y141198D01*
X152048D01*
X152099Y141249D02*
Y141198D01*
X152201D01*
Y141249D01*
X152252D01*
Y141351D01*
X152201D01*
Y141402D01*
X152099D01*
Y141351D01*
X152048D01*
Y141249D01*
X152099D01*
X152048Y138532D02*
Y138430D01*
X152252D01*
Y138532D01*
X152353D01*
Y138735D01*
X152252D01*
Y138837D01*
X152048D01*
Y138735D01*
X151947D01*
Y138532D01*
X152048D01*
X152099Y138583D02*
Y138532D01*
X152201D01*
Y138583D01*
X152252D01*
Y138684D01*
X152201D01*
Y138735D01*
X152099D01*
Y138684D01*
X152048D01*
Y138583D01*
X152099D01*
X152048Y137198D02*
Y137097D01*
X152252D01*
Y137198D01*
X152353D01*
Y137402D01*
X152252D01*
Y137503D01*
X152048D01*
Y137402D01*
X151947D01*
Y137198D01*
X152048D01*
X152099Y137249D02*
Y137198D01*
X152201D01*
Y137249D01*
X152252D01*
Y137351D01*
X152201D01*
Y137402D01*
X152099D01*
Y137351D01*
X152048D01*
Y137249D01*
X152099D01*
X155748Y139915D02*
Y139813D01*
X155952D01*
Y139915D01*
X156053D01*
Y140118D01*
X155952D01*
Y140220D01*
X155748D01*
Y140118D01*
X155647D01*
Y139915D01*
X155748D01*
X155799Y139966D02*
Y139915D01*
X155901D01*
Y139966D01*
X155952D01*
Y140067D01*
X155901D01*
Y140118D01*
X155799D01*
Y140067D01*
X155748D01*
Y139966D01*
X155799D01*
X155748Y141248D02*
Y141147D01*
X155952D01*
Y141248D01*
X156053D01*
Y141452D01*
X155952D01*
Y141553D01*
X155748D01*
Y141452D01*
X155647D01*
Y141248D01*
X155748D01*
X155799Y141299D02*
Y141248D01*
X155901D01*
Y141299D01*
X155952D01*
Y141401D01*
X155901D01*
Y141452D01*
X155799D01*
Y141401D01*
X155748D01*
Y141299D01*
X155799D01*
X155748Y138582D02*
Y138480D01*
X155952D01*
Y138582D01*
X156053D01*
Y138785D01*
X155952D01*
Y138887D01*
X155748D01*
Y138785D01*
X155647D01*
Y138582D01*
X155748D01*
X155799Y138633D02*
Y138582D01*
X155901D01*
Y138633D01*
X155952D01*
Y138734D01*
X155901D01*
Y138785D01*
X155799D01*
Y138734D01*
X155748D01*
Y138633D01*
X155799D01*
X155748Y137248D02*
Y137147D01*
X155952D01*
Y137248D01*
X156053D01*
Y137452D01*
X155952D01*
Y137553D01*
X155748D01*
Y137452D01*
X155647D01*
Y137248D01*
X155748D01*
X155799Y137299D02*
Y137248D01*
X155901D01*
Y137299D01*
X155952D01*
Y137401D01*
X155901D01*
Y137452D01*
X155799D01*
Y137401D01*
X155748D01*
Y137299D01*
X155799D01*
X182748Y134698D02*
Y134597D01*
X182952D01*
Y134698D01*
X183053D01*
Y134902D01*
X182952D01*
Y135003D01*
X182748D01*
Y134902D01*
X182647D01*
Y134698D01*
X182748D01*
X182799Y134749D02*
Y134698D01*
X182901D01*
Y134749D01*
X182952D01*
Y134851D01*
X182901D01*
Y134902D01*
X182799D01*
Y134851D01*
X182748D01*
Y134749D01*
X182799D01*
X182748Y136032D02*
Y135930D01*
X182952D01*
Y136032D01*
X183053D01*
Y136235D01*
X182952D01*
Y136337D01*
X182748D01*
Y136235D01*
X182647D01*
Y136032D01*
X182748D01*
X182799Y136083D02*
Y136032D01*
X182901D01*
Y136083D01*
X182952D01*
Y136184D01*
X182901D01*
Y136235D01*
X182799D01*
Y136184D01*
X182748D01*
Y136083D01*
X182799D01*
X147698Y83748D02*
Y83647D01*
X147902D01*
Y83748D01*
X148003D01*
Y83952D01*
X147902D01*
Y84053D01*
X147698D01*
Y83952D01*
X147597D01*
Y83748D01*
X147698D01*
X147749Y83799D02*
Y83748D01*
X147851D01*
Y83799D01*
X147902D01*
Y83901D01*
X147851D01*
Y83952D01*
X147749D01*
Y83901D01*
X147698D01*
Y83799D01*
X147749D01*
X143243Y83348D02*
Y83247D01*
X143447D01*
Y83348D01*
X143548D01*
Y83552D01*
X143447D01*
Y83653D01*
X143243D01*
Y83552D01*
X143142D01*
Y83348D01*
X143243D01*
X143294Y83399D02*
Y83348D01*
X143396D01*
Y83399D01*
X143447D01*
Y83501D01*
X143396D01*
Y83552D01*
X143294D01*
Y83501D01*
X143243D01*
Y83399D01*
X143294D01*
X146648Y85498D02*
Y85397D01*
X146852D01*
Y85498D01*
X146953D01*
Y85702D01*
X146852D01*
Y85803D01*
X146648D01*
Y85702D01*
X146547D01*
Y85498D01*
X146648D01*
X146699Y85549D02*
Y85498D01*
X146801D01*
Y85549D01*
X146852D01*
Y85651D01*
X146801D01*
Y85702D01*
X146699D01*
Y85651D01*
X146648D01*
Y85549D01*
X146699D01*
X145748Y84648D02*
Y84547D01*
X145952D01*
Y84648D01*
X146053D01*
Y84852D01*
X145952D01*
Y84953D01*
X145748D01*
Y84852D01*
X145647D01*
Y84648D01*
X145748D01*
X145799Y84699D02*
Y84648D01*
X145901D01*
Y84699D01*
X145952D01*
Y84801D01*
X145901D01*
Y84852D01*
X145799D01*
Y84801D01*
X145748D01*
Y84699D01*
X145799D01*
X137498Y73348D02*
Y73247D01*
X137702D01*
Y73348D01*
X137803D01*
Y73552D01*
X137702D01*
Y73653D01*
X137498D01*
Y73552D01*
X137397D01*
Y73348D01*
X137498D01*
X137549Y73399D02*
Y73348D01*
X137651D01*
Y73399D01*
X137702D01*
Y73501D01*
X137651D01*
Y73552D01*
X137549D01*
Y73501D01*
X137498D01*
Y73399D01*
X137549D01*
X121298Y83148D02*
Y83047D01*
X121502D01*
Y83148D01*
X121603D01*
Y83352D01*
X121502D01*
Y83453D01*
X121298D01*
Y83352D01*
X121197D01*
Y83148D01*
X121298D01*
X121349Y83199D02*
Y83148D01*
X121451D01*
Y83199D01*
X121502D01*
Y83301D01*
X121451D01*
Y83352D01*
X121349D01*
Y83301D01*
X121298D01*
Y83199D01*
X121349D01*
X117598Y129798D02*
Y129697D01*
X117802D01*
Y129798D01*
X117903D01*
Y130002D01*
X117802D01*
Y130103D01*
X117598D01*
Y130002D01*
X117497D01*
Y129798D01*
X117598D01*
X117649Y129849D02*
Y129798D01*
X117751D01*
Y129849D01*
X117802D01*
Y129951D01*
X117751D01*
Y130002D01*
X117649D01*
Y129951D01*
X117598D01*
Y129849D01*
X117649D01*
X111298Y133398D02*
Y133297D01*
X111502D01*
Y133398D01*
X111603D01*
Y133602D01*
X111502D01*
Y133703D01*
X111298D01*
Y133602D01*
X111197D01*
Y133398D01*
X111298D01*
X111349Y133449D02*
Y133398D01*
X111451D01*
Y133449D01*
X111502D01*
Y133551D01*
X111451D01*
Y133602D01*
X111349D01*
Y133551D01*
X111298D01*
Y133449D01*
X111349D01*
X111298Y131298D02*
Y131197D01*
X111502D01*
Y131298D01*
X111603D01*
Y131502D01*
X111502D01*
Y131603D01*
X111298D01*
Y131502D01*
X111197D01*
Y131298D01*
X111298D01*
X111349Y131349D02*
Y131298D01*
X111451D01*
Y131349D01*
X111502D01*
Y131451D01*
X111451D01*
Y131502D01*
X111349D01*
Y131451D01*
X111298D01*
Y131349D01*
X111349D01*
X113448Y129798D02*
Y129697D01*
X113652D01*
Y129798D01*
X113753D01*
Y130002D01*
X113652D01*
Y130103D01*
X113448D01*
Y130002D01*
X113347D01*
Y129798D01*
X113448D01*
X113499Y129849D02*
Y129798D01*
X113601D01*
Y129849D01*
X113652D01*
Y129951D01*
X113601D01*
Y130002D01*
X113499D01*
Y129951D01*
X113448D01*
Y129849D01*
X113499D01*
X196248Y53568D02*
Y53467D01*
X196452D01*
Y53568D01*
X196553D01*
Y53772D01*
X196452D01*
Y53873D01*
X196248D01*
Y53772D01*
X196147D01*
Y53568D01*
X196248D01*
X196299Y53619D02*
Y53568D01*
X196401D01*
Y53619D01*
X196452D01*
Y53721D01*
X196401D01*
Y53772D01*
X196299D01*
Y53721D01*
X196248D01*
Y53619D01*
X196299D01*
X199898Y56848D02*
Y56747D01*
X200102D01*
Y56848D01*
X200203D01*
Y57052D01*
X200102D01*
Y57153D01*
X199898D01*
Y57052D01*
X199797D01*
Y56848D01*
X199898D01*
X199949Y56899D02*
Y56848D01*
X200051D01*
Y56899D01*
X200102D01*
Y57001D01*
X200051D01*
Y57052D01*
X199949D01*
Y57001D01*
X199898D01*
Y56899D01*
X199949D01*
X62748Y76098D02*
Y75997D01*
X62952D01*
Y76098D01*
X63053D01*
Y76302D01*
X62952D01*
Y76403D01*
X62748D01*
Y76302D01*
X62647D01*
Y76098D01*
X62748D01*
X62799Y76149D02*
Y76098D01*
X62901D01*
Y76149D01*
X62952D01*
Y76251D01*
X62901D01*
Y76302D01*
X62799D01*
Y76251D01*
X62748D01*
Y76149D01*
X62799D01*
X163458Y144748D02*
Y144647D01*
X163662D01*
Y144748D01*
X163763D01*
Y144952D01*
X163662D01*
Y145053D01*
X163458D01*
Y144952D01*
X163357D01*
Y144748D01*
X163458D01*
X163509Y144799D02*
Y144748D01*
X163611D01*
Y144799D01*
X163662D01*
Y144901D01*
X163611D01*
Y144952D01*
X163509D01*
Y144901D01*
X163458D01*
Y144799D01*
X163509D01*
X187098Y146648D02*
Y146547D01*
X187302D01*
Y146648D01*
X187403D01*
Y146852D01*
X187302D01*
Y146953D01*
X187098D01*
Y146852D01*
X186997D01*
Y146648D01*
X187098D01*
X187149Y146699D02*
Y146648D01*
X187251D01*
Y146699D01*
X187302D01*
Y146801D01*
X187251D01*
Y146852D01*
X187149D01*
Y146801D01*
X187098D01*
Y146699D01*
X187149D01*
X188698Y120448D02*
Y120347D01*
X188902D01*
Y120448D01*
X189003D01*
Y120652D01*
X188902D01*
Y120753D01*
X188698D01*
Y120652D01*
X188597D01*
Y120448D01*
X188698D01*
X188749Y120499D02*
Y120448D01*
X188851D01*
Y120499D01*
X188902D01*
Y120601D01*
X188851D01*
Y120652D01*
X188749D01*
Y120601D01*
X188698D01*
Y120499D01*
X188749D01*
X187998Y114598D02*
Y114497D01*
X188202D01*
Y114598D01*
X188303D01*
Y114802D01*
X188202D01*
Y114903D01*
X187998D01*
Y114802D01*
X187897D01*
Y114598D01*
X187998D01*
X188049Y114649D02*
Y114598D01*
X188151D01*
Y114649D01*
X188202D01*
Y114751D01*
X188151D01*
Y114802D01*
X188049D01*
Y114751D01*
X187998D01*
Y114649D01*
X188049D01*
X168798Y71148D02*
Y71047D01*
X169002D01*
Y71148D01*
X169103D01*
Y71352D01*
X169002D01*
Y71453D01*
X168798D01*
Y71352D01*
X168697D01*
Y71148D01*
X168798D01*
X168849Y71199D02*
Y71148D01*
X168951D01*
Y71199D01*
X169002D01*
Y71301D01*
X168951D01*
Y71352D01*
X168849D01*
Y71301D01*
X168798D01*
Y71199D01*
X168849D01*
X189148Y56348D02*
Y56247D01*
X189352D01*
Y56348D01*
X189453D01*
Y56552D01*
X189352D01*
Y56653D01*
X189148D01*
Y56552D01*
X189047D01*
Y56348D01*
X189148D01*
X189199Y56399D02*
Y56348D01*
X189301D01*
Y56399D01*
X189352D01*
Y56501D01*
X189301D01*
Y56552D01*
X189199D01*
Y56501D01*
X189148D01*
Y56399D01*
X189199D01*
X142798Y68998D02*
Y68897D01*
X143002D01*
Y68998D01*
X143103D01*
Y69202D01*
X143002D01*
Y69303D01*
X142798D01*
Y69202D01*
X142697D01*
Y68998D01*
X142798D01*
X142849Y69049D02*
Y68998D01*
X142951D01*
Y69049D01*
X143002D01*
Y69151D01*
X142951D01*
Y69202D01*
X142849D01*
Y69151D01*
X142798D01*
Y69049D01*
X142849D01*
X144598Y63948D02*
Y63847D01*
X144802D01*
Y63948D01*
X144903D01*
Y64152D01*
X144802D01*
Y64253D01*
X144598D01*
Y64152D01*
X144497D01*
Y63948D01*
X144598D01*
X144649Y63999D02*
Y63948D01*
X144751D01*
Y63999D01*
X144802D01*
Y64101D01*
X144751D01*
Y64152D01*
X144649D01*
Y64101D01*
X144598D01*
Y63999D01*
X144649D01*
X153548Y79748D02*
Y79647D01*
X153752D01*
Y79748D01*
X153853D01*
Y79952D01*
X153752D01*
Y80053D01*
X153548D01*
Y79952D01*
X153447D01*
Y79748D01*
X153548D01*
X153599Y79799D02*
Y79748D01*
X153701D01*
Y79799D01*
X153752D01*
Y79901D01*
X153701D01*
Y79952D01*
X153599D01*
Y79901D01*
X153548D01*
Y79799D01*
X153599D01*
X144848Y83748D02*
Y83647D01*
X145052D01*
Y83748D01*
X145153D01*
Y83952D01*
X145052D01*
Y84053D01*
X144848D01*
Y83952D01*
X144747D01*
Y83748D01*
X144848D01*
X144899Y83799D02*
Y83748D01*
X145001D01*
Y83799D01*
X145052D01*
Y83901D01*
X145001D01*
Y83952D01*
X144899D01*
Y83901D01*
X144848D01*
Y83799D01*
X144899D01*
X144848Y82598D02*
Y82497D01*
X145052D01*
Y82598D01*
X145153D01*
Y82802D01*
X145052D01*
Y82903D01*
X144848D01*
Y82802D01*
X144747D01*
Y82598D01*
X144848D01*
X144899Y82649D02*
Y82598D01*
X145001D01*
Y82649D01*
X145052D01*
Y82751D01*
X145001D01*
Y82802D01*
X144899D01*
Y82751D01*
X144848D01*
Y82649D01*
X144899D01*
X130248Y93814D02*
Y93713D01*
X130452D01*
Y93814D01*
X130553D01*
Y94018D01*
X130452D01*
Y94119D01*
X130248D01*
Y94018D01*
X130147D01*
Y93814D01*
X130248D01*
X130299Y93865D02*
Y93814D01*
X130401D01*
Y93865D01*
X130452D01*
Y93967D01*
X130401D01*
Y94018D01*
X130299D01*
Y93967D01*
X130248D01*
Y93865D01*
X130299D01*
X133248Y89248D02*
Y89147D01*
X133452D01*
Y89248D01*
X133553D01*
Y89452D01*
X133452D01*
Y89553D01*
X133248D01*
Y89452D01*
X133147D01*
Y89248D01*
X133248D01*
X133299Y89299D02*
Y89248D01*
X133401D01*
Y89299D01*
X133452D01*
Y89401D01*
X133401D01*
Y89452D01*
X133299D01*
Y89401D01*
X133248D01*
Y89299D01*
X133299D01*
X125198Y91464D02*
Y91363D01*
X125402D01*
Y91464D01*
X125503D01*
Y91668D01*
X125402D01*
Y91769D01*
X125198D01*
Y91668D01*
X125097D01*
Y91464D01*
X125198D01*
X125249Y91515D02*
Y91464D01*
X125351D01*
Y91515D01*
X125402D01*
Y91617D01*
X125351D01*
Y91668D01*
X125249D01*
Y91617D01*
X125198D01*
Y91515D01*
X125249D01*
X126798Y106898D02*
Y106797D01*
X127002D01*
Y106898D01*
X127103D01*
Y107102D01*
X127002D01*
Y107203D01*
X126798D01*
Y107102D01*
X126697D01*
Y106898D01*
X126798D01*
X126849Y106949D02*
Y106898D01*
X126951D01*
Y106949D01*
X127002D01*
Y107051D01*
X126951D01*
Y107102D01*
X126849D01*
Y107051D01*
X126798D01*
Y106949D01*
X126849D01*
X120748Y109148D02*
Y109047D01*
X120952D01*
Y109148D01*
X121053D01*
Y109352D01*
X120952D01*
Y109453D01*
X120748D01*
Y109352D01*
X120647D01*
Y109148D01*
X120748D01*
X120799Y109199D02*
Y109148D01*
X120901D01*
Y109199D01*
X120952D01*
Y109301D01*
X120901D01*
Y109352D01*
X120799D01*
Y109301D01*
X120748D01*
Y109199D01*
X120799D01*
X112148Y110418D02*
Y110317D01*
X112352D01*
Y110418D01*
X112453D01*
Y110622D01*
X112352D01*
Y110723D01*
X112148D01*
Y110622D01*
X112047D01*
Y110418D01*
X112148D01*
X112199Y110469D02*
Y110418D01*
X112301D01*
Y110469D01*
X112352D01*
Y110571D01*
X112301D01*
Y110622D01*
X112199D01*
Y110571D01*
X112148D01*
Y110469D01*
X112199D01*
X93098Y142148D02*
Y142047D01*
X93302D01*
Y142148D01*
X93403D01*
Y142352D01*
X93302D01*
Y142453D01*
X93098D01*
Y142352D01*
X92997D01*
Y142148D01*
X93098D01*
X93149Y142199D02*
Y142148D01*
X93251D01*
Y142199D01*
X93302D01*
Y142301D01*
X93251D01*
Y142352D01*
X93149D01*
Y142301D01*
X93098D01*
Y142199D01*
X93149D01*
X86938Y144148D02*
Y144047D01*
X87142D01*
Y144148D01*
X87243D01*
Y144352D01*
X87142D01*
Y144453D01*
X86938D01*
Y144352D01*
X86837D01*
Y144148D01*
X86938D01*
X86989Y144199D02*
Y144148D01*
X87091D01*
Y144199D01*
X87142D01*
Y144301D01*
X87091D01*
Y144352D01*
X86989D01*
Y144301D01*
X86938D01*
Y144199D01*
X86989D01*
X99448Y145198D02*
Y145097D01*
X99652D01*
Y145198D01*
X99753D01*
Y145402D01*
X99652D01*
Y145503D01*
X99448D01*
Y145402D01*
X99347D01*
Y145198D01*
X99448D01*
X99499Y145249D02*
Y145198D01*
X99601D01*
Y145249D01*
X99652D01*
Y145351D01*
X99601D01*
Y145402D01*
X99499D01*
Y145351D01*
X99448D01*
Y145249D01*
X99499D01*
X110798Y143948D02*
Y143847D01*
X111002D01*
Y143948D01*
X111103D01*
Y144152D01*
X111002D01*
Y144253D01*
X110798D01*
Y144152D01*
X110697D01*
Y143948D01*
X110798D01*
X110849Y143999D02*
Y143948D01*
X110951D01*
Y143999D01*
X111002D01*
Y144101D01*
X110951D01*
Y144152D01*
X110849D01*
Y144101D01*
X110798D01*
Y143999D01*
X110849D01*
X182626Y111898D02*
Y111797D01*
X182829D01*
Y111898D01*
X182930D01*
Y112102D01*
X182829D01*
Y112203D01*
X182626D01*
Y112102D01*
X182524D01*
Y111898D01*
X182626D01*
X182676Y111949D02*
Y111898D01*
X182778D01*
Y111949D01*
X182829D01*
Y112051D01*
X182778D01*
Y112102D01*
X182676D01*
Y112051D01*
X182626D01*
Y111949D01*
X182676D01*
X176648Y125048D02*
Y124947D01*
X176852D01*
Y125048D01*
X176953D01*
Y125252D01*
X176852D01*
Y125353D01*
X176648D01*
Y125252D01*
X176547D01*
Y125048D01*
X176648D01*
X176699Y125099D02*
Y125048D01*
X176801D01*
Y125099D01*
X176852D01*
Y125201D01*
X176801D01*
Y125252D01*
X176699D01*
Y125201D01*
X176648D01*
Y125099D01*
X176699D01*
X179648Y116498D02*
Y116397D01*
X179852D01*
Y116498D01*
X179953D01*
Y116702D01*
X179852D01*
Y116803D01*
X179648D01*
Y116702D01*
X179547D01*
Y116498D01*
X179648D01*
X179699Y116549D02*
Y116498D01*
X179801D01*
Y116549D01*
X179852D01*
Y116651D01*
X179801D01*
Y116702D01*
X179699D01*
Y116651D01*
X179648D01*
Y116549D01*
X179699D01*
X127948Y76648D02*
Y76547D01*
X128152D01*
Y76648D01*
X128253D01*
Y76852D01*
X128152D01*
Y76953D01*
X127948D01*
Y76852D01*
X127847D01*
Y76648D01*
X127948D01*
X127999Y76699D02*
Y76648D01*
X128101D01*
Y76699D01*
X128152D01*
Y76801D01*
X128101D01*
Y76852D01*
X127999D01*
Y76801D01*
X127948D01*
Y76699D01*
X127999D01*
X128548Y54648D02*
Y54547D01*
X128752D01*
Y54648D01*
X128853D01*
Y54852D01*
X128752D01*
Y54953D01*
X128548D01*
Y54852D01*
X128447D01*
Y54648D01*
X128548D01*
X128599Y54699D02*
Y54648D01*
X128701D01*
Y54699D01*
X128752D01*
Y54801D01*
X128701D01*
Y54852D01*
X128599D01*
Y54801D01*
X128548D01*
Y54699D01*
X128599D01*
X128548Y66398D02*
Y66297D01*
X128752D01*
Y66398D01*
X128853D01*
Y66602D01*
X128752D01*
Y66703D01*
X128548D01*
Y66602D01*
X128447D01*
Y66398D01*
X128548D01*
X128599Y66449D02*
Y66398D01*
X128701D01*
Y66449D01*
X128752D01*
Y66551D01*
X128701D01*
Y66602D01*
X128599D01*
Y66551D01*
X128548D01*
Y66449D01*
X128599D01*
X124165Y83148D02*
Y83047D01*
X124368D01*
Y83148D01*
X124470D01*
Y83352D01*
X124368D01*
Y83453D01*
X124165D01*
Y83352D01*
X124063D01*
Y83148D01*
X124165D01*
X124216Y83199D02*
Y83148D01*
X124317D01*
Y83199D01*
X124368D01*
Y83301D01*
X124317D01*
Y83352D01*
X124216D01*
Y83301D01*
X124165D01*
Y83199D01*
X124216D01*
X122732Y83148D02*
Y83047D01*
X122935D01*
Y83148D01*
X123037D01*
Y83352D01*
X122935D01*
Y83453D01*
X122732D01*
Y83352D01*
X122630D01*
Y83148D01*
X122732D01*
X122783Y83199D02*
Y83148D01*
X122884D01*
Y83199D01*
X122935D01*
Y83301D01*
X122884D01*
Y83352D01*
X122783D01*
Y83301D01*
X122732D01*
Y83199D01*
X122783D01*
X125598Y83148D02*
Y83047D01*
X125802D01*
Y83148D01*
X125903D01*
Y83352D01*
X125802D01*
Y83453D01*
X125598D01*
Y83352D01*
X125497D01*
Y83148D01*
X125598D01*
X125649Y83199D02*
Y83148D01*
X125751D01*
Y83199D01*
X125802D01*
Y83301D01*
X125751D01*
Y83352D01*
X125649D01*
Y83301D01*
X125598D01*
Y83199D01*
X125649D01*
X149898Y87310D02*
Y87209D01*
X150102D01*
Y87310D01*
X150203D01*
Y87514D01*
X150102D01*
Y87615D01*
X149898D01*
Y87514D01*
X149797D01*
Y87310D01*
X149898D01*
X149949Y87361D02*
Y87310D01*
X150051D01*
Y87361D01*
X150102D01*
Y87463D01*
X150051D01*
Y87514D01*
X149949D01*
Y87463D01*
X149898D01*
Y87361D01*
X149949D01*
X149898Y88657D02*
Y88556D01*
X150102D01*
Y88657D01*
X150203D01*
Y88861D01*
X150102D01*
Y88962D01*
X149898D01*
Y88861D01*
X149797D01*
Y88657D01*
X149898D01*
X149949Y88708D02*
Y88657D01*
X150051D01*
Y88708D01*
X150102D01*
Y88810D01*
X150051D01*
Y88861D01*
X149949D01*
Y88810D01*
X149898D01*
Y88708D01*
X149949D01*
X149898Y90004D02*
Y89903D01*
X150102D01*
Y90004D01*
X150203D01*
Y90208D01*
X150102D01*
Y90309D01*
X149898D01*
Y90208D01*
X149797D01*
Y90004D01*
X149898D01*
X149949Y90055D02*
Y90004D01*
X150051D01*
Y90055D01*
X150102D01*
Y90157D01*
X150051D01*
Y90208D01*
X149949D01*
Y90157D01*
X149898D01*
Y90055D01*
X149949D01*
X149898Y91351D02*
Y91250D01*
X150102D01*
Y91351D01*
X150203D01*
Y91555D01*
X150102D01*
Y91656D01*
X149898D01*
Y91555D01*
X149797D01*
Y91351D01*
X149898D01*
X149949Y91402D02*
Y91351D01*
X150051D01*
Y91402D01*
X150102D01*
Y91504D01*
X150051D01*
Y91555D01*
X149949D01*
Y91504D01*
X149898D01*
Y91402D01*
X149949D01*
X149898Y92698D02*
Y92597D01*
X150102D01*
Y92698D01*
X150203D01*
Y92902D01*
X150102D01*
Y93003D01*
X149898D01*
Y92902D01*
X149797D01*
Y92698D01*
X149898D01*
X149949Y92749D02*
Y92698D01*
X150051D01*
Y92749D01*
X150102D01*
Y92851D01*
X150051D01*
Y92902D01*
X149949D01*
Y92851D01*
X149898D01*
Y92749D01*
X149949D01*
X137498Y74661D02*
Y74559D01*
X137702D01*
Y74661D01*
X137803D01*
Y74864D01*
X137702D01*
Y74966D01*
X137498D01*
Y74864D01*
X137397D01*
Y74661D01*
X137498D01*
X137549Y74712D02*
Y74661D01*
X137651D01*
Y74712D01*
X137702D01*
Y74813D01*
X137651D01*
Y74864D01*
X137549D01*
Y74813D01*
X137498D01*
Y74712D01*
X137549D01*
X137498Y75973D02*
Y75872D01*
X137702D01*
Y75973D01*
X137803D01*
Y76177D01*
X137702D01*
Y76278D01*
X137498D01*
Y76177D01*
X137397D01*
Y75973D01*
X137498D01*
X137549Y76024D02*
Y75973D01*
X137651D01*
Y76024D01*
X137702D01*
Y76126D01*
X137651D01*
Y76177D01*
X137549D01*
Y76126D01*
X137498D01*
Y76024D01*
X137549D01*
X137498Y77286D02*
Y77184D01*
X137702D01*
Y77286D01*
X137803D01*
Y77489D01*
X137702D01*
Y77591D01*
X137498D01*
Y77489D01*
X137397D01*
Y77286D01*
X137498D01*
X137549Y77337D02*
Y77286D01*
X137651D01*
Y77337D01*
X137702D01*
Y77438D01*
X137651D01*
Y77489D01*
X137549D01*
Y77438D01*
X137498D01*
Y77337D01*
X137549D01*
X137498Y78598D02*
Y78497D01*
X137702D01*
Y78598D01*
X137803D01*
Y78802D01*
X137702D01*
Y78903D01*
X137498D01*
Y78802D01*
X137397D01*
Y78598D01*
X137498D01*
X137549Y78649D02*
Y78598D01*
X137651D01*
Y78649D01*
X137702D01*
Y78751D01*
X137651D01*
Y78802D01*
X137549D01*
Y78751D01*
X137498D01*
Y78649D01*
X137549D01*
X182398Y63348D02*
Y63247D01*
X182602D01*
Y63348D01*
X182703D01*
Y63552D01*
X182602D01*
Y63653D01*
X182398D01*
Y63552D01*
X182297D01*
Y63348D01*
X182398D01*
X182449Y63399D02*
Y63348D01*
X182551D01*
Y63399D01*
X182602D01*
Y63501D01*
X182551D01*
Y63552D01*
X182449D01*
Y63501D01*
X182398D01*
Y63399D01*
X182449D01*
X162148Y88398D02*
Y88297D01*
X162352D01*
Y88398D01*
X162453D01*
Y88602D01*
X162352D01*
Y88703D01*
X162148D01*
Y88602D01*
X162047D01*
Y88398D01*
X162148D01*
X162199Y88449D02*
Y88398D01*
X162301D01*
Y88449D01*
X162352D01*
Y88551D01*
X162301D01*
Y88602D01*
X162199D01*
Y88551D01*
X162148D01*
Y88449D01*
X162199D01*
X165048Y77248D02*
Y77147D01*
X165252D01*
Y77248D01*
X165353D01*
Y77452D01*
X165252D01*
Y77553D01*
X165048D01*
Y77452D01*
X164947D01*
Y77248D01*
X165048D01*
X165099Y77299D02*
Y77248D01*
X165201D01*
Y77299D01*
X165252D01*
Y77401D01*
X165201D01*
Y77452D01*
X165099D01*
Y77401D01*
X165048D01*
Y77299D01*
X165099D01*
X182398Y77248D02*
Y77147D01*
X182602D01*
Y77248D01*
X182703D01*
Y77452D01*
X182602D01*
Y77553D01*
X182398D01*
Y77452D01*
X182297D01*
Y77248D01*
X182398D01*
X182449Y77299D02*
Y77248D01*
X182551D01*
Y77299D01*
X182602D01*
Y77401D01*
X182551D01*
Y77452D01*
X182449D01*
Y77401D01*
X182398D01*
Y77299D01*
X182449D01*
X182398Y88298D02*
Y88197D01*
X182602D01*
Y88298D01*
X182703D01*
Y88502D01*
X182602D01*
Y88603D01*
X182398D01*
Y88502D01*
X182297D01*
Y88298D01*
X182398D01*
X182449Y88349D02*
Y88298D01*
X182551D01*
Y88349D01*
X182602D01*
Y88451D01*
X182551D01*
Y88502D01*
X182449D01*
Y88451D01*
X182398D01*
Y88349D01*
X182449D01*
X173648Y88298D02*
Y88197D01*
X173852D01*
Y88298D01*
X173953D01*
Y88502D01*
X173852D01*
Y88603D01*
X173648D01*
Y88502D01*
X173547D01*
Y88298D01*
X173648D01*
X173699Y88349D02*
Y88298D01*
X173801D01*
Y88349D01*
X173852D01*
Y88451D01*
X173801D01*
Y88502D01*
X173699D01*
Y88451D01*
X173648D01*
Y88349D01*
X173699D01*
X173648Y101898D02*
Y101797D01*
X173852D01*
Y101898D01*
X173953D01*
Y102102D01*
X173852D01*
Y102203D01*
X173648D01*
Y102102D01*
X173547D01*
Y101898D01*
X173648D01*
X173699Y101949D02*
Y101898D01*
X173801D01*
Y101949D01*
X173852D01*
Y102051D01*
X173801D01*
Y102102D01*
X173699D01*
Y102051D01*
X173648D01*
Y101949D01*
X173699D01*
X186598Y107448D02*
Y107347D01*
X186802D01*
Y107448D01*
X186903D01*
Y107652D01*
X186802D01*
Y107753D01*
X186598D01*
Y107652D01*
X186497D01*
Y107448D01*
X186598D01*
X186649Y107499D02*
Y107448D01*
X186751D01*
Y107499D01*
X186802D01*
Y107601D01*
X186751D01*
Y107652D01*
X186649D01*
Y107601D01*
X186598D01*
Y107499D01*
X186649D01*
X154598Y119518D02*
Y119417D01*
X154802D01*
Y119518D01*
X154903D01*
Y119722D01*
X154802D01*
Y119823D01*
X154598D01*
Y119722D01*
X154497D01*
Y119518D01*
X154598D01*
X154649Y119569D02*
Y119518D01*
X154751D01*
Y119569D01*
X154802D01*
Y119671D01*
X154751D01*
Y119722D01*
X154649D01*
Y119671D01*
X154598D01*
Y119569D01*
X154649D01*
X144198Y131848D02*
Y131747D01*
X144402D01*
Y131848D01*
X144503D01*
Y132052D01*
X144402D01*
Y132153D01*
X144198D01*
Y132052D01*
X144097D01*
Y131848D01*
X144198D01*
X144249Y131899D02*
Y131848D01*
X144351D01*
Y131899D01*
X144402D01*
Y132001D01*
X144351D01*
Y132052D01*
X144249D01*
Y132001D01*
X144198D01*
Y131899D01*
X144249D01*
X187548Y130348D02*
Y130247D01*
X187752D01*
Y130348D01*
X187853D01*
Y130552D01*
X187752D01*
Y130653D01*
X187548D01*
Y130552D01*
X187447D01*
Y130348D01*
X187548D01*
X187599Y130399D02*
Y130348D01*
X187701D01*
Y130399D01*
X187752D01*
Y130501D01*
X187701D01*
Y130552D01*
X187599D01*
Y130501D01*
X187548D01*
Y130399D01*
X187599D01*
X144198Y130548D02*
Y130447D01*
X144402D01*
Y130548D01*
X144503D01*
Y130752D01*
X144402D01*
Y130853D01*
X144198D01*
Y130752D01*
X144097D01*
Y130548D01*
X144198D01*
X144249Y130599D02*
Y130548D01*
X144351D01*
Y130599D01*
X144402D01*
Y130701D01*
X144351D01*
Y130752D01*
X144249D01*
Y130701D01*
X144198D01*
Y130599D01*
X144249D01*
X182748Y138698D02*
Y138597D01*
X182952D01*
Y138698D01*
X183053D01*
Y138902D01*
X182952D01*
Y139003D01*
X182748D01*
Y138902D01*
X182647D01*
Y138698D01*
X182748D01*
X182799Y138749D02*
Y138698D01*
X182901D01*
Y138749D01*
X182952D01*
Y138851D01*
X182901D01*
Y138902D01*
X182799D01*
Y138851D01*
X182748D01*
Y138749D01*
X182799D01*
X182748Y137365D02*
Y137263D01*
X182952D01*
Y137365D01*
X183053D01*
Y137568D01*
X182952D01*
Y137670D01*
X182748D01*
Y137568D01*
X182647D01*
Y137365D01*
X182748D01*
X182799Y137416D02*
Y137365D01*
X182901D01*
Y137416D01*
X182952D01*
Y137517D01*
X182901D01*
Y137568D01*
X182799D01*
Y137517D01*
X182748D01*
Y137416D01*
X182799D01*
X180398Y134698D02*
Y134597D01*
X180602D01*
Y134698D01*
X180703D01*
Y134902D01*
X180602D01*
Y135003D01*
X180398D01*
Y134902D01*
X180297D01*
Y134698D01*
X180398D01*
X180449Y134749D02*
Y134698D01*
X180551D01*
Y134749D01*
X180602D01*
Y134851D01*
X180551D01*
Y134902D01*
X180449D01*
Y134851D01*
X180398D01*
Y134749D01*
X180449D01*
X199898Y144648D02*
Y144547D01*
X200102D01*
Y144648D01*
X200203D01*
Y144852D01*
X200102D01*
Y144953D01*
X199898D01*
Y144852D01*
X199797D01*
Y144648D01*
X199898D01*
X199949Y144699D02*
Y144648D01*
X200051D01*
Y144699D01*
X200102D01*
Y144801D01*
X200051D01*
Y144852D01*
X199949D01*
Y144801D01*
X199898D01*
Y144699D01*
X199949D01*
X71128Y139648D02*
Y139547D01*
X71332D01*
Y139648D01*
X71433D01*
Y139852D01*
X71332D01*
Y139953D01*
X71128D01*
Y139852D01*
X71027D01*
Y139648D01*
X71128D01*
X71179Y139699D02*
Y139648D01*
X71281D01*
Y139699D01*
X71332D01*
Y139801D01*
X71281D01*
Y139852D01*
X71179D01*
Y139801D01*
X71128D01*
Y139699D01*
X71179D01*
X96528Y137598D02*
Y137497D01*
X96732D01*
Y137598D01*
X96833D01*
Y137802D01*
X96732D01*
Y137903D01*
X96528D01*
Y137802D01*
X96427D01*
Y137598D01*
X96528D01*
X96579Y137649D02*
Y137598D01*
X96681D01*
Y137649D01*
X96732D01*
Y137751D01*
X96681D01*
Y137802D01*
X96579D01*
Y137751D01*
X96528D01*
Y137649D01*
X96579D01*
X103198Y124298D02*
Y124197D01*
X103402D01*
Y124298D01*
X103503D01*
Y124502D01*
X103402D01*
Y124603D01*
X103198D01*
Y124502D01*
X103097D01*
Y124298D01*
X103198D01*
X103249Y124349D02*
Y124298D01*
X103351D01*
Y124349D01*
X103402D01*
Y124451D01*
X103351D01*
Y124502D01*
X103249D01*
Y124451D01*
X103198D01*
Y124349D01*
X103249D01*
X110298Y89498D02*
Y89397D01*
X110502D01*
Y89498D01*
X110603D01*
Y89702D01*
X110502D01*
Y89803D01*
X110298D01*
Y89702D01*
X110197D01*
Y89498D01*
X110298D01*
X110349Y89549D02*
Y89498D01*
X110451D01*
Y89549D01*
X110502D01*
Y89651D01*
X110451D01*
Y89702D01*
X110349D01*
Y89651D01*
X110298D01*
Y89549D01*
X110349D01*
X56998Y53948D02*
Y53847D01*
X57202D01*
Y53948D01*
X57303D01*
Y54152D01*
X57202D01*
Y54253D01*
X56998D01*
Y54152D01*
X56897D01*
Y53948D01*
X56998D01*
X57049Y53999D02*
Y53948D01*
X57151D01*
Y53999D01*
X57202D01*
Y54101D01*
X57151D01*
Y54152D01*
X57049D01*
Y54101D01*
X56998D01*
Y53999D01*
X57049D01*
X73348Y118198D02*
Y118097D01*
X73552D01*
Y118198D01*
X73653D01*
Y118402D01*
X73552D01*
Y118503D01*
X73348D01*
Y118402D01*
X73247D01*
Y118198D01*
X73348D01*
X73399Y118249D02*
Y118198D01*
X73501D01*
Y118249D01*
X73552D01*
Y118351D01*
X73501D01*
Y118402D01*
X73399D01*
Y118351D01*
X73348D01*
Y118249D01*
X73399D01*
X95498Y102548D02*
Y102447D01*
X95702D01*
Y102548D01*
X95803D01*
Y102752D01*
X95702D01*
Y102853D01*
X95498D01*
Y102752D01*
X95397D01*
Y102548D01*
X95498D01*
X95549Y102599D02*
Y102548D01*
X95651D01*
Y102599D01*
X95702D01*
Y102701D01*
X95651D01*
Y102752D01*
X95549D01*
Y102701D01*
X95498D01*
Y102599D01*
X95549D01*
X95498Y89498D02*
Y89397D01*
X95702D01*
Y89498D01*
X95803D01*
Y89702D01*
X95702D01*
Y89803D01*
X95498D01*
Y89702D01*
X95397D01*
Y89498D01*
X95498D01*
X95549Y89549D02*
Y89498D01*
X95651D01*
Y89549D01*
X95702D01*
Y89651D01*
X95651D01*
Y89702D01*
X95549D01*
Y89651D01*
X95498D01*
Y89549D01*
X95549D01*
X76098Y107348D02*
Y107247D01*
X76302D01*
Y107348D01*
X76403D01*
Y107552D01*
X76302D01*
Y107653D01*
X76098D01*
Y107552D01*
X75997D01*
Y107348D01*
X76098D01*
X76149Y107399D02*
Y107348D01*
X76251D01*
Y107399D01*
X76302D01*
Y107501D01*
X76251D01*
Y107552D01*
X76149D01*
Y107501D01*
X76098D01*
Y107399D01*
X76149D01*
X76148Y89498D02*
Y89397D01*
X76352D01*
Y89498D01*
X76453D01*
Y89702D01*
X76352D01*
Y89803D01*
X76148D01*
Y89702D01*
X76047D01*
Y89498D01*
X76148D01*
X76199Y89549D02*
Y89498D01*
X76301D01*
Y89549D01*
X76352D01*
Y89651D01*
X76301D01*
Y89702D01*
X76199D01*
Y89651D01*
X76148D01*
Y89549D01*
X76199D01*
X76098Y102548D02*
Y102447D01*
X76302D01*
Y102548D01*
X76403D01*
Y102752D01*
X76302D01*
Y102853D01*
X76098D01*
Y102752D01*
X75997D01*
Y102548D01*
X76098D01*
X76149Y102599D02*
Y102548D01*
X76251D01*
Y102599D01*
X76302D01*
Y102701D01*
X76251D01*
Y102752D01*
X76149D01*
Y102701D01*
X76098D01*
Y102599D01*
X76149D01*
X61048Y102548D02*
Y102447D01*
X61252D01*
Y102548D01*
X61353D01*
Y102752D01*
X61252D01*
Y102853D01*
X61048D01*
Y102752D01*
X60947D01*
Y102548D01*
X61048D01*
X61099Y102599D02*
Y102548D01*
X61201D01*
Y102599D01*
X61252D01*
Y102701D01*
X61201D01*
Y102752D01*
X61099D01*
Y102701D01*
X61048D01*
Y102599D01*
X61099D01*
X61048Y83398D02*
Y83297D01*
X61252D01*
Y83398D01*
X61353D01*
Y83602D01*
X61252D01*
Y83703D01*
X61048D01*
Y83602D01*
X60947D01*
Y83398D01*
X61048D01*
X61099Y83449D02*
Y83398D01*
X61201D01*
Y83449D01*
X61252D01*
Y83551D01*
X61201D01*
Y83602D01*
X61099D01*
Y83551D01*
X61048D01*
Y83449D01*
X61099D01*
X52248Y106198D02*
Y106097D01*
X52452D01*
Y106198D01*
X52553D01*
Y106402D01*
X52452D01*
Y106503D01*
X52248D01*
Y106402D01*
X52147D01*
Y106198D01*
X52248D01*
X52299Y106249D02*
Y106198D01*
X52401D01*
Y106249D01*
X52452D01*
Y106351D01*
X52401D01*
Y106402D01*
X52299D01*
Y106351D01*
X52248D01*
Y106249D01*
X52299D01*
X52448Y124198D02*
Y124097D01*
X52652D01*
Y124198D01*
X52753D01*
Y124402D01*
X52652D01*
Y124503D01*
X52448D01*
Y124402D01*
X52347D01*
Y124198D01*
X52448D01*
X52499Y124249D02*
Y124198D01*
X52601D01*
Y124249D01*
X52652D01*
Y124351D01*
X52601D01*
Y124402D01*
X52499D01*
Y124351D01*
X52448D01*
Y124249D01*
X52499D01*
X56748Y147948D02*
Y147847D01*
X56952D01*
Y147948D01*
X57053D01*
Y148152D01*
X56952D01*
Y148253D01*
X56748D01*
Y148152D01*
X56647D01*
Y147948D01*
X56748D01*
X56799Y147999D02*
Y147948D01*
X56901D01*
Y147999D01*
X56952D01*
Y148101D01*
X56901D01*
Y148152D01*
X56799D01*
Y148101D01*
X56748D01*
Y147999D01*
X56799D01*
X52898Y144773D02*
Y144672D01*
X53102D01*
Y144773D01*
X53203D01*
Y144977D01*
X53102D01*
Y145078D01*
X52898D01*
Y144977D01*
X52797D01*
Y144773D01*
X52898D01*
X52949Y144824D02*
Y144773D01*
X53051D01*
Y144824D01*
X53102D01*
Y144926D01*
X53051D01*
Y144977D01*
X52949D01*
Y144926D01*
X52898D01*
Y144824D01*
X52949D01*
X167925Y143350D02*
Y143689D01*
X168094Y143858D01*
X168264Y143689D01*
Y143350D01*
Y143604D01*
X167925D01*
X78747Y126447D02*
X78848D01*
X78950Y126548D01*
X79052Y126447D01*
X79153D01*
Y126548D01*
X79052Y126650D01*
X79153Y126752D01*
Y126853D01*
X79052D01*
X78950Y126752D01*
X78848Y126853D01*
X78747D01*
Y126752D01*
X78848Y126650D01*
X78747Y126548D01*
Y126447D01*
X78848Y126548D02*
X78899D01*
X78950Y126599D01*
X79001Y126548D01*
X79052D01*
Y126599D01*
X79001Y126650D01*
X79052Y126701D01*
Y126752D01*
X79001D01*
X78950Y126701D01*
X78899Y126752D01*
X78848D01*
Y126701D01*
X78899Y126650D01*
X78848Y126599D01*
Y126548D01*
X91448Y116698D02*
Y116597D01*
X91652D01*
Y116698D01*
X91753D01*
Y116902D01*
X91652D01*
Y117003D01*
X91448D01*
Y116902D01*
X91347D01*
Y116698D01*
X91448D01*
X91499Y116749D02*
Y116698D01*
X91601D01*
Y116749D01*
X91652D01*
Y116851D01*
X91601D01*
Y116902D01*
X91499D01*
Y116851D01*
X91448D01*
Y116749D01*
X91499D01*
X71797Y110697D02*
X71898D01*
X72000Y110798D01*
X72102Y110697D01*
X72203D01*
Y110798D01*
X72102Y110900D01*
X72203Y111002D01*
Y111103D01*
X72102D01*
X72000Y111002D01*
X71898Y111103D01*
X71797D01*
Y111002D01*
X71898Y110900D01*
X71797Y110798D01*
Y110697D01*
X71898Y110798D02*
X71949D01*
X72000Y110849D01*
X72051Y110798D01*
X72102D01*
Y110849D01*
X72051Y110900D01*
X72102Y110951D01*
Y111002D01*
X72051D01*
X72000Y110951D01*
X71949Y111002D01*
X71898D01*
Y110951D01*
X71949Y110900D01*
X71898Y110849D01*
Y110798D01*
X132617Y130198D02*
Y130097D01*
X132821D01*
Y130198D01*
X132922D01*
Y130402D01*
X132821D01*
Y130503D01*
X132617D01*
Y130402D01*
X132516D01*
Y130198D01*
X132617D01*
X132668Y130249D02*
Y130198D01*
X132770D01*
Y130249D01*
X132821D01*
Y130351D01*
X132770D01*
Y130402D01*
X132668D01*
Y130351D01*
X132617D01*
Y130249D01*
X132668D01*
X129648Y123348D02*
Y123247D01*
X129852D01*
Y123348D01*
X129953D01*
Y123552D01*
X129852D01*
Y123653D01*
X129648D01*
Y123552D01*
X129547D01*
Y123348D01*
X129648D01*
X129699Y123399D02*
Y123348D01*
X129801D01*
Y123399D01*
X129852D01*
Y123501D01*
X129801D01*
Y123552D01*
X129699D01*
Y123501D01*
X129648D01*
Y123399D01*
X129699D01*
X163198Y139448D02*
Y139347D01*
X163402D01*
Y139448D01*
X163503D01*
Y139652D01*
X163402D01*
Y139753D01*
X163198D01*
Y139652D01*
X163097D01*
Y139448D01*
X163198D01*
X163249Y139499D02*
Y139448D01*
X163351D01*
Y139499D01*
X163402D01*
Y139601D01*
X163351D01*
Y139652D01*
X163249D01*
Y139601D01*
X163198D01*
Y139499D01*
X163249D01*
X163198Y138332D02*
Y138230D01*
X163402D01*
Y138332D01*
X163503D01*
Y138535D01*
X163402D01*
Y138637D01*
X163198D01*
Y138535D01*
X163097D01*
Y138332D01*
X163198D01*
X163249Y138383D02*
Y138332D01*
X163351D01*
Y138383D01*
X163402D01*
Y138484D01*
X163351D01*
Y138535D01*
X163249D01*
Y138484D01*
X163198D01*
Y138383D01*
X163249D01*
X175834Y139298D02*
Y139197D01*
X176037D01*
Y139298D01*
X176139D01*
Y139502D01*
X176037D01*
Y139603D01*
X175834D01*
Y139502D01*
X175732D01*
Y139298D01*
X175834D01*
X175885Y139349D02*
Y139298D01*
X175986D01*
Y139349D01*
X176037D01*
Y139451D01*
X175986D01*
Y139502D01*
X175885D01*
Y139451D01*
X175834D01*
Y139349D01*
X175885D01*
X175834Y138182D02*
Y138080D01*
X176037D01*
Y138182D01*
X176139D01*
Y138385D01*
X176037D01*
Y138487D01*
X175834D01*
Y138385D01*
X175732D01*
Y138182D01*
X175834D01*
X175885Y138233D02*
Y138182D01*
X175986D01*
Y138233D01*
X176037D01*
Y138334D01*
X175986D01*
Y138385D01*
X175885D01*
Y138334D01*
X175834D01*
Y138233D01*
X175885D01*
X175834Y137065D02*
Y136963D01*
X176037D01*
Y137065D01*
X176139D01*
Y137268D01*
X176037D01*
Y137370D01*
X175834D01*
Y137268D01*
X175732D01*
Y137065D01*
X175834D01*
X175885Y137116D02*
Y137065D01*
X175986D01*
Y137116D01*
X176037D01*
Y137217D01*
X175986D01*
Y137268D01*
X175885D01*
Y137217D01*
X175834D01*
Y137116D01*
X175885D01*
X175834Y135948D02*
Y135847D01*
X176037D01*
Y135948D01*
X176139D01*
Y136152D01*
X176037D01*
Y136253D01*
X175834D01*
Y136152D01*
X175732D01*
Y135948D01*
X175834D01*
X175885Y135999D02*
Y135948D01*
X175986D01*
Y135999D01*
X176037D01*
Y136101D01*
X175986D01*
Y136152D01*
X175885D01*
Y136101D01*
X175834D01*
Y135999D01*
X175885D01*
X116998Y135098D02*
Y134997D01*
X117202D01*
Y135098D01*
X117303D01*
Y135302D01*
X117202D01*
Y135403D01*
X116998D01*
Y135302D01*
X116897D01*
Y135098D01*
X116998D01*
X117049Y135149D02*
Y135098D01*
X117151D01*
Y135149D01*
X117202D01*
Y135251D01*
X117151D01*
Y135302D01*
X117049D01*
Y135251D01*
X116998D01*
Y135149D01*
X117049D01*
X116998Y133982D02*
Y133880D01*
X117202D01*
Y133982D01*
X117303D01*
Y134185D01*
X117202D01*
Y134287D01*
X116998D01*
Y134185D01*
X116897D01*
Y133982D01*
X116998D01*
X117049Y134033D02*
Y133982D01*
X117151D01*
Y134033D01*
X117202D01*
Y134134D01*
X117151D01*
Y134185D01*
X117049D01*
Y134134D01*
X116998D01*
Y134033D01*
X117049D01*
X116998Y132865D02*
Y132763D01*
X117202D01*
Y132865D01*
X117303D01*
Y133068D01*
X117202D01*
Y133170D01*
X116998D01*
Y133068D01*
X116897D01*
Y132865D01*
X116998D01*
X117049Y132916D02*
Y132865D01*
X117151D01*
Y132916D01*
X117202D01*
Y133017D01*
X117151D01*
Y133068D01*
X117049D01*
Y133017D01*
X116998D01*
Y132916D01*
X117049D01*
X116998Y131748D02*
Y131647D01*
X117202D01*
Y131748D01*
X117303D01*
Y131952D01*
X117202D01*
Y132053D01*
X116998D01*
Y131952D01*
X116897D01*
Y131748D01*
X116998D01*
X117049Y131799D02*
Y131748D01*
X117151D01*
Y131799D01*
X117202D01*
Y131901D01*
X117151D01*
Y131952D01*
X117049D01*
Y131901D01*
X116998D01*
Y131799D01*
X117049D01*
X137125Y131798D02*
Y131697D01*
X137328D01*
Y131798D01*
X137430D01*
Y132002D01*
X137328D01*
Y132103D01*
X137125D01*
Y132002D01*
X137024D01*
Y131798D01*
X137125D01*
X137176Y131849D02*
Y131798D01*
X137278D01*
Y131849D01*
X137328D01*
Y131951D01*
X137278D01*
Y132002D01*
X137176D01*
Y131951D01*
X137125D01*
Y131849D01*
X137176D01*
X137125Y132915D02*
Y132813D01*
X137328D01*
Y132915D01*
X137430D01*
Y133118D01*
X137328D01*
Y133220D01*
X137125D01*
Y133118D01*
X137024D01*
Y132915D01*
X137125D01*
X137176Y132966D02*
Y132915D01*
X137278D01*
Y132966D01*
X137328D01*
Y133067D01*
X137278D01*
Y133118D01*
X137176D01*
Y133067D01*
X137125D01*
Y132966D01*
X137176D01*
X137125Y134032D02*
Y133930D01*
X137328D01*
Y134032D01*
X137430D01*
Y134235D01*
X137328D01*
Y134337D01*
X137125D01*
Y134235D01*
X137024D01*
Y134032D01*
X137125D01*
X137176Y134083D02*
Y134032D01*
X137278D01*
Y134083D01*
X137328D01*
Y134184D01*
X137278D01*
Y134235D01*
X137176D01*
Y134184D01*
X137125D01*
Y134083D01*
X137176D01*
X137125Y135148D02*
Y135047D01*
X137328D01*
Y135148D01*
X137430D01*
Y135352D01*
X137328D01*
Y135453D01*
X137125D01*
Y135352D01*
X137024D01*
Y135148D01*
X137125D01*
X137176Y135199D02*
Y135148D01*
X137278D01*
Y135199D01*
X137328D01*
Y135301D01*
X137278D01*
Y135352D01*
X137176D01*
Y135301D01*
X137125D01*
Y135199D01*
X137176D01*
X135781Y131815D02*
Y131713D01*
X135984D01*
Y131815D01*
X136086D01*
Y132018D01*
X135984D01*
Y132120D01*
X135781D01*
Y132018D01*
X135679D01*
Y131815D01*
X135781D01*
X135832Y131866D02*
Y131815D01*
X135933D01*
Y131866D01*
X135984D01*
Y131967D01*
X135933D01*
Y132018D01*
X135832D01*
Y131967D01*
X135781D01*
Y131866D01*
X135832D01*
X135781Y132932D02*
Y132830D01*
X135984D01*
Y132932D01*
X136086D01*
Y133135D01*
X135984D01*
Y133237D01*
X135781D01*
Y133135D01*
X135679D01*
Y132932D01*
X135781D01*
X135832Y132983D02*
Y132932D01*
X135933D01*
Y132983D01*
X135984D01*
Y133084D01*
X135933D01*
Y133135D01*
X135832D01*
Y133084D01*
X135781D01*
Y132983D01*
X135832D01*
X135781Y134048D02*
Y133947D01*
X135984D01*
Y134048D01*
X136086D01*
Y134252D01*
X135984D01*
Y134353D01*
X135781D01*
Y134252D01*
X135679D01*
Y134048D01*
X135781D01*
X135832Y134099D02*
Y134048D01*
X135933D01*
Y134099D01*
X135984D01*
Y134201D01*
X135933D01*
Y134252D01*
X135832D01*
Y134201D01*
X135781D01*
Y134099D01*
X135832D01*
X135781Y135165D02*
Y135063D01*
X135984D01*
Y135165D01*
X136086D01*
Y135368D01*
X135984D01*
Y135470D01*
X135781D01*
Y135368D01*
X135679D01*
Y135165D01*
X135781D01*
X135832Y135216D02*
Y135165D01*
X135933D01*
Y135216D01*
X135984D01*
Y135317D01*
X135933D01*
Y135368D01*
X135832D01*
Y135317D01*
X135781D01*
Y135216D01*
X135832D01*
X118123Y131748D02*
Y131647D01*
X118327D01*
Y131748D01*
X118428D01*
Y131952D01*
X118327D01*
Y132053D01*
X118123D01*
Y131952D01*
X118022D01*
Y131748D01*
X118123D01*
X118174Y131799D02*
Y131748D01*
X118276D01*
Y131799D01*
X118327D01*
Y131901D01*
X118276D01*
Y131952D01*
X118174D01*
Y131901D01*
X118123D01*
Y131799D01*
X118174D01*
X118123Y132865D02*
Y132763D01*
X118327D01*
Y132865D01*
X118428D01*
Y133068D01*
X118327D01*
Y133170D01*
X118123D01*
Y133068D01*
X118022D01*
Y132865D01*
X118123D01*
X118174Y132916D02*
Y132865D01*
X118276D01*
Y132916D01*
X118327D01*
Y133017D01*
X118276D01*
Y133068D01*
X118174D01*
Y133017D01*
X118123D01*
Y132916D01*
X118174D01*
X118123Y133982D02*
Y133880D01*
X118327D01*
Y133982D01*
X118428D01*
Y134185D01*
X118327D01*
Y134287D01*
X118123D01*
Y134185D01*
X118022D01*
Y133982D01*
X118123D01*
X118174Y134033D02*
Y133982D01*
X118276D01*
Y134033D01*
X118327D01*
Y134134D01*
X118276D01*
Y134185D01*
X118174D01*
Y134134D01*
X118123D01*
Y134033D01*
X118174D01*
X118123Y135098D02*
Y134997D01*
X118327D01*
Y135098D01*
X118428D01*
Y135302D01*
X118327D01*
Y135403D01*
X118123D01*
Y135302D01*
X118022D01*
Y135098D01*
X118123D01*
X118174Y135149D02*
Y135098D01*
X118276D01*
Y135149D01*
X118327D01*
Y135251D01*
X118276D01*
Y135302D01*
X118174D01*
Y135251D01*
X118123D01*
Y135149D01*
X118174D01*
X119248Y131748D02*
Y131647D01*
X119452D01*
Y131748D01*
X119553D01*
Y131952D01*
X119452D01*
Y132053D01*
X119248D01*
Y131952D01*
X119147D01*
Y131748D01*
X119248D01*
X119299Y131799D02*
Y131748D01*
X119401D01*
Y131799D01*
X119452D01*
Y131901D01*
X119401D01*
Y131952D01*
X119299D01*
Y131901D01*
X119248D01*
Y131799D01*
X119299D01*
X119248Y132865D02*
Y132763D01*
X119452D01*
Y132865D01*
X119553D01*
Y133068D01*
X119452D01*
Y133170D01*
X119248D01*
Y133068D01*
X119147D01*
Y132865D01*
X119248D01*
X119299Y132916D02*
Y132865D01*
X119401D01*
Y132916D01*
X119452D01*
Y133017D01*
X119401D01*
Y133068D01*
X119299D01*
Y133017D01*
X119248D01*
Y132916D01*
X119299D01*
X119248Y133982D02*
Y133880D01*
X119452D01*
Y133982D01*
X119553D01*
Y134185D01*
X119452D01*
Y134287D01*
X119248D01*
Y134185D01*
X119147D01*
Y133982D01*
X119248D01*
X119299Y134033D02*
Y133982D01*
X119401D01*
Y134033D01*
X119452D01*
Y134134D01*
X119401D01*
Y134185D01*
X119299D01*
Y134134D01*
X119248D01*
Y134033D01*
X119299D01*
X119248Y135098D02*
Y134997D01*
X119452D01*
Y135098D01*
X119553D01*
Y135302D01*
X119452D01*
Y135403D01*
X119248D01*
Y135302D01*
X119147D01*
Y135098D01*
X119248D01*
X119299Y135149D02*
Y135098D01*
X119401D01*
Y135149D01*
X119452D01*
Y135251D01*
X119401D01*
Y135302D01*
X119299D01*
Y135251D01*
X119248D01*
Y135149D01*
X119299D01*
X134437Y135165D02*
Y135063D01*
X134640D01*
Y135165D01*
X134742D01*
Y135368D01*
X134640D01*
Y135470D01*
X134437D01*
Y135368D01*
X134335D01*
Y135165D01*
X134437D01*
X134488Y135216D02*
Y135165D01*
X134589D01*
Y135216D01*
X134640D01*
Y135317D01*
X134589D01*
Y135368D01*
X134488D01*
Y135317D01*
X134437D01*
Y135216D01*
X134488D01*
X134437Y134048D02*
Y133947D01*
X134640D01*
Y134048D01*
X134742D01*
Y134252D01*
X134640D01*
Y134353D01*
X134437D01*
Y134252D01*
X134335D01*
Y134048D01*
X134437D01*
X134488Y134099D02*
Y134048D01*
X134589D01*
Y134099D01*
X134640D01*
Y134201D01*
X134589D01*
Y134252D01*
X134488D01*
Y134201D01*
X134437D01*
Y134099D01*
X134488D01*
X134437Y132932D02*
Y132830D01*
X134640D01*
Y132932D01*
X134742D01*
Y133135D01*
X134640D01*
Y133237D01*
X134437D01*
Y133135D01*
X134335D01*
Y132932D01*
X134437D01*
X134488Y132983D02*
Y132932D01*
X134589D01*
Y132983D01*
X134640D01*
Y133084D01*
X134589D01*
Y133135D01*
X134488D01*
Y133084D01*
X134437D01*
Y132983D01*
X134488D01*
X134437Y131815D02*
Y131713D01*
X134640D01*
Y131815D01*
X134742D01*
Y132018D01*
X134640D01*
Y132120D01*
X134437D01*
Y132018D01*
X134335D01*
Y131815D01*
X134437D01*
X134488Y131866D02*
Y131815D01*
X134589D01*
Y131866D01*
X134640D01*
Y131967D01*
X134589D01*
Y132018D01*
X134488D01*
Y131967D01*
X134437D01*
Y131866D01*
X134488D01*
X133093Y135148D02*
Y135047D01*
X133296D01*
Y135148D01*
X133397D01*
Y135352D01*
X133296D01*
Y135453D01*
X133093D01*
Y135352D01*
X132991D01*
Y135148D01*
X133093D01*
X133143Y135199D02*
Y135148D01*
X133245D01*
Y135199D01*
X133296D01*
Y135301D01*
X133245D01*
Y135352D01*
X133143D01*
Y135301D01*
X133093D01*
Y135199D01*
X133143D01*
X133093Y134032D02*
Y133930D01*
X133296D01*
Y134032D01*
X133397D01*
Y134235D01*
X133296D01*
Y134337D01*
X133093D01*
Y134235D01*
X132991D01*
Y134032D01*
X133093D01*
X133143Y134083D02*
Y134032D01*
X133245D01*
Y134083D01*
X133296D01*
Y134184D01*
X133245D01*
Y134235D01*
X133143D01*
Y134184D01*
X133093D01*
Y134083D01*
X133143D01*
X133093Y132915D02*
Y132813D01*
X133296D01*
Y132915D01*
X133397D01*
Y133118D01*
X133296D01*
Y133220D01*
X133093D01*
Y133118D01*
X132991D01*
Y132915D01*
X133093D01*
X133143Y132966D02*
Y132915D01*
X133245D01*
Y132966D01*
X133296D01*
Y133067D01*
X133245D01*
Y133118D01*
X133143D01*
Y133067D01*
X133093D01*
Y132966D01*
X133143D01*
X133093Y131798D02*
Y131697D01*
X133296D01*
Y131798D01*
X133397D01*
Y132002D01*
X133296D01*
Y132103D01*
X133093D01*
Y132002D01*
X132991D01*
Y131798D01*
X133093D01*
X133143Y131849D02*
Y131798D01*
X133245D01*
Y131849D01*
X133296D01*
Y131951D01*
X133245D01*
Y132002D01*
X133143D01*
Y131951D01*
X133093D01*
Y131849D01*
X133143D01*
X131748Y131798D02*
Y131697D01*
X131952D01*
Y131798D01*
X132053D01*
Y132002D01*
X131952D01*
Y132103D01*
X131748D01*
Y132002D01*
X131647D01*
Y131798D01*
X131748D01*
X131799Y131849D02*
Y131798D01*
X131901D01*
Y131849D01*
X131952D01*
Y131951D01*
X131901D01*
Y132002D01*
X131799D01*
Y131951D01*
X131748D01*
Y131849D01*
X131799D01*
X131748Y132915D02*
Y132813D01*
X131952D01*
Y132915D01*
X132053D01*
Y133118D01*
X131952D01*
Y133220D01*
X131748D01*
Y133118D01*
X131647D01*
Y132915D01*
X131748D01*
X131799Y132966D02*
Y132915D01*
X131901D01*
Y132966D01*
X131952D01*
Y133067D01*
X131901D01*
Y133118D01*
X131799D01*
Y133067D01*
X131748D01*
Y132966D01*
X131799D01*
X131748Y134032D02*
Y133930D01*
X131952D01*
Y134032D01*
X132053D01*
Y134235D01*
X131952D01*
Y134337D01*
X131748D01*
Y134235D01*
X131647D01*
Y134032D01*
X131748D01*
X131799Y134083D02*
Y134032D01*
X131901D01*
Y134083D01*
X131952D01*
Y134184D01*
X131901D01*
Y134235D01*
X131799D01*
Y134184D01*
X131748D01*
Y134083D01*
X131799D01*
X131748Y135148D02*
Y135047D01*
X131952D01*
Y135148D01*
X132053D01*
Y135352D01*
X131952D01*
Y135453D01*
X131748D01*
Y135352D01*
X131647D01*
Y135148D01*
X131748D01*
X131799Y135199D02*
Y135148D01*
X131901D01*
Y135199D01*
X131952D01*
Y135301D01*
X131901D01*
Y135352D01*
X131799D01*
Y135301D01*
X131748D01*
Y135199D01*
X131799D01*
X130798Y133498D02*
Y133397D01*
X131002D01*
Y133498D01*
X131103D01*
Y133702D01*
X131002D01*
Y133803D01*
X130798D01*
Y133702D01*
X130697D01*
Y133498D01*
X130798D01*
X130849Y133549D02*
Y133498D01*
X130951D01*
Y133549D01*
X131002D01*
Y133651D01*
X130951D01*
Y133702D01*
X130849D01*
Y133651D01*
X130798D01*
Y133549D01*
X130849D01*
X121048Y135098D02*
Y134997D01*
X121252D01*
Y135098D01*
X121353D01*
Y135302D01*
X121252D01*
Y135403D01*
X121048D01*
Y135302D01*
X120947D01*
Y135098D01*
X121048D01*
X121099Y135149D02*
Y135098D01*
X121201D01*
Y135149D01*
X121252D01*
Y135251D01*
X121201D01*
Y135302D01*
X121099D01*
Y135251D01*
X121048D01*
Y135149D01*
X121099D01*
X121048Y133982D02*
Y133880D01*
X121252D01*
Y133982D01*
X121353D01*
Y134185D01*
X121252D01*
Y134287D01*
X121048D01*
Y134185D01*
X120947D01*
Y133982D01*
X121048D01*
X121099Y134033D02*
Y133982D01*
X121201D01*
Y134033D01*
X121252D01*
Y134134D01*
X121201D01*
Y134185D01*
X121099D01*
Y134134D01*
X121048D01*
Y134033D01*
X121099D01*
X121048Y132865D02*
Y132763D01*
X121252D01*
Y132865D01*
X121353D01*
Y133068D01*
X121252D01*
Y133170D01*
X121048D01*
Y133068D01*
X120947D01*
Y132865D01*
X121048D01*
X121099Y132916D02*
Y132865D01*
X121201D01*
Y132916D01*
X121252D01*
Y133017D01*
X121201D01*
Y133068D01*
X121099D01*
Y133017D01*
X121048D01*
Y132916D01*
X121099D01*
X121098Y131748D02*
Y131647D01*
X121302D01*
Y131748D01*
X121403D01*
Y131952D01*
X121302D01*
Y132053D01*
X121098D01*
Y131952D01*
X120997D01*
Y131748D01*
X121098D01*
X121149Y131799D02*
Y131748D01*
X121251D01*
Y131799D01*
X121302D01*
Y131901D01*
X121251D01*
Y131952D01*
X121149D01*
Y131901D01*
X121098D01*
Y131799D01*
X121149D01*
X122148Y133398D02*
Y133297D01*
X122352D01*
Y133398D01*
X122453D01*
Y133602D01*
X122352D01*
Y133703D01*
X122148D01*
Y133602D01*
X122047D01*
Y133398D01*
X122148D01*
X122199Y133449D02*
Y133398D01*
X122301D01*
Y133449D01*
X122352D01*
Y133551D01*
X122301D01*
Y133602D01*
X122199D01*
Y133551D01*
X122148D01*
Y133449D01*
X122199D01*
X174448Y135998D02*
Y135897D01*
X174652D01*
Y135998D01*
X174753D01*
Y136202D01*
X174652D01*
Y136303D01*
X174448D01*
Y136202D01*
X174347D01*
Y135998D01*
X174448D01*
X174499Y136049D02*
Y135998D01*
X174601D01*
Y136049D01*
X174652D01*
Y136151D01*
X174601D01*
Y136202D01*
X174499D01*
Y136151D01*
X174448D01*
Y136049D01*
X174499D01*
X174448Y137115D02*
Y137013D01*
X174652D01*
Y137115D01*
X174753D01*
Y137318D01*
X174652D01*
Y137420D01*
X174448D01*
Y137318D01*
X174347D01*
Y137115D01*
X174448D01*
X174499Y137166D02*
Y137115D01*
X174601D01*
Y137166D01*
X174652D01*
Y137267D01*
X174601D01*
Y137318D01*
X174499D01*
Y137267D01*
X174448D01*
Y137166D01*
X174499D01*
X174448Y138232D02*
Y138130D01*
X174652D01*
Y138232D01*
X174753D01*
Y138435D01*
X174652D01*
Y138537D01*
X174448D01*
Y138435D01*
X174347D01*
Y138232D01*
X174448D01*
X174499Y138283D02*
Y138232D01*
X174601D01*
Y138283D01*
X174652D01*
Y138384D01*
X174601D01*
Y138435D01*
X174499D01*
Y138384D01*
X174448D01*
Y138283D01*
X174499D01*
X174448Y139348D02*
Y139247D01*
X174652D01*
Y139348D01*
X174753D01*
Y139552D01*
X174652D01*
Y139653D01*
X174448D01*
Y139552D01*
X174347D01*
Y139348D01*
X174448D01*
X174499Y139399D02*
Y139348D01*
X174601D01*
Y139399D01*
X174652D01*
Y139501D01*
X174601D01*
Y139552D01*
X174499D01*
Y139501D01*
X174448D01*
Y139399D01*
X174499D01*
X173498Y137698D02*
Y137597D01*
X173702D01*
Y137698D01*
X173803D01*
Y137902D01*
X173702D01*
Y138003D01*
X173498D01*
Y137902D01*
X173397D01*
Y137698D01*
X173498D01*
X173549Y137749D02*
Y137698D01*
X173651D01*
Y137749D01*
X173702D01*
Y137851D01*
X173651D01*
Y137902D01*
X173549D01*
Y137851D01*
X173498D01*
Y137749D01*
X173549D01*
X165398Y137748D02*
Y137647D01*
X165602D01*
Y137748D01*
X165703D01*
Y137952D01*
X165602D01*
Y138053D01*
X165398D01*
Y137952D01*
X165297D01*
Y137748D01*
X165398D01*
X165449Y137799D02*
Y137748D01*
X165551D01*
Y137799D01*
X165602D01*
Y137901D01*
X165551D01*
Y137952D01*
X165449D01*
Y137901D01*
X165398D01*
Y137799D01*
X165449D01*
X164448Y136098D02*
Y135997D01*
X164652D01*
Y136098D01*
X164753D01*
Y136302D01*
X164652D01*
Y136403D01*
X164448D01*
Y136302D01*
X164347D01*
Y136098D01*
X164448D01*
X164499Y136149D02*
Y136098D01*
X164601D01*
Y136149D01*
X164652D01*
Y136251D01*
X164601D01*
Y136302D01*
X164499D01*
Y136251D01*
X164448D01*
Y136149D01*
X164499D01*
X164448Y137215D02*
Y137113D01*
X164652D01*
Y137215D01*
X164753D01*
Y137418D01*
X164652D01*
Y137520D01*
X164448D01*
Y137418D01*
X164347D01*
Y137215D01*
X164448D01*
X164499Y137266D02*
Y137215D01*
X164601D01*
Y137266D01*
X164652D01*
Y137367D01*
X164601D01*
Y137418D01*
X164499D01*
Y137367D01*
X164448D01*
Y137266D01*
X164499D01*
X164448Y138332D02*
Y138230D01*
X164652D01*
Y138332D01*
X164753D01*
Y138535D01*
X164652D01*
Y138637D01*
X164448D01*
Y138535D01*
X164347D01*
Y138332D01*
X164448D01*
X164499Y138383D02*
Y138332D01*
X164601D01*
Y138383D01*
X164652D01*
Y138484D01*
X164601D01*
Y138535D01*
X164499D01*
Y138484D01*
X164448D01*
Y138383D01*
X164499D01*
X164448Y139448D02*
Y139347D01*
X164652D01*
Y139448D01*
X164753D01*
Y139652D01*
X164652D01*
Y139753D01*
X164448D01*
Y139652D01*
X164347D01*
Y139448D01*
X164448D01*
X164499Y139499D02*
Y139448D01*
X164601D01*
Y139499D01*
X164652D01*
Y139601D01*
X164601D01*
Y139652D01*
X164499D01*
Y139601D01*
X164448D01*
Y139499D01*
X164499D01*
X123750Y132950D02*
Y133289D01*
X123919Y133458D01*
X124089Y133289D01*
Y132950D01*
Y133204D01*
X123750D01*
Y134050D02*
Y134389D01*
X123919Y134558D01*
X124089Y134389D01*
Y134050D01*
Y134304D01*
X123750D01*
X124850Y132950D02*
Y133289D01*
X125019Y133458D01*
X125189Y133289D01*
Y132950D01*
Y133204D01*
X124850D01*
Y134050D02*
Y134389D01*
X125019Y134558D01*
X125189Y134389D01*
Y134050D01*
Y134304D01*
X124850D01*
X125950Y132950D02*
Y133289D01*
X126119Y133458D01*
X126289Y133289D01*
Y132950D01*
Y133204D01*
X125950D01*
Y134050D02*
Y134389D01*
X126119Y134558D01*
X126289Y134389D01*
Y134050D01*
Y134304D01*
X125950D01*
X127050Y132950D02*
Y133289D01*
X127219Y133458D01*
X127389Y133289D01*
Y132950D01*
Y133204D01*
X127050D01*
Y134050D02*
Y134389D01*
X127219Y134558D01*
X127389Y134389D01*
Y134050D01*
Y134304D01*
X127050D01*
X128150Y134050D02*
Y134389D01*
X128319Y134558D01*
X128489Y134389D01*
Y134050D01*
Y134304D01*
X128150D01*
X129250Y134050D02*
Y134389D01*
X129419Y134558D01*
X129589Y134389D01*
Y134050D01*
Y134304D01*
X129250D01*
X128150Y132950D02*
Y133289D01*
X128319Y133458D01*
X128489Y133289D01*
Y132950D01*
Y133204D01*
X128150D01*
X129250Y132950D02*
Y133289D01*
X129419Y133458D01*
X129589Y133289D01*
Y132950D01*
Y133204D01*
X129250D01*
X171746Y142447D02*
X171848D01*
X171950Y142548D01*
X172051Y142447D01*
X172153D01*
Y142548D01*
X172051Y142650D01*
X172153Y142751D01*
Y142853D01*
X172051D01*
X171950Y142751D01*
X171848Y142853D01*
X171746D01*
Y142751D01*
X171848Y142650D01*
X171746Y142548D01*
Y142447D01*
X171848Y142548D02*
X171899D01*
X171950Y142599D01*
X172000Y142548D01*
X172051D01*
Y142599D01*
X172000Y142650D01*
X172051Y142701D01*
Y142751D01*
X172000D01*
X171950Y142701D01*
X171899Y142751D01*
X171848D01*
Y142701D01*
X171899Y142650D01*
X171848Y142599D01*
Y142548D01*
X92850Y75398D02*
Y74890D01*
X93104D01*
X93189Y74975D01*
Y75059D01*
X93104Y75144D01*
X92850D01*
X93104D01*
X93189Y75229D01*
Y75313D01*
X93104Y75398D01*
X92850D01*
X176697Y129597D02*
X176798D01*
X176900Y129698D01*
X177002Y129597D01*
X177103D01*
Y129698D01*
X177002Y129800D01*
X177103Y129902D01*
Y130003D01*
X177002D01*
X176900Y129902D01*
X176798Y130003D01*
X176697D01*
Y129902D01*
X176798Y129800D01*
X176697Y129698D01*
Y129597D01*
X176798Y129698D02*
X176849D01*
X176900Y129749D01*
X176951Y129698D01*
X177002D01*
Y129749D01*
X176951Y129800D01*
X177002Y129851D01*
Y129902D01*
X176951D01*
X176900Y129851D01*
X176849Y129902D01*
X176798D01*
Y129851D01*
X176849Y129800D01*
X176798Y129749D01*
Y129698D01*
X192197Y147847D02*
X192298D01*
X192400Y147948D01*
X192502Y147847D01*
X192603D01*
Y147948D01*
X192502Y148050D01*
X192603Y148152D01*
Y148253D01*
X192502D01*
X192400Y148152D01*
X192298Y148253D01*
X192197D01*
Y148152D01*
X192298Y148050D01*
X192197Y147948D01*
Y147847D01*
X192298Y147948D02*
X192349D01*
X192400Y147999D01*
X192451Y147948D01*
X192502D01*
Y147999D01*
X192451Y148050D01*
X192502Y148101D01*
Y148152D01*
X192451D01*
X192400Y148101D01*
X192349Y148152D01*
X192298D01*
Y148101D01*
X192349Y148050D01*
X192298Y147999D01*
Y147948D01*
X158947Y90097D02*
X159048D01*
X159150Y90198D01*
X159252Y90097D01*
X159353D01*
Y90198D01*
X159252Y90300D01*
X159353Y90402D01*
Y90503D01*
X159252D01*
X159150Y90402D01*
X159048Y90503D01*
X158947D01*
Y90402D01*
X159048Y90300D01*
X158947Y90198D01*
Y90097D01*
X159048Y90198D02*
X159099D01*
X159150Y90249D01*
X159201Y90198D01*
X159252D01*
Y90249D01*
X159201Y90300D01*
X159252Y90351D01*
Y90402D01*
X159201D01*
X159150Y90351D01*
X159099Y90402D01*
X159048D01*
Y90351D01*
X159099Y90300D01*
X159048Y90249D01*
Y90198D01*
X158147Y90797D02*
X158248D01*
X158350Y90898D01*
X158452Y90797D01*
X158553D01*
Y90898D01*
X158452Y91000D01*
X158553Y91102D01*
Y91203D01*
X158452D01*
X158350Y91102D01*
X158248Y91203D01*
X158147D01*
Y91102D01*
X158248Y91000D01*
X158147Y90898D01*
Y90797D01*
X158248Y90898D02*
X158299D01*
X158350Y90949D01*
X158401Y90898D01*
X158452D01*
Y90949D01*
X158401Y91000D01*
X158452Y91051D01*
Y91102D01*
X158401D01*
X158350Y91051D01*
X158299Y91102D01*
X158248D01*
Y91051D01*
X158299Y91000D01*
X158248Y90949D01*
Y90898D01*
X157347Y91497D02*
X157448D01*
X157550Y91598D01*
X157652Y91497D01*
X157753D01*
Y91598D01*
X157652Y91700D01*
X157753Y91802D01*
Y91903D01*
X157652D01*
X157550Y91802D01*
X157448Y91903D01*
X157347D01*
Y91802D01*
X157448Y91700D01*
X157347Y91598D01*
Y91497D01*
X157448Y91598D02*
X157499D01*
X157550Y91649D01*
X157601Y91598D01*
X157652D01*
Y91649D01*
X157601Y91700D01*
X157652Y91751D01*
Y91802D01*
X157601D01*
X157550Y91751D01*
X157499Y91802D01*
X157448D01*
Y91751D01*
X157499Y91700D01*
X157448Y91649D01*
Y91598D01*
X156567Y92497D02*
X156669D01*
X156770Y92598D01*
X156872Y92497D01*
X156973D01*
Y92598D01*
X156872Y92700D01*
X156973Y92802D01*
Y92903D01*
X156872D01*
X156770Y92802D01*
X156669Y92903D01*
X156567D01*
Y92802D01*
X156669Y92700D01*
X156567Y92598D01*
Y92497D01*
X156669Y92598D02*
X156719D01*
X156770Y92649D01*
X156821Y92598D01*
X156872D01*
Y92649D01*
X156821Y92700D01*
X156872Y92751D01*
Y92802D01*
X156821D01*
X156770Y92751D01*
X156719Y92802D01*
X156669D01*
Y92751D01*
X156719Y92700D01*
X156669Y92649D01*
Y92598D01*
X154797Y91047D02*
X154898D01*
X155000Y91148D01*
X155102Y91047D01*
X155203D01*
Y91148D01*
X155102Y91250D01*
X155203Y91352D01*
Y91453D01*
X155102D01*
X155000Y91352D01*
X154898Y91453D01*
X154797D01*
Y91352D01*
X154898Y91250D01*
X154797Y91148D01*
Y91047D01*
X154898Y91148D02*
X154949D01*
X155000Y91199D01*
X155051Y91148D01*
X155102D01*
Y91199D01*
X155051Y91250D01*
X155102Y91301D01*
Y91352D01*
X155051D01*
X155000Y91301D01*
X154949Y91352D01*
X154898D01*
Y91301D01*
X154949Y91250D01*
X154898Y91199D01*
Y91148D01*
X155496Y91897D02*
X155598D01*
X155700Y91998D01*
X155801Y91897D01*
X155903D01*
Y91998D01*
X155801Y92100D01*
X155903Y92201D01*
Y92303D01*
X155801D01*
X155700Y92201D01*
X155598Y92303D01*
X155496D01*
Y92201D01*
X155598Y92100D01*
X155496Y91998D01*
Y91897D01*
X155598Y91998D02*
X155649D01*
X155700Y92049D01*
X155750Y91998D01*
X155801D01*
Y92049D01*
X155750Y92100D01*
X155801Y92151D01*
Y92201D01*
X155750D01*
X155700Y92151D01*
X155649Y92201D01*
X155598D01*
Y92151D01*
X155649Y92100D01*
X155598Y92049D01*
Y91998D01*
X187339Y82823D02*
X187254Y82908D01*
X187085D01*
X187000Y82823D01*
Y82485D01*
X187085Y82400D01*
X187254D01*
X187339Y82485D01*
X160896Y146697D02*
X160998D01*
X161100Y146798D01*
X161201Y146697D01*
X161303D01*
Y146798D01*
X161201Y146900D01*
X161303Y147001D01*
Y147103D01*
X161201D01*
X161100Y147001D01*
X160998Y147103D01*
X160896D01*
Y147001D01*
X160998Y146900D01*
X160896Y146798D01*
Y146697D01*
X160998Y146798D02*
X161049D01*
X161100Y146849D01*
X161150Y146798D01*
X161201D01*
Y146849D01*
X161150Y146900D01*
X161201Y146951D01*
Y147001D01*
X161150D01*
X161100Y146951D01*
X161049Y147001D01*
X160998D01*
Y146951D01*
X161049Y146900D01*
X160998Y146849D01*
Y146798D01*
X141297Y145097D02*
X141398D01*
X141500Y145198D01*
X141602Y145097D01*
X141703D01*
Y145198D01*
X141602Y145300D01*
X141703Y145402D01*
Y145503D01*
X141602D01*
X141500Y145402D01*
X141398Y145503D01*
X141297D01*
Y145402D01*
X141398Y145300D01*
X141297Y145198D01*
Y145097D01*
X141398Y145198D02*
X141449D01*
X141500Y145249D01*
X141551Y145198D01*
X141602D01*
Y145249D01*
X141551Y145300D01*
X141602Y145351D01*
Y145402D01*
X141551D01*
X141500Y145351D01*
X141449Y145402D01*
X141398D01*
Y145351D01*
X141449Y145300D01*
X141398Y145249D01*
Y145198D01*
X161797Y146047D02*
X161898D01*
X162000Y146148D01*
X162102Y146047D01*
X162203D01*
Y146148D01*
X162102Y146250D01*
X162203Y146352D01*
Y146453D01*
X162102D01*
X162000Y146352D01*
X161898Y146453D01*
X161797D01*
Y146352D01*
X161898Y146250D01*
X161797Y146148D01*
Y146047D01*
X161898Y146148D02*
X161949D01*
X162000Y146199D01*
X162051Y146148D01*
X162102D01*
Y146199D01*
X162051Y146250D01*
X162102Y146301D01*
Y146352D01*
X162051D01*
X162000Y146301D01*
X161949Y146352D01*
X161898D01*
Y146301D01*
X161949Y146250D01*
X161898Y146199D01*
Y146148D01*
X140297Y143926D02*
X140398D01*
X140500Y144028D01*
X140602Y143926D01*
X140703D01*
Y144028D01*
X140602Y144129D01*
X140703Y144231D01*
Y144332D01*
X140602D01*
X140500Y144231D01*
X140398Y144332D01*
X140297D01*
Y144231D01*
X140398Y144129D01*
X140297Y144028D01*
Y143926D01*
X140398Y144028D02*
X140449D01*
X140500Y144078D01*
X140551Y144028D01*
X140602D01*
Y144078D01*
X140551Y144129D01*
X140602Y144180D01*
Y144231D01*
X140551D01*
X140500Y144180D01*
X140449Y144231D01*
X140398D01*
Y144180D01*
X140449Y144129D01*
X140398Y144078D01*
Y144028D01*
X175547Y131047D02*
X175648D01*
X175750Y131148D01*
X175852Y131047D01*
X175953D01*
Y131148D01*
X175852Y131250D01*
X175953Y131352D01*
Y131453D01*
X175852D01*
X175750Y131352D01*
X175648Y131453D01*
X175547D01*
Y131352D01*
X175648Y131250D01*
X175547Y131148D01*
Y131047D01*
X175648Y131148D02*
X175699D01*
X175750Y131199D01*
X175801Y131148D01*
X175852D01*
Y131199D01*
X175801Y131250D01*
X175852Y131301D01*
Y131352D01*
X175801D01*
X175750Y131301D01*
X175699Y131352D01*
X175648D01*
Y131301D01*
X175699Y131250D01*
X175648Y131199D01*
Y131148D01*
X90097Y127697D02*
X90198D01*
X90300Y127798D01*
X90402Y127697D01*
X90503D01*
Y127798D01*
X90402Y127900D01*
X90503Y128002D01*
Y128103D01*
X90402D01*
X90300Y128002D01*
X90198Y128103D01*
X90097D01*
Y128002D01*
X90198Y127900D01*
X90097Y127798D01*
Y127697D01*
X90198Y127798D02*
X90249D01*
X90300Y127849D01*
X90351Y127798D01*
X90402D01*
Y127849D01*
X90351Y127900D01*
X90402Y127951D01*
Y128002D01*
X90351D01*
X90300Y127951D01*
X90249Y128002D01*
X90198D01*
Y127951D01*
X90249Y127900D01*
X90198Y127849D01*
Y127798D01*
X174796Y131897D02*
X174898D01*
X175000Y131998D01*
X175101Y131897D01*
X175203D01*
Y131998D01*
X175101Y132100D01*
X175203Y132201D01*
Y132303D01*
X175101D01*
X175000Y132201D01*
X174898Y132303D01*
X174796D01*
Y132201D01*
X174898Y132100D01*
X174796Y131998D01*
Y131897D01*
X174898Y131998D02*
X174949D01*
X175000Y132049D01*
X175050Y131998D01*
X175101D01*
Y132049D01*
X175050Y132100D01*
X175101Y132151D01*
Y132201D01*
X175050D01*
X175000Y132151D01*
X174949Y132201D01*
X174898D01*
Y132151D01*
X174949Y132100D01*
X174898Y132049D01*
Y131998D01*
X181697Y132224D02*
X181798D01*
X181900Y132326D01*
X182002Y132224D01*
X182103D01*
Y132326D01*
X182002Y132427D01*
X182103Y132529D01*
Y132630D01*
X182002D01*
X181900Y132529D01*
X181798Y132630D01*
X181697D01*
Y132529D01*
X181798Y132427D01*
X181697Y132326D01*
Y132224D01*
X181798Y132326D02*
X181849D01*
X181900Y132376D01*
X181951Y132326D01*
X182002D01*
Y132376D01*
X181951Y132427D01*
X182002Y132478D01*
Y132529D01*
X181951D01*
X181900Y132478D01*
X181849Y132529D01*
X181798D01*
Y132478D01*
X181849Y132427D01*
X181798Y132376D01*
Y132326D01*
X182747Y133147D02*
X182848D01*
X182950Y133248D01*
X183052Y133147D01*
X183153D01*
Y133248D01*
X183052Y133350D01*
X183153Y133452D01*
Y133553D01*
X183052D01*
X182950Y133452D01*
X182848Y133553D01*
X182747D01*
Y133452D01*
X182848Y133350D01*
X182747Y133248D01*
Y133147D01*
X182848Y133248D02*
X182899D01*
X182950Y133299D01*
X183001Y133248D01*
X183052D01*
Y133299D01*
X183001Y133350D01*
X183052Y133401D01*
Y133452D01*
X183001D01*
X182950Y133401D01*
X182899Y133452D01*
X182848D01*
Y133401D01*
X182899Y133350D01*
X182848Y133299D01*
Y133248D01*
X142748Y117848D02*
Y117747D01*
X142951D01*
Y117848D01*
X143053D01*
Y118051D01*
X142951D01*
Y118153D01*
X142748D01*
Y118051D01*
X142647D01*
Y117848D01*
X142748D01*
X142799Y117899D02*
Y117848D01*
X142901D01*
Y117899D01*
X142951D01*
Y118001D01*
X142901D01*
Y118051D01*
X142799D01*
Y118001D01*
X142748D01*
Y117899D01*
X142799D01*
X142097Y116797D02*
X142198D01*
X142300Y116898D01*
X142402Y116797D01*
X142503D01*
Y116898D01*
X142402Y117000D01*
X142503Y117102D01*
Y117203D01*
X142402D01*
X142300Y117102D01*
X142198Y117203D01*
X142097D01*
Y117102D01*
X142198Y117000D01*
X142097Y116898D01*
Y116797D01*
X142198Y116898D02*
X142249D01*
X142300Y116949D01*
X142351Y116898D01*
X142402D01*
Y116949D01*
X142351Y117000D01*
X142402Y117051D01*
Y117102D01*
X142351D01*
X142300Y117051D01*
X142249Y117102D01*
X142198D01*
Y117051D01*
X142249Y117000D01*
X142198Y116949D01*
Y116898D01*
X141948Y115848D02*
Y115747D01*
X142152D01*
Y115848D01*
X142253D01*
Y116052D01*
X142152D01*
Y116153D01*
X141948D01*
Y116052D01*
X141847D01*
Y115848D01*
X141948D01*
X141999Y115899D02*
Y115848D01*
X142101D01*
Y115899D01*
X142152D01*
Y116001D01*
X142101D01*
Y116052D01*
X141999D01*
Y116001D01*
X141948D01*
Y115899D01*
X141999D01*
X168496Y130497D02*
X168598D01*
X168700Y130598D01*
X168801Y130497D01*
X168903D01*
Y130598D01*
X168801Y130700D01*
X168903Y130801D01*
Y130903D01*
X168801D01*
X168700Y130801D01*
X168598Y130903D01*
X168496D01*
Y130801D01*
X168598Y130700D01*
X168496Y130598D01*
Y130497D01*
X168598Y130598D02*
X168649D01*
X168700Y130649D01*
X168750Y130598D01*
X168801D01*
Y130649D01*
X168750Y130700D01*
X168801Y130751D01*
Y130801D01*
X168750D01*
X168700Y130751D01*
X168649Y130801D01*
X168598D01*
Y130751D01*
X168649Y130700D01*
X168598Y130649D01*
Y130598D01*
X167546Y132497D02*
X167648D01*
X167750Y132598D01*
X167851Y132497D01*
X167953D01*
Y132598D01*
X167851Y132700D01*
X167953Y132802D01*
Y132903D01*
X167851D01*
X167750Y132802D01*
X167648Y132903D01*
X167546D01*
Y132802D01*
X167648Y132700D01*
X167546Y132598D01*
Y132497D01*
X167648Y132598D02*
X167699D01*
X167750Y132649D01*
X167800Y132598D01*
X167851D01*
Y132649D01*
X167800Y132700D01*
X167851Y132751D01*
Y132802D01*
X167800D01*
X167750Y132751D01*
X167699Y132802D01*
X167648D01*
Y132751D01*
X167699Y132700D01*
X167648Y132649D01*
Y132598D01*
X174547Y134797D02*
X174648D01*
X174750Y134898D01*
X174852Y134797D01*
X174953D01*
Y134898D01*
X174852Y135000D01*
X174953Y135102D01*
Y135203D01*
X174852D01*
X174750Y135102D01*
X174648Y135203D01*
X174547D01*
Y135102D01*
X174648Y135000D01*
X174547Y134898D01*
Y134797D01*
X174648Y134898D02*
X174699D01*
X174750Y134949D01*
X174801Y134898D01*
X174852D01*
Y134949D01*
X174801Y135000D01*
X174852Y135051D01*
Y135102D01*
X174801D01*
X174750Y135051D01*
X174699Y135102D01*
X174648D01*
Y135051D01*
X174699Y135000D01*
X174648Y134949D01*
Y134898D01*
X169875Y143350D02*
Y143689D01*
X170044Y143858D01*
X170214Y143689D01*
Y143350D01*
Y143604D01*
X169875D01*
X164047Y134547D02*
X164148D01*
X164250Y134648D01*
X164352Y134547D01*
X164453D01*
Y134648D01*
X164352Y134750D01*
X164453Y134852D01*
Y134953D01*
X164352D01*
X164250Y134852D01*
X164148Y134953D01*
X164047D01*
Y134852D01*
X164148Y134750D01*
X164047Y134648D01*
Y134547D01*
X164148Y134648D02*
X164199D01*
X164250Y134699D01*
X164301Y134648D01*
X164352D01*
Y134699D01*
X164301Y134750D01*
X164352Y134801D01*
Y134852D01*
X164301D01*
X164250Y134801D01*
X164199Y134852D01*
X164148D01*
Y134801D01*
X164199Y134750D01*
X164148Y134699D01*
Y134648D01*
X171897Y132224D02*
X171998D01*
X172100Y132326D01*
X172202Y132224D01*
X172303D01*
Y132326D01*
X172202Y132427D01*
X172303Y132529D01*
Y132630D01*
X172202D01*
X172100Y132529D01*
X171998Y132630D01*
X171897D01*
Y132529D01*
X171998Y132427D01*
X171897Y132326D01*
Y132224D01*
X171998Y132326D02*
X172049D01*
X172100Y132376D01*
X172151Y132326D01*
X172202D01*
Y132376D01*
X172151Y132427D01*
X172202Y132478D01*
Y132529D01*
X172151D01*
X172100Y132478D01*
X172049Y132529D01*
X171998D01*
Y132478D01*
X172049Y132427D01*
X171998Y132376D01*
Y132326D01*
X170996Y132797D02*
X171098D01*
X171200Y132898D01*
X171301Y132797D01*
X171403D01*
Y132898D01*
X171301Y133000D01*
X171403Y133101D01*
Y133203D01*
X171301D01*
X171200Y133101D01*
X171098Y133203D01*
X170996D01*
Y133101D01*
X171098Y133000D01*
X170996Y132898D01*
Y132797D01*
X171098Y132898D02*
X171149D01*
X171200Y132949D01*
X171250Y132898D01*
X171301D01*
Y132949D01*
X171250Y133000D01*
X171301Y133051D01*
Y133101D01*
X171250D01*
X171200Y133051D01*
X171149Y133101D01*
X171098D01*
Y133051D01*
X171149Y133000D01*
X171098Y132949D01*
Y132898D01*
X173547Y142672D02*
X173648D01*
X173750Y142773D01*
X173852Y142672D01*
X173953D01*
Y142773D01*
X173852Y142875D01*
X173953Y142977D01*
Y143078D01*
X173852D01*
X173750Y142977D01*
X173648Y143078D01*
X173547D01*
Y142977D01*
X173648Y142875D01*
X173547Y142773D01*
Y142672D01*
X173648Y142773D02*
X173699D01*
X173750Y142824D01*
X173801Y142773D01*
X173852D01*
Y142824D01*
X173801Y142875D01*
X173852Y142926D01*
Y142977D01*
X173801D01*
X173750Y142926D01*
X173699Y142977D01*
X173648D01*
Y142926D01*
X173699Y142875D01*
X173648Y142824D01*
Y142773D01*
X174772Y140570D02*
X174873D01*
X174975Y140671D01*
X175077Y140570D01*
X175178D01*
Y140671D01*
X175077Y140773D01*
X175178Y140875D01*
Y140976D01*
X175077D01*
X174975Y140875D01*
X174873Y140976D01*
X174772D01*
Y140875D01*
X174873Y140773D01*
X174772Y140671D01*
Y140570D01*
X174873Y140671D02*
X174924D01*
X174975Y140722D01*
X175026Y140671D01*
X175077D01*
Y140722D01*
X175026Y140773D01*
X175077Y140824D01*
Y140875D01*
X175026D01*
X174975Y140824D01*
X174924Y140875D01*
X174873D01*
Y140824D01*
X174924Y140773D01*
X174873Y140722D01*
Y140671D01*
X165996Y132797D02*
X166098D01*
X166200Y132898D01*
X166301Y132797D01*
X166403D01*
Y132898D01*
X166301Y133000D01*
X166403Y133101D01*
Y133203D01*
X166301D01*
X166200Y133101D01*
X166098Y133203D01*
X165996D01*
Y133101D01*
X166098Y133000D01*
X165996Y132898D01*
Y132797D01*
X166098Y132898D02*
X166149D01*
X166200Y132949D01*
X166250Y132898D01*
X166301D01*
Y132949D01*
X166250Y133000D01*
X166301Y133051D01*
Y133101D01*
X166250D01*
X166200Y133051D01*
X166149Y133101D01*
X166098D01*
Y133051D01*
X166149Y133000D01*
X166098Y132949D01*
Y132898D01*
X167925Y142500D02*
Y142839D01*
X168094Y143008D01*
X168264Y142839D01*
Y142500D01*
Y142754D01*
X167925D01*
X169875Y142500D02*
Y142839D01*
X170044Y143008D01*
X170214Y142839D01*
Y142500D01*
Y142754D01*
X169875D01*
X139000Y80997D02*
X138797Y81403D01*
X139203D01*
X139000Y80997D01*
Y81098D02*
X138898Y81302D01*
X139102D01*
X139000Y81098D01*
X144897Y81297D02*
X144998D01*
X145100Y81398D01*
X145202Y81297D01*
X145303D01*
Y81398D01*
X145202Y81500D01*
X145303Y81602D01*
Y81703D01*
X145202D01*
X145100Y81602D01*
X144998Y81703D01*
X144897D01*
Y81602D01*
X144998Y81500D01*
X144897Y81398D01*
Y81297D01*
X144998Y81398D02*
X145049D01*
X145100Y81449D01*
X145151Y81398D01*
X145202D01*
Y81449D01*
X145151Y81500D01*
X145202Y81551D01*
Y81602D01*
X145151D01*
X145100Y81551D01*
X145049Y81602D01*
X144998D01*
Y81551D01*
X145049Y81500D01*
X144998Y81449D01*
Y81398D01*
X52897Y125897D02*
X52998D01*
X53100Y125998D01*
X53202Y125897D01*
X53303D01*
Y125998D01*
X53202Y126100D01*
X53303Y126202D01*
Y126303D01*
X53202D01*
X53100Y126202D01*
X52998Y126303D01*
X52897D01*
Y126202D01*
X52998Y126100D01*
X52897Y125998D01*
Y125897D01*
X52998Y125998D02*
X53049D01*
X53100Y126049D01*
X53151Y125998D01*
X53202D01*
Y126049D01*
X53151Y126100D01*
X53202Y126151D01*
Y126202D01*
X53151D01*
X53100Y126151D01*
X53049Y126202D01*
X52998D01*
Y126151D01*
X53049Y126100D01*
X52998Y126049D01*
Y125998D01*
X53198Y127550D02*
Y127448D01*
X53402D01*
Y127550D01*
X53503D01*
Y127753D01*
X53402D01*
Y127855D01*
X53198D01*
Y127753D01*
X53097D01*
Y127550D01*
X53198D01*
X53249Y127601D02*
Y127550D01*
X53351D01*
Y127601D01*
X53402D01*
Y127702D01*
X53351D01*
Y127753D01*
X53249D01*
Y127702D01*
X53198D01*
Y127601D01*
X53249D01*
X95898Y117698D02*
Y117597D01*
X96102D01*
Y117698D01*
X96203D01*
Y117902D01*
X96102D01*
Y118003D01*
X95898D01*
Y117902D01*
X95797D01*
Y117698D01*
X95898D01*
X95949Y117749D02*
Y117698D01*
X96051D01*
Y117749D01*
X96102D01*
Y117851D01*
X96051D01*
Y117902D01*
X95949D01*
Y117851D01*
X95898D01*
Y117749D01*
X95949D01*
X90698Y115698D02*
Y115597D01*
X90902D01*
Y115698D01*
X91003D01*
Y115902D01*
X90902D01*
Y116003D01*
X90698D01*
Y115902D01*
X90597D01*
Y115698D01*
X90698D01*
X90749Y115749D02*
Y115698D01*
X90851D01*
Y115749D01*
X90902D01*
Y115851D01*
X90851D01*
Y115902D01*
X90749D01*
Y115851D01*
X90698D01*
Y115749D01*
X90749D01*
X95648Y119048D02*
Y118947D01*
X95852D01*
Y119048D01*
X95953D01*
Y119252D01*
X95852D01*
Y119353D01*
X95648D01*
Y119252D01*
X95547D01*
Y119048D01*
X95648D01*
X95699Y119099D02*
Y119048D01*
X95801D01*
Y119099D01*
X95852D01*
Y119201D01*
X95801D01*
Y119252D01*
X95699D01*
Y119201D01*
X95648D01*
Y119099D01*
X95699D01*
X95448Y120348D02*
Y120247D01*
X95652D01*
Y120348D01*
X95753D01*
Y120552D01*
X95652D01*
Y120653D01*
X95448D01*
Y120552D01*
X95347D01*
Y120348D01*
X95448D01*
X95499Y120399D02*
Y120348D01*
X95601D01*
Y120399D01*
X95652D01*
Y120501D01*
X95601D01*
Y120552D01*
X95499D01*
Y120501D01*
X95448D01*
Y120399D01*
X95499D01*
X90698Y117698D02*
Y117597D01*
X90902D01*
Y117698D01*
X91003D01*
Y117902D01*
X90902D01*
Y118003D01*
X90698D01*
Y117902D01*
X90597D01*
Y117698D01*
X90698D01*
X90749Y117749D02*
Y117698D01*
X90851D01*
Y117749D01*
X90902D01*
Y117851D01*
X90851D01*
Y117902D01*
X90749D01*
Y117851D01*
X90698D01*
Y117749D01*
X90749D01*
X72898Y122048D02*
Y121947D01*
X73102D01*
Y122048D01*
X73203D01*
Y122252D01*
X73102D01*
Y122353D01*
X72898D01*
Y122252D01*
X72797D01*
Y122048D01*
X72898D01*
X72949Y122099D02*
Y122048D01*
X73051D01*
Y122099D01*
X73102D01*
Y122201D01*
X73051D01*
Y122252D01*
X72949D01*
Y122201D01*
X72898D01*
Y122099D01*
X72949D01*
X71298Y123598D02*
Y123497D01*
X71502D01*
Y123598D01*
X71603D01*
Y123802D01*
X71502D01*
Y123903D01*
X71298D01*
Y123802D01*
X71197D01*
Y123598D01*
X71298D01*
X71349Y123649D02*
Y123598D01*
X71451D01*
Y123649D01*
X71502D01*
Y123751D01*
X71451D01*
Y123802D01*
X71349D01*
Y123751D01*
X71298D01*
Y123649D01*
X71349D01*
X72098Y122798D02*
Y122697D01*
X72302D01*
Y122798D01*
X72403D01*
Y123002D01*
X72302D01*
Y123103D01*
X72098D01*
Y123002D01*
X71997D01*
Y122798D01*
X72098D01*
X72149Y122849D02*
Y122798D01*
X72251D01*
Y122849D01*
X72302D01*
Y122951D01*
X72251D01*
Y123002D01*
X72149D01*
Y122951D01*
X72098D01*
Y122849D01*
X72149D01*
X81447Y119037D02*
X81548D01*
X81650Y119138D01*
X81752Y119037D01*
X81853D01*
Y119138D01*
X81752Y119240D01*
X81853Y119342D01*
Y119443D01*
X81752D01*
X81650Y119342D01*
X81548Y119443D01*
X81447D01*
Y119342D01*
X81548Y119240D01*
X81447Y119138D01*
Y119037D01*
X81548Y119138D02*
X81599D01*
X81650Y119189D01*
X81701Y119138D01*
X81752D01*
Y119189D01*
X81701Y119240D01*
X81752Y119291D01*
Y119342D01*
X81701D01*
X81650Y119291D01*
X81599Y119342D01*
X81548D01*
Y119291D01*
X81599Y119240D01*
X81548Y119189D01*
Y119138D01*
X91797Y107197D02*
X91898D01*
X92000Y107298D01*
X92102Y107197D01*
X92203D01*
Y107298D01*
X92102Y107400D01*
X92203Y107502D01*
Y107603D01*
X92102D01*
X92000Y107502D01*
X91898Y107603D01*
X91797D01*
Y107502D01*
X91898Y107400D01*
X91797Y107298D01*
Y107197D01*
X91898Y107298D02*
X91949D01*
X92000Y107349D01*
X92051Y107298D01*
X92102D01*
Y107349D01*
X92051Y107400D01*
X92102Y107451D01*
Y107502D01*
X92051D01*
X92000Y107451D01*
X91949Y107502D01*
X91898D01*
Y107451D01*
X91949Y107400D01*
X91898Y107349D01*
Y107298D01*
X113298Y101298D02*
Y101197D01*
X113502D01*
Y101298D01*
X113603D01*
Y101502D01*
X113502D01*
Y101603D01*
X113298D01*
Y101502D01*
X113197D01*
Y101298D01*
X113298D01*
X113349Y101349D02*
Y101298D01*
X113451D01*
Y101349D01*
X113502D01*
Y101451D01*
X113451D01*
Y101502D01*
X113349D01*
Y101451D01*
X113298D01*
Y101349D01*
X113349D01*
X177547Y73022D02*
X177648D01*
X177750Y73123D01*
X177852Y73022D01*
X177953D01*
Y73123D01*
X177852Y73225D01*
X177953Y73327D01*
Y73428D01*
X177852D01*
X177750Y73327D01*
X177648Y73428D01*
X177547D01*
Y73327D01*
X177648Y73225D01*
X177547Y73123D01*
Y73022D01*
X177648Y73123D02*
X177699D01*
X177750Y73174D01*
X177801Y73123D01*
X177852D01*
Y73174D01*
X177801Y73225D01*
X177852Y73276D01*
Y73327D01*
X177801D01*
X177750Y73276D01*
X177699Y73327D01*
X177648D01*
Y73276D01*
X177699Y73225D01*
X177648Y73174D01*
Y73123D01*
X70630Y112465D02*
X70731D01*
X70833Y112567D01*
X70934Y112465D01*
X71036D01*
Y112567D01*
X70934Y112669D01*
X71036Y112770D01*
Y112872D01*
X70934D01*
X70833Y112770D01*
X70731Y112872D01*
X70630D01*
Y112770D01*
X70731Y112669D01*
X70630Y112567D01*
Y112465D01*
X70731Y112567D02*
X70782D01*
X70833Y112618D01*
X70884Y112567D01*
X70934D01*
Y112618D01*
X70884Y112669D01*
X70934Y112719D01*
Y112770D01*
X70884D01*
X70833Y112719D01*
X70782Y112770D01*
X70731D01*
Y112719D01*
X70782Y112669D01*
X70731Y112618D01*
Y112567D01*
X176722Y73797D02*
X176823D01*
X176925Y73898D01*
X177027Y73797D01*
X177128D01*
Y73898D01*
X177027Y74000D01*
X177128Y74102D01*
Y74203D01*
X177027D01*
X176925Y74102D01*
X176823Y74203D01*
X176722D01*
Y74102D01*
X176823Y74000D01*
X176722Y73898D01*
Y73797D01*
X176823Y73898D02*
X176874D01*
X176925Y73949D01*
X176976Y73898D01*
X177027D01*
Y73949D01*
X176976Y74000D01*
X177027Y74051D01*
Y74102D01*
X176976D01*
X176925Y74051D01*
X176874Y74102D01*
X176823D01*
Y74051D01*
X176874Y74000D01*
X176823Y73949D01*
Y73898D01*
X70978Y111465D02*
X71080D01*
X71181Y111567D01*
X71283Y111465D01*
X71385D01*
Y111567D01*
X71283Y111669D01*
X71385Y111770D01*
Y111872D01*
X71283D01*
X71181Y111770D01*
X71080Y111872D01*
X70978D01*
Y111770D01*
X71080Y111669D01*
X70978Y111567D01*
Y111465D01*
X71080Y111567D02*
X71131D01*
X71181Y111618D01*
X71232Y111567D01*
X71283D01*
Y111618D01*
X71232Y111669D01*
X71283Y111719D01*
Y111770D01*
X71232D01*
X71181Y111719D01*
X71131Y111770D01*
X71080D01*
Y111719D01*
X71131Y111669D01*
X71080Y111618D01*
Y111567D01*
X178497Y71047D02*
X178598D01*
X178700Y71148D01*
X178802Y71047D01*
X178903D01*
Y71148D01*
X178802Y71250D01*
X178903Y71352D01*
Y71453D01*
X178802D01*
X178700Y71352D01*
X178598Y71453D01*
X178497D01*
Y71352D01*
X178598Y71250D01*
X178497Y71148D01*
Y71047D01*
X178598Y71148D02*
X178649D01*
X178700Y71199D01*
X178751Y71148D01*
X178802D01*
Y71199D01*
X178751Y71250D01*
X178802Y71301D01*
Y71352D01*
X178751D01*
X178700Y71301D01*
X178649Y71352D01*
X178598D01*
Y71301D01*
X178649Y71250D01*
X178598Y71199D01*
Y71148D01*
X175966Y74687D02*
X176068D01*
X176169Y74788D01*
X176271Y74687D01*
X176372D01*
Y74788D01*
X176271Y74890D01*
X176372Y74992D01*
Y75093D01*
X176271D01*
X176169Y74992D01*
X176068Y75093D01*
X175966D01*
Y74992D01*
X176068Y74890D01*
X175966Y74788D01*
Y74687D01*
X176068Y74788D02*
X176118D01*
X176169Y74839D01*
X176220Y74788D01*
X176271D01*
Y74839D01*
X176220Y74890D01*
X176271Y74941D01*
Y74992D01*
X176220D01*
X176169Y74941D01*
X176118Y74992D01*
X176068D01*
Y74941D01*
X176118Y74890D01*
X176068Y74839D01*
Y74788D01*
X172497Y74597D02*
X172598D01*
X172700Y74698D01*
X172802Y74597D01*
X172903D01*
Y74698D01*
X172802Y74800D01*
X172903Y74902D01*
Y75003D01*
X172802D01*
X172700Y74902D01*
X172598Y75003D01*
X172497D01*
Y74902D01*
X172598Y74800D01*
X172497Y74698D01*
Y74597D01*
X172598Y74698D02*
X172649D01*
X172700Y74749D01*
X172751Y74698D01*
X172802D01*
Y74749D01*
X172751Y74800D01*
X172802Y74851D01*
Y74902D01*
X172751D01*
X172700Y74851D01*
X172649Y74902D01*
X172598D01*
Y74851D01*
X172649Y74800D01*
X172598Y74749D01*
Y74698D01*
X171697Y73697D02*
X171798D01*
X171900Y73798D01*
X172002Y73697D01*
X172103D01*
Y73798D01*
X172002Y73900D01*
X172103Y74002D01*
Y74103D01*
X172002D01*
X171900Y74002D01*
X171798Y74103D01*
X171697D01*
Y74002D01*
X171798Y73900D01*
X171697Y73798D01*
Y73697D01*
X171798Y73798D02*
X171849D01*
X171900Y73849D01*
X171951Y73798D01*
X172002D01*
Y73849D01*
X171951Y73900D01*
X172002Y73951D01*
Y74002D01*
X171951D01*
X171900Y73951D01*
X171849Y74002D01*
X171798D01*
Y73951D01*
X171849Y73900D01*
X171798Y73849D01*
Y73798D01*
X88547Y127417D02*
X88648D01*
X88750Y127518D01*
X88852Y127417D01*
X88953D01*
Y127518D01*
X88852Y127620D01*
X88953Y127722D01*
Y127823D01*
X88852D01*
X88750Y127722D01*
X88648Y127823D01*
X88547D01*
Y127722D01*
X88648Y127620D01*
X88547Y127518D01*
Y127417D01*
X88648Y127518D02*
X88699D01*
X88750Y127569D01*
X88801Y127518D01*
X88852D01*
Y127569D01*
X88801Y127620D01*
X88852Y127671D01*
Y127722D01*
X88801D01*
X88750Y127671D01*
X88699Y127722D01*
X88648D01*
Y127671D01*
X88699Y127620D01*
X88648Y127569D01*
Y127518D01*
X95297Y109297D02*
X95398D01*
X95500Y109398D01*
X95602Y109297D01*
X95703D01*
Y109398D01*
X95602Y109500D01*
X95703Y109602D01*
Y109703D01*
X95602D01*
X95500Y109602D01*
X95398Y109703D01*
X95297D01*
Y109602D01*
X95398Y109500D01*
X95297Y109398D01*
Y109297D01*
X95398Y109398D02*
X95449D01*
X95500Y109449D01*
X95551Y109398D01*
X95602D01*
Y109449D01*
X95551Y109500D01*
X95602Y109551D01*
Y109602D01*
X95551D01*
X95500Y109551D01*
X95449Y109602D01*
X95398D01*
Y109551D01*
X95449Y109500D01*
X95398Y109449D01*
Y109398D01*
X159497Y66097D02*
X159598D01*
X159700Y66198D01*
X159802Y66097D01*
X159903D01*
Y66198D01*
X159802Y66300D01*
X159903Y66402D01*
Y66503D01*
X159802D01*
X159700Y66402D01*
X159598Y66503D01*
X159497D01*
Y66402D01*
X159598Y66300D01*
X159497Y66198D01*
Y66097D01*
X159598Y66198D02*
X159649D01*
X159700Y66249D01*
X159751Y66198D01*
X159802D01*
Y66249D01*
X159751Y66300D01*
X159802Y66351D01*
Y66402D01*
X159751D01*
X159700Y66351D01*
X159649Y66402D01*
X159598D01*
Y66351D01*
X159649Y66300D01*
X159598Y66249D01*
Y66198D01*
X158497Y66897D02*
X158598D01*
X158700Y66998D01*
X158802Y66897D01*
X158903D01*
Y66998D01*
X158802Y67100D01*
X158903Y67202D01*
Y67303D01*
X158802D01*
X158700Y67202D01*
X158598Y67303D01*
X158497D01*
Y67202D01*
X158598Y67100D01*
X158497Y66998D01*
Y66897D01*
X158598Y66998D02*
X158649D01*
X158700Y67049D01*
X158751Y66998D01*
X158802D01*
Y67049D01*
X158751Y67100D01*
X158802Y67151D01*
Y67202D01*
X158751D01*
X158700Y67151D01*
X158649Y67202D01*
X158598D01*
Y67151D01*
X158649Y67100D01*
X158598Y67049D01*
Y66998D01*
X60747Y127097D02*
X60848D01*
X60950Y127198D01*
X61052Y127097D01*
X61153D01*
Y127198D01*
X61052Y127300D01*
X61153Y127402D01*
Y127503D01*
X61052D01*
X60950Y127402D01*
X60848Y127503D01*
X60747D01*
Y127402D01*
X60848Y127300D01*
X60747Y127198D01*
Y127097D01*
X60848Y127198D02*
X60899D01*
X60950Y127249D01*
X61001Y127198D01*
X61052D01*
Y127249D01*
X61001Y127300D01*
X61052Y127351D01*
Y127402D01*
X61001D01*
X60950Y127351D01*
X60899Y127402D01*
X60848D01*
Y127351D01*
X60899Y127300D01*
X60848Y127249D01*
Y127198D01*
X126798Y123298D02*
Y123197D01*
X127002D01*
Y123298D01*
X127103D01*
Y123502D01*
X127002D01*
Y123603D01*
X126798D01*
Y123502D01*
X126697D01*
Y123298D01*
X126798D01*
X126849Y123349D02*
Y123298D01*
X126951D01*
Y123349D01*
X127002D01*
Y123451D01*
X126951D01*
Y123502D01*
X126849D01*
Y123451D01*
X126798D01*
Y123349D01*
X126849D01*
X125500Y138300D02*
Y138638D01*
X125669Y138808D01*
X125838Y138638D01*
Y138300D01*
Y138554D01*
X125500D01*
X125525Y139000D02*
Y139339D01*
X125694Y139508D01*
X125864Y139339D01*
Y139000D01*
Y139254D01*
X125525D01*
X131898Y123548D02*
Y123447D01*
X132102D01*
Y123548D01*
X132203D01*
Y123752D01*
X132102D01*
Y123853D01*
X131898D01*
Y123752D01*
X131797D01*
Y123548D01*
X131898D01*
X131949Y123599D02*
Y123548D01*
X132051D01*
Y123599D01*
X132102D01*
Y123701D01*
X132051D01*
Y123752D01*
X131949D01*
Y123701D01*
X131898D01*
Y123599D01*
X131949D01*
X108672Y79547D02*
X108773D01*
X108875Y79648D01*
X108977Y79547D01*
X109078D01*
Y79648D01*
X108977Y79750D01*
X109078Y79852D01*
Y79953D01*
X108977D01*
X108875Y79852D01*
X108773Y79953D01*
X108672D01*
Y79852D01*
X108773Y79750D01*
X108672Y79648D01*
Y79547D01*
X108773Y79648D02*
X108824D01*
X108875Y79699D01*
X108926Y79648D01*
X108977D01*
Y79699D01*
X108926Y79750D01*
X108977Y79801D01*
Y79852D01*
X108926D01*
X108875Y79801D01*
X108824Y79852D01*
X108773D01*
Y79801D01*
X108824Y79750D01*
X108773Y79699D01*
Y79648D01*
X94297Y79797D02*
X94398D01*
X94500Y79898D01*
X94602Y79797D01*
X94703D01*
Y79898D01*
X94602Y80000D01*
X94703Y80102D01*
Y80203D01*
X94602D01*
X94500Y80102D01*
X94398Y80203D01*
X94297D01*
Y80102D01*
X94398Y80000D01*
X94297Y79898D01*
Y79797D01*
X94398Y79898D02*
X94449D01*
X94500Y79949D01*
X94551Y79898D01*
X94602D01*
Y79949D01*
X94551Y80000D01*
X94602Y80051D01*
Y80102D01*
X94551D01*
X94500Y80051D01*
X94449Y80102D01*
X94398D01*
Y80051D01*
X94449Y80000D01*
X94398Y79949D01*
Y79898D01*
X100952Y111252D02*
Y111150D01*
X101155D01*
Y111252D01*
X101257D01*
Y111455D01*
X101155D01*
Y111557D01*
X100952D01*
Y111455D01*
X100850D01*
Y111252D01*
X100952D01*
X101003Y111303D02*
Y111252D01*
X101104D01*
Y111303D01*
X101155D01*
Y111404D01*
X101104D01*
Y111455D01*
X101003D01*
Y111404D01*
X100952D01*
Y111303D01*
X101003D01*
X109192Y77402D02*
X109293D01*
X109395Y77503D01*
X109497Y77402D01*
X109598D01*
Y77503D01*
X109497Y77605D01*
X109598Y77707D01*
Y77808D01*
X109497D01*
X109395Y77707D01*
X109293Y77808D01*
X109192D01*
Y77707D01*
X109293Y77605D01*
X109192Y77503D01*
Y77402D01*
X109293Y77503D02*
X109344D01*
X109395Y77554D01*
X109446Y77503D01*
X109497D01*
Y77554D01*
X109446Y77605D01*
X109497Y77656D01*
Y77707D01*
X109446D01*
X109395Y77656D01*
X109344Y77707D01*
X109293D01*
Y77656D01*
X109344Y77605D01*
X109293Y77554D01*
Y77503D01*
X93297Y79197D02*
X93398D01*
X93500Y79298D01*
X93601Y79197D01*
X93703D01*
Y79298D01*
X93601Y79400D01*
X93703Y79501D01*
Y79603D01*
X93601D01*
X93500Y79501D01*
X93398Y79603D01*
X93297D01*
Y79501D01*
X93398Y79400D01*
X93297Y79298D01*
Y79197D01*
X93398Y79298D02*
X93449D01*
X93500Y79349D01*
X93551Y79298D01*
X93601D01*
Y79349D01*
X93551Y79400D01*
X93601Y79451D01*
Y79501D01*
X93551D01*
X93500Y79451D01*
X93449Y79501D01*
X93398D01*
Y79451D01*
X93449Y79400D01*
X93398Y79349D01*
Y79298D01*
X99598Y111148D02*
Y111047D01*
X99802D01*
Y111148D01*
X99903D01*
Y111352D01*
X99802D01*
Y111453D01*
X99598D01*
Y111352D01*
X99497D01*
Y111148D01*
X99598D01*
X99649Y111199D02*
Y111148D01*
X99751D01*
Y111199D01*
X99802D01*
Y111301D01*
X99751D01*
Y111352D01*
X99649D01*
Y111301D01*
X99598D01*
Y111199D01*
X99649D01*
X141697Y114497D02*
X141798D01*
X141900Y114598D01*
X142002Y114497D01*
X142103D01*
Y114598D01*
X142002Y114700D01*
X142103Y114802D01*
Y114903D01*
X142002D01*
X141900Y114802D01*
X141798Y114903D01*
X141697D01*
Y114802D01*
X141798Y114700D01*
X141697Y114598D01*
Y114497D01*
X141798Y114598D02*
X141849D01*
X141900Y114649D01*
X141951Y114598D01*
X142002D01*
Y114649D01*
X141951Y114700D01*
X142002Y114751D01*
Y114802D01*
X141951D01*
X141900Y114751D01*
X141849Y114802D01*
X141798D01*
Y114751D01*
X141849Y114700D01*
X141798Y114649D01*
Y114598D01*
X113398Y142998D02*
Y142897D01*
X113602D01*
Y142998D01*
X113703D01*
Y143202D01*
X113602D01*
Y143303D01*
X113398D01*
Y143202D01*
X113297D01*
Y142998D01*
X113398D01*
X113449Y143049D02*
Y142998D01*
X113551D01*
Y143049D01*
X113602D01*
Y143151D01*
X113551D01*
Y143202D01*
X113449D01*
Y143151D01*
X113398D01*
Y143049D01*
X113449D01*
X119397Y142997D02*
X119498D01*
X119600Y143098D01*
X119702Y142997D01*
X119803D01*
Y143098D01*
X119702Y143200D01*
X119803Y143302D01*
Y143403D01*
X119702D01*
X119600Y143302D01*
X119498Y143403D01*
X119397D01*
Y143302D01*
X119498Y143200D01*
X119397Y143098D01*
Y142997D01*
X119498Y143098D02*
X119549D01*
X119600Y143149D01*
X119651Y143098D01*
X119702D01*
Y143149D01*
X119651Y143200D01*
X119702Y143251D01*
Y143302D01*
X119651D01*
X119600Y143251D01*
X119549Y143302D01*
X119498D01*
Y143251D01*
X119549Y143200D01*
X119498Y143149D01*
Y143098D01*
X68398Y135148D02*
Y135047D01*
X68602D01*
Y135148D01*
X68703D01*
Y135352D01*
X68602D01*
Y135453D01*
X68398D01*
Y135352D01*
X68297D01*
Y135148D01*
X68398D01*
X68449Y135199D02*
Y135148D01*
X68551D01*
Y135199D01*
X68602D01*
Y135301D01*
X68551D01*
Y135352D01*
X68449D01*
Y135301D01*
X68398D01*
Y135199D01*
X68449D01*
X114248Y143798D02*
Y143697D01*
X114452D01*
Y143798D01*
X114553D01*
Y144002D01*
X114452D01*
Y144103D01*
X114248D01*
Y144002D01*
X114147D01*
Y143798D01*
X114248D01*
X114299Y143849D02*
Y143798D01*
X114401D01*
Y143849D01*
X114452D01*
Y143951D01*
X114401D01*
Y144002D01*
X114299D01*
Y143951D01*
X114248D01*
Y143849D01*
X114299D01*
X138498Y129498D02*
Y129397D01*
X138702D01*
Y129498D01*
X138803D01*
Y129702D01*
X138702D01*
Y129803D01*
X138498D01*
Y129702D01*
X138397D01*
Y129498D01*
X138498D01*
X138549Y129549D02*
Y129498D01*
X138651D01*
Y129549D01*
X138702D01*
Y129651D01*
X138651D01*
Y129702D01*
X138549D01*
Y129651D01*
X138498D01*
Y129549D01*
X138549D01*
X127922Y128374D02*
X128023D01*
X128125Y128475D01*
X128227Y128374D01*
X128328D01*
Y128475D01*
X128227Y128577D01*
X128328Y128679D01*
Y128780D01*
X128227D01*
X128125Y128679D01*
X128023Y128780D01*
X127922D01*
Y128679D01*
X128023Y128577D01*
X127922Y128475D01*
Y128374D01*
X128023Y128475D02*
X128074D01*
X128125Y128526D01*
X128176Y128475D01*
X128227D01*
Y128526D01*
X128176Y128577D01*
X128227Y128628D01*
Y128679D01*
X128176D01*
X128125Y128628D01*
X128074Y128679D01*
X128023D01*
Y128628D01*
X128074Y128577D01*
X128023Y128526D01*
Y128475D01*
X128653Y127597D02*
X128754D01*
X128856Y127698D01*
X128958Y127597D01*
X129059D01*
Y127698D01*
X128958Y127800D01*
X129059Y127902D01*
Y128003D01*
X128958D01*
X128856Y127902D01*
X128754Y128003D01*
X128653D01*
Y127902D01*
X128754Y127800D01*
X128653Y127698D01*
Y127597D01*
X128754Y127698D02*
X128805D01*
X128856Y127749D01*
X128907Y127698D01*
X128958D01*
Y127749D01*
X128907Y127800D01*
X128958Y127851D01*
Y127902D01*
X128907D01*
X128856Y127851D01*
X128805Y127902D01*
X128754D01*
Y127851D01*
X128805Y127800D01*
X128754Y127749D01*
Y127698D01*
X130697Y128197D02*
X130798D01*
X130900Y128298D01*
X131002Y128197D01*
X131103D01*
Y128298D01*
X131002Y128400D01*
X131103Y128502D01*
Y128603D01*
X131002D01*
X130900Y128502D01*
X130798Y128603D01*
X130697D01*
Y128502D01*
X130798Y128400D01*
X130697Y128298D01*
Y128197D01*
X130798Y128298D02*
X130849D01*
X130900Y128349D01*
X130951Y128298D01*
X131002D01*
Y128349D01*
X130951Y128400D01*
X131002Y128451D01*
Y128502D01*
X130951D01*
X130900Y128451D01*
X130849Y128502D01*
X130798D01*
Y128451D01*
X130849Y128400D01*
X130798Y128349D01*
Y128298D01*
X145098Y125623D02*
Y125522D01*
X145302D01*
Y125623D01*
X145403D01*
Y125827D01*
X145302D01*
Y125928D01*
X145098D01*
Y125827D01*
X144997D01*
Y125623D01*
X145098D01*
X145149Y125674D02*
Y125623D01*
X145251D01*
Y125674D01*
X145302D01*
Y125776D01*
X145251D01*
Y125827D01*
X145149D01*
Y125776D01*
X145098D01*
Y125674D01*
X145149D01*
X172300Y138350D02*
Y138689D01*
X172469Y138858D01*
X172639Y138689D01*
Y138350D01*
Y138604D01*
X172300D01*
Y137250D02*
Y137589D01*
X172469Y137758D01*
X172639Y137589D01*
Y137250D01*
Y137504D01*
X172300D01*
X171200Y138350D02*
Y138689D01*
X171369Y138858D01*
X171539Y138689D01*
Y138350D01*
Y138604D01*
X171200D01*
Y137250D02*
Y137589D01*
X171369Y137758D01*
X171539Y137589D01*
Y137250D01*
Y137504D01*
X171200D01*
X170100Y138350D02*
Y138689D01*
X170269Y138858D01*
X170439Y138689D01*
Y138350D01*
Y138604D01*
X170100D01*
Y137250D02*
Y137589D01*
X170269Y137758D01*
X170439Y137589D01*
Y137250D01*
Y137504D01*
X170100D01*
X169000Y138350D02*
Y138689D01*
X169169Y138858D01*
X169339Y138689D01*
Y138350D01*
Y138604D01*
X169000D01*
Y137250D02*
Y137589D01*
X169169Y137758D01*
X169339Y137589D01*
Y137250D01*
Y137504D01*
X169000D01*
X167900Y138350D02*
Y138689D01*
X168069Y138858D01*
X168239Y138689D01*
Y138350D01*
Y138604D01*
X167900D01*
Y137250D02*
Y137589D01*
X168069Y137758D01*
X168239Y137589D01*
Y137250D01*
Y137504D01*
X167900D01*
X166800Y138350D02*
Y138689D01*
X166969Y138858D01*
X167139Y138689D01*
Y138350D01*
Y138604D01*
X166800D01*
Y137250D02*
Y137589D01*
X166969Y137758D01*
X167139Y137589D01*
Y137250D01*
Y137504D01*
X166800D01*
X145297Y80097D02*
X145398D01*
X145500Y80198D01*
X145602Y80097D01*
X145703D01*
Y80198D01*
X145602Y80300D01*
X145703Y80402D01*
Y80503D01*
X145602D01*
X145500Y80402D01*
X145398Y80503D01*
X145297D01*
Y80402D01*
X145398Y80300D01*
X145297Y80198D01*
Y80097D01*
X145398Y80198D02*
X145449D01*
X145500Y80249D01*
X145551Y80198D01*
X145602D01*
Y80249D01*
X145551Y80300D01*
X145602Y80351D01*
Y80402D01*
X145551D01*
X145500Y80351D01*
X145449Y80402D01*
X145398D01*
Y80351D01*
X145449Y80300D01*
X145398Y80249D01*
Y80198D01*
X145797Y81297D02*
X145898D01*
X146000Y81398D01*
X146102Y81297D01*
X146203D01*
Y81398D01*
X146102Y81500D01*
X146203Y81602D01*
Y81703D01*
X146102D01*
X146000Y81602D01*
X145898Y81703D01*
X145797D01*
Y81602D01*
X145898Y81500D01*
X145797Y81398D01*
Y81297D01*
X145898Y81398D02*
X145949D01*
X146000Y81449D01*
X146051Y81398D01*
X146102D01*
Y81449D01*
X146051Y81500D01*
X146102Y81551D01*
Y81602D01*
X146051D01*
X146000Y81551D01*
X145949Y81602D01*
X145898D01*
Y81551D01*
X145949Y81500D01*
X145898Y81449D01*
Y81398D01*
X79197Y123797D02*
X79298D01*
X79400Y123898D01*
X79502Y123797D01*
X79603D01*
Y123898D01*
X79502Y124000D01*
X79603Y124102D01*
Y124203D01*
X79502D01*
X79400Y124102D01*
X79298Y124203D01*
X79197D01*
Y124102D01*
X79298Y124000D01*
X79197Y123898D01*
Y123797D01*
X79298Y123898D02*
X79349D01*
X79400Y123949D01*
X79451Y123898D01*
X79502D01*
Y123949D01*
X79451Y124000D01*
X79502Y124051D01*
Y124102D01*
X79451D01*
X79400Y124051D01*
X79349Y124102D01*
X79298D01*
Y124051D01*
X79349Y124000D01*
X79298Y123949D01*
Y123898D01*
X79097Y122597D02*
X79198D01*
X79300Y122698D01*
X79402Y122597D01*
X79503D01*
Y122698D01*
X79402Y122800D01*
X79503Y122902D01*
Y123003D01*
X79402D01*
X79300Y122902D01*
X79198Y123003D01*
X79097D01*
Y122902D01*
X79198Y122800D01*
X79097Y122698D01*
Y122597D01*
X79198Y122698D02*
X79249D01*
X79300Y122749D01*
X79351Y122698D01*
X79402D01*
Y122749D01*
X79351Y122800D01*
X79402Y122851D01*
Y122902D01*
X79351D01*
X79300Y122851D01*
X79249Y122902D01*
X79198D01*
Y122851D01*
X79249Y122800D01*
X79198Y122749D01*
Y122698D01*
X78397Y125347D02*
X78498D01*
X78600Y125448D01*
X78702Y125347D01*
X78803D01*
Y125448D01*
X78702Y125550D01*
X78803Y125652D01*
Y125753D01*
X78702D01*
X78600Y125652D01*
X78498Y125753D01*
X78397D01*
Y125652D01*
X78498Y125550D01*
X78397Y125448D01*
Y125347D01*
X78498Y125448D02*
X78549D01*
X78600Y125499D01*
X78651Y125448D01*
X78702D01*
Y125499D01*
X78651Y125550D01*
X78702Y125601D01*
Y125652D01*
X78651D01*
X78600Y125601D01*
X78549Y125652D01*
X78498D01*
Y125601D01*
X78549Y125550D01*
X78498Y125499D01*
Y125448D01*
X129497Y128197D02*
X129598D01*
X129700Y128298D01*
X129801Y128197D01*
X129903D01*
Y128298D01*
X129801Y128400D01*
X129903Y128501D01*
Y128603D01*
X129801D01*
X129700Y128501D01*
X129598Y128603D01*
X129497D01*
Y128501D01*
X129598Y128400D01*
X129497Y128298D01*
Y128197D01*
X129598Y128298D02*
X129649D01*
X129700Y128349D01*
X129751Y128298D01*
X129801D01*
Y128349D01*
X129751Y128400D01*
X129801Y128451D01*
Y128501D01*
X129751D01*
X129700Y128451D01*
X129649Y128501D01*
X129598D01*
Y128451D01*
X129649Y128400D01*
X129598Y128349D01*
Y128298D01*
X127500Y139000D02*
Y139339D01*
X127669Y139508D01*
X127839Y139339D01*
Y139000D01*
Y139254D01*
X127500D01*
Y138300D02*
Y138639D01*
X127669Y138808D01*
X127839Y138639D01*
Y138300D01*
Y138554D01*
X127500D01*
X141481Y143547D02*
X141583D01*
X141684Y143648D01*
X141786Y143547D01*
X141888D01*
Y143648D01*
X141786Y143750D01*
X141888Y143852D01*
Y143953D01*
X141786D01*
X141684Y143852D01*
X141583Y143953D01*
X141481D01*
Y143852D01*
X141583Y143750D01*
X141481Y143648D01*
Y143547D01*
X141583Y143648D02*
X141634D01*
X141684Y143699D01*
X141735Y143648D01*
X141786D01*
Y143699D01*
X141735Y143750D01*
X141786Y143801D01*
Y143852D01*
X141735D01*
X141684Y143801D01*
X141634Y143852D01*
X141583D01*
Y143801D01*
X141634Y143750D01*
X141583Y143699D01*
Y143648D01*
X173472Y144197D02*
X173573D01*
X173675Y144298D01*
X173777Y144197D01*
X173878D01*
Y144298D01*
X173777Y144400D01*
X173878Y144502D01*
Y144603D01*
X173777D01*
X173675Y144502D01*
X173573Y144603D01*
X173472D01*
Y144502D01*
X173573Y144400D01*
X173472Y144298D01*
Y144197D01*
X173573Y144298D02*
X173624D01*
X173675Y144349D01*
X173726Y144298D01*
X173777D01*
Y144349D01*
X173726Y144400D01*
X173777Y144451D01*
Y144502D01*
X173726D01*
X173675Y144451D01*
X173624Y144502D01*
X173573D01*
Y144451D01*
X173624Y144400D01*
X173573Y144349D01*
Y144298D01*
X172968Y145447D02*
X173070D01*
X173171Y145548D01*
X173273Y145447D01*
X173374D01*
Y145548D01*
X173273Y145650D01*
X173374Y145752D01*
Y145853D01*
X173273D01*
X173171Y145752D01*
X173070Y145853D01*
X172968D01*
Y145752D01*
X173070Y145650D01*
X172968Y145548D01*
Y145447D01*
X173070Y145548D02*
X173120D01*
X173171Y145599D01*
X173222Y145548D01*
X173273D01*
Y145599D01*
X173222Y145650D01*
X173273Y145701D01*
Y145752D01*
X173222D01*
X173171Y145701D01*
X173120Y145752D01*
X173070D01*
Y145701D01*
X173120Y145650D01*
X173070Y145599D01*
Y145548D01*
X169597Y121497D02*
X169698D01*
X169800Y121598D01*
X169902Y121497D01*
X170003D01*
Y121598D01*
X169902Y121700D01*
X170003Y121802D01*
Y121903D01*
X169902D01*
X169800Y121802D01*
X169698Y121903D01*
X169597D01*
Y121802D01*
X169698Y121700D01*
X169597Y121598D01*
Y121497D01*
X169698Y121598D02*
X169749D01*
X169800Y121649D01*
X169851Y121598D01*
X169902D01*
Y121649D01*
X169851Y121700D01*
X169902Y121751D01*
Y121802D01*
X169851D01*
X169800Y121751D01*
X169749Y121802D01*
X169698D01*
Y121751D01*
X169749Y121700D01*
X169698Y121649D01*
Y121598D01*
X169096Y114497D02*
X169198D01*
X169300Y114598D01*
X169401Y114497D01*
X169503D01*
Y114598D01*
X169401Y114700D01*
X169503Y114801D01*
Y114903D01*
X169401D01*
X169300Y114801D01*
X169198Y114903D01*
X169096D01*
Y114801D01*
X169198Y114700D01*
X169096Y114598D01*
Y114497D01*
X169198Y114598D02*
X169249D01*
X169300Y114649D01*
X169350Y114598D01*
X169401D01*
Y114649D01*
X169350Y114700D01*
X169401Y114751D01*
Y114801D01*
X169350D01*
X169300Y114751D01*
X169249Y114801D01*
X169198D01*
Y114751D01*
X169249Y114700D01*
X169198Y114649D01*
Y114598D01*
X159797Y89497D02*
X159898D01*
X160000Y89598D01*
X160102Y89497D01*
X160203D01*
Y89598D01*
X160102Y89700D01*
X160203Y89802D01*
Y89903D01*
X160102D01*
X160000Y89802D01*
X159898Y89903D01*
X159797D01*
Y89802D01*
X159898Y89700D01*
X159797Y89598D01*
Y89497D01*
X159898Y89598D02*
X159949D01*
X160000Y89649D01*
X160051Y89598D01*
X160102D01*
Y89649D01*
X160051Y89700D01*
X160102Y89751D01*
Y89802D01*
X160051D01*
X160000Y89751D01*
X159949Y89802D01*
X159898D01*
Y89751D01*
X159949Y89700D01*
X159898Y89649D01*
Y89598D01*
X152893Y64801D02*
X152994D01*
X153096Y64902D01*
X153198Y64801D01*
X153299D01*
Y64902D01*
X153198Y65004D01*
X153299Y65106D01*
Y65207D01*
X153198D01*
X153096Y65106D01*
X152994Y65207D01*
X152893D01*
Y65106D01*
X152994Y65004D01*
X152893Y64902D01*
Y64801D01*
X152994Y64902D02*
X153045D01*
X153096Y64953D01*
X153147Y64902D01*
X153198D01*
Y64953D01*
X153147Y65004D01*
X153198Y65055D01*
Y65106D01*
X153147D01*
X153096Y65055D01*
X153045Y65106D01*
X152994D01*
Y65055D01*
X153045Y65004D01*
X152994Y64953D01*
Y64902D01*
X150347Y65197D02*
X150448D01*
X150550Y65298D01*
X150652Y65197D01*
X150753D01*
Y65298D01*
X150652Y65400D01*
X150753Y65502D01*
Y65603D01*
X150652D01*
X150550Y65502D01*
X150448Y65603D01*
X150347D01*
Y65502D01*
X150448Y65400D01*
X150347Y65298D01*
Y65197D01*
X150448Y65298D02*
X150499D01*
X150550Y65349D01*
X150601Y65298D01*
X150652D01*
Y65349D01*
X150601Y65400D01*
X150652Y65451D01*
Y65502D01*
X150601D01*
X150550Y65451D01*
X150499Y65502D01*
X150448D01*
Y65451D01*
X150499Y65400D01*
X150448Y65349D01*
Y65298D01*
X121897Y123587D02*
X121998D01*
X122100Y123688D01*
X122202Y123587D01*
X122303D01*
Y123688D01*
X122202Y123790D01*
X122303Y123892D01*
Y123993D01*
X122202D01*
X122100Y123892D01*
X121998Y123993D01*
X121897D01*
Y123892D01*
X121998Y123790D01*
X121897Y123688D01*
Y123587D01*
X121998Y123688D02*
X122049D01*
X122100Y123739D01*
X122151Y123688D01*
X122202D01*
Y123739D01*
X122151Y123790D01*
X122202Y123841D01*
Y123892D01*
X122151D01*
X122100Y123841D01*
X122049Y123892D01*
X121998D01*
Y123841D01*
X122049Y123790D01*
X121998Y123739D01*
Y123688D01*
X122547Y126797D02*
X122648D01*
X122750Y126898D01*
X122852Y126797D01*
X122953D01*
Y126898D01*
X122852Y127000D01*
X122953Y127102D01*
Y127203D01*
X122852D01*
X122750Y127102D01*
X122648Y127203D01*
X122547D01*
Y127102D01*
X122648Y127000D01*
X122547Y126898D01*
Y126797D01*
X122648Y126898D02*
X122699D01*
X122750Y126949D01*
X122801Y126898D01*
X122852D01*
Y126949D01*
X122801Y127000D01*
X122852Y127051D01*
Y127102D01*
X122801D01*
X122750Y127051D01*
X122699Y127102D01*
X122648D01*
Y127051D01*
X122699Y127000D01*
X122648Y126949D01*
Y126898D01*
X162497Y117897D02*
X162598D01*
X162700Y117998D01*
X162802Y117897D01*
X162903D01*
Y117998D01*
X162802Y118100D01*
X162903Y118202D01*
Y118303D01*
X162802D01*
X162700Y118202D01*
X162598Y118303D01*
X162497D01*
Y118202D01*
X162598Y118100D01*
X162497Y117998D01*
Y117897D01*
X162598Y117998D02*
X162649D01*
X162700Y118049D01*
X162751Y117998D01*
X162802D01*
Y118049D01*
X162751Y118100D01*
X162802Y118151D01*
Y118202D01*
X162751D01*
X162700Y118151D01*
X162649Y118202D01*
X162598D01*
Y118151D01*
X162649Y118100D01*
X162598Y118049D01*
Y117998D01*
X170947Y95497D02*
X171048D01*
X171150Y95598D01*
X171252Y95497D01*
X171353D01*
Y95598D01*
X171252Y95700D01*
X171353Y95802D01*
Y95903D01*
X171252D01*
X171150Y95802D01*
X171048Y95903D01*
X170947D01*
Y95802D01*
X171048Y95700D01*
X170947Y95598D01*
Y95497D01*
X171048Y95598D02*
X171099D01*
X171150Y95649D01*
X171201Y95598D01*
X171252D01*
Y95649D01*
X171201Y95700D01*
X171252Y95751D01*
Y95802D01*
X171201D01*
X171150Y95751D01*
X171099Y95802D01*
X171048D01*
Y95751D01*
X171099Y95700D01*
X171048Y95649D01*
Y95598D01*
X171497Y123897D02*
X171598D01*
X171700Y123998D01*
X171802Y123897D01*
X171903D01*
Y123998D01*
X171802Y124100D01*
X171903Y124202D01*
Y124303D01*
X171802D01*
X171700Y124202D01*
X171598Y124303D01*
X171497D01*
Y124202D01*
X171598Y124100D01*
X171497Y123998D01*
Y123897D01*
X171598Y123998D02*
X171649D01*
X171700Y124049D01*
X171751Y123998D01*
X171802D01*
Y124049D01*
X171751Y124100D01*
X171802Y124151D01*
Y124202D01*
X171751D01*
X171700Y124151D01*
X171649Y124202D01*
X171598D01*
Y124151D01*
X171649Y124100D01*
X171598Y124049D01*
Y123998D01*
X171497Y115597D02*
X171598D01*
X171700Y115698D01*
X171802Y115597D01*
X171903D01*
Y115698D01*
X171802Y115800D01*
X171903Y115902D01*
Y116003D01*
X171802D01*
X171700Y115902D01*
X171598Y116003D01*
X171497D01*
Y115902D01*
X171598Y115800D01*
X171497Y115698D01*
Y115597D01*
X171598Y115698D02*
X171649D01*
X171700Y115749D01*
X171751Y115698D01*
X171802D01*
Y115749D01*
X171751Y115800D01*
X171802Y115851D01*
Y115902D01*
X171751D01*
X171700Y115851D01*
X171649Y115902D01*
X171598D01*
Y115851D01*
X171649Y115800D01*
X171598Y115749D01*
Y115698D01*
X153597Y135997D02*
X153698D01*
X153800Y136098D01*
X153902Y135997D01*
X154003D01*
Y136098D01*
X153902Y136200D01*
X154003Y136302D01*
Y136403D01*
X153902D01*
X153800Y136302D01*
X153698Y136403D01*
X153597D01*
Y136302D01*
X153698Y136200D01*
X153597Y136098D01*
Y135997D01*
X153698Y136098D02*
X153749D01*
X153800Y136149D01*
X153851Y136098D01*
X153902D01*
Y136149D01*
X153851Y136200D01*
X153902Y136251D01*
Y136302D01*
X153851D01*
X153800Y136251D01*
X153749Y136302D01*
X153698D01*
Y136251D01*
X153749Y136200D01*
X153698Y136149D01*
Y136098D01*
X69397Y62847D02*
X69498D01*
X69600Y62948D01*
X69702Y62847D01*
X69803D01*
Y62948D01*
X69702Y63050D01*
X69803Y63152D01*
Y63253D01*
X69702D01*
X69600Y63152D01*
X69498Y63253D01*
X69397D01*
Y63152D01*
X69498Y63050D01*
X69397Y62948D01*
Y62847D01*
X69498Y62948D02*
X69549D01*
X69600Y62999D01*
X69651Y62948D01*
X69702D01*
Y62999D01*
X69651Y63050D01*
X69702Y63101D01*
Y63152D01*
X69651D01*
X69600Y63101D01*
X69549Y63152D01*
X69498D01*
Y63101D01*
X69549Y63050D01*
X69498Y62999D01*
Y62948D01*
X147007Y63697D02*
X147108D01*
X147210Y63798D01*
X147312Y63697D01*
X147413D01*
Y63798D01*
X147312Y63900D01*
X147413Y64002D01*
Y64103D01*
X147312D01*
X147210Y64002D01*
X147108Y64103D01*
X147007D01*
Y64002D01*
X147108Y63900D01*
X147007Y63798D01*
Y63697D01*
X147108Y63798D02*
X147159D01*
X147210Y63849D01*
X147261Y63798D01*
X147312D01*
Y63849D01*
X147261Y63900D01*
X147312Y63951D01*
Y64002D01*
X147261D01*
X147210Y63951D01*
X147159Y64002D01*
X147108D01*
Y63951D01*
X147159Y63900D01*
X147108Y63849D01*
Y63798D01*
X168897Y63997D02*
X168998D01*
X169100Y64098D01*
X169202Y63997D01*
X169303D01*
Y64098D01*
X169202Y64200D01*
X169303Y64302D01*
Y64403D01*
X169202D01*
X169100Y64302D01*
X168998Y64403D01*
X168897D01*
Y64302D01*
X168998Y64200D01*
X168897Y64098D01*
Y63997D01*
X168998Y64098D02*
X169049D01*
X169100Y64149D01*
X169151Y64098D01*
X169202D01*
Y64149D01*
X169151Y64200D01*
X169202Y64251D01*
Y64302D01*
X169151D01*
X169100Y64251D01*
X169049Y64302D01*
X168998D01*
Y64251D01*
X169049Y64200D01*
X168998Y64149D01*
Y64098D01*
X76497Y85597D02*
X76598D01*
X76700Y85698D01*
X76802Y85597D01*
X76903D01*
Y85698D01*
X76802Y85800D01*
X76903Y85902D01*
Y86003D01*
X76802D01*
X76700Y85902D01*
X76598Y86003D01*
X76497D01*
Y85902D01*
X76598Y85800D01*
X76497Y85698D01*
Y85597D01*
X76598Y85698D02*
X76649D01*
X76700Y85749D01*
X76751Y85698D01*
X76802D01*
Y85749D01*
X76751Y85800D01*
X76802Y85851D01*
Y85902D01*
X76751D01*
X76700Y85851D01*
X76649Y85902D01*
X76598D01*
Y85851D01*
X76649Y85800D01*
X76598Y85749D01*
Y85698D01*
X69297Y78397D02*
X69398D01*
X69500Y78498D01*
X69602Y78397D01*
X69703D01*
Y78498D01*
X69602Y78600D01*
X69703Y78702D01*
Y78803D01*
X69602D01*
X69500Y78702D01*
X69398Y78803D01*
X69297D01*
Y78702D01*
X69398Y78600D01*
X69297Y78498D01*
Y78397D01*
X69398Y78498D02*
X69449D01*
X69500Y78549D01*
X69551Y78498D01*
X69602D01*
Y78549D01*
X69551Y78600D01*
X69602Y78651D01*
Y78702D01*
X69551D01*
X69500Y78651D01*
X69449Y78702D01*
X69398D01*
Y78651D01*
X69449Y78600D01*
X69398Y78549D01*
Y78498D01*
X109817Y75097D02*
X109918D01*
X110020Y75198D01*
X110122Y75097D01*
X110223D01*
Y75198D01*
X110122Y75300D01*
X110223Y75402D01*
Y75503D01*
X110122D01*
X110020Y75402D01*
X109918Y75503D01*
X109817D01*
Y75402D01*
X109918Y75300D01*
X109817Y75198D01*
Y75097D01*
X109918Y75198D02*
X109969D01*
X110020Y75249D01*
X110071Y75198D01*
X110122D01*
Y75249D01*
X110071Y75300D01*
X110122Y75351D01*
Y75402D01*
X110071D01*
X110020Y75351D01*
X109969Y75402D01*
X109918D01*
Y75351D01*
X109969Y75300D01*
X109918Y75249D01*
Y75198D01*
X114547Y75047D02*
X114648D01*
X114750Y75148D01*
X114852Y75047D01*
X114953D01*
Y75148D01*
X114852Y75250D01*
X114953Y75352D01*
Y75453D01*
X114852D01*
X114750Y75352D01*
X114648Y75453D01*
X114547D01*
Y75352D01*
X114648Y75250D01*
X114547Y75148D01*
Y75047D01*
X114648Y75148D02*
X114699D01*
X114750Y75199D01*
X114801Y75148D01*
X114852D01*
Y75199D01*
X114801Y75250D01*
X114852Y75301D01*
Y75352D01*
X114801D01*
X114750Y75301D01*
X114699Y75352D01*
X114648D01*
Y75301D01*
X114699Y75250D01*
X114648Y75199D01*
Y75148D01*
X102297Y63097D02*
X102398D01*
X102500Y63198D01*
X102602Y63097D01*
X102703D01*
Y63198D01*
X102602Y63300D01*
X102703Y63402D01*
Y63503D01*
X102602D01*
X102500Y63402D01*
X102398Y63503D01*
X102297D01*
Y63402D01*
X102398Y63300D01*
X102297Y63198D01*
Y63097D01*
X102398Y63198D02*
X102449D01*
X102500Y63249D01*
X102551Y63198D01*
X102602D01*
Y63249D01*
X102551Y63300D01*
X102602Y63351D01*
Y63402D01*
X102551D01*
X102500Y63351D01*
X102449Y63402D01*
X102398D01*
Y63351D01*
X102449Y63300D01*
X102398Y63249D01*
Y63198D01*
X134697Y67297D02*
X134798D01*
X134900Y67398D01*
X135002Y67297D01*
X135103D01*
Y67398D01*
X135002Y67500D01*
X135103Y67602D01*
Y67703D01*
X135002D01*
X134900Y67602D01*
X134798Y67703D01*
X134697D01*
Y67602D01*
X134798Y67500D01*
X134697Y67398D01*
Y67297D01*
X134798Y67398D02*
X134849D01*
X134900Y67449D01*
X134951Y67398D01*
X135002D01*
Y67449D01*
X134951Y67500D01*
X135002Y67551D01*
Y67602D01*
X134951D01*
X134900Y67551D01*
X134849Y67602D01*
X134798D01*
Y67551D01*
X134849Y67500D01*
X134798Y67449D01*
Y67398D01*
X91347Y126897D02*
X91448D01*
X91550Y126998D01*
X91652Y126897D01*
X91753D01*
Y126998D01*
X91652Y127100D01*
X91753Y127202D01*
Y127303D01*
X91652D01*
X91550Y127202D01*
X91448Y127303D01*
X91347D01*
Y127202D01*
X91448Y127100D01*
X91347Y126998D01*
Y126897D01*
X91448Y126998D02*
X91499D01*
X91550Y127049D01*
X91601Y126998D01*
X91652D01*
Y127049D01*
X91601Y127100D01*
X91652Y127151D01*
Y127202D01*
X91601D01*
X91550Y127151D01*
X91499Y127202D01*
X91448D01*
Y127151D01*
X91499Y127100D01*
X91448Y127049D01*
Y126998D01*
X80097Y122197D02*
X80198D01*
X80300Y122298D01*
X80402Y122197D01*
X80503D01*
Y122298D01*
X80402Y122400D01*
X80503Y122502D01*
Y122603D01*
X80402D01*
X80300Y122502D01*
X80198Y122603D01*
X80097D01*
Y122502D01*
X80198Y122400D01*
X80097Y122298D01*
Y122197D01*
X80198Y122298D02*
X80249D01*
X80300Y122349D01*
X80351Y122298D01*
X80402D01*
Y122349D01*
X80351Y122400D01*
X80402Y122451D01*
Y122502D01*
X80351D01*
X80300Y122451D01*
X80249Y122502D01*
X80198D01*
Y122451D01*
X80249Y122400D01*
X80198Y122349D01*
Y122298D01*
X78097Y124197D02*
X78198D01*
X78300Y124298D01*
X78402Y124197D01*
X78503D01*
Y124298D01*
X78402Y124400D01*
X78503Y124502D01*
Y124603D01*
X78402D01*
X78300Y124502D01*
X78198Y124603D01*
X78097D01*
Y124502D01*
X78198Y124400D01*
X78097Y124298D01*
Y124197D01*
X78198Y124298D02*
X78249D01*
X78300Y124349D01*
X78351Y124298D01*
X78402D01*
Y124349D01*
X78351Y124400D01*
X78402Y124451D01*
Y124502D01*
X78351D01*
X78300Y124451D01*
X78249Y124502D01*
X78198D01*
Y124451D01*
X78249Y124400D01*
X78198Y124349D01*
Y124298D01*
X121197Y130297D02*
X121298D01*
X121400Y130398D01*
X121502Y130297D01*
X121603D01*
Y130398D01*
X121502Y130500D01*
X121603Y130602D01*
Y130703D01*
X121502D01*
X121400Y130602D01*
X121298Y130703D01*
X121197D01*
Y130602D01*
X121298Y130500D01*
X121197Y130398D01*
Y130297D01*
X121298Y130398D02*
X121349D01*
X121400Y130449D01*
X121451Y130398D01*
X121502D01*
Y130449D01*
X121451Y130500D01*
X121502Y130551D01*
Y130602D01*
X121451D01*
X121400Y130551D01*
X121349Y130602D01*
X121298D01*
Y130551D01*
X121349Y130500D01*
X121298Y130449D01*
Y130398D01*
X122197Y138197D02*
X122298D01*
X122400Y138298D01*
X122502Y138197D01*
X122603D01*
Y138298D01*
X122502Y138400D01*
X122603Y138502D01*
Y138603D01*
X122502D01*
X122400Y138502D01*
X122298Y138603D01*
X122197D01*
Y138502D01*
X122298Y138400D01*
X122197Y138298D01*
Y138197D01*
X122298Y138298D02*
X122349D01*
X122400Y138349D01*
X122451Y138298D01*
X122502D01*
Y138349D01*
X122451Y138400D01*
X122502Y138451D01*
Y138502D01*
X122451D01*
X122400Y138451D01*
X122349Y138502D01*
X122298D01*
Y138451D01*
X122349Y138400D01*
X122298Y138349D01*
Y138298D01*
X121597Y140897D02*
X121698D01*
X121800Y140998D01*
X121902Y140897D01*
X122003D01*
Y140998D01*
X121902Y141100D01*
X122003Y141202D01*
Y141303D01*
X121902D01*
X121800Y141202D01*
X121698Y141303D01*
X121597D01*
Y141202D01*
X121698Y141100D01*
X121597Y140998D01*
Y140897D01*
X121698Y140998D02*
X121749D01*
X121800Y141049D01*
X121851Y140998D01*
X121902D01*
Y141049D01*
X121851Y141100D01*
X121902Y141151D01*
Y141202D01*
X121851D01*
X121800Y141151D01*
X121749Y141202D01*
X121698D01*
Y141151D01*
X121749Y141100D01*
X121698Y141049D01*
Y140998D01*
X130897Y140797D02*
X130998D01*
X131100Y140898D01*
X131202Y140797D01*
X131303D01*
Y140898D01*
X131202Y141000D01*
X131303Y141102D01*
Y141203D01*
X131202D01*
X131100Y141102D01*
X130998Y141203D01*
X130897D01*
Y141102D01*
X130998Y141000D01*
X130897Y140898D01*
Y140797D01*
X130998Y140898D02*
X131049D01*
X131100Y140949D01*
X131151Y140898D01*
X131202D01*
Y140949D01*
X131151Y141000D01*
X131202Y141051D01*
Y141102D01*
X131151D01*
X131100Y141051D01*
X131049Y141102D01*
X130998D01*
Y141051D01*
X131049Y141000D01*
X130998Y140949D01*
Y140898D01*
X139222Y140772D02*
X139323D01*
X139425Y140873D01*
X139527Y140772D01*
X139628D01*
Y140873D01*
X139527Y140975D01*
X139628Y141077D01*
Y141178D01*
X139527D01*
X139425Y141077D01*
X139323Y141178D01*
X139222D01*
Y141077D01*
X139323Y140975D01*
X139222Y140873D01*
Y140772D01*
X139323Y140873D02*
X139374D01*
X139425Y140924D01*
X139476Y140873D01*
X139527D01*
Y140924D01*
X139476Y140975D01*
X139527Y141026D01*
Y141077D01*
X139476D01*
X139425Y141026D01*
X139374Y141077D01*
X139323D01*
Y141026D01*
X139374Y140975D01*
X139323Y140924D01*
Y140873D01*
X168322Y115547D02*
X168423D01*
X168525Y115648D01*
X168627Y115547D01*
X168728D01*
Y115648D01*
X168627Y115750D01*
X168728Y115852D01*
Y115953D01*
X168627D01*
X168525Y115852D01*
X168423Y115953D01*
X168322D01*
Y115852D01*
X168423Y115750D01*
X168322Y115648D01*
Y115547D01*
X168423Y115648D02*
X168474D01*
X168525Y115699D01*
X168576Y115648D01*
X168627D01*
Y115699D01*
X168576Y115750D01*
X168627Y115801D01*
Y115852D01*
X168576D01*
X168525Y115801D01*
X168474Y115852D01*
X168423D01*
Y115801D01*
X168474Y115750D01*
X168423Y115699D01*
Y115648D01*
X164297Y129847D02*
X164398D01*
X164500Y129948D01*
X164602Y129847D01*
X164703D01*
Y129948D01*
X164602Y130050D01*
X164703Y130152D01*
Y130253D01*
X164602D01*
X164500Y130152D01*
X164398Y130253D01*
X164297D01*
Y130152D01*
X164398Y130050D01*
X164297Y129948D01*
Y129847D01*
X164398Y129948D02*
X164449D01*
X164500Y129999D01*
X164551Y129948D01*
X164602D01*
Y129999D01*
X164551Y130050D01*
X164602Y130101D01*
Y130152D01*
X164551D01*
X164500Y130101D01*
X164449Y130152D01*
X164398D01*
Y130101D01*
X164449Y130050D01*
X164398Y129999D01*
Y129948D01*
X149297Y63997D02*
X149398D01*
X149500Y64098D01*
X149602Y63997D01*
X149703D01*
Y64098D01*
X149602Y64200D01*
X149703Y64302D01*
Y64403D01*
X149602D01*
X149500Y64302D01*
X149398Y64403D01*
X149297D01*
Y64302D01*
X149398Y64200D01*
X149297Y64098D01*
Y63997D01*
X149398Y64098D02*
X149449D01*
X149500Y64149D01*
X149551Y64098D01*
X149602D01*
Y64149D01*
X149551Y64200D01*
X149602Y64251D01*
Y64302D01*
X149551D01*
X149500Y64251D01*
X149449Y64302D01*
X149398D01*
Y64251D01*
X149449Y64200D01*
X149398Y64149D01*
Y64098D01*
X149297Y62497D02*
X149398D01*
X149500Y62598D01*
X149602Y62497D01*
X149703D01*
Y62598D01*
X149602Y62700D01*
X149703Y62802D01*
Y62903D01*
X149602D01*
X149500Y62802D01*
X149398Y62903D01*
X149297D01*
Y62802D01*
X149398Y62700D01*
X149297Y62598D01*
Y62497D01*
X149398Y62598D02*
X149449D01*
X149500Y62649D01*
X149551Y62598D01*
X149602D01*
Y62649D01*
X149551Y62700D01*
X149602Y62751D01*
Y62802D01*
X149551D01*
X149500Y62751D01*
X149449Y62802D01*
X149398D01*
Y62751D01*
X149449Y62700D01*
X149398Y62649D01*
Y62598D01*
X90797Y82839D02*
X90898D01*
X91000Y82941D01*
X91102Y82839D01*
X91203D01*
Y82941D01*
X91102Y83043D01*
X91203Y83144D01*
Y83246D01*
X91102D01*
X91000Y83144D01*
X90898Y83246D01*
X90797D01*
Y83144D01*
X90898Y83043D01*
X90797Y82941D01*
Y82839D01*
X90898Y82941D02*
X90949D01*
X91000Y82992D01*
X91051Y82941D01*
X91102D01*
Y82992D01*
X91051Y83043D01*
X91102Y83093D01*
Y83144D01*
X91051D01*
X91000Y83093D01*
X90949Y83144D01*
X90898D01*
Y83093D01*
X90949Y83043D01*
X90898Y82992D01*
Y82941D01*
X181244Y67673D02*
X181159Y67758D01*
X180990D01*
X180905Y67673D01*
Y67335D01*
X180990Y67250D01*
X181159D01*
X181244Y67335D01*
X97547Y65772D02*
X97648D01*
X97750Y65873D01*
X97852Y65772D01*
X97953D01*
Y65873D01*
X97852Y65975D01*
X97953Y66077D01*
Y66178D01*
X97852D01*
X97750Y66077D01*
X97648Y66178D01*
X97547D01*
Y66077D01*
X97648Y65975D01*
X97547Y65873D01*
Y65772D01*
X97648Y65873D02*
X97699D01*
X97750Y65924D01*
X97801Y65873D01*
X97852D01*
Y65924D01*
X97801Y65975D01*
X97852Y66026D01*
Y66077D01*
X97801D01*
X97750Y66026D01*
X97699Y66077D01*
X97648D01*
Y66026D01*
X97699Y65975D01*
X97648Y65924D01*
Y65873D01*
X97547Y64547D02*
X97648D01*
X97750Y64648D01*
X97852Y64547D01*
X97953D01*
Y64648D01*
X97852Y64750D01*
X97953Y64852D01*
Y64953D01*
X97852D01*
X97750Y64852D01*
X97648Y64953D01*
X97547D01*
Y64852D01*
X97648Y64750D01*
X97547Y64648D01*
Y64547D01*
X97648Y64648D02*
X97699D01*
X97750Y64699D01*
X97801Y64648D01*
X97852D01*
Y64699D01*
X97801Y64750D01*
X97852Y64801D01*
Y64852D01*
X97801D01*
X97750Y64801D01*
X97699Y64852D01*
X97648D01*
Y64801D01*
X97699Y64750D01*
X97648Y64699D01*
Y64648D01*
X111247Y138222D02*
X111348D01*
X111450Y138323D01*
X111552Y138222D01*
X111653D01*
Y138323D01*
X111552Y138425D01*
X111653Y138527D01*
Y138628D01*
X111552D01*
X111450Y138527D01*
X111348Y138628D01*
X111247D01*
Y138527D01*
X111348Y138425D01*
X111247Y138323D01*
Y138222D01*
X111348Y138323D02*
X111399D01*
X111450Y138374D01*
X111501Y138323D01*
X111552D01*
Y138374D01*
X111501Y138425D01*
X111552Y138476D01*
Y138527D01*
X111501D01*
X111450Y138476D01*
X111399Y138527D01*
X111348D01*
Y138476D01*
X111399Y138425D01*
X111348Y138374D01*
Y138323D01*
X88297Y77297D02*
X88398D01*
X88500Y77398D01*
X88602Y77297D01*
X88703D01*
Y77398D01*
X88602Y77500D01*
X88703Y77602D01*
Y77703D01*
X88602D01*
X88500Y77602D01*
X88398Y77703D01*
X88297D01*
Y77602D01*
X88398Y77500D01*
X88297Y77398D01*
Y77297D01*
X88398Y77398D02*
X88449D01*
X88500Y77449D01*
X88551Y77398D01*
X88602D01*
Y77449D01*
X88551Y77500D01*
X88602Y77551D01*
Y77602D01*
X88551D01*
X88500Y77551D01*
X88449Y77602D01*
X88398D01*
Y77551D01*
X88449Y77500D01*
X88398Y77449D01*
Y77398D01*
X87297Y142297D02*
X87398D01*
X87500Y142398D01*
X87602Y142297D01*
X87703D01*
Y142398D01*
X87602Y142500D01*
X87703Y142602D01*
Y142703D01*
X87602D01*
X87500Y142602D01*
X87398Y142703D01*
X87297D01*
Y142602D01*
X87398Y142500D01*
X87297Y142398D01*
Y142297D01*
X87398Y142398D02*
X87449D01*
X87500Y142449D01*
X87551Y142398D01*
X87602D01*
Y142449D01*
X87551Y142500D01*
X87602Y142551D01*
Y142602D01*
X87551D01*
X87500Y142551D01*
X87449Y142602D01*
X87398D01*
Y142551D01*
X87449Y142500D01*
X87398Y142449D01*
Y142398D01*
X108172Y143547D02*
X108273D01*
X108375Y143648D01*
X108477Y143547D01*
X108578D01*
Y143648D01*
X108477Y143750D01*
X108578Y143852D01*
Y143953D01*
X108477D01*
X108375Y143852D01*
X108273Y143953D01*
X108172D01*
Y143852D01*
X108273Y143750D01*
X108172Y143648D01*
Y143547D01*
X108273Y143648D02*
X108324D01*
X108375Y143699D01*
X108426Y143648D01*
X108477D01*
Y143699D01*
X108426Y143750D01*
X108477Y143801D01*
Y143852D01*
X108426D01*
X108375Y143801D01*
X108324Y143852D01*
X108273D01*
Y143801D01*
X108324Y143750D01*
X108273Y143699D01*
Y143648D01*
X96547Y142947D02*
X96648D01*
X96750Y143048D01*
X96852Y142947D01*
X96953D01*
Y143048D01*
X96852Y143150D01*
X96953Y143252D01*
Y143353D01*
X96852D01*
X96750Y143252D01*
X96648Y143353D01*
X96547D01*
Y143252D01*
X96648Y143150D01*
X96547Y143048D01*
Y142947D01*
X96648Y143048D02*
X96699D01*
X96750Y143099D01*
X96801Y143048D01*
X96852D01*
Y143099D01*
X96801Y143150D01*
X96852Y143201D01*
Y143252D01*
X96801D01*
X96750Y143201D01*
X96699Y143252D01*
X96648D01*
Y143201D01*
X96699Y143150D01*
X96648Y143099D01*
Y143048D01*
X95797Y143926D02*
X95898D01*
X96000Y144028D01*
X96102Y143926D01*
X96203D01*
Y144028D01*
X96102Y144129D01*
X96203Y144231D01*
Y144332D01*
X96102D01*
X96000Y144231D01*
X95898Y144332D01*
X95797D01*
Y144231D01*
X95898Y144129D01*
X95797Y144028D01*
Y143926D01*
X95898Y144028D02*
X95949D01*
X96000Y144078D01*
X96051Y144028D01*
X96102D01*
Y144078D01*
X96051Y144129D01*
X96102Y144180D01*
Y144231D01*
X96051D01*
X96000Y144180D01*
X95949Y144231D01*
X95898D01*
Y144180D01*
X95949Y144129D01*
X95898Y144078D01*
Y144028D01*
X102547Y143547D02*
X102648D01*
X102750Y143648D01*
X102852Y143547D01*
X102953D01*
Y143648D01*
X102852Y143750D01*
X102953Y143852D01*
Y143953D01*
X102852D01*
X102750Y143852D01*
X102648Y143953D01*
X102547D01*
Y143852D01*
X102648Y143750D01*
X102547Y143648D01*
Y143547D01*
X102648Y143648D02*
X102699D01*
X102750Y143699D01*
X102801Y143648D01*
X102852D01*
Y143699D01*
X102801Y143750D01*
X102852Y143801D01*
Y143852D01*
X102801D01*
X102750Y143801D01*
X102699Y143852D01*
X102648D01*
Y143801D01*
X102699Y143750D01*
X102648Y143699D01*
Y143648D01*
X109137Y82839D02*
X109239D01*
X109340Y82941D01*
X109442Y82839D01*
X109544D01*
Y82941D01*
X109442Y83043D01*
X109544Y83144D01*
Y83246D01*
X109442D01*
X109340Y83144D01*
X109239Y83246D01*
X109137D01*
Y83144D01*
X109239Y83043D01*
X109137Y82941D01*
Y82839D01*
X109239Y82941D02*
X109290D01*
X109340Y82992D01*
X109391Y82941D01*
X109442D01*
Y82992D01*
X109391Y83043D01*
X109442Y83093D01*
Y83144D01*
X109391D01*
X109340Y83093D01*
X109290Y83144D01*
X109239D01*
Y83093D01*
X109290Y83043D01*
X109239Y82992D01*
Y82941D01*
X159117Y143926D02*
X159218D01*
X159320Y144028D01*
X159422Y143926D01*
X159523D01*
Y144028D01*
X159422Y144129D01*
X159523Y144231D01*
Y144332D01*
X159422D01*
X159320Y144231D01*
X159218Y144332D01*
X159117D01*
Y144231D01*
X159218Y144129D01*
X159117Y144028D01*
Y143926D01*
X159218Y144028D02*
X159269D01*
X159320Y144078D01*
X159371Y144028D01*
X159422D01*
Y144078D01*
X159371Y144129D01*
X159422Y144180D01*
Y144231D01*
X159371D01*
X159320Y144180D01*
X159269Y144231D01*
X159218D01*
Y144180D01*
X159269Y144129D01*
X159218Y144078D01*
Y144028D01*
X156197Y142547D02*
X156298D01*
X156400Y142648D01*
X156502Y142547D01*
X156603D01*
Y142648D01*
X156502Y142750D01*
X156603Y142852D01*
Y142953D01*
X156502D01*
X156400Y142852D01*
X156298Y142953D01*
X156197D01*
Y142852D01*
X156298Y142750D01*
X156197Y142648D01*
Y142547D01*
X156298Y142648D02*
X156349D01*
X156400Y142699D01*
X156451Y142648D01*
X156502D01*
Y142699D01*
X156451Y142750D01*
X156502Y142801D01*
Y142852D01*
X156451D01*
X156400Y142801D01*
X156349Y142852D01*
X156298D01*
Y142801D01*
X156349Y142750D01*
X156298Y142699D01*
Y142648D01*
X152797Y143797D02*
X152898D01*
X153000Y143898D01*
X153102Y143797D01*
X153203D01*
Y143898D01*
X153102Y144000D01*
X153203Y144102D01*
Y144203D01*
X153102D01*
X153000Y144102D01*
X152898Y144203D01*
X152797D01*
Y144102D01*
X152898Y144000D01*
X152797Y143898D01*
Y143797D01*
X152898Y143898D02*
X152949D01*
X153000Y143949D01*
X153051Y143898D01*
X153102D01*
Y143949D01*
X153051Y144000D01*
X153102Y144051D01*
Y144102D01*
X153051D01*
X153000Y144051D01*
X152949Y144102D01*
X152898D01*
Y144051D01*
X152949Y144000D01*
X152898Y143949D01*
Y143898D01*
X148297Y142897D02*
X148398D01*
X148500Y142998D01*
X148602Y142897D01*
X148703D01*
Y142998D01*
X148602Y143100D01*
X148703Y143202D01*
Y143303D01*
X148602D01*
X148500Y143202D01*
X148398Y143303D01*
X148297D01*
Y143202D01*
X148398Y143100D01*
X148297Y142998D01*
Y142897D01*
X148398Y142998D02*
X148449D01*
X148500Y143049D01*
X148551Y142998D01*
X148602D01*
Y143049D01*
X148551Y143100D01*
X148602Y143151D01*
Y143202D01*
X148551D01*
X148500Y143151D01*
X148449Y143202D01*
X148398D01*
Y143151D01*
X148449Y143100D01*
X148398Y143049D01*
Y142998D01*
X169672Y127417D02*
X169773D01*
X169875Y127518D01*
X169977Y127417D01*
X170078D01*
Y127518D01*
X169977Y127620D01*
X170078Y127722D01*
Y127823D01*
X169977D01*
X169875Y127722D01*
X169773Y127823D01*
X169672D01*
Y127722D01*
X169773Y127620D01*
X169672Y127518D01*
Y127417D01*
X169773Y127518D02*
X169824D01*
X169875Y127569D01*
X169926Y127518D01*
X169977D01*
Y127569D01*
X169926Y127620D01*
X169977Y127671D01*
Y127722D01*
X169926D01*
X169875Y127671D01*
X169824Y127722D01*
X169773D01*
Y127671D01*
X169824Y127620D01*
X169773Y127569D01*
Y127518D01*
X160047Y132897D02*
X160148D01*
X160250Y132998D01*
X160352Y132897D01*
X160453D01*
Y132998D01*
X160352Y133100D01*
X160453Y133202D01*
Y133303D01*
X160352D01*
X160250Y133202D01*
X160148Y133303D01*
X160047D01*
Y133202D01*
X160148Y133100D01*
X160047Y132998D01*
Y132897D01*
X160148Y132998D02*
X160199D01*
X160250Y133049D01*
X160301Y132998D01*
X160352D01*
Y133049D01*
X160301Y133100D01*
X160352Y133151D01*
Y133202D01*
X160301D01*
X160250Y133151D01*
X160199Y133202D01*
X160148D01*
Y133151D01*
X160199Y133100D01*
X160148Y133049D01*
Y132998D01*
X150089Y120043D02*
X150004Y120128D01*
X149835D01*
X149750Y120043D01*
Y119705D01*
X149835Y119620D01*
X150004D01*
X150089Y119705D01*
X164547Y143047D02*
X164648D01*
X164750Y143148D01*
X164852Y143047D01*
X164953D01*
Y143148D01*
X164852Y143250D01*
X164953Y143352D01*
Y143453D01*
X164852D01*
X164750Y143352D01*
X164648Y143453D01*
X164547D01*
Y143352D01*
X164648Y143250D01*
X164547Y143148D01*
Y143047D01*
X164648Y143148D02*
X164699D01*
X164750Y143199D01*
X164801Y143148D01*
X164852D01*
Y143199D01*
X164801Y143250D01*
X164852Y143301D01*
Y143352D01*
X164801D01*
X164750Y143301D01*
X164699Y143352D01*
X164648D01*
Y143301D01*
X164699Y143250D01*
X164648Y143199D01*
Y143148D01*
X175047Y113047D02*
X175148D01*
X175250Y113148D01*
X175352Y113047D01*
X175453D01*
Y113148D01*
X175352Y113250D01*
X175453Y113352D01*
Y113453D01*
X175352D01*
X175250Y113352D01*
X175148Y113453D01*
X175047D01*
Y113352D01*
X175148Y113250D01*
X175047Y113148D01*
Y113047D01*
X175148Y113148D02*
X175199D01*
X175250Y113199D01*
X175301Y113148D01*
X175352D01*
Y113199D01*
X175301Y113250D01*
X175352Y113301D01*
Y113352D01*
X175301D01*
X175250Y113301D01*
X175199Y113352D01*
X175148D01*
Y113301D01*
X175199Y113250D01*
X175148Y113199D01*
Y113148D01*
X175047Y122797D02*
X175148D01*
X175250Y122898D01*
X175352Y122797D01*
X175453D01*
Y122898D01*
X175352Y123000D01*
X175453Y123102D01*
Y123203D01*
X175352D01*
X175250Y123102D01*
X175148Y123203D01*
X175047D01*
Y123102D01*
X175148Y123000D01*
X175047Y122898D01*
Y122797D01*
X175148Y122898D02*
X175199D01*
X175250Y122949D01*
X175301Y122898D01*
X175352D01*
Y122949D01*
X175301Y123000D01*
X175352Y123051D01*
Y123102D01*
X175301D01*
X175250Y123051D01*
X175199Y123102D01*
X175148D01*
Y123051D01*
X175199Y123000D01*
X175148Y122949D01*
Y122898D01*
X156297Y64047D02*
X156398D01*
X156500Y64148D01*
X156602Y64047D01*
X156703D01*
Y64148D01*
X156602Y64250D01*
X156703Y64352D01*
Y64453D01*
X156602D01*
X156500Y64352D01*
X156398Y64453D01*
X156297D01*
Y64352D01*
X156398Y64250D01*
X156297Y64148D01*
Y64047D01*
X156398Y64148D02*
X156449D01*
X156500Y64199D01*
X156551Y64148D01*
X156602D01*
Y64199D01*
X156551Y64250D01*
X156602Y64301D01*
Y64352D01*
X156551D01*
X156500Y64301D01*
X156449Y64352D01*
X156398D01*
Y64301D01*
X156449Y64250D01*
X156398Y64199D01*
Y64148D01*
X155047Y64047D02*
X155148D01*
X155250Y64148D01*
X155352Y64047D01*
X155453D01*
Y64148D01*
X155352Y64250D01*
X155453Y64352D01*
Y64453D01*
X155352D01*
X155250Y64352D01*
X155148Y64453D01*
X155047D01*
Y64352D01*
X155148Y64250D01*
X155047Y64148D01*
Y64047D01*
X155148Y64148D02*
X155199D01*
X155250Y64199D01*
X155301Y64148D01*
X155352D01*
Y64199D01*
X155301Y64250D01*
X155352Y64301D01*
Y64352D01*
X155301D01*
X155250Y64301D01*
X155199Y64352D01*
X155148D01*
Y64301D01*
X155199Y64250D01*
X155148Y64199D01*
Y64148D01*
X153797Y62297D02*
X153898D01*
X154000Y62398D01*
X154102Y62297D01*
X154203D01*
Y62398D01*
X154102Y62500D01*
X154203Y62602D01*
Y62703D01*
X154102D01*
X154000Y62602D01*
X153898Y62703D01*
X153797D01*
Y62602D01*
X153898Y62500D01*
X153797Y62398D01*
Y62297D01*
X153898Y62398D02*
X153949D01*
X154000Y62449D01*
X154051Y62398D01*
X154102D01*
Y62449D01*
X154051Y62500D01*
X154102Y62551D01*
Y62602D01*
X154051D01*
X154000Y62551D01*
X153949Y62602D01*
X153898D01*
Y62551D01*
X153949Y62500D01*
X153898Y62449D01*
Y62398D01*
X151917Y64047D02*
X152018D01*
X152120Y64148D01*
X152222Y64047D01*
X152323D01*
Y64148D01*
X152222Y64250D01*
X152323Y64352D01*
Y64453D01*
X152222D01*
X152120Y64352D01*
X152018Y64453D01*
X151917D01*
Y64352D01*
X152018Y64250D01*
X151917Y64148D01*
Y64047D01*
X152018Y64148D02*
X152069D01*
X152120Y64199D01*
X152171Y64148D01*
X152222D01*
Y64199D01*
X152171Y64250D01*
X152222Y64301D01*
Y64352D01*
X152171D01*
X152120Y64301D01*
X152069Y64352D01*
X152018D01*
Y64301D01*
X152069Y64250D01*
X152018Y64199D01*
Y64148D01*
X82297Y79389D02*
X82398D01*
X82500Y79491D01*
X82602Y79389D01*
X82703D01*
Y79491D01*
X82602Y79592D01*
X82703Y79694D01*
Y79796D01*
X82602D01*
X82500Y79694D01*
X82398Y79796D01*
X82297D01*
Y79694D01*
X82398Y79592D01*
X82297Y79491D01*
Y79389D01*
X82398Y79491D02*
X82449D01*
X82500Y79542D01*
X82551Y79491D01*
X82602D01*
Y79542D01*
X82551Y79592D01*
X82602Y79643D01*
Y79694D01*
X82551D01*
X82500Y79643D01*
X82449Y79694D01*
X82398D01*
Y79643D01*
X82449Y79592D01*
X82398Y79542D01*
Y79491D01*
X82297Y82564D02*
X82398D01*
X82500Y82666D01*
X82602Y82564D01*
X82703D01*
Y82666D01*
X82602Y82768D01*
X82703Y82869D01*
Y82971D01*
X82602D01*
X82500Y82869D01*
X82398Y82971D01*
X82297D01*
Y82869D01*
X82398Y82768D01*
X82297Y82666D01*
Y82564D01*
X82398Y82666D02*
X82449D01*
X82500Y82717D01*
X82551Y82666D01*
X82602D01*
Y82717D01*
X82551Y82768D01*
X82602Y82818D01*
Y82869D01*
X82551D01*
X82500Y82818D01*
X82449Y82869D01*
X82398D01*
Y82818D01*
X82449Y82768D01*
X82398Y82717D01*
Y82666D01*
X82297Y81264D02*
X82398D01*
X82500Y81366D01*
X82602Y81264D01*
X82703D01*
Y81366D01*
X82602Y81467D01*
X82703Y81569D01*
Y81671D01*
X82602D01*
X82500Y81569D01*
X82398Y81671D01*
X82297D01*
Y81569D01*
X82398Y81467D01*
X82297Y81366D01*
Y81264D01*
X82398Y81366D02*
X82449D01*
X82500Y81417D01*
X82551Y81366D01*
X82602D01*
Y81417D01*
X82551Y81467D01*
X82602Y81518D01*
Y81569D01*
X82551D01*
X82500Y81518D01*
X82449Y81569D01*
X82398D01*
Y81518D01*
X82449Y81467D01*
X82398Y81417D01*
Y81366D01*
X78047Y79797D02*
X78148D01*
X78250Y79898D01*
X78352Y79797D01*
X78453D01*
Y79898D01*
X78352Y80000D01*
X78453Y80102D01*
Y80203D01*
X78352D01*
X78250Y80102D01*
X78148Y80203D01*
X78047D01*
Y80102D01*
X78148Y80000D01*
X78047Y79898D01*
Y79797D01*
X78148Y79898D02*
X78199D01*
X78250Y79949D01*
X78301Y79898D01*
X78352D01*
Y79949D01*
X78301Y80000D01*
X78352Y80051D01*
Y80102D01*
X78301D01*
X78250Y80051D01*
X78199Y80102D01*
X78148D01*
Y80051D01*
X78199Y80000D01*
X78148Y79949D01*
Y79898D01*
X78047Y80797D02*
X78148D01*
X78250Y80898D01*
X78352Y80797D01*
X78453D01*
Y80898D01*
X78352Y81000D01*
X78453Y81102D01*
Y81203D01*
X78352D01*
X78250Y81102D01*
X78148Y81203D01*
X78047D01*
Y81102D01*
X78148Y81000D01*
X78047Y80898D01*
Y80797D01*
X78148Y80898D02*
X78199D01*
X78250Y80949D01*
X78301Y80898D01*
X78352D01*
Y80949D01*
X78301Y81000D01*
X78352Y81051D01*
Y81102D01*
X78301D01*
X78250Y81051D01*
X78199Y81102D01*
X78148D01*
Y81051D01*
X78199Y81000D01*
X78148Y80949D01*
Y80898D01*
X78047Y82047D02*
X78148D01*
X78250Y82148D01*
X78352Y82047D01*
X78453D01*
Y82148D01*
X78352Y82250D01*
X78453Y82352D01*
Y82453D01*
X78352D01*
X78250Y82352D01*
X78148Y82453D01*
X78047D01*
Y82352D01*
X78148Y82250D01*
X78047Y82148D01*
Y82047D01*
X78148Y82148D02*
X78199D01*
X78250Y82199D01*
X78301Y82148D01*
X78352D01*
Y82199D01*
X78301Y82250D01*
X78352Y82301D01*
Y82352D01*
X78301D01*
X78250Y82301D01*
X78199Y82352D01*
X78148D01*
Y82301D01*
X78199Y82250D01*
X78148Y82199D01*
Y82148D01*
X86267Y83797D02*
X86368D01*
X86470Y83898D01*
X86572Y83797D01*
X86673D01*
Y83898D01*
X86572Y84000D01*
X86673Y84102D01*
Y84203D01*
X86572D01*
X86470Y84102D01*
X86368Y84203D01*
X86267D01*
Y84102D01*
X86368Y84000D01*
X86267Y83898D01*
Y83797D01*
X86368Y83898D02*
X86419D01*
X86470Y83949D01*
X86521Y83898D01*
X86572D01*
Y83949D01*
X86521Y84000D01*
X86572Y84051D01*
Y84102D01*
X86521D01*
X86470Y84051D01*
X86419Y84102D01*
X86368D01*
Y84051D01*
X86419Y84000D01*
X86368Y83949D01*
Y83898D01*
X177297Y61747D02*
X177398D01*
X177500Y61848D01*
X177602Y61747D01*
X177703D01*
Y61848D01*
X177602Y61950D01*
X177703Y62052D01*
Y62153D01*
X177602D01*
X177500Y62052D01*
X177398Y62153D01*
X177297D01*
Y62052D01*
X177398Y61950D01*
X177297Y61848D01*
Y61747D01*
X177398Y61848D02*
X177449D01*
X177500Y61899D01*
X177551Y61848D01*
X177602D01*
Y61899D01*
X177551Y61950D01*
X177602Y62001D01*
Y62052D01*
X177551D01*
X177500Y62001D01*
X177449Y62052D01*
X177398D01*
Y62001D01*
X177449Y61950D01*
X177398Y61899D01*
Y61848D01*
X158297Y62797D02*
X158398D01*
X158500Y62898D01*
X158602Y62797D01*
X158703D01*
Y62898D01*
X158602Y63000D01*
X158703Y63102D01*
Y63203D01*
X158602D01*
X158500Y63102D01*
X158398Y63203D01*
X158297D01*
Y63102D01*
X158398Y63000D01*
X158297Y62898D01*
Y62797D01*
X158398Y62898D02*
X158449D01*
X158500Y62949D01*
X158551Y62898D01*
X158602D01*
Y62949D01*
X158551Y63000D01*
X158602Y63051D01*
Y63102D01*
X158551D01*
X158500Y63051D01*
X158449Y63102D01*
X158398D01*
Y63051D01*
X158449Y63000D01*
X158398Y62949D01*
Y62898D01*
X114547Y81797D02*
X114648D01*
X114750Y81898D01*
X114852Y81797D01*
X114953D01*
Y81898D01*
X114852Y82000D01*
X114953Y82102D01*
Y82203D01*
X114852D01*
X114750Y82102D01*
X114648Y82203D01*
X114547D01*
Y82102D01*
X114648Y82000D01*
X114547Y81898D01*
Y81797D01*
X114648Y81898D02*
X114699D01*
X114750Y81949D01*
X114801Y81898D01*
X114852D01*
Y81949D01*
X114801Y82000D01*
X114852Y82051D01*
Y82102D01*
X114801D01*
X114750Y82051D01*
X114699Y82102D01*
X114648D01*
Y82051D01*
X114699Y82000D01*
X114648Y81949D01*
Y81898D01*
X114547Y77297D02*
X114648D01*
X114750Y77398D01*
X114852Y77297D01*
X114953D01*
Y77398D01*
X114852Y77500D01*
X114953Y77602D01*
Y77703D01*
X114852D01*
X114750Y77602D01*
X114648Y77703D01*
X114547D01*
Y77602D01*
X114648Y77500D01*
X114547Y77398D01*
Y77297D01*
X114648Y77398D02*
X114699D01*
X114750Y77449D01*
X114801Y77398D01*
X114852D01*
Y77449D01*
X114801Y77500D01*
X114852Y77551D01*
Y77602D01*
X114801D01*
X114750Y77551D01*
X114699Y77602D01*
X114648D01*
Y77551D01*
X114699Y77500D01*
X114648Y77449D01*
Y77398D01*
X114547Y79547D02*
X114648D01*
X114750Y79648D01*
X114852Y79547D01*
X114953D01*
Y79648D01*
X114852Y79750D01*
X114953Y79852D01*
Y79953D01*
X114852D01*
X114750Y79852D01*
X114648Y79953D01*
X114547D01*
Y79852D01*
X114648Y79750D01*
X114547Y79648D01*
Y79547D01*
X114648Y79648D02*
X114699D01*
X114750Y79699D01*
X114801Y79648D01*
X114852D01*
Y79699D01*
X114801Y79750D01*
X114852Y79801D01*
Y79852D01*
X114801D01*
X114750Y79801D01*
X114699Y79852D01*
X114648D01*
Y79801D01*
X114699Y79750D01*
X114648Y79699D01*
Y79648D01*
X151499Y80322D02*
X151601D01*
X151702Y80423D01*
X151804Y80322D01*
X151906D01*
Y80423D01*
X151804Y80525D01*
X151906Y80627D01*
Y80728D01*
X151804D01*
X151702Y80627D01*
X151601Y80728D01*
X151499D01*
Y80627D01*
X151601Y80525D01*
X151499Y80423D01*
Y80322D01*
X151601Y80423D02*
X151652D01*
X151702Y80474D01*
X151753Y80423D01*
X151804D01*
Y80474D01*
X151753Y80525D01*
X151804Y80576D01*
Y80627D01*
X151753D01*
X151702Y80576D01*
X151652Y80627D01*
X151601D01*
Y80576D01*
X151652Y80525D01*
X151601Y80474D01*
Y80423D01*
X142797Y87547D02*
X142898D01*
X143000Y87648D01*
X143102Y87547D01*
X143203D01*
Y87648D01*
X143102Y87750D01*
X143203Y87852D01*
Y87953D01*
X143102D01*
X143000Y87852D01*
X142898Y87953D01*
X142797D01*
Y87852D01*
X142898Y87750D01*
X142797Y87648D01*
Y87547D01*
X142898Y87648D02*
X142949D01*
X143000Y87699D01*
X143051Y87648D01*
X143102D01*
Y87699D01*
X143051Y87750D01*
X143102Y87801D01*
Y87852D01*
X143051D01*
X143000Y87801D01*
X142949Y87852D01*
X142898D01*
Y87801D01*
X142949Y87750D01*
X142898Y87699D01*
Y87648D01*
X150492Y81264D02*
X150593D01*
X150695Y81366D01*
X150797Y81264D01*
X150898D01*
Y81366D01*
X150797Y81467D01*
X150898Y81569D01*
Y81671D01*
X150797D01*
X150695Y81569D01*
X150593Y81671D01*
X150492D01*
Y81569D01*
X150593Y81467D01*
X150492Y81366D01*
Y81264D01*
X150593Y81366D02*
X150644D01*
X150695Y81417D01*
X150746Y81366D01*
X150797D01*
Y81417D01*
X150746Y81467D01*
X150797Y81518D01*
Y81569D01*
X150746D01*
X150695Y81518D01*
X150644Y81569D01*
X150593D01*
Y81518D01*
X150644Y81467D01*
X150593Y81417D01*
Y81366D01*
X148547Y84547D02*
X148648D01*
X148750Y84648D01*
X148852Y84547D01*
X148953D01*
Y84648D01*
X148852Y84750D01*
X148953Y84852D01*
Y84953D01*
X148852D01*
X148750Y84852D01*
X148648Y84953D01*
X148547D01*
Y84852D01*
X148648Y84750D01*
X148547Y84648D01*
Y84547D01*
X148648Y84648D02*
X148699D01*
X148750Y84699D01*
X148801Y84648D01*
X148852D01*
Y84699D01*
X148801Y84750D01*
X148852Y84801D01*
Y84852D01*
X148801D01*
X148750Y84801D01*
X148699Y84852D01*
X148648D01*
Y84801D01*
X148699Y84750D01*
X148648Y84699D01*
Y84648D01*
X147589Y70423D02*
X147504Y70508D01*
X147335D01*
X147250Y70423D01*
Y70085D01*
X147335Y70000D01*
X147504D01*
X147589Y70085D01*
X136047Y68297D02*
X136148D01*
X136250Y68398D01*
X136352Y68297D01*
X136453D01*
Y68398D01*
X136352Y68500D01*
X136453Y68602D01*
Y68703D01*
X136352D01*
X136250Y68602D01*
X136148Y68703D01*
X136047D01*
Y68602D01*
X136148Y68500D01*
X136047Y68398D01*
Y68297D01*
X136148Y68398D02*
X136199D01*
X136250Y68449D01*
X136301Y68398D01*
X136352D01*
Y68449D01*
X136301Y68500D01*
X136352Y68551D01*
Y68602D01*
X136301D01*
X136250Y68551D01*
X136199Y68602D01*
X136148D01*
Y68551D01*
X136199Y68500D01*
X136148Y68449D01*
Y68398D01*
X136297Y69547D02*
X136398D01*
X136500Y69648D01*
X136602Y69547D01*
X136703D01*
Y69648D01*
X136602Y69750D01*
X136703Y69852D01*
Y69953D01*
X136602D01*
X136500Y69852D01*
X136398Y69953D01*
X136297D01*
Y69852D01*
X136398Y69750D01*
X136297Y69648D01*
Y69547D01*
X136398Y69648D02*
X136449D01*
X136500Y69699D01*
X136551Y69648D01*
X136602D01*
Y69699D01*
X136551Y69750D01*
X136602Y69801D01*
Y69852D01*
X136551D01*
X136500Y69801D01*
X136449Y69852D01*
X136398D01*
Y69801D01*
X136449Y69750D01*
X136398Y69699D01*
Y69648D01*
D166*
X117703Y88662D02*
G03*
X117703Y88662I-203J0D01*
G01*
X115163D02*
G03*
X115163Y88662I-203J0D01*
G01*
X137243Y92500D02*
G03*
X137243Y92500I-203J0D01*
G01*
X134703D02*
G03*
X134703Y92500I-203J0D01*
G01*
X116203Y98960D02*
G03*
X116203Y98960I-203J0D01*
G01*
Y101500D02*
G03*
X116203Y101500I-203J0D01*
G01*
Y104040D02*
G03*
X116203Y104040I-203J0D01*
G01*
Y106580D02*
G03*
X116203Y106580I-203J0D01*
G01*
Y109120D02*
G03*
X116203Y109120I-203J0D01*
G01*
Y111660D02*
G03*
X116203Y111660I-203J0D01*
G01*
X125893Y111700D02*
G03*
X125893Y111700I-203J0D01*
G01*
X123353D02*
G03*
X123353Y111700I-203J0D01*
G01*
X66353Y148900D02*
G03*
X66353Y148900I-203J0D01*
G01*
X63813D02*
G03*
X63813Y148900I-203J0D01*
G01*
X166303Y103000D02*
G03*
X166303Y103000I-203J0D01*
G01*
X163763D02*
G03*
X163763Y103000I-203J0D01*
G01*
X161223D02*
G03*
X161223Y103000I-203J0D01*
G01*
X158683D02*
G03*
X158683Y103000I-203J0D01*
G01*
X156143D02*
G03*
X156143Y103000I-203J0D01*
G01*
X153603D02*
G03*
X153603Y103000I-203J0D01*
G01*
X151063D02*
G03*
X151063Y103000I-203J0D01*
G01*
X148523D02*
G03*
X148523Y103000I-203J0D01*
G01*
X145983D02*
G03*
X145983Y103000I-203J0D01*
G01*
X143443D02*
G03*
X143443Y103000I-203J0D01*
G01*
X140903D02*
G03*
X140903Y103000I-203J0D01*
G01*
X138363D02*
G03*
X138363Y103000I-203J0D01*
G01*
X135823D02*
G03*
X135823Y103000I-203J0D01*
G01*
X133283D02*
G03*
X133283Y103000I-203J0D01*
G01*
X130743D02*
G03*
X130743Y103000I-203J0D01*
G01*
X128203D02*
G03*
X128203Y103000I-203J0D01*
G01*
X163253Y53250D02*
G03*
X163253Y53250I-203J0D01*
G01*
Y55790D02*
G03*
X163253Y55790I-203J0D01*
G01*
X165793Y53250D02*
G03*
X165793Y53250I-203J0D01*
G01*
Y55790D02*
G03*
X165793Y55790I-203J0D01*
G01*
X168333Y53250D02*
G03*
X168333Y53250I-203J0D01*
G01*
Y55790D02*
G03*
X168333Y55790I-203J0D01*
G01*
X170873Y53250D02*
G03*
X170873Y53250I-203J0D01*
G01*
Y55790D02*
G03*
X170873Y55790I-203J0D01*
G01*
X173413Y53250D02*
G03*
X173413Y53250I-203J0D01*
G01*
Y55790D02*
G03*
X173413Y55790I-203J0D01*
G01*
X175953Y53250D02*
G03*
X175953Y53250I-203J0D01*
G01*
Y55790D02*
G03*
X175953Y55790I-203J0D01*
G01*
X178493Y53250D02*
G03*
X178493Y53250I-203J0D01*
G01*
Y55790D02*
G03*
X178493Y55790I-203J0D01*
G01*
X181033Y53250D02*
G03*
X181033Y53250I-203J0D01*
G01*
Y55790D02*
G03*
X181033Y55790I-203J0D01*
G01*
X186113D02*
G03*
X186113Y55790I-203J0D01*
G01*
Y53250D02*
G03*
X186113Y53250I-203J0D01*
G01*
X183573Y55790D02*
G03*
X183573Y55790I-203J0D01*
G01*
Y53250D02*
G03*
X183573Y53250I-203J0D01*
G01*
X172813Y149050D02*
G03*
X172813Y149050I-203J0D01*
G01*
X170273D02*
G03*
X170273Y149050I-203J0D01*
G01*
X167733D02*
G03*
X167733Y149050I-203J0D01*
G01*
X165193D02*
G03*
X165193Y149050I-203J0D01*
G01*
X178163Y149000D02*
G03*
X178163Y149000I-203J0D01*
G01*
X180703D02*
G03*
X180703Y149000I-203J0D01*
G01*
X183243D02*
G03*
X183243Y149000I-203J0D01*
G01*
X196663Y127620D02*
G03*
X196663Y127620I-203J0D01*
G01*
X199203D02*
G03*
X199203Y127620I-203J0D01*
G01*
X196663Y125080D02*
G03*
X196663Y125080I-203J0D01*
G01*
X199203D02*
G03*
X199203Y125080I-203J0D01*
G01*
X196663Y122540D02*
G03*
X196663Y122540I-203J0D01*
G01*
X199203D02*
G03*
X199203Y122540I-203J0D01*
G01*
X196663Y120000D02*
G03*
X196663Y120000I-203J0D01*
G01*
X199203D02*
G03*
X199203Y120000I-203J0D01*
G01*
X196663Y117460D02*
G03*
X196663Y117460I-203J0D01*
G01*
X199203D02*
G03*
X199203Y117460I-203J0D01*
G01*
X196663Y114920D02*
G03*
X196663Y114920I-203J0D01*
G01*
X199203D02*
G03*
X199203Y114920I-203J0D01*
G01*
X196663Y112380D02*
G03*
X196663Y112380I-203J0D01*
G01*
X199203D02*
G03*
X199203Y112380I-203J0D01*
G01*
X196663Y109840D02*
G03*
X196663Y109840I-203J0D01*
G01*
X199203D02*
G03*
X199203Y109840I-203J0D01*
G01*
X138363Y110520D02*
G03*
X138363Y110520I-203J0D01*
G01*
X140903Y107980D02*
G03*
X140903Y107980I-203J0D01*
G01*
X135823D02*
G03*
X135823Y107980I-203J0D01*
G01*
X199203Y78340D02*
G03*
X199203Y78340I-203J0D01*
G01*
X196663D02*
G03*
X196663Y78340I-203J0D01*
G01*
X199203Y80880D02*
G03*
X199203Y80880I-203J0D01*
G01*
X196663D02*
G03*
X196663Y80880I-203J0D01*
G01*
X199203Y83420D02*
G03*
X199203Y83420I-203J0D01*
G01*
X196663D02*
G03*
X196663Y83420I-203J0D01*
G01*
X199203Y85960D02*
G03*
X199203Y85960I-203J0D01*
G01*
X196663D02*
G03*
X196663Y85960I-203J0D01*
G01*
X199203Y88500D02*
G03*
X199203Y88500I-203J0D01*
G01*
X196663D02*
G03*
X196663Y88500I-203J0D01*
G01*
X199203Y91040D02*
G03*
X199203Y91040I-203J0D01*
G01*
X196663D02*
G03*
X196663Y91040I-203J0D01*
G01*
X199203Y93580D02*
G03*
X199203Y93580I-203J0D01*
G01*
X196663D02*
G03*
X196663Y93580I-203J0D01*
G01*
X199203Y96120D02*
G03*
X199203Y96120I-203J0D01*
G01*
X196663D02*
G03*
X196663Y96120I-203J0D01*
G01*
X139793Y53120D02*
G03*
X139793Y53120I-203J0D01*
G01*
Y55660D02*
G03*
X139793Y55660I-203J0D01*
G01*
X142333Y53120D02*
G03*
X142333Y53120I-203J0D01*
G01*
Y55660D02*
G03*
X142333Y55660I-203J0D01*
G01*
X144873Y53120D02*
G03*
X144873Y53120I-203J0D01*
G01*
Y55660D02*
G03*
X144873Y55660I-203J0D01*
G01*
X147413Y53120D02*
G03*
X147413Y53120I-203J0D01*
G01*
Y55660D02*
G03*
X147413Y55660I-203J0D01*
G01*
X149953Y53120D02*
G03*
X149953Y53120I-203J0D01*
G01*
Y55660D02*
G03*
X149953Y55660I-203J0D01*
G01*
X152493Y53120D02*
G03*
X152493Y53120I-203J0D01*
G01*
Y55660D02*
G03*
X152493Y55660I-203J0D01*
G01*
X155033Y53120D02*
G03*
X155033Y53120I-203J0D01*
G01*
Y55660D02*
G03*
X155033Y55660I-203J0D01*
G01*
X157573Y53120D02*
G03*
X157573Y53120I-203J0D01*
G01*
Y55660D02*
G03*
X157573Y55660I-203J0D01*
G01*
X155733Y148900D02*
G03*
X155733Y148900I-203J0D01*
G01*
X158273D02*
G03*
X158273Y148900I-203J0D01*
G01*
X148273D02*
G03*
X148273Y148900I-203J0D01*
G01*
X150813D02*
G03*
X150813Y148900I-203J0D01*
G01*
X89684Y149000D02*
G03*
X89684Y149000I-203J0D01*
G01*
X92224D02*
G03*
X92224Y149000I-203J0D01*
G01*
X94764D02*
G03*
X94764Y149000I-203J0D01*
G01*
X101663D02*
G03*
X101663Y149000I-203J0D01*
G01*
X104203D02*
G03*
X104203Y149000I-203J0D01*
G01*
X106743D02*
G03*
X106743Y149000I-203J0D01*
G01*
X184103Y121750D02*
G03*
X184103Y121750I-203J0D01*
G01*
Y119210D02*
G03*
X184103Y119210I-203J0D01*
G01*
Y116670D02*
G03*
X184103Y116670I-203J0D01*
G01*
Y114130D02*
G03*
X184103Y114130I-203J0D01*
G01*
X81533Y149050D02*
G03*
X81533Y149050I-203J0D01*
G01*
X78993D02*
G03*
X78993Y149050I-203J0D01*
G01*
X76453D02*
G03*
X76453Y149050I-203J0D01*
G01*
X73913D02*
G03*
X73913Y149050I-203J0D01*
G01*
X120663Y149000D02*
G03*
X120663Y149000I-203J0D01*
G01*
X123203D02*
G03*
X123203Y149000I-203J0D01*
G01*
X131203D02*
G03*
X131203Y149000I-203J0D01*
G01*
X128663D02*
G03*
X128663Y149000I-203J0D01*
G01*
D167*
X138262Y110520D02*
G03*
X138262Y110520I-102J0D01*
G01*
X140802Y107980D02*
G03*
X140802Y107980I-102J0D01*
G01*
X135722D02*
G03*
X135722Y107980I-102J0D01*
G01*
M02*
