G04*
G04 #@! TF.GenerationSoftware,Altium Limited,Altium Designer,19.0.10 (269)*
G04*
G04 Layer_Color=16711935*
%FSLAX43Y43*%
%MOMM*%
G71*
G01*
G75*
%ADD12C,0.127*%
%ADD162C,0.100*%
%ADD163R,0.615X5.840*%
D12*
X136000Y82500D02*
X142000D01*
X136000Y88500D02*
X142000D01*
X136000Y82500D02*
Y88500D01*
X142000Y82500D02*
Y88500D01*
X51990Y73060D02*
X100740D01*
X51990Y134060D02*
X100740D01*
D162*
X131000Y134850D02*
G03*
X131000Y134850I-500J0D01*
G01*
X177350Y69650D02*
G03*
X177350Y69650I-500J0D01*
G01*
X173150Y139100D02*
G03*
X173150Y139100I-500J0D01*
G01*
Y139050D02*
G03*
X173150Y139050I-500J0D01*
G01*
X183650Y140250D02*
G03*
X183650Y140250I-3150J0D01*
G01*
X93280Y54970D02*
G03*
X92680Y54370I0J-600D01*
G01*
X73090D02*
G03*
X72490Y54970I-600J0D01*
G01*
X97230Y59000D02*
G03*
X93530Y59000I-1850J0D01*
G01*
X96880Y56187D02*
G03*
X97230Y57270I-1500J1083D01*
G01*
X68290Y54970D02*
G03*
X67690Y54370I0J-600D01*
G01*
X96042Y56020D02*
G03*
X96045Y56085I-662J65D01*
G01*
X94715D02*
G03*
X94718Y56020I665J0D01*
G01*
X98080Y54370D02*
G03*
X97480Y54970I-600J0D01*
G01*
X72240Y59000D02*
G03*
X68540Y59000I-1850J0D01*
G01*
X71052Y56020D02*
G03*
X71055Y56085I-662J65D01*
G01*
X69725D02*
G03*
X69728Y56020I665J0D01*
G01*
X93530Y57270D02*
G03*
X93880Y56187I1850J0D01*
G01*
X71890D02*
G03*
X72240Y57270I-1500J1083D01*
G01*
X68540D02*
G03*
X68890Y56187I1850J0D01*
G01*
X91450Y49420D02*
G03*
X91050Y49020I0J-400D01*
G01*
X74720D02*
G03*
X74320Y49420I-400J0D01*
G01*
X90563Y43420D02*
G03*
X91050Y44420I-783J1000D01*
G01*
X74720D02*
G03*
X75207Y43420I1270J0D01*
G01*
X81988Y82659D02*
G03*
X81988Y82659I-500J0D01*
G01*
X168700Y120300D02*
G03*
X168700Y120300I-500J0D01*
G01*
X152900Y136000D02*
G03*
X152900Y136000I-3150J0D01*
G01*
X160900D02*
G03*
X160900Y136000I-3150J0D01*
G01*
X144900Y132950D02*
G03*
X144900Y132950I-3150J0D01*
G01*
X116700Y135750D02*
G03*
X116700Y135750I-3150J0D01*
G01*
X138600Y66175D02*
X140350D01*
X138600Y69175D02*
X140350D01*
Y66175D02*
Y69175D01*
X138600Y66175D02*
Y69175D01*
X102250Y144825D02*
Y145775D01*
X100500Y144825D02*
Y145775D01*
Y144825D02*
X102250D01*
X100500Y145775D02*
X102250D01*
X116770Y59080D02*
X123630D01*
X116770Y64920D02*
X123630D01*
X116770Y59080D02*
Y64920D01*
X123630Y59080D02*
Y64920D01*
X112025Y108650D02*
X113775D01*
X112025Y109600D02*
X113775D01*
X112025Y108650D02*
Y109600D01*
X113775Y108650D02*
Y109600D01*
X119175Y110175D02*
X120125D01*
X119175Y111925D02*
X120125D01*
Y110175D02*
Y111925D01*
X119175Y110175D02*
Y111925D01*
X121600Y131250D02*
Y135750D01*
X131400Y131250D02*
Y135750D01*
X121600Y131250D02*
X131400D01*
X121600Y135750D02*
X131400D01*
X170250Y70550D02*
X177750D01*
X170250Y64950D02*
X177750D01*
Y70550D01*
X170250Y64950D02*
Y70550D01*
X165350Y140050D02*
X173750D01*
X165350Y135550D02*
X173750D01*
Y140050D01*
X165350Y135550D02*
Y140050D01*
X188425Y148300D02*
X189375D01*
X188425Y146550D02*
X189375D01*
X188425D02*
Y148300D01*
X189375Y146550D02*
Y148300D01*
X120000Y126075D02*
X121750D01*
X120000Y125125D02*
X121750D01*
Y126075D01*
X120000Y125125D02*
Y126075D01*
X122825Y122290D02*
Y124040D01*
X123775Y122290D02*
Y124040D01*
X122825D02*
X123775D01*
X122825Y122290D02*
X123775D01*
X118750Y130050D02*
Y130950D01*
X120450Y130050D02*
Y130950D01*
X118750Y130050D02*
X120450D01*
X118750Y130950D02*
X120450D01*
X165350Y140000D02*
X173750D01*
X165350Y135500D02*
X173750D01*
Y140000D01*
X165350Y135500D02*
Y140000D01*
X163500Y135650D02*
Y137350D01*
X162600Y135650D02*
Y137350D01*
Y135650D02*
X163500D01*
X162600Y137350D02*
X163500D01*
X175525Y134625D02*
X176475D01*
X175525Y132875D02*
X176475D01*
X175525D02*
Y134625D01*
X176475Y132875D02*
Y134625D01*
X152060Y83975D02*
Y85525D01*
X149660Y83975D02*
Y85525D01*
Y83975D02*
X152060D01*
X149660Y85525D02*
X152060D01*
X143375Y61520D02*
Y62480D01*
X141625Y61520D02*
Y62480D01*
X143375D01*
X141625Y61520D02*
X143375D01*
X127925Y59050D02*
Y61200D01*
X129325Y59050D02*
Y61200D01*
X127925D02*
X129325D01*
X127925Y59050D02*
X129325D01*
X131125Y94316D02*
X132575D01*
X131125Y92116D02*
X132575D01*
Y94316D01*
X131125Y92116D02*
Y94316D01*
X121925Y85087D02*
X124725D01*
X121925Y88687D02*
X124725D01*
X121925Y85087D02*
Y88687D01*
X124725Y85087D02*
Y88687D01*
X177900Y118975D02*
X180100D01*
X177900Y117525D02*
X180100D01*
Y118975D01*
X177900Y117525D02*
Y118975D01*
X128045Y107235D02*
X130255D01*
X128045Y108685D02*
X130255D01*
X128045Y107235D02*
Y108685D01*
X130255Y107235D02*
Y108685D01*
X147500Y144775D02*
X149250D01*
X147500Y145725D02*
X149250D01*
X147500Y144775D02*
Y145725D01*
X149250Y144775D02*
Y145725D01*
X178840Y124380D02*
X180140D01*
X178840Y121460D02*
X180140D01*
Y124380D01*
X178840Y121460D02*
Y124380D01*
X90135Y53670D02*
Y61820D01*
X93771Y58615D02*
Y59225D01*
X88410Y49020D02*
X91050D01*
X96485Y49850D02*
Y51870D01*
X71999Y58615D02*
Y59225D01*
X69285Y49850D02*
Y51870D01*
X77360Y44420D02*
Y49020D01*
X68985Y49420D02*
Y49850D01*
X74720Y49020D02*
X77360D01*
X93880Y58115D02*
X94715D01*
X75635Y53670D02*
Y61820D01*
X88410Y44420D02*
X91050D01*
X96989Y58615D02*
Y59225D01*
X74720Y44420D02*
X77360D01*
Y43420D02*
Y44420D01*
X96045Y58115D02*
X96880D01*
X88410Y44420D02*
Y49020D01*
X77360D02*
X88410D01*
Y49420D01*
X71055Y58115D02*
X71890D01*
X77360Y44420D02*
X88410D01*
X68890Y58115D02*
X69725D01*
X88410Y43420D02*
Y44420D01*
X68781Y58615D02*
Y59225D01*
X96785Y49420D02*
Y49850D01*
X77360Y49020D02*
Y49420D01*
X92730Y53670D02*
Y54020D01*
X71055Y58115D02*
Y59225D01*
X69030Y56020D02*
X71750D01*
X96880Y58615D02*
X96989D01*
X90135Y53670D02*
X98285D01*
X98080D02*
Y54370D01*
X69725Y56085D02*
Y58115D01*
X93544Y59225D02*
X93771D01*
X68890Y54970D02*
Y58115D01*
X71055Y59225D02*
X71890D01*
X98030Y53670D02*
Y54020D01*
X96989Y58615D02*
X97230D01*
X67740Y54020D02*
X73040D01*
X67690Y53670D02*
Y54370D01*
X96045Y56085D02*
Y58115D01*
X96740Y54020D02*
Y56020D01*
X96880Y54970D02*
X97480D01*
X67485Y51870D02*
X98285D01*
X96880Y59225D02*
X96989D01*
X96737Y43420D02*
Y49420D01*
X94020Y54020D02*
Y56020D01*
X68890Y59225D02*
X69725D01*
X96989D02*
X97216D01*
X91635Y53670D02*
Y61820D01*
X93771Y59225D02*
X93880D01*
X67485Y49420D02*
X98285D01*
X96880Y54970D02*
Y58115D01*
X93880D02*
Y59225D01*
X93280Y54970D02*
X93880D01*
X71055Y56085D02*
Y58115D01*
X96045D02*
Y59225D01*
X68781Y58615D02*
X68890D01*
X68781Y59225D02*
X68890D01*
X74135Y53670D02*
Y61820D01*
X68985Y49850D02*
X69285D01*
X96880Y58115D02*
Y59225D01*
X69033Y43420D02*
Y49420D01*
X97230Y57270D02*
Y61820D01*
X73040Y53670D02*
Y54020D01*
X71747Y43420D02*
Y49420D01*
X68540Y57270D02*
Y61820D01*
X93530Y58615D02*
X93771D01*
X94020Y56020D02*
X96740D01*
X71890Y54970D02*
Y58115D01*
X96785Y49850D02*
X98285D01*
X92730Y54020D02*
X98030D01*
X96485Y49850D02*
X96785D01*
X94715Y56085D02*
Y58115D01*
X67485Y49850D02*
X68985D01*
X71890Y59225D02*
X71999D01*
X73090Y53670D02*
Y54370D01*
X69725Y58115D02*
Y59225D01*
X71890Y58115D02*
Y59225D01*
X68890Y58115D02*
Y59225D01*
X94023Y43420D02*
Y49420D01*
X71999Y59225D02*
X72226D01*
X93530Y57270D02*
Y61820D01*
X94715Y58115D02*
Y59225D01*
X71890Y54970D02*
X72490D01*
X68554Y59225D02*
X68781D01*
X93880Y54970D02*
Y58115D01*
Y59225D02*
X94715D01*
X69030Y54020D02*
Y56020D01*
X67485Y53670D02*
X75635D01*
X92680D02*
Y54370D01*
X67740Y53670D02*
Y54020D01*
X93771Y58615D02*
X93880D01*
X71890D02*
X71999D01*
X72240D01*
X96045Y59225D02*
X96880D01*
X68540Y58615D02*
X68781D01*
X72240Y57270D02*
Y61820D01*
X71750Y54020D02*
Y56020D01*
X68290Y54970D02*
X68890D01*
X67485Y61820D02*
X98285D01*
X67485Y49420D02*
Y61820D01*
X98285Y49420D02*
Y61820D01*
X73104Y43420D02*
Y49420D01*
X67676Y43420D02*
X73104D01*
X92666D02*
X98094D01*
X75207D02*
X90563D01*
X98094Y43420D02*
Y49420D01*
X92666Y43420D02*
Y49420D01*
X67676Y43420D02*
Y49420D01*
X74720Y44420D02*
Y49020D01*
X91050Y44420D02*
Y49020D01*
X172740Y129875D02*
X173690D01*
X172740Y131625D02*
X173690D01*
Y128475D02*
Y131625D01*
X172740Y128475D02*
Y131625D01*
X111450Y81325D02*
Y82675D01*
X113550Y81325D02*
Y82675D01*
X111450D02*
X113550D01*
X111450Y81325D02*
X113550D01*
X168050Y101350D02*
X169450D01*
X168050Y98350D02*
X169450D01*
X168050D02*
Y101350D01*
X169450Y98350D02*
Y101350D01*
X113325Y79275D02*
Y80225D01*
X111675Y79275D02*
Y80225D01*
X113325D01*
X111675Y79275D02*
X113325D01*
X174425Y114375D02*
X176075D01*
X174425Y117625D02*
X176075D01*
Y114375D02*
Y117625D01*
X174425Y114375D02*
Y117625D01*
X134860Y111595D02*
X141460D01*
X134860Y106905D02*
X141460D01*
Y111595D01*
X134860Y106905D02*
Y111595D01*
X167325Y95475D02*
Y97175D01*
X168275Y95475D02*
Y97175D01*
X167325Y95475D02*
X168275D01*
X167325Y97175D02*
X168275D01*
X117550Y139650D02*
Y142850D01*
X123850Y139650D02*
Y142850D01*
X117550Y139650D02*
X123850D01*
X117550Y142850D02*
X123850D01*
X147420Y79918D02*
Y83018D01*
X149220Y79918D02*
Y83018D01*
X147420D02*
X149220D01*
X147420Y79918D02*
X149220D01*
X128850Y90116D02*
Y93016D01*
X127250Y90116D02*
Y93016D01*
Y90116D02*
X128850D01*
X127250Y93016D02*
X128850D01*
X80635Y77706D02*
Y83294D01*
X85135Y77706D02*
Y83294D01*
X80635D02*
X85135D01*
X80635Y77706D02*
X85135D01*
X167300Y116300D02*
Y121200D01*
X171200Y116300D02*
Y121200D01*
X167300D02*
X171200D01*
X167300Y116300D02*
X171200D01*
X143515Y144750D02*
X144765D01*
X143515Y142750D02*
X144765D01*
X143515D02*
Y144750D01*
X144765Y142750D02*
Y144750D01*
X51125Y127675D02*
X52075D01*
X51125Y125925D02*
X52075D01*
Y127675D01*
X51125Y125925D02*
Y127675D01*
X51990Y67980D02*
X77771D01*
X51990D02*
Y73060D01*
X100700Y67980D02*
Y73060D01*
X100700Y128980D02*
Y134060D01*
X51990Y128980D02*
Y134060D01*
Y128980D02*
X77771D01*
X133525Y139500D02*
Y141250D01*
X134475Y139500D02*
Y141250D01*
X133525Y139500D02*
X134475D01*
X133525Y141250D02*
X134475D01*
X172475Y143525D02*
Y145275D01*
X171525Y143525D02*
Y145275D01*
X172475D01*
X171525Y143525D02*
X172475D01*
X174525Y141375D02*
Y143125D01*
X175475Y141375D02*
Y143125D01*
X174525D02*
X175475D01*
X174525Y141375D02*
X175475D01*
X165500Y143375D02*
Y145125D01*
X166450Y143375D02*
Y145125D01*
X165500Y143375D02*
X166450D01*
X165500Y145125D02*
X166450D01*
X164475Y117875D02*
Y119625D01*
X163525Y117875D02*
Y119625D01*
X164475D01*
X163525Y117875D02*
X164475D01*
X173850Y74015D02*
Y75765D01*
X174800Y74015D02*
Y75765D01*
X173850Y74015D02*
X174800D01*
X173850Y75765D02*
X174800D01*
X144520Y93150D02*
X148120D01*
X144520Y90350D02*
X148120D01*
X144520D02*
Y93150D01*
X148120Y90350D02*
Y93150D01*
X144520Y89650D02*
X148120D01*
X144520Y86850D02*
X148120D01*
X144520D02*
Y89650D01*
X148120Y86850D02*
Y89650D01*
X139770Y76100D02*
X143370D01*
X139770Y78900D02*
X143370D01*
Y76100D02*
Y78900D01*
X139770Y76100D02*
Y78900D01*
Y72600D02*
X143370D01*
X139770Y75400D02*
X143370D01*
Y72600D02*
Y75400D01*
X139770Y72600D02*
Y75400D01*
X169175Y97175D02*
X170125D01*
X169175Y95475D02*
X170125D01*
Y97175D01*
X169175Y95475D02*
Y97175D01*
X127925Y65075D02*
X129325D01*
X127925Y62925D02*
X129325D01*
X127925D02*
Y65075D01*
X129325Y62925D02*
Y65075D01*
X90625Y142025D02*
Y142975D01*
X88875Y142025D02*
Y142975D01*
X90625D01*
X88875Y142025D02*
X90625D01*
X131825Y124225D02*
X134975D01*
X131825Y125175D02*
X134975D01*
X131825Y124225D02*
Y125175D01*
X133575Y124225D02*
Y125175D01*
X126775D02*
X129925D01*
X126775Y124225D02*
X129925D01*
Y125175D01*
X128175Y124225D02*
Y125175D01*
X118100Y138825D02*
X119850D01*
X118100Y137875D02*
X119850D01*
Y138825D01*
X118100Y137875D02*
Y138825D01*
X121475Y136850D02*
Y138600D01*
X120525Y136850D02*
Y138600D01*
Y136850D02*
X121475D01*
X120525Y138600D02*
X121475D01*
X132598Y128475D02*
X135748D01*
X132598Y129425D02*
X135748D01*
X132598Y128475D02*
Y129425D01*
X134348Y128475D02*
Y129425D01*
X132598Y125725D02*
X135748D01*
X132598Y126675D02*
X135748D01*
X132598Y125725D02*
Y126675D01*
X134348Y125725D02*
Y126675D01*
X129100Y139650D02*
X135400D01*
X129100Y142850D02*
X135400D01*
X129100Y139650D02*
Y142850D01*
X135400Y139650D02*
Y142850D01*
X163375Y130775D02*
X165125D01*
X163375Y131725D02*
X165125D01*
Y130775D02*
Y131725D01*
X163375Y130775D02*
Y131725D01*
X167025Y127475D02*
X168775D01*
X167025Y126525D02*
X168775D01*
X167025D02*
Y127475D01*
X168775Y126525D02*
Y127475D01*
X169400Y128475D02*
Y131625D01*
X170350Y128475D02*
Y131625D01*
X169400D02*
X170350D01*
X169400Y129875D02*
X170350D01*
X145000Y143275D02*
Y144225D01*
X143250Y143275D02*
Y144225D01*
X145000D01*
X143250Y143275D02*
X145000D01*
X163375Y132475D02*
Y133425D01*
X165125Y132475D02*
Y133425D01*
X163375Y132475D02*
X165125D01*
X163375Y133425D02*
X165125D01*
X150360Y144775D02*
X152110D01*
X150360Y145725D02*
X152110D01*
X150360Y144775D02*
Y145725D01*
X152110Y144775D02*
Y145725D01*
X157820Y144825D02*
X159570D01*
X157820Y145775D02*
X159570D01*
X157820Y144825D02*
Y145775D01*
X159570Y144825D02*
Y145775D01*
X151085Y142000D02*
Y143750D01*
X150135Y142000D02*
Y143750D01*
Y142000D02*
X151085D01*
X150135Y143750D02*
X151085D01*
X158545Y141925D02*
Y143675D01*
X157595Y141925D02*
Y143675D01*
Y141925D02*
X158545D01*
X157595Y143675D02*
X158545D01*
X167725Y129875D02*
Y131625D01*
X166775Y129875D02*
Y131625D01*
Y129875D02*
X167725D01*
X166775Y131625D02*
X167725D01*
X156620Y144825D02*
Y145775D01*
X154870Y144825D02*
Y145775D01*
X156620D01*
X154870Y144825D02*
X156620D01*
X188775Y55375D02*
X189725D01*
X188775Y53625D02*
X189725D01*
X188775D02*
Y55375D01*
X189725Y53625D02*
Y55375D01*
X180355Y60375D02*
X181305D01*
X180355Y58625D02*
X181305D01*
X180355D02*
Y60375D01*
X181305Y58625D02*
Y60375D01*
X180025Y146000D02*
X180975D01*
X180025Y144250D02*
X180975D01*
X180025D02*
Y146000D01*
X180975Y144250D02*
Y146000D01*
X190975Y146550D02*
Y148300D01*
X190025Y146550D02*
Y148300D01*
Y146550D02*
X190975D01*
X190025Y148300D02*
X190975D01*
X80855Y144625D02*
X81805D01*
X80855Y146375D02*
X81805D01*
Y144625D02*
Y146375D01*
X80855Y144625D02*
Y146375D01*
X70755Y74500D02*
Y76250D01*
X71705Y74500D02*
Y76250D01*
X70755D02*
X71705D01*
X70755Y74500D02*
X71705D01*
X55515Y125875D02*
Y127625D01*
X56465Y125875D02*
Y127625D01*
X55515D02*
X56465D01*
X55515Y125875D02*
X56465D01*
X70755Y78750D02*
X71705D01*
X70755Y77000D02*
X71705D01*
X70755D02*
Y78750D01*
X71705Y77000D02*
Y78750D01*
X58055Y76000D02*
X59005D01*
X58055Y74250D02*
X59005D01*
X58055D02*
Y76000D01*
X59005Y74250D02*
Y76000D01*
X58055Y125875D02*
Y127625D01*
X59005Y125875D02*
Y127625D01*
X58055D02*
X59005D01*
X58055Y125875D02*
X59005D01*
X111625Y75725D02*
X113375D01*
X111625Y74775D02*
X113375D01*
Y75725D01*
X111625Y74775D02*
Y75725D01*
Y81525D02*
X113375D01*
X111625Y82475D02*
X113375D01*
X111625Y81525D02*
Y82475D01*
X113375Y81525D02*
Y82475D01*
X111675Y77025D02*
X113325D01*
X111675Y77975D02*
X113325D01*
X111675Y77025D02*
Y77975D01*
X113325Y77025D02*
Y77975D01*
X87950Y81543D02*
X88900D01*
X87950Y83293D02*
X88900D01*
Y81543D02*
Y83293D01*
X87950Y81543D02*
Y83293D01*
X67000Y74025D02*
Y74975D01*
X68750Y74025D02*
Y74975D01*
X67000Y74025D02*
X68750D01*
X67000Y74975D02*
X68750D01*
X69975Y75750D02*
Y77500D01*
X69025Y75750D02*
Y77500D01*
Y75750D02*
X69975D01*
X69025Y77500D02*
X69975D01*
X171225Y113225D02*
X172175D01*
X171225Y114975D02*
X172175D01*
Y113225D02*
Y114975D01*
X171225Y113225D02*
Y114975D01*
X96875Y144925D02*
Y145875D01*
X98625Y144925D02*
Y145875D01*
X96875Y144925D02*
X98625D01*
X96875Y145875D02*
X98625D01*
X108125Y144825D02*
Y145775D01*
X109875Y144825D02*
Y145775D01*
X108125Y144825D02*
X109875D01*
X108125Y145775D02*
X109875D01*
X94065Y143900D02*
Y145650D01*
X95015Y143900D02*
Y145650D01*
X94065D02*
X95015D01*
X94065Y143900D02*
X95015D01*
X92475D02*
Y145650D01*
X91525Y143900D02*
Y145650D01*
Y143900D02*
X92475D01*
X91525Y145650D02*
X92475D01*
X106065Y143800D02*
Y145550D01*
X107015Y143800D02*
Y145550D01*
X106065D02*
X107015D01*
X106065Y143800D02*
X107015D01*
X104475D02*
Y145550D01*
X103525Y143800D02*
Y145550D01*
Y143800D02*
X104475D01*
X103525Y145550D02*
X104475D01*
X90250Y144925D02*
Y145875D01*
X88500Y144925D02*
Y145875D01*
X90250D01*
X88500Y144925D02*
X90250D01*
X80525Y79973D02*
X81975D01*
X80525Y77762D02*
X81975D01*
X80525D02*
Y79973D01*
X81975Y77762D02*
Y79973D01*
X76025Y79145D02*
X77475D01*
X76025Y81355D02*
X77475D01*
Y79145D02*
Y81355D01*
X76025Y79145D02*
Y81355D01*
X80525Y83223D02*
X81975D01*
X80525Y81012D02*
X81975D01*
X80525D02*
Y83223D01*
X81975Y81012D02*
Y83223D01*
X76025Y82395D02*
X77475D01*
X76025Y84605D02*
X77475D01*
Y82395D02*
Y84605D01*
X76025Y82395D02*
Y84605D01*
X174425Y118875D02*
Y122125D01*
X176075Y118875D02*
Y122125D01*
X174425D02*
X176075D01*
X174425Y118875D02*
X176075D01*
X187875Y121275D02*
Y122225D01*
X186125Y121275D02*
Y122225D01*
X187875D01*
X186125Y121275D02*
X187875D01*
Y118735D02*
Y119685D01*
X186125Y118735D02*
Y119685D01*
X187875D01*
X186125Y118735D02*
X187875D01*
X180200Y111720D02*
Y114640D01*
X178900Y111720D02*
Y114640D01*
X180200D01*
X178900Y111720D02*
X180200D01*
X186005Y114425D02*
X186955D01*
X186005Y116175D02*
X186955D01*
Y114425D02*
Y116175D01*
X186005Y114425D02*
Y116175D01*
X130125Y105275D02*
Y106225D01*
X128375Y105275D02*
Y106225D01*
X130125D01*
X128375Y105275D02*
X130125D01*
X163125Y99225D02*
X164075D01*
X163125Y100975D02*
X164075D01*
Y99225D02*
Y100975D01*
X163125Y99225D02*
Y100975D01*
X152195Y83793D02*
Y84743D01*
X153945Y83793D02*
Y84743D01*
X152195Y83793D02*
X153945D01*
X152195Y84743D02*
X153945D01*
X152195Y80793D02*
X153945D01*
X152195Y81743D02*
X153945D01*
X152195Y80793D02*
Y81743D01*
X153945Y80793D02*
Y81743D01*
X152195Y83243D02*
X153945D01*
X152195Y82293D02*
X153945D01*
Y83243D01*
X152195Y82293D02*
Y83243D01*
X134175Y71315D02*
X137325D01*
X134175Y72265D02*
X137325D01*
Y71315D02*
Y72265D01*
X135575Y71315D02*
Y72265D01*
X135275Y65125D02*
X136225D01*
X135275Y66875D02*
X136225D01*
X135275Y65125D02*
Y66875D01*
X136225Y65125D02*
Y66875D01*
X134525Y70125D02*
X135475D01*
X134525Y68375D02*
X135475D01*
X134525D02*
Y70125D01*
X135475Y68375D02*
Y70125D01*
X137875Y68175D02*
X139625D01*
X137875Y69125D02*
X139625D01*
X137875Y68175D02*
Y69125D01*
X139625Y68175D02*
Y69125D01*
X133025Y68375D02*
Y70125D01*
X133975Y68375D02*
Y70125D01*
X133025D02*
X133975D01*
X133025Y68375D02*
X133975D01*
X132850Y64150D02*
X139150D01*
X132850Y67350D02*
X139150D01*
X132850Y64150D02*
Y67350D01*
X139150Y64150D02*
Y67350D01*
X132850Y60400D02*
X139150D01*
X132850Y63600D02*
X139150D01*
X132850Y60400D02*
Y63600D01*
X139150Y60400D02*
Y63600D01*
X154325Y124225D02*
Y125975D01*
X155275Y124225D02*
Y125975D01*
X154325D02*
X155275D01*
X154325Y124225D02*
X155275D01*
X116875Y126745D02*
Y128495D01*
X115925Y126745D02*
Y128495D01*
Y126745D02*
X116875D01*
X115925Y128495D02*
X116875D01*
X117525Y128475D02*
X118475D01*
X117525Y126725D02*
X118475D01*
X117525D02*
Y128475D01*
X118475Y126725D02*
Y128475D01*
X156175Y124225D02*
X157125D01*
X156175Y125975D02*
X157125D01*
Y124225D02*
Y125975D01*
X156175Y124225D02*
Y125975D01*
X144070Y80195D02*
Y82405D01*
X142620Y80195D02*
Y82405D01*
X144070D01*
X142620Y80195D02*
X144070D01*
X132025Y139500D02*
Y141250D01*
X132975Y139500D02*
Y141250D01*
X132025Y139500D02*
X132975D01*
X132025Y141250D02*
X132975D01*
X129425Y140572D02*
Y142322D01*
X130375Y140572D02*
Y142322D01*
X129425Y140572D02*
X130375D01*
X129425Y142322D02*
X130375D01*
X122525Y140572D02*
Y142322D01*
X123475Y140572D02*
Y142322D01*
X122525Y140572D02*
X123475D01*
X122525Y142322D02*
X123475D01*
X126375Y94266D02*
Y96016D01*
X127325Y94266D02*
Y96016D01*
X126375Y94266D02*
X127325D01*
X126375Y96016D02*
X127325D01*
Y87162D02*
Y88912D01*
X126375Y87162D02*
Y88912D01*
X127325D01*
X126375Y87162D02*
X127325D01*
X132325Y89116D02*
Y90866D01*
X131375Y89116D02*
Y90866D01*
X132325D01*
X131375Y89116D02*
X132325D01*
X90375Y141500D02*
Y143500D01*
X89125Y141500D02*
Y143500D01*
Y141500D02*
X90375D01*
X89125Y143500D02*
X90375D01*
X166575Y128950D02*
Y131050D01*
X167925Y128950D02*
Y131050D01*
X166575Y128950D02*
X167925D01*
X166575Y131050D02*
X167925D01*
X123575Y123450D02*
Y125550D01*
X124925Y123450D02*
Y125550D01*
X123575Y123450D02*
X124925D01*
X123575Y125550D02*
X124925D01*
X111450Y76825D02*
X113550D01*
X111450Y78175D02*
X113550D01*
Y76825D02*
Y78175D01*
X111450Y76825D02*
Y78175D01*
Y79075D02*
X113550D01*
X111450Y80425D02*
X113550D01*
Y79075D02*
Y80425D01*
X111450Y79075D02*
Y80425D01*
X132425Y136725D02*
Y138475D01*
X133375Y136725D02*
Y138475D01*
X132425Y136725D02*
X133375D01*
X132425Y138475D02*
X133375D01*
X111450Y74575D02*
X113550D01*
X111450Y75925D02*
X113550D01*
Y74575D02*
Y75925D01*
X111450Y74575D02*
Y75925D01*
D163*
X123333Y62000D02*
D03*
M02*
