G04*
G04 #@! TF.GenerationSoftware,Altium Limited,Altium Designer,19.0.10 (269)*
G04*
G04 Layer_Color=2752767*
%FSLAX43Y43*%
%MOMM*%
G71*
G01*
G75*
%ADD165C,0.051*%
%ADD166C,0.068*%
%ADD167C,0.034*%
D165*
X86797Y88797D02*
Y89203D01*
X87203D01*
Y88797D01*
X86797D01*
X81797D02*
Y89203D01*
X82203D01*
Y88797D01*
X81797D01*
X197500Y102797D02*
X197297Y103203D01*
X197703D01*
X197500Y102797D01*
Y71297D02*
X197297Y71703D01*
X197703D01*
X197500Y71297D01*
X122500D02*
X122297Y71703D01*
X122703D01*
X122500Y71297D01*
Y102797D02*
X122297Y103203D01*
X122703D01*
X122500Y102797D01*
X84500Y120547D02*
X84602Y120648D01*
X84703D01*
X84602Y120750D01*
X84703Y120852D01*
X84602D01*
X84500Y120953D01*
X84398Y120852D01*
X84297D01*
X84398Y120750D01*
X84297Y120648D01*
X84398D01*
X84500Y120547D01*
X85750Y93547D02*
X85852Y93648D01*
X85953D01*
X85852Y93750D01*
X85953Y93852D01*
X85852D01*
X85750Y93953D01*
X85648Y93852D01*
X85547D01*
X85648Y93750D01*
X85547Y93648D01*
X85648D01*
X85750Y93547D01*
X83250D02*
X83352Y93648D01*
X83453D01*
X83352Y93750D01*
X83453Y93852D01*
X83352D01*
X83250Y93953D01*
X83148Y93852D01*
X83047D01*
X83148Y93750D01*
X83047Y93648D01*
X83148D01*
X83250Y93547D01*
X95202Y58717D02*
X95303Y58920D01*
X95202Y59123D01*
X95405Y59022D01*
X95608Y59123D01*
X95507Y58920D01*
X95608Y58717D01*
X95405Y58818D01*
X95202Y58717D01*
X70162D02*
X70263Y58920D01*
X70162Y59123D01*
X70365Y59022D01*
X70568Y59123D01*
X70467Y58920D01*
X70568Y58717D01*
X70365Y58818D01*
X70162Y58717D01*
X88323Y60238D02*
Y60137D01*
X88527D01*
Y60238D01*
X88628D01*
Y60442D01*
X88527D01*
Y60543D01*
X88323D01*
Y60442D01*
X88222D01*
Y60238D01*
X88323D01*
X77243D02*
Y60137D01*
X77447D01*
Y60238D01*
X77548D01*
Y60442D01*
X77447D01*
Y60543D01*
X77243D01*
Y60442D01*
X77142D01*
Y60238D01*
X77243D01*
X80013D02*
Y60137D01*
X80217D01*
Y60238D01*
X80318D01*
Y60442D01*
X80217D01*
Y60543D01*
X80013D01*
Y60442D01*
X79912D01*
Y60238D01*
X80013D01*
X82783D02*
Y60137D01*
X82987D01*
Y60238D01*
X83088D01*
Y60442D01*
X82987D01*
Y60543D01*
X82783D01*
Y60442D01*
X82682D01*
Y60238D01*
X82783D01*
X85553D02*
Y60137D01*
X85757D01*
Y60238D01*
X85858D01*
Y60442D01*
X85757D01*
Y60543D01*
X85553D01*
Y60442D01*
X85452D01*
Y60238D01*
X85553D01*
X78628Y57398D02*
Y57297D01*
X78832D01*
Y57398D01*
X78933D01*
Y57602D01*
X78832D01*
Y57703D01*
X78628D01*
Y57602D01*
X78527D01*
Y57398D01*
X78628D01*
X81398D02*
Y57297D01*
X81602D01*
Y57398D01*
X81703D01*
Y57602D01*
X81602D01*
Y57703D01*
X81398D01*
Y57602D01*
X81297D01*
Y57398D01*
X81398D01*
X84168D02*
Y57297D01*
X84372D01*
Y57398D01*
X84473D01*
Y57602D01*
X84372D01*
Y57703D01*
X84168D01*
Y57602D01*
X84067D01*
Y57398D01*
X84168D01*
X86938D02*
Y57297D01*
X87142D01*
Y57398D01*
X87243D01*
Y57602D01*
X87142D01*
Y57703D01*
X86938D01*
Y57602D01*
X86837D01*
Y57398D01*
X86938D01*
X116297Y53467D02*
X116398D01*
X116500Y53568D01*
X116602Y53467D01*
X116703D01*
Y53568D01*
X116602Y53670D01*
X116703Y53772D01*
Y53873D01*
X116602D01*
X116500Y53772D01*
X116398Y53873D01*
X116297D01*
Y53772D01*
X116398Y53670D01*
X116297Y53568D01*
Y53467D01*
X119797D02*
X119898D01*
X120000Y53568D01*
X120102Y53467D01*
X120203D01*
Y53568D01*
X120102Y53670D01*
X120203Y53772D01*
Y53873D01*
X120102D01*
X120000Y53772D01*
X119898Y53873D01*
X119797D01*
Y53772D01*
X119898Y53670D01*
X119797Y53568D01*
Y53467D01*
X105297Y60020D02*
X105500Y60223D01*
X105703Y60020D01*
X105500Y59817D01*
X105297Y60020D01*
Y54020D02*
X105500Y54223D01*
X105703Y54020D01*
X105500Y53817D01*
X105297Y54020D01*
X109797Y56817D02*
Y57223D01*
X110203D01*
Y56817D01*
X109797D01*
X109898Y56918D02*
Y57122D01*
X110102D01*
Y56918D01*
X109898D01*
X159250Y125547D02*
X159047Y125953D01*
X159453D01*
X159250Y125547D01*
Y125648D02*
X159148Y125852D01*
X159352D01*
X159250Y125648D01*
X161250Y125547D02*
X161047Y125953D01*
X161453D01*
X161250Y125547D01*
Y125648D02*
X161148Y125852D01*
X161352D01*
X161250Y125648D01*
X76310Y71587D02*
X76412Y71688D01*
X76513D01*
X76412Y71790D01*
X76513Y71892D01*
X76412D01*
X76310Y71993D01*
X76208Y71892D01*
X76107D01*
X76208Y71790D01*
X76107Y71688D01*
X76208D01*
X76310Y71587D01*
Y71688D02*
X76361Y71739D01*
X76412D01*
X76361Y71790D01*
X76412Y71841D01*
X76361D01*
X76310Y71892D01*
X76259Y71841D01*
X76208D01*
X76259Y71790D01*
X76208Y71739D01*
X76259D01*
X76310Y71688D01*
X73770Y71587D02*
X73872Y71688D01*
X73973D01*
X73872Y71790D01*
X73973Y71892D01*
X73872D01*
X73770Y71993D01*
X73668Y71892D01*
X73567D01*
X73668Y71790D01*
X73567Y71688D01*
X73668D01*
X73770Y71587D01*
Y71688D02*
X73821Y71739D01*
X73872D01*
X73821Y71790D01*
X73872Y71841D01*
X73821D01*
X73770Y71892D01*
X73719Y71841D01*
X73668D01*
X73719Y71790D01*
X73668Y71739D01*
X73719D01*
X73770Y71688D01*
X76310Y69047D02*
X76412Y69148D01*
X76513D01*
X76412Y69250D01*
X76513Y69352D01*
X76412D01*
X76310Y69453D01*
X76208Y69352D01*
X76107D01*
X76208Y69250D01*
X76107Y69148D01*
X76208D01*
X76310Y69047D01*
Y69148D02*
X76361Y69199D01*
X76412D01*
X76361Y69250D01*
X76412Y69301D01*
X76361D01*
X76310Y69352D01*
X76259Y69301D01*
X76208D01*
X76259Y69250D01*
X76208Y69199D01*
X76259D01*
X76310Y69148D01*
X73770Y69047D02*
X73872Y69148D01*
X73973D01*
X73872Y69250D01*
X73973Y69352D01*
X73872D01*
X73770Y69453D01*
X73668Y69352D01*
X73567D01*
X73668Y69250D01*
X73567Y69148D01*
X73668D01*
X73770Y69047D01*
Y69148D02*
X73821Y69199D01*
X73872D01*
X73821Y69250D01*
X73872Y69301D01*
X73821D01*
X73770Y69352D01*
X73719Y69301D01*
X73668D01*
X73719Y69250D01*
X73668Y69199D01*
X73719D01*
X73770Y69148D01*
X71230Y71587D02*
X71332Y71688D01*
X71433D01*
X71332Y71790D01*
X71433Y71892D01*
X71332D01*
X71230Y71993D01*
X71128Y71892D01*
X71027D01*
X71128Y71790D01*
X71027Y71688D01*
X71128D01*
X71230Y71587D01*
Y71688D02*
X71281Y71739D01*
X71332D01*
X71281Y71790D01*
X71332Y71841D01*
X71281D01*
X71230Y71892D01*
X71179Y71841D01*
X71128D01*
X71179Y71790D01*
X71128Y71739D01*
X71179D01*
X71230Y71688D01*
Y69047D02*
X71332Y69148D01*
X71433D01*
X71332Y69250D01*
X71433Y69352D01*
X71332D01*
X71230Y69453D01*
X71128Y69352D01*
X71027D01*
X71128Y69250D01*
X71027Y69148D01*
X71128D01*
X71230Y69047D01*
Y69148D02*
X71281Y69199D01*
X71332D01*
X71281Y69250D01*
X71332Y69301D01*
X71281D01*
X71230Y69352D01*
X71179Y69301D01*
X71128D01*
X71179Y69250D01*
X71128Y69199D01*
X71179D01*
X71230Y69148D01*
X55990Y69047D02*
X56092Y69148D01*
X56193D01*
X56092Y69250D01*
X56193Y69352D01*
X56092D01*
X55990Y69453D01*
X55888Y69352D01*
X55787D01*
X55888Y69250D01*
X55787Y69148D01*
X55888D01*
X55990Y69047D01*
Y69148D02*
X56041Y69199D01*
X56092D01*
X56041Y69250D01*
X56092Y69301D01*
X56041D01*
X55990Y69352D01*
X55939Y69301D01*
X55888D01*
X55939Y69250D01*
X55888Y69199D01*
X55939D01*
X55990Y69148D01*
X53450Y69047D02*
X53552Y69148D01*
X53653D01*
X53552Y69250D01*
X53653Y69352D01*
X53552D01*
X53450Y69453D01*
X53348Y69352D01*
X53247D01*
X53348Y69250D01*
X53247Y69148D01*
X53348D01*
X53450Y69047D01*
Y69148D02*
X53501Y69199D01*
X53552D01*
X53501Y69250D01*
X53552Y69301D01*
X53501D01*
X53450Y69352D01*
X53399Y69301D01*
X53348D01*
X53399Y69250D01*
X53348Y69199D01*
X53399D01*
X53450Y69148D01*
X58530Y69047D02*
X58632Y69148D01*
X58733D01*
X58632Y69250D01*
X58733Y69352D01*
X58632D01*
X58530Y69453D01*
X58428Y69352D01*
X58327D01*
X58428Y69250D01*
X58327Y69148D01*
X58428D01*
X58530Y69047D01*
Y69148D02*
X58581Y69199D01*
X58632D01*
X58581Y69250D01*
X58632Y69301D01*
X58581D01*
X58530Y69352D01*
X58479Y69301D01*
X58428D01*
X58479Y69250D01*
X58428Y69199D01*
X58479D01*
X58530Y69148D01*
X61070Y69047D02*
X61172Y69148D01*
X61273D01*
X61172Y69250D01*
X61273Y69352D01*
X61172D01*
X61070Y69453D01*
X60968Y69352D01*
X60867D01*
X60968Y69250D01*
X60867Y69148D01*
X60968D01*
X61070Y69047D01*
Y69148D02*
X61121Y69199D01*
X61172D01*
X61121Y69250D01*
X61172Y69301D01*
X61121D01*
X61070Y69352D01*
X61019Y69301D01*
X60968D01*
X61019Y69250D01*
X60968Y69199D01*
X61019D01*
X61070Y69148D01*
X63610Y69047D02*
X63712Y69148D01*
X63813D01*
X63712Y69250D01*
X63813Y69352D01*
X63712D01*
X63610Y69453D01*
X63508Y69352D01*
X63407D01*
X63508Y69250D01*
X63407Y69148D01*
X63508D01*
X63610Y69047D01*
Y69148D02*
X63661Y69199D01*
X63712D01*
X63661Y69250D01*
X63712Y69301D01*
X63661D01*
X63610Y69352D01*
X63559Y69301D01*
X63508D01*
X63559Y69250D01*
X63508Y69199D01*
X63559D01*
X63610Y69148D01*
X66150Y69047D02*
X66252Y69148D01*
X66353D01*
X66252Y69250D01*
X66353Y69352D01*
X66252D01*
X66150Y69453D01*
X66048Y69352D01*
X65947D01*
X66048Y69250D01*
X65947Y69148D01*
X66048D01*
X66150Y69047D01*
Y69148D02*
X66201Y69199D01*
X66252D01*
X66201Y69250D01*
X66252Y69301D01*
X66201D01*
X66150Y69352D01*
X66099Y69301D01*
X66048D01*
X66099Y69250D01*
X66048Y69199D01*
X66099D01*
X66150Y69148D01*
X68690Y69047D02*
X68792Y69148D01*
X68893D01*
X68792Y69250D01*
X68893Y69352D01*
X68792D01*
X68690Y69453D01*
X68588Y69352D01*
X68487D01*
X68588Y69250D01*
X68487Y69148D01*
X68588D01*
X68690Y69047D01*
Y69148D02*
X68741Y69199D01*
X68792D01*
X68741Y69250D01*
X68792Y69301D01*
X68741D01*
X68690Y69352D01*
X68639Y69301D01*
X68588D01*
X68639Y69250D01*
X68588Y69199D01*
X68639D01*
X68690Y69148D01*
X53450Y71587D02*
X53552Y71688D01*
X53653D01*
X53552Y71790D01*
X53653Y71892D01*
X53552D01*
X53450Y71993D01*
X53348Y71892D01*
X53247D01*
X53348Y71790D01*
X53247Y71688D01*
X53348D01*
X53450Y71587D01*
Y71688D02*
X53501Y71739D01*
X53552D01*
X53501Y71790D01*
X53552Y71841D01*
X53501D01*
X53450Y71892D01*
X53399Y71841D01*
X53348D01*
X53399Y71790D01*
X53348Y71739D01*
X53399D01*
X53450Y71688D01*
X55990Y71587D02*
X56092Y71688D01*
X56193D01*
X56092Y71790D01*
X56193Y71892D01*
X56092D01*
X55990Y71993D01*
X55888Y71892D01*
X55787D01*
X55888Y71790D01*
X55787Y71688D01*
X55888D01*
X55990Y71587D01*
Y71688D02*
X56041Y71739D01*
X56092D01*
X56041Y71790D01*
X56092Y71841D01*
X56041D01*
X55990Y71892D01*
X55939Y71841D01*
X55888D01*
X55939Y71790D01*
X55888Y71739D01*
X55939D01*
X55990Y71688D01*
X58530Y71587D02*
X58632Y71688D01*
X58733D01*
X58632Y71790D01*
X58733Y71892D01*
X58632D01*
X58530Y71993D01*
X58428Y71892D01*
X58327D01*
X58428Y71790D01*
X58327Y71688D01*
X58428D01*
X58530Y71587D01*
Y71688D02*
X58581Y71739D01*
X58632D01*
X58581Y71790D01*
X58632Y71841D01*
X58581D01*
X58530Y71892D01*
X58479Y71841D01*
X58428D01*
X58479Y71790D01*
X58428Y71739D01*
X58479D01*
X58530Y71688D01*
X61070Y71587D02*
X61172Y71688D01*
X61273D01*
X61172Y71790D01*
X61273Y71892D01*
X61172D01*
X61070Y71993D01*
X60968Y71892D01*
X60867D01*
X60968Y71790D01*
X60867Y71688D01*
X60968D01*
X61070Y71587D01*
Y71688D02*
X61121Y71739D01*
X61172D01*
X61121Y71790D01*
X61172Y71841D01*
X61121D01*
X61070Y71892D01*
X61019Y71841D01*
X60968D01*
X61019Y71790D01*
X60968Y71739D01*
X61019D01*
X61070Y71688D01*
X63610Y71587D02*
X63712Y71688D01*
X63813D01*
X63712Y71790D01*
X63813Y71892D01*
X63712D01*
X63610Y71993D01*
X63508Y71892D01*
X63407D01*
X63508Y71790D01*
X63407Y71688D01*
X63508D01*
X63610Y71587D01*
Y71688D02*
X63661Y71739D01*
X63712D01*
X63661Y71790D01*
X63712Y71841D01*
X63661D01*
X63610Y71892D01*
X63559Y71841D01*
X63508D01*
X63559Y71790D01*
X63508Y71739D01*
X63559D01*
X63610Y71688D01*
X66150Y71587D02*
X66252Y71688D01*
X66353D01*
X66252Y71790D01*
X66353Y71892D01*
X66252D01*
X66150Y71993D01*
X66048Y71892D01*
X65947D01*
X66048Y71790D01*
X65947Y71688D01*
X66048D01*
X66150Y71587D01*
Y71688D02*
X66201Y71739D01*
X66252D01*
X66201Y71790D01*
X66252Y71841D01*
X66201D01*
X66150Y71892D01*
X66099Y71841D01*
X66048D01*
X66099Y71790D01*
X66048Y71739D01*
X66099D01*
X66150Y71688D01*
X68690Y71587D02*
X68792Y71688D01*
X68893D01*
X68792Y71790D01*
X68893Y71892D01*
X68792D01*
X68690Y71993D01*
X68588Y71892D01*
X68487D01*
X68588Y71790D01*
X68487Y71688D01*
X68588D01*
X68690Y71587D01*
Y71688D02*
X68741Y71739D01*
X68792D01*
X68741Y71790D01*
X68792Y71841D01*
X68741D01*
X68690Y71892D01*
X68639Y71841D01*
X68588D01*
X68639Y71790D01*
X68588Y71739D01*
X68639D01*
X68690Y71688D01*
X91550Y71587D02*
X91652Y71688D01*
X91753D01*
X91652Y71790D01*
X91753Y71892D01*
X91652D01*
X91550Y71993D01*
X91448Y71892D01*
X91347D01*
X91448Y71790D01*
X91347Y71688D01*
X91448D01*
X91550Y71587D01*
Y71688D02*
X91601Y71739D01*
X91652D01*
X91601Y71790D01*
X91652Y71841D01*
X91601D01*
X91550Y71892D01*
X91499Y71841D01*
X91448D01*
X91499Y71790D01*
X91448Y71739D01*
X91499D01*
X91550Y71688D01*
X89010Y71587D02*
X89112Y71688D01*
X89213D01*
X89112Y71790D01*
X89213Y71892D01*
X89112D01*
X89010Y71993D01*
X88908Y71892D01*
X88807D01*
X88908Y71790D01*
X88807Y71688D01*
X88908D01*
X89010Y71587D01*
Y71688D02*
X89061Y71739D01*
X89112D01*
X89061Y71790D01*
X89112Y71841D01*
X89061D01*
X89010Y71892D01*
X88959Y71841D01*
X88908D01*
X88959Y71790D01*
X88908Y71739D01*
X88959D01*
X89010Y71688D01*
X86470Y71587D02*
X86572Y71688D01*
X86673D01*
X86572Y71790D01*
X86673Y71892D01*
X86572D01*
X86470Y71993D01*
X86368Y71892D01*
X86267D01*
X86368Y71790D01*
X86267Y71688D01*
X86368D01*
X86470Y71587D01*
Y71688D02*
X86521Y71739D01*
X86572D01*
X86521Y71790D01*
X86572Y71841D01*
X86521D01*
X86470Y71892D01*
X86419Y71841D01*
X86368D01*
X86419Y71790D01*
X86368Y71739D01*
X86419D01*
X86470Y71688D01*
X83930Y71587D02*
X84032Y71688D01*
X84133D01*
X84032Y71790D01*
X84133Y71892D01*
X84032D01*
X83930Y71993D01*
X83828Y71892D01*
X83727D01*
X83828Y71790D01*
X83727Y71688D01*
X83828D01*
X83930Y71587D01*
Y71688D02*
X83981Y71739D01*
X84032D01*
X83981Y71790D01*
X84032Y71841D01*
X83981D01*
X83930Y71892D01*
X83879Y71841D01*
X83828D01*
X83879Y71790D01*
X83828Y71739D01*
X83879D01*
X83930Y71688D01*
X81390Y71587D02*
X81492Y71688D01*
X81593D01*
X81492Y71790D01*
X81593Y71892D01*
X81492D01*
X81390Y71993D01*
X81288Y71892D01*
X81187D01*
X81288Y71790D01*
X81187Y71688D01*
X81288D01*
X81390Y71587D01*
Y71688D02*
X81441Y71739D01*
X81492D01*
X81441Y71790D01*
X81492Y71841D01*
X81441D01*
X81390Y71892D01*
X81339Y71841D01*
X81288D01*
X81339Y71790D01*
X81288Y71739D01*
X81339D01*
X81390Y71688D01*
X78850Y71587D02*
X78952Y71688D01*
X79053D01*
X78952Y71790D01*
X79053Y71892D01*
X78952D01*
X78850Y71993D01*
X78748Y71892D01*
X78647D01*
X78748Y71790D01*
X78647Y71688D01*
X78748D01*
X78850Y71587D01*
Y71688D02*
X78901Y71739D01*
X78952D01*
X78901Y71790D01*
X78952Y71841D01*
X78901D01*
X78850Y71892D01*
X78799Y71841D01*
X78748D01*
X78799Y71790D01*
X78748Y71739D01*
X78799D01*
X78850Y71688D01*
X91550Y69047D02*
X91652Y69148D01*
X91753D01*
X91652Y69250D01*
X91753Y69352D01*
X91652D01*
X91550Y69453D01*
X91448Y69352D01*
X91347D01*
X91448Y69250D01*
X91347Y69148D01*
X91448D01*
X91550Y69047D01*
Y69148D02*
X91601Y69199D01*
X91652D01*
X91601Y69250D01*
X91652Y69301D01*
X91601D01*
X91550Y69352D01*
X91499Y69301D01*
X91448D01*
X91499Y69250D01*
X91448Y69199D01*
X91499D01*
X91550Y69148D01*
X89010Y69047D02*
X89112Y69148D01*
X89213D01*
X89112Y69250D01*
X89213Y69352D01*
X89112D01*
X89010Y69453D01*
X88908Y69352D01*
X88807D01*
X88908Y69250D01*
X88807Y69148D01*
X88908D01*
X89010Y69047D01*
Y69148D02*
X89061Y69199D01*
X89112D01*
X89061Y69250D01*
X89112Y69301D01*
X89061D01*
X89010Y69352D01*
X88959Y69301D01*
X88908D01*
X88959Y69250D01*
X88908Y69199D01*
X88959D01*
X89010Y69148D01*
X86470Y69047D02*
X86572Y69148D01*
X86673D01*
X86572Y69250D01*
X86673Y69352D01*
X86572D01*
X86470Y69453D01*
X86368Y69352D01*
X86267D01*
X86368Y69250D01*
X86267Y69148D01*
X86368D01*
X86470Y69047D01*
Y69148D02*
X86521Y69199D01*
X86572D01*
X86521Y69250D01*
X86572Y69301D01*
X86521D01*
X86470Y69352D01*
X86419Y69301D01*
X86368D01*
X86419Y69250D01*
X86368Y69199D01*
X86419D01*
X86470Y69148D01*
X83930Y69047D02*
X84032Y69148D01*
X84133D01*
X84032Y69250D01*
X84133Y69352D01*
X84032D01*
X83930Y69453D01*
X83828Y69352D01*
X83727D01*
X83828Y69250D01*
X83727Y69148D01*
X83828D01*
X83930Y69047D01*
Y69148D02*
X83981Y69199D01*
X84032D01*
X83981Y69250D01*
X84032Y69301D01*
X83981D01*
X83930Y69352D01*
X83879Y69301D01*
X83828D01*
X83879Y69250D01*
X83828Y69199D01*
X83879D01*
X83930Y69148D01*
X81390Y69047D02*
X81492Y69148D01*
X81593D01*
X81492Y69250D01*
X81593Y69352D01*
X81492D01*
X81390Y69453D01*
X81288Y69352D01*
X81187D01*
X81288Y69250D01*
X81187Y69148D01*
X81288D01*
X81390Y69047D01*
Y69148D02*
X81441Y69199D01*
X81492D01*
X81441Y69250D01*
X81492Y69301D01*
X81441D01*
X81390Y69352D01*
X81339Y69301D01*
X81288D01*
X81339Y69250D01*
X81288Y69199D01*
X81339D01*
X81390Y69148D01*
X78850Y69047D02*
X78952Y69148D01*
X79053D01*
X78952Y69250D01*
X79053Y69352D01*
X78952D01*
X78850Y69453D01*
X78748Y69352D01*
X78647D01*
X78748Y69250D01*
X78647Y69148D01*
X78748D01*
X78850Y69047D01*
Y69148D02*
X78901Y69199D01*
X78952D01*
X78901Y69250D01*
X78952Y69301D01*
X78901D01*
X78850Y69352D01*
X78799Y69301D01*
X78748D01*
X78799Y69250D01*
X78748Y69199D01*
X78799D01*
X78850Y69148D01*
X94090Y69047D02*
X94192Y69148D01*
X94293D01*
X94192Y69250D01*
X94293Y69352D01*
X94192D01*
X94090Y69453D01*
X93988Y69352D01*
X93887D01*
X93988Y69250D01*
X93887Y69148D01*
X93988D01*
X94090Y69047D01*
Y69148D02*
X94141Y69199D01*
X94192D01*
X94141Y69250D01*
X94192Y69301D01*
X94141D01*
X94090Y69352D01*
X94039Y69301D01*
X93988D01*
X94039Y69250D01*
X93988Y69199D01*
X94039D01*
X94090Y69148D01*
Y71587D02*
X94192Y71688D01*
X94293D01*
X94192Y71790D01*
X94293Y71892D01*
X94192D01*
X94090Y71993D01*
X93988Y71892D01*
X93887D01*
X93988Y71790D01*
X93887Y71688D01*
X93988D01*
X94090Y71587D01*
Y71688D02*
X94141Y71739D01*
X94192D01*
X94141Y71790D01*
X94192Y71841D01*
X94141D01*
X94090Y71892D01*
X94039Y71841D01*
X93988D01*
X94039Y71790D01*
X93988Y71739D01*
X94039D01*
X94090Y71688D01*
X96630Y69047D02*
X96732Y69148D01*
X96833D01*
X96732Y69250D01*
X96833Y69352D01*
X96732D01*
X96630Y69453D01*
X96528Y69352D01*
X96427D01*
X96528Y69250D01*
X96427Y69148D01*
X96528D01*
X96630Y69047D01*
Y69148D02*
X96681Y69199D01*
X96732D01*
X96681Y69250D01*
X96732Y69301D01*
X96681D01*
X96630Y69352D01*
X96579Y69301D01*
X96528D01*
X96579Y69250D01*
X96528Y69199D01*
X96579D01*
X96630Y69148D01*
X99170Y69047D02*
X99272Y69148D01*
X99373D01*
X99272Y69250D01*
X99373Y69352D01*
X99272D01*
X99170Y69453D01*
X99068Y69352D01*
X98967D01*
X99068Y69250D01*
X98967Y69148D01*
X99068D01*
X99170Y69047D01*
Y69148D02*
X99221Y69199D01*
X99272D01*
X99221Y69250D01*
X99272Y69301D01*
X99221D01*
X99170Y69352D01*
X99119Y69301D01*
X99068D01*
X99119Y69250D01*
X99068Y69199D01*
X99119D01*
X99170Y69148D01*
X96630Y71587D02*
X96732Y71688D01*
X96833D01*
X96732Y71790D01*
X96833Y71892D01*
X96732D01*
X96630Y71993D01*
X96528Y71892D01*
X96427D01*
X96528Y71790D01*
X96427Y71688D01*
X96528D01*
X96630Y71587D01*
Y71688D02*
X96681Y71739D01*
X96732D01*
X96681Y71790D01*
X96732Y71841D01*
X96681D01*
X96630Y71892D01*
X96579Y71841D01*
X96528D01*
X96579Y71790D01*
X96528Y71739D01*
X96579D01*
X96630Y71688D01*
X99170Y71587D02*
X99272Y71688D01*
X99373D01*
X99272Y71790D01*
X99373Y71892D01*
X99272D01*
X99170Y71993D01*
X99068Y71892D01*
X98967D01*
X99068Y71790D01*
X98967Y71688D01*
X99068D01*
X99170Y71587D01*
Y71688D02*
X99221Y71739D01*
X99272D01*
X99221Y71790D01*
X99272Y71841D01*
X99221D01*
X99170Y71892D01*
X99119Y71841D01*
X99068D01*
X99119Y71790D01*
X99068Y71739D01*
X99119D01*
X99170Y71688D01*
X99170Y132587D02*
X99272Y132688D01*
X99373D01*
X99272Y132790D01*
X99373Y132892D01*
X99272D01*
X99170Y132993D01*
X99068Y132892D01*
X98967D01*
X99068Y132790D01*
X98967Y132688D01*
X99068D01*
X99170Y132587D01*
Y132688D02*
X99221Y132739D01*
X99272D01*
X99221Y132790D01*
X99272Y132841D01*
X99221D01*
X99170Y132892D01*
X99119Y132841D01*
X99068D01*
X99119Y132790D01*
X99068Y132739D01*
X99119D01*
X99170Y132688D01*
X96630Y132587D02*
X96732Y132688D01*
X96833D01*
X96732Y132790D01*
X96833Y132892D01*
X96732D01*
X96630Y132993D01*
X96528Y132892D01*
X96427D01*
X96528Y132790D01*
X96427Y132688D01*
X96528D01*
X96630Y132587D01*
Y132688D02*
X96681Y132739D01*
X96732D01*
X96681Y132790D01*
X96732Y132841D01*
X96681D01*
X96630Y132892D01*
X96579Y132841D01*
X96528D01*
X96579Y132790D01*
X96528Y132739D01*
X96579D01*
X96630Y132688D01*
X99170Y130047D02*
X99272Y130148D01*
X99373D01*
X99272Y130250D01*
X99373Y130352D01*
X99272D01*
X99170Y130453D01*
X99068Y130352D01*
X98967D01*
X99068Y130250D01*
X98967Y130148D01*
X99068D01*
X99170Y130047D01*
Y130148D02*
X99221Y130199D01*
X99272D01*
X99221Y130250D01*
X99272Y130301D01*
X99221D01*
X99170Y130352D01*
X99119Y130301D01*
X99068D01*
X99119Y130250D01*
X99068Y130199D01*
X99119D01*
X99170Y130148D01*
X96630Y130047D02*
X96732Y130148D01*
X96833D01*
X96732Y130250D01*
X96833Y130352D01*
X96732D01*
X96630Y130453D01*
X96528Y130352D01*
X96427D01*
X96528Y130250D01*
X96427Y130148D01*
X96528D01*
X96630Y130047D01*
Y130148D02*
X96681Y130199D01*
X96732D01*
X96681Y130250D01*
X96732Y130301D01*
X96681D01*
X96630Y130352D01*
X96579Y130301D01*
X96528D01*
X96579Y130250D01*
X96528Y130199D01*
X96579D01*
X96630Y130148D01*
X94090Y132587D02*
X94192Y132688D01*
X94293D01*
X94192Y132790D01*
X94293Y132892D01*
X94192D01*
X94090Y132993D01*
X93988Y132892D01*
X93887D01*
X93988Y132790D01*
X93887Y132688D01*
X93988D01*
X94090Y132587D01*
Y132688D02*
X94141Y132739D01*
X94192D01*
X94141Y132790D01*
X94192Y132841D01*
X94141D01*
X94090Y132892D01*
X94039Y132841D01*
X93988D01*
X94039Y132790D01*
X93988Y132739D01*
X94039D01*
X94090Y132688D01*
Y130047D02*
X94192Y130148D01*
X94293D01*
X94192Y130250D01*
X94293Y130352D01*
X94192D01*
X94090Y130453D01*
X93988Y130352D01*
X93887D01*
X93988Y130250D01*
X93887Y130148D01*
X93988D01*
X94090Y130047D01*
Y130148D02*
X94141Y130199D01*
X94192D01*
X94141Y130250D01*
X94192Y130301D01*
X94141D01*
X94090Y130352D01*
X94039Y130301D01*
X93988D01*
X94039Y130250D01*
X93988Y130199D01*
X94039D01*
X94090Y130148D01*
X78850Y130047D02*
X78952Y130148D01*
X79053D01*
X78952Y130250D01*
X79053Y130352D01*
X78952D01*
X78850Y130453D01*
X78748Y130352D01*
X78647D01*
X78748Y130250D01*
X78647Y130148D01*
X78748D01*
X78850Y130047D01*
Y130148D02*
X78901Y130199D01*
X78952D01*
X78901Y130250D01*
X78952Y130301D01*
X78901D01*
X78850Y130352D01*
X78799Y130301D01*
X78748D01*
X78799Y130250D01*
X78748Y130199D01*
X78799D01*
X78850Y130148D01*
X81390Y130047D02*
X81492Y130148D01*
X81593D01*
X81492Y130250D01*
X81593Y130352D01*
X81492D01*
X81390Y130453D01*
X81288Y130352D01*
X81187D01*
X81288Y130250D01*
X81187Y130148D01*
X81288D01*
X81390Y130047D01*
Y130148D02*
X81441Y130199D01*
X81492D01*
X81441Y130250D01*
X81492Y130301D01*
X81441D01*
X81390Y130352D01*
X81339Y130301D01*
X81288D01*
X81339Y130250D01*
X81288Y130199D01*
X81339D01*
X81390Y130148D01*
X83930Y130047D02*
X84032Y130148D01*
X84133D01*
X84032Y130250D01*
X84133Y130352D01*
X84032D01*
X83930Y130453D01*
X83828Y130352D01*
X83727D01*
X83828Y130250D01*
X83727Y130148D01*
X83828D01*
X83930Y130047D01*
Y130148D02*
X83981Y130199D01*
X84032D01*
X83981Y130250D01*
X84032Y130301D01*
X83981D01*
X83930Y130352D01*
X83879Y130301D01*
X83828D01*
X83879Y130250D01*
X83828Y130199D01*
X83879D01*
X83930Y130148D01*
X86470Y130047D02*
X86572Y130148D01*
X86673D01*
X86572Y130250D01*
X86673Y130352D01*
X86572D01*
X86470Y130453D01*
X86368Y130352D01*
X86267D01*
X86368Y130250D01*
X86267Y130148D01*
X86368D01*
X86470Y130047D01*
Y130148D02*
X86521Y130199D01*
X86572D01*
X86521Y130250D01*
X86572Y130301D01*
X86521D01*
X86470Y130352D01*
X86419Y130301D01*
X86368D01*
X86419Y130250D01*
X86368Y130199D01*
X86419D01*
X86470Y130148D01*
X89010Y130047D02*
X89112Y130148D01*
X89213D01*
X89112Y130250D01*
X89213Y130352D01*
X89112D01*
X89010Y130453D01*
X88908Y130352D01*
X88807D01*
X88908Y130250D01*
X88807Y130148D01*
X88908D01*
X89010Y130047D01*
Y130148D02*
X89061Y130199D01*
X89112D01*
X89061Y130250D01*
X89112Y130301D01*
X89061D01*
X89010Y130352D01*
X88959Y130301D01*
X88908D01*
X88959Y130250D01*
X88908Y130199D01*
X88959D01*
X89010Y130148D01*
X91550Y130047D02*
X91652Y130148D01*
X91753D01*
X91652Y130250D01*
X91753Y130352D01*
X91652D01*
X91550Y130453D01*
X91448Y130352D01*
X91347D01*
X91448Y130250D01*
X91347Y130148D01*
X91448D01*
X91550Y130047D01*
Y130148D02*
X91601Y130199D01*
X91652D01*
X91601Y130250D01*
X91652Y130301D01*
X91601D01*
X91550Y130352D01*
X91499Y130301D01*
X91448D01*
X91499Y130250D01*
X91448Y130199D01*
X91499D01*
X91550Y130148D01*
X78850Y132587D02*
X78952Y132688D01*
X79053D01*
X78952Y132790D01*
X79053Y132892D01*
X78952D01*
X78850Y132993D01*
X78748Y132892D01*
X78647D01*
X78748Y132790D01*
X78647Y132688D01*
X78748D01*
X78850Y132587D01*
Y132688D02*
X78901Y132739D01*
X78952D01*
X78901Y132790D01*
X78952Y132841D01*
X78901D01*
X78850Y132892D01*
X78799Y132841D01*
X78748D01*
X78799Y132790D01*
X78748Y132739D01*
X78799D01*
X78850Y132688D01*
X81390Y132587D02*
X81492Y132688D01*
X81593D01*
X81492Y132790D01*
X81593Y132892D01*
X81492D01*
X81390Y132993D01*
X81288Y132892D01*
X81187D01*
X81288Y132790D01*
X81187Y132688D01*
X81288D01*
X81390Y132587D01*
Y132688D02*
X81441Y132739D01*
X81492D01*
X81441Y132790D01*
X81492Y132841D01*
X81441D01*
X81390Y132892D01*
X81339Y132841D01*
X81288D01*
X81339Y132790D01*
X81288Y132739D01*
X81339D01*
X81390Y132688D01*
X83930Y132587D02*
X84032Y132688D01*
X84133D01*
X84032Y132790D01*
X84133Y132892D01*
X84032D01*
X83930Y132993D01*
X83828Y132892D01*
X83727D01*
X83828Y132790D01*
X83727Y132688D01*
X83828D01*
X83930Y132587D01*
Y132688D02*
X83981Y132739D01*
X84032D01*
X83981Y132790D01*
X84032Y132841D01*
X83981D01*
X83930Y132892D01*
X83879Y132841D01*
X83828D01*
X83879Y132790D01*
X83828Y132739D01*
X83879D01*
X83930Y132688D01*
X86470Y132587D02*
X86572Y132688D01*
X86673D01*
X86572Y132790D01*
X86673Y132892D01*
X86572D01*
X86470Y132993D01*
X86368Y132892D01*
X86267D01*
X86368Y132790D01*
X86267Y132688D01*
X86368D01*
X86470Y132587D01*
Y132688D02*
X86521Y132739D01*
X86572D01*
X86521Y132790D01*
X86572Y132841D01*
X86521D01*
X86470Y132892D01*
X86419Y132841D01*
X86368D01*
X86419Y132790D01*
X86368Y132739D01*
X86419D01*
X86470Y132688D01*
X89010Y132587D02*
X89112Y132688D01*
X89213D01*
X89112Y132790D01*
X89213Y132892D01*
X89112D01*
X89010Y132993D01*
X88908Y132892D01*
X88807D01*
X88908Y132790D01*
X88807Y132688D01*
X88908D01*
X89010Y132587D01*
Y132688D02*
X89061Y132739D01*
X89112D01*
X89061Y132790D01*
X89112Y132841D01*
X89061D01*
X89010Y132892D01*
X88959Y132841D01*
X88908D01*
X88959Y132790D01*
X88908Y132739D01*
X88959D01*
X89010Y132688D01*
X91550Y132587D02*
X91652Y132688D01*
X91753D01*
X91652Y132790D01*
X91753Y132892D01*
X91652D01*
X91550Y132993D01*
X91448Y132892D01*
X91347D01*
X91448Y132790D01*
X91347Y132688D01*
X91448D01*
X91550Y132587D01*
Y132688D02*
X91601Y132739D01*
X91652D01*
X91601Y132790D01*
X91652Y132841D01*
X91601D01*
X91550Y132892D01*
X91499Y132841D01*
X91448D01*
X91499Y132790D01*
X91448Y132739D01*
X91499D01*
X91550Y132688D01*
X68690Y132587D02*
X68792Y132688D01*
X68893D01*
X68792Y132790D01*
X68893Y132892D01*
X68792D01*
X68690Y132993D01*
X68588Y132892D01*
X68487D01*
X68588Y132790D01*
X68487Y132688D01*
X68588D01*
X68690Y132587D01*
Y132688D02*
X68741Y132739D01*
X68792D01*
X68741Y132790D01*
X68792Y132841D01*
X68741D01*
X68690Y132892D01*
X68639Y132841D01*
X68588D01*
X68639Y132790D01*
X68588Y132739D01*
X68639D01*
X68690Y132688D01*
X66150Y132587D02*
X66252Y132688D01*
X66353D01*
X66252Y132790D01*
X66353Y132892D01*
X66252D01*
X66150Y132993D01*
X66048Y132892D01*
X65947D01*
X66048Y132790D01*
X65947Y132688D01*
X66048D01*
X66150Y132587D01*
Y132688D02*
X66201Y132739D01*
X66252D01*
X66201Y132790D01*
X66252Y132841D01*
X66201D01*
X66150Y132892D01*
X66099Y132841D01*
X66048D01*
X66099Y132790D01*
X66048Y132739D01*
X66099D01*
X66150Y132688D01*
X63610Y132587D02*
X63712Y132688D01*
X63813D01*
X63712Y132790D01*
X63813Y132892D01*
X63712D01*
X63610Y132993D01*
X63508Y132892D01*
X63407D01*
X63508Y132790D01*
X63407Y132688D01*
X63508D01*
X63610Y132587D01*
Y132688D02*
X63661Y132739D01*
X63712D01*
X63661Y132790D01*
X63712Y132841D01*
X63661D01*
X63610Y132892D01*
X63559Y132841D01*
X63508D01*
X63559Y132790D01*
X63508Y132739D01*
X63559D01*
X63610Y132688D01*
X61070Y132587D02*
X61172Y132688D01*
X61273D01*
X61172Y132790D01*
X61273Y132892D01*
X61172D01*
X61070Y132993D01*
X60968Y132892D01*
X60867D01*
X60968Y132790D01*
X60867Y132688D01*
X60968D01*
X61070Y132587D01*
Y132688D02*
X61121Y132739D01*
X61172D01*
X61121Y132790D01*
X61172Y132841D01*
X61121D01*
X61070Y132892D01*
X61019Y132841D01*
X60968D01*
X61019Y132790D01*
X60968Y132739D01*
X61019D01*
X61070Y132688D01*
X58530Y132587D02*
X58632Y132688D01*
X58733D01*
X58632Y132790D01*
X58733Y132892D01*
X58632D01*
X58530Y132993D01*
X58428Y132892D01*
X58327D01*
X58428Y132790D01*
X58327Y132688D01*
X58428D01*
X58530Y132587D01*
Y132688D02*
X58581Y132739D01*
X58632D01*
X58581Y132790D01*
X58632Y132841D01*
X58581D01*
X58530Y132892D01*
X58479Y132841D01*
X58428D01*
X58479Y132790D01*
X58428Y132739D01*
X58479D01*
X58530Y132688D01*
X55990Y132587D02*
X56092Y132688D01*
X56193D01*
X56092Y132790D01*
X56193Y132892D01*
X56092D01*
X55990Y132993D01*
X55888Y132892D01*
X55787D01*
X55888Y132790D01*
X55787Y132688D01*
X55888D01*
X55990Y132587D01*
Y132688D02*
X56041Y132739D01*
X56092D01*
X56041Y132790D01*
X56092Y132841D01*
X56041D01*
X55990Y132892D01*
X55939Y132841D01*
X55888D01*
X55939Y132790D01*
X55888Y132739D01*
X55939D01*
X55990Y132688D01*
X53450Y132587D02*
X53552Y132688D01*
X53653D01*
X53552Y132790D01*
X53653Y132892D01*
X53552D01*
X53450Y132993D01*
X53348Y132892D01*
X53247D01*
X53348Y132790D01*
X53247Y132688D01*
X53348D01*
X53450Y132587D01*
Y132688D02*
X53501Y132739D01*
X53552D01*
X53501Y132790D01*
X53552Y132841D01*
X53501D01*
X53450Y132892D01*
X53399Y132841D01*
X53348D01*
X53399Y132790D01*
X53348Y132739D01*
X53399D01*
X53450Y132688D01*
X68690Y130047D02*
X68792Y130148D01*
X68893D01*
X68792Y130250D01*
X68893Y130352D01*
X68792D01*
X68690Y130453D01*
X68588Y130352D01*
X68487D01*
X68588Y130250D01*
X68487Y130148D01*
X68588D01*
X68690Y130047D01*
Y130148D02*
X68741Y130199D01*
X68792D01*
X68741Y130250D01*
X68792Y130301D01*
X68741D01*
X68690Y130352D01*
X68639Y130301D01*
X68588D01*
X68639Y130250D01*
X68588Y130199D01*
X68639D01*
X68690Y130148D01*
X66150Y130047D02*
X66252Y130148D01*
X66353D01*
X66252Y130250D01*
X66353Y130352D01*
X66252D01*
X66150Y130453D01*
X66048Y130352D01*
X65947D01*
X66048Y130250D01*
X65947Y130148D01*
X66048D01*
X66150Y130047D01*
Y130148D02*
X66201Y130199D01*
X66252D01*
X66201Y130250D01*
X66252Y130301D01*
X66201D01*
X66150Y130352D01*
X66099Y130301D01*
X66048D01*
X66099Y130250D01*
X66048Y130199D01*
X66099D01*
X66150Y130148D01*
X63610Y130047D02*
X63712Y130148D01*
X63813D01*
X63712Y130250D01*
X63813Y130352D01*
X63712D01*
X63610Y130453D01*
X63508Y130352D01*
X63407D01*
X63508Y130250D01*
X63407Y130148D01*
X63508D01*
X63610Y130047D01*
Y130148D02*
X63661Y130199D01*
X63712D01*
X63661Y130250D01*
X63712Y130301D01*
X63661D01*
X63610Y130352D01*
X63559Y130301D01*
X63508D01*
X63559Y130250D01*
X63508Y130199D01*
X63559D01*
X63610Y130148D01*
X61070Y130047D02*
X61172Y130148D01*
X61273D01*
X61172Y130250D01*
X61273Y130352D01*
X61172D01*
X61070Y130453D01*
X60968Y130352D01*
X60867D01*
X60968Y130250D01*
X60867Y130148D01*
X60968D01*
X61070Y130047D01*
Y130148D02*
X61121Y130199D01*
X61172D01*
X61121Y130250D01*
X61172Y130301D01*
X61121D01*
X61070Y130352D01*
X61019Y130301D01*
X60968D01*
X61019Y130250D01*
X60968Y130199D01*
X61019D01*
X61070Y130148D01*
X58530Y130047D02*
X58632Y130148D01*
X58733D01*
X58632Y130250D01*
X58733Y130352D01*
X58632D01*
X58530Y130453D01*
X58428Y130352D01*
X58327D01*
X58428Y130250D01*
X58327Y130148D01*
X58428D01*
X58530Y130047D01*
Y130148D02*
X58581Y130199D01*
X58632D01*
X58581Y130250D01*
X58632Y130301D01*
X58581D01*
X58530Y130352D01*
X58479Y130301D01*
X58428D01*
X58479Y130250D01*
X58428Y130199D01*
X58479D01*
X58530Y130148D01*
X53450Y130047D02*
X53552Y130148D01*
X53653D01*
X53552Y130250D01*
X53653Y130352D01*
X53552D01*
X53450Y130453D01*
X53348Y130352D01*
X53247D01*
X53348Y130250D01*
X53247Y130148D01*
X53348D01*
X53450Y130047D01*
Y130148D02*
X53501Y130199D01*
X53552D01*
X53501Y130250D01*
X53552Y130301D01*
X53501D01*
X53450Y130352D01*
X53399Y130301D01*
X53348D01*
X53399Y130250D01*
X53348Y130199D01*
X53399D01*
X53450Y130148D01*
X55990Y130047D02*
X56092Y130148D01*
X56193D01*
X56092Y130250D01*
X56193Y130352D01*
X56092D01*
X55990Y130453D01*
X55888Y130352D01*
X55787D01*
X55888Y130250D01*
X55787Y130148D01*
X55888D01*
X55990Y130047D01*
Y130148D02*
X56041Y130199D01*
X56092D01*
X56041Y130250D01*
X56092Y130301D01*
X56041D01*
X55990Y130352D01*
X55939Y130301D01*
X55888D01*
X55939Y130250D01*
X55888Y130199D01*
X55939D01*
X55990Y130148D01*
X71230Y130047D02*
X71332Y130148D01*
X71433D01*
X71332Y130250D01*
X71433Y130352D01*
X71332D01*
X71230Y130453D01*
X71128Y130352D01*
X71027D01*
X71128Y130250D01*
X71027Y130148D01*
X71128D01*
X71230Y130047D01*
Y130148D02*
X71281Y130199D01*
X71332D01*
X71281Y130250D01*
X71332Y130301D01*
X71281D01*
X71230Y130352D01*
X71179Y130301D01*
X71128D01*
X71179Y130250D01*
X71128Y130199D01*
X71179D01*
X71230Y130148D01*
Y132587D02*
X71332Y132688D01*
X71433D01*
X71332Y132790D01*
X71433Y132892D01*
X71332D01*
X71230Y132993D01*
X71128Y132892D01*
X71027D01*
X71128Y132790D01*
X71027Y132688D01*
X71128D01*
X71230Y132587D01*
Y132688D02*
X71281Y132739D01*
X71332D01*
X71281Y132790D01*
X71332Y132841D01*
X71281D01*
X71230Y132892D01*
X71179Y132841D01*
X71128D01*
X71179Y132790D01*
X71128Y132739D01*
X71179D01*
X71230Y132688D01*
X73770Y130047D02*
X73872Y130148D01*
X73973D01*
X73872Y130250D01*
X73973Y130352D01*
X73872D01*
X73770Y130453D01*
X73668Y130352D01*
X73567D01*
X73668Y130250D01*
X73567Y130148D01*
X73668D01*
X73770Y130047D01*
Y130148D02*
X73821Y130199D01*
X73872D01*
X73821Y130250D01*
X73872Y130301D01*
X73821D01*
X73770Y130352D01*
X73719Y130301D01*
X73668D01*
X73719Y130250D01*
X73668Y130199D01*
X73719D01*
X73770Y130148D01*
X76310Y130047D02*
X76412Y130148D01*
X76513D01*
X76412Y130250D01*
X76513Y130352D01*
X76412D01*
X76310Y130453D01*
X76208Y130352D01*
X76107D01*
X76208Y130250D01*
X76107Y130148D01*
X76208D01*
X76310Y130047D01*
Y130148D02*
X76361Y130199D01*
X76412D01*
X76361Y130250D01*
X76412Y130301D01*
X76361D01*
X76310Y130352D01*
X76259Y130301D01*
X76208D01*
X76259Y130250D01*
X76208Y130199D01*
X76259D01*
X76310Y130148D01*
X73770Y132587D02*
X73872Y132688D01*
X73973D01*
X73872Y132790D01*
X73973Y132892D01*
X73872D01*
X73770Y132993D01*
X73668Y132892D01*
X73567D01*
X73668Y132790D01*
X73567Y132688D01*
X73668D01*
X73770Y132587D01*
Y132688D02*
X73821Y132739D01*
X73872D01*
X73821Y132790D01*
X73872Y132841D01*
X73821D01*
X73770Y132892D01*
X73719Y132841D01*
X73668D01*
X73719Y132790D01*
X73668Y132739D01*
X73719D01*
X73770Y132688D01*
X76310Y132587D02*
X76412Y132688D01*
X76513D01*
X76412Y132790D01*
X76513Y132892D01*
X76412D01*
X76310Y132993D01*
X76208Y132892D01*
X76107D01*
X76208Y132790D01*
X76107Y132688D01*
X76208D01*
X76310Y132587D01*
Y132688D02*
X76361Y132739D01*
X76412D01*
X76361Y132790D01*
X76412Y132841D01*
X76361D01*
X76310Y132892D01*
X76259Y132841D01*
X76208D01*
X76259Y132790D01*
X76208Y132739D01*
X76259D01*
X76310Y132688D01*
X116000Y124797D02*
X115797Y125203D01*
X116203D01*
X116000Y124797D01*
Y124898D02*
X115898Y125102D01*
X116102D01*
X116000Y124898D01*
X118000Y124797D02*
X117797Y125203D01*
X118203D01*
X118000Y124797D01*
Y124898D02*
X117898Y125102D01*
X118102D01*
X118000Y124898D01*
X192637Y139097D02*
X192738Y139300D01*
X192637Y139503D01*
X192840Y139402D01*
X193043Y139503D01*
X192942Y139300D01*
X193043Y139097D01*
X192840Y139198D01*
X192637Y139097D01*
X192738Y139198D02*
X192789Y139300D01*
X192738Y139402D01*
X192840Y139351D01*
X192942Y139402D01*
X192891Y139300D01*
X192942Y139198D01*
X192840Y139249D01*
X192738Y139198D01*
X192637Y62497D02*
X192738Y62700D01*
X192637Y62903D01*
X192840Y62802D01*
X193043Y62903D01*
X192942Y62700D01*
X193043Y62497D01*
X192840Y62598D01*
X192637Y62497D01*
X192738Y62598D02*
X192789Y62700D01*
X192738Y62802D01*
X192840Y62751D01*
X192942Y62802D01*
X192891Y62700D01*
X192942Y62598D01*
X192840Y62649D01*
X192738Y62598D01*
X59957Y62497D02*
X60058Y62700D01*
X59957Y62903D01*
X60160Y62802D01*
X60363Y62903D01*
X60262Y62700D01*
X60363Y62497D01*
X60160Y62598D01*
X59957Y62497D01*
X60058Y62598D02*
X60109Y62700D01*
X60058Y62802D01*
X60160Y62751D01*
X60262Y62802D01*
X60211Y62700D01*
X60262Y62598D01*
X60160Y62649D01*
X60058Y62598D01*
X59957Y139097D02*
X60058Y139300D01*
X59957Y139503D01*
X60160Y139402D01*
X60363Y139503D01*
X60262Y139300D01*
X60363Y139097D01*
X60160Y139198D01*
X59957Y139097D01*
X60058Y139198D02*
X60109Y139300D01*
X60058Y139402D01*
X60160Y139351D01*
X60262Y139402D01*
X60211Y139300D01*
X60262Y139198D01*
X60160Y139249D01*
X60058Y139198D01*
X159398Y141198D02*
Y141097D01*
X159602D01*
Y141198D01*
X159703D01*
Y141402D01*
X159602D01*
Y141503D01*
X159398D01*
Y141402D01*
X159297D01*
Y141198D01*
X159398D01*
X159449Y141249D02*
Y141198D01*
X159551D01*
Y141249D01*
X159602D01*
Y141351D01*
X159551D01*
Y141402D01*
X159449D01*
Y141351D01*
X159398D01*
Y141249D01*
X159449D01*
X159398Y139865D02*
Y139763D01*
X159602D01*
Y139865D01*
X159703D01*
Y140068D01*
X159602D01*
Y140170D01*
X159398D01*
Y140068D01*
X159297D01*
Y139865D01*
X159398D01*
X159449Y139916D02*
Y139865D01*
X159551D01*
Y139916D01*
X159602D01*
Y140017D01*
X159551D01*
Y140068D01*
X159449D01*
Y140017D01*
X159398D01*
Y139916D01*
X159449D01*
X147598Y139865D02*
Y139763D01*
X147802D01*
Y139865D01*
X147903D01*
Y140068D01*
X147802D01*
Y140170D01*
X147598D01*
Y140068D01*
X147497D01*
Y139865D01*
X147598D01*
X147649Y139916D02*
Y139865D01*
X147751D01*
Y139916D01*
X147802D01*
Y140017D01*
X147751D01*
Y140068D01*
X147649D01*
Y140017D01*
X147598D01*
Y139916D01*
X147649D01*
X147598Y141198D02*
Y141097D01*
X147802D01*
Y141198D01*
X147903D01*
Y141402D01*
X147802D01*
Y141503D01*
X147598D01*
Y141402D01*
X147497D01*
Y141198D01*
X147598D01*
X147649Y141249D02*
Y141198D01*
X147751D01*
Y141249D01*
X147802D01*
Y141351D01*
X147751D01*
Y141402D01*
X147649D01*
Y141351D01*
X147598D01*
Y141249D01*
X147649D01*
X147598Y138532D02*
Y138430D01*
X147802D01*
Y138532D01*
X147903D01*
Y138735D01*
X147802D01*
Y138837D01*
X147598D01*
Y138735D01*
X147497D01*
Y138532D01*
X147598D01*
X147649Y138583D02*
Y138532D01*
X147751D01*
Y138583D01*
X147802D01*
Y138684D01*
X147751D01*
Y138735D01*
X147649D01*
Y138684D01*
X147598D01*
Y138583D01*
X147649D01*
X147598Y137198D02*
Y137097D01*
X147802D01*
Y137198D01*
X147903D01*
Y137402D01*
X147802D01*
Y137503D01*
X147598D01*
Y137402D01*
X147497D01*
Y137198D01*
X147598D01*
X147649Y137249D02*
Y137198D01*
X147751D01*
Y137249D01*
X147802D01*
Y137351D01*
X147751D01*
Y137402D01*
X147649D01*
Y137351D01*
X147598D01*
Y137249D01*
X147649D01*
X152048Y139865D02*
Y139763D01*
X152252D01*
Y139865D01*
X152353D01*
Y140068D01*
X152252D01*
Y140170D01*
X152048D01*
Y140068D01*
X151947D01*
Y139865D01*
X152048D01*
X152099Y139916D02*
Y139865D01*
X152201D01*
Y139916D01*
X152252D01*
Y140017D01*
X152201D01*
Y140068D01*
X152099D01*
Y140017D01*
X152048D01*
Y139916D01*
X152099D01*
X152048Y141198D02*
Y141097D01*
X152252D01*
Y141198D01*
X152353D01*
Y141402D01*
X152252D01*
Y141503D01*
X152048D01*
Y141402D01*
X151947D01*
Y141198D01*
X152048D01*
X152099Y141249D02*
Y141198D01*
X152201D01*
Y141249D01*
X152252D01*
Y141351D01*
X152201D01*
Y141402D01*
X152099D01*
Y141351D01*
X152048D01*
Y141249D01*
X152099D01*
X152048Y138532D02*
Y138430D01*
X152252D01*
Y138532D01*
X152353D01*
Y138735D01*
X152252D01*
Y138837D01*
X152048D01*
Y138735D01*
X151947D01*
Y138532D01*
X152048D01*
X152099Y138583D02*
Y138532D01*
X152201D01*
Y138583D01*
X152252D01*
Y138684D01*
X152201D01*
Y138735D01*
X152099D01*
Y138684D01*
X152048D01*
Y138583D01*
X152099D01*
X152048Y137198D02*
Y137097D01*
X152252D01*
Y137198D01*
X152353D01*
Y137402D01*
X152252D01*
Y137503D01*
X152048D01*
Y137402D01*
X151947D01*
Y137198D01*
X152048D01*
X152099Y137249D02*
Y137198D01*
X152201D01*
Y137249D01*
X152252D01*
Y137351D01*
X152201D01*
Y137402D01*
X152099D01*
Y137351D01*
X152048D01*
Y137249D01*
X152099D01*
X155748Y139915D02*
Y139813D01*
X155952D01*
Y139915D01*
X156053D01*
Y140118D01*
X155952D01*
Y140220D01*
X155748D01*
Y140118D01*
X155647D01*
Y139915D01*
X155748D01*
X155799Y139966D02*
Y139915D01*
X155901D01*
Y139966D01*
X155952D01*
Y140067D01*
X155901D01*
Y140118D01*
X155799D01*
Y140067D01*
X155748D01*
Y139966D01*
X155799D01*
X155748Y141248D02*
Y141147D01*
X155952D01*
Y141248D01*
X156053D01*
Y141452D01*
X155952D01*
Y141553D01*
X155748D01*
Y141452D01*
X155647D01*
Y141248D01*
X155748D01*
X155799Y141299D02*
Y141248D01*
X155901D01*
Y141299D01*
X155952D01*
Y141401D01*
X155901D01*
Y141452D01*
X155799D01*
Y141401D01*
X155748D01*
Y141299D01*
X155799D01*
X155748Y138582D02*
Y138480D01*
X155952D01*
Y138582D01*
X156053D01*
Y138785D01*
X155952D01*
Y138887D01*
X155748D01*
Y138785D01*
X155647D01*
Y138582D01*
X155748D01*
X155799Y138633D02*
Y138582D01*
X155901D01*
Y138633D01*
X155952D01*
Y138734D01*
X155901D01*
Y138785D01*
X155799D01*
Y138734D01*
X155748D01*
Y138633D01*
X155799D01*
X155748Y137248D02*
Y137147D01*
X155952D01*
Y137248D01*
X156053D01*
Y137452D01*
X155952D01*
Y137553D01*
X155748D01*
Y137452D01*
X155647D01*
Y137248D01*
X155748D01*
X155799Y137299D02*
Y137248D01*
X155901D01*
Y137299D01*
X155952D01*
Y137401D01*
X155901D01*
Y137452D01*
X155799D01*
Y137401D01*
X155748D01*
Y137299D01*
X155799D01*
X182748Y134698D02*
Y134597D01*
X182952D01*
Y134698D01*
X183053D01*
Y134902D01*
X182952D01*
Y135003D01*
X182748D01*
Y134902D01*
X182647D01*
Y134698D01*
X182748D01*
X182799Y134749D02*
Y134698D01*
X182901D01*
Y134749D01*
X182952D01*
Y134851D01*
X182901D01*
Y134902D01*
X182799D01*
Y134851D01*
X182748D01*
Y134749D01*
X182799D01*
X182748Y136032D02*
Y135930D01*
X182952D01*
Y136032D01*
X183053D01*
Y136235D01*
X182952D01*
Y136337D01*
X182748D01*
Y136235D01*
X182647D01*
Y136032D01*
X182748D01*
X182799Y136083D02*
Y136032D01*
X182901D01*
Y136083D01*
X182952D01*
Y136184D01*
X182901D01*
Y136235D01*
X182799D01*
Y136184D01*
X182748D01*
Y136083D01*
X182799D01*
X147698Y83748D02*
Y83647D01*
X147902D01*
Y83748D01*
X148003D01*
Y83952D01*
X147902D01*
Y84053D01*
X147698D01*
Y83952D01*
X147597D01*
Y83748D01*
X147698D01*
X147749Y83799D02*
Y83748D01*
X147851D01*
Y83799D01*
X147902D01*
Y83901D01*
X147851D01*
Y83952D01*
X147749D01*
Y83901D01*
X147698D01*
Y83799D01*
X147749D01*
X143243Y83348D02*
Y83247D01*
X143447D01*
Y83348D01*
X143548D01*
Y83552D01*
X143447D01*
Y83653D01*
X143243D01*
Y83552D01*
X143142D01*
Y83348D01*
X143243D01*
X143294Y83399D02*
Y83348D01*
X143396D01*
Y83399D01*
X143447D01*
Y83501D01*
X143396D01*
Y83552D01*
X143294D01*
Y83501D01*
X143243D01*
Y83399D01*
X143294D01*
X146648Y85498D02*
Y85397D01*
X146852D01*
Y85498D01*
X146953D01*
Y85702D01*
X146852D01*
Y85803D01*
X146648D01*
Y85702D01*
X146547D01*
Y85498D01*
X146648D01*
X146699Y85549D02*
Y85498D01*
X146801D01*
Y85549D01*
X146852D01*
Y85651D01*
X146801D01*
Y85702D01*
X146699D01*
Y85651D01*
X146648D01*
Y85549D01*
X146699D01*
X145748Y84648D02*
Y84547D01*
X145952D01*
Y84648D01*
X146053D01*
Y84852D01*
X145952D01*
Y84953D01*
X145748D01*
Y84852D01*
X145647D01*
Y84648D01*
X145748D01*
X145799Y84699D02*
Y84648D01*
X145901D01*
Y84699D01*
X145952D01*
Y84801D01*
X145901D01*
Y84852D01*
X145799D01*
Y84801D01*
X145748D01*
Y84699D01*
X145799D01*
X137498Y73348D02*
Y73247D01*
X137702D01*
Y73348D01*
X137803D01*
Y73552D01*
X137702D01*
Y73653D01*
X137498D01*
Y73552D01*
X137397D01*
Y73348D01*
X137498D01*
X137549Y73399D02*
Y73348D01*
X137651D01*
Y73399D01*
X137702D01*
Y73501D01*
X137651D01*
Y73552D01*
X137549D01*
Y73501D01*
X137498D01*
Y73399D01*
X137549D01*
X121298Y83148D02*
Y83047D01*
X121502D01*
Y83148D01*
X121603D01*
Y83352D01*
X121502D01*
Y83453D01*
X121298D01*
Y83352D01*
X121197D01*
Y83148D01*
X121298D01*
X121349Y83199D02*
Y83148D01*
X121451D01*
Y83199D01*
X121502D01*
Y83301D01*
X121451D01*
Y83352D01*
X121349D01*
Y83301D01*
X121298D01*
Y83199D01*
X121349D01*
X117598Y129798D02*
Y129697D01*
X117802D01*
Y129798D01*
X117903D01*
Y130002D01*
X117802D01*
Y130103D01*
X117598D01*
Y130002D01*
X117497D01*
Y129798D01*
X117598D01*
X117649Y129849D02*
Y129798D01*
X117751D01*
Y129849D01*
X117802D01*
Y129951D01*
X117751D01*
Y130002D01*
X117649D01*
Y129951D01*
X117598D01*
Y129849D01*
X117649D01*
X111298Y133398D02*
Y133297D01*
X111502D01*
Y133398D01*
X111603D01*
Y133602D01*
X111502D01*
Y133703D01*
X111298D01*
Y133602D01*
X111197D01*
Y133398D01*
X111298D01*
X111349Y133449D02*
Y133398D01*
X111451D01*
Y133449D01*
X111502D01*
Y133551D01*
X111451D01*
Y133602D01*
X111349D01*
Y133551D01*
X111298D01*
Y133449D01*
X111349D01*
X111298Y131298D02*
Y131197D01*
X111502D01*
Y131298D01*
X111603D01*
Y131502D01*
X111502D01*
Y131603D01*
X111298D01*
Y131502D01*
X111197D01*
Y131298D01*
X111298D01*
X111349Y131349D02*
Y131298D01*
X111451D01*
Y131349D01*
X111502D01*
Y131451D01*
X111451D01*
Y131502D01*
X111349D01*
Y131451D01*
X111298D01*
Y131349D01*
X111349D01*
X113448Y129798D02*
Y129697D01*
X113652D01*
Y129798D01*
X113753D01*
Y130002D01*
X113652D01*
Y130103D01*
X113448D01*
Y130002D01*
X113347D01*
Y129798D01*
X113448D01*
X113499Y129849D02*
Y129798D01*
X113601D01*
Y129849D01*
X113652D01*
Y129951D01*
X113601D01*
Y130002D01*
X113499D01*
Y129951D01*
X113448D01*
Y129849D01*
X113499D01*
X196248Y53568D02*
Y53467D01*
X196452D01*
Y53568D01*
X196553D01*
Y53772D01*
X196452D01*
Y53873D01*
X196248D01*
Y53772D01*
X196147D01*
Y53568D01*
X196248D01*
X196299Y53619D02*
Y53568D01*
X196401D01*
Y53619D01*
X196452D01*
Y53721D01*
X196401D01*
Y53772D01*
X196299D01*
Y53721D01*
X196248D01*
Y53619D01*
X196299D01*
X199898Y56848D02*
Y56747D01*
X200102D01*
Y56848D01*
X200203D01*
Y57052D01*
X200102D01*
Y57153D01*
X199898D01*
Y57052D01*
X199797D01*
Y56848D01*
X199898D01*
X199949Y56899D02*
Y56848D01*
X200051D01*
Y56899D01*
X200102D01*
Y57001D01*
X200051D01*
Y57052D01*
X199949D01*
Y57001D01*
X199898D01*
Y56899D01*
X199949D01*
X62748Y76098D02*
Y75997D01*
X62952D01*
Y76098D01*
X63053D01*
Y76302D01*
X62952D01*
Y76403D01*
X62748D01*
Y76302D01*
X62647D01*
Y76098D01*
X62748D01*
X62799Y76149D02*
Y76098D01*
X62901D01*
Y76149D01*
X62952D01*
Y76251D01*
X62901D01*
Y76302D01*
X62799D01*
Y76251D01*
X62748D01*
Y76149D01*
X62799D01*
X163458Y144748D02*
Y144647D01*
X163662D01*
Y144748D01*
X163763D01*
Y144952D01*
X163662D01*
Y145053D01*
X163458D01*
Y144952D01*
X163357D01*
Y144748D01*
X163458D01*
X163509Y144799D02*
Y144748D01*
X163611D01*
Y144799D01*
X163662D01*
Y144901D01*
X163611D01*
Y144952D01*
X163509D01*
Y144901D01*
X163458D01*
Y144799D01*
X163509D01*
X187098Y146648D02*
Y146547D01*
X187302D01*
Y146648D01*
X187403D01*
Y146852D01*
X187302D01*
Y146953D01*
X187098D01*
Y146852D01*
X186997D01*
Y146648D01*
X187098D01*
X187149Y146699D02*
Y146648D01*
X187251D01*
Y146699D01*
X187302D01*
Y146801D01*
X187251D01*
Y146852D01*
X187149D01*
Y146801D01*
X187098D01*
Y146699D01*
X187149D01*
X188698Y120448D02*
Y120347D01*
X188902D01*
Y120448D01*
X189003D01*
Y120652D01*
X188902D01*
Y120753D01*
X188698D01*
Y120652D01*
X188597D01*
Y120448D01*
X188698D01*
X188749Y120499D02*
Y120448D01*
X188851D01*
Y120499D01*
X188902D01*
Y120601D01*
X188851D01*
Y120652D01*
X188749D01*
Y120601D01*
X188698D01*
Y120499D01*
X188749D01*
X187998Y114598D02*
Y114497D01*
X188202D01*
Y114598D01*
X188303D01*
Y114802D01*
X188202D01*
Y114903D01*
X187998D01*
Y114802D01*
X187897D01*
Y114598D01*
X187998D01*
X188049Y114649D02*
Y114598D01*
X188151D01*
Y114649D01*
X188202D01*
Y114751D01*
X188151D01*
Y114802D01*
X188049D01*
Y114751D01*
X187998D01*
Y114649D01*
X188049D01*
X168798Y71148D02*
Y71047D01*
X169002D01*
Y71148D01*
X169103D01*
Y71352D01*
X169002D01*
Y71453D01*
X168798D01*
Y71352D01*
X168697D01*
Y71148D01*
X168798D01*
X168849Y71199D02*
Y71148D01*
X168951D01*
Y71199D01*
X169002D01*
Y71301D01*
X168951D01*
Y71352D01*
X168849D01*
Y71301D01*
X168798D01*
Y71199D01*
X168849D01*
X189148Y56348D02*
Y56247D01*
X189352D01*
Y56348D01*
X189453D01*
Y56552D01*
X189352D01*
Y56653D01*
X189148D01*
Y56552D01*
X189047D01*
Y56348D01*
X189148D01*
X189199Y56399D02*
Y56348D01*
X189301D01*
Y56399D01*
X189352D01*
Y56501D01*
X189301D01*
Y56552D01*
X189199D01*
Y56501D01*
X189148D01*
Y56399D01*
X189199D01*
X142798Y68998D02*
Y68897D01*
X143002D01*
Y68998D01*
X143103D01*
Y69202D01*
X143002D01*
Y69303D01*
X142798D01*
Y69202D01*
X142697D01*
Y68998D01*
X142798D01*
X142849Y69049D02*
Y68998D01*
X142951D01*
Y69049D01*
X143002D01*
Y69151D01*
X142951D01*
Y69202D01*
X142849D01*
Y69151D01*
X142798D01*
Y69049D01*
X142849D01*
X144598Y63948D02*
Y63847D01*
X144802D01*
Y63948D01*
X144903D01*
Y64152D01*
X144802D01*
Y64253D01*
X144598D01*
Y64152D01*
X144497D01*
Y63948D01*
X144598D01*
X144649Y63999D02*
Y63948D01*
X144751D01*
Y63999D01*
X144802D01*
Y64101D01*
X144751D01*
Y64152D01*
X144649D01*
Y64101D01*
X144598D01*
Y63999D01*
X144649D01*
X153548Y79748D02*
Y79647D01*
X153752D01*
Y79748D01*
X153853D01*
Y79952D01*
X153752D01*
Y80053D01*
X153548D01*
Y79952D01*
X153447D01*
Y79748D01*
X153548D01*
X153599Y79799D02*
Y79748D01*
X153701D01*
Y79799D01*
X153752D01*
Y79901D01*
X153701D01*
Y79952D01*
X153599D01*
Y79901D01*
X153548D01*
Y79799D01*
X153599D01*
X144848Y83748D02*
Y83647D01*
X145052D01*
Y83748D01*
X145153D01*
Y83952D01*
X145052D01*
Y84053D01*
X144848D01*
Y83952D01*
X144747D01*
Y83748D01*
X144848D01*
X144899Y83799D02*
Y83748D01*
X145001D01*
Y83799D01*
X145052D01*
Y83901D01*
X145001D01*
Y83952D01*
X144899D01*
Y83901D01*
X144848D01*
Y83799D01*
X144899D01*
X144848Y82598D02*
Y82497D01*
X145052D01*
Y82598D01*
X145153D01*
Y82802D01*
X145052D01*
Y82903D01*
X144848D01*
Y82802D01*
X144747D01*
Y82598D01*
X144848D01*
X144899Y82649D02*
Y82598D01*
X145001D01*
Y82649D01*
X145052D01*
Y82751D01*
X145001D01*
Y82802D01*
X144899D01*
Y82751D01*
X144848D01*
Y82649D01*
X144899D01*
X130248Y93814D02*
Y93713D01*
X130452D01*
Y93814D01*
X130553D01*
Y94018D01*
X130452D01*
Y94119D01*
X130248D01*
Y94018D01*
X130147D01*
Y93814D01*
X130248D01*
X130299Y93865D02*
Y93814D01*
X130401D01*
Y93865D01*
X130452D01*
Y93967D01*
X130401D01*
Y94018D01*
X130299D01*
Y93967D01*
X130248D01*
Y93865D01*
X130299D01*
X133248Y89248D02*
Y89147D01*
X133452D01*
Y89248D01*
X133553D01*
Y89452D01*
X133452D01*
Y89553D01*
X133248D01*
Y89452D01*
X133147D01*
Y89248D01*
X133248D01*
X133299Y89299D02*
Y89248D01*
X133401D01*
Y89299D01*
X133452D01*
Y89401D01*
X133401D01*
Y89452D01*
X133299D01*
Y89401D01*
X133248D01*
Y89299D01*
X133299D01*
X125198Y91464D02*
Y91363D01*
X125402D01*
Y91464D01*
X125503D01*
Y91668D01*
X125402D01*
Y91769D01*
X125198D01*
Y91668D01*
X125097D01*
Y91464D01*
X125198D01*
X125249Y91515D02*
Y91464D01*
X125351D01*
Y91515D01*
X125402D01*
Y91617D01*
X125351D01*
Y91668D01*
X125249D01*
Y91617D01*
X125198D01*
Y91515D01*
X125249D01*
X126798Y106898D02*
Y106797D01*
X127002D01*
Y106898D01*
X127103D01*
Y107102D01*
X127002D01*
Y107203D01*
X126798D01*
Y107102D01*
X126697D01*
Y106898D01*
X126798D01*
X126849Y106949D02*
Y106898D01*
X126951D01*
Y106949D01*
X127002D01*
Y107051D01*
X126951D01*
Y107102D01*
X126849D01*
Y107051D01*
X126798D01*
Y106949D01*
X126849D01*
X120748Y109148D02*
Y109047D01*
X120952D01*
Y109148D01*
X121053D01*
Y109352D01*
X120952D01*
Y109453D01*
X120748D01*
Y109352D01*
X120647D01*
Y109148D01*
X120748D01*
X120799Y109199D02*
Y109148D01*
X120901D01*
Y109199D01*
X120952D01*
Y109301D01*
X120901D01*
Y109352D01*
X120799D01*
Y109301D01*
X120748D01*
Y109199D01*
X120799D01*
X112148Y110418D02*
Y110317D01*
X112352D01*
Y110418D01*
X112453D01*
Y110622D01*
X112352D01*
Y110723D01*
X112148D01*
Y110622D01*
X112047D01*
Y110418D01*
X112148D01*
X112199Y110469D02*
Y110418D01*
X112301D01*
Y110469D01*
X112352D01*
Y110571D01*
X112301D01*
Y110622D01*
X112199D01*
Y110571D01*
X112148D01*
Y110469D01*
X112199D01*
X93098Y142148D02*
Y142047D01*
X93302D01*
Y142148D01*
X93403D01*
Y142352D01*
X93302D01*
Y142453D01*
X93098D01*
Y142352D01*
X92997D01*
Y142148D01*
X93098D01*
X93149Y142199D02*
Y142148D01*
X93251D01*
Y142199D01*
X93302D01*
Y142301D01*
X93251D01*
Y142352D01*
X93149D01*
Y142301D01*
X93098D01*
Y142199D01*
X93149D01*
X86938Y144148D02*
Y144047D01*
X87142D01*
Y144148D01*
X87243D01*
Y144352D01*
X87142D01*
Y144453D01*
X86938D01*
Y144352D01*
X86837D01*
Y144148D01*
X86938D01*
X86989Y144199D02*
Y144148D01*
X87091D01*
Y144199D01*
X87142D01*
Y144301D01*
X87091D01*
Y144352D01*
X86989D01*
Y144301D01*
X86938D01*
Y144199D01*
X86989D01*
X99448Y145198D02*
Y145097D01*
X99652D01*
Y145198D01*
X99753D01*
Y145402D01*
X99652D01*
Y145503D01*
X99448D01*
Y145402D01*
X99347D01*
Y145198D01*
X99448D01*
X99499Y145249D02*
Y145198D01*
X99601D01*
Y145249D01*
X99652D01*
Y145351D01*
X99601D01*
Y145402D01*
X99499D01*
Y145351D01*
X99448D01*
Y145249D01*
X99499D01*
X110798Y143948D02*
Y143847D01*
X111002D01*
Y143948D01*
X111103D01*
Y144152D01*
X111002D01*
Y144253D01*
X110798D01*
Y144152D01*
X110697D01*
Y143948D01*
X110798D01*
X110849Y143999D02*
Y143948D01*
X110951D01*
Y143999D01*
X111002D01*
Y144101D01*
X110951D01*
Y144152D01*
X110849D01*
Y144101D01*
X110798D01*
Y143999D01*
X110849D01*
X182626Y111898D02*
Y111797D01*
X182829D01*
Y111898D01*
X182930D01*
Y112102D01*
X182829D01*
Y112203D01*
X182626D01*
Y112102D01*
X182524D01*
Y111898D01*
X182626D01*
X182676Y111949D02*
Y111898D01*
X182778D01*
Y111949D01*
X182829D01*
Y112051D01*
X182778D01*
Y112102D01*
X182676D01*
Y112051D01*
X182626D01*
Y111949D01*
X182676D01*
X176648Y125048D02*
Y124947D01*
X176852D01*
Y125048D01*
X176953D01*
Y125252D01*
X176852D01*
Y125353D01*
X176648D01*
Y125252D01*
X176547D01*
Y125048D01*
X176648D01*
X176699Y125099D02*
Y125048D01*
X176801D01*
Y125099D01*
X176852D01*
Y125201D01*
X176801D01*
Y125252D01*
X176699D01*
Y125201D01*
X176648D01*
Y125099D01*
X176699D01*
X179648Y116498D02*
Y116397D01*
X179852D01*
Y116498D01*
X179953D01*
Y116702D01*
X179852D01*
Y116803D01*
X179648D01*
Y116702D01*
X179547D01*
Y116498D01*
X179648D01*
X179699Y116549D02*
Y116498D01*
X179801D01*
Y116549D01*
X179852D01*
Y116651D01*
X179801D01*
Y116702D01*
X179699D01*
Y116651D01*
X179648D01*
Y116549D01*
X179699D01*
X127948Y76648D02*
Y76547D01*
X128152D01*
Y76648D01*
X128253D01*
Y76852D01*
X128152D01*
Y76953D01*
X127948D01*
Y76852D01*
X127847D01*
Y76648D01*
X127948D01*
X127999Y76699D02*
Y76648D01*
X128101D01*
Y76699D01*
X128152D01*
Y76801D01*
X128101D01*
Y76852D01*
X127999D01*
Y76801D01*
X127948D01*
Y76699D01*
X127999D01*
X128548Y54648D02*
Y54547D01*
X128752D01*
Y54648D01*
X128853D01*
Y54852D01*
X128752D01*
Y54953D01*
X128548D01*
Y54852D01*
X128447D01*
Y54648D01*
X128548D01*
X128599Y54699D02*
Y54648D01*
X128701D01*
Y54699D01*
X128752D01*
Y54801D01*
X128701D01*
Y54852D01*
X128599D01*
Y54801D01*
X128548D01*
Y54699D01*
X128599D01*
X128548Y66398D02*
Y66297D01*
X128752D01*
Y66398D01*
X128853D01*
Y66602D01*
X128752D01*
Y66703D01*
X128548D01*
Y66602D01*
X128447D01*
Y66398D01*
X128548D01*
X128599Y66449D02*
Y66398D01*
X128701D01*
Y66449D01*
X128752D01*
Y66551D01*
X128701D01*
Y66602D01*
X128599D01*
Y66551D01*
X128548D01*
Y66449D01*
X128599D01*
X124165Y83148D02*
Y83047D01*
X124368D01*
Y83148D01*
X124470D01*
Y83352D01*
X124368D01*
Y83453D01*
X124165D01*
Y83352D01*
X124063D01*
Y83148D01*
X124165D01*
X124216Y83199D02*
Y83148D01*
X124317D01*
Y83199D01*
X124368D01*
Y83301D01*
X124317D01*
Y83352D01*
X124216D01*
Y83301D01*
X124165D01*
Y83199D01*
X124216D01*
X122732Y83148D02*
Y83047D01*
X122935D01*
Y83148D01*
X123037D01*
Y83352D01*
X122935D01*
Y83453D01*
X122732D01*
Y83352D01*
X122630D01*
Y83148D01*
X122732D01*
X122783Y83199D02*
Y83148D01*
X122884D01*
Y83199D01*
X122935D01*
Y83301D01*
X122884D01*
Y83352D01*
X122783D01*
Y83301D01*
X122732D01*
Y83199D01*
X122783D01*
X125598Y83148D02*
Y83047D01*
X125802D01*
Y83148D01*
X125903D01*
Y83352D01*
X125802D01*
Y83453D01*
X125598D01*
Y83352D01*
X125497D01*
Y83148D01*
X125598D01*
X125649Y83199D02*
Y83148D01*
X125751D01*
Y83199D01*
X125802D01*
Y83301D01*
X125751D01*
Y83352D01*
X125649D01*
Y83301D01*
X125598D01*
Y83199D01*
X125649D01*
X149898Y87310D02*
Y87209D01*
X150102D01*
Y87310D01*
X150203D01*
Y87514D01*
X150102D01*
Y87615D01*
X149898D01*
Y87514D01*
X149797D01*
Y87310D01*
X149898D01*
X149949Y87361D02*
Y87310D01*
X150051D01*
Y87361D01*
X150102D01*
Y87463D01*
X150051D01*
Y87514D01*
X149949D01*
Y87463D01*
X149898D01*
Y87361D01*
X149949D01*
X149898Y88657D02*
Y88556D01*
X150102D01*
Y88657D01*
X150203D01*
Y88861D01*
X150102D01*
Y88962D01*
X149898D01*
Y88861D01*
X149797D01*
Y88657D01*
X149898D01*
X149949Y88708D02*
Y88657D01*
X150051D01*
Y88708D01*
X150102D01*
Y88810D01*
X150051D01*
Y88861D01*
X149949D01*
Y88810D01*
X149898D01*
Y88708D01*
X149949D01*
X149898Y90004D02*
Y89903D01*
X150102D01*
Y90004D01*
X150203D01*
Y90208D01*
X150102D01*
Y90309D01*
X149898D01*
Y90208D01*
X149797D01*
Y90004D01*
X149898D01*
X149949Y90055D02*
Y90004D01*
X150051D01*
Y90055D01*
X150102D01*
Y90157D01*
X150051D01*
Y90208D01*
X149949D01*
Y90157D01*
X149898D01*
Y90055D01*
X149949D01*
X149898Y91351D02*
Y91250D01*
X150102D01*
Y91351D01*
X150203D01*
Y91555D01*
X150102D01*
Y91656D01*
X149898D01*
Y91555D01*
X149797D01*
Y91351D01*
X149898D01*
X149949Y91402D02*
Y91351D01*
X150051D01*
Y91402D01*
X150102D01*
Y91504D01*
X150051D01*
Y91555D01*
X149949D01*
Y91504D01*
X149898D01*
Y91402D01*
X149949D01*
X149898Y92698D02*
Y92597D01*
X150102D01*
Y92698D01*
X150203D01*
Y92902D01*
X150102D01*
Y93003D01*
X149898D01*
Y92902D01*
X149797D01*
Y92698D01*
X149898D01*
X149949Y92749D02*
Y92698D01*
X150051D01*
Y92749D01*
X150102D01*
Y92851D01*
X150051D01*
Y92902D01*
X149949D01*
Y92851D01*
X149898D01*
Y92749D01*
X149949D01*
X137498Y74661D02*
Y74559D01*
X137702D01*
Y74661D01*
X137803D01*
Y74864D01*
X137702D01*
Y74966D01*
X137498D01*
Y74864D01*
X137397D01*
Y74661D01*
X137498D01*
X137549Y74712D02*
Y74661D01*
X137651D01*
Y74712D01*
X137702D01*
Y74813D01*
X137651D01*
Y74864D01*
X137549D01*
Y74813D01*
X137498D01*
Y74712D01*
X137549D01*
X137498Y75973D02*
Y75872D01*
X137702D01*
Y75973D01*
X137803D01*
Y76177D01*
X137702D01*
Y76278D01*
X137498D01*
Y76177D01*
X137397D01*
Y75973D01*
X137498D01*
X137549Y76024D02*
Y75973D01*
X137651D01*
Y76024D01*
X137702D01*
Y76126D01*
X137651D01*
Y76177D01*
X137549D01*
Y76126D01*
X137498D01*
Y76024D01*
X137549D01*
X137498Y77286D02*
Y77184D01*
X137702D01*
Y77286D01*
X137803D01*
Y77489D01*
X137702D01*
Y77591D01*
X137498D01*
Y77489D01*
X137397D01*
Y77286D01*
X137498D01*
X137549Y77337D02*
Y77286D01*
X137651D01*
Y77337D01*
X137702D01*
Y77438D01*
X137651D01*
Y77489D01*
X137549D01*
Y77438D01*
X137498D01*
Y77337D01*
X137549D01*
X137498Y78598D02*
Y78497D01*
X137702D01*
Y78598D01*
X137803D01*
Y78802D01*
X137702D01*
Y78903D01*
X137498D01*
Y78802D01*
X137397D01*
Y78598D01*
X137498D01*
X137549Y78649D02*
Y78598D01*
X137651D01*
Y78649D01*
X137702D01*
Y78751D01*
X137651D01*
Y78802D01*
X137549D01*
Y78751D01*
X137498D01*
Y78649D01*
X137549D01*
X182398Y63348D02*
Y63247D01*
X182602D01*
Y63348D01*
X182703D01*
Y63552D01*
X182602D01*
Y63653D01*
X182398D01*
Y63552D01*
X182297D01*
Y63348D01*
X182398D01*
X182449Y63399D02*
Y63348D01*
X182551D01*
Y63399D01*
X182602D01*
Y63501D01*
X182551D01*
Y63552D01*
X182449D01*
Y63501D01*
X182398D01*
Y63399D01*
X182449D01*
X162148Y88398D02*
Y88297D01*
X162352D01*
Y88398D01*
X162453D01*
Y88602D01*
X162352D01*
Y88703D01*
X162148D01*
Y88602D01*
X162047D01*
Y88398D01*
X162148D01*
X162199Y88449D02*
Y88398D01*
X162301D01*
Y88449D01*
X162352D01*
Y88551D01*
X162301D01*
Y88602D01*
X162199D01*
Y88551D01*
X162148D01*
Y88449D01*
X162199D01*
X165048Y77248D02*
Y77147D01*
X165252D01*
Y77248D01*
X165353D01*
Y77452D01*
X165252D01*
Y77553D01*
X165048D01*
Y77452D01*
X164947D01*
Y77248D01*
X165048D01*
X165099Y77299D02*
Y77248D01*
X165201D01*
Y77299D01*
X165252D01*
Y77401D01*
X165201D01*
Y77452D01*
X165099D01*
Y77401D01*
X165048D01*
Y77299D01*
X165099D01*
X182398Y77248D02*
Y77147D01*
X182602D01*
Y77248D01*
X182703D01*
Y77452D01*
X182602D01*
Y77553D01*
X182398D01*
Y77452D01*
X182297D01*
Y77248D01*
X182398D01*
X182449Y77299D02*
Y77248D01*
X182551D01*
Y77299D01*
X182602D01*
Y77401D01*
X182551D01*
Y77452D01*
X182449D01*
Y77401D01*
X182398D01*
Y77299D01*
X182449D01*
X182398Y88298D02*
Y88197D01*
X182602D01*
Y88298D01*
X182703D01*
Y88502D01*
X182602D01*
Y88603D01*
X182398D01*
Y88502D01*
X182297D01*
Y88298D01*
X182398D01*
X182449Y88349D02*
Y88298D01*
X182551D01*
Y88349D01*
X182602D01*
Y88451D01*
X182551D01*
Y88502D01*
X182449D01*
Y88451D01*
X182398D01*
Y88349D01*
X182449D01*
X173648Y88298D02*
Y88197D01*
X173852D01*
Y88298D01*
X173953D01*
Y88502D01*
X173852D01*
Y88603D01*
X173648D01*
Y88502D01*
X173547D01*
Y88298D01*
X173648D01*
X173699Y88349D02*
Y88298D01*
X173801D01*
Y88349D01*
X173852D01*
Y88451D01*
X173801D01*
Y88502D01*
X173699D01*
Y88451D01*
X173648D01*
Y88349D01*
X173699D01*
X173648Y101898D02*
Y101797D01*
X173852D01*
Y101898D01*
X173953D01*
Y102102D01*
X173852D01*
Y102203D01*
X173648D01*
Y102102D01*
X173547D01*
Y101898D01*
X173648D01*
X173699Y101949D02*
Y101898D01*
X173801D01*
Y101949D01*
X173852D01*
Y102051D01*
X173801D01*
Y102102D01*
X173699D01*
Y102051D01*
X173648D01*
Y101949D01*
X173699D01*
X186598Y107448D02*
Y107347D01*
X186802D01*
Y107448D01*
X186903D01*
Y107652D01*
X186802D01*
Y107753D01*
X186598D01*
Y107652D01*
X186497D01*
Y107448D01*
X186598D01*
X186649Y107499D02*
Y107448D01*
X186751D01*
Y107499D01*
X186802D01*
Y107601D01*
X186751D01*
Y107652D01*
X186649D01*
Y107601D01*
X186598D01*
Y107499D01*
X186649D01*
X154598Y119518D02*
Y119417D01*
X154802D01*
Y119518D01*
X154903D01*
Y119722D01*
X154802D01*
Y119823D01*
X154598D01*
Y119722D01*
X154497D01*
Y119518D01*
X154598D01*
X154649Y119569D02*
Y119518D01*
X154751D01*
Y119569D01*
X154802D01*
Y119671D01*
X154751D01*
Y119722D01*
X154649D01*
Y119671D01*
X154598D01*
Y119569D01*
X154649D01*
X144198Y131848D02*
Y131747D01*
X144402D01*
Y131848D01*
X144503D01*
Y132052D01*
X144402D01*
Y132153D01*
X144198D01*
Y132052D01*
X144097D01*
Y131848D01*
X144198D01*
X144249Y131899D02*
Y131848D01*
X144351D01*
Y131899D01*
X144402D01*
Y132001D01*
X144351D01*
Y132052D01*
X144249D01*
Y132001D01*
X144198D01*
Y131899D01*
X144249D01*
X187548Y130348D02*
Y130247D01*
X187752D01*
Y130348D01*
X187853D01*
Y130552D01*
X187752D01*
Y130653D01*
X187548D01*
Y130552D01*
X187447D01*
Y130348D01*
X187548D01*
X187599Y130399D02*
Y130348D01*
X187701D01*
Y130399D01*
X187752D01*
Y130501D01*
X187701D01*
Y130552D01*
X187599D01*
Y130501D01*
X187548D01*
Y130399D01*
X187599D01*
X144198Y130548D02*
Y130447D01*
X144402D01*
Y130548D01*
X144503D01*
Y130752D01*
X144402D01*
Y130853D01*
X144198D01*
Y130752D01*
X144097D01*
Y130548D01*
X144198D01*
X144249Y130599D02*
Y130548D01*
X144351D01*
Y130599D01*
X144402D01*
Y130701D01*
X144351D01*
Y130752D01*
X144249D01*
Y130701D01*
X144198D01*
Y130599D01*
X144249D01*
X182748Y138698D02*
Y138597D01*
X182952D01*
Y138698D01*
X183053D01*
Y138902D01*
X182952D01*
Y139003D01*
X182748D01*
Y138902D01*
X182647D01*
Y138698D01*
X182748D01*
X182799Y138749D02*
Y138698D01*
X182901D01*
Y138749D01*
X182952D01*
Y138851D01*
X182901D01*
Y138902D01*
X182799D01*
Y138851D01*
X182748D01*
Y138749D01*
X182799D01*
X182748Y137365D02*
Y137263D01*
X182952D01*
Y137365D01*
X183053D01*
Y137568D01*
X182952D01*
Y137670D01*
X182748D01*
Y137568D01*
X182647D01*
Y137365D01*
X182748D01*
X182799Y137416D02*
Y137365D01*
X182901D01*
Y137416D01*
X182952D01*
Y137517D01*
X182901D01*
Y137568D01*
X182799D01*
Y137517D01*
X182748D01*
Y137416D01*
X182799D01*
X180398Y134698D02*
Y134597D01*
X180602D01*
Y134698D01*
X180703D01*
Y134902D01*
X180602D01*
Y135003D01*
X180398D01*
Y134902D01*
X180297D01*
Y134698D01*
X180398D01*
X180449Y134749D02*
Y134698D01*
X180551D01*
Y134749D01*
X180602D01*
Y134851D01*
X180551D01*
Y134902D01*
X180449D01*
Y134851D01*
X180398D01*
Y134749D01*
X180449D01*
X199898Y144648D02*
Y144547D01*
X200102D01*
Y144648D01*
X200203D01*
Y144852D01*
X200102D01*
Y144953D01*
X199898D01*
Y144852D01*
X199797D01*
Y144648D01*
X199898D01*
X199949Y144699D02*
Y144648D01*
X200051D01*
Y144699D01*
X200102D01*
Y144801D01*
X200051D01*
Y144852D01*
X199949D01*
Y144801D01*
X199898D01*
Y144699D01*
X199949D01*
X71128Y139648D02*
Y139547D01*
X71332D01*
Y139648D01*
X71433D01*
Y139852D01*
X71332D01*
Y139953D01*
X71128D01*
Y139852D01*
X71027D01*
Y139648D01*
X71128D01*
X71179Y139699D02*
Y139648D01*
X71281D01*
Y139699D01*
X71332D01*
Y139801D01*
X71281D01*
Y139852D01*
X71179D01*
Y139801D01*
X71128D01*
Y139699D01*
X71179D01*
X96528Y137598D02*
Y137497D01*
X96732D01*
Y137598D01*
X96833D01*
Y137802D01*
X96732D01*
Y137903D01*
X96528D01*
Y137802D01*
X96427D01*
Y137598D01*
X96528D01*
X96579Y137649D02*
Y137598D01*
X96681D01*
Y137649D01*
X96732D01*
Y137751D01*
X96681D01*
Y137802D01*
X96579D01*
Y137751D01*
X96528D01*
Y137649D01*
X96579D01*
X103198Y124298D02*
Y124197D01*
X103402D01*
Y124298D01*
X103503D01*
Y124502D01*
X103402D01*
Y124603D01*
X103198D01*
Y124502D01*
X103097D01*
Y124298D01*
X103198D01*
X103249Y124349D02*
Y124298D01*
X103351D01*
Y124349D01*
X103402D01*
Y124451D01*
X103351D01*
Y124502D01*
X103249D01*
Y124451D01*
X103198D01*
Y124349D01*
X103249D01*
X110298Y89498D02*
Y89397D01*
X110502D01*
Y89498D01*
X110603D01*
Y89702D01*
X110502D01*
Y89803D01*
X110298D01*
Y89702D01*
X110197D01*
Y89498D01*
X110298D01*
X110349Y89549D02*
Y89498D01*
X110451D01*
Y89549D01*
X110502D01*
Y89651D01*
X110451D01*
Y89702D01*
X110349D01*
Y89651D01*
X110298D01*
Y89549D01*
X110349D01*
X56998Y53948D02*
Y53847D01*
X57202D01*
Y53948D01*
X57303D01*
Y54152D01*
X57202D01*
Y54253D01*
X56998D01*
Y54152D01*
X56897D01*
Y53948D01*
X56998D01*
X57049Y53999D02*
Y53948D01*
X57151D01*
Y53999D01*
X57202D01*
Y54101D01*
X57151D01*
Y54152D01*
X57049D01*
Y54101D01*
X56998D01*
Y53999D01*
X57049D01*
X73348Y118198D02*
Y118097D01*
X73552D01*
Y118198D01*
X73653D01*
Y118402D01*
X73552D01*
Y118503D01*
X73348D01*
Y118402D01*
X73247D01*
Y118198D01*
X73348D01*
X73399Y118249D02*
Y118198D01*
X73501D01*
Y118249D01*
X73552D01*
Y118351D01*
X73501D01*
Y118402D01*
X73399D01*
Y118351D01*
X73348D01*
Y118249D01*
X73399D01*
X95498Y102548D02*
Y102447D01*
X95702D01*
Y102548D01*
X95803D01*
Y102752D01*
X95702D01*
Y102853D01*
X95498D01*
Y102752D01*
X95397D01*
Y102548D01*
X95498D01*
X95549Y102599D02*
Y102548D01*
X95651D01*
Y102599D01*
X95702D01*
Y102701D01*
X95651D01*
Y102752D01*
X95549D01*
Y102701D01*
X95498D01*
Y102599D01*
X95549D01*
X95498Y89498D02*
Y89397D01*
X95702D01*
Y89498D01*
X95803D01*
Y89702D01*
X95702D01*
Y89803D01*
X95498D01*
Y89702D01*
X95397D01*
Y89498D01*
X95498D01*
X95549Y89549D02*
Y89498D01*
X95651D01*
Y89549D01*
X95702D01*
Y89651D01*
X95651D01*
Y89702D01*
X95549D01*
Y89651D01*
X95498D01*
Y89549D01*
X95549D01*
X76098Y107348D02*
Y107247D01*
X76302D01*
Y107348D01*
X76403D01*
Y107552D01*
X76302D01*
Y107653D01*
X76098D01*
Y107552D01*
X75997D01*
Y107348D01*
X76098D01*
X76149Y107399D02*
Y107348D01*
X76251D01*
Y107399D01*
X76302D01*
Y107501D01*
X76251D01*
Y107552D01*
X76149D01*
Y107501D01*
X76098D01*
Y107399D01*
X76149D01*
X76148Y89498D02*
Y89397D01*
X76352D01*
Y89498D01*
X76453D01*
Y89702D01*
X76352D01*
Y89803D01*
X76148D01*
Y89702D01*
X76047D01*
Y89498D01*
X76148D01*
X76199Y89549D02*
Y89498D01*
X76301D01*
Y89549D01*
X76352D01*
Y89651D01*
X76301D01*
Y89702D01*
X76199D01*
Y89651D01*
X76148D01*
Y89549D01*
X76199D01*
X76098Y102548D02*
Y102447D01*
X76302D01*
Y102548D01*
X76403D01*
Y102752D01*
X76302D01*
Y102853D01*
X76098D01*
Y102752D01*
X75997D01*
Y102548D01*
X76098D01*
X76149Y102599D02*
Y102548D01*
X76251D01*
Y102599D01*
X76302D01*
Y102701D01*
X76251D01*
Y102752D01*
X76149D01*
Y102701D01*
X76098D01*
Y102599D01*
X76149D01*
X61048Y102548D02*
Y102447D01*
X61252D01*
Y102548D01*
X61353D01*
Y102752D01*
X61252D01*
Y102853D01*
X61048D01*
Y102752D01*
X60947D01*
Y102548D01*
X61048D01*
X61099Y102599D02*
Y102548D01*
X61201D01*
Y102599D01*
X61252D01*
Y102701D01*
X61201D01*
Y102752D01*
X61099D01*
Y102701D01*
X61048D01*
Y102599D01*
X61099D01*
X61048Y83398D02*
Y83297D01*
X61252D01*
Y83398D01*
X61353D01*
Y83602D01*
X61252D01*
Y83703D01*
X61048D01*
Y83602D01*
X60947D01*
Y83398D01*
X61048D01*
X61099Y83449D02*
Y83398D01*
X61201D01*
Y83449D01*
X61252D01*
Y83551D01*
X61201D01*
Y83602D01*
X61099D01*
Y83551D01*
X61048D01*
Y83449D01*
X61099D01*
X52248Y106198D02*
Y106097D01*
X52452D01*
Y106198D01*
X52553D01*
Y106402D01*
X52452D01*
Y106503D01*
X52248D01*
Y106402D01*
X52147D01*
Y106198D01*
X52248D01*
X52299Y106249D02*
Y106198D01*
X52401D01*
Y106249D01*
X52452D01*
Y106351D01*
X52401D01*
Y106402D01*
X52299D01*
Y106351D01*
X52248D01*
Y106249D01*
X52299D01*
X52448Y124198D02*
Y124097D01*
X52652D01*
Y124198D01*
X52753D01*
Y124402D01*
X52652D01*
Y124503D01*
X52448D01*
Y124402D01*
X52347D01*
Y124198D01*
X52448D01*
X52499Y124249D02*
Y124198D01*
X52601D01*
Y124249D01*
X52652D01*
Y124351D01*
X52601D01*
Y124402D01*
X52499D01*
Y124351D01*
X52448D01*
Y124249D01*
X52499D01*
X56748Y147948D02*
Y147847D01*
X56952D01*
Y147948D01*
X57053D01*
Y148152D01*
X56952D01*
Y148253D01*
X56748D01*
Y148152D01*
X56647D01*
Y147948D01*
X56748D01*
X56799Y147999D02*
Y147948D01*
X56901D01*
Y147999D01*
X56952D01*
Y148101D01*
X56901D01*
Y148152D01*
X56799D01*
Y148101D01*
X56748D01*
Y147999D01*
X56799D01*
X52898Y144773D02*
Y144672D01*
X53102D01*
Y144773D01*
X53203D01*
Y144977D01*
X53102D01*
Y145078D01*
X52898D01*
Y144977D01*
X52797D01*
Y144773D01*
X52898D01*
X52949Y144824D02*
Y144773D01*
X53051D01*
Y144824D01*
X53102D01*
Y144926D01*
X53051D01*
Y144977D01*
X52949D01*
Y144926D01*
X52898D01*
Y144824D01*
X52949D01*
X167722Y143147D02*
X167823D01*
X167925Y143248D01*
X168027Y143147D01*
X168128D01*
Y143248D01*
X168027Y143350D01*
X168128Y143452D01*
Y143553D01*
X168027D01*
X167925Y143452D01*
X167823Y143553D01*
X167722D01*
Y143452D01*
X167823Y143350D01*
X167722Y143248D01*
Y143147D01*
X167823Y143248D02*
X167874D01*
X167925Y143299D01*
X167976Y143248D01*
X168027D01*
Y143299D01*
X167976Y143350D01*
X168027Y143401D01*
Y143452D01*
X167976D01*
X167925Y143401D01*
X167874Y143452D01*
X167823D01*
Y143401D01*
X167874Y143350D01*
X167823Y143299D01*
Y143248D01*
X78950Y126650D02*
Y126989D01*
X79119Y127158D01*
X79289Y126989D01*
Y126650D01*
Y126904D01*
X78950D01*
X91448Y116698D02*
Y116597D01*
X91652D01*
Y116698D01*
X91753D01*
Y116902D01*
X91652D01*
Y117003D01*
X91448D01*
Y116902D01*
X91347D01*
Y116698D01*
X91448D01*
X91499Y116749D02*
Y116698D01*
X91601D01*
Y116749D01*
X91652D01*
Y116851D01*
X91601D01*
Y116902D01*
X91499D01*
Y116851D01*
X91448D01*
Y116749D01*
X91499D01*
X72000Y110900D02*
Y111239D01*
X72169Y111408D01*
X72339Y111239D01*
Y110900D01*
Y111154D01*
X72000D01*
X70200Y113800D02*
Y114139D01*
X70369Y114308D01*
X70539Y114139D01*
Y113800D01*
Y114054D01*
X70200D01*
X132617Y130198D02*
Y130097D01*
X132821D01*
Y130198D01*
X132922D01*
Y130402D01*
X132821D01*
Y130503D01*
X132617D01*
Y130402D01*
X132516D01*
Y130198D01*
X132617D01*
X132668Y130249D02*
Y130198D01*
X132770D01*
Y130249D01*
X132821D01*
Y130351D01*
X132770D01*
Y130402D01*
X132668D01*
Y130351D01*
X132617D01*
Y130249D01*
X132668D01*
X129648Y123348D02*
Y123247D01*
X129852D01*
Y123348D01*
X129953D01*
Y123552D01*
X129852D01*
Y123653D01*
X129648D01*
Y123552D01*
X129547D01*
Y123348D01*
X129648D01*
X129699Y123399D02*
Y123348D01*
X129801D01*
Y123399D01*
X129852D01*
Y123501D01*
X129801D01*
Y123552D01*
X129699D01*
Y123501D01*
X129648D01*
Y123399D01*
X129699D01*
X163198Y139448D02*
Y139347D01*
X163402D01*
Y139448D01*
X163503D01*
Y139652D01*
X163402D01*
Y139753D01*
X163198D01*
Y139652D01*
X163097D01*
Y139448D01*
X163198D01*
X163249Y139499D02*
Y139448D01*
X163351D01*
Y139499D01*
X163402D01*
Y139601D01*
X163351D01*
Y139652D01*
X163249D01*
Y139601D01*
X163198D01*
Y139499D01*
X163249D01*
X163198Y138332D02*
Y138230D01*
X163402D01*
Y138332D01*
X163503D01*
Y138535D01*
X163402D01*
Y138637D01*
X163198D01*
Y138535D01*
X163097D01*
Y138332D01*
X163198D01*
X163249Y138383D02*
Y138332D01*
X163351D01*
Y138383D01*
X163402D01*
Y138484D01*
X163351D01*
Y138535D01*
X163249D01*
Y138484D01*
X163198D01*
Y138383D01*
X163249D01*
X175834Y139298D02*
Y139197D01*
X176037D01*
Y139298D01*
X176139D01*
Y139502D01*
X176037D01*
Y139603D01*
X175834D01*
Y139502D01*
X175732D01*
Y139298D01*
X175834D01*
X175885Y139349D02*
Y139298D01*
X175986D01*
Y139349D01*
X176037D01*
Y139451D01*
X175986D01*
Y139502D01*
X175885D01*
Y139451D01*
X175834D01*
Y139349D01*
X175885D01*
X175834Y138182D02*
Y138080D01*
X176037D01*
Y138182D01*
X176139D01*
Y138385D01*
X176037D01*
Y138487D01*
X175834D01*
Y138385D01*
X175732D01*
Y138182D01*
X175834D01*
X175885Y138233D02*
Y138182D01*
X175986D01*
Y138233D01*
X176037D01*
Y138334D01*
X175986D01*
Y138385D01*
X175885D01*
Y138334D01*
X175834D01*
Y138233D01*
X175885D01*
X175834Y137065D02*
Y136963D01*
X176037D01*
Y137065D01*
X176139D01*
Y137268D01*
X176037D01*
Y137370D01*
X175834D01*
Y137268D01*
X175732D01*
Y137065D01*
X175834D01*
X175885Y137116D02*
Y137065D01*
X175986D01*
Y137116D01*
X176037D01*
Y137217D01*
X175986D01*
Y137268D01*
X175885D01*
Y137217D01*
X175834D01*
Y137116D01*
X175885D01*
X175834Y135948D02*
Y135847D01*
X176037D01*
Y135948D01*
X176139D01*
Y136152D01*
X176037D01*
Y136253D01*
X175834D01*
Y136152D01*
X175732D01*
Y135948D01*
X175834D01*
X175885Y135999D02*
Y135948D01*
X175986D01*
Y135999D01*
X176037D01*
Y136101D01*
X175986D01*
Y136152D01*
X175885D01*
Y136101D01*
X175834D01*
Y135999D01*
X175885D01*
X116998Y135098D02*
Y134997D01*
X117202D01*
Y135098D01*
X117303D01*
Y135302D01*
X117202D01*
Y135403D01*
X116998D01*
Y135302D01*
X116897D01*
Y135098D01*
X116998D01*
X117049Y135149D02*
Y135098D01*
X117151D01*
Y135149D01*
X117202D01*
Y135251D01*
X117151D01*
Y135302D01*
X117049D01*
Y135251D01*
X116998D01*
Y135149D01*
X117049D01*
X116998Y133982D02*
Y133880D01*
X117202D01*
Y133982D01*
X117303D01*
Y134185D01*
X117202D01*
Y134287D01*
X116998D01*
Y134185D01*
X116897D01*
Y133982D01*
X116998D01*
X117049Y134033D02*
Y133982D01*
X117151D01*
Y134033D01*
X117202D01*
Y134134D01*
X117151D01*
Y134185D01*
X117049D01*
Y134134D01*
X116998D01*
Y134033D01*
X117049D01*
X116998Y132865D02*
Y132763D01*
X117202D01*
Y132865D01*
X117303D01*
Y133068D01*
X117202D01*
Y133170D01*
X116998D01*
Y133068D01*
X116897D01*
Y132865D01*
X116998D01*
X117049Y132916D02*
Y132865D01*
X117151D01*
Y132916D01*
X117202D01*
Y133017D01*
X117151D01*
Y133068D01*
X117049D01*
Y133017D01*
X116998D01*
Y132916D01*
X117049D01*
X116998Y131748D02*
Y131647D01*
X117202D01*
Y131748D01*
X117303D01*
Y131952D01*
X117202D01*
Y132053D01*
X116998D01*
Y131952D01*
X116897D01*
Y131748D01*
X116998D01*
X117049Y131799D02*
Y131748D01*
X117151D01*
Y131799D01*
X117202D01*
Y131901D01*
X117151D01*
Y131952D01*
X117049D01*
Y131901D01*
X116998D01*
Y131799D01*
X117049D01*
X137125Y131798D02*
Y131697D01*
X137328D01*
Y131798D01*
X137430D01*
Y132002D01*
X137328D01*
Y132103D01*
X137125D01*
Y132002D01*
X137024D01*
Y131798D01*
X137125D01*
X137176Y131849D02*
Y131798D01*
X137278D01*
Y131849D01*
X137328D01*
Y131951D01*
X137278D01*
Y132002D01*
X137176D01*
Y131951D01*
X137125D01*
Y131849D01*
X137176D01*
X137125Y132915D02*
Y132813D01*
X137328D01*
Y132915D01*
X137430D01*
Y133118D01*
X137328D01*
Y133220D01*
X137125D01*
Y133118D01*
X137024D01*
Y132915D01*
X137125D01*
X137176Y132966D02*
Y132915D01*
X137278D01*
Y132966D01*
X137328D01*
Y133067D01*
X137278D01*
Y133118D01*
X137176D01*
Y133067D01*
X137125D01*
Y132966D01*
X137176D01*
X137125Y134032D02*
Y133930D01*
X137328D01*
Y134032D01*
X137430D01*
Y134235D01*
X137328D01*
Y134337D01*
X137125D01*
Y134235D01*
X137024D01*
Y134032D01*
X137125D01*
X137176Y134083D02*
Y134032D01*
X137278D01*
Y134083D01*
X137328D01*
Y134184D01*
X137278D01*
Y134235D01*
X137176D01*
Y134184D01*
X137125D01*
Y134083D01*
X137176D01*
X137125Y135148D02*
Y135047D01*
X137328D01*
Y135148D01*
X137430D01*
Y135352D01*
X137328D01*
Y135453D01*
X137125D01*
Y135352D01*
X137024D01*
Y135148D01*
X137125D01*
X137176Y135199D02*
Y135148D01*
X137278D01*
Y135199D01*
X137328D01*
Y135301D01*
X137278D01*
Y135352D01*
X137176D01*
Y135301D01*
X137125D01*
Y135199D01*
X137176D01*
X135781Y131815D02*
Y131713D01*
X135984D01*
Y131815D01*
X136086D01*
Y132018D01*
X135984D01*
Y132120D01*
X135781D01*
Y132018D01*
X135679D01*
Y131815D01*
X135781D01*
X135832Y131866D02*
Y131815D01*
X135933D01*
Y131866D01*
X135984D01*
Y131967D01*
X135933D01*
Y132018D01*
X135832D01*
Y131967D01*
X135781D01*
Y131866D01*
X135832D01*
X135781Y132932D02*
Y132830D01*
X135984D01*
Y132932D01*
X136086D01*
Y133135D01*
X135984D01*
Y133237D01*
X135781D01*
Y133135D01*
X135679D01*
Y132932D01*
X135781D01*
X135832Y132983D02*
Y132932D01*
X135933D01*
Y132983D01*
X135984D01*
Y133084D01*
X135933D01*
Y133135D01*
X135832D01*
Y133084D01*
X135781D01*
Y132983D01*
X135832D01*
X135781Y134048D02*
Y133947D01*
X135984D01*
Y134048D01*
X136086D01*
Y134252D01*
X135984D01*
Y134353D01*
X135781D01*
Y134252D01*
X135679D01*
Y134048D01*
X135781D01*
X135832Y134099D02*
Y134048D01*
X135933D01*
Y134099D01*
X135984D01*
Y134201D01*
X135933D01*
Y134252D01*
X135832D01*
Y134201D01*
X135781D01*
Y134099D01*
X135832D01*
X135781Y135165D02*
Y135063D01*
X135984D01*
Y135165D01*
X136086D01*
Y135368D01*
X135984D01*
Y135470D01*
X135781D01*
Y135368D01*
X135679D01*
Y135165D01*
X135781D01*
X135832Y135216D02*
Y135165D01*
X135933D01*
Y135216D01*
X135984D01*
Y135317D01*
X135933D01*
Y135368D01*
X135832D01*
Y135317D01*
X135781D01*
Y135216D01*
X135832D01*
X118123Y131748D02*
Y131647D01*
X118327D01*
Y131748D01*
X118428D01*
Y131952D01*
X118327D01*
Y132053D01*
X118123D01*
Y131952D01*
X118022D01*
Y131748D01*
X118123D01*
X118174Y131799D02*
Y131748D01*
X118276D01*
Y131799D01*
X118327D01*
Y131901D01*
X118276D01*
Y131952D01*
X118174D01*
Y131901D01*
X118123D01*
Y131799D01*
X118174D01*
X118123Y132865D02*
Y132763D01*
X118327D01*
Y132865D01*
X118428D01*
Y133068D01*
X118327D01*
Y133170D01*
X118123D01*
Y133068D01*
X118022D01*
Y132865D01*
X118123D01*
X118174Y132916D02*
Y132865D01*
X118276D01*
Y132916D01*
X118327D01*
Y133017D01*
X118276D01*
Y133068D01*
X118174D01*
Y133017D01*
X118123D01*
Y132916D01*
X118174D01*
X118123Y133982D02*
Y133880D01*
X118327D01*
Y133982D01*
X118428D01*
Y134185D01*
X118327D01*
Y134287D01*
X118123D01*
Y134185D01*
X118022D01*
Y133982D01*
X118123D01*
X118174Y134033D02*
Y133982D01*
X118276D01*
Y134033D01*
X118327D01*
Y134134D01*
X118276D01*
Y134185D01*
X118174D01*
Y134134D01*
X118123D01*
Y134033D01*
X118174D01*
X118123Y135098D02*
Y134997D01*
X118327D01*
Y135098D01*
X118428D01*
Y135302D01*
X118327D01*
Y135403D01*
X118123D01*
Y135302D01*
X118022D01*
Y135098D01*
X118123D01*
X118174Y135149D02*
Y135098D01*
X118276D01*
Y135149D01*
X118327D01*
Y135251D01*
X118276D01*
Y135302D01*
X118174D01*
Y135251D01*
X118123D01*
Y135149D01*
X118174D01*
X119248Y131748D02*
Y131647D01*
X119452D01*
Y131748D01*
X119553D01*
Y131952D01*
X119452D01*
Y132053D01*
X119248D01*
Y131952D01*
X119147D01*
Y131748D01*
X119248D01*
X119299Y131799D02*
Y131748D01*
X119401D01*
Y131799D01*
X119452D01*
Y131901D01*
X119401D01*
Y131952D01*
X119299D01*
Y131901D01*
X119248D01*
Y131799D01*
X119299D01*
X119248Y132865D02*
Y132763D01*
X119452D01*
Y132865D01*
X119553D01*
Y133068D01*
X119452D01*
Y133170D01*
X119248D01*
Y133068D01*
X119147D01*
Y132865D01*
X119248D01*
X119299Y132916D02*
Y132865D01*
X119401D01*
Y132916D01*
X119452D01*
Y133017D01*
X119401D01*
Y133068D01*
X119299D01*
Y133017D01*
X119248D01*
Y132916D01*
X119299D01*
X119248Y133982D02*
Y133880D01*
X119452D01*
Y133982D01*
X119553D01*
Y134185D01*
X119452D01*
Y134287D01*
X119248D01*
Y134185D01*
X119147D01*
Y133982D01*
X119248D01*
X119299Y134033D02*
Y133982D01*
X119401D01*
Y134033D01*
X119452D01*
Y134134D01*
X119401D01*
Y134185D01*
X119299D01*
Y134134D01*
X119248D01*
Y134033D01*
X119299D01*
X119248Y135098D02*
Y134997D01*
X119452D01*
Y135098D01*
X119553D01*
Y135302D01*
X119452D01*
Y135403D01*
X119248D01*
Y135302D01*
X119147D01*
Y135098D01*
X119248D01*
X119299Y135149D02*
Y135098D01*
X119401D01*
Y135149D01*
X119452D01*
Y135251D01*
X119401D01*
Y135302D01*
X119299D01*
Y135251D01*
X119248D01*
Y135149D01*
X119299D01*
X134437Y135165D02*
Y135063D01*
X134640D01*
Y135165D01*
X134742D01*
Y135368D01*
X134640D01*
Y135470D01*
X134437D01*
Y135368D01*
X134335D01*
Y135165D01*
X134437D01*
X134488Y135216D02*
Y135165D01*
X134589D01*
Y135216D01*
X134640D01*
Y135317D01*
X134589D01*
Y135368D01*
X134488D01*
Y135317D01*
X134437D01*
Y135216D01*
X134488D01*
X134437Y134048D02*
Y133947D01*
X134640D01*
Y134048D01*
X134742D01*
Y134252D01*
X134640D01*
Y134353D01*
X134437D01*
Y134252D01*
X134335D01*
Y134048D01*
X134437D01*
X134488Y134099D02*
Y134048D01*
X134589D01*
Y134099D01*
X134640D01*
Y134201D01*
X134589D01*
Y134252D01*
X134488D01*
Y134201D01*
X134437D01*
Y134099D01*
X134488D01*
X134437Y132932D02*
Y132830D01*
X134640D01*
Y132932D01*
X134742D01*
Y133135D01*
X134640D01*
Y133237D01*
X134437D01*
Y133135D01*
X134335D01*
Y132932D01*
X134437D01*
X134488Y132983D02*
Y132932D01*
X134589D01*
Y132983D01*
X134640D01*
Y133084D01*
X134589D01*
Y133135D01*
X134488D01*
Y133084D01*
X134437D01*
Y132983D01*
X134488D01*
X134437Y131815D02*
Y131713D01*
X134640D01*
Y131815D01*
X134742D01*
Y132018D01*
X134640D01*
Y132120D01*
X134437D01*
Y132018D01*
X134335D01*
Y131815D01*
X134437D01*
X134488Y131866D02*
Y131815D01*
X134589D01*
Y131866D01*
X134640D01*
Y131967D01*
X134589D01*
Y132018D01*
X134488D01*
Y131967D01*
X134437D01*
Y131866D01*
X134488D01*
X133093Y135148D02*
Y135047D01*
X133296D01*
Y135148D01*
X133397D01*
Y135352D01*
X133296D01*
Y135453D01*
X133093D01*
Y135352D01*
X132991D01*
Y135148D01*
X133093D01*
X133143Y135199D02*
Y135148D01*
X133245D01*
Y135199D01*
X133296D01*
Y135301D01*
X133245D01*
Y135352D01*
X133143D01*
Y135301D01*
X133093D01*
Y135199D01*
X133143D01*
X133093Y134032D02*
Y133930D01*
X133296D01*
Y134032D01*
X133397D01*
Y134235D01*
X133296D01*
Y134337D01*
X133093D01*
Y134235D01*
X132991D01*
Y134032D01*
X133093D01*
X133143Y134083D02*
Y134032D01*
X133245D01*
Y134083D01*
X133296D01*
Y134184D01*
X133245D01*
Y134235D01*
X133143D01*
Y134184D01*
X133093D01*
Y134083D01*
X133143D01*
X133093Y132915D02*
Y132813D01*
X133296D01*
Y132915D01*
X133397D01*
Y133118D01*
X133296D01*
Y133220D01*
X133093D01*
Y133118D01*
X132991D01*
Y132915D01*
X133093D01*
X133143Y132966D02*
Y132915D01*
X133245D01*
Y132966D01*
X133296D01*
Y133067D01*
X133245D01*
Y133118D01*
X133143D01*
Y133067D01*
X133093D01*
Y132966D01*
X133143D01*
X133093Y131798D02*
Y131697D01*
X133296D01*
Y131798D01*
X133397D01*
Y132002D01*
X133296D01*
Y132103D01*
X133093D01*
Y132002D01*
X132991D01*
Y131798D01*
X133093D01*
X133143Y131849D02*
Y131798D01*
X133245D01*
Y131849D01*
X133296D01*
Y131951D01*
X133245D01*
Y132002D01*
X133143D01*
Y131951D01*
X133093D01*
Y131849D01*
X133143D01*
X131748Y131798D02*
Y131697D01*
X131952D01*
Y131798D01*
X132053D01*
Y132002D01*
X131952D01*
Y132103D01*
X131748D01*
Y132002D01*
X131647D01*
Y131798D01*
X131748D01*
X131799Y131849D02*
Y131798D01*
X131901D01*
Y131849D01*
X131952D01*
Y131951D01*
X131901D01*
Y132002D01*
X131799D01*
Y131951D01*
X131748D01*
Y131849D01*
X131799D01*
X131748Y132915D02*
Y132813D01*
X131952D01*
Y132915D01*
X132053D01*
Y133118D01*
X131952D01*
Y133220D01*
X131748D01*
Y133118D01*
X131647D01*
Y132915D01*
X131748D01*
X131799Y132966D02*
Y132915D01*
X131901D01*
Y132966D01*
X131952D01*
Y133067D01*
X131901D01*
Y133118D01*
X131799D01*
Y133067D01*
X131748D01*
Y132966D01*
X131799D01*
X131748Y134032D02*
Y133930D01*
X131952D01*
Y134032D01*
X132053D01*
Y134235D01*
X131952D01*
Y134337D01*
X131748D01*
Y134235D01*
X131647D01*
Y134032D01*
X131748D01*
X131799Y134083D02*
Y134032D01*
X131901D01*
Y134083D01*
X131952D01*
Y134184D01*
X131901D01*
Y134235D01*
X131799D01*
Y134184D01*
X131748D01*
Y134083D01*
X131799D01*
X131748Y135148D02*
Y135047D01*
X131952D01*
Y135148D01*
X132053D01*
Y135352D01*
X131952D01*
Y135453D01*
X131748D01*
Y135352D01*
X131647D01*
Y135148D01*
X131748D01*
X131799Y135199D02*
Y135148D01*
X131901D01*
Y135199D01*
X131952D01*
Y135301D01*
X131901D01*
Y135352D01*
X131799D01*
Y135301D01*
X131748D01*
Y135199D01*
X131799D01*
X130798Y133498D02*
Y133397D01*
X131002D01*
Y133498D01*
X131103D01*
Y133702D01*
X131002D01*
Y133803D01*
X130798D01*
Y133702D01*
X130697D01*
Y133498D01*
X130798D01*
X130849Y133549D02*
Y133498D01*
X130951D01*
Y133549D01*
X131002D01*
Y133651D01*
X130951D01*
Y133702D01*
X130849D01*
Y133651D01*
X130798D01*
Y133549D01*
X130849D01*
X121048Y135098D02*
Y134997D01*
X121252D01*
Y135098D01*
X121353D01*
Y135302D01*
X121252D01*
Y135403D01*
X121048D01*
Y135302D01*
X120947D01*
Y135098D01*
X121048D01*
X121099Y135149D02*
Y135098D01*
X121201D01*
Y135149D01*
X121252D01*
Y135251D01*
X121201D01*
Y135302D01*
X121099D01*
Y135251D01*
X121048D01*
Y135149D01*
X121099D01*
X121048Y133982D02*
Y133880D01*
X121252D01*
Y133982D01*
X121353D01*
Y134185D01*
X121252D01*
Y134287D01*
X121048D01*
Y134185D01*
X120947D01*
Y133982D01*
X121048D01*
X121099Y134033D02*
Y133982D01*
X121201D01*
Y134033D01*
X121252D01*
Y134134D01*
X121201D01*
Y134185D01*
X121099D01*
Y134134D01*
X121048D01*
Y134033D01*
X121099D01*
X121048Y132865D02*
Y132763D01*
X121252D01*
Y132865D01*
X121353D01*
Y133068D01*
X121252D01*
Y133170D01*
X121048D01*
Y133068D01*
X120947D01*
Y132865D01*
X121048D01*
X121099Y132916D02*
Y132865D01*
X121201D01*
Y132916D01*
X121252D01*
Y133017D01*
X121201D01*
Y133068D01*
X121099D01*
Y133017D01*
X121048D01*
Y132916D01*
X121099D01*
X121098Y131748D02*
Y131647D01*
X121302D01*
Y131748D01*
X121403D01*
Y131952D01*
X121302D01*
Y132053D01*
X121098D01*
Y131952D01*
X120997D01*
Y131748D01*
X121098D01*
X121149Y131799D02*
Y131748D01*
X121251D01*
Y131799D01*
X121302D01*
Y131901D01*
X121251D01*
Y131952D01*
X121149D01*
Y131901D01*
X121098D01*
Y131799D01*
X121149D01*
X122148Y133398D02*
Y133297D01*
X122352D01*
Y133398D01*
X122453D01*
Y133602D01*
X122352D01*
Y133703D01*
X122148D01*
Y133602D01*
X122047D01*
Y133398D01*
X122148D01*
X122199Y133449D02*
Y133398D01*
X122301D01*
Y133449D01*
X122352D01*
Y133551D01*
X122301D01*
Y133602D01*
X122199D01*
Y133551D01*
X122148D01*
Y133449D01*
X122199D01*
X174448Y135998D02*
Y135897D01*
X174652D01*
Y135998D01*
X174753D01*
Y136202D01*
X174652D01*
Y136303D01*
X174448D01*
Y136202D01*
X174347D01*
Y135998D01*
X174448D01*
X174499Y136049D02*
Y135998D01*
X174601D01*
Y136049D01*
X174652D01*
Y136151D01*
X174601D01*
Y136202D01*
X174499D01*
Y136151D01*
X174448D01*
Y136049D01*
X174499D01*
X174448Y137115D02*
Y137013D01*
X174652D01*
Y137115D01*
X174753D01*
Y137318D01*
X174652D01*
Y137420D01*
X174448D01*
Y137318D01*
X174347D01*
Y137115D01*
X174448D01*
X174499Y137166D02*
Y137115D01*
X174601D01*
Y137166D01*
X174652D01*
Y137267D01*
X174601D01*
Y137318D01*
X174499D01*
Y137267D01*
X174448D01*
Y137166D01*
X174499D01*
X174448Y138232D02*
Y138130D01*
X174652D01*
Y138232D01*
X174753D01*
Y138435D01*
X174652D01*
Y138537D01*
X174448D01*
Y138435D01*
X174347D01*
Y138232D01*
X174448D01*
X174499Y138283D02*
Y138232D01*
X174601D01*
Y138283D01*
X174652D01*
Y138384D01*
X174601D01*
Y138435D01*
X174499D01*
Y138384D01*
X174448D01*
Y138283D01*
X174499D01*
X174448Y139348D02*
Y139247D01*
X174652D01*
Y139348D01*
X174753D01*
Y139552D01*
X174652D01*
Y139653D01*
X174448D01*
Y139552D01*
X174347D01*
Y139348D01*
X174448D01*
X174499Y139399D02*
Y139348D01*
X174601D01*
Y139399D01*
X174652D01*
Y139501D01*
X174601D01*
Y139552D01*
X174499D01*
Y139501D01*
X174448D01*
Y139399D01*
X174499D01*
X173498Y137698D02*
Y137597D01*
X173702D01*
Y137698D01*
X173803D01*
Y137902D01*
X173702D01*
Y138003D01*
X173498D01*
Y137902D01*
X173397D01*
Y137698D01*
X173498D01*
X173549Y137749D02*
Y137698D01*
X173651D01*
Y137749D01*
X173702D01*
Y137851D01*
X173651D01*
Y137902D01*
X173549D01*
Y137851D01*
X173498D01*
Y137749D01*
X173549D01*
X165398Y137748D02*
Y137647D01*
X165602D01*
Y137748D01*
X165703D01*
Y137952D01*
X165602D01*
Y138053D01*
X165398D01*
Y137952D01*
X165297D01*
Y137748D01*
X165398D01*
X165449Y137799D02*
Y137748D01*
X165551D01*
Y137799D01*
X165602D01*
Y137901D01*
X165551D01*
Y137952D01*
X165449D01*
Y137901D01*
X165398D01*
Y137799D01*
X165449D01*
X164448Y136098D02*
Y135997D01*
X164652D01*
Y136098D01*
X164753D01*
Y136302D01*
X164652D01*
Y136403D01*
X164448D01*
Y136302D01*
X164347D01*
Y136098D01*
X164448D01*
X164499Y136149D02*
Y136098D01*
X164601D01*
Y136149D01*
X164652D01*
Y136251D01*
X164601D01*
Y136302D01*
X164499D01*
Y136251D01*
X164448D01*
Y136149D01*
X164499D01*
X164448Y137215D02*
Y137113D01*
X164652D01*
Y137215D01*
X164753D01*
Y137418D01*
X164652D01*
Y137520D01*
X164448D01*
Y137418D01*
X164347D01*
Y137215D01*
X164448D01*
X164499Y137266D02*
Y137215D01*
X164601D01*
Y137266D01*
X164652D01*
Y137367D01*
X164601D01*
Y137418D01*
X164499D01*
Y137367D01*
X164448D01*
Y137266D01*
X164499D01*
X164448Y138332D02*
Y138230D01*
X164652D01*
Y138332D01*
X164753D01*
Y138535D01*
X164652D01*
Y138637D01*
X164448D01*
Y138535D01*
X164347D01*
Y138332D01*
X164448D01*
X164499Y138383D02*
Y138332D01*
X164601D01*
Y138383D01*
X164652D01*
Y138484D01*
X164601D01*
Y138535D01*
X164499D01*
Y138484D01*
X164448D01*
Y138383D01*
X164499D01*
X164448Y139448D02*
Y139347D01*
X164652D01*
Y139448D01*
X164753D01*
Y139652D01*
X164652D01*
Y139753D01*
X164448D01*
Y139652D01*
X164347D01*
Y139448D01*
X164448D01*
X164499Y139499D02*
Y139448D01*
X164601D01*
Y139499D01*
X164652D01*
Y139601D01*
X164601D01*
Y139652D01*
X164499D01*
Y139601D01*
X164448D01*
Y139499D01*
X164499D01*
X123547Y132747D02*
X123648D01*
X123750Y132848D01*
X123852Y132747D01*
X123953D01*
Y132848D01*
X123852Y132950D01*
X123953Y133052D01*
Y133153D01*
X123852D01*
X123750Y133052D01*
X123648Y133153D01*
X123547D01*
Y133052D01*
X123648Y132950D01*
X123547Y132848D01*
Y132747D01*
X123648Y132848D02*
X123699D01*
X123750Y132899D01*
X123801Y132848D01*
X123852D01*
Y132899D01*
X123801Y132950D01*
X123852Y133001D01*
Y133052D01*
X123801D01*
X123750Y133001D01*
X123699Y133052D01*
X123648D01*
Y133001D01*
X123699Y132950D01*
X123648Y132899D01*
Y132848D01*
X123547Y133847D02*
X123648D01*
X123750Y133948D01*
X123852Y133847D01*
X123953D01*
Y133948D01*
X123852Y134050D01*
X123953Y134152D01*
Y134253D01*
X123852D01*
X123750Y134152D01*
X123648Y134253D01*
X123547D01*
Y134152D01*
X123648Y134050D01*
X123547Y133948D01*
Y133847D01*
X123648Y133948D02*
X123699D01*
X123750Y133999D01*
X123801Y133948D01*
X123852D01*
Y133999D01*
X123801Y134050D01*
X123852Y134101D01*
Y134152D01*
X123801D01*
X123750Y134101D01*
X123699Y134152D01*
X123648D01*
Y134101D01*
X123699Y134050D01*
X123648Y133999D01*
Y133948D01*
X124647Y132747D02*
X124748D01*
X124850Y132848D01*
X124952Y132747D01*
X125053D01*
Y132848D01*
X124952Y132950D01*
X125053Y133052D01*
Y133153D01*
X124952D01*
X124850Y133052D01*
X124748Y133153D01*
X124647D01*
Y133052D01*
X124748Y132950D01*
X124647Y132848D01*
Y132747D01*
X124748Y132848D02*
X124799D01*
X124850Y132899D01*
X124901Y132848D01*
X124952D01*
Y132899D01*
X124901Y132950D01*
X124952Y133001D01*
Y133052D01*
X124901D01*
X124850Y133001D01*
X124799Y133052D01*
X124748D01*
Y133001D01*
X124799Y132950D01*
X124748Y132899D01*
Y132848D01*
X124647Y133847D02*
X124748D01*
X124850Y133948D01*
X124952Y133847D01*
X125053D01*
Y133948D01*
X124952Y134050D01*
X125053Y134152D01*
Y134253D01*
X124952D01*
X124850Y134152D01*
X124748Y134253D01*
X124647D01*
Y134152D01*
X124748Y134050D01*
X124647Y133948D01*
Y133847D01*
X124748Y133948D02*
X124799D01*
X124850Y133999D01*
X124901Y133948D01*
X124952D01*
Y133999D01*
X124901Y134050D01*
X124952Y134101D01*
Y134152D01*
X124901D01*
X124850Y134101D01*
X124799Y134152D01*
X124748D01*
Y134101D01*
X124799Y134050D01*
X124748Y133999D01*
Y133948D01*
X125747Y132747D02*
X125848D01*
X125950Y132848D01*
X126052Y132747D01*
X126153D01*
Y132848D01*
X126052Y132950D01*
X126153Y133052D01*
Y133153D01*
X126052D01*
X125950Y133052D01*
X125848Y133153D01*
X125747D01*
Y133052D01*
X125848Y132950D01*
X125747Y132848D01*
Y132747D01*
X125848Y132848D02*
X125899D01*
X125950Y132899D01*
X126001Y132848D01*
X126052D01*
Y132899D01*
X126001Y132950D01*
X126052Y133001D01*
Y133052D01*
X126001D01*
X125950Y133001D01*
X125899Y133052D01*
X125848D01*
Y133001D01*
X125899Y132950D01*
X125848Y132899D01*
Y132848D01*
X125747Y133847D02*
X125848D01*
X125950Y133948D01*
X126052Y133847D01*
X126153D01*
Y133948D01*
X126052Y134050D01*
X126153Y134152D01*
Y134253D01*
X126052D01*
X125950Y134152D01*
X125848Y134253D01*
X125747D01*
Y134152D01*
X125848Y134050D01*
X125747Y133948D01*
Y133847D01*
X125848Y133948D02*
X125899D01*
X125950Y133999D01*
X126001Y133948D01*
X126052D01*
Y133999D01*
X126001Y134050D01*
X126052Y134101D01*
Y134152D01*
X126001D01*
X125950Y134101D01*
X125899Y134152D01*
X125848D01*
Y134101D01*
X125899Y134050D01*
X125848Y133999D01*
Y133948D01*
X126847Y132747D02*
X126948D01*
X127050Y132848D01*
X127152Y132747D01*
X127253D01*
Y132848D01*
X127152Y132950D01*
X127253Y133052D01*
Y133153D01*
X127152D01*
X127050Y133052D01*
X126948Y133153D01*
X126847D01*
Y133052D01*
X126948Y132950D01*
X126847Y132848D01*
Y132747D01*
X126948Y132848D02*
X126999D01*
X127050Y132899D01*
X127101Y132848D01*
X127152D01*
Y132899D01*
X127101Y132950D01*
X127152Y133001D01*
Y133052D01*
X127101D01*
X127050Y133001D01*
X126999Y133052D01*
X126948D01*
Y133001D01*
X126999Y132950D01*
X126948Y132899D01*
Y132848D01*
X126847Y133847D02*
X126948D01*
X127050Y133948D01*
X127152Y133847D01*
X127253D01*
Y133948D01*
X127152Y134050D01*
X127253Y134152D01*
Y134253D01*
X127152D01*
X127050Y134152D01*
X126948Y134253D01*
X126847D01*
Y134152D01*
X126948Y134050D01*
X126847Y133948D01*
Y133847D01*
X126948Y133948D02*
X126999D01*
X127050Y133999D01*
X127101Y133948D01*
X127152D01*
Y133999D01*
X127101Y134050D01*
X127152Y134101D01*
Y134152D01*
X127101D01*
X127050Y134101D01*
X126999Y134152D01*
X126948D01*
Y134101D01*
X126999Y134050D01*
X126948Y133999D01*
Y133948D01*
X127947Y133847D02*
X128048D01*
X128150Y133948D01*
X128252Y133847D01*
X128353D01*
Y133948D01*
X128252Y134050D01*
X128353Y134152D01*
Y134253D01*
X128252D01*
X128150Y134152D01*
X128048Y134253D01*
X127947D01*
Y134152D01*
X128048Y134050D01*
X127947Y133948D01*
Y133847D01*
X128048Y133948D02*
X128099D01*
X128150Y133999D01*
X128201Y133948D01*
X128252D01*
Y133999D01*
X128201Y134050D01*
X128252Y134101D01*
Y134152D01*
X128201D01*
X128150Y134101D01*
X128099Y134152D01*
X128048D01*
Y134101D01*
X128099Y134050D01*
X128048Y133999D01*
Y133948D01*
X129047Y133847D02*
X129148D01*
X129250Y133948D01*
X129352Y133847D01*
X129453D01*
Y133948D01*
X129352Y134050D01*
X129453Y134152D01*
Y134253D01*
X129352D01*
X129250Y134152D01*
X129148Y134253D01*
X129047D01*
Y134152D01*
X129148Y134050D01*
X129047Y133948D01*
Y133847D01*
X129148Y133948D02*
X129199D01*
X129250Y133999D01*
X129301Y133948D01*
X129352D01*
Y133999D01*
X129301Y134050D01*
X129352Y134101D01*
Y134152D01*
X129301D01*
X129250Y134101D01*
X129199Y134152D01*
X129148D01*
Y134101D01*
X129199Y134050D01*
X129148Y133999D01*
Y133948D01*
X127947Y132747D02*
X128048D01*
X128150Y132848D01*
X128252Y132747D01*
X128353D01*
Y132848D01*
X128252Y132950D01*
X128353Y133052D01*
Y133153D01*
X128252D01*
X128150Y133052D01*
X128048Y133153D01*
X127947D01*
Y133052D01*
X128048Y132950D01*
X127947Y132848D01*
Y132747D01*
X128048Y132848D02*
X128099D01*
X128150Y132899D01*
X128201Y132848D01*
X128252D01*
Y132899D01*
X128201Y132950D01*
X128252Y133001D01*
Y133052D01*
X128201D01*
X128150Y133001D01*
X128099Y133052D01*
X128048D01*
Y133001D01*
X128099Y132950D01*
X128048Y132899D01*
Y132848D01*
X129047Y132747D02*
X129148D01*
X129250Y132848D01*
X129352Y132747D01*
X129453D01*
Y132848D01*
X129352Y132950D01*
X129453Y133052D01*
Y133153D01*
X129352D01*
X129250Y133052D01*
X129148Y133153D01*
X129047D01*
Y133052D01*
X129148Y132950D01*
X129047Y132848D01*
Y132747D01*
X129148Y132848D02*
X129199D01*
X129250Y132899D01*
X129301Y132848D01*
X129352D01*
Y132899D01*
X129301Y132950D01*
X129352Y133001D01*
Y133052D01*
X129301D01*
X129250Y133001D01*
X129199Y133052D01*
X129148D01*
Y133001D01*
X129199Y132950D01*
X129148Y132899D01*
Y132848D01*
X171950Y142650D02*
Y142988D01*
X172119Y143158D01*
X172288Y142988D01*
Y142650D01*
Y142904D01*
X171950D01*
X92850Y75398D02*
Y74890D01*
X93104D01*
X93189Y74975D01*
Y75059D01*
X93104Y75144D01*
X92850D01*
X93104D01*
X93189Y75229D01*
Y75313D01*
X93104Y75398D01*
X92850D01*
X176900Y129800D02*
Y130139D01*
X177069Y130308D01*
X177239Y130139D01*
Y129800D01*
Y130054D01*
X176900D01*
X192400Y148050D02*
Y148389D01*
X192569Y148558D01*
X192739Y148389D01*
Y148050D01*
Y148304D01*
X192400D01*
X159150Y90300D02*
Y90639D01*
X159319Y90808D01*
X159489Y90639D01*
Y90300D01*
Y90554D01*
X159150D01*
X158350Y91000D02*
Y91339D01*
X158519Y91508D01*
X158689Y91339D01*
Y91000D01*
Y91254D01*
X158350D01*
X157550Y91700D02*
Y92039D01*
X157719Y92208D01*
X157889Y92039D01*
Y91700D01*
Y91954D01*
X157550D01*
X156770Y92700D02*
Y93039D01*
X156939Y93208D01*
X157109Y93039D01*
Y92700D01*
Y92954D01*
X156770D01*
X155000Y91250D02*
Y91589D01*
X155169Y91758D01*
X155339Y91589D01*
Y91250D01*
Y91504D01*
X155000D01*
X155700Y92100D02*
Y92438D01*
X155869Y92608D01*
X156038Y92438D01*
Y92100D01*
Y92354D01*
X155700D01*
X187339Y82823D02*
X187254Y82908D01*
X187085D01*
X187000Y82823D01*
Y82485D01*
X187085Y82400D01*
X187254D01*
X187339Y82485D01*
X161100Y146900D02*
Y147238D01*
X161269Y147408D01*
X161438Y147238D01*
Y146900D01*
Y147154D01*
X161100D01*
X141500Y145300D02*
Y145639D01*
X141669Y145808D01*
X141839Y145639D01*
Y145300D01*
Y145554D01*
X141500D01*
X162000Y146250D02*
Y146589D01*
X162169Y146758D01*
X162339Y146589D01*
Y146250D01*
Y146504D01*
X162000D01*
X140500Y144129D02*
Y144468D01*
X140669Y144637D01*
X140839Y144468D01*
Y144129D01*
Y144383D01*
X140500D01*
X175750Y131250D02*
Y131589D01*
X175919Y131758D01*
X176089Y131589D01*
Y131250D01*
Y131504D01*
X175750D01*
X90300Y127900D02*
Y128239D01*
X90469Y128408D01*
X90639Y128239D01*
Y127900D01*
Y128154D01*
X90300D01*
X175000Y132100D02*
Y132438D01*
X175169Y132608D01*
X175338Y132438D01*
Y132100D01*
Y132354D01*
X175000D01*
X181900Y132427D02*
Y132766D01*
X182069Y132935D01*
X182239Y132766D01*
Y132427D01*
Y132681D01*
X181900D01*
X182950Y133350D02*
Y133689D01*
X183119Y133858D01*
X183289Y133689D01*
Y133350D01*
Y133604D01*
X182950D01*
X142748Y117848D02*
Y117747D01*
X142951D01*
Y117848D01*
X143053D01*
Y118051D01*
X142951D01*
Y118153D01*
X142748D01*
Y118051D01*
X142647D01*
Y117848D01*
X142748D01*
X142799Y117899D02*
Y117848D01*
X142901D01*
Y117899D01*
X142951D01*
Y118001D01*
X142901D01*
Y118051D01*
X142799D01*
Y118001D01*
X142748D01*
Y117899D01*
X142799D01*
X142300Y117000D02*
Y117339D01*
X142469Y117508D01*
X142639Y117339D01*
Y117000D01*
Y117254D01*
X142300D01*
X141948Y115848D02*
Y115747D01*
X142152D01*
Y115848D01*
X142253D01*
Y116052D01*
X142152D01*
Y116153D01*
X141948D01*
Y116052D01*
X141847D01*
Y115848D01*
X141948D01*
X141999Y115899D02*
Y115848D01*
X142101D01*
Y115899D01*
X142152D01*
Y116001D01*
X142101D01*
Y116052D01*
X141999D01*
Y116001D01*
X141948D01*
Y115899D01*
X141999D01*
X168700Y130700D02*
Y131038D01*
X168869Y131208D01*
X169038Y131038D01*
Y130700D01*
Y130954D01*
X168700D01*
X167750Y132700D02*
Y133039D01*
X167919Y133208D01*
X168088Y133039D01*
Y132700D01*
Y132954D01*
X167750D01*
X174750Y135000D02*
Y135339D01*
X174919Y135508D01*
X175089Y135339D01*
Y135000D01*
Y135254D01*
X174750D01*
X169672Y143147D02*
X169773D01*
X169875Y143248D01*
X169977Y143147D01*
X170078D01*
Y143248D01*
X169977Y143350D01*
X170078Y143452D01*
Y143553D01*
X169977D01*
X169875Y143452D01*
X169773Y143553D01*
X169672D01*
Y143452D01*
X169773Y143350D01*
X169672Y143248D01*
Y143147D01*
X169773Y143248D02*
X169824D01*
X169875Y143299D01*
X169926Y143248D01*
X169977D01*
Y143299D01*
X169926Y143350D01*
X169977Y143401D01*
Y143452D01*
X169926D01*
X169875Y143401D01*
X169824Y143452D01*
X169773D01*
Y143401D01*
X169824Y143350D01*
X169773Y143299D01*
Y143248D01*
X164250Y134750D02*
Y135089D01*
X164419Y135258D01*
X164589Y135089D01*
Y134750D01*
Y135004D01*
X164250D01*
X172100Y132427D02*
Y132766D01*
X172269Y132935D01*
X172439Y132766D01*
Y132427D01*
Y132681D01*
X172100D01*
X171200Y133000D02*
Y133338D01*
X171369Y133508D01*
X171538Y133338D01*
Y133000D01*
Y133254D01*
X171200D01*
X173750Y142875D02*
Y143214D01*
X173919Y143383D01*
X174089Y143214D01*
Y142875D01*
Y143129D01*
X173750D01*
X174975Y140773D02*
Y141112D01*
X175144Y141281D01*
X175314Y141112D01*
Y140773D01*
Y141027D01*
X174975D01*
X166200Y133000D02*
Y133338D01*
X166369Y133508D01*
X166538Y133338D01*
Y133000D01*
Y133254D01*
X166200D01*
X167722Y142297D02*
X167823D01*
X167925Y142398D01*
X168027Y142297D01*
X168128D01*
Y142398D01*
X168027Y142500D01*
X168128Y142602D01*
Y142703D01*
X168027D01*
X167925Y142602D01*
X167823Y142703D01*
X167722D01*
Y142602D01*
X167823Y142500D01*
X167722Y142398D01*
Y142297D01*
X167823Y142398D02*
X167874D01*
X167925Y142449D01*
X167976Y142398D01*
X168027D01*
Y142449D01*
X167976Y142500D01*
X168027Y142551D01*
Y142602D01*
X167976D01*
X167925Y142551D01*
X167874Y142602D01*
X167823D01*
Y142551D01*
X167874Y142500D01*
X167823Y142449D01*
Y142398D01*
X169672Y142297D02*
X169773D01*
X169875Y142398D01*
X169977Y142297D01*
X170078D01*
Y142398D01*
X169977Y142500D01*
X170078Y142602D01*
Y142703D01*
X169977D01*
X169875Y142602D01*
X169773Y142703D01*
X169672D01*
Y142602D01*
X169773Y142500D01*
X169672Y142398D01*
Y142297D01*
X169773Y142398D02*
X169824D01*
X169875Y142449D01*
X169926Y142398D01*
X169977D01*
Y142449D01*
X169926Y142500D01*
X169977Y142551D01*
Y142602D01*
X169926D01*
X169875Y142551D01*
X169824Y142602D01*
X169773D01*
Y142551D01*
X169824Y142500D01*
X169773Y142449D01*
Y142398D01*
X139000Y80997D02*
X138797Y81403D01*
X139203D01*
X139000Y80997D01*
Y81098D02*
X138898Y81302D01*
X139102D01*
X139000Y81098D01*
X145100Y81500D02*
Y81839D01*
X145269Y82008D01*
X145439Y81839D01*
Y81500D01*
Y81754D01*
X145100D01*
X53798Y116348D02*
Y116247D01*
X54002D01*
Y116348D01*
X54103D01*
Y116552D01*
X54002D01*
Y116653D01*
X53798D01*
Y116552D01*
X53697D01*
Y116348D01*
X53798D01*
X53849Y116399D02*
Y116348D01*
X53951D01*
Y116399D01*
X54002D01*
Y116501D01*
X53951D01*
Y116552D01*
X53849D01*
Y116501D01*
X53798D01*
Y116399D01*
X53849D01*
X53100Y126100D02*
Y126439D01*
X53269Y126608D01*
X53439Y126439D01*
Y126100D01*
Y126354D01*
X53100D01*
X53198Y127550D02*
Y127448D01*
X53402D01*
Y127550D01*
X53503D01*
Y127753D01*
X53402D01*
Y127855D01*
X53198D01*
Y127753D01*
X53097D01*
Y127550D01*
X53198D01*
X53249Y127601D02*
Y127550D01*
X53351D01*
Y127601D01*
X53402D01*
Y127702D01*
X53351D01*
Y127753D01*
X53249D01*
Y127702D01*
X53198D01*
Y127601D01*
X53249D01*
X95898Y117698D02*
Y117597D01*
X96102D01*
Y117698D01*
X96203D01*
Y117902D01*
X96102D01*
Y118003D01*
X95898D01*
Y117902D01*
X95797D01*
Y117698D01*
X95898D01*
X95949Y117749D02*
Y117698D01*
X96051D01*
Y117749D01*
X96102D01*
Y117851D01*
X96051D01*
Y117902D01*
X95949D01*
Y117851D01*
X95898D01*
Y117749D01*
X95949D01*
X90698Y115698D02*
Y115597D01*
X90902D01*
Y115698D01*
X91003D01*
Y115902D01*
X90902D01*
Y116003D01*
X90698D01*
Y115902D01*
X90597D01*
Y115698D01*
X90698D01*
X90749Y115749D02*
Y115698D01*
X90851D01*
Y115749D01*
X90902D01*
Y115851D01*
X90851D01*
Y115902D01*
X90749D01*
Y115851D01*
X90698D01*
Y115749D01*
X90749D01*
X95648Y119048D02*
Y118947D01*
X95852D01*
Y119048D01*
X95953D01*
Y119252D01*
X95852D01*
Y119353D01*
X95648D01*
Y119252D01*
X95547D01*
Y119048D01*
X95648D01*
X95699Y119099D02*
Y119048D01*
X95801D01*
Y119099D01*
X95852D01*
Y119201D01*
X95801D01*
Y119252D01*
X95699D01*
Y119201D01*
X95648D01*
Y119099D01*
X95699D01*
X95448Y120348D02*
Y120247D01*
X95652D01*
Y120348D01*
X95753D01*
Y120552D01*
X95652D01*
Y120653D01*
X95448D01*
Y120552D01*
X95347D01*
Y120348D01*
X95448D01*
X95499Y120399D02*
Y120348D01*
X95601D01*
Y120399D01*
X95652D01*
Y120501D01*
X95601D01*
Y120552D01*
X95499D01*
Y120501D01*
X95448D01*
Y120399D01*
X95499D01*
X90698Y117698D02*
Y117597D01*
X90902D01*
Y117698D01*
X91003D01*
Y117902D01*
X90902D01*
Y118003D01*
X90698D01*
Y117902D01*
X90597D01*
Y117698D01*
X90698D01*
X90749Y117749D02*
Y117698D01*
X90851D01*
Y117749D01*
X90902D01*
Y117851D01*
X90851D01*
Y117902D01*
X90749D01*
Y117851D01*
X90698D01*
Y117749D01*
X90749D01*
X72898Y122048D02*
Y121947D01*
X73102D01*
Y122048D01*
X73203D01*
Y122252D01*
X73102D01*
Y122353D01*
X72898D01*
Y122252D01*
X72797D01*
Y122048D01*
X72898D01*
X72949Y122099D02*
Y122048D01*
X73051D01*
Y122099D01*
X73102D01*
Y122201D01*
X73051D01*
Y122252D01*
X72949D01*
Y122201D01*
X72898D01*
Y122099D01*
X72949D01*
X71298Y123598D02*
Y123497D01*
X71502D01*
Y123598D01*
X71603D01*
Y123802D01*
X71502D01*
Y123903D01*
X71298D01*
Y123802D01*
X71197D01*
Y123598D01*
X71298D01*
X71349Y123649D02*
Y123598D01*
X71451D01*
Y123649D01*
X71502D01*
Y123751D01*
X71451D01*
Y123802D01*
X71349D01*
Y123751D01*
X71298D01*
Y123649D01*
X71349D01*
X72098Y122798D02*
Y122697D01*
X72302D01*
Y122798D01*
X72403D01*
Y123002D01*
X72302D01*
Y123103D01*
X72098D01*
Y123002D01*
X71997D01*
Y122798D01*
X72098D01*
X72149Y122849D02*
Y122798D01*
X72251D01*
Y122849D01*
X72302D01*
Y122951D01*
X72251D01*
Y123002D01*
X72149D01*
Y122951D01*
X72098D01*
Y122849D01*
X72149D01*
X81650Y119240D02*
Y119579D01*
X81819Y119748D01*
X81989Y119579D01*
Y119240D01*
Y119494D01*
X81650D01*
X92000Y107400D02*
Y107739D01*
X92169Y107908D01*
X92339Y107739D01*
Y107400D01*
Y107654D01*
X92000D01*
X113298Y101298D02*
Y101197D01*
X113502D01*
Y101298D01*
X113603D01*
Y101502D01*
X113502D01*
Y101603D01*
X113298D01*
Y101502D01*
X113197D01*
Y101298D01*
X113298D01*
X113349Y101349D02*
Y101298D01*
X113451D01*
Y101349D01*
X113502D01*
Y101451D01*
X113451D01*
Y101502D01*
X113349D01*
Y101451D01*
X113298D01*
Y101349D01*
X113349D01*
X177750Y73225D02*
Y73564D01*
X177919Y73733D01*
X178089Y73564D01*
Y73225D01*
Y73479D01*
X177750D01*
X70833Y112669D02*
Y113007D01*
X71002Y113176D01*
X71171Y113007D01*
Y112669D01*
Y112923D01*
X70833D01*
X176925Y74000D02*
Y74339D01*
X177094Y74508D01*
X177264Y74339D01*
Y74000D01*
Y74254D01*
X176925D01*
X71181Y111669D02*
Y112007D01*
X71351Y112176D01*
X71520Y112007D01*
Y111669D01*
Y111923D01*
X71181D01*
X178700Y71250D02*
Y71589D01*
X178869Y71758D01*
X179039Y71589D01*
Y71250D01*
Y71504D01*
X178700D01*
X176169Y74890D02*
Y75229D01*
X176339Y75398D01*
X176508Y75229D01*
Y74890D01*
Y75144D01*
X176169D01*
X172700Y74800D02*
Y75139D01*
X172869Y75308D01*
X173039Y75139D01*
Y74800D01*
Y75054D01*
X172700D01*
X171900Y73900D02*
Y74239D01*
X172069Y74408D01*
X172239Y74239D01*
Y73900D01*
Y74154D01*
X171900D01*
X88750Y127620D02*
Y127959D01*
X88919Y128128D01*
X89089Y127959D01*
Y127620D01*
Y127874D01*
X88750D01*
X95500Y109500D02*
Y109839D01*
X95669Y110008D01*
X95839Y109839D01*
Y109500D01*
Y109754D01*
X95500D01*
X159700Y66300D02*
Y66639D01*
X159869Y66808D01*
X160039Y66639D01*
Y66300D01*
Y66554D01*
X159700D01*
X158700Y67100D02*
Y67439D01*
X158869Y67608D01*
X159039Y67439D01*
Y67100D01*
Y67354D01*
X158700D01*
X60950Y127300D02*
Y127639D01*
X61119Y127808D01*
X61288Y127639D01*
Y127300D01*
Y127554D01*
X60950D01*
X126798Y123298D02*
Y123197D01*
X127002D01*
Y123298D01*
X127103D01*
Y123502D01*
X127002D01*
Y123603D01*
X126798D01*
Y123502D01*
X126697D01*
Y123298D01*
X126798D01*
X126849Y123349D02*
Y123298D01*
X126951D01*
Y123349D01*
X127002D01*
Y123451D01*
X126951D01*
Y123502D01*
X126849D01*
Y123451D01*
X126798D01*
Y123349D01*
X126849D01*
X125297Y138097D02*
X125398D01*
X125500Y138198D01*
X125601Y138097D01*
X125703D01*
Y138198D01*
X125601Y138300D01*
X125703Y138401D01*
Y138503D01*
X125601D01*
X125500Y138401D01*
X125398Y138503D01*
X125297D01*
Y138401D01*
X125398Y138300D01*
X125297Y138198D01*
Y138097D01*
X125398Y138198D02*
X125449D01*
X125500Y138249D01*
X125551Y138198D01*
X125601D01*
Y138249D01*
X125551Y138300D01*
X125601Y138351D01*
Y138401D01*
X125551D01*
X125500Y138351D01*
X125449Y138401D01*
X125398D01*
Y138351D01*
X125449Y138300D01*
X125398Y138249D01*
Y138198D01*
X125322Y138797D02*
X125423D01*
X125525Y138898D01*
X125627Y138797D01*
X125728D01*
Y138898D01*
X125627Y139000D01*
X125728Y139102D01*
Y139203D01*
X125627D01*
X125525Y139102D01*
X125423Y139203D01*
X125322D01*
Y139102D01*
X125423Y139000D01*
X125322Y138898D01*
Y138797D01*
X125423Y138898D02*
X125474D01*
X125525Y138949D01*
X125576Y138898D01*
X125627D01*
Y138949D01*
X125576Y139000D01*
X125627Y139051D01*
Y139102D01*
X125576D01*
X125525Y139051D01*
X125474Y139102D01*
X125423D01*
Y139051D01*
X125474Y139000D01*
X125423Y138949D01*
Y138898D01*
X131898Y123548D02*
Y123447D01*
X132102D01*
Y123548D01*
X132203D01*
Y123752D01*
X132102D01*
Y123853D01*
X131898D01*
Y123752D01*
X131797D01*
Y123548D01*
X131898D01*
X131949Y123599D02*
Y123548D01*
X132051D01*
Y123599D01*
X132102D01*
Y123701D01*
X132051D01*
Y123752D01*
X131949D01*
Y123701D01*
X131898D01*
Y123599D01*
X131949D01*
X108875Y79750D02*
Y80089D01*
X109044Y80258D01*
X109214Y80089D01*
Y79750D01*
Y80004D01*
X108875D01*
X94500Y80000D02*
Y80339D01*
X94669Y80508D01*
X94839Y80339D01*
Y80000D01*
Y80254D01*
X94500D01*
X100952Y111252D02*
Y111150D01*
X101155D01*
Y111252D01*
X101257D01*
Y111455D01*
X101155D01*
Y111557D01*
X100952D01*
Y111455D01*
X100850D01*
Y111252D01*
X100952D01*
X101003Y111303D02*
Y111252D01*
X101104D01*
Y111303D01*
X101155D01*
Y111404D01*
X101104D01*
Y111455D01*
X101003D01*
Y111404D01*
X100952D01*
Y111303D01*
X101003D01*
X109395Y77605D02*
Y77944D01*
X109564Y78113D01*
X109734Y77944D01*
Y77605D01*
Y77859D01*
X109395D01*
X93500Y79400D02*
Y79738D01*
X93669Y79908D01*
X93838Y79738D01*
Y79400D01*
Y79654D01*
X93500D01*
X99598Y111148D02*
Y111047D01*
X99802D01*
Y111148D01*
X99903D01*
Y111352D01*
X99802D01*
Y111453D01*
X99598D01*
Y111352D01*
X99497D01*
Y111148D01*
X99598D01*
X99649Y111199D02*
Y111148D01*
X99751D01*
Y111199D01*
X99802D01*
Y111301D01*
X99751D01*
Y111352D01*
X99649D01*
Y111301D01*
X99598D01*
Y111199D01*
X99649D01*
X141900Y114700D02*
Y115039D01*
X142069Y115208D01*
X142239Y115039D01*
Y114700D01*
Y114954D01*
X141900D01*
X113398Y142998D02*
Y142897D01*
X113602D01*
Y142998D01*
X113703D01*
Y143202D01*
X113602D01*
Y143303D01*
X113398D01*
Y143202D01*
X113297D01*
Y142998D01*
X113398D01*
X113449Y143049D02*
Y142998D01*
X113551D01*
Y143049D01*
X113602D01*
Y143151D01*
X113551D01*
Y143202D01*
X113449D01*
Y143151D01*
X113398D01*
Y143049D01*
X113449D01*
X119600Y143200D02*
Y143539D01*
X119769Y143708D01*
X119939Y143539D01*
Y143200D01*
Y143454D01*
X119600D01*
X68398Y135148D02*
Y135047D01*
X68602D01*
Y135148D01*
X68703D01*
Y135352D01*
X68602D01*
Y135453D01*
X68398D01*
Y135352D01*
X68297D01*
Y135148D01*
X68398D01*
X68449Y135199D02*
Y135148D01*
X68551D01*
Y135199D01*
X68602D01*
Y135301D01*
X68551D01*
Y135352D01*
X68449D01*
Y135301D01*
X68398D01*
Y135199D01*
X68449D01*
X114248Y143798D02*
Y143697D01*
X114452D01*
Y143798D01*
X114553D01*
Y144002D01*
X114452D01*
Y144103D01*
X114248D01*
Y144002D01*
X114147D01*
Y143798D01*
X114248D01*
X114299Y143849D02*
Y143798D01*
X114401D01*
Y143849D01*
X114452D01*
Y143951D01*
X114401D01*
Y144002D01*
X114299D01*
Y143951D01*
X114248D01*
Y143849D01*
X114299D01*
X138498Y129498D02*
Y129397D01*
X138702D01*
Y129498D01*
X138803D01*
Y129702D01*
X138702D01*
Y129803D01*
X138498D01*
Y129702D01*
X138397D01*
Y129498D01*
X138498D01*
X138549Y129549D02*
Y129498D01*
X138651D01*
Y129549D01*
X138702D01*
Y129651D01*
X138651D01*
Y129702D01*
X138549D01*
Y129651D01*
X138498D01*
Y129549D01*
X138549D01*
X128125Y128577D02*
Y128916D01*
X128294Y129085D01*
X128464Y128916D01*
Y128577D01*
Y128831D01*
X128125D01*
X128856Y127800D02*
Y128139D01*
X129025Y128308D01*
X129195Y128139D01*
Y127800D01*
Y128054D01*
X128856D01*
X130900Y128400D02*
Y128739D01*
X131069Y128908D01*
X131239Y128739D01*
Y128400D01*
Y128654D01*
X130900D01*
X145098Y125623D02*
Y125522D01*
X145302D01*
Y125623D01*
X145403D01*
Y125827D01*
X145302D01*
Y125928D01*
X145098D01*
Y125827D01*
X144997D01*
Y125623D01*
X145098D01*
X145149Y125674D02*
Y125623D01*
X145251D01*
Y125674D01*
X145302D01*
Y125776D01*
X145251D01*
Y125827D01*
X145149D01*
Y125776D01*
X145098D01*
Y125674D01*
X145149D01*
X172097Y138147D02*
X172198D01*
X172300Y138248D01*
X172402Y138147D01*
X172503D01*
Y138248D01*
X172402Y138350D01*
X172503Y138452D01*
Y138553D01*
X172402D01*
X172300Y138452D01*
X172198Y138553D01*
X172097D01*
Y138452D01*
X172198Y138350D01*
X172097Y138248D01*
Y138147D01*
X172198Y138248D02*
X172249D01*
X172300Y138299D01*
X172351Y138248D01*
X172402D01*
Y138299D01*
X172351Y138350D01*
X172402Y138401D01*
Y138452D01*
X172351D01*
X172300Y138401D01*
X172249Y138452D01*
X172198D01*
Y138401D01*
X172249Y138350D01*
X172198Y138299D01*
Y138248D01*
X172097Y137047D02*
X172198D01*
X172300Y137148D01*
X172402Y137047D01*
X172503D01*
Y137148D01*
X172402Y137250D01*
X172503Y137352D01*
Y137453D01*
X172402D01*
X172300Y137352D01*
X172198Y137453D01*
X172097D01*
Y137352D01*
X172198Y137250D01*
X172097Y137148D01*
Y137047D01*
X172198Y137148D02*
X172249D01*
X172300Y137199D01*
X172351Y137148D01*
X172402D01*
Y137199D01*
X172351Y137250D01*
X172402Y137301D01*
Y137352D01*
X172351D01*
X172300Y137301D01*
X172249Y137352D01*
X172198D01*
Y137301D01*
X172249Y137250D01*
X172198Y137199D01*
Y137148D01*
X170997Y138147D02*
X171098D01*
X171200Y138248D01*
X171302Y138147D01*
X171403D01*
Y138248D01*
X171302Y138350D01*
X171403Y138452D01*
Y138553D01*
X171302D01*
X171200Y138452D01*
X171098Y138553D01*
X170997D01*
Y138452D01*
X171098Y138350D01*
X170997Y138248D01*
Y138147D01*
X171098Y138248D02*
X171149D01*
X171200Y138299D01*
X171251Y138248D01*
X171302D01*
Y138299D01*
X171251Y138350D01*
X171302Y138401D01*
Y138452D01*
X171251D01*
X171200Y138401D01*
X171149Y138452D01*
X171098D01*
Y138401D01*
X171149Y138350D01*
X171098Y138299D01*
Y138248D01*
X170997Y137047D02*
X171098D01*
X171200Y137148D01*
X171302Y137047D01*
X171403D01*
Y137148D01*
X171302Y137250D01*
X171403Y137352D01*
Y137453D01*
X171302D01*
X171200Y137352D01*
X171098Y137453D01*
X170997D01*
Y137352D01*
X171098Y137250D01*
X170997Y137148D01*
Y137047D01*
X171098Y137148D02*
X171149D01*
X171200Y137199D01*
X171251Y137148D01*
X171302D01*
Y137199D01*
X171251Y137250D01*
X171302Y137301D01*
Y137352D01*
X171251D01*
X171200Y137301D01*
X171149Y137352D01*
X171098D01*
Y137301D01*
X171149Y137250D01*
X171098Y137199D01*
Y137148D01*
X169897Y138147D02*
X169998D01*
X170100Y138248D01*
X170202Y138147D01*
X170303D01*
Y138248D01*
X170202Y138350D01*
X170303Y138452D01*
Y138553D01*
X170202D01*
X170100Y138452D01*
X169998Y138553D01*
X169897D01*
Y138452D01*
X169998Y138350D01*
X169897Y138248D01*
Y138147D01*
X169998Y138248D02*
X170049D01*
X170100Y138299D01*
X170151Y138248D01*
X170202D01*
Y138299D01*
X170151Y138350D01*
X170202Y138401D01*
Y138452D01*
X170151D01*
X170100Y138401D01*
X170049Y138452D01*
X169998D01*
Y138401D01*
X170049Y138350D01*
X169998Y138299D01*
Y138248D01*
X169897Y137047D02*
X169998D01*
X170100Y137148D01*
X170202Y137047D01*
X170303D01*
Y137148D01*
X170202Y137250D01*
X170303Y137352D01*
Y137453D01*
X170202D01*
X170100Y137352D01*
X169998Y137453D01*
X169897D01*
Y137352D01*
X169998Y137250D01*
X169897Y137148D01*
Y137047D01*
X169998Y137148D02*
X170049D01*
X170100Y137199D01*
X170151Y137148D01*
X170202D01*
Y137199D01*
X170151Y137250D01*
X170202Y137301D01*
Y137352D01*
X170151D01*
X170100Y137301D01*
X170049Y137352D01*
X169998D01*
Y137301D01*
X170049Y137250D01*
X169998Y137199D01*
Y137148D01*
X168797Y138147D02*
X168898D01*
X169000Y138248D01*
X169102Y138147D01*
X169203D01*
Y138248D01*
X169102Y138350D01*
X169203Y138452D01*
Y138553D01*
X169102D01*
X169000Y138452D01*
X168898Y138553D01*
X168797D01*
Y138452D01*
X168898Y138350D01*
X168797Y138248D01*
Y138147D01*
X168898Y138248D02*
X168949D01*
X169000Y138299D01*
X169051Y138248D01*
X169102D01*
Y138299D01*
X169051Y138350D01*
X169102Y138401D01*
Y138452D01*
X169051D01*
X169000Y138401D01*
X168949Y138452D01*
X168898D01*
Y138401D01*
X168949Y138350D01*
X168898Y138299D01*
Y138248D01*
X168797Y137047D02*
X168898D01*
X169000Y137148D01*
X169102Y137047D01*
X169203D01*
Y137148D01*
X169102Y137250D01*
X169203Y137352D01*
Y137453D01*
X169102D01*
X169000Y137352D01*
X168898Y137453D01*
X168797D01*
Y137352D01*
X168898Y137250D01*
X168797Y137148D01*
Y137047D01*
X168898Y137148D02*
X168949D01*
X169000Y137199D01*
X169051Y137148D01*
X169102D01*
Y137199D01*
X169051Y137250D01*
X169102Y137301D01*
Y137352D01*
X169051D01*
X169000Y137301D01*
X168949Y137352D01*
X168898D01*
Y137301D01*
X168949Y137250D01*
X168898Y137199D01*
Y137148D01*
X167697Y138147D02*
X167798D01*
X167900Y138248D01*
X168002Y138147D01*
X168103D01*
Y138248D01*
X168002Y138350D01*
X168103Y138452D01*
Y138553D01*
X168002D01*
X167900Y138452D01*
X167798Y138553D01*
X167697D01*
Y138452D01*
X167798Y138350D01*
X167697Y138248D01*
Y138147D01*
X167798Y138248D02*
X167849D01*
X167900Y138299D01*
X167951Y138248D01*
X168002D01*
Y138299D01*
X167951Y138350D01*
X168002Y138401D01*
Y138452D01*
X167951D01*
X167900Y138401D01*
X167849Y138452D01*
X167798D01*
Y138401D01*
X167849Y138350D01*
X167798Y138299D01*
Y138248D01*
X167697Y137047D02*
X167798D01*
X167900Y137148D01*
X168002Y137047D01*
X168103D01*
Y137148D01*
X168002Y137250D01*
X168103Y137352D01*
Y137453D01*
X168002D01*
X167900Y137352D01*
X167798Y137453D01*
X167697D01*
Y137352D01*
X167798Y137250D01*
X167697Y137148D01*
Y137047D01*
X167798Y137148D02*
X167849D01*
X167900Y137199D01*
X167951Y137148D01*
X168002D01*
Y137199D01*
X167951Y137250D01*
X168002Y137301D01*
Y137352D01*
X167951D01*
X167900Y137301D01*
X167849Y137352D01*
X167798D01*
Y137301D01*
X167849Y137250D01*
X167798Y137199D01*
Y137148D01*
X166597Y138147D02*
X166698D01*
X166800Y138248D01*
X166902Y138147D01*
X167003D01*
Y138248D01*
X166902Y138350D01*
X167003Y138452D01*
Y138553D01*
X166902D01*
X166800Y138452D01*
X166698Y138553D01*
X166597D01*
Y138452D01*
X166698Y138350D01*
X166597Y138248D01*
Y138147D01*
X166698Y138248D02*
X166749D01*
X166800Y138299D01*
X166851Y138248D01*
X166902D01*
Y138299D01*
X166851Y138350D01*
X166902Y138401D01*
Y138452D01*
X166851D01*
X166800Y138401D01*
X166749Y138452D01*
X166698D01*
Y138401D01*
X166749Y138350D01*
X166698Y138299D01*
Y138248D01*
X166597Y137047D02*
X166698D01*
X166800Y137148D01*
X166902Y137047D01*
X167003D01*
Y137148D01*
X166902Y137250D01*
X167003Y137352D01*
Y137453D01*
X166902D01*
X166800Y137352D01*
X166698Y137453D01*
X166597D01*
Y137352D01*
X166698Y137250D01*
X166597Y137148D01*
Y137047D01*
X166698Y137148D02*
X166749D01*
X166800Y137199D01*
X166851Y137148D01*
X166902D01*
Y137199D01*
X166851Y137250D01*
X166902Y137301D01*
Y137352D01*
X166851D01*
X166800Y137301D01*
X166749Y137352D01*
X166698D01*
Y137301D01*
X166749Y137250D01*
X166698Y137199D01*
Y137148D01*
X145500Y80300D02*
Y80639D01*
X145669Y80808D01*
X145839Y80639D01*
Y80300D01*
Y80554D01*
X145500D01*
X146000Y81500D02*
Y81839D01*
X146169Y82008D01*
X146339Y81839D01*
Y81500D01*
Y81754D01*
X146000D01*
X79400Y124000D02*
Y124339D01*
X79569Y124508D01*
X79739Y124339D01*
Y124000D01*
Y124254D01*
X79400D01*
X79300Y122800D02*
Y123139D01*
X79469Y123308D01*
X79639Y123139D01*
Y122800D01*
Y123054D01*
X79300D01*
X78600Y125550D02*
Y125889D01*
X78769Y126058D01*
X78939Y125889D01*
Y125550D01*
Y125804D01*
X78600D01*
X129700Y128400D02*
Y128738D01*
X129869Y128908D01*
X130038Y128738D01*
Y128400D01*
Y128654D01*
X129700D01*
X127297Y138797D02*
X127398D01*
X127500Y138898D01*
X127602Y138797D01*
X127703D01*
Y138898D01*
X127602Y139000D01*
X127703Y139102D01*
Y139203D01*
X127602D01*
X127500Y139102D01*
X127398Y139203D01*
X127297D01*
Y139102D01*
X127398Y139000D01*
X127297Y138898D01*
Y138797D01*
X127398Y138898D02*
X127449D01*
X127500Y138949D01*
X127551Y138898D01*
X127602D01*
Y138949D01*
X127551Y139000D01*
X127602Y139051D01*
Y139102D01*
X127551D01*
X127500Y139051D01*
X127449Y139102D01*
X127398D01*
Y139051D01*
X127449Y139000D01*
X127398Y138949D01*
Y138898D01*
X127297Y138097D02*
X127398D01*
X127500Y138198D01*
X127602Y138097D01*
X127703D01*
Y138198D01*
X127602Y138300D01*
X127703Y138402D01*
Y138503D01*
X127602D01*
X127500Y138402D01*
X127398Y138503D01*
X127297D01*
Y138402D01*
X127398Y138300D01*
X127297Y138198D01*
Y138097D01*
X127398Y138198D02*
X127449D01*
X127500Y138249D01*
X127551Y138198D01*
X127602D01*
Y138249D01*
X127551Y138300D01*
X127602Y138351D01*
Y138402D01*
X127551D01*
X127500Y138351D01*
X127449Y138402D01*
X127398D01*
Y138351D01*
X127449Y138300D01*
X127398Y138249D01*
Y138198D01*
X141684Y143750D02*
Y144089D01*
X141854Y144258D01*
X142023Y144089D01*
Y143750D01*
Y144004D01*
X141684D01*
X173675Y144400D02*
Y144739D01*
X173844Y144908D01*
X174014Y144739D01*
Y144400D01*
Y144654D01*
X173675D01*
X173171Y145650D02*
Y145989D01*
X173340Y146158D01*
X173510Y145989D01*
Y145650D01*
Y145904D01*
X173171D01*
X169800Y121700D02*
Y122039D01*
X169969Y122208D01*
X170139Y122039D01*
Y121700D01*
Y121954D01*
X169800D01*
X169300Y114700D02*
Y115038D01*
X169469Y115208D01*
X169638Y115038D01*
Y114700D01*
Y114954D01*
X169300D01*
X160000Y89700D02*
Y90039D01*
X160169Y90208D01*
X160339Y90039D01*
Y89700D01*
Y89954D01*
X160000D01*
X153096Y65004D02*
Y65343D01*
X153265Y65512D01*
X153435Y65343D01*
Y65004D01*
Y65258D01*
X153096D01*
X150550Y65400D02*
Y65739D01*
X150719Y65908D01*
X150889Y65739D01*
Y65400D01*
Y65654D01*
X150550D01*
X122100Y123790D02*
Y124129D01*
X122269Y124298D01*
X122439Y124129D01*
Y123790D01*
Y124044D01*
X122100D01*
X122750Y127000D02*
Y127339D01*
X122919Y127508D01*
X123089Y127339D01*
Y127000D01*
Y127254D01*
X122750D01*
X162700Y118100D02*
Y118439D01*
X162869Y118608D01*
X163039Y118439D01*
Y118100D01*
Y118354D01*
X162700D01*
X171150Y95700D02*
Y96039D01*
X171319Y96208D01*
X171489Y96039D01*
Y95700D01*
Y95954D01*
X171150D01*
X171700Y124100D02*
Y124439D01*
X171869Y124608D01*
X172039Y124439D01*
Y124100D01*
Y124354D01*
X171700D01*
Y115800D02*
Y116139D01*
X171869Y116308D01*
X172039Y116139D01*
Y115800D01*
Y116054D01*
X171700D01*
X153800Y136200D02*
Y136539D01*
X153969Y136708D01*
X154139Y136539D01*
Y136200D01*
Y136454D01*
X153800D01*
X69600Y63050D02*
Y63389D01*
X69769Y63558D01*
X69939Y63389D01*
Y63050D01*
Y63304D01*
X69600D01*
X147210Y63900D02*
Y64239D01*
X147379Y64408D01*
X147549Y64239D01*
Y63900D01*
Y64154D01*
X147210D01*
X169100Y64200D02*
Y64539D01*
X169269Y64708D01*
X169439Y64539D01*
Y64200D01*
Y64454D01*
X169100D01*
X76700Y85800D02*
Y86139D01*
X76869Y86308D01*
X77039Y86139D01*
Y85800D01*
Y86054D01*
X76700D01*
X69500Y78600D02*
Y78939D01*
X69669Y79108D01*
X69839Y78939D01*
Y78600D01*
Y78854D01*
X69500D01*
X110020Y75300D02*
Y75639D01*
X110189Y75808D01*
X110359Y75639D01*
Y75300D01*
Y75554D01*
X110020D01*
X114750Y75250D02*
Y75589D01*
X114919Y75758D01*
X115089Y75589D01*
Y75250D01*
Y75504D01*
X114750D01*
X102500Y63300D02*
Y63639D01*
X102669Y63808D01*
X102839Y63639D01*
Y63300D01*
Y63554D01*
X102500D01*
X134900Y67500D02*
Y67839D01*
X135069Y68008D01*
X135239Y67839D01*
Y67500D01*
Y67754D01*
X134900D01*
X91550Y127100D02*
Y127439D01*
X91719Y127608D01*
X91889Y127439D01*
Y127100D01*
Y127354D01*
X91550D01*
X80300Y122400D02*
Y122739D01*
X80469Y122908D01*
X80639Y122739D01*
Y122400D01*
Y122654D01*
X80300D01*
X78300Y124400D02*
Y124739D01*
X78469Y124908D01*
X78639Y124739D01*
Y124400D01*
Y124654D01*
X78300D01*
X121400Y130500D02*
Y130839D01*
X121569Y131008D01*
X121739Y130839D01*
Y130500D01*
Y130754D01*
X121400D01*
X122400Y138400D02*
Y138739D01*
X122569Y138908D01*
X122739Y138739D01*
Y138400D01*
Y138654D01*
X122400D01*
X121800Y141100D02*
Y141439D01*
X121969Y141608D01*
X122139Y141439D01*
Y141100D01*
Y141354D01*
X121800D01*
X131100Y141000D02*
Y141339D01*
X131269Y141508D01*
X131439Y141339D01*
Y141000D01*
Y141254D01*
X131100D01*
X139425Y140975D02*
Y141314D01*
X139594Y141483D01*
X139764Y141314D01*
Y140975D01*
Y141229D01*
X139425D01*
X168525Y115750D02*
Y116089D01*
X168694Y116258D01*
X168864Y116089D01*
Y115750D01*
Y116004D01*
X168525D01*
X164500Y130050D02*
Y130389D01*
X164669Y130558D01*
X164839Y130389D01*
Y130050D01*
Y130304D01*
X164500D01*
X149500Y64200D02*
Y64539D01*
X149669Y64708D01*
X149839Y64539D01*
Y64200D01*
Y64454D01*
X149500D01*
Y62700D02*
Y63039D01*
X149669Y63208D01*
X149839Y63039D01*
Y62700D01*
Y62954D01*
X149500D01*
X91000Y83043D02*
Y83381D01*
X91169Y83550D01*
X91339Y83381D01*
Y83043D01*
Y83296D01*
X91000D01*
X181244Y67673D02*
X181159Y67758D01*
X180990D01*
X180905Y67673D01*
Y67335D01*
X180990Y67250D01*
X181159D01*
X181244Y67335D01*
X97750Y65975D02*
Y66314D01*
X97919Y66483D01*
X98089Y66314D01*
Y65975D01*
Y66229D01*
X97750D01*
Y64750D02*
Y65089D01*
X97919Y65258D01*
X98089Y65089D01*
Y64750D01*
Y65004D01*
X97750D01*
X111450Y138425D02*
Y138764D01*
X111619Y138933D01*
X111789Y138764D01*
Y138425D01*
Y138679D01*
X111450D01*
X88500Y77500D02*
Y77839D01*
X88669Y78008D01*
X88839Y77839D01*
Y77500D01*
Y77754D01*
X88500D01*
X87500Y142500D02*
Y142839D01*
X87669Y143008D01*
X87839Y142839D01*
Y142500D01*
Y142754D01*
X87500D01*
X108375Y143750D02*
Y144089D01*
X108544Y144258D01*
X108714Y144089D01*
Y143750D01*
Y144004D01*
X108375D01*
X96750Y143150D02*
Y143489D01*
X96919Y143658D01*
X97089Y143489D01*
Y143150D01*
Y143404D01*
X96750D01*
X96000Y144129D02*
Y144468D01*
X96169Y144637D01*
X96339Y144468D01*
Y144129D01*
Y144383D01*
X96000D01*
X102750Y143750D02*
Y144089D01*
X102919Y144258D01*
X103089Y144089D01*
Y143750D01*
Y144004D01*
X102750D01*
X109340Y83043D02*
Y83381D01*
X109510Y83550D01*
X109679Y83381D01*
Y83043D01*
Y83296D01*
X109340D01*
X159320Y144129D02*
Y144468D01*
X159489Y144637D01*
X159659Y144468D01*
Y144129D01*
Y144383D01*
X159320D01*
X156400Y142750D02*
Y143089D01*
X156569Y143258D01*
X156739Y143089D01*
Y142750D01*
Y143004D01*
X156400D01*
X153000Y144000D02*
Y144339D01*
X153169Y144508D01*
X153339Y144339D01*
Y144000D01*
Y144254D01*
X153000D01*
X148500Y143100D02*
Y143439D01*
X148669Y143608D01*
X148839Y143439D01*
Y143100D01*
Y143354D01*
X148500D01*
X169875Y127620D02*
Y127959D01*
X170044Y128128D01*
X170214Y127959D01*
Y127620D01*
Y127874D01*
X169875D01*
X160250Y133100D02*
Y133439D01*
X160419Y133608D01*
X160589Y133439D01*
Y133100D01*
Y133354D01*
X160250D01*
X150089Y120043D02*
X150004Y120128D01*
X149835D01*
X149750Y120043D01*
Y119705D01*
X149835Y119620D01*
X150004D01*
X150089Y119705D01*
X164750Y143250D02*
Y143589D01*
X164919Y143758D01*
X165089Y143589D01*
Y143250D01*
Y143504D01*
X164750D01*
X175250Y113250D02*
Y113589D01*
X175419Y113758D01*
X175589Y113589D01*
Y113250D01*
Y113504D01*
X175250D01*
Y123000D02*
Y123339D01*
X175419Y123508D01*
X175589Y123339D01*
Y123000D01*
Y123254D01*
X175250D01*
X156500Y64250D02*
Y64589D01*
X156669Y64758D01*
X156839Y64589D01*
Y64250D01*
Y64504D01*
X156500D01*
X155250Y64250D02*
Y64589D01*
X155419Y64758D01*
X155589Y64589D01*
Y64250D01*
Y64504D01*
X155250D01*
X154000Y62500D02*
Y62839D01*
X154169Y63008D01*
X154339Y62839D01*
Y62500D01*
Y62754D01*
X154000D01*
X152120Y64250D02*
Y64589D01*
X152289Y64758D01*
X152459Y64589D01*
Y64250D01*
Y64504D01*
X152120D01*
X82500Y79592D02*
Y79931D01*
X82669Y80100D01*
X82839Y79931D01*
Y79592D01*
Y79846D01*
X82500D01*
Y82768D02*
Y83106D01*
X82669Y83275D01*
X82839Y83106D01*
Y82768D01*
Y83021D01*
X82500D01*
Y81467D02*
Y81806D01*
X82669Y81975D01*
X82839Y81806D01*
Y81467D01*
Y81721D01*
X82500D01*
X78250Y80000D02*
Y80339D01*
X78419Y80508D01*
X78589Y80339D01*
Y80000D01*
Y80254D01*
X78250D01*
Y81000D02*
Y81339D01*
X78419Y81508D01*
X78589Y81339D01*
Y81000D01*
Y81254D01*
X78250D01*
Y82250D02*
Y82589D01*
X78419Y82758D01*
X78589Y82589D01*
Y82250D01*
Y82504D01*
X78250D01*
X86470Y84000D02*
Y84339D01*
X86639Y84508D01*
X86809Y84339D01*
Y84000D01*
Y84254D01*
X86470D01*
X177500Y61950D02*
Y62289D01*
X177669Y62458D01*
X177839Y62289D01*
Y61950D01*
Y62204D01*
X177500D01*
X158500Y63000D02*
Y63339D01*
X158669Y63508D01*
X158839Y63339D01*
Y63000D01*
Y63254D01*
X158500D01*
X114750Y82000D02*
Y82339D01*
X114919Y82508D01*
X115089Y82339D01*
Y82000D01*
Y82254D01*
X114750D01*
Y77500D02*
Y77839D01*
X114919Y78008D01*
X115089Y77839D01*
Y77500D01*
Y77754D01*
X114750D01*
Y79750D02*
Y80089D01*
X114919Y80258D01*
X115089Y80089D01*
Y79750D01*
Y80004D01*
X114750D01*
X151702Y80525D02*
Y80864D01*
X151872Y81033D01*
X152041Y80864D01*
Y80525D01*
Y80779D01*
X151702D01*
X143000Y87750D02*
Y88089D01*
X143169Y88258D01*
X143339Y88089D01*
Y87750D01*
Y88004D01*
X143000D01*
X150695Y81467D02*
Y81806D01*
X150864Y81975D01*
X151034Y81806D01*
Y81467D01*
Y81721D01*
X150695D01*
X148750Y84750D02*
Y85089D01*
X148919Y85258D01*
X149089Y85089D01*
Y84750D01*
Y85004D01*
X148750D01*
X147589Y70423D02*
X147504Y70508D01*
X147335D01*
X147250Y70423D01*
Y70085D01*
X147335Y70000D01*
X147504D01*
X147589Y70085D01*
X136250Y68500D02*
Y68839D01*
X136419Y69008D01*
X136589Y68839D01*
Y68500D01*
Y68754D01*
X136250D01*
X136500Y69750D02*
Y70089D01*
X136669Y70258D01*
X136839Y70089D01*
Y69750D01*
Y70004D01*
X136500D01*
D166*
X117703Y88662D02*
G03*
X117703Y88662I-203J0D01*
G01*
X115163D02*
G03*
X115163Y88662I-203J0D01*
G01*
X137243Y92500D02*
G03*
X137243Y92500I-203J0D01*
G01*
X134703D02*
G03*
X134703Y92500I-203J0D01*
G01*
X116203Y98960D02*
G03*
X116203Y98960I-203J0D01*
G01*
Y101500D02*
G03*
X116203Y101500I-203J0D01*
G01*
Y104040D02*
G03*
X116203Y104040I-203J0D01*
G01*
Y106580D02*
G03*
X116203Y106580I-203J0D01*
G01*
Y109120D02*
G03*
X116203Y109120I-203J0D01*
G01*
Y111660D02*
G03*
X116203Y111660I-203J0D01*
G01*
X125893Y111700D02*
G03*
X125893Y111700I-203J0D01*
G01*
X123353D02*
G03*
X123353Y111700I-203J0D01*
G01*
X66353Y148900D02*
G03*
X66353Y148900I-203J0D01*
G01*
X63813D02*
G03*
X63813Y148900I-203J0D01*
G01*
X166303Y103000D02*
G03*
X166303Y103000I-203J0D01*
G01*
X163763D02*
G03*
X163763Y103000I-203J0D01*
G01*
X161223D02*
G03*
X161223Y103000I-203J0D01*
G01*
X158683D02*
G03*
X158683Y103000I-203J0D01*
G01*
X156143D02*
G03*
X156143Y103000I-203J0D01*
G01*
X153603D02*
G03*
X153603Y103000I-203J0D01*
G01*
X151063D02*
G03*
X151063Y103000I-203J0D01*
G01*
X148523D02*
G03*
X148523Y103000I-203J0D01*
G01*
X145983D02*
G03*
X145983Y103000I-203J0D01*
G01*
X143443D02*
G03*
X143443Y103000I-203J0D01*
G01*
X140903D02*
G03*
X140903Y103000I-203J0D01*
G01*
X138363D02*
G03*
X138363Y103000I-203J0D01*
G01*
X135823D02*
G03*
X135823Y103000I-203J0D01*
G01*
X133283D02*
G03*
X133283Y103000I-203J0D01*
G01*
X130743D02*
G03*
X130743Y103000I-203J0D01*
G01*
X128203D02*
G03*
X128203Y103000I-203J0D01*
G01*
X163253Y53250D02*
G03*
X163253Y53250I-203J0D01*
G01*
Y55790D02*
G03*
X163253Y55790I-203J0D01*
G01*
X165793Y53250D02*
G03*
X165793Y53250I-203J0D01*
G01*
Y55790D02*
G03*
X165793Y55790I-203J0D01*
G01*
X168333Y53250D02*
G03*
X168333Y53250I-203J0D01*
G01*
Y55790D02*
G03*
X168333Y55790I-203J0D01*
G01*
X170873Y53250D02*
G03*
X170873Y53250I-203J0D01*
G01*
Y55790D02*
G03*
X170873Y55790I-203J0D01*
G01*
X173413Y53250D02*
G03*
X173413Y53250I-203J0D01*
G01*
Y55790D02*
G03*
X173413Y55790I-203J0D01*
G01*
X175953Y53250D02*
G03*
X175953Y53250I-203J0D01*
G01*
Y55790D02*
G03*
X175953Y55790I-203J0D01*
G01*
X178493Y53250D02*
G03*
X178493Y53250I-203J0D01*
G01*
Y55790D02*
G03*
X178493Y55790I-203J0D01*
G01*
X181033Y53250D02*
G03*
X181033Y53250I-203J0D01*
G01*
Y55790D02*
G03*
X181033Y55790I-203J0D01*
G01*
X186113D02*
G03*
X186113Y55790I-203J0D01*
G01*
Y53250D02*
G03*
X186113Y53250I-203J0D01*
G01*
X183573Y55790D02*
G03*
X183573Y55790I-203J0D01*
G01*
Y53250D02*
G03*
X183573Y53250I-203J0D01*
G01*
X172813Y149050D02*
G03*
X172813Y149050I-203J0D01*
G01*
X170273D02*
G03*
X170273Y149050I-203J0D01*
G01*
X167733D02*
G03*
X167733Y149050I-203J0D01*
G01*
X165193D02*
G03*
X165193Y149050I-203J0D01*
G01*
X178163Y149000D02*
G03*
X178163Y149000I-203J0D01*
G01*
X180703D02*
G03*
X180703Y149000I-203J0D01*
G01*
X183243D02*
G03*
X183243Y149000I-203J0D01*
G01*
X196663Y127620D02*
G03*
X196663Y127620I-203J0D01*
G01*
X199203D02*
G03*
X199203Y127620I-203J0D01*
G01*
X196663Y125080D02*
G03*
X196663Y125080I-203J0D01*
G01*
X199203D02*
G03*
X199203Y125080I-203J0D01*
G01*
X196663Y122540D02*
G03*
X196663Y122540I-203J0D01*
G01*
X199203D02*
G03*
X199203Y122540I-203J0D01*
G01*
X196663Y120000D02*
G03*
X196663Y120000I-203J0D01*
G01*
X199203D02*
G03*
X199203Y120000I-203J0D01*
G01*
X196663Y117460D02*
G03*
X196663Y117460I-203J0D01*
G01*
X199203D02*
G03*
X199203Y117460I-203J0D01*
G01*
X196663Y114920D02*
G03*
X196663Y114920I-203J0D01*
G01*
X199203D02*
G03*
X199203Y114920I-203J0D01*
G01*
X196663Y112380D02*
G03*
X196663Y112380I-203J0D01*
G01*
X199203D02*
G03*
X199203Y112380I-203J0D01*
G01*
X196663Y109840D02*
G03*
X196663Y109840I-203J0D01*
G01*
X199203D02*
G03*
X199203Y109840I-203J0D01*
G01*
X138363Y110520D02*
G03*
X138363Y110520I-203J0D01*
G01*
X140903Y107980D02*
G03*
X140903Y107980I-203J0D01*
G01*
X135823D02*
G03*
X135823Y107980I-203J0D01*
G01*
X199203Y78340D02*
G03*
X199203Y78340I-203J0D01*
G01*
X196663D02*
G03*
X196663Y78340I-203J0D01*
G01*
X199203Y80880D02*
G03*
X199203Y80880I-203J0D01*
G01*
X196663D02*
G03*
X196663Y80880I-203J0D01*
G01*
X199203Y83420D02*
G03*
X199203Y83420I-203J0D01*
G01*
X196663D02*
G03*
X196663Y83420I-203J0D01*
G01*
X199203Y85960D02*
G03*
X199203Y85960I-203J0D01*
G01*
X196663D02*
G03*
X196663Y85960I-203J0D01*
G01*
X199203Y88500D02*
G03*
X199203Y88500I-203J0D01*
G01*
X196663D02*
G03*
X196663Y88500I-203J0D01*
G01*
X199203Y91040D02*
G03*
X199203Y91040I-203J0D01*
G01*
X196663D02*
G03*
X196663Y91040I-203J0D01*
G01*
X199203Y93580D02*
G03*
X199203Y93580I-203J0D01*
G01*
X196663D02*
G03*
X196663Y93580I-203J0D01*
G01*
X199203Y96120D02*
G03*
X199203Y96120I-203J0D01*
G01*
X196663D02*
G03*
X196663Y96120I-203J0D01*
G01*
X139793Y53120D02*
G03*
X139793Y53120I-203J0D01*
G01*
Y55660D02*
G03*
X139793Y55660I-203J0D01*
G01*
X142333Y53120D02*
G03*
X142333Y53120I-203J0D01*
G01*
Y55660D02*
G03*
X142333Y55660I-203J0D01*
G01*
X144873Y53120D02*
G03*
X144873Y53120I-203J0D01*
G01*
Y55660D02*
G03*
X144873Y55660I-203J0D01*
G01*
X147413Y53120D02*
G03*
X147413Y53120I-203J0D01*
G01*
Y55660D02*
G03*
X147413Y55660I-203J0D01*
G01*
X149953Y53120D02*
G03*
X149953Y53120I-203J0D01*
G01*
Y55660D02*
G03*
X149953Y55660I-203J0D01*
G01*
X152493Y53120D02*
G03*
X152493Y53120I-203J0D01*
G01*
Y55660D02*
G03*
X152493Y55660I-203J0D01*
G01*
X155033Y53120D02*
G03*
X155033Y53120I-203J0D01*
G01*
Y55660D02*
G03*
X155033Y55660I-203J0D01*
G01*
X157573Y53120D02*
G03*
X157573Y53120I-203J0D01*
G01*
Y55660D02*
G03*
X157573Y55660I-203J0D01*
G01*
X155733Y148900D02*
G03*
X155733Y148900I-203J0D01*
G01*
X158273D02*
G03*
X158273Y148900I-203J0D01*
G01*
X148273D02*
G03*
X148273Y148900I-203J0D01*
G01*
X150813D02*
G03*
X150813Y148900I-203J0D01*
G01*
X89684Y149000D02*
G03*
X89684Y149000I-203J0D01*
G01*
X92224D02*
G03*
X92224Y149000I-203J0D01*
G01*
X94764D02*
G03*
X94764Y149000I-203J0D01*
G01*
X101663D02*
G03*
X101663Y149000I-203J0D01*
G01*
X104203D02*
G03*
X104203Y149000I-203J0D01*
G01*
X106743D02*
G03*
X106743Y149000I-203J0D01*
G01*
X184103Y121750D02*
G03*
X184103Y121750I-203J0D01*
G01*
Y119210D02*
G03*
X184103Y119210I-203J0D01*
G01*
Y116670D02*
G03*
X184103Y116670I-203J0D01*
G01*
Y114130D02*
G03*
X184103Y114130I-203J0D01*
G01*
X81533Y149050D02*
G03*
X81533Y149050I-203J0D01*
G01*
X78993D02*
G03*
X78993Y149050I-203J0D01*
G01*
X76453D02*
G03*
X76453Y149050I-203J0D01*
G01*
X73913D02*
G03*
X73913Y149050I-203J0D01*
G01*
X120663Y149000D02*
G03*
X120663Y149000I-203J0D01*
G01*
X123203D02*
G03*
X123203Y149000I-203J0D01*
G01*
X131203D02*
G03*
X131203Y149000I-203J0D01*
G01*
X128663D02*
G03*
X128663Y149000I-203J0D01*
G01*
D167*
X138262Y110520D02*
G03*
X138262Y110520I-102J0D01*
G01*
X140802Y107980D02*
G03*
X140802Y107980I-102J0D01*
G01*
X135722D02*
G03*
X135722Y107980I-102J0D01*
G01*
M02*
