G04*
G04 #@! TF.GenerationSoftware,Altium Limited,Altium Designer,19.0.10 (269)*
G04*
G04 Layer_Color=32896*
%FSLAX43Y43*%
%MOMM*%
G71*
G01*
G75*
%ADD11C,0.250*%
%ADD12C,0.127*%
%ADD13C,0.200*%
%ADD15C,0.180*%
%ADD16C,0.254*%
%ADD17C,0.350*%
%ADD18R,0.400X1.300*%
%ADD103C,0.300*%
%ADD161R,1.300X0.400*%
G36*
X120950Y62000D02*
X119200Y60250D01*
Y63750D01*
X119200D01*
X120950Y62000D01*
D02*
G37*
D11*
X178615Y121020D02*
G03*
X178615Y121020I-125J0D01*
G01*
X124125Y143300D02*
G03*
X124125Y143300I-125J0D01*
G01*
X129075Y139200D02*
G03*
X129075Y139200I-125J0D01*
G01*
X180675Y115080D02*
G03*
X180675Y115080I-125J0D01*
G01*
X132825Y63700D02*
G03*
X132825Y63700I-125J0D01*
G01*
Y59950D02*
G03*
X132825Y59950I-125J0D01*
G01*
X142550Y101600D02*
X151600D01*
X160650Y54150D02*
X161500Y53300D01*
X160650Y54150D02*
Y57000D01*
X162000Y58350D01*
X106850Y62050D02*
X106450D01*
X106650D01*
Y63250D01*
X106850Y63050D01*
X105051Y62050D02*
X105850D01*
X105051Y62850D01*
Y63050D01*
X105251Y63250D01*
X105650D01*
X105850Y63050D01*
X104651Y63250D02*
Y62450D01*
X104251Y62050D01*
X103851Y62450D01*
Y63250D01*
X123250Y66550D02*
Y65550D01*
X122750D01*
X122584Y65717D01*
Y66383D01*
X122750Y66550D01*
X123250D01*
X122250Y65550D02*
X121917D01*
X122084D01*
Y66550D01*
X122250Y66383D01*
D12*
X173865Y128050D02*
Y132050D01*
X172565Y128050D02*
X173865D01*
X172565D02*
Y132050D01*
X173865D01*
X190500Y122980D02*
X192100D01*
X190500Y126380D02*
X192100D01*
X131400Y124050D02*
Y125350D01*
Y124050D02*
X135400D01*
Y125350D01*
X131400D02*
X135400D01*
X130350Y124050D02*
Y125350D01*
X126350D02*
X130350D01*
X126350Y124050D02*
Y125350D01*
Y124050D02*
X130350D01*
X132173Y128300D02*
Y129600D01*
Y128300D02*
X136173D01*
Y129600D01*
X132173D02*
X136173D01*
X132173Y125550D02*
Y126850D01*
Y125550D02*
X136173D01*
Y126850D01*
X132173D02*
X136173D01*
X169225Y132050D02*
X170525D01*
X169225Y128050D02*
Y132050D01*
Y128050D02*
X170525D01*
Y132050D01*
X189700Y115279D02*
X191300D01*
X189700Y111879D02*
X191300D01*
X189200Y95450D02*
X190800D01*
X189200Y92050D02*
X190800D01*
X189200Y91200D02*
X190800D01*
X189200Y87800D02*
X190800D01*
X157700Y61450D02*
Y63050D01*
X154300Y61450D02*
Y63050D01*
X153450Y61450D02*
Y63050D01*
X150050Y61450D02*
Y63050D01*
D13*
X116770Y64920D02*
X123630D01*
X116770Y64305D02*
Y64920D01*
X123630Y64305D02*
Y64920D01*
X116770Y59080D02*
X123630D01*
Y59695D01*
X116770Y59080D02*
Y59695D01*
X180140Y123720D02*
Y124380D01*
X179325D02*
X180140D01*
Y121460D02*
Y122120D01*
X179325Y121460D02*
X180140D01*
X175925Y115500D02*
Y116500D01*
X174575Y115500D02*
Y116500D01*
X122850Y139650D02*
Y142850D01*
X118550Y139650D02*
X122850D01*
X118550D02*
Y142850D01*
X122850D01*
X130100Y139650D02*
X134400D01*
Y142850D01*
X130100D02*
X134400D01*
X130100Y139650D02*
Y142850D01*
X174575Y120000D02*
Y121000D01*
X175925Y120000D02*
Y121000D01*
X178900Y114640D02*
X179715D01*
X178900Y113980D02*
Y114640D01*
Y111720D02*
X179715D01*
X178900D02*
Y112380D01*
X133850Y64150D02*
X138150D01*
Y67350D01*
X133850D02*
X138150D01*
X133850Y64150D02*
Y67350D01*
Y60400D02*
X138150D01*
Y63600D01*
X133850D02*
X138150D01*
X133850Y60400D02*
Y63600D01*
D15*
X174500Y62200D02*
X174800D01*
Y58350D02*
Y62200D01*
X162000Y58350D02*
X174800D01*
X162000D02*
Y62200D01*
X174500D01*
X157666Y57483D02*
X157800Y57350D01*
Y57083D01*
X157666Y56950D01*
X157533D01*
X157400Y57083D01*
Y57350D01*
X157267Y57483D01*
X157133D01*
X157000Y57350D01*
Y57083D01*
X157133Y56950D01*
X157000Y57750D02*
X157800D01*
Y58150D01*
X157666Y58283D01*
X157400D01*
X157267Y58150D01*
Y57750D01*
Y58016D02*
X157000Y58283D01*
X157800Y58549D02*
X157267D01*
X157000Y58816D01*
X157267Y59083D01*
X157800D01*
X155300Y56950D02*
X154500D01*
Y57350D01*
X154633Y57483D01*
X154767D01*
X154900Y57350D01*
Y56950D01*
Y57350D01*
X155033Y57483D01*
X155166D01*
X155300Y57350D01*
Y56950D01*
Y57750D02*
X154500D01*
Y58283D01*
X152800Y56950D02*
X152000D01*
Y57350D01*
X152133Y57483D01*
X152666D01*
X152800Y57350D01*
Y56950D01*
Y57750D02*
Y58283D01*
X152666D01*
X152133Y57750D01*
X152000D01*
X150250Y56950D02*
X149450D01*
Y57350D01*
X149583Y57483D01*
X150116D01*
X150250Y57350D01*
Y56950D01*
Y58283D02*
X150116Y58016D01*
X149850Y57750D01*
X149583D01*
X149450Y57883D01*
Y58150D01*
X149583Y58283D01*
X149717D01*
X149850Y58150D01*
Y57750D01*
X147650Y56950D02*
X146850D01*
Y57350D01*
X146983Y57483D01*
X147516D01*
X147650Y57350D01*
Y56950D01*
Y58283D02*
Y57750D01*
X147250D01*
X147383Y58016D01*
Y58150D01*
X147250Y58283D01*
X146983D01*
X146850Y58150D01*
Y57883D01*
X146983Y57750D01*
X145200Y56950D02*
X144400D01*
Y57350D01*
X144533Y57483D01*
X145066D01*
X145200Y57350D01*
Y56950D01*
X144400Y58150D02*
X145200D01*
X144800Y57750D01*
Y58283D01*
X141850Y56950D02*
X142650D01*
Y57350D01*
X142516Y57483D01*
X142250D01*
X142117Y57350D01*
Y56950D01*
Y57217D02*
X141850Y57483D01*
X142516Y58283D02*
X142650Y58150D01*
Y57883D01*
X142516Y57750D01*
X142383D01*
X142250Y57883D01*
Y58150D01*
X142117Y58283D01*
X141983D01*
X141850Y58150D01*
Y57883D01*
X141983Y57750D01*
X140150Y57483D02*
Y56950D01*
X139350D01*
Y57483D01*
X139750Y56950D02*
Y57217D01*
X194367Y117766D02*
X194500Y117900D01*
X194767D01*
X194900Y117766D01*
Y117633D01*
X194767Y117500D01*
X194500D01*
X194367Y117367D01*
Y117233D01*
X194500Y117100D01*
X194767D01*
X194900Y117233D01*
X194100Y117900D02*
X193567D01*
X193834D01*
Y117100D01*
X193301D02*
Y117900D01*
X192901D01*
X192767Y117766D01*
Y117500D01*
X192901Y117367D01*
X193301D01*
X191968Y117900D02*
X192501D01*
Y117100D01*
X191968D01*
X192501Y117500D02*
X192234D01*
X191701Y117100D02*
Y117900D01*
X191168Y117100D01*
Y117900D01*
X194900Y120450D02*
Y119650D01*
X194367D01*
X194100Y120450D02*
X193834D01*
X193967D01*
Y119650D01*
X194100D01*
X193834D01*
X193434D02*
Y120450D01*
X193167Y120183D01*
X192901Y120450D01*
Y119650D01*
X192634Y120450D02*
Y119650D01*
X192101D01*
X194900Y122900D02*
Y122100D01*
X194367D01*
X194100Y122900D02*
X193834D01*
X193967D01*
Y122100D01*
X194100D01*
X193834D01*
X193434D02*
Y122900D01*
X193167Y122633D01*
X192901Y122900D01*
Y122100D01*
X192634D02*
Y122900D01*
X192234D01*
X192101Y122766D01*
Y122500D01*
X192234Y122367D01*
X192634D01*
X192367D02*
X192101Y122100D01*
X194367Y125266D02*
X194500Y125400D01*
X194767D01*
X194900Y125266D01*
Y125133D01*
X194767Y125000D01*
X194500D01*
X194367Y124867D01*
Y124733D01*
X194500Y124600D01*
X194767D01*
X194900Y124733D01*
X194100Y125400D02*
X193567D01*
X193834D01*
Y124600D01*
X193301D02*
Y125400D01*
X192901D01*
X192767Y125266D01*
Y125000D01*
X192901Y124867D01*
X193301D01*
X194900Y128000D02*
Y127200D01*
X194500D01*
X194367Y127333D01*
Y127866D01*
X194500Y128000D01*
X194900D01*
X194100D02*
X193834D01*
X193967D01*
Y127200D01*
X194100D01*
X193834D01*
X193434D02*
Y128000D01*
X193034D01*
X192901Y127866D01*
Y127600D01*
X193034Y127467D01*
X193434D01*
X193167D02*
X192901Y127200D01*
X194900Y114550D02*
Y115350D01*
X194367Y114550D01*
Y115350D01*
X193567Y115216D02*
X193700Y115350D01*
X193967D01*
X194100Y115216D01*
Y114683D01*
X193967Y114550D01*
X193700D01*
X193567Y114683D01*
X194367Y112616D02*
X194500Y112750D01*
X194767D01*
X194900Y112616D01*
Y112083D01*
X194767Y111950D01*
X194500D01*
X194367Y112083D01*
X194100Y111950D02*
Y112483D01*
X193834Y112750D01*
X193567Y112483D01*
Y111950D01*
Y112350D01*
X194100D01*
X193301Y111950D02*
Y112750D01*
X192767Y111950D01*
Y112750D01*
X192501Y111950D02*
Y112750D01*
X192101D01*
X191968Y112616D01*
Y112350D01*
X192101Y112217D01*
X192501D01*
X192234D02*
X191968Y111950D01*
X191701Y112750D02*
X191168Y111950D01*
Y112750D02*
X191701Y111950D01*
X194367Y110016D02*
X194500Y110150D01*
X194767D01*
X194900Y110016D01*
Y109483D01*
X194767Y109350D01*
X194500D01*
X194367Y109483D01*
X194100Y109350D02*
Y109883D01*
X193834Y110150D01*
X193567Y109883D01*
Y109350D01*
Y109750D01*
X194100D01*
X193301Y109350D02*
Y110150D01*
X192767Y109350D01*
Y110150D01*
X192501D02*
X191968D01*
X192234D01*
Y109350D01*
X191701Y110150D02*
X191168Y109350D01*
Y110150D02*
X191701Y109350D01*
X75900Y144950D02*
X76700D01*
Y145350D01*
X76566Y145483D01*
X76300D01*
X76167Y145350D01*
Y144950D01*
X76566Y146283D02*
X76700Y146150D01*
Y145883D01*
X76566Y145750D01*
X76033D01*
X75900Y145883D01*
Y146150D01*
X76033Y146283D01*
X76700Y146549D02*
Y147083D01*
X76566D01*
X76033Y146549D01*
X75900D01*
X78400Y145000D02*
X79200D01*
Y145400D01*
X79066Y145533D01*
X78800D01*
X78667Y145400D01*
Y145000D01*
X79066Y146333D02*
X79200Y146200D01*
Y145933D01*
X79066Y145800D01*
X78533D01*
X78400Y145933D01*
Y146200D01*
X78533Y146333D01*
X78400Y146599D02*
Y146866D01*
Y146733D01*
X79200D01*
X79066Y146599D01*
X78400Y147666D02*
X79200D01*
X78800Y147266D01*
Y147799D01*
X166500Y104400D02*
X165700D01*
Y104800D01*
X165833Y104933D01*
X165967D01*
X166100Y104800D01*
Y104400D01*
Y104800D01*
X166233Y104933D01*
X166366D01*
X166500Y104800D01*
Y104400D01*
Y105200D02*
X165700D01*
Y105733D01*
X161400Y104400D02*
X160600D01*
Y104800D01*
X160733Y104933D01*
X161266D01*
X161400Y104800D01*
Y104400D01*
Y105200D02*
Y105733D01*
X161266D01*
X160733Y105200D01*
X160600D01*
X158900Y104400D02*
X158100D01*
Y104800D01*
X158233Y104933D01*
X158766D01*
X158900Y104800D01*
Y104400D01*
Y105733D02*
X158766Y105466D01*
X158500Y105200D01*
X158233D01*
X158100Y105333D01*
Y105600D01*
X158233Y105733D01*
X158367D01*
X158500Y105600D01*
Y105200D01*
X156350Y104400D02*
X155550D01*
Y104800D01*
X155683Y104933D01*
X156216D01*
X156350Y104800D01*
Y104400D01*
Y105733D02*
Y105200D01*
X155950D01*
X156083Y105466D01*
Y105600D01*
X155950Y105733D01*
X155683D01*
X155550Y105600D01*
Y105333D01*
X155683Y105200D01*
X153850Y104400D02*
X153050D01*
Y104800D01*
X153183Y104933D01*
X153716D01*
X153850Y104800D01*
Y104400D01*
X153050Y105600D02*
X153850D01*
X153450Y105200D01*
Y105733D01*
X147600Y104450D02*
Y105250D01*
X147067Y104450D01*
Y105250D01*
X146267Y105116D02*
X146400Y105250D01*
X146667D01*
X146800Y105116D01*
Y104583D01*
X146667Y104450D01*
X146400D01*
X146267Y104583D01*
X135250Y100400D02*
X136050D01*
Y100800D01*
X135916Y100933D01*
X135650D01*
X135517Y100800D01*
Y100400D01*
Y100667D02*
X135250Y100933D01*
X135916Y101733D02*
X136050Y101600D01*
Y101333D01*
X135916Y101200D01*
X135783D01*
X135650Y101333D01*
Y101600D01*
X135517Y101733D01*
X135383D01*
X135250Y101600D01*
Y101333D01*
X135383Y101200D01*
X141100Y101833D02*
Y101300D01*
X140300D01*
Y101833D01*
X140700Y101300D02*
Y101567D01*
X133266Y96183D02*
X133400Y96050D01*
Y95783D01*
X133266Y95650D01*
X132733D01*
X132600Y95783D01*
Y96050D01*
X132733Y96183D01*
X133400Y96850D02*
Y96583D01*
X133266Y96450D01*
X132733D01*
X132600Y96583D01*
Y96850D01*
X132733Y96983D01*
X133266D01*
X133400Y96850D01*
X132600Y97249D02*
X133400D01*
X132600Y97783D01*
X133400D01*
Y98049D02*
Y98582D01*
Y98316D01*
X132600D01*
Y98849D02*
X133400D01*
Y99249D01*
X133266Y99382D01*
X133000D01*
X132867Y99249D01*
Y98849D01*
Y99116D02*
X132600Y99382D01*
Y99649D02*
X133133D01*
X133400Y99915D01*
X133133Y100182D01*
X132600D01*
X133000D01*
Y99649D01*
X133266Y100982D02*
X133400Y100848D01*
Y100582D01*
X133266Y100448D01*
X133133D01*
X133000Y100582D01*
Y100848D01*
X132867Y100982D01*
X132733D01*
X132600Y100848D01*
Y100582D01*
X132733Y100448D01*
X133400Y101248D02*
Y101781D01*
Y101515D01*
X132600D01*
X113850Y52350D02*
Y52683D01*
Y52517D01*
X114850D01*
X114683Y52350D01*
X113850Y53850D02*
Y53183D01*
X114516Y53850D01*
X114683D01*
X114850Y53683D01*
Y53350D01*
X114683Y53183D01*
X114850Y54183D02*
X114183D01*
X113850Y54516D01*
X114183Y54849D01*
X114850D01*
X181900Y51816D02*
X181767Y51950D01*
X181500D01*
X181367Y51816D01*
Y51683D01*
X181500Y51550D01*
X181633D01*
X181500D01*
X181367Y51417D01*
Y51283D01*
X181500Y51150D01*
X181767D01*
X181900Y51283D01*
X181100Y51950D02*
Y51417D01*
X180834Y51150D01*
X180567Y51417D01*
Y51950D01*
X180301Y51816D02*
X180167Y51950D01*
X179901D01*
X179767Y51816D01*
Y51683D01*
X179901Y51550D01*
X180034D01*
X179901D01*
X179767Y51417D01*
Y51283D01*
X179901Y51150D01*
X180167D01*
X180301Y51283D01*
X184717Y51950D02*
X185250D01*
Y51550D01*
X184983Y51683D01*
X184850D01*
X184717Y51550D01*
Y51283D01*
X184850Y51150D01*
X185117D01*
X185250Y51283D01*
X184450Y51950D02*
Y51417D01*
X184184Y51150D01*
X183917Y51417D01*
Y51950D01*
X178800Y57553D02*
X178666Y57287D01*
X178400Y57020D01*
X178133D01*
X178000Y57153D01*
Y57420D01*
X178133Y57553D01*
X178267D01*
X178400Y57420D01*
Y57020D01*
X176250Y57553D02*
Y57020D01*
X175850D01*
X175983Y57287D01*
Y57420D01*
X175850Y57553D01*
X175583D01*
X175450Y57420D01*
Y57153D01*
X175583Y57020D01*
X173000Y57420D02*
X173800D01*
X173400Y57020D01*
Y57553D01*
X171066Y57020D02*
X171200Y57153D01*
Y57420D01*
X171066Y57553D01*
X170933D01*
X170800Y57420D01*
Y57287D01*
Y57420D01*
X170667Y57553D01*
X170533D01*
X170400Y57420D01*
Y57153D01*
X170533Y57020D01*
X167800Y57553D02*
Y57020D01*
X168333Y57553D01*
X168466D01*
X168600Y57420D01*
Y57153D01*
X168466Y57020D01*
X165350Y57153D02*
Y57420D01*
Y57287D01*
X166150D01*
X166016Y57153D01*
X163316Y57020D02*
X163450Y57153D01*
Y57420D01*
X163316Y57553D01*
X162783D01*
X162650Y57420D01*
Y57153D01*
X162783Y57020D01*
X163316D01*
X173866Y59883D02*
X174000Y59750D01*
Y59483D01*
X173866Y59350D01*
X173733D01*
X173600Y59483D01*
Y59750D01*
X173467Y59883D01*
X173333D01*
X173200Y59750D01*
Y59483D01*
X173333Y59350D01*
X173866Y60683D02*
X174000Y60550D01*
Y60283D01*
X173866Y60150D01*
X173733D01*
X173600Y60283D01*
Y60550D01*
X173467Y60683D01*
X173333D01*
X173200Y60550D01*
Y60283D01*
X173333Y60150D01*
X171450Y58800D02*
X172250D01*
X171983Y59067D01*
X172250Y59333D01*
X171450D01*
X172250Y60000D02*
Y59733D01*
X172116Y59600D01*
X171583D01*
X171450Y59733D01*
Y60000D01*
X171583Y60133D01*
X172116D01*
X172250Y60000D01*
X172116Y60933D02*
X172250Y60799D01*
Y60533D01*
X172116Y60399D01*
X171983D01*
X171850Y60533D01*
Y60799D01*
X171717Y60933D01*
X171583D01*
X171450Y60799D01*
Y60533D01*
X171583Y60399D01*
X172250Y61199D02*
Y61466D01*
Y61333D01*
X171450D01*
Y61199D01*
Y61466D01*
X169700Y58800D02*
X170500D01*
X170233Y59067D01*
X170500Y59333D01*
X169700D01*
X170500Y59600D02*
Y59866D01*
Y59733D01*
X169700D01*
Y59600D01*
Y59866D01*
X170366Y60799D02*
X170500Y60666D01*
Y60399D01*
X170366Y60266D01*
X170233D01*
X170100Y60399D01*
Y60666D01*
X169967Y60799D01*
X169833D01*
X169700Y60666D01*
Y60399D01*
X169833Y60266D01*
X170500Y61466D02*
Y61199D01*
X170366Y61066D01*
X169833D01*
X169700Y61199D01*
Y61466D01*
X169833Y61599D01*
X170366D01*
X170500Y61466D01*
X167950Y59200D02*
X168750D01*
Y59600D01*
X168616Y59733D01*
X168350D01*
X168217Y59600D01*
Y59200D01*
Y59467D02*
X167950Y59733D01*
X168616Y60533D02*
X168750Y60400D01*
Y60133D01*
X168616Y60000D01*
X168483D01*
X168350Y60133D01*
Y60400D01*
X168217Y60533D01*
X168083D01*
X167950Y60400D01*
Y60133D01*
X168083Y60000D01*
X168750Y60799D02*
Y61333D01*
Y61066D01*
X167950D01*
X166200Y58800D02*
X167000D01*
Y59200D01*
X166866Y59333D01*
X166600D01*
X166467Y59200D01*
Y58800D01*
X166866Y60133D02*
X167000Y60000D01*
Y59733D01*
X166866Y59600D01*
X166333D01*
X166200Y59733D01*
Y60000D01*
X166333Y60133D01*
X166200Y60399D02*
Y60666D01*
Y60533D01*
X167000D01*
X166866Y60399D01*
Y61066D02*
X167000Y61199D01*
Y61466D01*
X166866Y61599D01*
X166733D01*
X166600Y61466D01*
Y61333D01*
Y61466D01*
X166467Y61599D01*
X166333D01*
X166200Y61466D01*
Y61199D01*
X166333Y61066D01*
X165116Y59583D02*
X165250Y59450D01*
Y59183D01*
X165116Y59050D01*
X164983D01*
X164850Y59183D01*
Y59450D01*
X164717Y59583D01*
X164583D01*
X164450Y59450D01*
Y59183D01*
X164583Y59050D01*
X165250Y59850D02*
X164450D01*
Y60250D01*
X164583Y60383D01*
X165116D01*
X165250Y60250D01*
Y59850D01*
X164450Y60649D02*
X164983D01*
X165250Y60916D01*
X164983Y61183D01*
X164450D01*
X164850D01*
Y60649D01*
X163366Y59733D02*
X163500Y59600D01*
Y59333D01*
X163366Y59200D01*
X163233D01*
X163100Y59333D01*
Y59600D01*
X162967Y59733D01*
X162833D01*
X162700Y59600D01*
Y59333D01*
X162833Y59200D01*
X163366Y60533D02*
X163500Y60400D01*
Y60133D01*
X163366Y60000D01*
X162833D01*
X162700Y60133D01*
Y60400D01*
X162833Y60533D01*
X163500Y60799D02*
X162700D01*
Y61333D01*
X181250Y57020D02*
Y57553D01*
X181116D01*
X180583Y57020D01*
X180450D01*
X195250Y95650D02*
Y96450D01*
X194717Y95650D01*
Y96450D01*
X193917Y96316D02*
X194050Y96450D01*
X194317D01*
X194450Y96316D01*
Y95783D01*
X194317Y95650D01*
X194050D01*
X193917Y95783D01*
X195250Y93200D02*
Y94000D01*
X194717Y93200D01*
Y94000D01*
X193917Y93866D02*
X194050Y94000D01*
X194317D01*
X194450Y93866D01*
Y93333D01*
X194317Y93200D01*
X194050D01*
X193917Y93333D01*
X194717Y91400D02*
X195250D01*
Y90600D01*
X194717D01*
X195250Y91000D02*
X194983D01*
X194450Y90600D02*
Y91400D01*
X193917Y90600D01*
Y91400D01*
X193651D02*
Y90600D01*
X193251D01*
X193117Y90733D01*
Y90867D01*
X193251Y91000D01*
X193651D01*
X193251D01*
X193117Y91133D01*
Y91266D01*
X193251Y91400D01*
X193651D01*
X194717Y88850D02*
X195250D01*
Y88050D01*
X194717D01*
X195250Y88450D02*
X194983D01*
X194450Y88050D02*
Y88850D01*
X193917Y88050D01*
Y88850D01*
X193651Y88050D02*
Y88583D01*
X193384Y88850D01*
X193117Y88583D01*
Y88050D01*
Y88450D01*
X193651D01*
X195250Y85500D02*
Y86300D01*
X194850D01*
X194717Y86166D01*
Y85900D01*
X194850Y85767D01*
X195250D01*
X194450Y86300D02*
Y85500D01*
Y85900D01*
X193917D01*
Y86300D01*
Y85500D01*
X193651Y86300D02*
Y85500D01*
X193251D01*
X193117Y85633D01*
Y85767D01*
X193251Y85900D01*
X193651D01*
X193251D01*
X193117Y86033D01*
Y86166D01*
X193251Y86300D01*
X193651D01*
X195250Y82850D02*
Y83650D01*
X194850D01*
X194717Y83516D01*
Y83250D01*
X194850Y83117D01*
X195250D01*
X194450Y83650D02*
Y82850D01*
Y83250D01*
X193917D01*
Y83650D01*
Y82850D01*
X193651D02*
Y83383D01*
X193384Y83650D01*
X193117Y83383D01*
Y82850D01*
Y83250D01*
X193651D01*
X194717Y81350D02*
X195250D01*
Y80550D01*
X194717D01*
X195250Y80950D02*
X194983D01*
X194450Y80550D02*
Y81350D01*
X193917Y80550D01*
Y81350D01*
X193117Y81216D02*
X193251Y81350D01*
X193517D01*
X193651Y81216D01*
Y80683D01*
X193517Y80550D01*
X193251D01*
X193117Y80683D01*
X192851Y80550D02*
Y81350D01*
X192451D01*
X192318Y81216D01*
Y80950D01*
X192451Y80817D01*
X192851D01*
X192584D02*
X192318Y80550D01*
X194717Y78700D02*
X195250D01*
Y77900D01*
X194717D01*
X195250Y78300D02*
X194983D01*
X194450Y77900D02*
Y78700D01*
X193917Y77900D01*
Y78700D01*
X193117Y78566D02*
X193251Y78700D01*
X193517D01*
X193651Y78566D01*
Y78033D01*
X193517Y77900D01*
X193251D01*
X193117Y78033D01*
X192851Y78700D02*
Y77900D01*
X192318D01*
X94600Y64900D02*
X94067D01*
X93800Y65167D01*
X94067Y65433D01*
X94600D01*
Y65700D02*
X93800D01*
Y66100D01*
X93933Y66233D01*
X94067D01*
X94200Y66100D01*
Y65700D01*
Y66100D01*
X94333Y66233D01*
X94466D01*
X94600Y66100D01*
Y65700D01*
X93800Y66499D02*
X94333D01*
X94600Y66766D01*
X94333Y67033D01*
X93800D01*
X94200D01*
Y66499D01*
X94600Y67299D02*
Y67832D01*
Y67566D01*
X93800D01*
X61366Y73833D02*
X61500Y73700D01*
Y73433D01*
X61366Y73300D01*
X60833D01*
X60700Y73433D01*
Y73700D01*
X60833Y73833D01*
X61100D01*
Y73567D01*
X60700Y74100D02*
X61500D01*
X60700Y74633D01*
X61500D01*
Y74899D02*
X60700D01*
Y75299D01*
X60833Y75433D01*
X61366D01*
X61500Y75299D01*
Y74899D01*
X85950Y122950D02*
Y122417D01*
X85683Y122150D01*
X85417Y122417D01*
Y122950D01*
X85150D02*
Y122150D01*
X84750D01*
X84617Y122283D01*
Y122417D01*
X84750Y122550D01*
X85150D01*
X84750D01*
X84617Y122683D01*
Y122816D01*
X84750Y122950D01*
X85150D01*
X84351Y122150D02*
Y122683D01*
X84084Y122950D01*
X83817Y122683D01*
Y122150D01*
Y122550D01*
X84351D01*
X83551Y122950D02*
X83018D01*
X83284D01*
Y122150D01*
X82751Y122550D02*
X82218D01*
X86400Y96150D02*
Y95617D01*
X86133Y95350D01*
X85867Y95617D01*
Y96150D01*
X85600D02*
Y95350D01*
X85200D01*
X85067Y95483D01*
Y95617D01*
X85200Y95750D01*
X85600D01*
X85200D01*
X85067Y95883D01*
Y96016D01*
X85200Y96150D01*
X85600D01*
X84801Y95350D02*
Y95883D01*
X84534Y96150D01*
X84267Y95883D01*
Y95350D01*
Y95750D01*
X84801D01*
X84001Y96150D02*
X83468D01*
X83734D01*
Y95350D01*
X83201Y95750D02*
X82668D01*
X82934Y96016D02*
Y95483D01*
X126200Y113633D02*
Y113100D01*
X125800D01*
X125933Y113367D01*
Y113500D01*
X125800Y113633D01*
X125533D01*
X125400Y113500D01*
Y113233D01*
X125533Y113100D01*
X126200Y113900D02*
X125667D01*
X125400Y114166D01*
X125667Y114433D01*
X126200D01*
X130950Y100983D02*
Y100450D01*
X130550D01*
X130683Y100717D01*
Y100850D01*
X130550Y100983D01*
X130283D01*
X130150Y100850D01*
Y100583D01*
X130283Y100450D01*
X130950Y101250D02*
X130417D01*
X130150Y101516D01*
X130417Y101783D01*
X130950D01*
X164000Y104933D02*
Y104400D01*
X163600D01*
X163733Y104667D01*
Y104800D01*
X163600Y104933D01*
X163333D01*
X163200Y104800D01*
Y104533D01*
X163333Y104400D01*
X164000Y105200D02*
X163467D01*
X163200Y105466D01*
X163467Y105733D01*
X164000D01*
X138466Y100233D02*
X138600Y100100D01*
Y99833D01*
X138466Y99700D01*
X137933D01*
X137800Y99833D01*
Y100100D01*
X137933Y100233D01*
X138200D01*
Y99967D01*
X137800Y100500D02*
X138600D01*
X137800Y101033D01*
X138600D01*
Y101299D02*
X137800D01*
Y101699D01*
X137933Y101833D01*
X138466D01*
X138600Y101699D01*
Y101299D01*
X128266Y100233D02*
X128400Y100100D01*
Y99833D01*
X128266Y99700D01*
X127733D01*
X127600Y99833D01*
Y100100D01*
X127733Y100233D01*
X128000D01*
Y99967D01*
X127600Y100500D02*
X128400D01*
X127600Y101033D01*
X128400D01*
Y101299D02*
X127600D01*
Y101699D01*
X127733Y101833D01*
X128266D01*
X128400Y101699D01*
Y101299D01*
X199366Y129533D02*
X199500Y129400D01*
Y129133D01*
X199366Y129000D01*
X198833D01*
X198700Y129133D01*
Y129400D01*
X198833Y129533D01*
X199100D01*
Y129267D01*
X198700Y129800D02*
X199500D01*
X198700Y130333D01*
X199500D01*
Y130599D02*
X198700D01*
Y130999D01*
X198833Y131133D01*
X199366D01*
X199500Y130999D01*
Y130599D01*
X199316Y97983D02*
X199450Y97850D01*
Y97583D01*
X199316Y97450D01*
X198783D01*
X198650Y97583D01*
Y97850D01*
X198783Y97983D01*
X199050D01*
Y97717D01*
X198650Y98250D02*
X199450D01*
X198650Y98783D01*
X199450D01*
Y99049D02*
X198650D01*
Y99449D01*
X198783Y99583D01*
X199316D01*
X199450Y99449D01*
Y99049D01*
X186116Y57633D02*
X186250Y57500D01*
Y57233D01*
X186116Y57100D01*
X185583D01*
X185450Y57233D01*
Y57500D01*
X185583Y57633D01*
X185850D01*
Y57367D01*
X185450Y57900D02*
X186250D01*
X185450Y58433D01*
X186250D01*
Y58699D02*
X185450D01*
Y59099D01*
X185583Y59233D01*
X186116D01*
X186250Y59099D01*
Y58699D01*
X183666Y57633D02*
X183800Y57500D01*
Y57233D01*
X183666Y57100D01*
X183133D01*
X183000Y57233D01*
Y57500D01*
X183133Y57633D01*
X183400D01*
Y57367D01*
X183000Y57900D02*
X183800D01*
X183000Y58433D01*
X183800D01*
Y58699D02*
X183000D01*
Y59099D01*
X183133Y59233D01*
X183666D01*
X183800Y59099D01*
Y58699D01*
X137467Y53416D02*
X137600Y53550D01*
X137867D01*
X138000Y53416D01*
Y52883D01*
X137867Y52750D01*
X137600D01*
X137467Y52883D01*
Y53150D01*
X137733D01*
X137200Y52750D02*
Y53550D01*
X136667Y52750D01*
Y53550D01*
X136401D02*
Y52750D01*
X136001D01*
X135867Y52883D01*
Y53416D01*
X136001Y53550D01*
X136401D01*
X120266Y56733D02*
X120400Y56600D01*
Y56333D01*
X120266Y56200D01*
X119733D01*
X119600Y56333D01*
Y56600D01*
X119733Y56733D01*
X120000D01*
Y56467D01*
X119600Y57000D02*
X120400D01*
X119600Y57533D01*
X120400D01*
Y57799D02*
X119600D01*
Y58199D01*
X119733Y58333D01*
X120266D01*
X120400Y58199D01*
Y57799D01*
X77616Y62133D02*
X77750Y62000D01*
Y61733D01*
X77616Y61600D01*
X77083D01*
X76950Y61733D01*
Y62000D01*
X77083Y62133D01*
X77350D01*
Y61867D01*
X76950Y62400D02*
X77750D01*
X76950Y62933D01*
X77750D01*
Y63199D02*
X76950D01*
Y63599D01*
X77083Y63733D01*
X77616D01*
X77750Y63599D01*
Y63199D01*
X76666Y66183D02*
X76800Y66050D01*
Y65783D01*
X76666Y65650D01*
X76133D01*
X76000Y65783D01*
Y66050D01*
X76133Y66183D01*
X76400D01*
Y65917D01*
X76000Y66450D02*
X76800D01*
X76000Y66983D01*
X76800D01*
Y67249D02*
X76000D01*
Y67649D01*
X76133Y67783D01*
X76666D01*
X76800Y67649D01*
Y67249D01*
X76666Y73833D02*
X76800Y73700D01*
Y73433D01*
X76666Y73300D01*
X76133D01*
X76000Y73433D01*
Y73700D01*
X76133Y73833D01*
X76400D01*
Y73567D01*
X76000Y74100D02*
X76800D01*
X76000Y74633D01*
X76800D01*
Y74899D02*
X76000D01*
Y75299D01*
X76133Y75433D01*
X76666D01*
X76800Y75299D01*
Y74899D01*
X79166Y73833D02*
X79300Y73700D01*
Y73433D01*
X79166Y73300D01*
X78633D01*
X78500Y73433D01*
Y73700D01*
X78633Y73833D01*
X78900D01*
Y73567D01*
X78500Y74100D02*
X79300D01*
X78500Y74633D01*
X79300D01*
Y74899D02*
X78500D01*
Y75299D01*
X78633Y75433D01*
X79166D01*
X79300Y75299D01*
Y74899D01*
X91766Y134833D02*
X91900Y134700D01*
Y134433D01*
X91766Y134300D01*
X91233D01*
X91100Y134433D01*
Y134700D01*
X91233Y134833D01*
X91500D01*
Y134567D01*
X91100Y135100D02*
X91900D01*
X91100Y135633D01*
X91900D01*
Y135899D02*
X91100D01*
Y136299D01*
X91233Y136433D01*
X91766D01*
X91900Y136299D01*
Y135899D01*
X76566Y134833D02*
X76700Y134700D01*
Y134433D01*
X76566Y134300D01*
X76033D01*
X75900Y134433D01*
Y134700D01*
X76033Y134833D01*
X76300D01*
Y134567D01*
X75900Y135100D02*
X76700D01*
X75900Y135633D01*
X76700D01*
Y135899D02*
X75900D01*
Y136299D01*
X76033Y136433D01*
X76566D01*
X76700Y136299D01*
Y135899D01*
X63866Y127333D02*
X64000Y127200D01*
Y126933D01*
X63866Y126800D01*
X63333D01*
X63200Y126933D01*
Y127200D01*
X63333Y127333D01*
X63600D01*
Y127067D01*
X63200Y127600D02*
X64000D01*
X63200Y128133D01*
X64000D01*
Y128399D02*
X63200D01*
Y128799D01*
X63333Y128933D01*
X63866D01*
X64000Y128799D01*
Y128399D01*
X188450Y148750D02*
X189250D01*
Y149150D01*
X189116Y149283D01*
X188850D01*
X188717Y149150D01*
Y148750D01*
Y149017D02*
X188450Y149283D01*
X189116Y149550D02*
X189250Y149683D01*
Y149950D01*
X189116Y150083D01*
X188983D01*
X188850Y149950D01*
Y149816D01*
Y149950D01*
X188717Y150083D01*
X188583D01*
X188450Y149950D01*
Y149683D01*
X188583Y149550D01*
X189116Y150349D02*
X189250Y150483D01*
Y150749D01*
X189116Y150883D01*
X188983D01*
X188850Y150749D01*
X188717Y150883D01*
X188583D01*
X188450Y150749D01*
Y150483D01*
X188583Y150349D01*
X188717D01*
X188850Y150483D01*
X188983Y150349D01*
X189116D01*
X188850Y150483D02*
Y150749D01*
X119300Y112400D02*
X120100D01*
Y112800D01*
X119966Y112933D01*
X119700D01*
X119567Y112800D01*
Y112400D01*
Y112667D02*
X119300Y112933D01*
Y113600D02*
X120100D01*
X119700Y113200D01*
Y113733D01*
X119433Y113999D02*
X119300Y114133D01*
Y114399D01*
X119433Y114533D01*
X119966D01*
X120100Y114399D01*
Y114133D01*
X119966Y113999D01*
X119833D01*
X119700Y114133D01*
Y114533D01*
X110817Y109366D02*
X110950Y109500D01*
X111217D01*
X111350Y109366D01*
Y108833D01*
X111217Y108700D01*
X110950D01*
X110817Y108833D01*
X110017Y109500D02*
X110284Y109366D01*
X110550Y109100D01*
Y108833D01*
X110417Y108700D01*
X110150D01*
X110017Y108833D01*
Y108967D01*
X110150Y109100D01*
X110550D01*
X109217Y109500D02*
X109484Y109366D01*
X109751Y109100D01*
Y108833D01*
X109617Y108700D01*
X109351D01*
X109217Y108833D01*
Y108967D01*
X109351Y109100D01*
X109751D01*
X192300Y126800D02*
Y127600D01*
X191900D01*
X191767Y127466D01*
Y127200D01*
X191900Y127067D01*
X192300D01*
X192033D02*
X191767Y126800D01*
X191100D02*
Y127600D01*
X191500Y127200D01*
X190967D01*
X190701Y127466D02*
X190567Y127600D01*
X190301D01*
X190167Y127466D01*
Y127333D01*
X190301Y127200D01*
X190167Y127067D01*
Y126933D01*
X190301Y126800D01*
X190567D01*
X190701Y126933D01*
Y127067D01*
X190567Y127200D01*
X190701Y127333D01*
Y127466D01*
X190567Y127200D02*
X190301D01*
X191500Y115600D02*
Y116400D01*
X191100D01*
X190967Y116266D01*
Y116000D01*
X191100Y115867D01*
X191500D01*
X191233D02*
X190967Y115600D01*
X190300D02*
Y116400D01*
X190700Y116000D01*
X190167D01*
X189901Y116400D02*
X189367D01*
Y116266D01*
X189901Y115733D01*
Y115600D01*
X187350Y92650D02*
X188150D01*
Y93050D01*
X188016Y93183D01*
X187750D01*
X187617Y93050D01*
Y92650D01*
Y92917D02*
X187350Y93183D01*
Y93850D02*
X188150D01*
X187750Y93450D01*
Y93983D01*
X188150Y94783D02*
X188016Y94516D01*
X187750Y94249D01*
X187483D01*
X187350Y94383D01*
Y94649D01*
X187483Y94783D01*
X187617D01*
X187750Y94649D01*
Y94249D01*
X157000Y59950D02*
Y60750D01*
X156600D01*
X156467Y60616D01*
Y60350D01*
X156600Y60217D01*
X157000D01*
X156733D02*
X156467Y59950D01*
X155800D02*
Y60750D01*
X156200Y60350D01*
X155667D01*
X155001Y59950D02*
Y60750D01*
X155401Y60350D01*
X154867D01*
X187350Y88450D02*
X188150D01*
Y88850D01*
X188016Y88983D01*
X187750D01*
X187617Y88850D01*
Y88450D01*
Y88717D02*
X187350Y88983D01*
Y89650D02*
X188150D01*
X187750Y89250D01*
Y89783D01*
X188150Y90583D02*
Y90049D01*
X187750D01*
X187883Y90316D01*
Y90449D01*
X187750Y90583D01*
X187483D01*
X187350Y90449D01*
Y90183D01*
X187483Y90049D01*
X152800Y59900D02*
Y60700D01*
X152400D01*
X152267Y60566D01*
Y60300D01*
X152400Y60167D01*
X152800D01*
X152533D02*
X152267Y59900D01*
X151600D02*
Y60700D01*
X152000Y60300D01*
X151467D01*
X151201Y60566D02*
X151067Y60700D01*
X150801D01*
X150667Y60566D01*
Y60433D01*
X150801Y60300D01*
X150934D01*
X150801D01*
X150667Y60167D01*
Y60033D01*
X150801Y59900D01*
X151067D01*
X151201Y60033D01*
X157700Y139550D02*
X158500D01*
Y139950D01*
X158366Y140083D01*
X158100D01*
X157967Y139950D01*
Y139550D01*
Y139817D02*
X157700Y140083D01*
Y140750D02*
X158500D01*
X158100Y140350D01*
Y140883D01*
X157700Y141683D02*
Y141149D01*
X158233Y141683D01*
X158366D01*
X158500Y141549D01*
Y141283D01*
X158366Y141149D01*
X150200Y139350D02*
X151000D01*
Y139750D01*
X150866Y139883D01*
X150600D01*
X150467Y139750D01*
Y139350D01*
Y139617D02*
X150200Y139883D01*
Y140550D02*
X151000D01*
X150600Y140150D01*
Y140683D01*
X150200Y140949D02*
Y141216D01*
Y141083D01*
X151000D01*
X150866Y140949D01*
X154200Y146100D02*
Y146900D01*
X153800D01*
X153667Y146766D01*
Y146500D01*
X153800Y146367D01*
X154200D01*
X153933D02*
X153667Y146100D01*
X153000D02*
Y146900D01*
X153400Y146500D01*
X152867D01*
X152601Y146766D02*
X152467Y146900D01*
X152201D01*
X152067Y146766D01*
Y146233D01*
X152201Y146100D01*
X152467D01*
X152601Y146233D01*
Y146766D01*
X162350Y144600D02*
Y145400D01*
X161950D01*
X161817Y145266D01*
Y145000D01*
X161950Y144867D01*
X162350D01*
X162083D02*
X161817Y144600D01*
X161550Y145266D02*
X161417Y145400D01*
X161150D01*
X161017Y145266D01*
Y145133D01*
X161150Y145000D01*
X161284D01*
X161150D01*
X161017Y144867D01*
Y144733D01*
X161150Y144600D01*
X161417D01*
X161550Y144733D01*
X160751D02*
X160617Y144600D01*
X160351D01*
X160217Y144733D01*
Y145266D01*
X160351Y145400D01*
X160617D01*
X160751Y145266D01*
Y145133D01*
X160617Y145000D01*
X160217D01*
X190100Y148750D02*
X190900D01*
Y149150D01*
X190766Y149283D01*
X190500D01*
X190367Y149150D01*
Y148750D01*
Y149017D02*
X190100Y149283D01*
X190766Y149550D02*
X190900Y149683D01*
Y149950D01*
X190766Y150083D01*
X190633D01*
X190500Y149950D01*
Y149816D01*
Y149950D01*
X190367Y150083D01*
X190233D01*
X190100Y149950D01*
Y149683D01*
X190233Y149550D01*
X190900Y150349D02*
Y150883D01*
X190766D01*
X190233Y150349D01*
X190100D01*
X176900Y132700D02*
X177700D01*
Y133100D01*
X177566Y133233D01*
X177300D01*
X177167Y133100D01*
Y132700D01*
Y132967D02*
X176900Y133233D01*
X177566Y133500D02*
X177700Y133633D01*
Y133900D01*
X177566Y134033D01*
X177433D01*
X177300Y133900D01*
Y133766D01*
Y133900D01*
X177167Y134033D01*
X177033D01*
X176900Y133900D01*
Y133633D01*
X177033Y133500D01*
X177700Y134833D02*
Y134299D01*
X177300D01*
X177433Y134566D01*
Y134699D01*
X177300Y134833D01*
X177033D01*
X176900Y134699D01*
Y134433D01*
X177033Y134299D01*
X94100Y141300D02*
X94900D01*
Y141700D01*
X94766Y141833D01*
X94500D01*
X94367Y141700D01*
Y141300D01*
Y141567D02*
X94100Y141833D01*
X94766Y142100D02*
X94900Y142233D01*
Y142500D01*
X94766Y142633D01*
X94633D01*
X94500Y142500D01*
Y142366D01*
Y142500D01*
X94367Y142633D01*
X94233D01*
X94100Y142500D01*
Y142233D01*
X94233Y142100D01*
X94100Y143433D02*
Y142899D01*
X94633Y143433D01*
X94766D01*
X94900Y143299D01*
Y143033D01*
X94766Y142899D01*
X106100Y141200D02*
X106900D01*
Y141600D01*
X106766Y141733D01*
X106500D01*
X106367Y141600D01*
Y141200D01*
Y141467D02*
X106100Y141733D01*
X106766Y142000D02*
X106900Y142133D01*
Y142400D01*
X106766Y142533D01*
X106633D01*
X106500Y142400D01*
Y142266D01*
Y142400D01*
X106367Y142533D01*
X106233D01*
X106100Y142400D01*
Y142133D01*
X106233Y142000D01*
X106100Y142799D02*
Y143066D01*
Y142933D01*
X106900D01*
X106766Y142799D01*
X91600Y141300D02*
X92400D01*
Y141700D01*
X92266Y141833D01*
X92000D01*
X91867Y141700D01*
Y141300D01*
Y141567D02*
X91600Y141833D01*
X92266Y142100D02*
X92400Y142233D01*
Y142500D01*
X92266Y142633D01*
X92133D01*
X92000Y142500D01*
Y142366D01*
Y142500D01*
X91867Y142633D01*
X91733D01*
X91600Y142500D01*
Y142233D01*
X91733Y142100D01*
X92266Y142899D02*
X92400Y143033D01*
Y143299D01*
X92266Y143433D01*
X91733D01*
X91600Y143299D01*
Y143033D01*
X91733Y142899D01*
X92266D01*
X103600Y141200D02*
X104400D01*
Y141600D01*
X104266Y141733D01*
X104000D01*
X103867Y141600D01*
Y141200D01*
Y141467D02*
X103600Y141733D01*
Y142533D02*
Y142000D01*
X104133Y142533D01*
X104266D01*
X104400Y142400D01*
Y142133D01*
X104266Y142000D01*
X103733Y142799D02*
X103600Y142933D01*
Y143199D01*
X103733Y143333D01*
X104266D01*
X104400Y143199D01*
Y142933D01*
X104266Y142799D01*
X104133D01*
X104000Y142933D01*
Y143333D01*
X120600Y134250D02*
X121400D01*
Y134650D01*
X121266Y134783D01*
X121000D01*
X120867Y134650D01*
Y134250D01*
Y134517D02*
X120600Y134783D01*
Y135583D02*
Y135050D01*
X121133Y135583D01*
X121266D01*
X121400Y135450D01*
Y135183D01*
X121266Y135050D01*
X121400Y135849D02*
Y136383D01*
X121266D01*
X120733Y135849D01*
X120600D01*
X120000Y136700D02*
Y137500D01*
X119600D01*
X119467Y137366D01*
Y137100D01*
X119600Y136967D01*
X120000D01*
X119733D02*
X119467Y136700D01*
X118667D02*
X119200D01*
X118667Y137233D01*
Y137366D01*
X118800Y137500D01*
X119067D01*
X119200Y137366D01*
X117867Y137500D02*
X118134Y137366D01*
X118401Y137100D01*
Y136833D01*
X118267Y136700D01*
X118001D01*
X117867Y136833D01*
Y136967D01*
X118001Y137100D01*
X118401D01*
X121600Y124050D02*
Y124850D01*
X121200D01*
X121067Y124716D01*
Y124450D01*
X121200Y124317D01*
X121600D01*
X121333D02*
X121067Y124050D01*
X120267D02*
X120800D01*
X120267Y124583D01*
Y124716D01*
X120400Y124850D01*
X120667D01*
X120800Y124716D01*
X119467Y124850D02*
X120001D01*
Y124450D01*
X119734Y124583D01*
X119601D01*
X119467Y124450D01*
Y124183D01*
X119601Y124050D01*
X119867D01*
X120001Y124183D01*
X122750Y143200D02*
Y144000D01*
X122350D01*
X122217Y143866D01*
Y143600D01*
X122350Y143467D01*
X122750D01*
X122483D02*
X122217Y143200D01*
X121417D02*
X121950D01*
X121417Y143733D01*
Y143866D01*
X121550Y144000D01*
X121817D01*
X121950Y143866D01*
X120751Y143200D02*
Y144000D01*
X121151Y143600D01*
X120617D01*
X134250Y143300D02*
Y144100D01*
X133850D01*
X133717Y143966D01*
Y143700D01*
X133850Y143567D01*
X134250D01*
X133983D02*
X133717Y143300D01*
X132917D02*
X133450D01*
X132917Y143833D01*
Y143966D01*
X133050Y144100D01*
X133317D01*
X133450Y143966D01*
X132651D02*
X132517Y144100D01*
X132251D01*
X132117Y143966D01*
Y143833D01*
X132251Y143700D01*
X132384D01*
X132251D01*
X132117Y143567D01*
Y143433D01*
X132251Y143300D01*
X132517D01*
X132651Y143433D01*
X123000Y119700D02*
X123800D01*
Y120100D01*
X123666Y120233D01*
X123400D01*
X123267Y120100D01*
Y119700D01*
Y119967D02*
X123000Y120233D01*
Y121033D02*
Y120500D01*
X123533Y121033D01*
X123666D01*
X123800Y120900D01*
Y120633D01*
X123666Y120500D01*
X123000Y121833D02*
Y121299D01*
X123533Y121833D01*
X123666D01*
X123800Y121699D01*
Y121433D01*
X123666Y121299D01*
X156300Y121850D02*
X157100D01*
Y122250D01*
X156966Y122383D01*
X156700D01*
X156567Y122250D01*
Y121850D01*
Y122117D02*
X156300Y122383D01*
Y123183D02*
Y122650D01*
X156833Y123183D01*
X156966D01*
X157100Y123050D01*
Y122783D01*
X156966Y122650D01*
X156300Y123449D02*
Y123716D01*
Y123583D01*
X157100D01*
X156966Y123449D01*
X116000Y128950D02*
X116800D01*
Y129350D01*
X116666Y129483D01*
X116400D01*
X116267Y129350D01*
Y128950D01*
Y129217D02*
X116000Y129483D01*
Y130283D02*
Y129750D01*
X116533Y130283D01*
X116666D01*
X116800Y130150D01*
Y129883D01*
X116666Y129750D01*
Y130549D02*
X116800Y130683D01*
Y130949D01*
X116666Y131083D01*
X116133D01*
X116000Y130949D01*
Y130683D01*
X116133Y130549D01*
X116666D01*
X67800Y75650D02*
X68600D01*
Y76050D01*
X68466Y76183D01*
X68200D01*
X68067Y76050D01*
Y75650D01*
Y75917D02*
X67800Y76183D01*
Y76450D02*
Y76716D01*
Y76583D01*
X68600D01*
X68466Y76450D01*
X67933Y77116D02*
X67800Y77249D01*
Y77516D01*
X67933Y77649D01*
X68466D01*
X68600Y77516D01*
Y77249D01*
X68466Y77116D01*
X68333D01*
X68200Y77249D01*
Y77649D01*
X176450Y115700D02*
X177250D01*
Y116100D01*
X177116Y116233D01*
X176850D01*
X176717Y116100D01*
Y115700D01*
Y115967D02*
X176450Y116233D01*
Y116500D02*
Y116766D01*
Y116633D01*
X177250D01*
X177116Y116500D01*
X177250Y117699D02*
Y117166D01*
X176850D01*
X176983Y117433D01*
Y117566D01*
X176850Y117699D01*
X176583D01*
X176450Y117566D01*
Y117299D01*
X176583Y117166D01*
X176450Y120200D02*
X177250D01*
Y120600D01*
X177116Y120733D01*
X176850D01*
X176717Y120600D01*
Y120200D01*
Y120467D02*
X176450Y120733D01*
Y121000D02*
Y121266D01*
Y121133D01*
X177250D01*
X177116Y121000D01*
X176450Y122066D02*
X177250D01*
X176850Y121666D01*
Y122199D01*
X117550Y79350D02*
Y80150D01*
X117150D01*
X117017Y80016D01*
Y79750D01*
X117150Y79617D01*
X117550D01*
X117283D02*
X117017Y79350D01*
X116750D02*
X116484D01*
X116617D01*
Y80150D01*
X116750Y80016D01*
X116084D02*
X115951Y80150D01*
X115684D01*
X115551Y80016D01*
Y79883D01*
X115684Y79750D01*
X115817D01*
X115684D01*
X115551Y79617D01*
Y79483D01*
X115684Y79350D01*
X115951D01*
X116084Y79483D01*
X117600Y77200D02*
Y78000D01*
X117200D01*
X117067Y77866D01*
Y77600D01*
X117200Y77467D01*
X117600D01*
X117333D02*
X117067Y77200D01*
X116800D02*
X116534D01*
X116667D01*
Y78000D01*
X116800Y77866D01*
X115601Y77200D02*
X116134D01*
X115601Y77733D01*
Y77866D01*
X115734Y78000D01*
X116001D01*
X116134Y77866D01*
X139550Y69500D02*
Y70300D01*
X139150D01*
X139017Y70166D01*
Y69900D01*
X139150Y69767D01*
X139550D01*
X139283D02*
X139017Y69500D01*
X138750D02*
X138484D01*
X138617D01*
Y70300D01*
X138750Y70166D01*
X138084Y69500D02*
X137817D01*
X137951D01*
Y70300D01*
X138084Y70166D01*
X133150Y70600D02*
X133950D01*
Y71000D01*
X133816Y71133D01*
X133550D01*
X133417Y71000D01*
Y70600D01*
Y70867D02*
X133150Y71133D01*
Y71400D02*
Y71666D01*
Y71533D01*
X133950D01*
X133816Y71400D01*
Y72066D02*
X133950Y72199D01*
Y72466D01*
X133816Y72599D01*
X133283D01*
X133150Y72466D01*
Y72199D01*
X133283Y72066D01*
X133816D01*
X140450Y64350D02*
X141250D01*
Y64750D01*
X141116Y64883D01*
X140850D01*
X140717Y64750D01*
Y64350D01*
Y64617D02*
X140450Y64883D01*
X140583Y65150D02*
X140450Y65283D01*
Y65550D01*
X140583Y65683D01*
X141116D01*
X141250Y65550D01*
Y65283D01*
X141116Y65150D01*
X140983D01*
X140850Y65283D01*
Y65683D01*
X116950Y81600D02*
Y82400D01*
X116550D01*
X116417Y82266D01*
Y82000D01*
X116550Y81867D01*
X116950D01*
X116683D02*
X116417Y81600D01*
X116150Y82266D02*
X116017Y82400D01*
X115750D01*
X115617Y82266D01*
Y82133D01*
X115750Y82000D01*
X115617Y81867D01*
Y81733D01*
X115750Y81600D01*
X116017D01*
X116150Y81733D01*
Y81867D01*
X116017Y82000D01*
X116150Y82133D01*
Y82266D01*
X116017Y82000D02*
X115750D01*
X140450Y60500D02*
X141250D01*
Y60900D01*
X141116Y61033D01*
X140850D01*
X140717Y60900D01*
Y60500D01*
Y60767D02*
X140450Y61033D01*
X141250Y61300D02*
Y61833D01*
X141116D01*
X140583Y61300D01*
X140450D01*
X156450Y80750D02*
Y81550D01*
X156050D01*
X155917Y81416D01*
Y81150D01*
X156050Y81017D01*
X156450D01*
X156183D02*
X155917Y80750D01*
X155117Y81550D02*
X155384Y81416D01*
X155650Y81150D01*
Y80883D01*
X155517Y80750D01*
X155250D01*
X155117Y80883D01*
Y81017D01*
X155250Y81150D01*
X155650D01*
X156450Y82250D02*
Y83050D01*
X156050D01*
X155917Y82916D01*
Y82650D01*
X156050Y82517D01*
X156450D01*
X156183D02*
X155917Y82250D01*
X155117Y83050D02*
X155650D01*
Y82650D01*
X155384Y82783D01*
X155250D01*
X155117Y82650D01*
Y82383D01*
X155250Y82250D01*
X155517D01*
X155650Y82383D01*
X58150Y123950D02*
X58950D01*
Y124350D01*
X58816Y124483D01*
X58550D01*
X58417Y124350D01*
Y123950D01*
Y124217D02*
X58150Y124483D01*
Y125150D02*
X58950D01*
X58550Y124750D01*
Y125283D01*
X55650Y124000D02*
X56450D01*
Y124400D01*
X56316Y124533D01*
X56050D01*
X55917Y124400D01*
Y124000D01*
Y124267D02*
X55650Y124533D01*
X56316Y124800D02*
X56450Y124933D01*
Y125200D01*
X56316Y125333D01*
X56183D01*
X56050Y125200D01*
Y125066D01*
Y125200D01*
X55917Y125333D01*
X55783D01*
X55650Y125200D01*
Y124933D01*
X55783Y124800D01*
X116950Y75050D02*
Y75850D01*
X116550D01*
X116417Y75716D01*
Y75450D01*
X116550Y75317D01*
X116950D01*
X116683D02*
X116417Y75050D01*
X115617D02*
X116150D01*
X115617Y75583D01*
Y75716D01*
X115750Y75850D01*
X116017D01*
X116150Y75716D01*
X72250Y74500D02*
X73050D01*
Y74900D01*
X72916Y75033D01*
X72650D01*
X72517Y74900D01*
Y74500D01*
Y74767D02*
X72250Y75033D01*
Y75300D02*
Y75566D01*
Y75433D01*
X73050D01*
X72916Y75300D01*
X174150Y132350D02*
Y133150D01*
X173883Y132883D01*
X173617Y133150D01*
Y132350D01*
X172817D02*
X173350D01*
X172817Y132883D01*
Y133016D01*
X172950Y133150D01*
X173217D01*
X173350Y133016D01*
X170350Y132300D02*
Y133100D01*
X170083Y132833D01*
X169817Y133100D01*
Y132300D01*
X169550D02*
X169284D01*
X169417D01*
Y133100D01*
X169550Y132966D01*
X179950Y125600D02*
Y124800D01*
X179550D01*
X179417Y124933D01*
Y125466D01*
X179550Y125600D01*
X179950D01*
X179150Y125466D02*
X179017Y125600D01*
X178750D01*
X178617Y125466D01*
Y125333D01*
X178750Y125200D01*
X178884D01*
X178750D01*
X178617Y125067D01*
Y124933D01*
X178750Y124800D01*
X179017D01*
X179150Y124933D01*
X180650Y111150D02*
Y110350D01*
X180250D01*
X180117Y110483D01*
Y111016D01*
X180250Y111150D01*
X180650D01*
X179317Y110350D02*
X179850D01*
X179317Y110883D01*
Y111016D01*
X179450Y111150D01*
X179717D01*
X179850Y111016D01*
X148917Y144366D02*
X149050Y144500D01*
X149317D01*
X149450Y144366D01*
Y143833D01*
X149317Y143700D01*
X149050D01*
X148917Y143833D01*
X148117Y144500D02*
X148384Y144366D01*
X148650Y144100D01*
Y143833D01*
X148517Y143700D01*
X148250D01*
X148117Y143833D01*
Y143967D01*
X148250Y144100D01*
X148650D01*
X147317Y144500D02*
X147851D01*
Y144100D01*
X147584Y144233D01*
X147451D01*
X147317Y144100D01*
Y143833D01*
X147451Y143700D01*
X147717D01*
X147851Y143833D01*
X156267Y144316D02*
X156400Y144450D01*
X156667D01*
X156800Y144316D01*
Y143783D01*
X156667Y143650D01*
X156400D01*
X156267Y143783D01*
X155467Y144450D02*
X155734Y144316D01*
X156000Y144050D01*
Y143783D01*
X155867Y143650D01*
X155600D01*
X155467Y143783D01*
Y143917D01*
X155600Y144050D01*
X156000D01*
X154801Y143650D02*
Y144450D01*
X155201Y144050D01*
X154667D01*
X144667Y142766D02*
X144800Y142900D01*
X145067D01*
X145200Y142766D01*
Y142233D01*
X145067Y142100D01*
X144800D01*
X144667Y142233D01*
X143867Y142900D02*
X144134Y142766D01*
X144400Y142500D01*
Y142233D01*
X144267Y142100D01*
X144000D01*
X143867Y142233D01*
Y142367D01*
X144000Y142500D01*
X144400D01*
X143601Y142766D02*
X143467Y142900D01*
X143201D01*
X143067Y142766D01*
Y142633D01*
X143201Y142500D01*
X143334D01*
X143201D01*
X143067Y142367D01*
Y142233D01*
X143201Y142100D01*
X143467D01*
X143601Y142233D01*
X176516Y141883D02*
X176650Y141750D01*
Y141483D01*
X176516Y141350D01*
X175983D01*
X175850Y141483D01*
Y141750D01*
X175983Y141883D01*
X176650Y142683D02*
X176516Y142416D01*
X176250Y142150D01*
X175983D01*
X175850Y142283D01*
Y142550D01*
X175983Y142683D01*
X176117D01*
X176250Y142550D01*
Y142150D01*
X175850Y142949D02*
Y143216D01*
Y143083D01*
X176650D01*
X176516Y142949D01*
X182066Y144683D02*
X182200Y144550D01*
Y144283D01*
X182066Y144150D01*
X181533D01*
X181400Y144283D01*
Y144550D01*
X181533Y144683D01*
X182200Y145483D02*
X182066Y145216D01*
X181800Y144950D01*
X181533D01*
X181400Y145083D01*
Y145350D01*
X181533Y145483D01*
X181667D01*
X181800Y145350D01*
Y144950D01*
X182066Y145749D02*
X182200Y145883D01*
Y146149D01*
X182066Y146283D01*
X181533D01*
X181400Y146149D01*
Y145883D01*
X181533Y145749D01*
X182066D01*
X162116Y135933D02*
X162250Y135800D01*
Y135533D01*
X162116Y135400D01*
X161583D01*
X161450Y135533D01*
Y135800D01*
X161583Y135933D01*
X162250Y136733D02*
Y136200D01*
X161850D01*
X161983Y136466D01*
Y136600D01*
X161850Y136733D01*
X161583D01*
X161450Y136600D01*
Y136333D01*
X161583Y136200D01*
Y136999D02*
X161450Y137133D01*
Y137399D01*
X161583Y137533D01*
X162116D01*
X162250Y137399D01*
Y137133D01*
X162116Y136999D01*
X161983D01*
X161850Y137133D01*
Y137533D01*
X167516Y127833D02*
X167650Y127700D01*
Y127433D01*
X167516Y127300D01*
X166983D01*
X166850Y127433D01*
Y127700D01*
X166983Y127833D01*
X167650Y128633D02*
Y128100D01*
X167250D01*
X167383Y128366D01*
Y128500D01*
X167250Y128633D01*
X166983D01*
X166850Y128500D01*
Y128233D01*
X166983Y128100D01*
X167650Y129433D02*
X167516Y129166D01*
X167250Y128899D01*
X166983D01*
X166850Y129033D01*
Y129299D01*
X166983Y129433D01*
X167117D01*
X167250Y129299D01*
Y128899D01*
X87367Y145666D02*
X87500Y145800D01*
X87767D01*
X87900Y145666D01*
Y145133D01*
X87767Y145000D01*
X87500D01*
X87367Y145133D01*
X86567Y145800D02*
X87100D01*
Y145400D01*
X86834Y145533D01*
X86700D01*
X86567Y145400D01*
Y145133D01*
X86700Y145000D01*
X86967D01*
X87100Y145133D01*
X86301Y145666D02*
X86167Y145800D01*
X85901D01*
X85767Y145666D01*
Y145533D01*
X85901Y145400D01*
X86034D01*
X85901D01*
X85767Y145267D01*
Y145133D01*
X85901Y145000D01*
X86167D01*
X86301Y145133D01*
X98217Y146916D02*
X98350Y147050D01*
X98617D01*
X98750Y146916D01*
Y146383D01*
X98617Y146250D01*
X98350D01*
X98217Y146383D01*
X97417Y147050D02*
X97950D01*
Y146650D01*
X97684Y146783D01*
X97550D01*
X97417Y146650D01*
Y146383D01*
X97550Y146250D01*
X97817D01*
X97950Y146383D01*
X96617Y146250D02*
X97151D01*
X96617Y146783D01*
Y146916D01*
X96751Y147050D01*
X97017D01*
X97151Y146916D01*
X109367Y146816D02*
X109500Y146950D01*
X109767D01*
X109900Y146816D01*
Y146283D01*
X109767Y146150D01*
X109500D01*
X109367Y146283D01*
X108567Y146950D02*
X109100D01*
Y146550D01*
X108834Y146683D01*
X108700D01*
X108567Y146550D01*
Y146283D01*
X108700Y146150D01*
X108967D01*
X109100Y146283D01*
X108301Y146150D02*
X108034D01*
X108167D01*
Y146950D01*
X108301Y146816D01*
X101967Y146916D02*
X102100Y147050D01*
X102367D01*
X102500Y146916D01*
Y146383D01*
X102367Y146250D01*
X102100D01*
X101967Y146383D01*
X101167Y147050D02*
X101700D01*
Y146650D01*
X101434Y146783D01*
X101300D01*
X101167Y146650D01*
Y146383D01*
X101300Y146250D01*
X101567D01*
X101700Y146383D01*
X100901Y146916D02*
X100767Y147050D01*
X100501D01*
X100367Y146916D01*
Y146383D01*
X100501Y146250D01*
X100767D01*
X100901Y146383D01*
Y146916D01*
X90267Y141516D02*
X90400Y141650D01*
X90667D01*
X90800Y141516D01*
Y140983D01*
X90667Y140850D01*
X90400D01*
X90267Y140983D01*
X89600Y140850D02*
Y141650D01*
X90000Y141250D01*
X89467D01*
X89201Y140983D02*
X89067Y140850D01*
X88801D01*
X88667Y140983D01*
Y141516D01*
X88801Y141650D01*
X89067D01*
X89201Y141516D01*
Y141383D01*
X89067Y141250D01*
X88667D01*
X120117Y129566D02*
X120250Y129700D01*
X120517D01*
X120650Y129566D01*
Y129033D01*
X120517Y128900D01*
X120250D01*
X120117Y129033D01*
X119450Y128900D02*
Y129700D01*
X119850Y129300D01*
X119317D01*
X119051Y129700D02*
X118517D01*
Y129566D01*
X119051Y129033D01*
Y128900D01*
X155116Y122333D02*
X155250Y122200D01*
Y121933D01*
X155116Y121800D01*
X154583D01*
X154450Y121933D01*
Y122200D01*
X154583Y122333D01*
X154450Y123000D02*
X155250D01*
X154850Y122600D01*
Y123133D01*
X154450Y123399D02*
Y123666D01*
Y123533D01*
X155250D01*
X155116Y123399D01*
X119616Y127083D02*
X119750Y126950D01*
Y126683D01*
X119616Y126550D01*
X119083D01*
X118950Y126683D01*
Y126950D01*
X119083Y127083D01*
X118950Y127750D02*
X119750D01*
X119350Y127350D01*
Y127883D01*
X119616Y128149D02*
X119750Y128283D01*
Y128549D01*
X119616Y128683D01*
X119083D01*
X118950Y128549D01*
Y128283D01*
X119083Y128149D01*
X119616D01*
X65917Y74766D02*
X66050Y74900D01*
X66317D01*
X66450Y74766D01*
Y74233D01*
X66317Y74100D01*
X66050D01*
X65917Y74233D01*
X65650Y74766D02*
X65517Y74900D01*
X65250D01*
X65117Y74766D01*
Y74633D01*
X65250Y74500D01*
X65384D01*
X65250D01*
X65117Y74367D01*
Y74233D01*
X65250Y74100D01*
X65517D01*
X65650Y74233D01*
X64851Y74900D02*
X64317D01*
Y74766D01*
X64851Y74233D01*
Y74100D01*
X190766Y53933D02*
X190900Y53800D01*
Y53533D01*
X190766Y53400D01*
X190233D01*
X190100Y53533D01*
Y53800D01*
X190233Y53933D01*
X190766Y54200D02*
X190900Y54333D01*
Y54600D01*
X190766Y54733D01*
X190633D01*
X190500Y54600D01*
Y54466D01*
Y54600D01*
X190367Y54733D01*
X190233D01*
X190100Y54600D01*
Y54333D01*
X190233Y54200D01*
X190900Y55533D02*
X190766Y55266D01*
X190500Y54999D01*
X190233D01*
X190100Y55133D01*
Y55399D01*
X190233Y55533D01*
X190367D01*
X190500Y55399D01*
Y54999D01*
X179816Y58983D02*
X179950Y58850D01*
Y58583D01*
X179816Y58450D01*
X179283D01*
X179150Y58583D01*
Y58850D01*
X179283Y58983D01*
X179816Y59250D02*
X179950Y59383D01*
Y59650D01*
X179816Y59783D01*
X179683D01*
X179550Y59650D01*
Y59516D01*
Y59650D01*
X179417Y59783D01*
X179283D01*
X179150Y59650D01*
Y59383D01*
X179283Y59250D01*
X179950Y60583D02*
Y60049D01*
X179550D01*
X179683Y60316D01*
Y60449D01*
X179550Y60583D01*
X179283D01*
X179150Y60449D01*
Y60183D01*
X179283Y60049D01*
X165216Y99533D02*
X165350Y99400D01*
Y99133D01*
X165216Y99000D01*
X164683D01*
X164550Y99133D01*
Y99400D01*
X164683Y99533D01*
X165216Y99800D02*
X165350Y99933D01*
Y100200D01*
X165216Y100333D01*
X165083D01*
X164950Y100200D01*
Y100066D01*
Y100200D01*
X164817Y100333D01*
X164683D01*
X164550Y100200D01*
Y99933D01*
X164683Y99800D01*
X164550Y100999D02*
X165350D01*
X164950Y100599D01*
Y101133D01*
X129567Y109716D02*
X129700Y109850D01*
X129967D01*
X130100Y109716D01*
Y109183D01*
X129967Y109050D01*
X129700D01*
X129567Y109183D01*
X129300Y109716D02*
X129167Y109850D01*
X128900D01*
X128767Y109716D01*
Y109583D01*
X128900Y109450D01*
X129034D01*
X128900D01*
X128767Y109317D01*
Y109183D01*
X128900Y109050D01*
X129167D01*
X129300Y109183D01*
X128501Y109716D02*
X128367Y109850D01*
X128101D01*
X127967Y109716D01*
Y109583D01*
X128101Y109450D01*
X128234D01*
X128101D01*
X127967Y109317D01*
Y109183D01*
X128101Y109050D01*
X128367D01*
X128501Y109183D01*
X127267Y105966D02*
X127400Y106100D01*
X127667D01*
X127800Y105966D01*
Y105433D01*
X127667Y105300D01*
X127400D01*
X127267Y105433D01*
X127000Y105966D02*
X126867Y106100D01*
X126600D01*
X126467Y105966D01*
Y105833D01*
X126600Y105700D01*
X126734D01*
X126600D01*
X126467Y105567D01*
Y105433D01*
X126600Y105300D01*
X126867D01*
X127000Y105433D01*
X125667Y105300D02*
X126201D01*
X125667Y105833D01*
Y105966D01*
X125801Y106100D01*
X126067D01*
X126201Y105966D01*
X187367Y120766D02*
X187500Y120900D01*
X187767D01*
X187900Y120766D01*
Y120233D01*
X187767Y120100D01*
X187500D01*
X187367Y120233D01*
X187100Y120766D02*
X186967Y120900D01*
X186700D01*
X186567Y120766D01*
Y120633D01*
X186700Y120500D01*
X186834D01*
X186700D01*
X186567Y120367D01*
Y120233D01*
X186700Y120100D01*
X186967D01*
X187100Y120233D01*
X186301Y120100D02*
X186034D01*
X186167D01*
Y120900D01*
X186301Y120766D01*
X179467Y120016D02*
X179600Y120150D01*
X179867D01*
X180000Y120016D01*
Y119483D01*
X179867Y119350D01*
X179600D01*
X179467Y119483D01*
X179200Y120016D02*
X179067Y120150D01*
X178800D01*
X178667Y120016D01*
Y119883D01*
X178800Y119750D01*
X178934D01*
X178800D01*
X178667Y119617D01*
Y119483D01*
X178800Y119350D01*
X179067D01*
X179200Y119483D01*
X178401Y120016D02*
X178267Y120150D01*
X178001D01*
X177867Y120016D01*
Y119483D01*
X178001Y119350D01*
X178267D01*
X178401Y119483D01*
Y120016D01*
X187517Y123316D02*
X187650Y123450D01*
X187917D01*
X188050Y123316D01*
Y122783D01*
X187917Y122650D01*
X187650D01*
X187517Y122783D01*
X186717Y122650D02*
X187250D01*
X186717Y123183D01*
Y123316D01*
X186850Y123450D01*
X187117D01*
X187250Y123316D01*
X186451Y122783D02*
X186317Y122650D01*
X186051D01*
X185917Y122783D01*
Y123316D01*
X186051Y123450D01*
X186317D01*
X186451Y123316D01*
Y123183D01*
X186317Y123050D01*
X185917D01*
X186816Y112333D02*
X186950Y112200D01*
Y111933D01*
X186816Y111800D01*
X186283D01*
X186150Y111933D01*
Y112200D01*
X186283Y112333D01*
X186150Y113133D02*
Y112600D01*
X186683Y113133D01*
X186816D01*
X186950Y113000D01*
Y112733D01*
X186816Y112600D01*
Y113399D02*
X186950Y113533D01*
Y113799D01*
X186816Y113933D01*
X186683D01*
X186550Y113799D01*
X186417Y113933D01*
X186283D01*
X186150Y113799D01*
Y113533D01*
X186283Y113399D01*
X186417D01*
X186550Y113533D01*
X186683Y113399D01*
X186816D01*
X186550Y113533D02*
Y113799D01*
X171916Y111083D02*
X172050Y110950D01*
Y110683D01*
X171916Y110550D01*
X171383D01*
X171250Y110683D01*
Y110950D01*
X171383Y111083D01*
X171250Y111883D02*
Y111350D01*
X171783Y111883D01*
X171916D01*
X172050Y111750D01*
Y111483D01*
X171916Y111350D01*
X172050Y112149D02*
Y112683D01*
X171916D01*
X171383Y112149D01*
X171250D01*
X75316Y79733D02*
X75450Y79600D01*
Y79333D01*
X75316Y79200D01*
X74783D01*
X74650Y79333D01*
Y79600D01*
X74783Y79733D01*
X74650Y80533D02*
Y80000D01*
X75183Y80533D01*
X75316D01*
X75450Y80400D01*
Y80133D01*
X75316Y80000D01*
X75450Y81333D02*
Y80799D01*
X75050D01*
X75183Y81066D01*
Y81199D01*
X75050Y81333D01*
X74783D01*
X74650Y81199D01*
Y80933D01*
X74783Y80799D01*
X79966Y81583D02*
X80100Y81450D01*
Y81183D01*
X79966Y81050D01*
X79433D01*
X79300Y81183D01*
Y81450D01*
X79433Y81583D01*
X79300Y82383D02*
Y81850D01*
X79833Y82383D01*
X79966D01*
X80100Y82250D01*
Y81983D01*
X79966Y81850D01*
X79300Y83049D02*
X80100D01*
X79700Y82649D01*
Y83183D01*
X79916Y78283D02*
X80050Y78150D01*
Y77883D01*
X79916Y77750D01*
X79383D01*
X79250Y77883D01*
Y78150D01*
X79383Y78283D01*
X79250Y79083D02*
Y78550D01*
X79783Y79083D01*
X79916D01*
X80050Y78950D01*
Y78683D01*
X79916Y78550D01*
Y79349D02*
X80050Y79483D01*
Y79749D01*
X79916Y79883D01*
X79783D01*
X79650Y79749D01*
Y79616D01*
Y79749D01*
X79517Y79883D01*
X79383D01*
X79250Y79749D01*
Y79483D01*
X79383Y79349D01*
X75316Y82883D02*
X75450Y82750D01*
Y82483D01*
X75316Y82350D01*
X74783D01*
X74650Y82483D01*
Y82750D01*
X74783Y82883D01*
X74650Y83683D02*
Y83150D01*
X75183Y83683D01*
X75316D01*
X75450Y83550D01*
Y83283D01*
X75316Y83150D01*
X74650Y84483D02*
Y83949D01*
X75183Y84483D01*
X75316D01*
X75450Y84349D01*
Y84083D01*
X75316Y83949D01*
X89916Y81983D02*
X90050Y81850D01*
Y81583D01*
X89916Y81450D01*
X89383D01*
X89250Y81583D01*
Y81850D01*
X89383Y81983D01*
X89250Y82783D02*
Y82250D01*
X89783Y82783D01*
X89916D01*
X90050Y82650D01*
Y82383D01*
X89916Y82250D01*
X89250Y83049D02*
Y83316D01*
Y83183D01*
X90050D01*
X89916Y83049D01*
X135316Y71133D02*
X135450Y71000D01*
Y70733D01*
X135316Y70600D01*
X134783D01*
X134650Y70733D01*
Y71000D01*
X134783Y71133D01*
X134650Y71400D02*
Y71666D01*
Y71533D01*
X135450D01*
X135316Y71400D01*
X134650Y72466D02*
X135450D01*
X135050Y72066D01*
Y72599D01*
X156417Y84616D02*
X156550Y84750D01*
X156817D01*
X156950Y84616D01*
Y84083D01*
X156817Y83950D01*
X156550D01*
X156417Y84083D01*
X156150Y83950D02*
X155884D01*
X156017D01*
Y84750D01*
X156150Y84616D01*
X155484D02*
X155351Y84750D01*
X155084D01*
X154951Y84616D01*
Y84483D01*
X155084Y84350D01*
X155217D01*
X155084D01*
X154951Y84217D01*
Y84083D01*
X155084Y83950D01*
X155351D01*
X155484Y84083D01*
X130366Y59633D02*
X130500Y59500D01*
Y59233D01*
X130366Y59100D01*
X129833D01*
X129700Y59233D01*
Y59500D01*
X129833Y59633D01*
X129700Y59900D02*
Y60166D01*
Y60033D01*
X130500D01*
X130366Y59900D01*
X129700Y61099D02*
Y60566D01*
X130233Y61099D01*
X130366D01*
X130500Y60966D01*
Y60699D01*
X130366Y60566D01*
Y63583D02*
X130500Y63450D01*
Y63183D01*
X130366Y63050D01*
X129833D01*
X129700Y63183D01*
Y63450D01*
X129833Y63583D01*
X129700Y63850D02*
Y64116D01*
Y63983D01*
X130500D01*
X130366Y63850D01*
X129700Y64516D02*
Y64783D01*
Y64649D01*
X130500D01*
X130366Y64516D01*
X142617Y63516D02*
X142750Y63650D01*
X143017D01*
X143150Y63516D01*
Y62983D01*
X143017Y62850D01*
X142750D01*
X142617Y62983D01*
X141817Y63650D02*
X142350D01*
Y63250D01*
X142084Y63383D01*
X141950D01*
X141817Y63250D01*
Y62983D01*
X141950Y62850D01*
X142217D01*
X142350Y62983D01*
X81666Y143333D02*
X81800Y143200D01*
Y142933D01*
X81666Y142800D01*
X81133D01*
X81000Y142933D01*
Y143200D01*
X81133Y143333D01*
X81666Y143600D02*
X81800Y143733D01*
Y144000D01*
X81666Y144133D01*
X81533D01*
X81400Y144000D01*
Y143866D01*
Y144000D01*
X81267Y144133D01*
X81133D01*
X81000Y144000D01*
Y143733D01*
X81133Y143600D01*
X58816Y77133D02*
X58950Y77000D01*
Y76733D01*
X58816Y76600D01*
X58283D01*
X58150Y76733D01*
Y77000D01*
X58283Y77133D01*
X58150Y77400D02*
Y77666D01*
Y77533D01*
X58950D01*
X58816Y77400D01*
X72916Y77683D02*
X73050Y77550D01*
Y77283D01*
X72916Y77150D01*
X72383D01*
X72250Y77283D01*
Y77550D01*
X72383Y77683D01*
X72250Y78483D02*
Y77950D01*
X72783Y78483D01*
X72916D01*
X73050Y78350D01*
Y78083D01*
X72916Y77950D01*
X135750Y130650D02*
Y129850D01*
X135350D01*
X135217Y129983D01*
Y130117D01*
X135350Y130250D01*
X135750D01*
X135350D01*
X135217Y130383D01*
Y130516D01*
X135350Y130650D01*
X135750D01*
X134950D02*
X134684D01*
X134817D01*
Y129850D01*
X134950D01*
X134684D01*
X133751D02*
X134284D01*
X133751Y130383D01*
Y130516D01*
X133884Y130650D01*
X134151D01*
X134284Y130516D01*
X135650Y127900D02*
Y127100D01*
X135250D01*
X135117Y127233D01*
Y127367D01*
X135250Y127500D01*
X135650D01*
X135250D01*
X135117Y127633D01*
Y127766D01*
X135250Y127900D01*
X135650D01*
X134850D02*
X134584D01*
X134717D01*
Y127100D01*
X134850D01*
X134584D01*
X134184D02*
X133917D01*
X134051D01*
Y127900D01*
X134184Y127766D01*
X128500Y125600D02*
Y126133D01*
X128233Y126400D01*
X127967Y126133D01*
Y125600D01*
Y126000D01*
X128500D01*
X127700Y126400D02*
X127434D01*
X127567D01*
Y125600D01*
X127700D01*
X127434D01*
X126501D02*
X127034D01*
X126501Y126133D01*
Y126266D01*
X126634Y126400D01*
X126901D01*
X127034Y126266D01*
X135050Y122900D02*
Y123433D01*
X134783Y123700D01*
X134517Y123433D01*
Y122900D01*
Y123300D01*
X135050D01*
X134250Y123700D02*
X133984D01*
X134117D01*
Y122900D01*
X134250D01*
X133984D01*
X133584D02*
X133317D01*
X133451D01*
Y123700D01*
X133584Y123566D01*
X165350Y131250D02*
Y132050D01*
X164950D01*
X164817Y131916D01*
Y131650D01*
X164950Y131517D01*
X165350D01*
X165083D02*
X164817Y131250D01*
X164550Y131916D02*
X164417Y132050D01*
X164150D01*
X164017Y131916D01*
Y131783D01*
X164150Y131650D01*
X164284D01*
X164150D01*
X164017Y131517D01*
Y131383D01*
X164150Y131250D01*
X164417D01*
X164550Y131383D01*
X163217Y132050D02*
X163484Y131916D01*
X163751Y131650D01*
Y131383D01*
X163617Y131250D01*
X163351D01*
X163217Y131383D01*
Y131517D01*
X163351Y131650D01*
X163751D01*
D16*
X120950Y60250D02*
Y63750D01*
D17*
X56700Y120248D02*
Y121610D01*
X58900D01*
Y120248D01*
X57748Y121610D02*
Y120772D01*
X57015Y118415D02*
X56805Y118625D01*
X56700Y118939D01*
Y119358D01*
X56805Y119672D01*
X57015Y119882D01*
X57224D01*
X57434Y119777D01*
X57538Y119672D01*
X57643Y119463D01*
X57853Y118834D01*
X57957Y118625D01*
X58062Y118520D01*
X58272Y118415D01*
X58586D01*
X58795Y118625D01*
X58900Y118939D01*
Y119358D01*
X58795Y119672D01*
X58586Y119882D01*
X56700Y116562D02*
Y117923D01*
X58900D01*
Y116562D01*
X57748Y117923D02*
Y117085D01*
X56700Y113105D02*
Y114467D01*
X58900D01*
Y113105D01*
X57748Y114467D02*
Y113629D01*
X56700Y112739D02*
X58900D01*
X56700D02*
X58900Y111901D01*
X56700Y111063D02*
X58900Y111901D01*
X56700Y111063D02*
X58900D01*
X56700Y110434D02*
X58900D01*
X56700D02*
Y109492D01*
X56805Y109177D01*
X56910Y109073D01*
X57119Y108968D01*
X57329D01*
X57538Y109073D01*
X57643Y109177D01*
X57748Y109492D01*
Y110434D02*
Y109492D01*
X57853Y109177D01*
X57957Y109073D01*
X58167Y108968D01*
X58481D01*
X58691Y109073D01*
X58795Y109177D01*
X58900Y109492D01*
Y110434D01*
X56700Y107114D02*
Y108476D01*
X58900D01*
Y107114D01*
X57748Y108476D02*
Y107638D01*
X56700Y106747D02*
X58900D01*
X56700D02*
Y106014D01*
X56805Y105700D01*
X57015Y105491D01*
X57224Y105386D01*
X57538Y105281D01*
X58062D01*
X58376Y105386D01*
X58586Y105491D01*
X58795Y105700D01*
X58900Y106014D01*
Y106747D01*
X56700Y104789D02*
X58900D01*
X56700D02*
Y104056D01*
X56805Y103741D01*
X57015Y103532D01*
X57224Y103427D01*
X57538Y103322D01*
X58062D01*
X58376Y103427D01*
X58586Y103532D01*
X58795Y103741D01*
X58900Y104056D01*
Y104789D01*
X56700Y101469D02*
Y102830D01*
X58900D01*
Y101469D01*
X57748Y102830D02*
Y101992D01*
X56700Y101102D02*
X58900D01*
X56700D02*
Y100369D01*
X56805Y100055D01*
X57015Y99845D01*
X57224Y99740D01*
X57538Y99636D01*
X58062D01*
X58376Y99740D01*
X58586Y99845D01*
X58795Y100055D01*
X58900Y100369D01*
Y101102D01*
X57224Y95844D02*
X57015Y95949D01*
X56805Y96158D01*
X56700Y96368D01*
Y96787D01*
X56805Y96996D01*
X57015Y97206D01*
X57224Y97310D01*
X57538Y97415D01*
X58062D01*
X58376Y97310D01*
X58586Y97206D01*
X58795Y96996D01*
X58900Y96787D01*
Y96368D01*
X58795Y96158D01*
X58586Y95949D01*
X58376Y95844D01*
X56700Y94598D02*
X56805Y94807D01*
X57015Y95017D01*
X57224Y95121D01*
X57538Y95226D01*
X58062D01*
X58376Y95121D01*
X58586Y95017D01*
X58795Y94807D01*
X58900Y94598D01*
Y94179D01*
X58795Y93969D01*
X58586Y93760D01*
X58376Y93655D01*
X58062Y93550D01*
X57538D01*
X57224Y93655D01*
X57015Y93760D01*
X56805Y93969D01*
X56700Y94179D01*
Y94598D01*
Y93037D02*
X58900D01*
X56700D02*
X58900Y91571D01*
X56700D02*
X58900D01*
X56700Y90230D02*
X58900D01*
X56700Y90963D02*
Y89497D01*
Y89235D02*
X58900D01*
X56700D02*
Y88292D01*
X56805Y87978D01*
X56910Y87873D01*
X57119Y87769D01*
X57329D01*
X57538Y87873D01*
X57643Y87978D01*
X57748Y88292D01*
Y89235D01*
Y88502D02*
X58900Y87769D01*
X56700Y86648D02*
X56805Y86857D01*
X57015Y87067D01*
X57224Y87172D01*
X57538Y87276D01*
X58062D01*
X58376Y87172D01*
X58586Y87067D01*
X58795Y86857D01*
X58900Y86648D01*
Y86229D01*
X58795Y86020D01*
X58586Y85810D01*
X58376Y85705D01*
X58062Y85601D01*
X57538D01*
X57224Y85705D01*
X57015Y85810D01*
X56805Y86020D01*
X56700Y86229D01*
Y86648D01*
Y85087D02*
X58900D01*
Y83830D01*
X56700Y83590D02*
X58900D01*
Y82333D01*
X56700Y80730D02*
Y82092D01*
X58900D01*
Y80730D01*
X57748Y82092D02*
Y81254D01*
X56700Y80364D02*
X58900D01*
X56700D02*
Y79421D01*
X56805Y79107D01*
X56910Y79002D01*
X57119Y78897D01*
X57329D01*
X57538Y79002D01*
X57643Y79107D01*
X57748Y79421D01*
Y80364D01*
Y79630D02*
X58900Y78897D01*
D18*
X132700Y124700D02*
D03*
X129050Y124700D02*
D03*
X133473Y128950D02*
D03*
X133473Y126200D02*
D03*
D103*
X61641Y121660D02*
X63441D01*
X61641D02*
X63441Y120974D01*
X61641Y120289D02*
X63441Y120974D01*
X61641Y120289D02*
X63441D01*
Y118404D02*
X61641Y119089D01*
X63441Y119775D01*
X62841Y119518D02*
Y118661D01*
X61641Y117384D02*
X63441D01*
X61641Y117984D02*
Y116784D01*
Y115970D02*
X63441D01*
X61641Y116570D02*
Y115370D01*
Y115156D02*
X63441D01*
X61641Y113956D02*
X63441D01*
X62498Y115156D02*
Y113956D01*
X61641Y112345D02*
Y113459D01*
X63441D01*
Y112345D01*
X62498Y113459D02*
Y112773D01*
X61641Y112045D02*
X63441Y111616D01*
X61641Y111188D02*
X63441Y111616D01*
X61641Y111188D02*
X63441Y110759D01*
X61641Y110331D02*
X63441Y110759D01*
X61641Y108557D02*
X63441D01*
X61641Y107357D02*
X63441D01*
X62498Y108557D02*
Y107357D01*
X61641Y105746D02*
Y106860D01*
X63441D01*
Y105746D01*
X62498Y106860D02*
Y106175D01*
X61641Y105446D02*
X63441D01*
X61641D02*
X63441Y104247D01*
X61641D02*
X63441D01*
X62070Y102464D02*
X61898Y102550D01*
X61727Y102721D01*
X61641Y102893D01*
Y103235D01*
X61727Y103407D01*
X61898Y103578D01*
X62070Y103664D01*
X62327Y103750D01*
X62755D01*
X63012Y103664D01*
X63184Y103578D01*
X63355Y103407D01*
X63441Y103235D01*
Y102893D01*
X63355Y102721D01*
X63184Y102550D01*
X63012Y102464D01*
X62755D01*
Y102893D02*
Y102464D01*
X61641Y100939D02*
Y102053D01*
X63441D01*
Y100939D01*
X62498Y102053D02*
Y101367D01*
X61641Y100639D02*
X63441Y99953D01*
X61641Y99268D02*
X63441Y99953D01*
X61641Y97922D02*
Y99036D01*
X63441D01*
Y97922D01*
X62498Y99036D02*
Y98351D01*
X61641Y97622D02*
X63441D01*
Y96594D01*
X61641Y96397D02*
X63441D01*
X61641D02*
Y95797D01*
X61727Y95540D01*
X61898Y95368D01*
X62070Y95283D01*
X62327Y95197D01*
X62755D01*
X63012Y95283D01*
X63184Y95368D01*
X63355Y95540D01*
X63441Y95797D01*
Y96397D01*
X64521Y121232D02*
X64607Y121489D01*
X64778Y121574D01*
X64949D01*
X65121Y121489D01*
X65206Y121317D01*
X65292Y120974D01*
X65378Y120717D01*
X65549Y120546D01*
X65721Y120460D01*
X65978D01*
X66149Y120546D01*
X66235Y120632D01*
X66320Y120889D01*
Y121232D01*
X66235Y121489D01*
X66149Y121574D01*
X65978Y121660D01*
X65721D01*
X65549Y121574D01*
X65378Y121403D01*
X65292Y121146D01*
X65206Y120803D01*
X65121Y120632D01*
X64949Y120546D01*
X64778D01*
X64607Y120632D01*
X64521Y120889D01*
Y121232D01*
Y119029D02*
Y119886D01*
X65292Y119972D01*
X65206Y119886D01*
X65121Y119629D01*
Y119372D01*
X65206Y119115D01*
X65378Y118943D01*
X65635Y118858D01*
X65806D01*
X66063Y118943D01*
X66235Y119115D01*
X66320Y119372D01*
Y119629D01*
X66235Y119886D01*
X66149Y119972D01*
X65978Y120057D01*
X64521Y118284D02*
Y117341D01*
X65206Y117855D01*
Y117598D01*
X65292Y117427D01*
X65378Y117341D01*
X65635Y117255D01*
X65806D01*
X66063Y117341D01*
X66235Y117512D01*
X66320Y117769D01*
Y118026D01*
X66235Y118284D01*
X66149Y118369D01*
X65978Y118455D01*
X64521Y115995D02*
X65721Y116852D01*
Y115567D01*
X64521Y115995D02*
X66320D01*
X64521Y115079D02*
Y114136D01*
X65206Y114650D01*
Y114393D01*
X65292Y114222D01*
X65378Y114136D01*
X65635Y114050D01*
X65806D01*
X66063Y114136D01*
X66235Y114307D01*
X66320Y114564D01*
Y114821D01*
X66235Y115079D01*
X66149Y115164D01*
X65978Y115250D01*
X64521Y113476D02*
Y112533D01*
X65206Y113048D01*
Y112790D01*
X65292Y112619D01*
X65378Y112533D01*
X65635Y112448D01*
X65806D01*
X66063Y112533D01*
X66235Y112705D01*
X66320Y112962D01*
Y113219D01*
X66235Y113476D01*
X66149Y113562D01*
X65978Y113647D01*
X64864Y112045D02*
X64778Y111874D01*
X64521Y111616D01*
X66320D01*
X67400Y121660D02*
X69200D01*
X67400D02*
Y120546D01*
X68257Y121660D02*
Y120974D01*
X67400Y119226D02*
Y120340D01*
X69200D01*
Y119226D01*
X68257Y120340D02*
Y119655D01*
X67400Y118926D02*
X69200D01*
X67400D02*
Y118155D01*
X67486Y117898D01*
X67572Y117812D01*
X67743Y117727D01*
X67915D01*
X68086Y117812D01*
X68172Y117898D01*
X68257Y118155D01*
Y118926D02*
Y118155D01*
X68343Y117898D01*
X68429Y117812D01*
X68600Y117727D01*
X68857D01*
X69029Y117812D01*
X69114Y117898D01*
X69200Y118155D01*
Y118926D01*
X67829Y115824D02*
X67743D01*
X67572Y115738D01*
X67486Y115653D01*
X67400Y115481D01*
Y115139D01*
X67486Y114967D01*
X67572Y114881D01*
X67743Y114796D01*
X67915D01*
X68086Y114881D01*
X68343Y115053D01*
X69200Y115910D01*
Y114710D01*
X67400Y113793D02*
X67486Y114050D01*
X67743Y114222D01*
X68172Y114307D01*
X68429D01*
X68857Y114222D01*
X69114Y114050D01*
X69200Y113793D01*
Y113622D01*
X69114Y113365D01*
X68857Y113193D01*
X68429Y113108D01*
X68172D01*
X67743Y113193D01*
X67486Y113365D01*
X67400Y113622D01*
Y113793D01*
X67743Y112705D02*
X67657Y112533D01*
X67400Y112276D01*
X69200D01*
X68000Y110271D02*
X68257Y110357D01*
X68429Y110528D01*
X68514Y110785D01*
Y110871D01*
X68429Y111128D01*
X68257Y111299D01*
X68000Y111385D01*
X67915D01*
X67657Y111299D01*
X67486Y111128D01*
X67400Y110871D01*
Y110785D01*
X67486Y110528D01*
X67657Y110357D01*
X68000Y110271D01*
X68429D01*
X68857Y110357D01*
X69114Y110528D01*
X69200Y110785D01*
Y110957D01*
X69114Y111214D01*
X68943Y111299D01*
D161*
X173215Y130750D02*
D03*
X169875D02*
D03*
M02*
