G04*
G04 #@! TF.GenerationSoftware,Altium Limited,Altium Designer,19.0.10 (269)*
G04*
G04 Layer_Color=2752767*
%FSLAX43Y43*%
%MOMM*%
G71*
G01*
G75*
%ADD168C,0.051*%
%ADD169C,0.068*%
%ADD170C,0.034*%
D168*
X117297Y88459D02*
Y88865D01*
X117703D01*
Y88459D01*
X117297D01*
X114757D02*
Y88865D01*
X115163D01*
Y88459D01*
X114757D01*
X136837Y92297D02*
Y92703D01*
X137243D01*
Y92297D01*
X136837D01*
X134297D02*
Y92703D01*
X134703D01*
Y92297D01*
X134297D01*
X115797Y98757D02*
Y99163D01*
X116203D01*
Y98757D01*
X115797D01*
Y101297D02*
Y101703D01*
X116203D01*
Y101297D01*
X115797D01*
Y103837D02*
Y104243D01*
X116203D01*
Y103837D01*
X115797D01*
Y106377D02*
Y106783D01*
X116203D01*
Y106377D01*
X115797D01*
Y108917D02*
Y109323D01*
X116203D01*
Y108917D01*
X115797D01*
Y111457D02*
Y111863D01*
X116203D01*
Y111457D01*
X115797D01*
X125487Y111497D02*
Y111903D01*
X125893D01*
Y111497D01*
X125487D01*
X122947D02*
Y111903D01*
X123353D01*
Y111497D01*
X122947D01*
X65947Y148697D02*
Y149103D01*
X66353D01*
Y148697D01*
X65947D01*
X63407D02*
Y149103D01*
X63813D01*
Y148697D01*
X63407D01*
X165897Y102797D02*
Y103203D01*
X166303D01*
Y102797D01*
X165897D01*
X163357D02*
Y103203D01*
X163763D01*
Y102797D01*
X163357D01*
X160817D02*
Y103203D01*
X161223D01*
Y102797D01*
X160817D01*
X158277D02*
Y103203D01*
X158683D01*
Y102797D01*
X158277D01*
X155737D02*
Y103203D01*
X156143D01*
Y102797D01*
X155737D01*
X153197D02*
Y103203D01*
X153603D01*
Y102797D01*
X153197D01*
X150657D02*
Y103203D01*
X151063D01*
Y102797D01*
X150657D01*
X148117D02*
Y103203D01*
X148523D01*
Y102797D01*
X148117D01*
X145577D02*
Y103203D01*
X145983D01*
Y102797D01*
X145577D01*
X143037D02*
Y103203D01*
X143443D01*
Y102797D01*
X143037D01*
X140497D02*
Y103203D01*
X140903D01*
Y102797D01*
X140497D01*
X137957D02*
Y103203D01*
X138363D01*
Y102797D01*
X137957D01*
X135417D02*
Y103203D01*
X135823D01*
Y102797D01*
X135417D01*
X132877D02*
Y103203D01*
X133283D01*
Y102797D01*
X132877D01*
X130337D02*
Y103203D01*
X130743D01*
Y102797D01*
X130337D01*
X127797D02*
Y103203D01*
X128203D01*
Y102797D01*
X127797D01*
X84500Y120547D02*
X84297Y120953D01*
X84703D01*
X84500Y120547D01*
X85750Y93547D02*
X85547Y93953D01*
X85953D01*
X85750Y93547D01*
X83250D02*
X83047Y93953D01*
X83453D01*
X83250Y93547D01*
X95405Y58717D02*
X95507Y58818D01*
X95608D01*
X95507Y58920D01*
X95608Y59022D01*
X95507D01*
X95405Y59123D01*
X95303Y59022D01*
X95202D01*
X95303Y58920D01*
X95202Y58818D01*
X95303D01*
X95405Y58717D01*
X70365D02*
X70467Y58818D01*
X70568D01*
X70467Y58920D01*
X70568Y59022D01*
X70467D01*
X70365Y59123D01*
X70263Y59022D01*
X70162D01*
X70263Y58920D01*
X70162Y58818D01*
X70263D01*
X70365Y58717D01*
X88222Y60137D02*
X88323Y60340D01*
X88222Y60543D01*
X88425Y60442D01*
X88628Y60543D01*
X88527Y60340D01*
X88628Y60137D01*
X88425Y60238D01*
X88222Y60137D01*
X77142D02*
X77243Y60340D01*
X77142Y60543D01*
X77345Y60442D01*
X77548Y60543D01*
X77447Y60340D01*
X77548Y60137D01*
X77345Y60238D01*
X77142Y60137D01*
X79912D02*
X80013Y60340D01*
X79912Y60543D01*
X80115Y60442D01*
X80318Y60543D01*
X80217Y60340D01*
X80318Y60137D01*
X80115Y60238D01*
X79912Y60137D01*
X82682D02*
X82783Y60340D01*
X82682Y60543D01*
X82885Y60442D01*
X83088Y60543D01*
X82987Y60340D01*
X83088Y60137D01*
X82885Y60238D01*
X82682Y60137D01*
X85452D02*
X85553Y60340D01*
X85452Y60543D01*
X85655Y60442D01*
X85858Y60543D01*
X85757Y60340D01*
X85858Y60137D01*
X85655Y60238D01*
X85452Y60137D01*
X78527Y57297D02*
X78628Y57500D01*
X78527Y57703D01*
X78730Y57602D01*
X78933Y57703D01*
X78832Y57500D01*
X78933Y57297D01*
X78730Y57398D01*
X78527Y57297D01*
X81297D02*
X81398Y57500D01*
X81297Y57703D01*
X81500Y57602D01*
X81703Y57703D01*
X81602Y57500D01*
X81703Y57297D01*
X81500Y57398D01*
X81297Y57297D01*
X84067D02*
X84168Y57500D01*
X84067Y57703D01*
X84270Y57602D01*
X84473Y57703D01*
X84372Y57500D01*
X84473Y57297D01*
X84270Y57398D01*
X84067Y57297D01*
X86837D02*
X86938Y57500D01*
X86837Y57703D01*
X87040Y57602D01*
X87243Y57703D01*
X87142Y57500D01*
X87243Y57297D01*
X87040Y57398D01*
X86837Y57297D01*
X116398Y53568D02*
Y53467D01*
X116602D01*
Y53568D01*
X116703D01*
Y53772D01*
X116602D01*
Y53873D01*
X116398D01*
Y53772D01*
X116297D01*
Y53568D01*
X116398D01*
X119898D02*
Y53467D01*
X120102D01*
Y53568D01*
X120203D01*
Y53772D01*
X120102D01*
Y53873D01*
X119898D01*
Y53772D01*
X119797D01*
Y53568D01*
X119898D01*
X105297Y59817D02*
X105398D01*
X105500Y59918D01*
X105602Y59817D01*
X105703D01*
Y59918D01*
X105602Y60020D01*
X105703Y60122D01*
Y60223D01*
X105602D01*
X105500Y60122D01*
X105398Y60223D01*
X105297D01*
Y60122D01*
X105398Y60020D01*
X105297Y59918D01*
Y59817D01*
Y53817D02*
X105398D01*
X105500Y53918D01*
X105602Y53817D01*
X105703D01*
Y53918D01*
X105602Y54020D01*
X105703Y54122D01*
Y54223D01*
X105602D01*
X105500Y54122D01*
X105398Y54223D01*
X105297D01*
Y54122D01*
X105398Y54020D01*
X105297Y53918D01*
Y53817D01*
X109797Y57020D02*
X110000Y57223D01*
X110203Y57020D01*
X110000Y56817D01*
X109797Y57020D01*
X162847Y53047D02*
Y53453D01*
X163253D01*
Y53047D01*
X162847D01*
Y55587D02*
Y55993D01*
X163253D01*
Y55587D01*
X162847D01*
X165387Y53047D02*
Y53453D01*
X165793D01*
Y53047D01*
X165387D01*
Y55587D02*
Y55993D01*
X165793D01*
Y55587D01*
X165387D01*
X167927Y53047D02*
Y53453D01*
X168333D01*
Y53047D01*
X167927D01*
Y55587D02*
Y55993D01*
X168333D01*
Y55587D01*
X167927D01*
X170467Y53047D02*
Y53453D01*
X170873D01*
Y53047D01*
X170467D01*
Y55587D02*
Y55993D01*
X170873D01*
Y55587D01*
X170467D01*
X173007Y53047D02*
Y53453D01*
X173413D01*
Y53047D01*
X173007D01*
Y55587D02*
Y55993D01*
X173413D01*
Y55587D01*
X173007D01*
X175547Y53047D02*
Y53453D01*
X175953D01*
Y53047D01*
X175547D01*
Y55587D02*
Y55993D01*
X175953D01*
Y55587D01*
X175547D01*
X178087Y53047D02*
Y53453D01*
X178493D01*
Y53047D01*
X178087D01*
Y55587D02*
Y55993D01*
X178493D01*
Y55587D01*
X178087D01*
X180627Y53047D02*
Y53453D01*
X181033D01*
Y53047D01*
X180627D01*
Y55587D02*
Y55993D01*
X181033D01*
Y55587D01*
X180627D01*
X185707D02*
Y55993D01*
X186113D01*
Y55587D01*
X185707D01*
Y53047D02*
Y53453D01*
X186113D01*
Y53047D01*
X185707D01*
X183167Y55587D02*
Y55993D01*
X183573D01*
Y55587D01*
X183167D01*
Y53047D02*
Y53453D01*
X183573D01*
Y53047D01*
X183167D01*
X172407Y148847D02*
Y149253D01*
X172813D01*
Y148847D01*
X172407D01*
X169867D02*
Y149253D01*
X170273D01*
Y148847D01*
X169867D01*
X167327D02*
Y149253D01*
X167733D01*
Y148847D01*
X167327D01*
X164787D02*
Y149253D01*
X165193D01*
Y148847D01*
X164787D01*
X177757Y148797D02*
Y149203D01*
X178163D01*
Y148797D01*
X177757D01*
X180297D02*
Y149203D01*
X180703D01*
Y148797D01*
X180297D01*
X182837D02*
Y149203D01*
X183243D01*
Y148797D01*
X182837D01*
X196257Y127417D02*
Y127823D01*
X196663D01*
Y127417D01*
X196257D01*
X198797D02*
Y127823D01*
X199203D01*
Y127417D01*
X198797D01*
X196257Y124877D02*
Y125283D01*
X196663D01*
Y124877D01*
X196257D01*
X198797D02*
Y125283D01*
X199203D01*
Y124877D01*
X198797D01*
X196257Y122337D02*
Y122743D01*
X196663D01*
Y122337D01*
X196257D01*
X198797D02*
Y122743D01*
X199203D01*
Y122337D01*
X198797D01*
X196257Y119797D02*
Y120203D01*
X196663D01*
Y119797D01*
X196257D01*
X198797D02*
Y120203D01*
X199203D01*
Y119797D01*
X198797D01*
X196257Y117257D02*
Y117663D01*
X196663D01*
Y117257D01*
X196257D01*
X198797D02*
Y117663D01*
X199203D01*
Y117257D01*
X198797D01*
X196257Y114717D02*
Y115123D01*
X196663D01*
Y114717D01*
X196257D01*
X198797D02*
Y115123D01*
X199203D01*
Y114717D01*
X198797D01*
X196257Y112177D02*
Y112583D01*
X196663D01*
Y112177D01*
X196257D01*
X198797D02*
Y112583D01*
X199203D01*
Y112177D01*
X198797D01*
X196257Y109637D02*
Y110043D01*
X196663D01*
Y109637D01*
X196257D01*
X198797D02*
Y110043D01*
X199203D01*
Y109637D01*
X198797D01*
X137957Y110317D02*
Y110723D01*
X138363D01*
Y110317D01*
X137957D01*
X138058Y110418D02*
Y110622D01*
X138262D01*
Y110418D01*
X138058D01*
X140497Y107777D02*
Y108183D01*
X140903D01*
Y107777D01*
X140497D01*
X140598Y107878D02*
Y108082D01*
X140802D01*
Y107878D01*
X140598D01*
X135417Y107777D02*
Y108183D01*
X135823D01*
Y107777D01*
X135417D01*
X135518Y107878D02*
Y108082D01*
X135722D01*
Y107878D01*
X135518D01*
X76310Y71587D02*
X76107Y71993D01*
X76513D01*
X76310Y71587D01*
Y71688D02*
X76208Y71892D01*
X76412D01*
X76310Y71688D01*
X73770Y71587D02*
X73567Y71993D01*
X73973D01*
X73770Y71587D01*
Y71688D02*
X73668Y71892D01*
X73872D01*
X73770Y71688D01*
X76310Y69047D02*
X76107Y69453D01*
X76513D01*
X76310Y69047D01*
Y69148D02*
X76208Y69352D01*
X76412D01*
X76310Y69148D01*
X73770Y69047D02*
X73567Y69453D01*
X73973D01*
X73770Y69047D01*
Y69148D02*
X73668Y69352D01*
X73872D01*
X73770Y69148D01*
X71230Y71587D02*
X71027Y71993D01*
X71433D01*
X71230Y71587D01*
Y71688D02*
X71128Y71892D01*
X71332D01*
X71230Y71688D01*
Y69047D02*
X71027Y69453D01*
X71433D01*
X71230Y69047D01*
Y69148D02*
X71128Y69352D01*
X71332D01*
X71230Y69148D01*
X55990Y69047D02*
X55787Y69453D01*
X56193D01*
X55990Y69047D01*
Y69148D02*
X55888Y69352D01*
X56092D01*
X55990Y69148D01*
X53450Y69047D02*
X53247Y69453D01*
X53653D01*
X53450Y69047D01*
Y69148D02*
X53348Y69352D01*
X53552D01*
X53450Y69148D01*
X58530Y69047D02*
X58327Y69453D01*
X58733D01*
X58530Y69047D01*
Y69148D02*
X58428Y69352D01*
X58632D01*
X58530Y69148D01*
X61070Y69047D02*
X60867Y69453D01*
X61273D01*
X61070Y69047D01*
Y69148D02*
X60968Y69352D01*
X61172D01*
X61070Y69148D01*
X63610Y69047D02*
X63407Y69453D01*
X63813D01*
X63610Y69047D01*
Y69148D02*
X63508Y69352D01*
X63712D01*
X63610Y69148D01*
X66150Y69047D02*
X65947Y69453D01*
X66353D01*
X66150Y69047D01*
Y69148D02*
X66048Y69352D01*
X66252D01*
X66150Y69148D01*
X68690Y69047D02*
X68487Y69453D01*
X68893D01*
X68690Y69047D01*
Y69148D02*
X68588Y69352D01*
X68792D01*
X68690Y69148D01*
X53450Y71587D02*
X53247Y71993D01*
X53653D01*
X53450Y71587D01*
Y71688D02*
X53348Y71892D01*
X53552D01*
X53450Y71688D01*
X55990Y71587D02*
X55787Y71993D01*
X56193D01*
X55990Y71587D01*
Y71688D02*
X55888Y71892D01*
X56092D01*
X55990Y71688D01*
X58530Y71587D02*
X58327Y71993D01*
X58733D01*
X58530Y71587D01*
Y71688D02*
X58428Y71892D01*
X58632D01*
X58530Y71688D01*
X61070Y71587D02*
X60867Y71993D01*
X61273D01*
X61070Y71587D01*
Y71688D02*
X60968Y71892D01*
X61172D01*
X61070Y71688D01*
X63610Y71587D02*
X63407Y71993D01*
X63813D01*
X63610Y71587D01*
Y71688D02*
X63508Y71892D01*
X63712D01*
X63610Y71688D01*
X66150Y71587D02*
X65947Y71993D01*
X66353D01*
X66150Y71587D01*
Y71688D02*
X66048Y71892D01*
X66252D01*
X66150Y71688D01*
X68690Y71587D02*
X68487Y71993D01*
X68893D01*
X68690Y71587D01*
Y71688D02*
X68588Y71892D01*
X68792D01*
X68690Y71688D01*
X91550Y71587D02*
X91347Y71993D01*
X91753D01*
X91550Y71587D01*
Y71688D02*
X91448Y71892D01*
X91652D01*
X91550Y71688D01*
X89010Y71587D02*
X88807Y71993D01*
X89213D01*
X89010Y71587D01*
Y71688D02*
X88908Y71892D01*
X89112D01*
X89010Y71688D01*
X86470Y71587D02*
X86267Y71993D01*
X86673D01*
X86470Y71587D01*
Y71688D02*
X86368Y71892D01*
X86572D01*
X86470Y71688D01*
X83930Y71587D02*
X83727Y71993D01*
X84133D01*
X83930Y71587D01*
Y71688D02*
X83828Y71892D01*
X84032D01*
X83930Y71688D01*
X81390Y71587D02*
X81187Y71993D01*
X81593D01*
X81390Y71587D01*
Y71688D02*
X81288Y71892D01*
X81492D01*
X81390Y71688D01*
X78850Y71587D02*
X78647Y71993D01*
X79053D01*
X78850Y71587D01*
Y71688D02*
X78748Y71892D01*
X78952D01*
X78850Y71688D01*
X91550Y69047D02*
X91347Y69453D01*
X91753D01*
X91550Y69047D01*
Y69148D02*
X91448Y69352D01*
X91652D01*
X91550Y69148D01*
X89010Y69047D02*
X88807Y69453D01*
X89213D01*
X89010Y69047D01*
Y69148D02*
X88908Y69352D01*
X89112D01*
X89010Y69148D01*
X86470Y69047D02*
X86267Y69453D01*
X86673D01*
X86470Y69047D01*
Y69148D02*
X86368Y69352D01*
X86572D01*
X86470Y69148D01*
X83930Y69047D02*
X83727Y69453D01*
X84133D01*
X83930Y69047D01*
Y69148D02*
X83828Y69352D01*
X84032D01*
X83930Y69148D01*
X81390Y69047D02*
X81187Y69453D01*
X81593D01*
X81390Y69047D01*
Y69148D02*
X81288Y69352D01*
X81492D01*
X81390Y69148D01*
X78850Y69047D02*
X78647Y69453D01*
X79053D01*
X78850Y69047D01*
Y69148D02*
X78748Y69352D01*
X78952D01*
X78850Y69148D01*
X94090Y69047D02*
X93887Y69453D01*
X94293D01*
X94090Y69047D01*
Y69148D02*
X93988Y69352D01*
X94192D01*
X94090Y69148D01*
Y71587D02*
X93887Y71993D01*
X94293D01*
X94090Y71587D01*
Y71688D02*
X93988Y71892D01*
X94192D01*
X94090Y71688D01*
X96630Y69047D02*
X96427Y69453D01*
X96833D01*
X96630Y69047D01*
Y69148D02*
X96528Y69352D01*
X96732D01*
X96630Y69148D01*
X99170Y69047D02*
X98967Y69453D01*
X99373D01*
X99170Y69047D01*
Y69148D02*
X99068Y69352D01*
X99272D01*
X99170Y69148D01*
X96630Y71587D02*
X96427Y71993D01*
X96833D01*
X96630Y71587D01*
Y71688D02*
X96528Y71892D01*
X96732D01*
X96630Y71688D01*
X99170Y71587D02*
X98967Y71993D01*
X99373D01*
X99170Y71587D01*
Y71688D02*
X99068Y71892D01*
X99272D01*
X99170Y71688D01*
X99170Y132587D02*
X98967Y132993D01*
X99373D01*
X99170Y132587D01*
Y132688D02*
X99068Y132892D01*
X99272D01*
X99170Y132688D01*
X96630Y132587D02*
X96427Y132993D01*
X96833D01*
X96630Y132587D01*
Y132688D02*
X96528Y132892D01*
X96732D01*
X96630Y132688D01*
X99170Y130047D02*
X98967Y130453D01*
X99373D01*
X99170Y130047D01*
Y130148D02*
X99068Y130352D01*
X99272D01*
X99170Y130148D01*
X96630Y130047D02*
X96427Y130453D01*
X96833D01*
X96630Y130047D01*
Y130148D02*
X96528Y130352D01*
X96732D01*
X96630Y130148D01*
X94090Y132587D02*
X93887Y132993D01*
X94293D01*
X94090Y132587D01*
Y132688D02*
X93988Y132892D01*
X94192D01*
X94090Y132688D01*
Y130047D02*
X93887Y130453D01*
X94293D01*
X94090Y130047D01*
Y130148D02*
X93988Y130352D01*
X94192D01*
X94090Y130148D01*
X78850Y130047D02*
X78647Y130453D01*
X79053D01*
X78850Y130047D01*
Y130148D02*
X78748Y130352D01*
X78952D01*
X78850Y130148D01*
X81390Y130047D02*
X81187Y130453D01*
X81593D01*
X81390Y130047D01*
Y130148D02*
X81288Y130352D01*
X81492D01*
X81390Y130148D01*
X83930Y130047D02*
X83727Y130453D01*
X84133D01*
X83930Y130047D01*
Y130148D02*
X83828Y130352D01*
X84032D01*
X83930Y130148D01*
X86470Y130047D02*
X86267Y130453D01*
X86673D01*
X86470Y130047D01*
Y130148D02*
X86368Y130352D01*
X86572D01*
X86470Y130148D01*
X89010Y130047D02*
X88807Y130453D01*
X89213D01*
X89010Y130047D01*
Y130148D02*
X88908Y130352D01*
X89112D01*
X89010Y130148D01*
X91550Y130047D02*
X91347Y130453D01*
X91753D01*
X91550Y130047D01*
Y130148D02*
X91448Y130352D01*
X91652D01*
X91550Y130148D01*
X78850Y132587D02*
X78647Y132993D01*
X79053D01*
X78850Y132587D01*
Y132688D02*
X78748Y132892D01*
X78952D01*
X78850Y132688D01*
X81390Y132587D02*
X81187Y132993D01*
X81593D01*
X81390Y132587D01*
Y132688D02*
X81288Y132892D01*
X81492D01*
X81390Y132688D01*
X83930Y132587D02*
X83727Y132993D01*
X84133D01*
X83930Y132587D01*
Y132688D02*
X83828Y132892D01*
X84032D01*
X83930Y132688D01*
X86470Y132587D02*
X86267Y132993D01*
X86673D01*
X86470Y132587D01*
Y132688D02*
X86368Y132892D01*
X86572D01*
X86470Y132688D01*
X89010Y132587D02*
X88807Y132993D01*
X89213D01*
X89010Y132587D01*
Y132688D02*
X88908Y132892D01*
X89112D01*
X89010Y132688D01*
X91550Y132587D02*
X91347Y132993D01*
X91753D01*
X91550Y132587D01*
Y132688D02*
X91448Y132892D01*
X91652D01*
X91550Y132688D01*
X68690Y132587D02*
X68487Y132993D01*
X68893D01*
X68690Y132587D01*
Y132688D02*
X68588Y132892D01*
X68792D01*
X68690Y132688D01*
X66150Y132587D02*
X65947Y132993D01*
X66353D01*
X66150Y132587D01*
Y132688D02*
X66048Y132892D01*
X66252D01*
X66150Y132688D01*
X63610Y132587D02*
X63407Y132993D01*
X63813D01*
X63610Y132587D01*
Y132688D02*
X63508Y132892D01*
X63712D01*
X63610Y132688D01*
X61070Y132587D02*
X60867Y132993D01*
X61273D01*
X61070Y132587D01*
Y132688D02*
X60968Y132892D01*
X61172D01*
X61070Y132688D01*
X58530Y132587D02*
X58327Y132993D01*
X58733D01*
X58530Y132587D01*
Y132688D02*
X58428Y132892D01*
X58632D01*
X58530Y132688D01*
X55990Y132587D02*
X55787Y132993D01*
X56193D01*
X55990Y132587D01*
Y132688D02*
X55888Y132892D01*
X56092D01*
X55990Y132688D01*
X53450Y132587D02*
X53247Y132993D01*
X53653D01*
X53450Y132587D01*
Y132688D02*
X53348Y132892D01*
X53552D01*
X53450Y132688D01*
X68690Y130047D02*
X68487Y130453D01*
X68893D01*
X68690Y130047D01*
Y130148D02*
X68588Y130352D01*
X68792D01*
X68690Y130148D01*
X66150Y130047D02*
X65947Y130453D01*
X66353D01*
X66150Y130047D01*
Y130148D02*
X66048Y130352D01*
X66252D01*
X66150Y130148D01*
X63610Y130047D02*
X63407Y130453D01*
X63813D01*
X63610Y130047D01*
Y130148D02*
X63508Y130352D01*
X63712D01*
X63610Y130148D01*
X61070Y130047D02*
X60867Y130453D01*
X61273D01*
X61070Y130047D01*
Y130148D02*
X60968Y130352D01*
X61172D01*
X61070Y130148D01*
X58530Y130047D02*
X58327Y130453D01*
X58733D01*
X58530Y130047D01*
Y130148D02*
X58428Y130352D01*
X58632D01*
X58530Y130148D01*
X53450Y130047D02*
X53247Y130453D01*
X53653D01*
X53450Y130047D01*
Y130148D02*
X53348Y130352D01*
X53552D01*
X53450Y130148D01*
X55990Y130047D02*
X55787Y130453D01*
X56193D01*
X55990Y130047D01*
Y130148D02*
X55888Y130352D01*
X56092D01*
X55990Y130148D01*
X71230Y130047D02*
X71027Y130453D01*
X71433D01*
X71230Y130047D01*
Y130148D02*
X71128Y130352D01*
X71332D01*
X71230Y130148D01*
Y132587D02*
X71027Y132993D01*
X71433D01*
X71230Y132587D01*
Y132688D02*
X71128Y132892D01*
X71332D01*
X71230Y132688D01*
X73770Y130047D02*
X73567Y130453D01*
X73973D01*
X73770Y130047D01*
Y130148D02*
X73668Y130352D01*
X73872D01*
X73770Y130148D01*
X76310Y130047D02*
X76107Y130453D01*
X76513D01*
X76310Y130047D01*
Y130148D02*
X76208Y130352D01*
X76412D01*
X76310Y130148D01*
X73770Y132587D02*
X73567Y132993D01*
X73973D01*
X73770Y132587D01*
Y132688D02*
X73668Y132892D01*
X73872D01*
X73770Y132688D01*
X76310Y132587D02*
X76107Y132993D01*
X76513D01*
X76310Y132587D01*
Y132688D02*
X76208Y132892D01*
X76412D01*
X76310Y132688D01*
X198797Y78137D02*
Y78543D01*
X199203D01*
Y78137D01*
X198797D01*
X196257D02*
Y78543D01*
X196663D01*
Y78137D01*
X196257D01*
X198797Y80677D02*
Y81083D01*
X199203D01*
Y80677D01*
X198797D01*
X196257D02*
Y81083D01*
X196663D01*
Y80677D01*
X196257D01*
X198797Y83217D02*
Y83623D01*
X199203D01*
Y83217D01*
X198797D01*
X196257D02*
Y83623D01*
X196663D01*
Y83217D01*
X196257D01*
X198797Y85757D02*
Y86163D01*
X199203D01*
Y85757D01*
X198797D01*
X196257D02*
Y86163D01*
X196663D01*
Y85757D01*
X196257D01*
X198797Y88297D02*
Y88703D01*
X199203D01*
Y88297D01*
X198797D01*
X196257D02*
Y88703D01*
X196663D01*
Y88297D01*
X196257D01*
X198797Y90837D02*
Y91243D01*
X199203D01*
Y90837D01*
X198797D01*
X196257D02*
Y91243D01*
X196663D01*
Y90837D01*
X196257D01*
X198797Y93377D02*
Y93783D01*
X199203D01*
Y93377D01*
X198797D01*
X196257D02*
Y93783D01*
X196663D01*
Y93377D01*
X196257D01*
X198797Y95917D02*
Y96323D01*
X199203D01*
Y95917D01*
X198797D01*
X196257D02*
Y96323D01*
X196663D01*
Y95917D01*
X196257D01*
X139387Y52917D02*
Y53323D01*
X139793D01*
Y52917D01*
X139387D01*
Y55457D02*
Y55863D01*
X139793D01*
Y55457D01*
X139387D01*
X141927Y52917D02*
Y53323D01*
X142333D01*
Y52917D01*
X141927D01*
Y55457D02*
Y55863D01*
X142333D01*
Y55457D01*
X141927D01*
X144467Y52917D02*
Y53323D01*
X144873D01*
Y52917D01*
X144467D01*
Y55457D02*
Y55863D01*
X144873D01*
Y55457D01*
X144467D01*
X147007Y52917D02*
Y53323D01*
X147413D01*
Y52917D01*
X147007D01*
Y55457D02*
Y55863D01*
X147413D01*
Y55457D01*
X147007D01*
X149547Y52917D02*
Y53323D01*
X149953D01*
Y52917D01*
X149547D01*
Y55457D02*
Y55863D01*
X149953D01*
Y55457D01*
X149547D01*
X152087Y52917D02*
Y53323D01*
X152493D01*
Y52917D01*
X152087D01*
Y55457D02*
Y55863D01*
X152493D01*
Y55457D01*
X152087D01*
X154627Y52917D02*
Y53323D01*
X155033D01*
Y52917D01*
X154627D01*
Y55457D02*
Y55863D01*
X155033D01*
Y55457D01*
X154627D01*
X157167Y52917D02*
Y53323D01*
X157573D01*
Y52917D01*
X157167D01*
Y55457D02*
Y55863D01*
X157573D01*
Y55457D01*
X157167D01*
X155327Y148697D02*
Y149103D01*
X155733D01*
Y148697D01*
X155327D01*
X157867D02*
Y149103D01*
X158273D01*
Y148697D01*
X157867D01*
X147867D02*
Y149103D01*
X148273D01*
Y148697D01*
X147867D01*
X150407D02*
Y149103D01*
X150813D01*
Y148697D01*
X150407D01*
X89278Y148797D02*
Y149203D01*
X89684D01*
Y148797D01*
X89278D01*
X91818D02*
Y149203D01*
X92224D01*
Y148797D01*
X91818D01*
X94358D02*
Y149203D01*
X94764D01*
Y148797D01*
X94358D01*
X101257D02*
Y149203D01*
X101663D01*
Y148797D01*
X101257D01*
X103797D02*
Y149203D01*
X104203D01*
Y148797D01*
X103797D01*
X106337D02*
Y149203D01*
X106743D01*
Y148797D01*
X106337D01*
X183697Y121547D02*
Y121953D01*
X184103D01*
Y121547D01*
X183697D01*
Y119007D02*
Y119413D01*
X184103D01*
Y119007D01*
X183697D01*
Y116467D02*
Y116873D01*
X184103D01*
Y116467D01*
X183697D01*
Y113927D02*
Y114333D01*
X184103D01*
Y113927D01*
X183697D01*
X81127Y148847D02*
Y149253D01*
X81533D01*
Y148847D01*
X81127D01*
X78587D02*
Y149253D01*
X78993D01*
Y148847D01*
X78587D01*
X76047D02*
Y149253D01*
X76453D01*
Y148847D01*
X76047D01*
X73507D02*
Y149253D01*
X73913D01*
Y148847D01*
X73507D01*
X120257Y148797D02*
Y149203D01*
X120663D01*
Y148797D01*
X120257D01*
X122797D02*
Y149203D01*
X123203D01*
Y148797D01*
X122797D01*
X130797D02*
Y149203D01*
X131203D01*
Y148797D01*
X130797D01*
X128257D02*
Y149203D01*
X128663D01*
Y148797D01*
X128257D01*
X192840Y139097D02*
X192942Y139198D01*
X193043D01*
X192942Y139300D01*
X193043Y139402D01*
X192942D01*
X192840Y139503D01*
X192738Y139402D01*
X192637D01*
X192738Y139300D01*
X192637Y139198D01*
X192738D01*
X192840Y139097D01*
Y139198D02*
X192891Y139249D01*
X192942D01*
X192891Y139300D01*
X192942Y139351D01*
X192891D01*
X192840Y139402D01*
X192789Y139351D01*
X192738D01*
X192789Y139300D01*
X192738Y139249D01*
X192789D01*
X192840Y139198D01*
Y62497D02*
X192942Y62598D01*
X193043D01*
X192942Y62700D01*
X193043Y62802D01*
X192942D01*
X192840Y62903D01*
X192738Y62802D01*
X192637D01*
X192738Y62700D01*
X192637Y62598D01*
X192738D01*
X192840Y62497D01*
Y62598D02*
X192891Y62649D01*
X192942D01*
X192891Y62700D01*
X192942Y62751D01*
X192891D01*
X192840Y62802D01*
X192789Y62751D01*
X192738D01*
X192789Y62700D01*
X192738Y62649D01*
X192789D01*
X192840Y62598D01*
X60160Y62497D02*
X60262Y62598D01*
X60363D01*
X60262Y62700D01*
X60363Y62802D01*
X60262D01*
X60160Y62903D01*
X60058Y62802D01*
X59957D01*
X60058Y62700D01*
X59957Y62598D01*
X60058D01*
X60160Y62497D01*
Y62598D02*
X60211Y62649D01*
X60262D01*
X60211Y62700D01*
X60262Y62751D01*
X60211D01*
X60160Y62802D01*
X60109Y62751D01*
X60058D01*
X60109Y62700D01*
X60058Y62649D01*
X60109D01*
X60160Y62598D01*
Y139097D02*
X60262Y139198D01*
X60363D01*
X60262Y139300D01*
X60363Y139402D01*
X60262D01*
X60160Y139503D01*
X60058Y139402D01*
X59957D01*
X60058Y139300D01*
X59957Y139198D01*
X60058D01*
X60160Y139097D01*
Y139198D02*
X60211Y139249D01*
X60262D01*
X60211Y139300D01*
X60262Y139351D01*
X60211D01*
X60160Y139402D01*
X60109Y139351D01*
X60058D01*
X60109Y139300D01*
X60058Y139249D01*
X60109D01*
X60160Y139198D01*
X159297Y141097D02*
X159398Y141300D01*
X159297Y141503D01*
X159500Y141402D01*
X159703Y141503D01*
X159602Y141300D01*
X159703Y141097D01*
X159500Y141198D01*
X159297Y141097D01*
X159398Y141198D02*
X159449Y141300D01*
X159398Y141402D01*
X159500Y141351D01*
X159602Y141402D01*
X159551Y141300D01*
X159602Y141198D01*
X159500Y141249D01*
X159398Y141198D01*
X159297Y139763D02*
X159398Y139967D01*
X159297Y140170D01*
X159500Y140068D01*
X159703Y140170D01*
X159602Y139967D01*
X159703Y139763D01*
X159500Y139865D01*
X159297Y139763D01*
X159398Y139865D02*
X159449Y139967D01*
X159398Y140068D01*
X159500Y140017D01*
X159602Y140068D01*
X159551Y139967D01*
X159602Y139865D01*
X159500Y139916D01*
X159398Y139865D01*
X147497Y139763D02*
X147598Y139967D01*
X147497Y140170D01*
X147700Y140068D01*
X147903Y140170D01*
X147802Y139967D01*
X147903Y139763D01*
X147700Y139865D01*
X147497Y139763D01*
X147598Y139865D02*
X147649Y139967D01*
X147598Y140068D01*
X147700Y140017D01*
X147802Y140068D01*
X147751Y139967D01*
X147802Y139865D01*
X147700Y139916D01*
X147598Y139865D01*
X147497Y141097D02*
X147598Y141300D01*
X147497Y141503D01*
X147700Y141402D01*
X147903Y141503D01*
X147802Y141300D01*
X147903Y141097D01*
X147700Y141198D01*
X147497Y141097D01*
X147598Y141198D02*
X147649Y141300D01*
X147598Y141402D01*
X147700Y141351D01*
X147802Y141402D01*
X147751Y141300D01*
X147802Y141198D01*
X147700Y141249D01*
X147598Y141198D01*
X147497Y138430D02*
X147598Y138633D01*
X147497Y138837D01*
X147700Y138735D01*
X147903Y138837D01*
X147802Y138633D01*
X147903Y138430D01*
X147700Y138532D01*
X147497Y138430D01*
X147598Y138532D02*
X147649Y138633D01*
X147598Y138735D01*
X147700Y138684D01*
X147802Y138735D01*
X147751Y138633D01*
X147802Y138532D01*
X147700Y138583D01*
X147598Y138532D01*
X147497Y137097D02*
X147598Y137300D01*
X147497Y137503D01*
X147700Y137402D01*
X147903Y137503D01*
X147802Y137300D01*
X147903Y137097D01*
X147700Y137198D01*
X147497Y137097D01*
X147598Y137198D02*
X147649Y137300D01*
X147598Y137402D01*
X147700Y137351D01*
X147802Y137402D01*
X147751Y137300D01*
X147802Y137198D01*
X147700Y137249D01*
X147598Y137198D01*
X151947Y139763D02*
X152048Y139967D01*
X151947Y140170D01*
X152150Y140068D01*
X152353Y140170D01*
X152252Y139967D01*
X152353Y139763D01*
X152150Y139865D01*
X151947Y139763D01*
X152048Y139865D02*
X152099Y139967D01*
X152048Y140068D01*
X152150Y140017D01*
X152252Y140068D01*
X152201Y139967D01*
X152252Y139865D01*
X152150Y139916D01*
X152048Y139865D01*
X151947Y141097D02*
X152048Y141300D01*
X151947Y141503D01*
X152150Y141402D01*
X152353Y141503D01*
X152252Y141300D01*
X152353Y141097D01*
X152150Y141198D01*
X151947Y141097D01*
X152048Y141198D02*
X152099Y141300D01*
X152048Y141402D01*
X152150Y141351D01*
X152252Y141402D01*
X152201Y141300D01*
X152252Y141198D01*
X152150Y141249D01*
X152048Y141198D01*
X151947Y138430D02*
X152048Y138633D01*
X151947Y138837D01*
X152150Y138735D01*
X152353Y138837D01*
X152252Y138633D01*
X152353Y138430D01*
X152150Y138532D01*
X151947Y138430D01*
X152048Y138532D02*
X152099Y138633D01*
X152048Y138735D01*
X152150Y138684D01*
X152252Y138735D01*
X152201Y138633D01*
X152252Y138532D01*
X152150Y138583D01*
X152048Y138532D01*
X151947Y137097D02*
X152048Y137300D01*
X151947Y137503D01*
X152150Y137402D01*
X152353Y137503D01*
X152252Y137300D01*
X152353Y137097D01*
X152150Y137198D01*
X151947Y137097D01*
X152048Y137198D02*
X152099Y137300D01*
X152048Y137402D01*
X152150Y137351D01*
X152252Y137402D01*
X152201Y137300D01*
X152252Y137198D01*
X152150Y137249D01*
X152048Y137198D01*
X155647Y139813D02*
X155748Y140017D01*
X155647Y140220D01*
X155850Y140118D01*
X156053Y140220D01*
X155952Y140017D01*
X156053Y139813D01*
X155850Y139915D01*
X155647Y139813D01*
X155748Y139915D02*
X155799Y140017D01*
X155748Y140118D01*
X155850Y140067D01*
X155952Y140118D01*
X155901Y140017D01*
X155952Y139915D01*
X155850Y139966D01*
X155748Y139915D01*
X155647Y141147D02*
X155748Y141350D01*
X155647Y141553D01*
X155850Y141452D01*
X156053Y141553D01*
X155952Y141350D01*
X156053Y141147D01*
X155850Y141248D01*
X155647Y141147D01*
X155748Y141248D02*
X155799Y141350D01*
X155748Y141452D01*
X155850Y141401D01*
X155952Y141452D01*
X155901Y141350D01*
X155952Y141248D01*
X155850Y141299D01*
X155748Y141248D01*
X155647Y138480D02*
X155748Y138683D01*
X155647Y138887D01*
X155850Y138785D01*
X156053Y138887D01*
X155952Y138683D01*
X156053Y138480D01*
X155850Y138582D01*
X155647Y138480D01*
X155748Y138582D02*
X155799Y138683D01*
X155748Y138785D01*
X155850Y138734D01*
X155952Y138785D01*
X155901Y138683D01*
X155952Y138582D01*
X155850Y138633D01*
X155748Y138582D01*
X155647Y137147D02*
X155748Y137350D01*
X155647Y137553D01*
X155850Y137452D01*
X156053Y137553D01*
X155952Y137350D01*
X156053Y137147D01*
X155850Y137248D01*
X155647Y137147D01*
X155748Y137248D02*
X155799Y137350D01*
X155748Y137452D01*
X155850Y137401D01*
X155952Y137452D01*
X155901Y137350D01*
X155952Y137248D01*
X155850Y137299D01*
X155748Y137248D01*
X182647Y134597D02*
X182748Y134800D01*
X182647Y135003D01*
X182850Y134902D01*
X183053Y135003D01*
X182952Y134800D01*
X183053Y134597D01*
X182850Y134698D01*
X182647Y134597D01*
X182748Y134698D02*
X182799Y134800D01*
X182748Y134902D01*
X182850Y134851D01*
X182952Y134902D01*
X182901Y134800D01*
X182952Y134698D01*
X182850Y134749D01*
X182748Y134698D01*
X182647Y135930D02*
X182748Y136133D01*
X182647Y136337D01*
X182850Y136235D01*
X183053Y136337D01*
X182952Y136133D01*
X183053Y135930D01*
X182850Y136032D01*
X182647Y135930D01*
X182748Y136032D02*
X182799Y136133D01*
X182748Y136235D01*
X182850Y136184D01*
X182952Y136235D01*
X182901Y136133D01*
X182952Y136032D01*
X182850Y136083D01*
X182748Y136032D01*
X147597Y83647D02*
X147698Y83850D01*
X147597Y84053D01*
X147800Y83952D01*
X148003Y84053D01*
X147902Y83850D01*
X148003Y83647D01*
X147800Y83748D01*
X147597Y83647D01*
X147698Y83748D02*
X147749Y83850D01*
X147698Y83952D01*
X147800Y83901D01*
X147902Y83952D01*
X147851Y83850D01*
X147902Y83748D01*
X147800Y83799D01*
X147698Y83748D01*
X143142Y83247D02*
X143243Y83450D01*
X143142Y83653D01*
X143345Y83552D01*
X143548Y83653D01*
X143447Y83450D01*
X143548Y83247D01*
X143345Y83348D01*
X143142Y83247D01*
X143243Y83348D02*
X143294Y83450D01*
X143243Y83552D01*
X143345Y83501D01*
X143447Y83552D01*
X143396Y83450D01*
X143447Y83348D01*
X143345Y83399D01*
X143243Y83348D01*
X146547Y85397D02*
X146648Y85600D01*
X146547Y85803D01*
X146750Y85702D01*
X146953Y85803D01*
X146852Y85600D01*
X146953Y85397D01*
X146750Y85498D01*
X146547Y85397D01*
X146648Y85498D02*
X146699Y85600D01*
X146648Y85702D01*
X146750Y85651D01*
X146852Y85702D01*
X146801Y85600D01*
X146852Y85498D01*
X146750Y85549D01*
X146648Y85498D01*
X145647Y84547D02*
X145748Y84750D01*
X145647Y84953D01*
X145850Y84852D01*
X146053Y84953D01*
X145952Y84750D01*
X146053Y84547D01*
X145850Y84648D01*
X145647Y84547D01*
X145748Y84648D02*
X145799Y84750D01*
X145748Y84852D01*
X145850Y84801D01*
X145952Y84852D01*
X145901Y84750D01*
X145952Y84648D01*
X145850Y84699D01*
X145748Y84648D01*
X137397Y73247D02*
X137498Y73450D01*
X137397Y73653D01*
X137600Y73552D01*
X137803Y73653D01*
X137702Y73450D01*
X137803Y73247D01*
X137600Y73348D01*
X137397Y73247D01*
X137498Y73348D02*
X137549Y73450D01*
X137498Y73552D01*
X137600Y73501D01*
X137702Y73552D01*
X137651Y73450D01*
X137702Y73348D01*
X137600Y73399D01*
X137498Y73348D01*
X121197Y83047D02*
X121298Y83250D01*
X121197Y83453D01*
X121400Y83352D01*
X121603Y83453D01*
X121502Y83250D01*
X121603Y83047D01*
X121400Y83148D01*
X121197Y83047D01*
X121298Y83148D02*
X121349Y83250D01*
X121298Y83352D01*
X121400Y83301D01*
X121502Y83352D01*
X121451Y83250D01*
X121502Y83148D01*
X121400Y83199D01*
X121298Y83148D01*
X117497Y129697D02*
X117598Y129900D01*
X117497Y130103D01*
X117700Y130002D01*
X117903Y130103D01*
X117802Y129900D01*
X117903Y129697D01*
X117700Y129798D01*
X117497Y129697D01*
X117598Y129798D02*
X117649Y129900D01*
X117598Y130002D01*
X117700Y129951D01*
X117802Y130002D01*
X117751Y129900D01*
X117802Y129798D01*
X117700Y129849D01*
X117598Y129798D01*
X111197Y133297D02*
X111298Y133500D01*
X111197Y133703D01*
X111400Y133602D01*
X111603Y133703D01*
X111502Y133500D01*
X111603Y133297D01*
X111400Y133398D01*
X111197Y133297D01*
X111298Y133398D02*
X111349Y133500D01*
X111298Y133602D01*
X111400Y133551D01*
X111502Y133602D01*
X111451Y133500D01*
X111502Y133398D01*
X111400Y133449D01*
X111298Y133398D01*
X111197Y131197D02*
X111298Y131400D01*
X111197Y131603D01*
X111400Y131502D01*
X111603Y131603D01*
X111502Y131400D01*
X111603Y131197D01*
X111400Y131298D01*
X111197Y131197D01*
X111298Y131298D02*
X111349Y131400D01*
X111298Y131502D01*
X111400Y131451D01*
X111502Y131502D01*
X111451Y131400D01*
X111502Y131298D01*
X111400Y131349D01*
X111298Y131298D01*
X113347Y129697D02*
X113448Y129900D01*
X113347Y130103D01*
X113550Y130002D01*
X113753Y130103D01*
X113652Y129900D01*
X113753Y129697D01*
X113550Y129798D01*
X113347Y129697D01*
X113448Y129798D02*
X113499Y129900D01*
X113448Y130002D01*
X113550Y129951D01*
X113652Y130002D01*
X113601Y129900D01*
X113652Y129798D01*
X113550Y129849D01*
X113448Y129798D01*
X196147Y53467D02*
X196248Y53670D01*
X196147Y53873D01*
X196350Y53772D01*
X196553Y53873D01*
X196452Y53670D01*
X196553Y53467D01*
X196350Y53568D01*
X196147Y53467D01*
X196248Y53568D02*
X196299Y53670D01*
X196248Y53772D01*
X196350Y53721D01*
X196452Y53772D01*
X196401Y53670D01*
X196452Y53568D01*
X196350Y53619D01*
X196248Y53568D01*
X199797Y56747D02*
X199898Y56950D01*
X199797Y57153D01*
X200000Y57052D01*
X200203Y57153D01*
X200102Y56950D01*
X200203Y56747D01*
X200000Y56848D01*
X199797Y56747D01*
X199898Y56848D02*
X199949Y56950D01*
X199898Y57052D01*
X200000Y57001D01*
X200102Y57052D01*
X200051Y56950D01*
X200102Y56848D01*
X200000Y56899D01*
X199898Y56848D01*
X62647Y75997D02*
X62748Y76200D01*
X62647Y76403D01*
X62850Y76302D01*
X63053Y76403D01*
X62952Y76200D01*
X63053Y75997D01*
X62850Y76098D01*
X62647Y75997D01*
X62748Y76098D02*
X62799Y76200D01*
X62748Y76302D01*
X62850Y76251D01*
X62952Y76302D01*
X62901Y76200D01*
X62952Y76098D01*
X62850Y76149D01*
X62748Y76098D01*
X163357Y144647D02*
X163458Y144850D01*
X163357Y145053D01*
X163560Y144952D01*
X163763Y145053D01*
X163662Y144850D01*
X163763Y144647D01*
X163560Y144748D01*
X163357Y144647D01*
X163458Y144748D02*
X163509Y144850D01*
X163458Y144952D01*
X163560Y144901D01*
X163662Y144952D01*
X163611Y144850D01*
X163662Y144748D01*
X163560Y144799D01*
X163458Y144748D01*
X186997Y146547D02*
X187098Y146750D01*
X186997Y146953D01*
X187200Y146852D01*
X187403Y146953D01*
X187302Y146750D01*
X187403Y146547D01*
X187200Y146648D01*
X186997Y146547D01*
X187098Y146648D02*
X187149Y146750D01*
X187098Y146852D01*
X187200Y146801D01*
X187302Y146852D01*
X187251Y146750D01*
X187302Y146648D01*
X187200Y146699D01*
X187098Y146648D01*
X188597Y120347D02*
X188698Y120550D01*
X188597Y120753D01*
X188800Y120652D01*
X189003Y120753D01*
X188902Y120550D01*
X189003Y120347D01*
X188800Y120448D01*
X188597Y120347D01*
X188698Y120448D02*
X188749Y120550D01*
X188698Y120652D01*
X188800Y120601D01*
X188902Y120652D01*
X188851Y120550D01*
X188902Y120448D01*
X188800Y120499D01*
X188698Y120448D01*
X187897Y114497D02*
X187998Y114700D01*
X187897Y114903D01*
X188100Y114802D01*
X188303Y114903D01*
X188202Y114700D01*
X188303Y114497D01*
X188100Y114598D01*
X187897Y114497D01*
X187998Y114598D02*
X188049Y114700D01*
X187998Y114802D01*
X188100Y114751D01*
X188202Y114802D01*
X188151Y114700D01*
X188202Y114598D01*
X188100Y114649D01*
X187998Y114598D01*
X168697Y71047D02*
X168798Y71250D01*
X168697Y71453D01*
X168900Y71352D01*
X169103Y71453D01*
X169002Y71250D01*
X169103Y71047D01*
X168900Y71148D01*
X168697Y71047D01*
X168798Y71148D02*
X168849Y71250D01*
X168798Y71352D01*
X168900Y71301D01*
X169002Y71352D01*
X168951Y71250D01*
X169002Y71148D01*
X168900Y71199D01*
X168798Y71148D01*
X189047Y56247D02*
X189148Y56450D01*
X189047Y56653D01*
X189250Y56552D01*
X189453Y56653D01*
X189352Y56450D01*
X189453Y56247D01*
X189250Y56348D01*
X189047Y56247D01*
X189148Y56348D02*
X189199Y56450D01*
X189148Y56552D01*
X189250Y56501D01*
X189352Y56552D01*
X189301Y56450D01*
X189352Y56348D01*
X189250Y56399D01*
X189148Y56348D01*
X142697Y68897D02*
X142798Y69100D01*
X142697Y69303D01*
X142900Y69202D01*
X143103Y69303D01*
X143002Y69100D01*
X143103Y68897D01*
X142900Y68998D01*
X142697Y68897D01*
X142798Y68998D02*
X142849Y69100D01*
X142798Y69202D01*
X142900Y69151D01*
X143002Y69202D01*
X142951Y69100D01*
X143002Y68998D01*
X142900Y69049D01*
X142798Y68998D01*
X144497Y63847D02*
X144598Y64050D01*
X144497Y64253D01*
X144700Y64152D01*
X144903Y64253D01*
X144802Y64050D01*
X144903Y63847D01*
X144700Y63948D01*
X144497Y63847D01*
X144598Y63948D02*
X144649Y64050D01*
X144598Y64152D01*
X144700Y64101D01*
X144802Y64152D01*
X144751Y64050D01*
X144802Y63948D01*
X144700Y63999D01*
X144598Y63948D01*
X153447Y79647D02*
X153548Y79850D01*
X153447Y80053D01*
X153650Y79952D01*
X153853Y80053D01*
X153752Y79850D01*
X153853Y79647D01*
X153650Y79748D01*
X153447Y79647D01*
X153548Y79748D02*
X153599Y79850D01*
X153548Y79952D01*
X153650Y79901D01*
X153752Y79952D01*
X153701Y79850D01*
X153752Y79748D01*
X153650Y79799D01*
X153548Y79748D01*
X144747Y83647D02*
X144848Y83850D01*
X144747Y84053D01*
X144950Y83952D01*
X145153Y84053D01*
X145052Y83850D01*
X145153Y83647D01*
X144950Y83748D01*
X144747Y83647D01*
X144848Y83748D02*
X144899Y83850D01*
X144848Y83952D01*
X144950Y83901D01*
X145052Y83952D01*
X145001Y83850D01*
X145052Y83748D01*
X144950Y83799D01*
X144848Y83748D01*
X144747Y82497D02*
X144848Y82700D01*
X144747Y82903D01*
X144950Y82802D01*
X145153Y82903D01*
X145052Y82700D01*
X145153Y82497D01*
X144950Y82598D01*
X144747Y82497D01*
X144848Y82598D02*
X144899Y82700D01*
X144848Y82802D01*
X144950Y82751D01*
X145052Y82802D01*
X145001Y82700D01*
X145052Y82598D01*
X144950Y82649D01*
X144848Y82598D01*
X130147Y93713D02*
X130248Y93916D01*
X130147Y94119D01*
X130350Y94018D01*
X130553Y94119D01*
X130452Y93916D01*
X130553Y93713D01*
X130350Y93814D01*
X130147Y93713D01*
X130248Y93814D02*
X130299Y93916D01*
X130248Y94018D01*
X130350Y93967D01*
X130452Y94018D01*
X130401Y93916D01*
X130452Y93814D01*
X130350Y93865D01*
X130248Y93814D01*
X133147Y89147D02*
X133248Y89350D01*
X133147Y89553D01*
X133350Y89452D01*
X133553Y89553D01*
X133452Y89350D01*
X133553Y89147D01*
X133350Y89248D01*
X133147Y89147D01*
X133248Y89248D02*
X133299Y89350D01*
X133248Y89452D01*
X133350Y89401D01*
X133452Y89452D01*
X133401Y89350D01*
X133452Y89248D01*
X133350Y89299D01*
X133248Y89248D01*
X125097Y91363D02*
X125198Y91566D01*
X125097Y91769D01*
X125300Y91668D01*
X125503Y91769D01*
X125402Y91566D01*
X125503Y91363D01*
X125300Y91464D01*
X125097Y91363D01*
X125198Y91464D02*
X125249Y91566D01*
X125198Y91668D01*
X125300Y91617D01*
X125402Y91668D01*
X125351Y91566D01*
X125402Y91464D01*
X125300Y91515D01*
X125198Y91464D01*
X126697Y106797D02*
X126798Y107000D01*
X126697Y107203D01*
X126900Y107102D01*
X127103Y107203D01*
X127002Y107000D01*
X127103Y106797D01*
X126900Y106898D01*
X126697Y106797D01*
X126798Y106898D02*
X126849Y107000D01*
X126798Y107102D01*
X126900Y107051D01*
X127002Y107102D01*
X126951Y107000D01*
X127002Y106898D01*
X126900Y106949D01*
X126798Y106898D01*
X120647Y109047D02*
X120748Y109250D01*
X120647Y109453D01*
X120850Y109352D01*
X121053Y109453D01*
X120952Y109250D01*
X121053Y109047D01*
X120850Y109148D01*
X120647Y109047D01*
X120748Y109148D02*
X120799Y109250D01*
X120748Y109352D01*
X120850Y109301D01*
X120952Y109352D01*
X120901Y109250D01*
X120952Y109148D01*
X120850Y109199D01*
X120748Y109148D01*
X112047Y110317D02*
X112148Y110520D01*
X112047Y110723D01*
X112250Y110622D01*
X112453Y110723D01*
X112352Y110520D01*
X112453Y110317D01*
X112250Y110418D01*
X112047Y110317D01*
X112148Y110418D02*
X112199Y110520D01*
X112148Y110622D01*
X112250Y110571D01*
X112352Y110622D01*
X112301Y110520D01*
X112352Y110418D01*
X112250Y110469D01*
X112148Y110418D01*
X92997Y142047D02*
X93098Y142250D01*
X92997Y142453D01*
X93200Y142352D01*
X93403Y142453D01*
X93302Y142250D01*
X93403Y142047D01*
X93200Y142148D01*
X92997Y142047D01*
X93098Y142148D02*
X93149Y142250D01*
X93098Y142352D01*
X93200Y142301D01*
X93302Y142352D01*
X93251Y142250D01*
X93302Y142148D01*
X93200Y142199D01*
X93098Y142148D01*
X86837Y144047D02*
X86938Y144250D01*
X86837Y144453D01*
X87040Y144352D01*
X87243Y144453D01*
X87142Y144250D01*
X87243Y144047D01*
X87040Y144148D01*
X86837Y144047D01*
X86938Y144148D02*
X86989Y144250D01*
X86938Y144352D01*
X87040Y144301D01*
X87142Y144352D01*
X87091Y144250D01*
X87142Y144148D01*
X87040Y144199D01*
X86938Y144148D01*
X99347Y145097D02*
X99448Y145300D01*
X99347Y145503D01*
X99550Y145402D01*
X99753Y145503D01*
X99652Y145300D01*
X99753Y145097D01*
X99550Y145198D01*
X99347Y145097D01*
X99448Y145198D02*
X99499Y145300D01*
X99448Y145402D01*
X99550Y145351D01*
X99652Y145402D01*
X99601Y145300D01*
X99652Y145198D01*
X99550Y145249D01*
X99448Y145198D01*
X110697Y143847D02*
X110798Y144050D01*
X110697Y144253D01*
X110900Y144152D01*
X111103Y144253D01*
X111002Y144050D01*
X111103Y143847D01*
X110900Y143948D01*
X110697Y143847D01*
X110798Y143948D02*
X110849Y144050D01*
X110798Y144152D01*
X110900Y144101D01*
X111002Y144152D01*
X110951Y144050D01*
X111002Y143948D01*
X110900Y143999D01*
X110798Y143948D01*
X182524Y111797D02*
X182626Y112000D01*
X182524Y112203D01*
X182727Y112102D01*
X182930Y112203D01*
X182829Y112000D01*
X182930Y111797D01*
X182727Y111898D01*
X182524Y111797D01*
X182626Y111898D02*
X182676Y112000D01*
X182626Y112102D01*
X182727Y112051D01*
X182829Y112102D01*
X182778Y112000D01*
X182829Y111898D01*
X182727Y111949D01*
X182626Y111898D01*
X176547Y124947D02*
X176648Y125150D01*
X176547Y125353D01*
X176750Y125252D01*
X176953Y125353D01*
X176852Y125150D01*
X176953Y124947D01*
X176750Y125048D01*
X176547Y124947D01*
X176648Y125048D02*
X176699Y125150D01*
X176648Y125252D01*
X176750Y125201D01*
X176852Y125252D01*
X176801Y125150D01*
X176852Y125048D01*
X176750Y125099D01*
X176648Y125048D01*
X179547Y116397D02*
X179648Y116600D01*
X179547Y116803D01*
X179750Y116702D01*
X179953Y116803D01*
X179852Y116600D01*
X179953Y116397D01*
X179750Y116498D01*
X179547Y116397D01*
X179648Y116498D02*
X179699Y116600D01*
X179648Y116702D01*
X179750Y116651D01*
X179852Y116702D01*
X179801Y116600D01*
X179852Y116498D01*
X179750Y116549D01*
X179648Y116498D01*
X127847Y76547D02*
X127948Y76750D01*
X127847Y76953D01*
X128050Y76852D01*
X128253Y76953D01*
X128152Y76750D01*
X128253Y76547D01*
X128050Y76648D01*
X127847Y76547D01*
X127948Y76648D02*
X127999Y76750D01*
X127948Y76852D01*
X128050Y76801D01*
X128152Y76852D01*
X128101Y76750D01*
X128152Y76648D01*
X128050Y76699D01*
X127948Y76648D01*
X128447Y54547D02*
X128548Y54750D01*
X128447Y54953D01*
X128650Y54852D01*
X128853Y54953D01*
X128752Y54750D01*
X128853Y54547D01*
X128650Y54648D01*
X128447Y54547D01*
X128548Y54648D02*
X128599Y54750D01*
X128548Y54852D01*
X128650Y54801D01*
X128752Y54852D01*
X128701Y54750D01*
X128752Y54648D01*
X128650Y54699D01*
X128548Y54648D01*
X128447Y66297D02*
X128548Y66500D01*
X128447Y66703D01*
X128650Y66602D01*
X128853Y66703D01*
X128752Y66500D01*
X128853Y66297D01*
X128650Y66398D01*
X128447Y66297D01*
X128548Y66398D02*
X128599Y66500D01*
X128548Y66602D01*
X128650Y66551D01*
X128752Y66602D01*
X128701Y66500D01*
X128752Y66398D01*
X128650Y66449D01*
X128548Y66398D01*
X124063Y83047D02*
X124165Y83250D01*
X124063Y83453D01*
X124267Y83352D01*
X124470Y83453D01*
X124368Y83250D01*
X124470Y83047D01*
X124267Y83148D01*
X124063Y83047D01*
X124165Y83148D02*
X124216Y83250D01*
X124165Y83352D01*
X124267Y83301D01*
X124368Y83352D01*
X124317Y83250D01*
X124368Y83148D01*
X124267Y83199D01*
X124165Y83148D01*
X122630Y83047D02*
X122732Y83250D01*
X122630Y83453D01*
X122833Y83352D01*
X123037Y83453D01*
X122935Y83250D01*
X123037Y83047D01*
X122833Y83148D01*
X122630Y83047D01*
X122732Y83148D02*
X122783Y83250D01*
X122732Y83352D01*
X122833Y83301D01*
X122935Y83352D01*
X122884Y83250D01*
X122935Y83148D01*
X122833Y83199D01*
X122732Y83148D01*
X125497Y83047D02*
X125598Y83250D01*
X125497Y83453D01*
X125700Y83352D01*
X125903Y83453D01*
X125802Y83250D01*
X125903Y83047D01*
X125700Y83148D01*
X125497Y83047D01*
X125598Y83148D02*
X125649Y83250D01*
X125598Y83352D01*
X125700Y83301D01*
X125802Y83352D01*
X125751Y83250D01*
X125802Y83148D01*
X125700Y83199D01*
X125598Y83148D01*
X149797Y87209D02*
X149898Y87412D01*
X149797Y87615D01*
X150000Y87514D01*
X150203Y87615D01*
X150102Y87412D01*
X150203Y87209D01*
X150000Y87310D01*
X149797Y87209D01*
X149898Y87310D02*
X149949Y87412D01*
X149898Y87514D01*
X150000Y87463D01*
X150102Y87514D01*
X150051Y87412D01*
X150102Y87310D01*
X150000Y87361D01*
X149898Y87310D01*
X149797Y88556D02*
X149898Y88759D01*
X149797Y88962D01*
X150000Y88861D01*
X150203Y88962D01*
X150102Y88759D01*
X150203Y88556D01*
X150000Y88657D01*
X149797Y88556D01*
X149898Y88657D02*
X149949Y88759D01*
X149898Y88861D01*
X150000Y88810D01*
X150102Y88861D01*
X150051Y88759D01*
X150102Y88657D01*
X150000Y88708D01*
X149898Y88657D01*
X149797Y89903D02*
X149898Y90106D01*
X149797Y90309D01*
X150000Y90208D01*
X150203Y90309D01*
X150102Y90106D01*
X150203Y89903D01*
X150000Y90004D01*
X149797Y89903D01*
X149898Y90004D02*
X149949Y90106D01*
X149898Y90208D01*
X150000Y90157D01*
X150102Y90208D01*
X150051Y90106D01*
X150102Y90004D01*
X150000Y90055D01*
X149898Y90004D01*
X149797Y91250D02*
X149898Y91453D01*
X149797Y91656D01*
X150000Y91555D01*
X150203Y91656D01*
X150102Y91453D01*
X150203Y91250D01*
X150000Y91351D01*
X149797Y91250D01*
X149898Y91351D02*
X149949Y91453D01*
X149898Y91555D01*
X150000Y91504D01*
X150102Y91555D01*
X150051Y91453D01*
X150102Y91351D01*
X150000Y91402D01*
X149898Y91351D01*
X149797Y92597D02*
X149898Y92800D01*
X149797Y93003D01*
X150000Y92902D01*
X150203Y93003D01*
X150102Y92800D01*
X150203Y92597D01*
X150000Y92698D01*
X149797Y92597D01*
X149898Y92698D02*
X149949Y92800D01*
X149898Y92902D01*
X150000Y92851D01*
X150102Y92902D01*
X150051Y92800D01*
X150102Y92698D01*
X150000Y92749D01*
X149898Y92698D01*
X137397Y74559D02*
X137498Y74762D01*
X137397Y74966D01*
X137600Y74864D01*
X137803Y74966D01*
X137702Y74762D01*
X137803Y74559D01*
X137600Y74661D01*
X137397Y74559D01*
X137498Y74661D02*
X137549Y74762D01*
X137498Y74864D01*
X137600Y74813D01*
X137702Y74864D01*
X137651Y74762D01*
X137702Y74661D01*
X137600Y74712D01*
X137498Y74661D01*
X137397Y75872D02*
X137498Y76075D01*
X137397Y76278D01*
X137600Y76177D01*
X137803Y76278D01*
X137702Y76075D01*
X137803Y75872D01*
X137600Y75973D01*
X137397Y75872D01*
X137498Y75973D02*
X137549Y76075D01*
X137498Y76177D01*
X137600Y76126D01*
X137702Y76177D01*
X137651Y76075D01*
X137702Y75973D01*
X137600Y76024D01*
X137498Y75973D01*
X137397Y77184D02*
X137498Y77387D01*
X137397Y77591D01*
X137600Y77489D01*
X137803Y77591D01*
X137702Y77387D01*
X137803Y77184D01*
X137600Y77286D01*
X137397Y77184D01*
X137498Y77286D02*
X137549Y77387D01*
X137498Y77489D01*
X137600Y77438D01*
X137702Y77489D01*
X137651Y77387D01*
X137702Y77286D01*
X137600Y77337D01*
X137498Y77286D01*
X137397Y78497D02*
X137498Y78700D01*
X137397Y78903D01*
X137600Y78802D01*
X137803Y78903D01*
X137702Y78700D01*
X137803Y78497D01*
X137600Y78598D01*
X137397Y78497D01*
X137498Y78598D02*
X137549Y78700D01*
X137498Y78802D01*
X137600Y78751D01*
X137702Y78802D01*
X137651Y78700D01*
X137702Y78598D01*
X137600Y78649D01*
X137498Y78598D01*
X182297Y63247D02*
X182398Y63450D01*
X182297Y63653D01*
X182500Y63552D01*
X182703Y63653D01*
X182602Y63450D01*
X182703Y63247D01*
X182500Y63348D01*
X182297Y63247D01*
X182398Y63348D02*
X182449Y63450D01*
X182398Y63552D01*
X182500Y63501D01*
X182602Y63552D01*
X182551Y63450D01*
X182602Y63348D01*
X182500Y63399D01*
X182398Y63348D01*
X162047Y88297D02*
X162148Y88500D01*
X162047Y88703D01*
X162250Y88602D01*
X162453Y88703D01*
X162352Y88500D01*
X162453Y88297D01*
X162250Y88398D01*
X162047Y88297D01*
X162148Y88398D02*
X162199Y88500D01*
X162148Y88602D01*
X162250Y88551D01*
X162352Y88602D01*
X162301Y88500D01*
X162352Y88398D01*
X162250Y88449D01*
X162148Y88398D01*
X164947Y77147D02*
X165048Y77350D01*
X164947Y77553D01*
X165150Y77452D01*
X165353Y77553D01*
X165252Y77350D01*
X165353Y77147D01*
X165150Y77248D01*
X164947Y77147D01*
X165048Y77248D02*
X165099Y77350D01*
X165048Y77452D01*
X165150Y77401D01*
X165252Y77452D01*
X165201Y77350D01*
X165252Y77248D01*
X165150Y77299D01*
X165048Y77248D01*
X182297Y77147D02*
X182398Y77350D01*
X182297Y77553D01*
X182500Y77452D01*
X182703Y77553D01*
X182602Y77350D01*
X182703Y77147D01*
X182500Y77248D01*
X182297Y77147D01*
X182398Y77248D02*
X182449Y77350D01*
X182398Y77452D01*
X182500Y77401D01*
X182602Y77452D01*
X182551Y77350D01*
X182602Y77248D01*
X182500Y77299D01*
X182398Y77248D01*
X182297Y88197D02*
X182398Y88400D01*
X182297Y88603D01*
X182500Y88502D01*
X182703Y88603D01*
X182602Y88400D01*
X182703Y88197D01*
X182500Y88298D01*
X182297Y88197D01*
X182398Y88298D02*
X182449Y88400D01*
X182398Y88502D01*
X182500Y88451D01*
X182602Y88502D01*
X182551Y88400D01*
X182602Y88298D01*
X182500Y88349D01*
X182398Y88298D01*
X173547Y88197D02*
X173648Y88400D01*
X173547Y88603D01*
X173750Y88502D01*
X173953Y88603D01*
X173852Y88400D01*
X173953Y88197D01*
X173750Y88298D01*
X173547Y88197D01*
X173648Y88298D02*
X173699Y88400D01*
X173648Y88502D01*
X173750Y88451D01*
X173852Y88502D01*
X173801Y88400D01*
X173852Y88298D01*
X173750Y88349D01*
X173648Y88298D01*
X173547Y101797D02*
X173648Y102000D01*
X173547Y102203D01*
X173750Y102102D01*
X173953Y102203D01*
X173852Y102000D01*
X173953Y101797D01*
X173750Y101898D01*
X173547Y101797D01*
X173648Y101898D02*
X173699Y102000D01*
X173648Y102102D01*
X173750Y102051D01*
X173852Y102102D01*
X173801Y102000D01*
X173852Y101898D01*
X173750Y101949D01*
X173648Y101898D01*
X186497Y107347D02*
X186598Y107550D01*
X186497Y107753D01*
X186700Y107652D01*
X186903Y107753D01*
X186802Y107550D01*
X186903Y107347D01*
X186700Y107448D01*
X186497Y107347D01*
X186598Y107448D02*
X186649Y107550D01*
X186598Y107652D01*
X186700Y107601D01*
X186802Y107652D01*
X186751Y107550D01*
X186802Y107448D01*
X186700Y107499D01*
X186598Y107448D01*
X154497Y119417D02*
X154598Y119620D01*
X154497Y119823D01*
X154700Y119722D01*
X154903Y119823D01*
X154802Y119620D01*
X154903Y119417D01*
X154700Y119518D01*
X154497Y119417D01*
X154598Y119518D02*
X154649Y119620D01*
X154598Y119722D01*
X154700Y119671D01*
X154802Y119722D01*
X154751Y119620D01*
X154802Y119518D01*
X154700Y119569D01*
X154598Y119518D01*
X144097Y131747D02*
X144198Y131950D01*
X144097Y132153D01*
X144300Y132052D01*
X144503Y132153D01*
X144402Y131950D01*
X144503Y131747D01*
X144300Y131848D01*
X144097Y131747D01*
X144198Y131848D02*
X144249Y131950D01*
X144198Y132052D01*
X144300Y132001D01*
X144402Y132052D01*
X144351Y131950D01*
X144402Y131848D01*
X144300Y131899D01*
X144198Y131848D01*
X187447Y130247D02*
X187548Y130450D01*
X187447Y130653D01*
X187650Y130552D01*
X187853Y130653D01*
X187752Y130450D01*
X187853Y130247D01*
X187650Y130348D01*
X187447Y130247D01*
X187548Y130348D02*
X187599Y130450D01*
X187548Y130552D01*
X187650Y130501D01*
X187752Y130552D01*
X187701Y130450D01*
X187752Y130348D01*
X187650Y130399D01*
X187548Y130348D01*
X144097Y130447D02*
X144198Y130650D01*
X144097Y130853D01*
X144300Y130752D01*
X144503Y130853D01*
X144402Y130650D01*
X144503Y130447D01*
X144300Y130548D01*
X144097Y130447D01*
X144198Y130548D02*
X144249Y130650D01*
X144198Y130752D01*
X144300Y130701D01*
X144402Y130752D01*
X144351Y130650D01*
X144402Y130548D01*
X144300Y130599D01*
X144198Y130548D01*
X182647Y138597D02*
X182748Y138800D01*
X182647Y139003D01*
X182850Y138902D01*
X183053Y139003D01*
X182952Y138800D01*
X183053Y138597D01*
X182850Y138698D01*
X182647Y138597D01*
X182748Y138698D02*
X182799Y138800D01*
X182748Y138902D01*
X182850Y138851D01*
X182952Y138902D01*
X182901Y138800D01*
X182952Y138698D01*
X182850Y138749D01*
X182748Y138698D01*
X182647Y137263D02*
X182748Y137467D01*
X182647Y137670D01*
X182850Y137568D01*
X183053Y137670D01*
X182952Y137467D01*
X183053Y137263D01*
X182850Y137365D01*
X182647Y137263D01*
X182748Y137365D02*
X182799Y137467D01*
X182748Y137568D01*
X182850Y137517D01*
X182952Y137568D01*
X182901Y137467D01*
X182952Y137365D01*
X182850Y137416D01*
X182748Y137365D01*
X180297Y134597D02*
X180398Y134800D01*
X180297Y135003D01*
X180500Y134902D01*
X180703Y135003D01*
X180602Y134800D01*
X180703Y134597D01*
X180500Y134698D01*
X180297Y134597D01*
X180398Y134698D02*
X180449Y134800D01*
X180398Y134902D01*
X180500Y134851D01*
X180602Y134902D01*
X180551Y134800D01*
X180602Y134698D01*
X180500Y134749D01*
X180398Y134698D01*
X199797Y144547D02*
X199898Y144750D01*
X199797Y144953D01*
X200000Y144852D01*
X200203Y144953D01*
X200102Y144750D01*
X200203Y144547D01*
X200000Y144648D01*
X199797Y144547D01*
X199898Y144648D02*
X199949Y144750D01*
X199898Y144852D01*
X200000Y144801D01*
X200102Y144852D01*
X200051Y144750D01*
X200102Y144648D01*
X200000Y144699D01*
X199898Y144648D01*
X71027Y139547D02*
X71128Y139750D01*
X71027Y139953D01*
X71230Y139852D01*
X71433Y139953D01*
X71332Y139750D01*
X71433Y139547D01*
X71230Y139648D01*
X71027Y139547D01*
X71128Y139648D02*
X71179Y139750D01*
X71128Y139852D01*
X71230Y139801D01*
X71332Y139852D01*
X71281Y139750D01*
X71332Y139648D01*
X71230Y139699D01*
X71128Y139648D01*
X96427Y137497D02*
X96528Y137700D01*
X96427Y137903D01*
X96630Y137802D01*
X96833Y137903D01*
X96732Y137700D01*
X96833Y137497D01*
X96630Y137598D01*
X96427Y137497D01*
X96528Y137598D02*
X96579Y137700D01*
X96528Y137802D01*
X96630Y137751D01*
X96732Y137802D01*
X96681Y137700D01*
X96732Y137598D01*
X96630Y137649D01*
X96528Y137598D01*
X103097Y124197D02*
X103198Y124400D01*
X103097Y124603D01*
X103300Y124502D01*
X103503Y124603D01*
X103402Y124400D01*
X103503Y124197D01*
X103300Y124298D01*
X103097Y124197D01*
X103198Y124298D02*
X103249Y124400D01*
X103198Y124502D01*
X103300Y124451D01*
X103402Y124502D01*
X103351Y124400D01*
X103402Y124298D01*
X103300Y124349D01*
X103198Y124298D01*
X110197Y89397D02*
X110298Y89600D01*
X110197Y89803D01*
X110400Y89702D01*
X110603Y89803D01*
X110502Y89600D01*
X110603Y89397D01*
X110400Y89498D01*
X110197Y89397D01*
X110298Y89498D02*
X110349Y89600D01*
X110298Y89702D01*
X110400Y89651D01*
X110502Y89702D01*
X110451Y89600D01*
X110502Y89498D01*
X110400Y89549D01*
X110298Y89498D01*
X56897Y53847D02*
X56998Y54050D01*
X56897Y54253D01*
X57100Y54152D01*
X57303Y54253D01*
X57202Y54050D01*
X57303Y53847D01*
X57100Y53948D01*
X56897Y53847D01*
X56998Y53948D02*
X57049Y54050D01*
X56998Y54152D01*
X57100Y54101D01*
X57202Y54152D01*
X57151Y54050D01*
X57202Y53948D01*
X57100Y53999D01*
X56998Y53948D01*
X73247Y118097D02*
X73348Y118300D01*
X73247Y118503D01*
X73450Y118402D01*
X73653Y118503D01*
X73552Y118300D01*
X73653Y118097D01*
X73450Y118198D01*
X73247Y118097D01*
X73348Y118198D02*
X73399Y118300D01*
X73348Y118402D01*
X73450Y118351D01*
X73552Y118402D01*
X73501Y118300D01*
X73552Y118198D01*
X73450Y118249D01*
X73348Y118198D01*
X95397Y102447D02*
X95498Y102650D01*
X95397Y102853D01*
X95600Y102752D01*
X95803Y102853D01*
X95702Y102650D01*
X95803Y102447D01*
X95600Y102548D01*
X95397Y102447D01*
X95498Y102548D02*
X95549Y102650D01*
X95498Y102752D01*
X95600Y102701D01*
X95702Y102752D01*
X95651Y102650D01*
X95702Y102548D01*
X95600Y102599D01*
X95498Y102548D01*
X95397Y89397D02*
X95498Y89600D01*
X95397Y89803D01*
X95600Y89702D01*
X95803Y89803D01*
X95702Y89600D01*
X95803Y89397D01*
X95600Y89498D01*
X95397Y89397D01*
X95498Y89498D02*
X95549Y89600D01*
X95498Y89702D01*
X95600Y89651D01*
X95702Y89702D01*
X95651Y89600D01*
X95702Y89498D01*
X95600Y89549D01*
X95498Y89498D01*
X75997Y107247D02*
X76098Y107450D01*
X75997Y107653D01*
X76200Y107552D01*
X76403Y107653D01*
X76302Y107450D01*
X76403Y107247D01*
X76200Y107348D01*
X75997Y107247D01*
X76098Y107348D02*
X76149Y107450D01*
X76098Y107552D01*
X76200Y107501D01*
X76302Y107552D01*
X76251Y107450D01*
X76302Y107348D01*
X76200Y107399D01*
X76098Y107348D01*
X76047Y89397D02*
X76148Y89600D01*
X76047Y89803D01*
X76250Y89702D01*
X76453Y89803D01*
X76352Y89600D01*
X76453Y89397D01*
X76250Y89498D01*
X76047Y89397D01*
X76148Y89498D02*
X76199Y89600D01*
X76148Y89702D01*
X76250Y89651D01*
X76352Y89702D01*
X76301Y89600D01*
X76352Y89498D01*
X76250Y89549D01*
X76148Y89498D01*
X75997Y102447D02*
X76098Y102650D01*
X75997Y102853D01*
X76200Y102752D01*
X76403Y102853D01*
X76302Y102650D01*
X76403Y102447D01*
X76200Y102548D01*
X75997Y102447D01*
X76098Y102548D02*
X76149Y102650D01*
X76098Y102752D01*
X76200Y102701D01*
X76302Y102752D01*
X76251Y102650D01*
X76302Y102548D01*
X76200Y102599D01*
X76098Y102548D01*
X60947Y102447D02*
X61048Y102650D01*
X60947Y102853D01*
X61150Y102752D01*
X61353Y102853D01*
X61252Y102650D01*
X61353Y102447D01*
X61150Y102548D01*
X60947Y102447D01*
X61048Y102548D02*
X61099Y102650D01*
X61048Y102752D01*
X61150Y102701D01*
X61252Y102752D01*
X61201Y102650D01*
X61252Y102548D01*
X61150Y102599D01*
X61048Y102548D01*
X60947Y83297D02*
X61048Y83500D01*
X60947Y83703D01*
X61150Y83602D01*
X61353Y83703D01*
X61252Y83500D01*
X61353Y83297D01*
X61150Y83398D01*
X60947Y83297D01*
X61048Y83398D02*
X61099Y83500D01*
X61048Y83602D01*
X61150Y83551D01*
X61252Y83602D01*
X61201Y83500D01*
X61252Y83398D01*
X61150Y83449D01*
X61048Y83398D01*
X52147Y106097D02*
X52248Y106300D01*
X52147Y106503D01*
X52350Y106402D01*
X52553Y106503D01*
X52452Y106300D01*
X52553Y106097D01*
X52350Y106198D01*
X52147Y106097D01*
X52248Y106198D02*
X52299Y106300D01*
X52248Y106402D01*
X52350Y106351D01*
X52452Y106402D01*
X52401Y106300D01*
X52452Y106198D01*
X52350Y106249D01*
X52248Y106198D01*
X52347Y124097D02*
X52448Y124300D01*
X52347Y124503D01*
X52550Y124402D01*
X52753Y124503D01*
X52652Y124300D01*
X52753Y124097D01*
X52550Y124198D01*
X52347Y124097D01*
X52448Y124198D02*
X52499Y124300D01*
X52448Y124402D01*
X52550Y124351D01*
X52652Y124402D01*
X52601Y124300D01*
X52652Y124198D01*
X52550Y124249D01*
X52448Y124198D01*
X56647Y147847D02*
X56748Y148050D01*
X56647Y148253D01*
X56850Y148152D01*
X57053Y148253D01*
X56952Y148050D01*
X57053Y147847D01*
X56850Y147948D01*
X56647Y147847D01*
X56748Y147948D02*
X56799Y148050D01*
X56748Y148152D01*
X56850Y148101D01*
X56952Y148152D01*
X56901Y148050D01*
X56952Y147948D01*
X56850Y147999D01*
X56748Y147948D01*
X52797Y144672D02*
X52898Y144875D01*
X52797Y145078D01*
X53000Y144977D01*
X53203Y145078D01*
X53102Y144875D01*
X53203Y144672D01*
X53000Y144773D01*
X52797Y144672D01*
X52898Y144773D02*
X52949Y144875D01*
X52898Y144977D01*
X53000Y144926D01*
X53102Y144977D01*
X53051Y144875D01*
X53102Y144773D01*
X53000Y144824D01*
X52898Y144773D01*
X167823Y143248D02*
Y143147D01*
X168027D01*
Y143248D01*
X168128D01*
Y143452D01*
X168027D01*
Y143553D01*
X167823D01*
Y143452D01*
X167722D01*
Y143248D01*
X167823D01*
X167874Y143299D02*
Y143248D01*
X167976D01*
Y143299D01*
X168027D01*
Y143401D01*
X167976D01*
Y143452D01*
X167874D01*
Y143401D01*
X167823D01*
Y143299D01*
X167874D01*
X78747Y126447D02*
X78848D01*
X78950Y126548D01*
X79052Y126447D01*
X79153D01*
Y126548D01*
X79052Y126650D01*
X79153Y126752D01*
Y126853D01*
X79052D01*
X78950Y126752D01*
X78848Y126853D01*
X78747D01*
Y126752D01*
X78848Y126650D01*
X78747Y126548D01*
Y126447D01*
X78848Y126548D02*
X78899D01*
X78950Y126599D01*
X79001Y126548D01*
X79052D01*
Y126599D01*
X79001Y126650D01*
X79052Y126701D01*
Y126752D01*
X79001D01*
X78950Y126701D01*
X78899Y126752D01*
X78848D01*
Y126701D01*
X78899Y126650D01*
X78848Y126599D01*
Y126548D01*
X91347Y116597D02*
X91448Y116800D01*
X91347Y117003D01*
X91550Y116902D01*
X91753Y117003D01*
X91652Y116800D01*
X91753Y116597D01*
X91550Y116698D01*
X91347Y116597D01*
X91448Y116698D02*
X91499Y116800D01*
X91448Y116902D01*
X91550Y116851D01*
X91652Y116902D01*
X91601Y116800D01*
X91652Y116698D01*
X91550Y116749D01*
X91448Y116698D01*
X71797Y110697D02*
X71898D01*
X72000Y110798D01*
X72102Y110697D01*
X72203D01*
Y110798D01*
X72102Y110900D01*
X72203Y111002D01*
Y111103D01*
X72102D01*
X72000Y111002D01*
X71898Y111103D01*
X71797D01*
Y111002D01*
X71898Y110900D01*
X71797Y110798D01*
Y110697D01*
X71898Y110798D02*
X71949D01*
X72000Y110849D01*
X72051Y110798D01*
X72102D01*
Y110849D01*
X72051Y110900D01*
X72102Y110951D01*
Y111002D01*
X72051D01*
X72000Y110951D01*
X71949Y111002D01*
X71898D01*
Y110951D01*
X71949Y110900D01*
X71898Y110849D01*
Y110798D01*
X69997Y113597D02*
X70098D01*
X70200Y113698D01*
X70302Y113597D01*
X70403D01*
Y113698D01*
X70302Y113800D01*
X70403Y113902D01*
Y114003D01*
X70302D01*
X70200Y113902D01*
X70098Y114003D01*
X69997D01*
Y113902D01*
X70098Y113800D01*
X69997Y113698D01*
Y113597D01*
X70098Y113698D02*
X70149D01*
X70200Y113749D01*
X70251Y113698D01*
X70302D01*
Y113749D01*
X70251Y113800D01*
X70302Y113851D01*
Y113902D01*
X70251D01*
X70200Y113851D01*
X70149Y113902D01*
X70098D01*
Y113851D01*
X70149Y113800D01*
X70098Y113749D01*
Y113698D01*
X132516Y130097D02*
X132617Y130300D01*
X132516Y130503D01*
X132719Y130402D01*
X132922Y130503D01*
X132821Y130300D01*
X132922Y130097D01*
X132719Y130198D01*
X132516Y130097D01*
X132617Y130198D02*
X132668Y130300D01*
X132617Y130402D01*
X132719Y130351D01*
X132821Y130402D01*
X132770Y130300D01*
X132821Y130198D01*
X132719Y130249D01*
X132617Y130198D01*
X129547Y123247D02*
X129648Y123450D01*
X129547Y123653D01*
X129750Y123552D01*
X129953Y123653D01*
X129852Y123450D01*
X129953Y123247D01*
X129750Y123348D01*
X129547Y123247D01*
X129648Y123348D02*
X129699Y123450D01*
X129648Y123552D01*
X129750Y123501D01*
X129852Y123552D01*
X129801Y123450D01*
X129852Y123348D01*
X129750Y123399D01*
X129648Y123348D01*
X163097Y139347D02*
X163198Y139550D01*
X163097Y139753D01*
X163300Y139652D01*
X163503Y139753D01*
X163402Y139550D01*
X163503Y139347D01*
X163300Y139448D01*
X163097Y139347D01*
X163198Y139448D02*
X163249Y139550D01*
X163198Y139652D01*
X163300Y139601D01*
X163402Y139652D01*
X163351Y139550D01*
X163402Y139448D01*
X163300Y139499D01*
X163198Y139448D01*
X163097Y138230D02*
X163198Y138433D01*
X163097Y138637D01*
X163300Y138535D01*
X163503Y138637D01*
X163402Y138433D01*
X163503Y138230D01*
X163300Y138332D01*
X163097Y138230D01*
X163198Y138332D02*
X163249Y138433D01*
X163198Y138535D01*
X163300Y138484D01*
X163402Y138535D01*
X163351Y138433D01*
X163402Y138332D01*
X163300Y138383D01*
X163198Y138332D01*
X175732Y139197D02*
X175834Y139400D01*
X175732Y139603D01*
X175936Y139502D01*
X176139Y139603D01*
X176037Y139400D01*
X176139Y139197D01*
X175936Y139298D01*
X175732Y139197D01*
X175834Y139298D02*
X175885Y139400D01*
X175834Y139502D01*
X175936Y139451D01*
X176037Y139502D01*
X175986Y139400D01*
X176037Y139298D01*
X175936Y139349D01*
X175834Y139298D01*
X175732Y138080D02*
X175834Y138283D01*
X175732Y138487D01*
X175936Y138385D01*
X176139Y138487D01*
X176037Y138283D01*
X176139Y138080D01*
X175936Y138182D01*
X175732Y138080D01*
X175834Y138182D02*
X175885Y138283D01*
X175834Y138385D01*
X175936Y138334D01*
X176037Y138385D01*
X175986Y138283D01*
X176037Y138182D01*
X175936Y138233D01*
X175834Y138182D01*
X175732Y136963D02*
X175834Y137167D01*
X175732Y137370D01*
X175936Y137268D01*
X176139Y137370D01*
X176037Y137167D01*
X176139Y136963D01*
X175936Y137065D01*
X175732Y136963D01*
X175834Y137065D02*
X175885Y137167D01*
X175834Y137268D01*
X175936Y137217D01*
X176037Y137268D01*
X175986Y137167D01*
X176037Y137065D01*
X175936Y137116D01*
X175834Y137065D01*
X175732Y135847D02*
X175834Y136050D01*
X175732Y136253D01*
X175936Y136152D01*
X176139Y136253D01*
X176037Y136050D01*
X176139Y135847D01*
X175936Y135948D01*
X175732Y135847D01*
X175834Y135948D02*
X175885Y136050D01*
X175834Y136152D01*
X175936Y136101D01*
X176037Y136152D01*
X175986Y136050D01*
X176037Y135948D01*
X175936Y135999D01*
X175834Y135948D01*
X116897Y134997D02*
X116998Y135200D01*
X116897Y135403D01*
X117100Y135302D01*
X117303Y135403D01*
X117202Y135200D01*
X117303Y134997D01*
X117100Y135098D01*
X116897Y134997D01*
X116998Y135098D02*
X117049Y135200D01*
X116998Y135302D01*
X117100Y135251D01*
X117202Y135302D01*
X117151Y135200D01*
X117202Y135098D01*
X117100Y135149D01*
X116998Y135098D01*
X116897Y133880D02*
X116998Y134083D01*
X116897Y134287D01*
X117100Y134185D01*
X117303Y134287D01*
X117202Y134083D01*
X117303Y133880D01*
X117100Y133982D01*
X116897Y133880D01*
X116998Y133982D02*
X117049Y134083D01*
X116998Y134185D01*
X117100Y134134D01*
X117202Y134185D01*
X117151Y134083D01*
X117202Y133982D01*
X117100Y134033D01*
X116998Y133982D01*
X116897Y132763D02*
X116998Y132967D01*
X116897Y133170D01*
X117100Y133068D01*
X117303Y133170D01*
X117202Y132967D01*
X117303Y132763D01*
X117100Y132865D01*
X116897Y132763D01*
X116998Y132865D02*
X117049Y132967D01*
X116998Y133068D01*
X117100Y133017D01*
X117202Y133068D01*
X117151Y132967D01*
X117202Y132865D01*
X117100Y132916D01*
X116998Y132865D01*
X116897Y131647D02*
X116998Y131850D01*
X116897Y132053D01*
X117100Y131952D01*
X117303Y132053D01*
X117202Y131850D01*
X117303Y131647D01*
X117100Y131748D01*
X116897Y131647D01*
X116998Y131748D02*
X117049Y131850D01*
X116998Y131952D01*
X117100Y131901D01*
X117202Y131952D01*
X117151Y131850D01*
X117202Y131748D01*
X117100Y131799D01*
X116998Y131748D01*
X137024Y131697D02*
X137125Y131900D01*
X137024Y132103D01*
X137227Y132002D01*
X137430Y132103D01*
X137328Y131900D01*
X137430Y131697D01*
X137227Y131798D01*
X137024Y131697D01*
X137125Y131798D02*
X137176Y131900D01*
X137125Y132002D01*
X137227Y131951D01*
X137328Y132002D01*
X137278Y131900D01*
X137328Y131798D01*
X137227Y131849D01*
X137125Y131798D01*
X137024Y132813D02*
X137125Y133017D01*
X137024Y133220D01*
X137227Y133118D01*
X137430Y133220D01*
X137328Y133017D01*
X137430Y132813D01*
X137227Y132915D01*
X137024Y132813D01*
X137125Y132915D02*
X137176Y133017D01*
X137125Y133118D01*
X137227Y133067D01*
X137328Y133118D01*
X137278Y133017D01*
X137328Y132915D01*
X137227Y132966D01*
X137125Y132915D01*
X137024Y133930D02*
X137125Y134133D01*
X137024Y134337D01*
X137227Y134235D01*
X137430Y134337D01*
X137328Y134133D01*
X137430Y133930D01*
X137227Y134032D01*
X137024Y133930D01*
X137125Y134032D02*
X137176Y134133D01*
X137125Y134235D01*
X137227Y134184D01*
X137328Y134235D01*
X137278Y134133D01*
X137328Y134032D01*
X137227Y134083D01*
X137125Y134032D01*
X137024Y135047D02*
X137125Y135250D01*
X137024Y135453D01*
X137227Y135352D01*
X137430Y135453D01*
X137328Y135250D01*
X137430Y135047D01*
X137227Y135148D01*
X137024Y135047D01*
X137125Y135148D02*
X137176Y135250D01*
X137125Y135352D01*
X137227Y135301D01*
X137328Y135352D01*
X137278Y135250D01*
X137328Y135148D01*
X137227Y135199D01*
X137125Y135148D01*
X135679Y131713D02*
X135781Y131917D01*
X135679Y132120D01*
X135883Y132018D01*
X136086Y132120D01*
X135984Y131917D01*
X136086Y131713D01*
X135883Y131815D01*
X135679Y131713D01*
X135781Y131815D02*
X135832Y131917D01*
X135781Y132018D01*
X135883Y131967D01*
X135984Y132018D01*
X135933Y131917D01*
X135984Y131815D01*
X135883Y131866D01*
X135781Y131815D01*
X135679Y132830D02*
X135781Y133033D01*
X135679Y133237D01*
X135883Y133135D01*
X136086Y133237D01*
X135984Y133033D01*
X136086Y132830D01*
X135883Y132932D01*
X135679Y132830D01*
X135781Y132932D02*
X135832Y133033D01*
X135781Y133135D01*
X135883Y133084D01*
X135984Y133135D01*
X135933Y133033D01*
X135984Y132932D01*
X135883Y132983D01*
X135781Y132932D01*
X135679Y133947D02*
X135781Y134150D01*
X135679Y134353D01*
X135883Y134252D01*
X136086Y134353D01*
X135984Y134150D01*
X136086Y133947D01*
X135883Y134048D01*
X135679Y133947D01*
X135781Y134048D02*
X135832Y134150D01*
X135781Y134252D01*
X135883Y134201D01*
X135984Y134252D01*
X135933Y134150D01*
X135984Y134048D01*
X135883Y134099D01*
X135781Y134048D01*
X135679Y135063D02*
X135781Y135267D01*
X135679Y135470D01*
X135883Y135368D01*
X136086Y135470D01*
X135984Y135267D01*
X136086Y135063D01*
X135883Y135165D01*
X135679Y135063D01*
X135781Y135165D02*
X135832Y135267D01*
X135781Y135368D01*
X135883Y135317D01*
X135984Y135368D01*
X135933Y135267D01*
X135984Y135165D01*
X135883Y135216D01*
X135781Y135165D01*
X118022Y131647D02*
X118123Y131850D01*
X118022Y132053D01*
X118225Y131952D01*
X118428Y132053D01*
X118327Y131850D01*
X118428Y131647D01*
X118225Y131748D01*
X118022Y131647D01*
X118123Y131748D02*
X118174Y131850D01*
X118123Y131952D01*
X118225Y131901D01*
X118327Y131952D01*
X118276Y131850D01*
X118327Y131748D01*
X118225Y131799D01*
X118123Y131748D01*
X118022Y132763D02*
X118123Y132967D01*
X118022Y133170D01*
X118225Y133068D01*
X118428Y133170D01*
X118327Y132967D01*
X118428Y132763D01*
X118225Y132865D01*
X118022Y132763D01*
X118123Y132865D02*
X118174Y132967D01*
X118123Y133068D01*
X118225Y133017D01*
X118327Y133068D01*
X118276Y132967D01*
X118327Y132865D01*
X118225Y132916D01*
X118123Y132865D01*
X118022Y133880D02*
X118123Y134083D01*
X118022Y134287D01*
X118225Y134185D01*
X118428Y134287D01*
X118327Y134083D01*
X118428Y133880D01*
X118225Y133982D01*
X118022Y133880D01*
X118123Y133982D02*
X118174Y134083D01*
X118123Y134185D01*
X118225Y134134D01*
X118327Y134185D01*
X118276Y134083D01*
X118327Y133982D01*
X118225Y134033D01*
X118123Y133982D01*
X118022Y134997D02*
X118123Y135200D01*
X118022Y135403D01*
X118225Y135302D01*
X118428Y135403D01*
X118327Y135200D01*
X118428Y134997D01*
X118225Y135098D01*
X118022Y134997D01*
X118123Y135098D02*
X118174Y135200D01*
X118123Y135302D01*
X118225Y135251D01*
X118327Y135302D01*
X118276Y135200D01*
X118327Y135098D01*
X118225Y135149D01*
X118123Y135098D01*
X119147Y131647D02*
X119248Y131850D01*
X119147Y132053D01*
X119350Y131952D01*
X119553Y132053D01*
X119452Y131850D01*
X119553Y131647D01*
X119350Y131748D01*
X119147Y131647D01*
X119248Y131748D02*
X119299Y131850D01*
X119248Y131952D01*
X119350Y131901D01*
X119452Y131952D01*
X119401Y131850D01*
X119452Y131748D01*
X119350Y131799D01*
X119248Y131748D01*
X119147Y132763D02*
X119248Y132967D01*
X119147Y133170D01*
X119350Y133068D01*
X119553Y133170D01*
X119452Y132967D01*
X119553Y132763D01*
X119350Y132865D01*
X119147Y132763D01*
X119248Y132865D02*
X119299Y132967D01*
X119248Y133068D01*
X119350Y133017D01*
X119452Y133068D01*
X119401Y132967D01*
X119452Y132865D01*
X119350Y132916D01*
X119248Y132865D01*
X119147Y133880D02*
X119248Y134083D01*
X119147Y134287D01*
X119350Y134185D01*
X119553Y134287D01*
X119452Y134083D01*
X119553Y133880D01*
X119350Y133982D01*
X119147Y133880D01*
X119248Y133982D02*
X119299Y134083D01*
X119248Y134185D01*
X119350Y134134D01*
X119452Y134185D01*
X119401Y134083D01*
X119452Y133982D01*
X119350Y134033D01*
X119248Y133982D01*
X119147Y134997D02*
X119248Y135200D01*
X119147Y135403D01*
X119350Y135302D01*
X119553Y135403D01*
X119452Y135200D01*
X119553Y134997D01*
X119350Y135098D01*
X119147Y134997D01*
X119248Y135098D02*
X119299Y135200D01*
X119248Y135302D01*
X119350Y135251D01*
X119452Y135302D01*
X119401Y135200D01*
X119452Y135098D01*
X119350Y135149D01*
X119248Y135098D01*
X134335Y135063D02*
X134437Y135267D01*
X134335Y135470D01*
X134538Y135368D01*
X134742Y135470D01*
X134640Y135267D01*
X134742Y135063D01*
X134538Y135165D01*
X134335Y135063D01*
X134437Y135165D02*
X134488Y135267D01*
X134437Y135368D01*
X134538Y135317D01*
X134640Y135368D01*
X134589Y135267D01*
X134640Y135165D01*
X134538Y135216D01*
X134437Y135165D01*
X134335Y133947D02*
X134437Y134150D01*
X134335Y134353D01*
X134538Y134252D01*
X134742Y134353D01*
X134640Y134150D01*
X134742Y133947D01*
X134538Y134048D01*
X134335Y133947D01*
X134437Y134048D02*
X134488Y134150D01*
X134437Y134252D01*
X134538Y134201D01*
X134640Y134252D01*
X134589Y134150D01*
X134640Y134048D01*
X134538Y134099D01*
X134437Y134048D01*
X134335Y132830D02*
X134437Y133033D01*
X134335Y133237D01*
X134538Y133135D01*
X134742Y133237D01*
X134640Y133033D01*
X134742Y132830D01*
X134538Y132932D01*
X134335Y132830D01*
X134437Y132932D02*
X134488Y133033D01*
X134437Y133135D01*
X134538Y133084D01*
X134640Y133135D01*
X134589Y133033D01*
X134640Y132932D01*
X134538Y132983D01*
X134437Y132932D01*
X134335Y131713D02*
X134437Y131917D01*
X134335Y132120D01*
X134538Y132018D01*
X134742Y132120D01*
X134640Y131917D01*
X134742Y131713D01*
X134538Y131815D01*
X134335Y131713D01*
X134437Y131815D02*
X134488Y131917D01*
X134437Y132018D01*
X134538Y131967D01*
X134640Y132018D01*
X134589Y131917D01*
X134640Y131815D01*
X134538Y131866D01*
X134437Y131815D01*
X132991Y135047D02*
X133093Y135250D01*
X132991Y135453D01*
X133194Y135352D01*
X133397Y135453D01*
X133296Y135250D01*
X133397Y135047D01*
X133194Y135148D01*
X132991Y135047D01*
X133093Y135148D02*
X133143Y135250D01*
X133093Y135352D01*
X133194Y135301D01*
X133296Y135352D01*
X133245Y135250D01*
X133296Y135148D01*
X133194Y135199D01*
X133093Y135148D01*
X132991Y133930D02*
X133093Y134133D01*
X132991Y134337D01*
X133194Y134235D01*
X133397Y134337D01*
X133296Y134133D01*
X133397Y133930D01*
X133194Y134032D01*
X132991Y133930D01*
X133093Y134032D02*
X133143Y134133D01*
X133093Y134235D01*
X133194Y134184D01*
X133296Y134235D01*
X133245Y134133D01*
X133296Y134032D01*
X133194Y134083D01*
X133093Y134032D01*
X132991Y132813D02*
X133093Y133017D01*
X132991Y133220D01*
X133194Y133118D01*
X133397Y133220D01*
X133296Y133017D01*
X133397Y132813D01*
X133194Y132915D01*
X132991Y132813D01*
X133093Y132915D02*
X133143Y133017D01*
X133093Y133118D01*
X133194Y133067D01*
X133296Y133118D01*
X133245Y133017D01*
X133296Y132915D01*
X133194Y132966D01*
X133093Y132915D01*
X132991Y131697D02*
X133093Y131900D01*
X132991Y132103D01*
X133194Y132002D01*
X133397Y132103D01*
X133296Y131900D01*
X133397Y131697D01*
X133194Y131798D01*
X132991Y131697D01*
X133093Y131798D02*
X133143Y131900D01*
X133093Y132002D01*
X133194Y131951D01*
X133296Y132002D01*
X133245Y131900D01*
X133296Y131798D01*
X133194Y131849D01*
X133093Y131798D01*
X131647Y131697D02*
X131748Y131900D01*
X131647Y132103D01*
X131850Y132002D01*
X132053Y132103D01*
X131952Y131900D01*
X132053Y131697D01*
X131850Y131798D01*
X131647Y131697D01*
X131748Y131798D02*
X131799Y131900D01*
X131748Y132002D01*
X131850Y131951D01*
X131952Y132002D01*
X131901Y131900D01*
X131952Y131798D01*
X131850Y131849D01*
X131748Y131798D01*
X131647Y132813D02*
X131748Y133017D01*
X131647Y133220D01*
X131850Y133118D01*
X132053Y133220D01*
X131952Y133017D01*
X132053Y132813D01*
X131850Y132915D01*
X131647Y132813D01*
X131748Y132915D02*
X131799Y133017D01*
X131748Y133118D01*
X131850Y133067D01*
X131952Y133118D01*
X131901Y133017D01*
X131952Y132915D01*
X131850Y132966D01*
X131748Y132915D01*
X131647Y133930D02*
X131748Y134133D01*
X131647Y134337D01*
X131850Y134235D01*
X132053Y134337D01*
X131952Y134133D01*
X132053Y133930D01*
X131850Y134032D01*
X131647Y133930D01*
X131748Y134032D02*
X131799Y134133D01*
X131748Y134235D01*
X131850Y134184D01*
X131952Y134235D01*
X131901Y134133D01*
X131952Y134032D01*
X131850Y134083D01*
X131748Y134032D01*
X131647Y135047D02*
X131748Y135250D01*
X131647Y135453D01*
X131850Y135352D01*
X132053Y135453D01*
X131952Y135250D01*
X132053Y135047D01*
X131850Y135148D01*
X131647Y135047D01*
X131748Y135148D02*
X131799Y135250D01*
X131748Y135352D01*
X131850Y135301D01*
X131952Y135352D01*
X131901Y135250D01*
X131952Y135148D01*
X131850Y135199D01*
X131748Y135148D01*
X130697Y133397D02*
X130798Y133600D01*
X130697Y133803D01*
X130900Y133702D01*
X131103Y133803D01*
X131002Y133600D01*
X131103Y133397D01*
X130900Y133498D01*
X130697Y133397D01*
X130798Y133498D02*
X130849Y133600D01*
X130798Y133702D01*
X130900Y133651D01*
X131002Y133702D01*
X130951Y133600D01*
X131002Y133498D01*
X130900Y133549D01*
X130798Y133498D01*
X120947Y134997D02*
X121048Y135200D01*
X120947Y135403D01*
X121150Y135302D01*
X121353Y135403D01*
X121252Y135200D01*
X121353Y134997D01*
X121150Y135098D01*
X120947Y134997D01*
X121048Y135098D02*
X121099Y135200D01*
X121048Y135302D01*
X121150Y135251D01*
X121252Y135302D01*
X121201Y135200D01*
X121252Y135098D01*
X121150Y135149D01*
X121048Y135098D01*
X120947Y133880D02*
X121048Y134083D01*
X120947Y134287D01*
X121150Y134185D01*
X121353Y134287D01*
X121252Y134083D01*
X121353Y133880D01*
X121150Y133982D01*
X120947Y133880D01*
X121048Y133982D02*
X121099Y134083D01*
X121048Y134185D01*
X121150Y134134D01*
X121252Y134185D01*
X121201Y134083D01*
X121252Y133982D01*
X121150Y134033D01*
X121048Y133982D01*
X120947Y132763D02*
X121048Y132967D01*
X120947Y133170D01*
X121150Y133068D01*
X121353Y133170D01*
X121252Y132967D01*
X121353Y132763D01*
X121150Y132865D01*
X120947Y132763D01*
X121048Y132865D02*
X121099Y132967D01*
X121048Y133068D01*
X121150Y133017D01*
X121252Y133068D01*
X121201Y132967D01*
X121252Y132865D01*
X121150Y132916D01*
X121048Y132865D01*
X120997Y131647D02*
X121098Y131850D01*
X120997Y132053D01*
X121200Y131952D01*
X121403Y132053D01*
X121302Y131850D01*
X121403Y131647D01*
X121200Y131748D01*
X120997Y131647D01*
X121098Y131748D02*
X121149Y131850D01*
X121098Y131952D01*
X121200Y131901D01*
X121302Y131952D01*
X121251Y131850D01*
X121302Y131748D01*
X121200Y131799D01*
X121098Y131748D01*
X122047Y133297D02*
X122148Y133500D01*
X122047Y133703D01*
X122250Y133602D01*
X122453Y133703D01*
X122352Y133500D01*
X122453Y133297D01*
X122250Y133398D01*
X122047Y133297D01*
X122148Y133398D02*
X122199Y133500D01*
X122148Y133602D01*
X122250Y133551D01*
X122352Y133602D01*
X122301Y133500D01*
X122352Y133398D01*
X122250Y133449D01*
X122148Y133398D01*
X174347Y135897D02*
X174448Y136100D01*
X174347Y136303D01*
X174550Y136202D01*
X174753Y136303D01*
X174652Y136100D01*
X174753Y135897D01*
X174550Y135998D01*
X174347Y135897D01*
X174448Y135998D02*
X174499Y136100D01*
X174448Y136202D01*
X174550Y136151D01*
X174652Y136202D01*
X174601Y136100D01*
X174652Y135998D01*
X174550Y136049D01*
X174448Y135998D01*
X174347Y137013D02*
X174448Y137217D01*
X174347Y137420D01*
X174550Y137318D01*
X174753Y137420D01*
X174652Y137217D01*
X174753Y137013D01*
X174550Y137115D01*
X174347Y137013D01*
X174448Y137115D02*
X174499Y137217D01*
X174448Y137318D01*
X174550Y137267D01*
X174652Y137318D01*
X174601Y137217D01*
X174652Y137115D01*
X174550Y137166D01*
X174448Y137115D01*
X174347Y138130D02*
X174448Y138333D01*
X174347Y138537D01*
X174550Y138435D01*
X174753Y138537D01*
X174652Y138333D01*
X174753Y138130D01*
X174550Y138232D01*
X174347Y138130D01*
X174448Y138232D02*
X174499Y138333D01*
X174448Y138435D01*
X174550Y138384D01*
X174652Y138435D01*
X174601Y138333D01*
X174652Y138232D01*
X174550Y138283D01*
X174448Y138232D01*
X174347Y139247D02*
X174448Y139450D01*
X174347Y139653D01*
X174550Y139552D01*
X174753Y139653D01*
X174652Y139450D01*
X174753Y139247D01*
X174550Y139348D01*
X174347Y139247D01*
X174448Y139348D02*
X174499Y139450D01*
X174448Y139552D01*
X174550Y139501D01*
X174652Y139552D01*
X174601Y139450D01*
X174652Y139348D01*
X174550Y139399D01*
X174448Y139348D01*
X173397Y137597D02*
X173498Y137800D01*
X173397Y138003D01*
X173600Y137902D01*
X173803Y138003D01*
X173702Y137800D01*
X173803Y137597D01*
X173600Y137698D01*
X173397Y137597D01*
X173498Y137698D02*
X173549Y137800D01*
X173498Y137902D01*
X173600Y137851D01*
X173702Y137902D01*
X173651Y137800D01*
X173702Y137698D01*
X173600Y137749D01*
X173498Y137698D01*
X165297Y137647D02*
X165398Y137850D01*
X165297Y138053D01*
X165500Y137952D01*
X165703Y138053D01*
X165602Y137850D01*
X165703Y137647D01*
X165500Y137748D01*
X165297Y137647D01*
X165398Y137748D02*
X165449Y137850D01*
X165398Y137952D01*
X165500Y137901D01*
X165602Y137952D01*
X165551Y137850D01*
X165602Y137748D01*
X165500Y137799D01*
X165398Y137748D01*
X164347Y135997D02*
X164448Y136200D01*
X164347Y136403D01*
X164550Y136302D01*
X164753Y136403D01*
X164652Y136200D01*
X164753Y135997D01*
X164550Y136098D01*
X164347Y135997D01*
X164448Y136098D02*
X164499Y136200D01*
X164448Y136302D01*
X164550Y136251D01*
X164652Y136302D01*
X164601Y136200D01*
X164652Y136098D01*
X164550Y136149D01*
X164448Y136098D01*
X164347Y137113D02*
X164448Y137317D01*
X164347Y137520D01*
X164550Y137418D01*
X164753Y137520D01*
X164652Y137317D01*
X164753Y137113D01*
X164550Y137215D01*
X164347Y137113D01*
X164448Y137215D02*
X164499Y137317D01*
X164448Y137418D01*
X164550Y137367D01*
X164652Y137418D01*
X164601Y137317D01*
X164652Y137215D01*
X164550Y137266D01*
X164448Y137215D01*
X164347Y138230D02*
X164448Y138433D01*
X164347Y138637D01*
X164550Y138535D01*
X164753Y138637D01*
X164652Y138433D01*
X164753Y138230D01*
X164550Y138332D01*
X164347Y138230D01*
X164448Y138332D02*
X164499Y138433D01*
X164448Y138535D01*
X164550Y138484D01*
X164652Y138535D01*
X164601Y138433D01*
X164652Y138332D01*
X164550Y138383D01*
X164448Y138332D01*
X164347Y139347D02*
X164448Y139550D01*
X164347Y139753D01*
X164550Y139652D01*
X164753Y139753D01*
X164652Y139550D01*
X164753Y139347D01*
X164550Y139448D01*
X164347Y139347D01*
X164448Y139448D02*
X164499Y139550D01*
X164448Y139652D01*
X164550Y139601D01*
X164652Y139652D01*
X164601Y139550D01*
X164652Y139448D01*
X164550Y139499D01*
X164448Y139448D01*
X123648Y132848D02*
Y132747D01*
X123852D01*
Y132848D01*
X123953D01*
Y133052D01*
X123852D01*
Y133153D01*
X123648D01*
Y133052D01*
X123547D01*
Y132848D01*
X123648D01*
X123699Y132899D02*
Y132848D01*
X123801D01*
Y132899D01*
X123852D01*
Y133001D01*
X123801D01*
Y133052D01*
X123699D01*
Y133001D01*
X123648D01*
Y132899D01*
X123699D01*
X123648Y133948D02*
Y133847D01*
X123852D01*
Y133948D01*
X123953D01*
Y134152D01*
X123852D01*
Y134253D01*
X123648D01*
Y134152D01*
X123547D01*
Y133948D01*
X123648D01*
X123699Y133999D02*
Y133948D01*
X123801D01*
Y133999D01*
X123852D01*
Y134101D01*
X123801D01*
Y134152D01*
X123699D01*
Y134101D01*
X123648D01*
Y133999D01*
X123699D01*
X124748Y132848D02*
Y132747D01*
X124952D01*
Y132848D01*
X125053D01*
Y133052D01*
X124952D01*
Y133153D01*
X124748D01*
Y133052D01*
X124647D01*
Y132848D01*
X124748D01*
X124799Y132899D02*
Y132848D01*
X124901D01*
Y132899D01*
X124952D01*
Y133001D01*
X124901D01*
Y133052D01*
X124799D01*
Y133001D01*
X124748D01*
Y132899D01*
X124799D01*
X124748Y133948D02*
Y133847D01*
X124952D01*
Y133948D01*
X125053D01*
Y134152D01*
X124952D01*
Y134253D01*
X124748D01*
Y134152D01*
X124647D01*
Y133948D01*
X124748D01*
X124799Y133999D02*
Y133948D01*
X124901D01*
Y133999D01*
X124952D01*
Y134101D01*
X124901D01*
Y134152D01*
X124799D01*
Y134101D01*
X124748D01*
Y133999D01*
X124799D01*
X125848Y132848D02*
Y132747D01*
X126052D01*
Y132848D01*
X126153D01*
Y133052D01*
X126052D01*
Y133153D01*
X125848D01*
Y133052D01*
X125747D01*
Y132848D01*
X125848D01*
X125899Y132899D02*
Y132848D01*
X126001D01*
Y132899D01*
X126052D01*
Y133001D01*
X126001D01*
Y133052D01*
X125899D01*
Y133001D01*
X125848D01*
Y132899D01*
X125899D01*
X125848Y133948D02*
Y133847D01*
X126052D01*
Y133948D01*
X126153D01*
Y134152D01*
X126052D01*
Y134253D01*
X125848D01*
Y134152D01*
X125747D01*
Y133948D01*
X125848D01*
X125899Y133999D02*
Y133948D01*
X126001D01*
Y133999D01*
X126052D01*
Y134101D01*
X126001D01*
Y134152D01*
X125899D01*
Y134101D01*
X125848D01*
Y133999D01*
X125899D01*
X126948Y132848D02*
Y132747D01*
X127152D01*
Y132848D01*
X127253D01*
Y133052D01*
X127152D01*
Y133153D01*
X126948D01*
Y133052D01*
X126847D01*
Y132848D01*
X126948D01*
X126999Y132899D02*
Y132848D01*
X127101D01*
Y132899D01*
X127152D01*
Y133001D01*
X127101D01*
Y133052D01*
X126999D01*
Y133001D01*
X126948D01*
Y132899D01*
X126999D01*
X126948Y133948D02*
Y133847D01*
X127152D01*
Y133948D01*
X127253D01*
Y134152D01*
X127152D01*
Y134253D01*
X126948D01*
Y134152D01*
X126847D01*
Y133948D01*
X126948D01*
X126999Y133999D02*
Y133948D01*
X127101D01*
Y133999D01*
X127152D01*
Y134101D01*
X127101D01*
Y134152D01*
X126999D01*
Y134101D01*
X126948D01*
Y133999D01*
X126999D01*
X128048Y133948D02*
Y133847D01*
X128252D01*
Y133948D01*
X128353D01*
Y134152D01*
X128252D01*
Y134253D01*
X128048D01*
Y134152D01*
X127947D01*
Y133948D01*
X128048D01*
X128099Y133999D02*
Y133948D01*
X128201D01*
Y133999D01*
X128252D01*
Y134101D01*
X128201D01*
Y134152D01*
X128099D01*
Y134101D01*
X128048D01*
Y133999D01*
X128099D01*
X129148Y133948D02*
Y133847D01*
X129352D01*
Y133948D01*
X129453D01*
Y134152D01*
X129352D01*
Y134253D01*
X129148D01*
Y134152D01*
X129047D01*
Y133948D01*
X129148D01*
X129199Y133999D02*
Y133948D01*
X129301D01*
Y133999D01*
X129352D01*
Y134101D01*
X129301D01*
Y134152D01*
X129199D01*
Y134101D01*
X129148D01*
Y133999D01*
X129199D01*
X128048Y132848D02*
Y132747D01*
X128252D01*
Y132848D01*
X128353D01*
Y133052D01*
X128252D01*
Y133153D01*
X128048D01*
Y133052D01*
X127947D01*
Y132848D01*
X128048D01*
X128099Y132899D02*
Y132848D01*
X128201D01*
Y132899D01*
X128252D01*
Y133001D01*
X128201D01*
Y133052D01*
X128099D01*
Y133001D01*
X128048D01*
Y132899D01*
X128099D01*
X129148Y132848D02*
Y132747D01*
X129352D01*
Y132848D01*
X129453D01*
Y133052D01*
X129352D01*
Y133153D01*
X129148D01*
Y133052D01*
X129047D01*
Y132848D01*
X129148D01*
X129199Y132899D02*
Y132848D01*
X129301D01*
Y132899D01*
X129352D01*
Y133001D01*
X129301D01*
Y133052D01*
X129199D01*
Y133001D01*
X129148D01*
Y132899D01*
X129199D01*
X171746Y142447D02*
X171848D01*
X171950Y142548D01*
X172051Y142447D01*
X172153D01*
Y142548D01*
X172051Y142650D01*
X172153Y142751D01*
Y142853D01*
X172051D01*
X171950Y142751D01*
X171848Y142853D01*
X171746D01*
Y142751D01*
X171848Y142650D01*
X171746Y142548D01*
Y142447D01*
X171848Y142548D02*
X171899D01*
X171950Y142599D01*
X172000Y142548D01*
X172051D01*
Y142599D01*
X172000Y142650D01*
X172051Y142701D01*
Y142751D01*
X172000D01*
X171950Y142701D01*
X171899Y142751D01*
X171848D01*
Y142701D01*
X171899Y142650D01*
X171848Y142599D01*
Y142548D01*
X92850Y74890D02*
Y75229D01*
X93019Y75398D01*
X93189Y75229D01*
Y74890D01*
Y75144D01*
X92850D01*
X176697Y129597D02*
X176798D01*
X176900Y129698D01*
X177002Y129597D01*
X177103D01*
Y129698D01*
X177002Y129800D01*
X177103Y129902D01*
Y130003D01*
X177002D01*
X176900Y129902D01*
X176798Y130003D01*
X176697D01*
Y129902D01*
X176798Y129800D01*
X176697Y129698D01*
Y129597D01*
X176798Y129698D02*
X176849D01*
X176900Y129749D01*
X176951Y129698D01*
X177002D01*
Y129749D01*
X176951Y129800D01*
X177002Y129851D01*
Y129902D01*
X176951D01*
X176900Y129851D01*
X176849Y129902D01*
X176798D01*
Y129851D01*
X176849Y129800D01*
X176798Y129749D01*
Y129698D01*
X192197Y147847D02*
X192298D01*
X192400Y147948D01*
X192502Y147847D01*
X192603D01*
Y147948D01*
X192502Y148050D01*
X192603Y148152D01*
Y148253D01*
X192502D01*
X192400Y148152D01*
X192298Y148253D01*
X192197D01*
Y148152D01*
X192298Y148050D01*
X192197Y147948D01*
Y147847D01*
X192298Y147948D02*
X192349D01*
X192400Y147999D01*
X192451Y147948D01*
X192502D01*
Y147999D01*
X192451Y148050D01*
X192502Y148101D01*
Y148152D01*
X192451D01*
X192400Y148101D01*
X192349Y148152D01*
X192298D01*
Y148101D01*
X192349Y148050D01*
X192298Y147999D01*
Y147948D01*
X158947Y90097D02*
X159048D01*
X159150Y90198D01*
X159252Y90097D01*
X159353D01*
Y90198D01*
X159252Y90300D01*
X159353Y90402D01*
Y90503D01*
X159252D01*
X159150Y90402D01*
X159048Y90503D01*
X158947D01*
Y90402D01*
X159048Y90300D01*
X158947Y90198D01*
Y90097D01*
X159048Y90198D02*
X159099D01*
X159150Y90249D01*
X159201Y90198D01*
X159252D01*
Y90249D01*
X159201Y90300D01*
X159252Y90351D01*
Y90402D01*
X159201D01*
X159150Y90351D01*
X159099Y90402D01*
X159048D01*
Y90351D01*
X159099Y90300D01*
X159048Y90249D01*
Y90198D01*
X158147Y90797D02*
X158248D01*
X158350Y90898D01*
X158452Y90797D01*
X158553D01*
Y90898D01*
X158452Y91000D01*
X158553Y91102D01*
Y91203D01*
X158452D01*
X158350Y91102D01*
X158248Y91203D01*
X158147D01*
Y91102D01*
X158248Y91000D01*
X158147Y90898D01*
Y90797D01*
X158248Y90898D02*
X158299D01*
X158350Y90949D01*
X158401Y90898D01*
X158452D01*
Y90949D01*
X158401Y91000D01*
X158452Y91051D01*
Y91102D01*
X158401D01*
X158350Y91051D01*
X158299Y91102D01*
X158248D01*
Y91051D01*
X158299Y91000D01*
X158248Y90949D01*
Y90898D01*
X157347Y91497D02*
X157448D01*
X157550Y91598D01*
X157652Y91497D01*
X157753D01*
Y91598D01*
X157652Y91700D01*
X157753Y91802D01*
Y91903D01*
X157652D01*
X157550Y91802D01*
X157448Y91903D01*
X157347D01*
Y91802D01*
X157448Y91700D01*
X157347Y91598D01*
Y91497D01*
X157448Y91598D02*
X157499D01*
X157550Y91649D01*
X157601Y91598D01*
X157652D01*
Y91649D01*
X157601Y91700D01*
X157652Y91751D01*
Y91802D01*
X157601D01*
X157550Y91751D01*
X157499Y91802D01*
X157448D01*
Y91751D01*
X157499Y91700D01*
X157448Y91649D01*
Y91598D01*
X156567Y92497D02*
X156669D01*
X156770Y92598D01*
X156872Y92497D01*
X156973D01*
Y92598D01*
X156872Y92700D01*
X156973Y92802D01*
Y92903D01*
X156872D01*
X156770Y92802D01*
X156669Y92903D01*
X156567D01*
Y92802D01*
X156669Y92700D01*
X156567Y92598D01*
Y92497D01*
X156669Y92598D02*
X156719D01*
X156770Y92649D01*
X156821Y92598D01*
X156872D01*
Y92649D01*
X156821Y92700D01*
X156872Y92751D01*
Y92802D01*
X156821D01*
X156770Y92751D01*
X156719Y92802D01*
X156669D01*
Y92751D01*
X156719Y92700D01*
X156669Y92649D01*
Y92598D01*
X154797Y91047D02*
X154898D01*
X155000Y91148D01*
X155102Y91047D01*
X155203D01*
Y91148D01*
X155102Y91250D01*
X155203Y91352D01*
Y91453D01*
X155102D01*
X155000Y91352D01*
X154898Y91453D01*
X154797D01*
Y91352D01*
X154898Y91250D01*
X154797Y91148D01*
Y91047D01*
X154898Y91148D02*
X154949D01*
X155000Y91199D01*
X155051Y91148D01*
X155102D01*
Y91199D01*
X155051Y91250D01*
X155102Y91301D01*
Y91352D01*
X155051D01*
X155000Y91301D01*
X154949Y91352D01*
X154898D01*
Y91301D01*
X154949Y91250D01*
X154898Y91199D01*
Y91148D01*
X155496Y91897D02*
X155598D01*
X155700Y91998D01*
X155801Y91897D01*
X155903D01*
Y91998D01*
X155801Y92100D01*
X155903Y92201D01*
Y92303D01*
X155801D01*
X155700Y92201D01*
X155598Y92303D01*
X155496D01*
Y92201D01*
X155598Y92100D01*
X155496Y91998D01*
Y91897D01*
X155598Y91998D02*
X155649D01*
X155700Y92049D01*
X155750Y91998D01*
X155801D01*
Y92049D01*
X155750Y92100D01*
X155801Y92151D01*
Y92201D01*
X155750D01*
X155700Y92151D01*
X155649Y92201D01*
X155598D01*
Y92151D01*
X155649Y92100D01*
X155598Y92049D01*
Y91998D01*
X187000Y82908D02*
Y82400D01*
X187254D01*
X187339Y82485D01*
Y82569D01*
X187254Y82654D01*
X187000D01*
X187254D01*
X187339Y82739D01*
Y82823D01*
X187254Y82908D01*
X187000D01*
X160896Y146697D02*
X160998D01*
X161100Y146798D01*
X161201Y146697D01*
X161303D01*
Y146798D01*
X161201Y146900D01*
X161303Y147001D01*
Y147103D01*
X161201D01*
X161100Y147001D01*
X160998Y147103D01*
X160896D01*
Y147001D01*
X160998Y146900D01*
X160896Y146798D01*
Y146697D01*
X160998Y146798D02*
X161049D01*
X161100Y146849D01*
X161150Y146798D01*
X161201D01*
Y146849D01*
X161150Y146900D01*
X161201Y146951D01*
Y147001D01*
X161150D01*
X161100Y146951D01*
X161049Y147001D01*
X160998D01*
Y146951D01*
X161049Y146900D01*
X160998Y146849D01*
Y146798D01*
X141297Y145097D02*
X141398D01*
X141500Y145198D01*
X141602Y145097D01*
X141703D01*
Y145198D01*
X141602Y145300D01*
X141703Y145402D01*
Y145503D01*
X141602D01*
X141500Y145402D01*
X141398Y145503D01*
X141297D01*
Y145402D01*
X141398Y145300D01*
X141297Y145198D01*
Y145097D01*
X141398Y145198D02*
X141449D01*
X141500Y145249D01*
X141551Y145198D01*
X141602D01*
Y145249D01*
X141551Y145300D01*
X141602Y145351D01*
Y145402D01*
X141551D01*
X141500Y145351D01*
X141449Y145402D01*
X141398D01*
Y145351D01*
X141449Y145300D01*
X141398Y145249D01*
Y145198D01*
X161797Y146047D02*
X161898D01*
X162000Y146148D01*
X162102Y146047D01*
X162203D01*
Y146148D01*
X162102Y146250D01*
X162203Y146352D01*
Y146453D01*
X162102D01*
X162000Y146352D01*
X161898Y146453D01*
X161797D01*
Y146352D01*
X161898Y146250D01*
X161797Y146148D01*
Y146047D01*
X161898Y146148D02*
X161949D01*
X162000Y146199D01*
X162051Y146148D01*
X162102D01*
Y146199D01*
X162051Y146250D01*
X162102Y146301D01*
Y146352D01*
X162051D01*
X162000Y146301D01*
X161949Y146352D01*
X161898D01*
Y146301D01*
X161949Y146250D01*
X161898Y146199D01*
Y146148D01*
X140297Y143926D02*
X140398D01*
X140500Y144028D01*
X140602Y143926D01*
X140703D01*
Y144028D01*
X140602Y144129D01*
X140703Y144231D01*
Y144332D01*
X140602D01*
X140500Y144231D01*
X140398Y144332D01*
X140297D01*
Y144231D01*
X140398Y144129D01*
X140297Y144028D01*
Y143926D01*
X140398Y144028D02*
X140449D01*
X140500Y144078D01*
X140551Y144028D01*
X140602D01*
Y144078D01*
X140551Y144129D01*
X140602Y144180D01*
Y144231D01*
X140551D01*
X140500Y144180D01*
X140449Y144231D01*
X140398D01*
Y144180D01*
X140449Y144129D01*
X140398Y144078D01*
Y144028D01*
X175547Y131047D02*
X175648D01*
X175750Y131148D01*
X175852Y131047D01*
X175953D01*
Y131148D01*
X175852Y131250D01*
X175953Y131352D01*
Y131453D01*
X175852D01*
X175750Y131352D01*
X175648Y131453D01*
X175547D01*
Y131352D01*
X175648Y131250D01*
X175547Y131148D01*
Y131047D01*
X175648Y131148D02*
X175699D01*
X175750Y131199D01*
X175801Y131148D01*
X175852D01*
Y131199D01*
X175801Y131250D01*
X175852Y131301D01*
Y131352D01*
X175801D01*
X175750Y131301D01*
X175699Y131352D01*
X175648D01*
Y131301D01*
X175699Y131250D01*
X175648Y131199D01*
Y131148D01*
X90097Y127697D02*
X90198D01*
X90300Y127798D01*
X90402Y127697D01*
X90503D01*
Y127798D01*
X90402Y127900D01*
X90503Y128002D01*
Y128103D01*
X90402D01*
X90300Y128002D01*
X90198Y128103D01*
X90097D01*
Y128002D01*
X90198Y127900D01*
X90097Y127798D01*
Y127697D01*
X90198Y127798D02*
X90249D01*
X90300Y127849D01*
X90351Y127798D01*
X90402D01*
Y127849D01*
X90351Y127900D01*
X90402Y127951D01*
Y128002D01*
X90351D01*
X90300Y127951D01*
X90249Y128002D01*
X90198D01*
Y127951D01*
X90249Y127900D01*
X90198Y127849D01*
Y127798D01*
X174796Y131897D02*
X174898D01*
X175000Y131998D01*
X175101Y131897D01*
X175203D01*
Y131998D01*
X175101Y132100D01*
X175203Y132201D01*
Y132303D01*
X175101D01*
X175000Y132201D01*
X174898Y132303D01*
X174796D01*
Y132201D01*
X174898Y132100D01*
X174796Y131998D01*
Y131897D01*
X174898Y131998D02*
X174949D01*
X175000Y132049D01*
X175050Y131998D01*
X175101D01*
Y132049D01*
X175050Y132100D01*
X175101Y132151D01*
Y132201D01*
X175050D01*
X175000Y132151D01*
X174949Y132201D01*
X174898D01*
Y132151D01*
X174949Y132100D01*
X174898Y132049D01*
Y131998D01*
X181697Y132224D02*
X181798D01*
X181900Y132326D01*
X182002Y132224D01*
X182103D01*
Y132326D01*
X182002Y132427D01*
X182103Y132529D01*
Y132630D01*
X182002D01*
X181900Y132529D01*
X181798Y132630D01*
X181697D01*
Y132529D01*
X181798Y132427D01*
X181697Y132326D01*
Y132224D01*
X181798Y132326D02*
X181849D01*
X181900Y132376D01*
X181951Y132326D01*
X182002D01*
Y132376D01*
X181951Y132427D01*
X182002Y132478D01*
Y132529D01*
X181951D01*
X181900Y132478D01*
X181849Y132529D01*
X181798D01*
Y132478D01*
X181849Y132427D01*
X181798Y132376D01*
Y132326D01*
X182747Y133147D02*
X182848D01*
X182950Y133248D01*
X183052Y133147D01*
X183153D01*
Y133248D01*
X183052Y133350D01*
X183153Y133452D01*
Y133553D01*
X183052D01*
X182950Y133452D01*
X182848Y133553D01*
X182747D01*
Y133452D01*
X182848Y133350D01*
X182747Y133248D01*
Y133147D01*
X182848Y133248D02*
X182899D01*
X182950Y133299D01*
X183001Y133248D01*
X183052D01*
Y133299D01*
X183001Y133350D01*
X183052Y133401D01*
Y133452D01*
X183001D01*
X182950Y133401D01*
X182899Y133452D01*
X182848D01*
Y133401D01*
X182899Y133350D01*
X182848Y133299D01*
Y133248D01*
X142647Y117747D02*
X142748Y117950D01*
X142647Y118153D01*
X142850Y118051D01*
X143053Y118153D01*
X142951Y117950D01*
X143053Y117747D01*
X142850Y117848D01*
X142647Y117747D01*
X142748Y117848D02*
X142799Y117950D01*
X142748Y118051D01*
X142850Y118001D01*
X142951Y118051D01*
X142901Y117950D01*
X142951Y117848D01*
X142850Y117899D01*
X142748Y117848D01*
X142097Y116797D02*
X142198D01*
X142300Y116898D01*
X142402Y116797D01*
X142503D01*
Y116898D01*
X142402Y117000D01*
X142503Y117102D01*
Y117203D01*
X142402D01*
X142300Y117102D01*
X142198Y117203D01*
X142097D01*
Y117102D01*
X142198Y117000D01*
X142097Y116898D01*
Y116797D01*
X142198Y116898D02*
X142249D01*
X142300Y116949D01*
X142351Y116898D01*
X142402D01*
Y116949D01*
X142351Y117000D01*
X142402Y117051D01*
Y117102D01*
X142351D01*
X142300Y117051D01*
X142249Y117102D01*
X142198D01*
Y117051D01*
X142249Y117000D01*
X142198Y116949D01*
Y116898D01*
X141847Y115747D02*
X141948Y115950D01*
X141847Y116153D01*
X142050Y116052D01*
X142253Y116153D01*
X142152Y115950D01*
X142253Y115747D01*
X142050Y115848D01*
X141847Y115747D01*
X141948Y115848D02*
X141999Y115950D01*
X141948Y116052D01*
X142050Y116001D01*
X142152Y116052D01*
X142101Y115950D01*
X142152Y115848D01*
X142050Y115899D01*
X141948Y115848D01*
X168496Y130497D02*
X168598D01*
X168700Y130598D01*
X168801Y130497D01*
X168903D01*
Y130598D01*
X168801Y130700D01*
X168903Y130801D01*
Y130903D01*
X168801D01*
X168700Y130801D01*
X168598Y130903D01*
X168496D01*
Y130801D01*
X168598Y130700D01*
X168496Y130598D01*
Y130497D01*
X168598Y130598D02*
X168649D01*
X168700Y130649D01*
X168750Y130598D01*
X168801D01*
Y130649D01*
X168750Y130700D01*
X168801Y130751D01*
Y130801D01*
X168750D01*
X168700Y130751D01*
X168649Y130801D01*
X168598D01*
Y130751D01*
X168649Y130700D01*
X168598Y130649D01*
Y130598D01*
X167546Y132497D02*
X167648D01*
X167750Y132598D01*
X167851Y132497D01*
X167953D01*
Y132598D01*
X167851Y132700D01*
X167953Y132802D01*
Y132903D01*
X167851D01*
X167750Y132802D01*
X167648Y132903D01*
X167546D01*
Y132802D01*
X167648Y132700D01*
X167546Y132598D01*
Y132497D01*
X167648Y132598D02*
X167699D01*
X167750Y132649D01*
X167800Y132598D01*
X167851D01*
Y132649D01*
X167800Y132700D01*
X167851Y132751D01*
Y132802D01*
X167800D01*
X167750Y132751D01*
X167699Y132802D01*
X167648D01*
Y132751D01*
X167699Y132700D01*
X167648Y132649D01*
Y132598D01*
X174547Y134797D02*
X174648D01*
X174750Y134898D01*
X174852Y134797D01*
X174953D01*
Y134898D01*
X174852Y135000D01*
X174953Y135102D01*
Y135203D01*
X174852D01*
X174750Y135102D01*
X174648Y135203D01*
X174547D01*
Y135102D01*
X174648Y135000D01*
X174547Y134898D01*
Y134797D01*
X174648Y134898D02*
X174699D01*
X174750Y134949D01*
X174801Y134898D01*
X174852D01*
Y134949D01*
X174801Y135000D01*
X174852Y135051D01*
Y135102D01*
X174801D01*
X174750Y135051D01*
X174699Y135102D01*
X174648D01*
Y135051D01*
X174699Y135000D01*
X174648Y134949D01*
Y134898D01*
X169773Y143248D02*
Y143147D01*
X169977D01*
Y143248D01*
X170078D01*
Y143452D01*
X169977D01*
Y143553D01*
X169773D01*
Y143452D01*
X169672D01*
Y143248D01*
X169773D01*
X169824Y143299D02*
Y143248D01*
X169926D01*
Y143299D01*
X169977D01*
Y143401D01*
X169926D01*
Y143452D01*
X169824D01*
Y143401D01*
X169773D01*
Y143299D01*
X169824D01*
X164047Y134547D02*
X164148D01*
X164250Y134648D01*
X164352Y134547D01*
X164453D01*
Y134648D01*
X164352Y134750D01*
X164453Y134852D01*
Y134953D01*
X164352D01*
X164250Y134852D01*
X164148Y134953D01*
X164047D01*
Y134852D01*
X164148Y134750D01*
X164047Y134648D01*
Y134547D01*
X164148Y134648D02*
X164199D01*
X164250Y134699D01*
X164301Y134648D01*
X164352D01*
Y134699D01*
X164301Y134750D01*
X164352Y134801D01*
Y134852D01*
X164301D01*
X164250Y134801D01*
X164199Y134852D01*
X164148D01*
Y134801D01*
X164199Y134750D01*
X164148Y134699D01*
Y134648D01*
X171897Y132224D02*
X171998D01*
X172100Y132326D01*
X172202Y132224D01*
X172303D01*
Y132326D01*
X172202Y132427D01*
X172303Y132529D01*
Y132630D01*
X172202D01*
X172100Y132529D01*
X171998Y132630D01*
X171897D01*
Y132529D01*
X171998Y132427D01*
X171897Y132326D01*
Y132224D01*
X171998Y132326D02*
X172049D01*
X172100Y132376D01*
X172151Y132326D01*
X172202D01*
Y132376D01*
X172151Y132427D01*
X172202Y132478D01*
Y132529D01*
X172151D01*
X172100Y132478D01*
X172049Y132529D01*
X171998D01*
Y132478D01*
X172049Y132427D01*
X171998Y132376D01*
Y132326D01*
X170996Y132797D02*
X171098D01*
X171200Y132898D01*
X171301Y132797D01*
X171403D01*
Y132898D01*
X171301Y133000D01*
X171403Y133101D01*
Y133203D01*
X171301D01*
X171200Y133101D01*
X171098Y133203D01*
X170996D01*
Y133101D01*
X171098Y133000D01*
X170996Y132898D01*
Y132797D01*
X171098Y132898D02*
X171149D01*
X171200Y132949D01*
X171250Y132898D01*
X171301D01*
Y132949D01*
X171250Y133000D01*
X171301Y133051D01*
Y133101D01*
X171250D01*
X171200Y133051D01*
X171149Y133101D01*
X171098D01*
Y133051D01*
X171149Y133000D01*
X171098Y132949D01*
Y132898D01*
X173547Y142672D02*
X173648D01*
X173750Y142773D01*
X173852Y142672D01*
X173953D01*
Y142773D01*
X173852Y142875D01*
X173953Y142977D01*
Y143078D01*
X173852D01*
X173750Y142977D01*
X173648Y143078D01*
X173547D01*
Y142977D01*
X173648Y142875D01*
X173547Y142773D01*
Y142672D01*
X173648Y142773D02*
X173699D01*
X173750Y142824D01*
X173801Y142773D01*
X173852D01*
Y142824D01*
X173801Y142875D01*
X173852Y142926D01*
Y142977D01*
X173801D01*
X173750Y142926D01*
X173699Y142977D01*
X173648D01*
Y142926D01*
X173699Y142875D01*
X173648Y142824D01*
Y142773D01*
X174772Y140570D02*
X174873D01*
X174975Y140671D01*
X175077Y140570D01*
X175178D01*
Y140671D01*
X175077Y140773D01*
X175178Y140875D01*
Y140976D01*
X175077D01*
X174975Y140875D01*
X174873Y140976D01*
X174772D01*
Y140875D01*
X174873Y140773D01*
X174772Y140671D01*
Y140570D01*
X174873Y140671D02*
X174924D01*
X174975Y140722D01*
X175026Y140671D01*
X175077D01*
Y140722D01*
X175026Y140773D01*
X175077Y140824D01*
Y140875D01*
X175026D01*
X174975Y140824D01*
X174924Y140875D01*
X174873D01*
Y140824D01*
X174924Y140773D01*
X174873Y140722D01*
Y140671D01*
X165996Y132797D02*
X166098D01*
X166200Y132898D01*
X166301Y132797D01*
X166403D01*
Y132898D01*
X166301Y133000D01*
X166403Y133101D01*
Y133203D01*
X166301D01*
X166200Y133101D01*
X166098Y133203D01*
X165996D01*
Y133101D01*
X166098Y133000D01*
X165996Y132898D01*
Y132797D01*
X166098Y132898D02*
X166149D01*
X166200Y132949D01*
X166250Y132898D01*
X166301D01*
Y132949D01*
X166250Y133000D01*
X166301Y133051D01*
Y133101D01*
X166250D01*
X166200Y133051D01*
X166149Y133101D01*
X166098D01*
Y133051D01*
X166149Y133000D01*
X166098Y132949D01*
Y132898D01*
X167823Y142398D02*
Y142297D01*
X168027D01*
Y142398D01*
X168128D01*
Y142602D01*
X168027D01*
Y142703D01*
X167823D01*
Y142602D01*
X167722D01*
Y142398D01*
X167823D01*
X167874Y142449D02*
Y142398D01*
X167976D01*
Y142449D01*
X168027D01*
Y142551D01*
X167976D01*
Y142602D01*
X167874D01*
Y142551D01*
X167823D01*
Y142449D01*
X167874D01*
X169773Y142398D02*
Y142297D01*
X169977D01*
Y142398D01*
X170078D01*
Y142602D01*
X169977D01*
Y142703D01*
X169773D01*
Y142602D01*
X169672D01*
Y142398D01*
X169773D01*
X169824Y142449D02*
Y142398D01*
X169926D01*
Y142449D01*
X169977D01*
Y142551D01*
X169926D01*
Y142602D01*
X169824D01*
Y142551D01*
X169773D01*
Y142449D01*
X169824D01*
X144897Y81297D02*
X144998D01*
X145100Y81398D01*
X145202Y81297D01*
X145303D01*
Y81398D01*
X145202Y81500D01*
X145303Y81602D01*
Y81703D01*
X145202D01*
X145100Y81602D01*
X144998Y81703D01*
X144897D01*
Y81602D01*
X144998Y81500D01*
X144897Y81398D01*
Y81297D01*
X144998Y81398D02*
X145049D01*
X145100Y81449D01*
X145151Y81398D01*
X145202D01*
Y81449D01*
X145151Y81500D01*
X145202Y81551D01*
Y81602D01*
X145151D01*
X145100Y81551D01*
X145049Y81602D01*
X144998D01*
Y81551D01*
X145049Y81500D01*
X144998Y81449D01*
Y81398D01*
X53697Y116247D02*
X53798Y116450D01*
X53697Y116653D01*
X53900Y116552D01*
X54103Y116653D01*
X54002Y116450D01*
X54103Y116247D01*
X53900Y116348D01*
X53697Y116247D01*
X53798Y116348D02*
X53849Y116450D01*
X53798Y116552D01*
X53900Y116501D01*
X54002Y116552D01*
X53951Y116450D01*
X54002Y116348D01*
X53900Y116399D01*
X53798Y116348D01*
X52897Y125897D02*
X52998D01*
X53100Y125998D01*
X53202Y125897D01*
X53303D01*
Y125998D01*
X53202Y126100D01*
X53303Y126202D01*
Y126303D01*
X53202D01*
X53100Y126202D01*
X52998Y126303D01*
X52897D01*
Y126202D01*
X52998Y126100D01*
X52897Y125998D01*
Y125897D01*
X52998Y125998D02*
X53049D01*
X53100Y126049D01*
X53151Y125998D01*
X53202D01*
Y126049D01*
X53151Y126100D01*
X53202Y126151D01*
Y126202D01*
X53151D01*
X53100Y126151D01*
X53049Y126202D01*
X52998D01*
Y126151D01*
X53049Y126100D01*
X52998Y126049D01*
Y125998D01*
X53097Y127448D02*
X53198Y127651D01*
X53097Y127855D01*
X53300Y127753D01*
X53503Y127855D01*
X53402Y127651D01*
X53503Y127448D01*
X53300Y127550D01*
X53097Y127448D01*
X53198Y127550D02*
X53249Y127651D01*
X53198Y127753D01*
X53300Y127702D01*
X53402Y127753D01*
X53351Y127651D01*
X53402Y127550D01*
X53300Y127601D01*
X53198Y127550D01*
X95797Y117597D02*
X95898Y117800D01*
X95797Y118003D01*
X96000Y117902D01*
X96203Y118003D01*
X96102Y117800D01*
X96203Y117597D01*
X96000Y117698D01*
X95797Y117597D01*
X95898Y117698D02*
X95949Y117800D01*
X95898Y117902D01*
X96000Y117851D01*
X96102Y117902D01*
X96051Y117800D01*
X96102Y117698D01*
X96000Y117749D01*
X95898Y117698D01*
X90597Y115597D02*
X90698Y115800D01*
X90597Y116003D01*
X90800Y115902D01*
X91003Y116003D01*
X90902Y115800D01*
X91003Y115597D01*
X90800Y115698D01*
X90597Y115597D01*
X90698Y115698D02*
X90749Y115800D01*
X90698Y115902D01*
X90800Y115851D01*
X90902Y115902D01*
X90851Y115800D01*
X90902Y115698D01*
X90800Y115749D01*
X90698Y115698D01*
X95547Y118947D02*
X95648Y119150D01*
X95547Y119353D01*
X95750Y119252D01*
X95953Y119353D01*
X95852Y119150D01*
X95953Y118947D01*
X95750Y119048D01*
X95547Y118947D01*
X95648Y119048D02*
X95699Y119150D01*
X95648Y119252D01*
X95750Y119201D01*
X95852Y119252D01*
X95801Y119150D01*
X95852Y119048D01*
X95750Y119099D01*
X95648Y119048D01*
X95347Y120247D02*
X95448Y120450D01*
X95347Y120653D01*
X95550Y120552D01*
X95753Y120653D01*
X95652Y120450D01*
X95753Y120247D01*
X95550Y120348D01*
X95347Y120247D01*
X95448Y120348D02*
X95499Y120450D01*
X95448Y120552D01*
X95550Y120501D01*
X95652Y120552D01*
X95601Y120450D01*
X95652Y120348D01*
X95550Y120399D01*
X95448Y120348D01*
X90597Y117597D02*
X90698Y117800D01*
X90597Y118003D01*
X90800Y117902D01*
X91003Y118003D01*
X90902Y117800D01*
X91003Y117597D01*
X90800Y117698D01*
X90597Y117597D01*
X90698Y117698D02*
X90749Y117800D01*
X90698Y117902D01*
X90800Y117851D01*
X90902Y117902D01*
X90851Y117800D01*
X90902Y117698D01*
X90800Y117749D01*
X90698Y117698D01*
X72797Y121947D02*
X72898Y122150D01*
X72797Y122353D01*
X73000Y122252D01*
X73203Y122353D01*
X73102Y122150D01*
X73203Y121947D01*
X73000Y122048D01*
X72797Y121947D01*
X72898Y122048D02*
X72949Y122150D01*
X72898Y122252D01*
X73000Y122201D01*
X73102Y122252D01*
X73051Y122150D01*
X73102Y122048D01*
X73000Y122099D01*
X72898Y122048D01*
X71197Y123497D02*
X71298Y123700D01*
X71197Y123903D01*
X71400Y123802D01*
X71603Y123903D01*
X71502Y123700D01*
X71603Y123497D01*
X71400Y123598D01*
X71197Y123497D01*
X71298Y123598D02*
X71349Y123700D01*
X71298Y123802D01*
X71400Y123751D01*
X71502Y123802D01*
X71451Y123700D01*
X71502Y123598D01*
X71400Y123649D01*
X71298Y123598D01*
X71997Y122697D02*
X72098Y122900D01*
X71997Y123103D01*
X72200Y123002D01*
X72403Y123103D01*
X72302Y122900D01*
X72403Y122697D01*
X72200Y122798D01*
X71997Y122697D01*
X72098Y122798D02*
X72149Y122900D01*
X72098Y123002D01*
X72200Y122951D01*
X72302Y123002D01*
X72251Y122900D01*
X72302Y122798D01*
X72200Y122849D01*
X72098Y122798D01*
X81447Y119037D02*
X81548D01*
X81650Y119138D01*
X81752Y119037D01*
X81853D01*
Y119138D01*
X81752Y119240D01*
X81853Y119342D01*
Y119443D01*
X81752D01*
X81650Y119342D01*
X81548Y119443D01*
X81447D01*
Y119342D01*
X81548Y119240D01*
X81447Y119138D01*
Y119037D01*
X81548Y119138D02*
X81599D01*
X81650Y119189D01*
X81701Y119138D01*
X81752D01*
Y119189D01*
X81701Y119240D01*
X81752Y119291D01*
Y119342D01*
X81701D01*
X81650Y119291D01*
X81599Y119342D01*
X81548D01*
Y119291D01*
X81599Y119240D01*
X81548Y119189D01*
Y119138D01*
X91797Y107197D02*
X91898D01*
X92000Y107298D01*
X92102Y107197D01*
X92203D01*
Y107298D01*
X92102Y107400D01*
X92203Y107502D01*
Y107603D01*
X92102D01*
X92000Y107502D01*
X91898Y107603D01*
X91797D01*
Y107502D01*
X91898Y107400D01*
X91797Y107298D01*
Y107197D01*
X91898Y107298D02*
X91949D01*
X92000Y107349D01*
X92051Y107298D01*
X92102D01*
Y107349D01*
X92051Y107400D01*
X92102Y107451D01*
Y107502D01*
X92051D01*
X92000Y107451D01*
X91949Y107502D01*
X91898D01*
Y107451D01*
X91949Y107400D01*
X91898Y107349D01*
Y107298D01*
X113197Y101197D02*
X113298Y101400D01*
X113197Y101603D01*
X113400Y101502D01*
X113603Y101603D01*
X113502Y101400D01*
X113603Y101197D01*
X113400Y101298D01*
X113197Y101197D01*
X113298Y101298D02*
X113349Y101400D01*
X113298Y101502D01*
X113400Y101451D01*
X113502Y101502D01*
X113451Y101400D01*
X113502Y101298D01*
X113400Y101349D01*
X113298Y101298D01*
X177547Y73022D02*
X177648D01*
X177750Y73123D01*
X177852Y73022D01*
X177953D01*
Y73123D01*
X177852Y73225D01*
X177953Y73327D01*
Y73428D01*
X177852D01*
X177750Y73327D01*
X177648Y73428D01*
X177547D01*
Y73327D01*
X177648Y73225D01*
X177547Y73123D01*
Y73022D01*
X177648Y73123D02*
X177699D01*
X177750Y73174D01*
X177801Y73123D01*
X177852D01*
Y73174D01*
X177801Y73225D01*
X177852Y73276D01*
Y73327D01*
X177801D01*
X177750Y73276D01*
X177699Y73327D01*
X177648D01*
Y73276D01*
X177699Y73225D01*
X177648Y73174D01*
Y73123D01*
X70630Y112465D02*
X70731D01*
X70833Y112567D01*
X70934Y112465D01*
X71036D01*
Y112567D01*
X70934Y112669D01*
X71036Y112770D01*
Y112872D01*
X70934D01*
X70833Y112770D01*
X70731Y112872D01*
X70630D01*
Y112770D01*
X70731Y112669D01*
X70630Y112567D01*
Y112465D01*
X70731Y112567D02*
X70782D01*
X70833Y112618D01*
X70884Y112567D01*
X70934D01*
Y112618D01*
X70884Y112669D01*
X70934Y112719D01*
Y112770D01*
X70884D01*
X70833Y112719D01*
X70782Y112770D01*
X70731D01*
Y112719D01*
X70782Y112669D01*
X70731Y112618D01*
Y112567D01*
X176722Y73797D02*
X176823D01*
X176925Y73898D01*
X177027Y73797D01*
X177128D01*
Y73898D01*
X177027Y74000D01*
X177128Y74102D01*
Y74203D01*
X177027D01*
X176925Y74102D01*
X176823Y74203D01*
X176722D01*
Y74102D01*
X176823Y74000D01*
X176722Y73898D01*
Y73797D01*
X176823Y73898D02*
X176874D01*
X176925Y73949D01*
X176976Y73898D01*
X177027D01*
Y73949D01*
X176976Y74000D01*
X177027Y74051D01*
Y74102D01*
X176976D01*
X176925Y74051D01*
X176874Y74102D01*
X176823D01*
Y74051D01*
X176874Y74000D01*
X176823Y73949D01*
Y73898D01*
X70978Y111465D02*
X71080D01*
X71181Y111567D01*
X71283Y111465D01*
X71385D01*
Y111567D01*
X71283Y111669D01*
X71385Y111770D01*
Y111872D01*
X71283D01*
X71181Y111770D01*
X71080Y111872D01*
X70978D01*
Y111770D01*
X71080Y111669D01*
X70978Y111567D01*
Y111465D01*
X71080Y111567D02*
X71131D01*
X71181Y111618D01*
X71232Y111567D01*
X71283D01*
Y111618D01*
X71232Y111669D01*
X71283Y111719D01*
Y111770D01*
X71232D01*
X71181Y111719D01*
X71131Y111770D01*
X71080D01*
Y111719D01*
X71131Y111669D01*
X71080Y111618D01*
Y111567D01*
X178497Y71047D02*
X178598D01*
X178700Y71148D01*
X178802Y71047D01*
X178903D01*
Y71148D01*
X178802Y71250D01*
X178903Y71352D01*
Y71453D01*
X178802D01*
X178700Y71352D01*
X178598Y71453D01*
X178497D01*
Y71352D01*
X178598Y71250D01*
X178497Y71148D01*
Y71047D01*
X178598Y71148D02*
X178649D01*
X178700Y71199D01*
X178751Y71148D01*
X178802D01*
Y71199D01*
X178751Y71250D01*
X178802Y71301D01*
Y71352D01*
X178751D01*
X178700Y71301D01*
X178649Y71352D01*
X178598D01*
Y71301D01*
X178649Y71250D01*
X178598Y71199D01*
Y71148D01*
X175966Y74687D02*
X176068D01*
X176169Y74788D01*
X176271Y74687D01*
X176372D01*
Y74788D01*
X176271Y74890D01*
X176372Y74992D01*
Y75093D01*
X176271D01*
X176169Y74992D01*
X176068Y75093D01*
X175966D01*
Y74992D01*
X176068Y74890D01*
X175966Y74788D01*
Y74687D01*
X176068Y74788D02*
X176118D01*
X176169Y74839D01*
X176220Y74788D01*
X176271D01*
Y74839D01*
X176220Y74890D01*
X176271Y74941D01*
Y74992D01*
X176220D01*
X176169Y74941D01*
X176118Y74992D01*
X176068D01*
Y74941D01*
X176118Y74890D01*
X176068Y74839D01*
Y74788D01*
X172497Y74597D02*
X172598D01*
X172700Y74698D01*
X172802Y74597D01*
X172903D01*
Y74698D01*
X172802Y74800D01*
X172903Y74902D01*
Y75003D01*
X172802D01*
X172700Y74902D01*
X172598Y75003D01*
X172497D01*
Y74902D01*
X172598Y74800D01*
X172497Y74698D01*
Y74597D01*
X172598Y74698D02*
X172649D01*
X172700Y74749D01*
X172751Y74698D01*
X172802D01*
Y74749D01*
X172751Y74800D01*
X172802Y74851D01*
Y74902D01*
X172751D01*
X172700Y74851D01*
X172649Y74902D01*
X172598D01*
Y74851D01*
X172649Y74800D01*
X172598Y74749D01*
Y74698D01*
X171697Y73697D02*
X171798D01*
X171900Y73798D01*
X172002Y73697D01*
X172103D01*
Y73798D01*
X172002Y73900D01*
X172103Y74002D01*
Y74103D01*
X172002D01*
X171900Y74002D01*
X171798Y74103D01*
X171697D01*
Y74002D01*
X171798Y73900D01*
X171697Y73798D01*
Y73697D01*
X171798Y73798D02*
X171849D01*
X171900Y73849D01*
X171951Y73798D01*
X172002D01*
Y73849D01*
X171951Y73900D01*
X172002Y73951D01*
Y74002D01*
X171951D01*
X171900Y73951D01*
X171849Y74002D01*
X171798D01*
Y73951D01*
X171849Y73900D01*
X171798Y73849D01*
Y73798D01*
X88547Y127417D02*
X88648D01*
X88750Y127518D01*
X88852Y127417D01*
X88953D01*
Y127518D01*
X88852Y127620D01*
X88953Y127722D01*
Y127823D01*
X88852D01*
X88750Y127722D01*
X88648Y127823D01*
X88547D01*
Y127722D01*
X88648Y127620D01*
X88547Y127518D01*
Y127417D01*
X88648Y127518D02*
X88699D01*
X88750Y127569D01*
X88801Y127518D01*
X88852D01*
Y127569D01*
X88801Y127620D01*
X88852Y127671D01*
Y127722D01*
X88801D01*
X88750Y127671D01*
X88699Y127722D01*
X88648D01*
Y127671D01*
X88699Y127620D01*
X88648Y127569D01*
Y127518D01*
X95297Y109297D02*
X95398D01*
X95500Y109398D01*
X95602Y109297D01*
X95703D01*
Y109398D01*
X95602Y109500D01*
X95703Y109602D01*
Y109703D01*
X95602D01*
X95500Y109602D01*
X95398Y109703D01*
X95297D01*
Y109602D01*
X95398Y109500D01*
X95297Y109398D01*
Y109297D01*
X95398Y109398D02*
X95449D01*
X95500Y109449D01*
X95551Y109398D01*
X95602D01*
Y109449D01*
X95551Y109500D01*
X95602Y109551D01*
Y109602D01*
X95551D01*
X95500Y109551D01*
X95449Y109602D01*
X95398D01*
Y109551D01*
X95449Y109500D01*
X95398Y109449D01*
Y109398D01*
X159497Y66097D02*
X159598D01*
X159700Y66198D01*
X159802Y66097D01*
X159903D01*
Y66198D01*
X159802Y66300D01*
X159903Y66402D01*
Y66503D01*
X159802D01*
X159700Y66402D01*
X159598Y66503D01*
X159497D01*
Y66402D01*
X159598Y66300D01*
X159497Y66198D01*
Y66097D01*
X159598Y66198D02*
X159649D01*
X159700Y66249D01*
X159751Y66198D01*
X159802D01*
Y66249D01*
X159751Y66300D01*
X159802Y66351D01*
Y66402D01*
X159751D01*
X159700Y66351D01*
X159649Y66402D01*
X159598D01*
Y66351D01*
X159649Y66300D01*
X159598Y66249D01*
Y66198D01*
X158497Y66897D02*
X158598D01*
X158700Y66998D01*
X158802Y66897D01*
X158903D01*
Y66998D01*
X158802Y67100D01*
X158903Y67202D01*
Y67303D01*
X158802D01*
X158700Y67202D01*
X158598Y67303D01*
X158497D01*
Y67202D01*
X158598Y67100D01*
X158497Y66998D01*
Y66897D01*
X158598Y66998D02*
X158649D01*
X158700Y67049D01*
X158751Y66998D01*
X158802D01*
Y67049D01*
X158751Y67100D01*
X158802Y67151D01*
Y67202D01*
X158751D01*
X158700Y67151D01*
X158649Y67202D01*
X158598D01*
Y67151D01*
X158649Y67100D01*
X158598Y67049D01*
Y66998D01*
X60747Y127097D02*
X60848D01*
X60950Y127198D01*
X61052Y127097D01*
X61153D01*
Y127198D01*
X61052Y127300D01*
X61153Y127402D01*
Y127503D01*
X61052D01*
X60950Y127402D01*
X60848Y127503D01*
X60747D01*
Y127402D01*
X60848Y127300D01*
X60747Y127198D01*
Y127097D01*
X60848Y127198D02*
X60899D01*
X60950Y127249D01*
X61001Y127198D01*
X61052D01*
Y127249D01*
X61001Y127300D01*
X61052Y127351D01*
Y127402D01*
X61001D01*
X60950Y127351D01*
X60899Y127402D01*
X60848D01*
Y127351D01*
X60899Y127300D01*
X60848Y127249D01*
Y127198D01*
X126697Y123197D02*
X126798Y123400D01*
X126697Y123603D01*
X126900Y123502D01*
X127103Y123603D01*
X127002Y123400D01*
X127103Y123197D01*
X126900Y123298D01*
X126697Y123197D01*
X126798Y123298D02*
X126849Y123400D01*
X126798Y123502D01*
X126900Y123451D01*
X127002Y123502D01*
X126951Y123400D01*
X127002Y123298D01*
X126900Y123349D01*
X126798Y123298D01*
X125398Y138198D02*
Y138097D01*
X125601D01*
Y138198D01*
X125703D01*
Y138401D01*
X125601D01*
Y138503D01*
X125398D01*
Y138401D01*
X125297D01*
Y138198D01*
X125398D01*
X125449Y138249D02*
Y138198D01*
X125551D01*
Y138249D01*
X125601D01*
Y138351D01*
X125551D01*
Y138401D01*
X125449D01*
Y138351D01*
X125398D01*
Y138249D01*
X125449D01*
X125423Y138898D02*
Y138797D01*
X125627D01*
Y138898D01*
X125728D01*
Y139102D01*
X125627D01*
Y139203D01*
X125423D01*
Y139102D01*
X125322D01*
Y138898D01*
X125423D01*
X125474Y138949D02*
Y138898D01*
X125576D01*
Y138949D01*
X125627D01*
Y139051D01*
X125576D01*
Y139102D01*
X125474D01*
Y139051D01*
X125423D01*
Y138949D01*
X125474D01*
X131797Y123447D02*
X131898Y123650D01*
X131797Y123853D01*
X132000Y123752D01*
X132203Y123853D01*
X132102Y123650D01*
X132203Y123447D01*
X132000Y123548D01*
X131797Y123447D01*
X131898Y123548D02*
X131949Y123650D01*
X131898Y123752D01*
X132000Y123701D01*
X132102Y123752D01*
X132051Y123650D01*
X132102Y123548D01*
X132000Y123599D01*
X131898Y123548D01*
X108672Y79547D02*
X108773D01*
X108875Y79648D01*
X108977Y79547D01*
X109078D01*
Y79648D01*
X108977Y79750D01*
X109078Y79852D01*
Y79953D01*
X108977D01*
X108875Y79852D01*
X108773Y79953D01*
X108672D01*
Y79852D01*
X108773Y79750D01*
X108672Y79648D01*
Y79547D01*
X108773Y79648D02*
X108824D01*
X108875Y79699D01*
X108926Y79648D01*
X108977D01*
Y79699D01*
X108926Y79750D01*
X108977Y79801D01*
Y79852D01*
X108926D01*
X108875Y79801D01*
X108824Y79852D01*
X108773D01*
Y79801D01*
X108824Y79750D01*
X108773Y79699D01*
Y79648D01*
X94297Y79797D02*
X94398D01*
X94500Y79898D01*
X94602Y79797D01*
X94703D01*
Y79898D01*
X94602Y80000D01*
X94703Y80102D01*
Y80203D01*
X94602D01*
X94500Y80102D01*
X94398Y80203D01*
X94297D01*
Y80102D01*
X94398Y80000D01*
X94297Y79898D01*
Y79797D01*
X94398Y79898D02*
X94449D01*
X94500Y79949D01*
X94551Y79898D01*
X94602D01*
Y79949D01*
X94551Y80000D01*
X94602Y80051D01*
Y80102D01*
X94551D01*
X94500Y80051D01*
X94449Y80102D01*
X94398D01*
Y80051D01*
X94449Y80000D01*
X94398Y79949D01*
Y79898D01*
X100850Y111150D02*
X100952Y111354D01*
X100850Y111557D01*
X101054Y111455D01*
X101257Y111557D01*
X101155Y111354D01*
X101257Y111150D01*
X101054Y111252D01*
X100850Y111150D01*
X100952Y111252D02*
X101003Y111354D01*
X100952Y111455D01*
X101054Y111404D01*
X101155Y111455D01*
X101104Y111354D01*
X101155Y111252D01*
X101054Y111303D01*
X100952Y111252D01*
X109192Y77402D02*
X109293D01*
X109395Y77503D01*
X109497Y77402D01*
X109598D01*
Y77503D01*
X109497Y77605D01*
X109598Y77707D01*
Y77808D01*
X109497D01*
X109395Y77707D01*
X109293Y77808D01*
X109192D01*
Y77707D01*
X109293Y77605D01*
X109192Y77503D01*
Y77402D01*
X109293Y77503D02*
X109344D01*
X109395Y77554D01*
X109446Y77503D01*
X109497D01*
Y77554D01*
X109446Y77605D01*
X109497Y77656D01*
Y77707D01*
X109446D01*
X109395Y77656D01*
X109344Y77707D01*
X109293D01*
Y77656D01*
X109344Y77605D01*
X109293Y77554D01*
Y77503D01*
X93297Y79197D02*
X93398D01*
X93500Y79298D01*
X93601Y79197D01*
X93703D01*
Y79298D01*
X93601Y79400D01*
X93703Y79501D01*
Y79603D01*
X93601D01*
X93500Y79501D01*
X93398Y79603D01*
X93297D01*
Y79501D01*
X93398Y79400D01*
X93297Y79298D01*
Y79197D01*
X93398Y79298D02*
X93449D01*
X93500Y79349D01*
X93551Y79298D01*
X93601D01*
Y79349D01*
X93551Y79400D01*
X93601Y79451D01*
Y79501D01*
X93551D01*
X93500Y79451D01*
X93449Y79501D01*
X93398D01*
Y79451D01*
X93449Y79400D01*
X93398Y79349D01*
Y79298D01*
X99497Y111047D02*
X99598Y111250D01*
X99497Y111453D01*
X99700Y111352D01*
X99903Y111453D01*
X99802Y111250D01*
X99903Y111047D01*
X99700Y111148D01*
X99497Y111047D01*
X99598Y111148D02*
X99649Y111250D01*
X99598Y111352D01*
X99700Y111301D01*
X99802Y111352D01*
X99751Y111250D01*
X99802Y111148D01*
X99700Y111199D01*
X99598Y111148D01*
X141697Y114497D02*
X141798D01*
X141900Y114598D01*
X142002Y114497D01*
X142103D01*
Y114598D01*
X142002Y114700D01*
X142103Y114802D01*
Y114903D01*
X142002D01*
X141900Y114802D01*
X141798Y114903D01*
X141697D01*
Y114802D01*
X141798Y114700D01*
X141697Y114598D01*
Y114497D01*
X141798Y114598D02*
X141849D01*
X141900Y114649D01*
X141951Y114598D01*
X142002D01*
Y114649D01*
X141951Y114700D01*
X142002Y114751D01*
Y114802D01*
X141951D01*
X141900Y114751D01*
X141849Y114802D01*
X141798D01*
Y114751D01*
X141849Y114700D01*
X141798Y114649D01*
Y114598D01*
X113297Y142897D02*
X113398Y143100D01*
X113297Y143303D01*
X113500Y143202D01*
X113703Y143303D01*
X113602Y143100D01*
X113703Y142897D01*
X113500Y142998D01*
X113297Y142897D01*
X113398Y142998D02*
X113449Y143100D01*
X113398Y143202D01*
X113500Y143151D01*
X113602Y143202D01*
X113551Y143100D01*
X113602Y142998D01*
X113500Y143049D01*
X113398Y142998D01*
X119397Y142997D02*
X119498D01*
X119600Y143098D01*
X119702Y142997D01*
X119803D01*
Y143098D01*
X119702Y143200D01*
X119803Y143302D01*
Y143403D01*
X119702D01*
X119600Y143302D01*
X119498Y143403D01*
X119397D01*
Y143302D01*
X119498Y143200D01*
X119397Y143098D01*
Y142997D01*
X119498Y143098D02*
X119549D01*
X119600Y143149D01*
X119651Y143098D01*
X119702D01*
Y143149D01*
X119651Y143200D01*
X119702Y143251D01*
Y143302D01*
X119651D01*
X119600Y143251D01*
X119549Y143302D01*
X119498D01*
Y143251D01*
X119549Y143200D01*
X119498Y143149D01*
Y143098D01*
X68297Y135047D02*
X68398Y135250D01*
X68297Y135453D01*
X68500Y135352D01*
X68703Y135453D01*
X68602Y135250D01*
X68703Y135047D01*
X68500Y135148D01*
X68297Y135047D01*
X68398Y135148D02*
X68449Y135250D01*
X68398Y135352D01*
X68500Y135301D01*
X68602Y135352D01*
X68551Y135250D01*
X68602Y135148D01*
X68500Y135199D01*
X68398Y135148D01*
X114147Y143697D02*
X114248Y143900D01*
X114147Y144103D01*
X114350Y144002D01*
X114553Y144103D01*
X114452Y143900D01*
X114553Y143697D01*
X114350Y143798D01*
X114147Y143697D01*
X114248Y143798D02*
X114299Y143900D01*
X114248Y144002D01*
X114350Y143951D01*
X114452Y144002D01*
X114401Y143900D01*
X114452Y143798D01*
X114350Y143849D01*
X114248Y143798D01*
X138397Y129397D02*
X138498Y129600D01*
X138397Y129803D01*
X138600Y129702D01*
X138803Y129803D01*
X138702Y129600D01*
X138803Y129397D01*
X138600Y129498D01*
X138397Y129397D01*
X138498Y129498D02*
X138549Y129600D01*
X138498Y129702D01*
X138600Y129651D01*
X138702Y129702D01*
X138651Y129600D01*
X138702Y129498D01*
X138600Y129549D01*
X138498Y129498D01*
X127922Y128374D02*
X128023D01*
X128125Y128475D01*
X128227Y128374D01*
X128328D01*
Y128475D01*
X128227Y128577D01*
X128328Y128679D01*
Y128780D01*
X128227D01*
X128125Y128679D01*
X128023Y128780D01*
X127922D01*
Y128679D01*
X128023Y128577D01*
X127922Y128475D01*
Y128374D01*
X128023Y128475D02*
X128074D01*
X128125Y128526D01*
X128176Y128475D01*
X128227D01*
Y128526D01*
X128176Y128577D01*
X128227Y128628D01*
Y128679D01*
X128176D01*
X128125Y128628D01*
X128074Y128679D01*
X128023D01*
Y128628D01*
X128074Y128577D01*
X128023Y128526D01*
Y128475D01*
X128653Y127597D02*
X128754D01*
X128856Y127698D01*
X128958Y127597D01*
X129059D01*
Y127698D01*
X128958Y127800D01*
X129059Y127902D01*
Y128003D01*
X128958D01*
X128856Y127902D01*
X128754Y128003D01*
X128653D01*
Y127902D01*
X128754Y127800D01*
X128653Y127698D01*
Y127597D01*
X128754Y127698D02*
X128805D01*
X128856Y127749D01*
X128907Y127698D01*
X128958D01*
Y127749D01*
X128907Y127800D01*
X128958Y127851D01*
Y127902D01*
X128907D01*
X128856Y127851D01*
X128805Y127902D01*
X128754D01*
Y127851D01*
X128805Y127800D01*
X128754Y127749D01*
Y127698D01*
X130697Y128197D02*
X130798D01*
X130900Y128298D01*
X131002Y128197D01*
X131103D01*
Y128298D01*
X131002Y128400D01*
X131103Y128502D01*
Y128603D01*
X131002D01*
X130900Y128502D01*
X130798Y128603D01*
X130697D01*
Y128502D01*
X130798Y128400D01*
X130697Y128298D01*
Y128197D01*
X130798Y128298D02*
X130849D01*
X130900Y128349D01*
X130951Y128298D01*
X131002D01*
Y128349D01*
X130951Y128400D01*
X131002Y128451D01*
Y128502D01*
X130951D01*
X130900Y128451D01*
X130849Y128502D01*
X130798D01*
Y128451D01*
X130849Y128400D01*
X130798Y128349D01*
Y128298D01*
X144997Y125522D02*
X145098Y125725D01*
X144997Y125928D01*
X145200Y125827D01*
X145403Y125928D01*
X145302Y125725D01*
X145403Y125522D01*
X145200Y125623D01*
X144997Y125522D01*
X145098Y125623D02*
X145149Y125725D01*
X145098Y125827D01*
X145200Y125776D01*
X145302Y125827D01*
X145251Y125725D01*
X145302Y125623D01*
X145200Y125674D01*
X145098Y125623D01*
X172198Y138248D02*
Y138147D01*
X172402D01*
Y138248D01*
X172503D01*
Y138452D01*
X172402D01*
Y138553D01*
X172198D01*
Y138452D01*
X172097D01*
Y138248D01*
X172198D01*
X172249Y138299D02*
Y138248D01*
X172351D01*
Y138299D01*
X172402D01*
Y138401D01*
X172351D01*
Y138452D01*
X172249D01*
Y138401D01*
X172198D01*
Y138299D01*
X172249D01*
X172198Y137148D02*
Y137047D01*
X172402D01*
Y137148D01*
X172503D01*
Y137352D01*
X172402D01*
Y137453D01*
X172198D01*
Y137352D01*
X172097D01*
Y137148D01*
X172198D01*
X172249Y137199D02*
Y137148D01*
X172351D01*
Y137199D01*
X172402D01*
Y137301D01*
X172351D01*
Y137352D01*
X172249D01*
Y137301D01*
X172198D01*
Y137199D01*
X172249D01*
X171098Y138248D02*
Y138147D01*
X171302D01*
Y138248D01*
X171403D01*
Y138452D01*
X171302D01*
Y138553D01*
X171098D01*
Y138452D01*
X170997D01*
Y138248D01*
X171098D01*
X171149Y138299D02*
Y138248D01*
X171251D01*
Y138299D01*
X171302D01*
Y138401D01*
X171251D01*
Y138452D01*
X171149D01*
Y138401D01*
X171098D01*
Y138299D01*
X171149D01*
X171098Y137148D02*
Y137047D01*
X171302D01*
Y137148D01*
X171403D01*
Y137352D01*
X171302D01*
Y137453D01*
X171098D01*
Y137352D01*
X170997D01*
Y137148D01*
X171098D01*
X171149Y137199D02*
Y137148D01*
X171251D01*
Y137199D01*
X171302D01*
Y137301D01*
X171251D01*
Y137352D01*
X171149D01*
Y137301D01*
X171098D01*
Y137199D01*
X171149D01*
X169998Y138248D02*
Y138147D01*
X170202D01*
Y138248D01*
X170303D01*
Y138452D01*
X170202D01*
Y138553D01*
X169998D01*
Y138452D01*
X169897D01*
Y138248D01*
X169998D01*
X170049Y138299D02*
Y138248D01*
X170151D01*
Y138299D01*
X170202D01*
Y138401D01*
X170151D01*
Y138452D01*
X170049D01*
Y138401D01*
X169998D01*
Y138299D01*
X170049D01*
X169998Y137148D02*
Y137047D01*
X170202D01*
Y137148D01*
X170303D01*
Y137352D01*
X170202D01*
Y137453D01*
X169998D01*
Y137352D01*
X169897D01*
Y137148D01*
X169998D01*
X170049Y137199D02*
Y137148D01*
X170151D01*
Y137199D01*
X170202D01*
Y137301D01*
X170151D01*
Y137352D01*
X170049D01*
Y137301D01*
X169998D01*
Y137199D01*
X170049D01*
X168898Y138248D02*
Y138147D01*
X169102D01*
Y138248D01*
X169203D01*
Y138452D01*
X169102D01*
Y138553D01*
X168898D01*
Y138452D01*
X168797D01*
Y138248D01*
X168898D01*
X168949Y138299D02*
Y138248D01*
X169051D01*
Y138299D01*
X169102D01*
Y138401D01*
X169051D01*
Y138452D01*
X168949D01*
Y138401D01*
X168898D01*
Y138299D01*
X168949D01*
X168898Y137148D02*
Y137047D01*
X169102D01*
Y137148D01*
X169203D01*
Y137352D01*
X169102D01*
Y137453D01*
X168898D01*
Y137352D01*
X168797D01*
Y137148D01*
X168898D01*
X168949Y137199D02*
Y137148D01*
X169051D01*
Y137199D01*
X169102D01*
Y137301D01*
X169051D01*
Y137352D01*
X168949D01*
Y137301D01*
X168898D01*
Y137199D01*
X168949D01*
X167798Y138248D02*
Y138147D01*
X168002D01*
Y138248D01*
X168103D01*
Y138452D01*
X168002D01*
Y138553D01*
X167798D01*
Y138452D01*
X167697D01*
Y138248D01*
X167798D01*
X167849Y138299D02*
Y138248D01*
X167951D01*
Y138299D01*
X168002D01*
Y138401D01*
X167951D01*
Y138452D01*
X167849D01*
Y138401D01*
X167798D01*
Y138299D01*
X167849D01*
X167798Y137148D02*
Y137047D01*
X168002D01*
Y137148D01*
X168103D01*
Y137352D01*
X168002D01*
Y137453D01*
X167798D01*
Y137352D01*
X167697D01*
Y137148D01*
X167798D01*
X167849Y137199D02*
Y137148D01*
X167951D01*
Y137199D01*
X168002D01*
Y137301D01*
X167951D01*
Y137352D01*
X167849D01*
Y137301D01*
X167798D01*
Y137199D01*
X167849D01*
X166698Y138248D02*
Y138147D01*
X166902D01*
Y138248D01*
X167003D01*
Y138452D01*
X166902D01*
Y138553D01*
X166698D01*
Y138452D01*
X166597D01*
Y138248D01*
X166698D01*
X166749Y138299D02*
Y138248D01*
X166851D01*
Y138299D01*
X166902D01*
Y138401D01*
X166851D01*
Y138452D01*
X166749D01*
Y138401D01*
X166698D01*
Y138299D01*
X166749D01*
X166698Y137148D02*
Y137047D01*
X166902D01*
Y137148D01*
X167003D01*
Y137352D01*
X166902D01*
Y137453D01*
X166698D01*
Y137352D01*
X166597D01*
Y137148D01*
X166698D01*
X166749Y137199D02*
Y137148D01*
X166851D01*
Y137199D01*
X166902D01*
Y137301D01*
X166851D01*
Y137352D01*
X166749D01*
Y137301D01*
X166698D01*
Y137199D01*
X166749D01*
X145297Y80097D02*
X145398D01*
X145500Y80198D01*
X145602Y80097D01*
X145703D01*
Y80198D01*
X145602Y80300D01*
X145703Y80402D01*
Y80503D01*
X145602D01*
X145500Y80402D01*
X145398Y80503D01*
X145297D01*
Y80402D01*
X145398Y80300D01*
X145297Y80198D01*
Y80097D01*
X145398Y80198D02*
X145449D01*
X145500Y80249D01*
X145551Y80198D01*
X145602D01*
Y80249D01*
X145551Y80300D01*
X145602Y80351D01*
Y80402D01*
X145551D01*
X145500Y80351D01*
X145449Y80402D01*
X145398D01*
Y80351D01*
X145449Y80300D01*
X145398Y80249D01*
Y80198D01*
X145797Y81297D02*
X145898D01*
X146000Y81398D01*
X146102Y81297D01*
X146203D01*
Y81398D01*
X146102Y81500D01*
X146203Y81602D01*
Y81703D01*
X146102D01*
X146000Y81602D01*
X145898Y81703D01*
X145797D01*
Y81602D01*
X145898Y81500D01*
X145797Y81398D01*
Y81297D01*
X145898Y81398D02*
X145949D01*
X146000Y81449D01*
X146051Y81398D01*
X146102D01*
Y81449D01*
X146051Y81500D01*
X146102Y81551D01*
Y81602D01*
X146051D01*
X146000Y81551D01*
X145949Y81602D01*
X145898D01*
Y81551D01*
X145949Y81500D01*
X145898Y81449D01*
Y81398D01*
X79197Y123797D02*
X79298D01*
X79400Y123898D01*
X79502Y123797D01*
X79603D01*
Y123898D01*
X79502Y124000D01*
X79603Y124102D01*
Y124203D01*
X79502D01*
X79400Y124102D01*
X79298Y124203D01*
X79197D01*
Y124102D01*
X79298Y124000D01*
X79197Y123898D01*
Y123797D01*
X79298Y123898D02*
X79349D01*
X79400Y123949D01*
X79451Y123898D01*
X79502D01*
Y123949D01*
X79451Y124000D01*
X79502Y124051D01*
Y124102D01*
X79451D01*
X79400Y124051D01*
X79349Y124102D01*
X79298D01*
Y124051D01*
X79349Y124000D01*
X79298Y123949D01*
Y123898D01*
X79097Y122597D02*
X79198D01*
X79300Y122698D01*
X79402Y122597D01*
X79503D01*
Y122698D01*
X79402Y122800D01*
X79503Y122902D01*
Y123003D01*
X79402D01*
X79300Y122902D01*
X79198Y123003D01*
X79097D01*
Y122902D01*
X79198Y122800D01*
X79097Y122698D01*
Y122597D01*
X79198Y122698D02*
X79249D01*
X79300Y122749D01*
X79351Y122698D01*
X79402D01*
Y122749D01*
X79351Y122800D01*
X79402Y122851D01*
Y122902D01*
X79351D01*
X79300Y122851D01*
X79249Y122902D01*
X79198D01*
Y122851D01*
X79249Y122800D01*
X79198Y122749D01*
Y122698D01*
X78397Y125347D02*
X78498D01*
X78600Y125448D01*
X78702Y125347D01*
X78803D01*
Y125448D01*
X78702Y125550D01*
X78803Y125652D01*
Y125753D01*
X78702D01*
X78600Y125652D01*
X78498Y125753D01*
X78397D01*
Y125652D01*
X78498Y125550D01*
X78397Y125448D01*
Y125347D01*
X78498Y125448D02*
X78549D01*
X78600Y125499D01*
X78651Y125448D01*
X78702D01*
Y125499D01*
X78651Y125550D01*
X78702Y125601D01*
Y125652D01*
X78651D01*
X78600Y125601D01*
X78549Y125652D01*
X78498D01*
Y125601D01*
X78549Y125550D01*
X78498Y125499D01*
Y125448D01*
X129497Y128197D02*
X129598D01*
X129700Y128298D01*
X129801Y128197D01*
X129903D01*
Y128298D01*
X129801Y128400D01*
X129903Y128501D01*
Y128603D01*
X129801D01*
X129700Y128501D01*
X129598Y128603D01*
X129497D01*
Y128501D01*
X129598Y128400D01*
X129497Y128298D01*
Y128197D01*
X129598Y128298D02*
X129649D01*
X129700Y128349D01*
X129751Y128298D01*
X129801D01*
Y128349D01*
X129751Y128400D01*
X129801Y128451D01*
Y128501D01*
X129751D01*
X129700Y128451D01*
X129649Y128501D01*
X129598D01*
Y128451D01*
X129649Y128400D01*
X129598Y128349D01*
Y128298D01*
X127398Y138898D02*
Y138797D01*
X127602D01*
Y138898D01*
X127703D01*
Y139102D01*
X127602D01*
Y139203D01*
X127398D01*
Y139102D01*
X127297D01*
Y138898D01*
X127398D01*
X127449Y138949D02*
Y138898D01*
X127551D01*
Y138949D01*
X127602D01*
Y139051D01*
X127551D01*
Y139102D01*
X127449D01*
Y139051D01*
X127398D01*
Y138949D01*
X127449D01*
X127398Y138198D02*
Y138097D01*
X127602D01*
Y138198D01*
X127703D01*
Y138402D01*
X127602D01*
Y138503D01*
X127398D01*
Y138402D01*
X127297D01*
Y138198D01*
X127398D01*
X127449Y138249D02*
Y138198D01*
X127551D01*
Y138249D01*
X127602D01*
Y138351D01*
X127551D01*
Y138402D01*
X127449D01*
Y138351D01*
X127398D01*
Y138249D01*
X127449D01*
X141481Y143547D02*
X141583D01*
X141684Y143648D01*
X141786Y143547D01*
X141888D01*
Y143648D01*
X141786Y143750D01*
X141888Y143852D01*
Y143953D01*
X141786D01*
X141684Y143852D01*
X141583Y143953D01*
X141481D01*
Y143852D01*
X141583Y143750D01*
X141481Y143648D01*
Y143547D01*
X141583Y143648D02*
X141634D01*
X141684Y143699D01*
X141735Y143648D01*
X141786D01*
Y143699D01*
X141735Y143750D01*
X141786Y143801D01*
Y143852D01*
X141735D01*
X141684Y143801D01*
X141634Y143852D01*
X141583D01*
Y143801D01*
X141634Y143750D01*
X141583Y143699D01*
Y143648D01*
X173472Y144197D02*
X173573D01*
X173675Y144298D01*
X173777Y144197D01*
X173878D01*
Y144298D01*
X173777Y144400D01*
X173878Y144502D01*
Y144603D01*
X173777D01*
X173675Y144502D01*
X173573Y144603D01*
X173472D01*
Y144502D01*
X173573Y144400D01*
X173472Y144298D01*
Y144197D01*
X173573Y144298D02*
X173624D01*
X173675Y144349D01*
X173726Y144298D01*
X173777D01*
Y144349D01*
X173726Y144400D01*
X173777Y144451D01*
Y144502D01*
X173726D01*
X173675Y144451D01*
X173624Y144502D01*
X173573D01*
Y144451D01*
X173624Y144400D01*
X173573Y144349D01*
Y144298D01*
X172968Y145447D02*
X173070D01*
X173171Y145548D01*
X173273Y145447D01*
X173374D01*
Y145548D01*
X173273Y145650D01*
X173374Y145752D01*
Y145853D01*
X173273D01*
X173171Y145752D01*
X173070Y145853D01*
X172968D01*
Y145752D01*
X173070Y145650D01*
X172968Y145548D01*
Y145447D01*
X173070Y145548D02*
X173120D01*
X173171Y145599D01*
X173222Y145548D01*
X173273D01*
Y145599D01*
X173222Y145650D01*
X173273Y145701D01*
Y145752D01*
X173222D01*
X173171Y145701D01*
X173120Y145752D01*
X173070D01*
Y145701D01*
X173120Y145650D01*
X173070Y145599D01*
Y145548D01*
X169597Y121497D02*
X169698D01*
X169800Y121598D01*
X169902Y121497D01*
X170003D01*
Y121598D01*
X169902Y121700D01*
X170003Y121802D01*
Y121903D01*
X169902D01*
X169800Y121802D01*
X169698Y121903D01*
X169597D01*
Y121802D01*
X169698Y121700D01*
X169597Y121598D01*
Y121497D01*
X169698Y121598D02*
X169749D01*
X169800Y121649D01*
X169851Y121598D01*
X169902D01*
Y121649D01*
X169851Y121700D01*
X169902Y121751D01*
Y121802D01*
X169851D01*
X169800Y121751D01*
X169749Y121802D01*
X169698D01*
Y121751D01*
X169749Y121700D01*
X169698Y121649D01*
Y121598D01*
X169096Y114497D02*
X169198D01*
X169300Y114598D01*
X169401Y114497D01*
X169503D01*
Y114598D01*
X169401Y114700D01*
X169503Y114801D01*
Y114903D01*
X169401D01*
X169300Y114801D01*
X169198Y114903D01*
X169096D01*
Y114801D01*
X169198Y114700D01*
X169096Y114598D01*
Y114497D01*
X169198Y114598D02*
X169249D01*
X169300Y114649D01*
X169350Y114598D01*
X169401D01*
Y114649D01*
X169350Y114700D01*
X169401Y114751D01*
Y114801D01*
X169350D01*
X169300Y114751D01*
X169249Y114801D01*
X169198D01*
Y114751D01*
X169249Y114700D01*
X169198Y114649D01*
Y114598D01*
X159797Y89497D02*
X159898D01*
X160000Y89598D01*
X160102Y89497D01*
X160203D01*
Y89598D01*
X160102Y89700D01*
X160203Y89802D01*
Y89903D01*
X160102D01*
X160000Y89802D01*
X159898Y89903D01*
X159797D01*
Y89802D01*
X159898Y89700D01*
X159797Y89598D01*
Y89497D01*
X159898Y89598D02*
X159949D01*
X160000Y89649D01*
X160051Y89598D01*
X160102D01*
Y89649D01*
X160051Y89700D01*
X160102Y89751D01*
Y89802D01*
X160051D01*
X160000Y89751D01*
X159949Y89802D01*
X159898D01*
Y89751D01*
X159949Y89700D01*
X159898Y89649D01*
Y89598D01*
X152893Y64801D02*
X152994D01*
X153096Y64902D01*
X153198Y64801D01*
X153299D01*
Y64902D01*
X153198Y65004D01*
X153299Y65106D01*
Y65207D01*
X153198D01*
X153096Y65106D01*
X152994Y65207D01*
X152893D01*
Y65106D01*
X152994Y65004D01*
X152893Y64902D01*
Y64801D01*
X152994Y64902D02*
X153045D01*
X153096Y64953D01*
X153147Y64902D01*
X153198D01*
Y64953D01*
X153147Y65004D01*
X153198Y65055D01*
Y65106D01*
X153147D01*
X153096Y65055D01*
X153045Y65106D01*
X152994D01*
Y65055D01*
X153045Y65004D01*
X152994Y64953D01*
Y64902D01*
X150347Y65197D02*
X150448D01*
X150550Y65298D01*
X150652Y65197D01*
X150753D01*
Y65298D01*
X150652Y65400D01*
X150753Y65502D01*
Y65603D01*
X150652D01*
X150550Y65502D01*
X150448Y65603D01*
X150347D01*
Y65502D01*
X150448Y65400D01*
X150347Y65298D01*
Y65197D01*
X150448Y65298D02*
X150499D01*
X150550Y65349D01*
X150601Y65298D01*
X150652D01*
Y65349D01*
X150601Y65400D01*
X150652Y65451D01*
Y65502D01*
X150601D01*
X150550Y65451D01*
X150499Y65502D01*
X150448D01*
Y65451D01*
X150499Y65400D01*
X150448Y65349D01*
Y65298D01*
X121897Y123587D02*
X121998D01*
X122100Y123688D01*
X122202Y123587D01*
X122303D01*
Y123688D01*
X122202Y123790D01*
X122303Y123892D01*
Y123993D01*
X122202D01*
X122100Y123892D01*
X121998Y123993D01*
X121897D01*
Y123892D01*
X121998Y123790D01*
X121897Y123688D01*
Y123587D01*
X121998Y123688D02*
X122049D01*
X122100Y123739D01*
X122151Y123688D01*
X122202D01*
Y123739D01*
X122151Y123790D01*
X122202Y123841D01*
Y123892D01*
X122151D01*
X122100Y123841D01*
X122049Y123892D01*
X121998D01*
Y123841D01*
X122049Y123790D01*
X121998Y123739D01*
Y123688D01*
X122547Y126797D02*
X122648D01*
X122750Y126898D01*
X122852Y126797D01*
X122953D01*
Y126898D01*
X122852Y127000D01*
X122953Y127102D01*
Y127203D01*
X122852D01*
X122750Y127102D01*
X122648Y127203D01*
X122547D01*
Y127102D01*
X122648Y127000D01*
X122547Y126898D01*
Y126797D01*
X122648Y126898D02*
X122699D01*
X122750Y126949D01*
X122801Y126898D01*
X122852D01*
Y126949D01*
X122801Y127000D01*
X122852Y127051D01*
Y127102D01*
X122801D01*
X122750Y127051D01*
X122699Y127102D01*
X122648D01*
Y127051D01*
X122699Y127000D01*
X122648Y126949D01*
Y126898D01*
X162497Y117897D02*
X162598D01*
X162700Y117998D01*
X162802Y117897D01*
X162903D01*
Y117998D01*
X162802Y118100D01*
X162903Y118202D01*
Y118303D01*
X162802D01*
X162700Y118202D01*
X162598Y118303D01*
X162497D01*
Y118202D01*
X162598Y118100D01*
X162497Y117998D01*
Y117897D01*
X162598Y117998D02*
X162649D01*
X162700Y118049D01*
X162751Y117998D01*
X162802D01*
Y118049D01*
X162751Y118100D01*
X162802Y118151D01*
Y118202D01*
X162751D01*
X162700Y118151D01*
X162649Y118202D01*
X162598D01*
Y118151D01*
X162649Y118100D01*
X162598Y118049D01*
Y117998D01*
X170947Y95497D02*
X171048D01*
X171150Y95598D01*
X171252Y95497D01*
X171353D01*
Y95598D01*
X171252Y95700D01*
X171353Y95802D01*
Y95903D01*
X171252D01*
X171150Y95802D01*
X171048Y95903D01*
X170947D01*
Y95802D01*
X171048Y95700D01*
X170947Y95598D01*
Y95497D01*
X171048Y95598D02*
X171099D01*
X171150Y95649D01*
X171201Y95598D01*
X171252D01*
Y95649D01*
X171201Y95700D01*
X171252Y95751D01*
Y95802D01*
X171201D01*
X171150Y95751D01*
X171099Y95802D01*
X171048D01*
Y95751D01*
X171099Y95700D01*
X171048Y95649D01*
Y95598D01*
X171497Y123897D02*
X171598D01*
X171700Y123998D01*
X171802Y123897D01*
X171903D01*
Y123998D01*
X171802Y124100D01*
X171903Y124202D01*
Y124303D01*
X171802D01*
X171700Y124202D01*
X171598Y124303D01*
X171497D01*
Y124202D01*
X171598Y124100D01*
X171497Y123998D01*
Y123897D01*
X171598Y123998D02*
X171649D01*
X171700Y124049D01*
X171751Y123998D01*
X171802D01*
Y124049D01*
X171751Y124100D01*
X171802Y124151D01*
Y124202D01*
X171751D01*
X171700Y124151D01*
X171649Y124202D01*
X171598D01*
Y124151D01*
X171649Y124100D01*
X171598Y124049D01*
Y123998D01*
X171497Y115597D02*
X171598D01*
X171700Y115698D01*
X171802Y115597D01*
X171903D01*
Y115698D01*
X171802Y115800D01*
X171903Y115902D01*
Y116003D01*
X171802D01*
X171700Y115902D01*
X171598Y116003D01*
X171497D01*
Y115902D01*
X171598Y115800D01*
X171497Y115698D01*
Y115597D01*
X171598Y115698D02*
X171649D01*
X171700Y115749D01*
X171751Y115698D01*
X171802D01*
Y115749D01*
X171751Y115800D01*
X171802Y115851D01*
Y115902D01*
X171751D01*
X171700Y115851D01*
X171649Y115902D01*
X171598D01*
Y115851D01*
X171649Y115800D01*
X171598Y115749D01*
Y115698D01*
X153597Y135997D02*
X153698D01*
X153800Y136098D01*
X153902Y135997D01*
X154003D01*
Y136098D01*
X153902Y136200D01*
X154003Y136302D01*
Y136403D01*
X153902D01*
X153800Y136302D01*
X153698Y136403D01*
X153597D01*
Y136302D01*
X153698Y136200D01*
X153597Y136098D01*
Y135997D01*
X153698Y136098D02*
X153749D01*
X153800Y136149D01*
X153851Y136098D01*
X153902D01*
Y136149D01*
X153851Y136200D01*
X153902Y136251D01*
Y136302D01*
X153851D01*
X153800Y136251D01*
X153749Y136302D01*
X153698D01*
Y136251D01*
X153749Y136200D01*
X153698Y136149D01*
Y136098D01*
X69397Y62847D02*
X69498D01*
X69600Y62948D01*
X69702Y62847D01*
X69803D01*
Y62948D01*
X69702Y63050D01*
X69803Y63152D01*
Y63253D01*
X69702D01*
X69600Y63152D01*
X69498Y63253D01*
X69397D01*
Y63152D01*
X69498Y63050D01*
X69397Y62948D01*
Y62847D01*
X69498Y62948D02*
X69549D01*
X69600Y62999D01*
X69651Y62948D01*
X69702D01*
Y62999D01*
X69651Y63050D01*
X69702Y63101D01*
Y63152D01*
X69651D01*
X69600Y63101D01*
X69549Y63152D01*
X69498D01*
Y63101D01*
X69549Y63050D01*
X69498Y62999D01*
Y62948D01*
X147007Y63697D02*
X147108D01*
X147210Y63798D01*
X147312Y63697D01*
X147413D01*
Y63798D01*
X147312Y63900D01*
X147413Y64002D01*
Y64103D01*
X147312D01*
X147210Y64002D01*
X147108Y64103D01*
X147007D01*
Y64002D01*
X147108Y63900D01*
X147007Y63798D01*
Y63697D01*
X147108Y63798D02*
X147159D01*
X147210Y63849D01*
X147261Y63798D01*
X147312D01*
Y63849D01*
X147261Y63900D01*
X147312Y63951D01*
Y64002D01*
X147261D01*
X147210Y63951D01*
X147159Y64002D01*
X147108D01*
Y63951D01*
X147159Y63900D01*
X147108Y63849D01*
Y63798D01*
X168897Y63997D02*
X168998D01*
X169100Y64098D01*
X169202Y63997D01*
X169303D01*
Y64098D01*
X169202Y64200D01*
X169303Y64302D01*
Y64403D01*
X169202D01*
X169100Y64302D01*
X168998Y64403D01*
X168897D01*
Y64302D01*
X168998Y64200D01*
X168897Y64098D01*
Y63997D01*
X168998Y64098D02*
X169049D01*
X169100Y64149D01*
X169151Y64098D01*
X169202D01*
Y64149D01*
X169151Y64200D01*
X169202Y64251D01*
Y64302D01*
X169151D01*
X169100Y64251D01*
X169049Y64302D01*
X168998D01*
Y64251D01*
X169049Y64200D01*
X168998Y64149D01*
Y64098D01*
X76497Y85597D02*
X76598D01*
X76700Y85698D01*
X76802Y85597D01*
X76903D01*
Y85698D01*
X76802Y85800D01*
X76903Y85902D01*
Y86003D01*
X76802D01*
X76700Y85902D01*
X76598Y86003D01*
X76497D01*
Y85902D01*
X76598Y85800D01*
X76497Y85698D01*
Y85597D01*
X76598Y85698D02*
X76649D01*
X76700Y85749D01*
X76751Y85698D01*
X76802D01*
Y85749D01*
X76751Y85800D01*
X76802Y85851D01*
Y85902D01*
X76751D01*
X76700Y85851D01*
X76649Y85902D01*
X76598D01*
Y85851D01*
X76649Y85800D01*
X76598Y85749D01*
Y85698D01*
X69297Y78397D02*
X69398D01*
X69500Y78498D01*
X69602Y78397D01*
X69703D01*
Y78498D01*
X69602Y78600D01*
X69703Y78702D01*
Y78803D01*
X69602D01*
X69500Y78702D01*
X69398Y78803D01*
X69297D01*
Y78702D01*
X69398Y78600D01*
X69297Y78498D01*
Y78397D01*
X69398Y78498D02*
X69449D01*
X69500Y78549D01*
X69551Y78498D01*
X69602D01*
Y78549D01*
X69551Y78600D01*
X69602Y78651D01*
Y78702D01*
X69551D01*
X69500Y78651D01*
X69449Y78702D01*
X69398D01*
Y78651D01*
X69449Y78600D01*
X69398Y78549D01*
Y78498D01*
X109817Y75097D02*
X109918D01*
X110020Y75198D01*
X110122Y75097D01*
X110223D01*
Y75198D01*
X110122Y75300D01*
X110223Y75402D01*
Y75503D01*
X110122D01*
X110020Y75402D01*
X109918Y75503D01*
X109817D01*
Y75402D01*
X109918Y75300D01*
X109817Y75198D01*
Y75097D01*
X109918Y75198D02*
X109969D01*
X110020Y75249D01*
X110071Y75198D01*
X110122D01*
Y75249D01*
X110071Y75300D01*
X110122Y75351D01*
Y75402D01*
X110071D01*
X110020Y75351D01*
X109969Y75402D01*
X109918D01*
Y75351D01*
X109969Y75300D01*
X109918Y75249D01*
Y75198D01*
X114547Y75047D02*
X114648D01*
X114750Y75148D01*
X114852Y75047D01*
X114953D01*
Y75148D01*
X114852Y75250D01*
X114953Y75352D01*
Y75453D01*
X114852D01*
X114750Y75352D01*
X114648Y75453D01*
X114547D01*
Y75352D01*
X114648Y75250D01*
X114547Y75148D01*
Y75047D01*
X114648Y75148D02*
X114699D01*
X114750Y75199D01*
X114801Y75148D01*
X114852D01*
Y75199D01*
X114801Y75250D01*
X114852Y75301D01*
Y75352D01*
X114801D01*
X114750Y75301D01*
X114699Y75352D01*
X114648D01*
Y75301D01*
X114699Y75250D01*
X114648Y75199D01*
Y75148D01*
X102297Y63097D02*
X102398D01*
X102500Y63198D01*
X102602Y63097D01*
X102703D01*
Y63198D01*
X102602Y63300D01*
X102703Y63402D01*
Y63503D01*
X102602D01*
X102500Y63402D01*
X102398Y63503D01*
X102297D01*
Y63402D01*
X102398Y63300D01*
X102297Y63198D01*
Y63097D01*
X102398Y63198D02*
X102449D01*
X102500Y63249D01*
X102551Y63198D01*
X102602D01*
Y63249D01*
X102551Y63300D01*
X102602Y63351D01*
Y63402D01*
X102551D01*
X102500Y63351D01*
X102449Y63402D01*
X102398D01*
Y63351D01*
X102449Y63300D01*
X102398Y63249D01*
Y63198D01*
X134697Y67297D02*
X134798D01*
X134900Y67398D01*
X135002Y67297D01*
X135103D01*
Y67398D01*
X135002Y67500D01*
X135103Y67602D01*
Y67703D01*
X135002D01*
X134900Y67602D01*
X134798Y67703D01*
X134697D01*
Y67602D01*
X134798Y67500D01*
X134697Y67398D01*
Y67297D01*
X134798Y67398D02*
X134849D01*
X134900Y67449D01*
X134951Y67398D01*
X135002D01*
Y67449D01*
X134951Y67500D01*
X135002Y67551D01*
Y67602D01*
X134951D01*
X134900Y67551D01*
X134849Y67602D01*
X134798D01*
Y67551D01*
X134849Y67500D01*
X134798Y67449D01*
Y67398D01*
X91347Y126897D02*
X91448D01*
X91550Y126998D01*
X91652Y126897D01*
X91753D01*
Y126998D01*
X91652Y127100D01*
X91753Y127202D01*
Y127303D01*
X91652D01*
X91550Y127202D01*
X91448Y127303D01*
X91347D01*
Y127202D01*
X91448Y127100D01*
X91347Y126998D01*
Y126897D01*
X91448Y126998D02*
X91499D01*
X91550Y127049D01*
X91601Y126998D01*
X91652D01*
Y127049D01*
X91601Y127100D01*
X91652Y127151D01*
Y127202D01*
X91601D01*
X91550Y127151D01*
X91499Y127202D01*
X91448D01*
Y127151D01*
X91499Y127100D01*
X91448Y127049D01*
Y126998D01*
X80097Y122197D02*
X80198D01*
X80300Y122298D01*
X80402Y122197D01*
X80503D01*
Y122298D01*
X80402Y122400D01*
X80503Y122502D01*
Y122603D01*
X80402D01*
X80300Y122502D01*
X80198Y122603D01*
X80097D01*
Y122502D01*
X80198Y122400D01*
X80097Y122298D01*
Y122197D01*
X80198Y122298D02*
X80249D01*
X80300Y122349D01*
X80351Y122298D01*
X80402D01*
Y122349D01*
X80351Y122400D01*
X80402Y122451D01*
Y122502D01*
X80351D01*
X80300Y122451D01*
X80249Y122502D01*
X80198D01*
Y122451D01*
X80249Y122400D01*
X80198Y122349D01*
Y122298D01*
X78097Y124197D02*
X78198D01*
X78300Y124298D01*
X78402Y124197D01*
X78503D01*
Y124298D01*
X78402Y124400D01*
X78503Y124502D01*
Y124603D01*
X78402D01*
X78300Y124502D01*
X78198Y124603D01*
X78097D01*
Y124502D01*
X78198Y124400D01*
X78097Y124298D01*
Y124197D01*
X78198Y124298D02*
X78249D01*
X78300Y124349D01*
X78351Y124298D01*
X78402D01*
Y124349D01*
X78351Y124400D01*
X78402Y124451D01*
Y124502D01*
X78351D01*
X78300Y124451D01*
X78249Y124502D01*
X78198D01*
Y124451D01*
X78249Y124400D01*
X78198Y124349D01*
Y124298D01*
X121197Y130297D02*
X121298D01*
X121400Y130398D01*
X121502Y130297D01*
X121603D01*
Y130398D01*
X121502Y130500D01*
X121603Y130602D01*
Y130703D01*
X121502D01*
X121400Y130602D01*
X121298Y130703D01*
X121197D01*
Y130602D01*
X121298Y130500D01*
X121197Y130398D01*
Y130297D01*
X121298Y130398D02*
X121349D01*
X121400Y130449D01*
X121451Y130398D01*
X121502D01*
Y130449D01*
X121451Y130500D01*
X121502Y130551D01*
Y130602D01*
X121451D01*
X121400Y130551D01*
X121349Y130602D01*
X121298D01*
Y130551D01*
X121349Y130500D01*
X121298Y130449D01*
Y130398D01*
X122197Y138197D02*
X122298D01*
X122400Y138298D01*
X122502Y138197D01*
X122603D01*
Y138298D01*
X122502Y138400D01*
X122603Y138502D01*
Y138603D01*
X122502D01*
X122400Y138502D01*
X122298Y138603D01*
X122197D01*
Y138502D01*
X122298Y138400D01*
X122197Y138298D01*
Y138197D01*
X122298Y138298D02*
X122349D01*
X122400Y138349D01*
X122451Y138298D01*
X122502D01*
Y138349D01*
X122451Y138400D01*
X122502Y138451D01*
Y138502D01*
X122451D01*
X122400Y138451D01*
X122349Y138502D01*
X122298D01*
Y138451D01*
X122349Y138400D01*
X122298Y138349D01*
Y138298D01*
X121597Y140897D02*
X121698D01*
X121800Y140998D01*
X121902Y140897D01*
X122003D01*
Y140998D01*
X121902Y141100D01*
X122003Y141202D01*
Y141303D01*
X121902D01*
X121800Y141202D01*
X121698Y141303D01*
X121597D01*
Y141202D01*
X121698Y141100D01*
X121597Y140998D01*
Y140897D01*
X121698Y140998D02*
X121749D01*
X121800Y141049D01*
X121851Y140998D01*
X121902D01*
Y141049D01*
X121851Y141100D01*
X121902Y141151D01*
Y141202D01*
X121851D01*
X121800Y141151D01*
X121749Y141202D01*
X121698D01*
Y141151D01*
X121749Y141100D01*
X121698Y141049D01*
Y140998D01*
X130897Y140797D02*
X130998D01*
X131100Y140898D01*
X131202Y140797D01*
X131303D01*
Y140898D01*
X131202Y141000D01*
X131303Y141102D01*
Y141203D01*
X131202D01*
X131100Y141102D01*
X130998Y141203D01*
X130897D01*
Y141102D01*
X130998Y141000D01*
X130897Y140898D01*
Y140797D01*
X130998Y140898D02*
X131049D01*
X131100Y140949D01*
X131151Y140898D01*
X131202D01*
Y140949D01*
X131151Y141000D01*
X131202Y141051D01*
Y141102D01*
X131151D01*
X131100Y141051D01*
X131049Y141102D01*
X130998D01*
Y141051D01*
X131049Y141000D01*
X130998Y140949D01*
Y140898D01*
X139222Y140772D02*
X139323D01*
X139425Y140873D01*
X139527Y140772D01*
X139628D01*
Y140873D01*
X139527Y140975D01*
X139628Y141077D01*
Y141178D01*
X139527D01*
X139425Y141077D01*
X139323Y141178D01*
X139222D01*
Y141077D01*
X139323Y140975D01*
X139222Y140873D01*
Y140772D01*
X139323Y140873D02*
X139374D01*
X139425Y140924D01*
X139476Y140873D01*
X139527D01*
Y140924D01*
X139476Y140975D01*
X139527Y141026D01*
Y141077D01*
X139476D01*
X139425Y141026D01*
X139374Y141077D01*
X139323D01*
Y141026D01*
X139374Y140975D01*
X139323Y140924D01*
Y140873D01*
X168322Y115547D02*
X168423D01*
X168525Y115648D01*
X168627Y115547D01*
X168728D01*
Y115648D01*
X168627Y115750D01*
X168728Y115852D01*
Y115953D01*
X168627D01*
X168525Y115852D01*
X168423Y115953D01*
X168322D01*
Y115852D01*
X168423Y115750D01*
X168322Y115648D01*
Y115547D01*
X168423Y115648D02*
X168474D01*
X168525Y115699D01*
X168576Y115648D01*
X168627D01*
Y115699D01*
X168576Y115750D01*
X168627Y115801D01*
Y115852D01*
X168576D01*
X168525Y115801D01*
X168474Y115852D01*
X168423D01*
Y115801D01*
X168474Y115750D01*
X168423Y115699D01*
Y115648D01*
X164297Y129847D02*
X164398D01*
X164500Y129948D01*
X164602Y129847D01*
X164703D01*
Y129948D01*
X164602Y130050D01*
X164703Y130152D01*
Y130253D01*
X164602D01*
X164500Y130152D01*
X164398Y130253D01*
X164297D01*
Y130152D01*
X164398Y130050D01*
X164297Y129948D01*
Y129847D01*
X164398Y129948D02*
X164449D01*
X164500Y129999D01*
X164551Y129948D01*
X164602D01*
Y129999D01*
X164551Y130050D01*
X164602Y130101D01*
Y130152D01*
X164551D01*
X164500Y130101D01*
X164449Y130152D01*
X164398D01*
Y130101D01*
X164449Y130050D01*
X164398Y129999D01*
Y129948D01*
X149297Y63997D02*
X149398D01*
X149500Y64098D01*
X149602Y63997D01*
X149703D01*
Y64098D01*
X149602Y64200D01*
X149703Y64302D01*
Y64403D01*
X149602D01*
X149500Y64302D01*
X149398Y64403D01*
X149297D01*
Y64302D01*
X149398Y64200D01*
X149297Y64098D01*
Y63997D01*
X149398Y64098D02*
X149449D01*
X149500Y64149D01*
X149551Y64098D01*
X149602D01*
Y64149D01*
X149551Y64200D01*
X149602Y64251D01*
Y64302D01*
X149551D01*
X149500Y64251D01*
X149449Y64302D01*
X149398D01*
Y64251D01*
X149449Y64200D01*
X149398Y64149D01*
Y64098D01*
X149297Y62497D02*
X149398D01*
X149500Y62598D01*
X149602Y62497D01*
X149703D01*
Y62598D01*
X149602Y62700D01*
X149703Y62802D01*
Y62903D01*
X149602D01*
X149500Y62802D01*
X149398Y62903D01*
X149297D01*
Y62802D01*
X149398Y62700D01*
X149297Y62598D01*
Y62497D01*
X149398Y62598D02*
X149449D01*
X149500Y62649D01*
X149551Y62598D01*
X149602D01*
Y62649D01*
X149551Y62700D01*
X149602Y62751D01*
Y62802D01*
X149551D01*
X149500Y62751D01*
X149449Y62802D01*
X149398D01*
Y62751D01*
X149449Y62700D01*
X149398Y62649D01*
Y62598D01*
X90797Y82839D02*
X90898D01*
X91000Y82941D01*
X91102Y82839D01*
X91203D01*
Y82941D01*
X91102Y83043D01*
X91203Y83144D01*
Y83246D01*
X91102D01*
X91000Y83144D01*
X90898Y83246D01*
X90797D01*
Y83144D01*
X90898Y83043D01*
X90797Y82941D01*
Y82839D01*
X90898Y82941D02*
X90949D01*
X91000Y82992D01*
X91051Y82941D01*
X91102D01*
Y82992D01*
X91051Y83043D01*
X91102Y83093D01*
Y83144D01*
X91051D01*
X91000Y83093D01*
X90949Y83144D01*
X90898D01*
Y83093D01*
X90949Y83043D01*
X90898Y82992D01*
Y82941D01*
X180905Y67758D02*
Y67250D01*
X181159D01*
X181244Y67335D01*
Y67419D01*
X181159Y67504D01*
X180905D01*
X181159D01*
X181244Y67589D01*
Y67673D01*
X181159Y67758D01*
X180905D01*
X97547Y65772D02*
X97648D01*
X97750Y65873D01*
X97852Y65772D01*
X97953D01*
Y65873D01*
X97852Y65975D01*
X97953Y66077D01*
Y66178D01*
X97852D01*
X97750Y66077D01*
X97648Y66178D01*
X97547D01*
Y66077D01*
X97648Y65975D01*
X97547Y65873D01*
Y65772D01*
X97648Y65873D02*
X97699D01*
X97750Y65924D01*
X97801Y65873D01*
X97852D01*
Y65924D01*
X97801Y65975D01*
X97852Y66026D01*
Y66077D01*
X97801D01*
X97750Y66026D01*
X97699Y66077D01*
X97648D01*
Y66026D01*
X97699Y65975D01*
X97648Y65924D01*
Y65873D01*
X97547Y64547D02*
X97648D01*
X97750Y64648D01*
X97852Y64547D01*
X97953D01*
Y64648D01*
X97852Y64750D01*
X97953Y64852D01*
Y64953D01*
X97852D01*
X97750Y64852D01*
X97648Y64953D01*
X97547D01*
Y64852D01*
X97648Y64750D01*
X97547Y64648D01*
Y64547D01*
X97648Y64648D02*
X97699D01*
X97750Y64699D01*
X97801Y64648D01*
X97852D01*
Y64699D01*
X97801Y64750D01*
X97852Y64801D01*
Y64852D01*
X97801D01*
X97750Y64801D01*
X97699Y64852D01*
X97648D01*
Y64801D01*
X97699Y64750D01*
X97648Y64699D01*
Y64648D01*
X111247Y138222D02*
X111348D01*
X111450Y138323D01*
X111552Y138222D01*
X111653D01*
Y138323D01*
X111552Y138425D01*
X111653Y138527D01*
Y138628D01*
X111552D01*
X111450Y138527D01*
X111348Y138628D01*
X111247D01*
Y138527D01*
X111348Y138425D01*
X111247Y138323D01*
Y138222D01*
X111348Y138323D02*
X111399D01*
X111450Y138374D01*
X111501Y138323D01*
X111552D01*
Y138374D01*
X111501Y138425D01*
X111552Y138476D01*
Y138527D01*
X111501D01*
X111450Y138476D01*
X111399Y138527D01*
X111348D01*
Y138476D01*
X111399Y138425D01*
X111348Y138374D01*
Y138323D01*
X88297Y77297D02*
X88398D01*
X88500Y77398D01*
X88602Y77297D01*
X88703D01*
Y77398D01*
X88602Y77500D01*
X88703Y77602D01*
Y77703D01*
X88602D01*
X88500Y77602D01*
X88398Y77703D01*
X88297D01*
Y77602D01*
X88398Y77500D01*
X88297Y77398D01*
Y77297D01*
X88398Y77398D02*
X88449D01*
X88500Y77449D01*
X88551Y77398D01*
X88602D01*
Y77449D01*
X88551Y77500D01*
X88602Y77551D01*
Y77602D01*
X88551D01*
X88500Y77551D01*
X88449Y77602D01*
X88398D01*
Y77551D01*
X88449Y77500D01*
X88398Y77449D01*
Y77398D01*
X87297Y142297D02*
X87398D01*
X87500Y142398D01*
X87602Y142297D01*
X87703D01*
Y142398D01*
X87602Y142500D01*
X87703Y142602D01*
Y142703D01*
X87602D01*
X87500Y142602D01*
X87398Y142703D01*
X87297D01*
Y142602D01*
X87398Y142500D01*
X87297Y142398D01*
Y142297D01*
X87398Y142398D02*
X87449D01*
X87500Y142449D01*
X87551Y142398D01*
X87602D01*
Y142449D01*
X87551Y142500D01*
X87602Y142551D01*
Y142602D01*
X87551D01*
X87500Y142551D01*
X87449Y142602D01*
X87398D01*
Y142551D01*
X87449Y142500D01*
X87398Y142449D01*
Y142398D01*
X108172Y143547D02*
X108273D01*
X108375Y143648D01*
X108477Y143547D01*
X108578D01*
Y143648D01*
X108477Y143750D01*
X108578Y143852D01*
Y143953D01*
X108477D01*
X108375Y143852D01*
X108273Y143953D01*
X108172D01*
Y143852D01*
X108273Y143750D01*
X108172Y143648D01*
Y143547D01*
X108273Y143648D02*
X108324D01*
X108375Y143699D01*
X108426Y143648D01*
X108477D01*
Y143699D01*
X108426Y143750D01*
X108477Y143801D01*
Y143852D01*
X108426D01*
X108375Y143801D01*
X108324Y143852D01*
X108273D01*
Y143801D01*
X108324Y143750D01*
X108273Y143699D01*
Y143648D01*
X96547Y142947D02*
X96648D01*
X96750Y143048D01*
X96852Y142947D01*
X96953D01*
Y143048D01*
X96852Y143150D01*
X96953Y143252D01*
Y143353D01*
X96852D01*
X96750Y143252D01*
X96648Y143353D01*
X96547D01*
Y143252D01*
X96648Y143150D01*
X96547Y143048D01*
Y142947D01*
X96648Y143048D02*
X96699D01*
X96750Y143099D01*
X96801Y143048D01*
X96852D01*
Y143099D01*
X96801Y143150D01*
X96852Y143201D01*
Y143252D01*
X96801D01*
X96750Y143201D01*
X96699Y143252D01*
X96648D01*
Y143201D01*
X96699Y143150D01*
X96648Y143099D01*
Y143048D01*
X95797Y143926D02*
X95898D01*
X96000Y144028D01*
X96102Y143926D01*
X96203D01*
Y144028D01*
X96102Y144129D01*
X96203Y144231D01*
Y144332D01*
X96102D01*
X96000Y144231D01*
X95898Y144332D01*
X95797D01*
Y144231D01*
X95898Y144129D01*
X95797Y144028D01*
Y143926D01*
X95898Y144028D02*
X95949D01*
X96000Y144078D01*
X96051Y144028D01*
X96102D01*
Y144078D01*
X96051Y144129D01*
X96102Y144180D01*
Y144231D01*
X96051D01*
X96000Y144180D01*
X95949Y144231D01*
X95898D01*
Y144180D01*
X95949Y144129D01*
X95898Y144078D01*
Y144028D01*
X102547Y143547D02*
X102648D01*
X102750Y143648D01*
X102852Y143547D01*
X102953D01*
Y143648D01*
X102852Y143750D01*
X102953Y143852D01*
Y143953D01*
X102852D01*
X102750Y143852D01*
X102648Y143953D01*
X102547D01*
Y143852D01*
X102648Y143750D01*
X102547Y143648D01*
Y143547D01*
X102648Y143648D02*
X102699D01*
X102750Y143699D01*
X102801Y143648D01*
X102852D01*
Y143699D01*
X102801Y143750D01*
X102852Y143801D01*
Y143852D01*
X102801D01*
X102750Y143801D01*
X102699Y143852D01*
X102648D01*
Y143801D01*
X102699Y143750D01*
X102648Y143699D01*
Y143648D01*
X109137Y82839D02*
X109239D01*
X109340Y82941D01*
X109442Y82839D01*
X109544D01*
Y82941D01*
X109442Y83043D01*
X109544Y83144D01*
Y83246D01*
X109442D01*
X109340Y83144D01*
X109239Y83246D01*
X109137D01*
Y83144D01*
X109239Y83043D01*
X109137Y82941D01*
Y82839D01*
X109239Y82941D02*
X109290D01*
X109340Y82992D01*
X109391Y82941D01*
X109442D01*
Y82992D01*
X109391Y83043D01*
X109442Y83093D01*
Y83144D01*
X109391D01*
X109340Y83093D01*
X109290Y83144D01*
X109239D01*
Y83093D01*
X109290Y83043D01*
X109239Y82992D01*
Y82941D01*
X159117Y143926D02*
X159218D01*
X159320Y144028D01*
X159422Y143926D01*
X159523D01*
Y144028D01*
X159422Y144129D01*
X159523Y144231D01*
Y144332D01*
X159422D01*
X159320Y144231D01*
X159218Y144332D01*
X159117D01*
Y144231D01*
X159218Y144129D01*
X159117Y144028D01*
Y143926D01*
X159218Y144028D02*
X159269D01*
X159320Y144078D01*
X159371Y144028D01*
X159422D01*
Y144078D01*
X159371Y144129D01*
X159422Y144180D01*
Y144231D01*
X159371D01*
X159320Y144180D01*
X159269Y144231D01*
X159218D01*
Y144180D01*
X159269Y144129D01*
X159218Y144078D01*
Y144028D01*
X156197Y142547D02*
X156298D01*
X156400Y142648D01*
X156502Y142547D01*
X156603D01*
Y142648D01*
X156502Y142750D01*
X156603Y142852D01*
Y142953D01*
X156502D01*
X156400Y142852D01*
X156298Y142953D01*
X156197D01*
Y142852D01*
X156298Y142750D01*
X156197Y142648D01*
Y142547D01*
X156298Y142648D02*
X156349D01*
X156400Y142699D01*
X156451Y142648D01*
X156502D01*
Y142699D01*
X156451Y142750D01*
X156502Y142801D01*
Y142852D01*
X156451D01*
X156400Y142801D01*
X156349Y142852D01*
X156298D01*
Y142801D01*
X156349Y142750D01*
X156298Y142699D01*
Y142648D01*
X152797Y143797D02*
X152898D01*
X153000Y143898D01*
X153102Y143797D01*
X153203D01*
Y143898D01*
X153102Y144000D01*
X153203Y144102D01*
Y144203D01*
X153102D01*
X153000Y144102D01*
X152898Y144203D01*
X152797D01*
Y144102D01*
X152898Y144000D01*
X152797Y143898D01*
Y143797D01*
X152898Y143898D02*
X152949D01*
X153000Y143949D01*
X153051Y143898D01*
X153102D01*
Y143949D01*
X153051Y144000D01*
X153102Y144051D01*
Y144102D01*
X153051D01*
X153000Y144051D01*
X152949Y144102D01*
X152898D01*
Y144051D01*
X152949Y144000D01*
X152898Y143949D01*
Y143898D01*
X148297Y142897D02*
X148398D01*
X148500Y142998D01*
X148602Y142897D01*
X148703D01*
Y142998D01*
X148602Y143100D01*
X148703Y143202D01*
Y143303D01*
X148602D01*
X148500Y143202D01*
X148398Y143303D01*
X148297D01*
Y143202D01*
X148398Y143100D01*
X148297Y142998D01*
Y142897D01*
X148398Y142998D02*
X148449D01*
X148500Y143049D01*
X148551Y142998D01*
X148602D01*
Y143049D01*
X148551Y143100D01*
X148602Y143151D01*
Y143202D01*
X148551D01*
X148500Y143151D01*
X148449Y143202D01*
X148398D01*
Y143151D01*
X148449Y143100D01*
X148398Y143049D01*
Y142998D01*
X169672Y127417D02*
X169773D01*
X169875Y127518D01*
X169977Y127417D01*
X170078D01*
Y127518D01*
X169977Y127620D01*
X170078Y127722D01*
Y127823D01*
X169977D01*
X169875Y127722D01*
X169773Y127823D01*
X169672D01*
Y127722D01*
X169773Y127620D01*
X169672Y127518D01*
Y127417D01*
X169773Y127518D02*
X169824D01*
X169875Y127569D01*
X169926Y127518D01*
X169977D01*
Y127569D01*
X169926Y127620D01*
X169977Y127671D01*
Y127722D01*
X169926D01*
X169875Y127671D01*
X169824Y127722D01*
X169773D01*
Y127671D01*
X169824Y127620D01*
X169773Y127569D01*
Y127518D01*
X160047Y132897D02*
X160148D01*
X160250Y132998D01*
X160352Y132897D01*
X160453D01*
Y132998D01*
X160352Y133100D01*
X160453Y133202D01*
Y133303D01*
X160352D01*
X160250Y133202D01*
X160148Y133303D01*
X160047D01*
Y133202D01*
X160148Y133100D01*
X160047Y132998D01*
Y132897D01*
X160148Y132998D02*
X160199D01*
X160250Y133049D01*
X160301Y132998D01*
X160352D01*
Y133049D01*
X160301Y133100D01*
X160352Y133151D01*
Y133202D01*
X160301D01*
X160250Y133151D01*
X160199Y133202D01*
X160148D01*
Y133151D01*
X160199Y133100D01*
X160148Y133049D01*
Y132998D01*
X149750Y120128D02*
Y119620D01*
X150004D01*
X150089Y119705D01*
Y119789D01*
X150004Y119874D01*
X149750D01*
X150004D01*
X150089Y119959D01*
Y120043D01*
X150004Y120128D01*
X149750D01*
X164547Y143047D02*
X164648D01*
X164750Y143148D01*
X164852Y143047D01*
X164953D01*
Y143148D01*
X164852Y143250D01*
X164953Y143352D01*
Y143453D01*
X164852D01*
X164750Y143352D01*
X164648Y143453D01*
X164547D01*
Y143352D01*
X164648Y143250D01*
X164547Y143148D01*
Y143047D01*
X164648Y143148D02*
X164699D01*
X164750Y143199D01*
X164801Y143148D01*
X164852D01*
Y143199D01*
X164801Y143250D01*
X164852Y143301D01*
Y143352D01*
X164801D01*
X164750Y143301D01*
X164699Y143352D01*
X164648D01*
Y143301D01*
X164699Y143250D01*
X164648Y143199D01*
Y143148D01*
X175047Y113047D02*
X175148D01*
X175250Y113148D01*
X175352Y113047D01*
X175453D01*
Y113148D01*
X175352Y113250D01*
X175453Y113352D01*
Y113453D01*
X175352D01*
X175250Y113352D01*
X175148Y113453D01*
X175047D01*
Y113352D01*
X175148Y113250D01*
X175047Y113148D01*
Y113047D01*
X175148Y113148D02*
X175199D01*
X175250Y113199D01*
X175301Y113148D01*
X175352D01*
Y113199D01*
X175301Y113250D01*
X175352Y113301D01*
Y113352D01*
X175301D01*
X175250Y113301D01*
X175199Y113352D01*
X175148D01*
Y113301D01*
X175199Y113250D01*
X175148Y113199D01*
Y113148D01*
X175047Y122797D02*
X175148D01*
X175250Y122898D01*
X175352Y122797D01*
X175453D01*
Y122898D01*
X175352Y123000D01*
X175453Y123102D01*
Y123203D01*
X175352D01*
X175250Y123102D01*
X175148Y123203D01*
X175047D01*
Y123102D01*
X175148Y123000D01*
X175047Y122898D01*
Y122797D01*
X175148Y122898D02*
X175199D01*
X175250Y122949D01*
X175301Y122898D01*
X175352D01*
Y122949D01*
X175301Y123000D01*
X175352Y123051D01*
Y123102D01*
X175301D01*
X175250Y123051D01*
X175199Y123102D01*
X175148D01*
Y123051D01*
X175199Y123000D01*
X175148Y122949D01*
Y122898D01*
X156297Y64047D02*
X156398D01*
X156500Y64148D01*
X156602Y64047D01*
X156703D01*
Y64148D01*
X156602Y64250D01*
X156703Y64352D01*
Y64453D01*
X156602D01*
X156500Y64352D01*
X156398Y64453D01*
X156297D01*
Y64352D01*
X156398Y64250D01*
X156297Y64148D01*
Y64047D01*
X156398Y64148D02*
X156449D01*
X156500Y64199D01*
X156551Y64148D01*
X156602D01*
Y64199D01*
X156551Y64250D01*
X156602Y64301D01*
Y64352D01*
X156551D01*
X156500Y64301D01*
X156449Y64352D01*
X156398D01*
Y64301D01*
X156449Y64250D01*
X156398Y64199D01*
Y64148D01*
X155047Y64047D02*
X155148D01*
X155250Y64148D01*
X155352Y64047D01*
X155453D01*
Y64148D01*
X155352Y64250D01*
X155453Y64352D01*
Y64453D01*
X155352D01*
X155250Y64352D01*
X155148Y64453D01*
X155047D01*
Y64352D01*
X155148Y64250D01*
X155047Y64148D01*
Y64047D01*
X155148Y64148D02*
X155199D01*
X155250Y64199D01*
X155301Y64148D01*
X155352D01*
Y64199D01*
X155301Y64250D01*
X155352Y64301D01*
Y64352D01*
X155301D01*
X155250Y64301D01*
X155199Y64352D01*
X155148D01*
Y64301D01*
X155199Y64250D01*
X155148Y64199D01*
Y64148D01*
X153797Y62297D02*
X153898D01*
X154000Y62398D01*
X154102Y62297D01*
X154203D01*
Y62398D01*
X154102Y62500D01*
X154203Y62602D01*
Y62703D01*
X154102D01*
X154000Y62602D01*
X153898Y62703D01*
X153797D01*
Y62602D01*
X153898Y62500D01*
X153797Y62398D01*
Y62297D01*
X153898Y62398D02*
X153949D01*
X154000Y62449D01*
X154051Y62398D01*
X154102D01*
Y62449D01*
X154051Y62500D01*
X154102Y62551D01*
Y62602D01*
X154051D01*
X154000Y62551D01*
X153949Y62602D01*
X153898D01*
Y62551D01*
X153949Y62500D01*
X153898Y62449D01*
Y62398D01*
X151917Y64047D02*
X152018D01*
X152120Y64148D01*
X152222Y64047D01*
X152323D01*
Y64148D01*
X152222Y64250D01*
X152323Y64352D01*
Y64453D01*
X152222D01*
X152120Y64352D01*
X152018Y64453D01*
X151917D01*
Y64352D01*
X152018Y64250D01*
X151917Y64148D01*
Y64047D01*
X152018Y64148D02*
X152069D01*
X152120Y64199D01*
X152171Y64148D01*
X152222D01*
Y64199D01*
X152171Y64250D01*
X152222Y64301D01*
Y64352D01*
X152171D01*
X152120Y64301D01*
X152069Y64352D01*
X152018D01*
Y64301D01*
X152069Y64250D01*
X152018Y64199D01*
Y64148D01*
X82297Y79389D02*
X82398D01*
X82500Y79491D01*
X82602Y79389D01*
X82703D01*
Y79491D01*
X82602Y79592D01*
X82703Y79694D01*
Y79796D01*
X82602D01*
X82500Y79694D01*
X82398Y79796D01*
X82297D01*
Y79694D01*
X82398Y79592D01*
X82297Y79491D01*
Y79389D01*
X82398Y79491D02*
X82449D01*
X82500Y79542D01*
X82551Y79491D01*
X82602D01*
Y79542D01*
X82551Y79592D01*
X82602Y79643D01*
Y79694D01*
X82551D01*
X82500Y79643D01*
X82449Y79694D01*
X82398D01*
Y79643D01*
X82449Y79592D01*
X82398Y79542D01*
Y79491D01*
X82297Y82564D02*
X82398D01*
X82500Y82666D01*
X82602Y82564D01*
X82703D01*
Y82666D01*
X82602Y82768D01*
X82703Y82869D01*
Y82971D01*
X82602D01*
X82500Y82869D01*
X82398Y82971D01*
X82297D01*
Y82869D01*
X82398Y82768D01*
X82297Y82666D01*
Y82564D01*
X82398Y82666D02*
X82449D01*
X82500Y82717D01*
X82551Y82666D01*
X82602D01*
Y82717D01*
X82551Y82768D01*
X82602Y82818D01*
Y82869D01*
X82551D01*
X82500Y82818D01*
X82449Y82869D01*
X82398D01*
Y82818D01*
X82449Y82768D01*
X82398Y82717D01*
Y82666D01*
X82297Y81264D02*
X82398D01*
X82500Y81366D01*
X82602Y81264D01*
X82703D01*
Y81366D01*
X82602Y81467D01*
X82703Y81569D01*
Y81671D01*
X82602D01*
X82500Y81569D01*
X82398Y81671D01*
X82297D01*
Y81569D01*
X82398Y81467D01*
X82297Y81366D01*
Y81264D01*
X82398Y81366D02*
X82449D01*
X82500Y81417D01*
X82551Y81366D01*
X82602D01*
Y81417D01*
X82551Y81467D01*
X82602Y81518D01*
Y81569D01*
X82551D01*
X82500Y81518D01*
X82449Y81569D01*
X82398D01*
Y81518D01*
X82449Y81467D01*
X82398Y81417D01*
Y81366D01*
X78047Y79797D02*
X78148D01*
X78250Y79898D01*
X78352Y79797D01*
X78453D01*
Y79898D01*
X78352Y80000D01*
X78453Y80102D01*
Y80203D01*
X78352D01*
X78250Y80102D01*
X78148Y80203D01*
X78047D01*
Y80102D01*
X78148Y80000D01*
X78047Y79898D01*
Y79797D01*
X78148Y79898D02*
X78199D01*
X78250Y79949D01*
X78301Y79898D01*
X78352D01*
Y79949D01*
X78301Y80000D01*
X78352Y80051D01*
Y80102D01*
X78301D01*
X78250Y80051D01*
X78199Y80102D01*
X78148D01*
Y80051D01*
X78199Y80000D01*
X78148Y79949D01*
Y79898D01*
X78047Y80797D02*
X78148D01*
X78250Y80898D01*
X78352Y80797D01*
X78453D01*
Y80898D01*
X78352Y81000D01*
X78453Y81102D01*
Y81203D01*
X78352D01*
X78250Y81102D01*
X78148Y81203D01*
X78047D01*
Y81102D01*
X78148Y81000D01*
X78047Y80898D01*
Y80797D01*
X78148Y80898D02*
X78199D01*
X78250Y80949D01*
X78301Y80898D01*
X78352D01*
Y80949D01*
X78301Y81000D01*
X78352Y81051D01*
Y81102D01*
X78301D01*
X78250Y81051D01*
X78199Y81102D01*
X78148D01*
Y81051D01*
X78199Y81000D01*
X78148Y80949D01*
Y80898D01*
X78047Y82047D02*
X78148D01*
X78250Y82148D01*
X78352Y82047D01*
X78453D01*
Y82148D01*
X78352Y82250D01*
X78453Y82352D01*
Y82453D01*
X78352D01*
X78250Y82352D01*
X78148Y82453D01*
X78047D01*
Y82352D01*
X78148Y82250D01*
X78047Y82148D01*
Y82047D01*
X78148Y82148D02*
X78199D01*
X78250Y82199D01*
X78301Y82148D01*
X78352D01*
Y82199D01*
X78301Y82250D01*
X78352Y82301D01*
Y82352D01*
X78301D01*
X78250Y82301D01*
X78199Y82352D01*
X78148D01*
Y82301D01*
X78199Y82250D01*
X78148Y82199D01*
Y82148D01*
X86267Y83797D02*
X86368D01*
X86470Y83898D01*
X86572Y83797D01*
X86673D01*
Y83898D01*
X86572Y84000D01*
X86673Y84102D01*
Y84203D01*
X86572D01*
X86470Y84102D01*
X86368Y84203D01*
X86267D01*
Y84102D01*
X86368Y84000D01*
X86267Y83898D01*
Y83797D01*
X86368Y83898D02*
X86419D01*
X86470Y83949D01*
X86521Y83898D01*
X86572D01*
Y83949D01*
X86521Y84000D01*
X86572Y84051D01*
Y84102D01*
X86521D01*
X86470Y84051D01*
X86419Y84102D01*
X86368D01*
Y84051D01*
X86419Y84000D01*
X86368Y83949D01*
Y83898D01*
X177297Y61747D02*
X177398D01*
X177500Y61848D01*
X177602Y61747D01*
X177703D01*
Y61848D01*
X177602Y61950D01*
X177703Y62052D01*
Y62153D01*
X177602D01*
X177500Y62052D01*
X177398Y62153D01*
X177297D01*
Y62052D01*
X177398Y61950D01*
X177297Y61848D01*
Y61747D01*
X177398Y61848D02*
X177449D01*
X177500Y61899D01*
X177551Y61848D01*
X177602D01*
Y61899D01*
X177551Y61950D01*
X177602Y62001D01*
Y62052D01*
X177551D01*
X177500Y62001D01*
X177449Y62052D01*
X177398D01*
Y62001D01*
X177449Y61950D01*
X177398Y61899D01*
Y61848D01*
X158297Y62797D02*
X158398D01*
X158500Y62898D01*
X158602Y62797D01*
X158703D01*
Y62898D01*
X158602Y63000D01*
X158703Y63102D01*
Y63203D01*
X158602D01*
X158500Y63102D01*
X158398Y63203D01*
X158297D01*
Y63102D01*
X158398Y63000D01*
X158297Y62898D01*
Y62797D01*
X158398Y62898D02*
X158449D01*
X158500Y62949D01*
X158551Y62898D01*
X158602D01*
Y62949D01*
X158551Y63000D01*
X158602Y63051D01*
Y63102D01*
X158551D01*
X158500Y63051D01*
X158449Y63102D01*
X158398D01*
Y63051D01*
X158449Y63000D01*
X158398Y62949D01*
Y62898D01*
X114547Y81797D02*
X114648D01*
X114750Y81898D01*
X114852Y81797D01*
X114953D01*
Y81898D01*
X114852Y82000D01*
X114953Y82102D01*
Y82203D01*
X114852D01*
X114750Y82102D01*
X114648Y82203D01*
X114547D01*
Y82102D01*
X114648Y82000D01*
X114547Y81898D01*
Y81797D01*
X114648Y81898D02*
X114699D01*
X114750Y81949D01*
X114801Y81898D01*
X114852D01*
Y81949D01*
X114801Y82000D01*
X114852Y82051D01*
Y82102D01*
X114801D01*
X114750Y82051D01*
X114699Y82102D01*
X114648D01*
Y82051D01*
X114699Y82000D01*
X114648Y81949D01*
Y81898D01*
X114547Y77297D02*
X114648D01*
X114750Y77398D01*
X114852Y77297D01*
X114953D01*
Y77398D01*
X114852Y77500D01*
X114953Y77602D01*
Y77703D01*
X114852D01*
X114750Y77602D01*
X114648Y77703D01*
X114547D01*
Y77602D01*
X114648Y77500D01*
X114547Y77398D01*
Y77297D01*
X114648Y77398D02*
X114699D01*
X114750Y77449D01*
X114801Y77398D01*
X114852D01*
Y77449D01*
X114801Y77500D01*
X114852Y77551D01*
Y77602D01*
X114801D01*
X114750Y77551D01*
X114699Y77602D01*
X114648D01*
Y77551D01*
X114699Y77500D01*
X114648Y77449D01*
Y77398D01*
X114547Y79547D02*
X114648D01*
X114750Y79648D01*
X114852Y79547D01*
X114953D01*
Y79648D01*
X114852Y79750D01*
X114953Y79852D01*
Y79953D01*
X114852D01*
X114750Y79852D01*
X114648Y79953D01*
X114547D01*
Y79852D01*
X114648Y79750D01*
X114547Y79648D01*
Y79547D01*
X114648Y79648D02*
X114699D01*
X114750Y79699D01*
X114801Y79648D01*
X114852D01*
Y79699D01*
X114801Y79750D01*
X114852Y79801D01*
Y79852D01*
X114801D01*
X114750Y79801D01*
X114699Y79852D01*
X114648D01*
Y79801D01*
X114699Y79750D01*
X114648Y79699D01*
Y79648D01*
X151499Y80322D02*
X151601D01*
X151702Y80423D01*
X151804Y80322D01*
X151906D01*
Y80423D01*
X151804Y80525D01*
X151906Y80627D01*
Y80728D01*
X151804D01*
X151702Y80627D01*
X151601Y80728D01*
X151499D01*
Y80627D01*
X151601Y80525D01*
X151499Y80423D01*
Y80322D01*
X151601Y80423D02*
X151652D01*
X151702Y80474D01*
X151753Y80423D01*
X151804D01*
Y80474D01*
X151753Y80525D01*
X151804Y80576D01*
Y80627D01*
X151753D01*
X151702Y80576D01*
X151652Y80627D01*
X151601D01*
Y80576D01*
X151652Y80525D01*
X151601Y80474D01*
Y80423D01*
X142797Y87547D02*
X142898D01*
X143000Y87648D01*
X143102Y87547D01*
X143203D01*
Y87648D01*
X143102Y87750D01*
X143203Y87852D01*
Y87953D01*
X143102D01*
X143000Y87852D01*
X142898Y87953D01*
X142797D01*
Y87852D01*
X142898Y87750D01*
X142797Y87648D01*
Y87547D01*
X142898Y87648D02*
X142949D01*
X143000Y87699D01*
X143051Y87648D01*
X143102D01*
Y87699D01*
X143051Y87750D01*
X143102Y87801D01*
Y87852D01*
X143051D01*
X143000Y87801D01*
X142949Y87852D01*
X142898D01*
Y87801D01*
X142949Y87750D01*
X142898Y87699D01*
Y87648D01*
X150492Y81264D02*
X150593D01*
X150695Y81366D01*
X150797Y81264D01*
X150898D01*
Y81366D01*
X150797Y81467D01*
X150898Y81569D01*
Y81671D01*
X150797D01*
X150695Y81569D01*
X150593Y81671D01*
X150492D01*
Y81569D01*
X150593Y81467D01*
X150492Y81366D01*
Y81264D01*
X150593Y81366D02*
X150644D01*
X150695Y81417D01*
X150746Y81366D01*
X150797D01*
Y81417D01*
X150746Y81467D01*
X150797Y81518D01*
Y81569D01*
X150746D01*
X150695Y81518D01*
X150644Y81569D01*
X150593D01*
Y81518D01*
X150644Y81467D01*
X150593Y81417D01*
Y81366D01*
X148547Y84547D02*
X148648D01*
X148750Y84648D01*
X148852Y84547D01*
X148953D01*
Y84648D01*
X148852Y84750D01*
X148953Y84852D01*
Y84953D01*
X148852D01*
X148750Y84852D01*
X148648Y84953D01*
X148547D01*
Y84852D01*
X148648Y84750D01*
X148547Y84648D01*
Y84547D01*
X148648Y84648D02*
X148699D01*
X148750Y84699D01*
X148801Y84648D01*
X148852D01*
Y84699D01*
X148801Y84750D01*
X148852Y84801D01*
Y84852D01*
X148801D01*
X148750Y84801D01*
X148699Y84852D01*
X148648D01*
Y84801D01*
X148699Y84750D01*
X148648Y84699D01*
Y84648D01*
X147250Y70508D02*
Y70000D01*
X147504D01*
X147589Y70085D01*
Y70169D01*
X147504Y70254D01*
X147250D01*
X147504D01*
X147589Y70339D01*
Y70423D01*
X147504Y70508D01*
X147250D01*
X136047Y68297D02*
X136148D01*
X136250Y68398D01*
X136352Y68297D01*
X136453D01*
Y68398D01*
X136352Y68500D01*
X136453Y68602D01*
Y68703D01*
X136352D01*
X136250Y68602D01*
X136148Y68703D01*
X136047D01*
Y68602D01*
X136148Y68500D01*
X136047Y68398D01*
Y68297D01*
X136148Y68398D02*
X136199D01*
X136250Y68449D01*
X136301Y68398D01*
X136352D01*
Y68449D01*
X136301Y68500D01*
X136352Y68551D01*
Y68602D01*
X136301D01*
X136250Y68551D01*
X136199Y68602D01*
X136148D01*
Y68551D01*
X136199Y68500D01*
X136148Y68449D01*
Y68398D01*
X136297Y69547D02*
X136398D01*
X136500Y69648D01*
X136602Y69547D01*
X136703D01*
Y69648D01*
X136602Y69750D01*
X136703Y69852D01*
Y69953D01*
X136602D01*
X136500Y69852D01*
X136398Y69953D01*
X136297D01*
Y69852D01*
X136398Y69750D01*
X136297Y69648D01*
Y69547D01*
X136398Y69648D02*
X136449D01*
X136500Y69699D01*
X136551Y69648D01*
X136602D01*
Y69699D01*
X136551Y69750D01*
X136602Y69801D01*
Y69852D01*
X136551D01*
X136500Y69801D01*
X136449Y69852D01*
X136398D01*
Y69801D01*
X136449Y69750D01*
X136398Y69699D01*
Y69648D01*
D169*
X197703Y103000D02*
G03*
X197703Y103000I-203J0D01*
G01*
Y71500D02*
G03*
X197703Y71500I-203J0D01*
G01*
X122703D02*
G03*
X122703Y71500I-203J0D01*
G01*
Y103000D02*
G03*
X122703Y103000I-203J0D01*
G01*
X159453Y125750D02*
G03*
X159453Y125750I-203J0D01*
G01*
X161453D02*
G03*
X161453Y125750I-203J0D01*
G01*
X116203Y125000D02*
G03*
X116203Y125000I-203J0D01*
G01*
X118203D02*
G03*
X118203Y125000I-203J0D01*
G01*
X139203Y81200D02*
G03*
X139203Y81200I-203J0D01*
G01*
D170*
X159352Y125750D02*
G03*
X159352Y125750I-102J0D01*
G01*
X161352D02*
G03*
X161352Y125750I-102J0D01*
G01*
X116102Y125000D02*
G03*
X116102Y125000I-102J0D01*
G01*
X118102D02*
G03*
X118102Y125000I-102J0D01*
G01*
X139102Y81200D02*
G03*
X139102Y81200I-102J0D01*
G01*
M02*
