G04*
G04 #@! TF.GenerationSoftware,Altium Limited,Altium Designer,19.0.10 (269)*
G04*
G04 Layer_Color=255*
%FSLAX43Y43*%
%MOMM*%
G71*
G01*
G75*
%ADD36R,0.850X0.750*%
%ADD41R,0.900X0.750*%
%ADD42R,0.850X0.700*%
%ADD43R,0.900X0.800*%
%ADD45R,0.700X0.850*%
%ADD46R,0.800X0.900*%
%ADD47R,1.350X1.150*%
%ADD114C,1.600*%
%ADD115C,1.500*%
%ADD116R,1.500X1.500*%
%ADD117R,1.500X1.500*%
%ADD118C,4.800*%
%ADD119R,1.800X1.800*%
%ADD120C,1.800*%
%ADD121R,1.600X1.600*%
%ADD122O,2.000X3.800*%
G04:AMPARAMS|DCode=123|XSize=5mm|YSize=2.8mm|CornerRadius=1.4mm|HoleSize=0mm|Usage=FLASHONLY|Rotation=0.000|XOffset=0mm|YOffset=0mm|HoleType=Round|Shape=RoundedRectangle|*
%AMROUNDEDRECTD123*
21,1,5.000,0.000,0,0,0.0*
21,1,2.200,2.800,0,0,0.0*
1,1,2.800,1.100,0.000*
1,1,2.800,-1.100,0.000*
1,1,2.800,-1.100,0.000*
1,1,2.800,1.100,0.000*
%
%ADD123ROUNDEDRECTD123*%
G04:AMPARAMS|DCode=124|XSize=4.6mm|YSize=2.6mm|CornerRadius=1.3mm|HoleSize=0mm|Usage=FLASHONLY|Rotation=270.000|XOffset=0mm|YOffset=0mm|HoleType=Round|Shape=RoundedRectangle|*
%AMROUNDEDRECTD124*
21,1,4.600,0.000,0,0,270.0*
21,1,2.000,2.600,0,0,270.0*
1,1,2.600,0.000,-1.000*
1,1,2.600,0.000,1.000*
1,1,2.600,0.000,1.000*
1,1,2.600,0.000,-1.000*
%
%ADD124ROUNDEDRECTD124*%
%ADD125C,1.300*%
%ADD126O,1.600X1.200*%
G04:AMPARAMS|DCode=127|XSize=1.6mm|YSize=1.2mm|CornerRadius=0.6mm|HoleSize=0mm|Usage=FLASHONLY|Rotation=0.000|XOffset=0mm|YOffset=0mm|HoleType=Round|Shape=RoundedRectangle|*
%AMROUNDEDRECTD127*
21,1,1.600,0.000,0,0,0.0*
21,1,0.400,1.200,0,0,0.0*
1,1,1.200,0.200,0.000*
1,1,1.200,-0.200,0.000*
1,1,1.200,-0.200,0.000*
1,1,1.200,0.200,0.000*
%
%ADD127ROUNDEDRECTD127*%
%ADD128C,1.550*%
%ADD129R,1.550X1.550*%
%ADD130C,7.700*%
%ADD136R,3.000X3.810*%
%ADD137R,0.750X0.900*%
%ADD138R,0.750X0.850*%
%ADD139R,0.850X0.900*%
%ADD140R,1.350X1.050*%
%ADD141R,1.000X1.350*%
%ADD142R,1.150X1.350*%
%ADD143R,1.200X0.800*%
%ADD144R,1.550X0.900*%
%ADD145R,1.500X3.000*%
%ADD146R,0.700X0.500*%
%ADD147R,0.500X0.700*%
D36*
X163050Y135875D02*
D03*
Y137125D02*
D03*
D41*
X189250Y55125D02*
D03*
Y53875D02*
D03*
X180830Y60125D02*
D03*
Y58875D02*
D03*
X81330Y144875D02*
D03*
Y146125D02*
D03*
X71230Y78500D02*
D03*
Y77250D02*
D03*
X58530Y75750D02*
D03*
Y74500D02*
D03*
X88425Y81793D02*
D03*
Y83043D02*
D03*
X171700Y113475D02*
D03*
Y114725D02*
D03*
X186480Y114675D02*
D03*
Y115925D02*
D03*
X163600Y99475D02*
D03*
Y100725D02*
D03*
X118000Y128225D02*
D03*
Y126975D02*
D03*
X156650Y124475D02*
D03*
Y125725D02*
D03*
D42*
X119650Y110425D02*
D03*
Y111675D02*
D03*
X188900Y148050D02*
D03*
Y146800D02*
D03*
X123300Y123790D02*
D03*
Y122540D02*
D03*
X176000Y134375D02*
D03*
Y133125D02*
D03*
X121000Y137100D02*
D03*
Y138350D02*
D03*
X150610Y142250D02*
D03*
Y143500D02*
D03*
X158070Y142175D02*
D03*
Y143425D02*
D03*
X167250Y130125D02*
D03*
Y131375D02*
D03*
X190500Y146800D02*
D03*
Y148050D02*
D03*
X71230Y76000D02*
D03*
Y74750D02*
D03*
X55990Y127375D02*
D03*
Y126125D02*
D03*
X58530Y127375D02*
D03*
Y126125D02*
D03*
X69500Y76000D02*
D03*
Y77250D02*
D03*
X94540Y145400D02*
D03*
Y144150D02*
D03*
X92000D02*
D03*
Y145400D02*
D03*
X106540Y145300D02*
D03*
Y144050D02*
D03*
X104000D02*
D03*
Y145300D02*
D03*
X133500Y69875D02*
D03*
Y68625D02*
D03*
X154800Y125725D02*
D03*
Y124475D02*
D03*
X116400Y126995D02*
D03*
Y128245D02*
D03*
D43*
X173215Y130050D02*
D03*
Y131450D02*
D03*
Y128650D02*
D03*
X175000Y142875D02*
D03*
Y141625D02*
D03*
X169875Y128650D02*
D03*
Y131450D02*
D03*
Y130050D02*
D03*
X180500Y145750D02*
D03*
Y144500D02*
D03*
X135000Y69875D02*
D03*
Y68625D02*
D03*
D45*
X121500Y125600D02*
D03*
X120250D02*
D03*
X113075Y79750D02*
D03*
X111925D02*
D03*
X119600Y138350D02*
D03*
X118350D02*
D03*
X150610Y145250D02*
D03*
X151860D02*
D03*
X158070Y145300D02*
D03*
X159320D02*
D03*
X113125Y75250D02*
D03*
X111875D02*
D03*
Y82000D02*
D03*
X113125D02*
D03*
X111925Y77500D02*
D03*
X113075D02*
D03*
X152445Y81268D02*
D03*
X153695D02*
D03*
Y82768D02*
D03*
X152445D02*
D03*
X138125Y68650D02*
D03*
X139375D02*
D03*
D46*
X100750Y145300D02*
D03*
X102000D02*
D03*
X147750Y145250D02*
D03*
X149000D02*
D03*
X134800Y124700D02*
D03*
X132000D02*
D03*
X133400D02*
D03*
X126950D02*
D03*
X129750D02*
D03*
X128350D02*
D03*
X135573Y128950D02*
D03*
X132773D02*
D03*
X134173D02*
D03*
X135573Y126200D02*
D03*
X132773D02*
D03*
X134173D02*
D03*
X163625Y132950D02*
D03*
X164875D02*
D03*
X156370Y145300D02*
D03*
X155120D02*
D03*
X97125Y145400D02*
D03*
X98375D02*
D03*
X108375Y145300D02*
D03*
X109625D02*
D03*
X90000Y145400D02*
D03*
X88750D02*
D03*
X187625Y121750D02*
D03*
X186375D02*
D03*
X187625Y119210D02*
D03*
X186375D02*
D03*
X152445Y84268D02*
D03*
X153695D02*
D03*
D47*
X81250Y79592D02*
D03*
Y78143D02*
D03*
X76750Y79525D02*
D03*
Y80975D02*
D03*
X81250Y82842D02*
D03*
Y81393D02*
D03*
X76750Y82775D02*
D03*
Y84225D02*
D03*
D114*
X87000Y89000D02*
D03*
X82000D02*
D03*
X77345Y60340D02*
D03*
X80115D02*
D03*
X82885D02*
D03*
X85655D02*
D03*
X78730Y57500D02*
D03*
X81500D02*
D03*
X84270D02*
D03*
X87040D02*
D03*
D115*
X117500Y88662D02*
D03*
X137040Y92500D02*
D03*
X116000Y101500D02*
D03*
Y104040D02*
D03*
Y106580D02*
D03*
Y109120D02*
D03*
Y111660D02*
D03*
X123150Y111700D02*
D03*
X66150Y148900D02*
D03*
X166100Y103000D02*
D03*
X163560D02*
D03*
X161020D02*
D03*
X158480D02*
D03*
X155940D02*
D03*
X153400D02*
D03*
X150860D02*
D03*
X148320D02*
D03*
X145780D02*
D03*
X143240D02*
D03*
X140700D02*
D03*
X138160D02*
D03*
X135620D02*
D03*
X133080D02*
D03*
X130540D02*
D03*
X163050Y55790D02*
D03*
X165590Y53250D02*
D03*
Y55790D02*
D03*
X168130Y53250D02*
D03*
Y55790D02*
D03*
X170670Y53250D02*
D03*
Y55790D02*
D03*
X173210Y53250D02*
D03*
Y55790D02*
D03*
X175750Y53250D02*
D03*
Y55790D02*
D03*
X178290Y53250D02*
D03*
Y55790D02*
D03*
X180830Y53250D02*
D03*
Y55790D02*
D03*
X185910D02*
D03*
Y53250D02*
D03*
X183370Y55790D02*
D03*
Y53250D02*
D03*
X170070Y149050D02*
D03*
X167530D02*
D03*
X164990D02*
D03*
X177960Y149000D02*
D03*
X180500D02*
D03*
X196460Y127620D02*
D03*
X199000D02*
D03*
X196460Y125080D02*
D03*
X199000D02*
D03*
X196460Y122540D02*
D03*
X199000D02*
D03*
X196460Y120000D02*
D03*
X199000D02*
D03*
X196460Y117460D02*
D03*
X199000D02*
D03*
X196460Y114920D02*
D03*
X199000D02*
D03*
X196460Y112380D02*
D03*
X199000D02*
D03*
X196460Y109840D02*
D03*
Y78340D02*
D03*
X199000Y80880D02*
D03*
X196460D02*
D03*
X199000Y83420D02*
D03*
X196460D02*
D03*
X199000Y85960D02*
D03*
X196460D02*
D03*
X199000Y88500D02*
D03*
X196460D02*
D03*
X199000Y91040D02*
D03*
X196460D02*
D03*
X199000Y93580D02*
D03*
X196460D02*
D03*
X199000Y96120D02*
D03*
X196460D02*
D03*
X139590Y55660D02*
D03*
X142130Y53120D02*
D03*
Y55660D02*
D03*
X144670Y53120D02*
D03*
Y55660D02*
D03*
X147210Y53120D02*
D03*
Y55660D02*
D03*
X149750Y53120D02*
D03*
Y55660D02*
D03*
X152290Y53120D02*
D03*
Y55660D02*
D03*
X154830Y53120D02*
D03*
Y55660D02*
D03*
X157370Y53120D02*
D03*
Y55660D02*
D03*
X158070Y148900D02*
D03*
X150610D02*
D03*
X92021Y149000D02*
D03*
X94561D02*
D03*
X104000D02*
D03*
X106540D02*
D03*
X183900Y121750D02*
D03*
Y119210D02*
D03*
Y116670D02*
D03*
X81330Y149050D02*
D03*
X78790D02*
D03*
X76250D02*
D03*
X123000Y149000D02*
D03*
X128460D02*
D03*
D116*
X114960Y88662D02*
D03*
X134500Y92500D02*
D03*
X125690Y111700D02*
D03*
X63610Y148900D02*
D03*
X128000Y103000D02*
D03*
X163050Y53250D02*
D03*
X172610Y149050D02*
D03*
X183040Y149000D02*
D03*
X139590Y53120D02*
D03*
X155530Y148900D02*
D03*
X148070D02*
D03*
X89481Y149000D02*
D03*
X101460D02*
D03*
X73710Y149050D02*
D03*
X120460Y149000D02*
D03*
X131000D02*
D03*
D117*
X116000Y98960D02*
D03*
X199000Y109840D02*
D03*
Y78340D02*
D03*
X183900Y114130D02*
D03*
D118*
X197500Y103000D02*
D03*
Y71500D02*
D03*
X122500D02*
D03*
Y103000D02*
D03*
D119*
X84500Y120750D02*
D03*
D120*
X85750Y93750D02*
D03*
X83250D02*
D03*
D121*
X88425Y60340D02*
D03*
D122*
X116500Y53670D02*
D03*
X120000D02*
D03*
D123*
X105500Y60020D02*
D03*
Y54020D02*
D03*
D124*
X110000Y57020D02*
D03*
D125*
X138160Y110520D02*
D03*
X140700Y107980D02*
D03*
X135620D02*
D03*
D126*
X158950Y125750D02*
D03*
X118300Y125000D02*
D03*
D127*
X161550Y125750D02*
D03*
X115700Y125000D02*
D03*
D128*
X76310Y71790D02*
D03*
X73770D02*
D03*
X76310Y69250D02*
D03*
X73770D02*
D03*
X71230Y71790D02*
D03*
Y69250D02*
D03*
X55990D02*
D03*
X58530D02*
D03*
X61070D02*
D03*
X63610D02*
D03*
X66150D02*
D03*
X68690D02*
D03*
X53450Y71790D02*
D03*
X55990D02*
D03*
X58530D02*
D03*
X61070D02*
D03*
X63610D02*
D03*
X66150D02*
D03*
X68690D02*
D03*
X91550D02*
D03*
X89010D02*
D03*
X86470D02*
D03*
X83930D02*
D03*
X81390D02*
D03*
X78850D02*
D03*
X91550Y69250D02*
D03*
X89010D02*
D03*
X86470D02*
D03*
X83930D02*
D03*
X81390D02*
D03*
X78850D02*
D03*
X94090D02*
D03*
Y71790D02*
D03*
X96630Y69250D02*
D03*
X99170D02*
D03*
X96630Y71790D02*
D03*
X99170D02*
D03*
X99170Y132790D02*
D03*
X96630D02*
D03*
X99170Y130250D02*
D03*
X96630D02*
D03*
X94090Y132790D02*
D03*
Y130250D02*
D03*
X78850D02*
D03*
X81390D02*
D03*
X83930D02*
D03*
X86470D02*
D03*
X89010D02*
D03*
X91550D02*
D03*
X78850Y132790D02*
D03*
X81390D02*
D03*
X83930D02*
D03*
X86470D02*
D03*
X89010D02*
D03*
X91550D02*
D03*
X68690D02*
D03*
X66150D02*
D03*
X63610D02*
D03*
X61070D02*
D03*
X58530D02*
D03*
X55990D02*
D03*
X53450D02*
D03*
X68690Y130250D02*
D03*
X66150D02*
D03*
X63610D02*
D03*
X61070D02*
D03*
X58530D02*
D03*
X55990D02*
D03*
X71230D02*
D03*
Y132790D02*
D03*
X73770Y130250D02*
D03*
X76310D02*
D03*
X73770Y132790D02*
D03*
X76310D02*
D03*
D129*
X53450Y69250D02*
D03*
X53450Y130250D02*
D03*
D130*
X192840Y139300D02*
D03*
Y62700D02*
D03*
X60160D02*
D03*
Y139300D02*
D03*
D136*
X116500Y62000D02*
D03*
X123900D02*
D03*
D137*
X112275Y109125D02*
D03*
X113525D02*
D03*
X90375Y142500D02*
D03*
X89125D02*
D03*
X144750Y143750D02*
D03*
X143500D02*
D03*
X67250Y74500D02*
D03*
X68500D02*
D03*
X129875Y105750D02*
D03*
X128625D02*
D03*
D138*
X118975Y130500D02*
D03*
X120225D02*
D03*
D139*
X143150Y62000D02*
D03*
X141850D02*
D03*
D140*
X128625Y60875D02*
D03*
Y59375D02*
D03*
Y64750D02*
D03*
Y63250D02*
D03*
D141*
X179750Y118250D02*
D03*
X178250D02*
D03*
D142*
X128350Y107960D02*
D03*
X129875D02*
D03*
D143*
X180690Y122920D02*
D03*
X178290Y123870D02*
D03*
Y121970D02*
D03*
X180750Y114130D02*
D03*
Y112230D02*
D03*
X178350Y113180D02*
D03*
D144*
X175250Y114675D02*
D03*
Y117325D02*
D03*
Y121825D02*
D03*
Y119175D02*
D03*
D145*
X117400Y141250D02*
D03*
X124000D02*
D03*
X128950D02*
D03*
X135550D02*
D03*
X132700Y65750D02*
D03*
X139300D02*
D03*
X132700Y62000D02*
D03*
X139300D02*
D03*
D146*
X192100Y125080D02*
D03*
Y124280D02*
D03*
Y123480D02*
D03*
Y125880D02*
D03*
X190500Y125080D02*
D03*
Y124280D02*
D03*
Y123480D02*
D03*
Y125880D02*
D03*
X189700Y114779D02*
D03*
Y112379D02*
D03*
Y113179D02*
D03*
Y113979D02*
D03*
X191300Y114779D02*
D03*
Y112379D02*
D03*
Y113179D02*
D03*
Y113979D02*
D03*
X189200Y94950D02*
D03*
Y92550D02*
D03*
Y93350D02*
D03*
Y94150D02*
D03*
X190800Y94950D02*
D03*
Y92550D02*
D03*
Y93350D02*
D03*
Y94150D02*
D03*
X189200Y90700D02*
D03*
Y88300D02*
D03*
Y89100D02*
D03*
Y89900D02*
D03*
X190800Y90700D02*
D03*
Y88300D02*
D03*
Y89100D02*
D03*
Y89900D02*
D03*
D147*
X157200Y63050D02*
D03*
X154800D02*
D03*
X155600D02*
D03*
X156400D02*
D03*
X157200Y61450D02*
D03*
X154800D02*
D03*
X155600D02*
D03*
X156400D02*
D03*
X152950Y63050D02*
D03*
X150550D02*
D03*
X151350D02*
D03*
X152150D02*
D03*
X152950Y61450D02*
D03*
X150550D02*
D03*
X151350D02*
D03*
X152150D02*
D03*
M02*
