M48
;Layer_Color=9474304
;FILE_FORMAT=4:3
METRIC,TZ
T16F00S00C2.007
%
G90
G05
T16
G00X203314Y49047
M15
G01X203597Y49194
G01X203819Y49421
G01X203960Y49707
G01X204003Y50000
G01X204003Y152000
G01X203953Y152314
G01X203806Y152597
G01X203579Y152819
G01X203293Y152960
G01X203000Y153003
G01X50000Y153003
G01X49686Y152953
G01X49403Y152806
G01X49181Y152579
G01X49040Y152293
G01X48997Y152000
G01X48997Y50000
G01X49047Y49686
G01X49194Y49403
G01X49421Y49181
G01X49707Y49040
G01X50000Y48997
G01X203000Y48997
G01X203314Y49047
M16
M17
M30
