G04*
G04 #@! TF.GenerationSoftware,Altium Limited,Altium Designer,19.0.10 (269)*
G04*
G04 Layer_Color=16711935*
%FSLAX25Y25*%
%MOIN*%
G70*
G01*
G75*
%ADD13C,0.00500*%
%ADD172C,0.00394*%
%ADD173R,0.02420X0.22992*%
D13*
X535433Y324803D02*
X559055D01*
X535433Y348425D02*
X559055D01*
X535433Y324803D02*
Y348425D01*
X559055Y324803D02*
Y348425D01*
X204685Y287638D02*
X396614D01*
X204685Y527796D02*
X396614D01*
D172*
X731299Y508268D02*
X731259Y509266D01*
X731139Y510257D01*
X730939Y511236D01*
X730661Y512195D01*
X730307Y513129D01*
X729879Y514031D01*
X729379Y514896D01*
X728812Y515718D01*
X728180Y516492D01*
X727489Y517212D01*
X726741Y517874D01*
X725943Y518474D01*
X725098Y519008D01*
X724214Y519472D01*
X723295Y519863D01*
X722348Y520180D01*
X721378Y520419D01*
X720393Y520579D01*
X719397Y520659D01*
X718398D01*
X717403Y520579D01*
X716417Y520419D01*
X715447Y520180D01*
X714500Y519863D01*
X713581Y519472D01*
X712697Y519008D01*
X711853Y518474D01*
X711054Y517874D01*
X710307Y517212D01*
X709615Y516492D01*
X708983Y515718D01*
X708416Y514896D01*
X707917Y514031D01*
X707488Y513129D01*
X707134Y512195D01*
X706856Y511236D01*
X706657Y510257D01*
X706536Y509266D01*
X706496Y508268D01*
X706536Y507270D01*
X706657Y506278D01*
X706856Y505300D01*
X707134Y504341D01*
X707488Y503407D01*
X707917Y502504D01*
X708416Y501640D01*
X708983Y500818D01*
X709615Y500044D01*
X710307Y499324D01*
X711054Y498661D01*
X711853Y498061D01*
X712697Y497528D01*
X713581Y497063D01*
X714500Y496672D01*
X715447Y496356D01*
X716417Y496117D01*
X717403Y495957D01*
X718398Y495876D01*
X719397D01*
X720393Y495957D01*
X721378Y496117D01*
X722348Y496356D01*
X723295Y496672D01*
X724214Y497063D01*
X725098Y497528D01*
X725943Y498061D01*
X726741Y498661D01*
X727489Y499324D01*
X728180Y500044D01*
X728812Y500818D01*
X729379Y501640D01*
X729879Y502504D01*
X730307Y503407D01*
X730661Y504341D01*
X730939Y505300D01*
X731139Y506278D01*
X731259Y507270D01*
X731299Y508268D01*
X515748Y530905D02*
X515484Y531890D01*
X514764Y532610D01*
X513779Y532874D01*
X512795Y532610D01*
X512075Y531890D01*
X511811Y530905D01*
X512075Y529921D01*
X512795Y529201D01*
X513779Y528937D01*
X514764Y529201D01*
X515484Y529921D01*
X515748Y530905D01*
X698228Y274213D02*
X697965Y275197D01*
X697244Y275917D01*
X696260Y276181D01*
X695276Y275917D01*
X694555Y275197D01*
X694291Y274213D01*
X694555Y273228D01*
X695276Y272508D01*
X696260Y272244D01*
X697244Y272508D01*
X697965Y273228D01*
X698228Y274213D01*
X681693Y547638D02*
X681429Y548622D01*
X680709Y549343D01*
X679724Y549606D01*
X678740Y549343D01*
X678020Y548622D01*
X677756Y547638D01*
X678020Y546654D01*
X678740Y545933D01*
X679724Y545669D01*
X680709Y545933D01*
X681429Y546654D01*
X681693Y547638D01*
Y547441D02*
X681429Y548425D01*
X680709Y549146D01*
X679724Y549409D01*
X678740Y549146D01*
X678020Y548425D01*
X677756Y547441D01*
X678020Y546457D01*
X678740Y545736D01*
X679724Y545472D01*
X680709Y545736D01*
X681429Y546457D01*
X681693Y547441D01*
X727362Y552165D02*
X727322Y553163D01*
X727202Y554155D01*
X727002Y555133D01*
X726724Y556093D01*
X726370Y557026D01*
X725942Y557929D01*
X725442Y558794D01*
X724875Y559616D01*
X724243Y560389D01*
X723552Y561109D01*
X722804Y561772D01*
X722006Y562372D01*
X721161Y562905D01*
X720277Y563370D01*
X719358Y563761D01*
X718411Y564077D01*
X717441Y564316D01*
X716456Y564476D01*
X715460Y564557D01*
X714461D01*
X713466Y564476D01*
X712480Y564316D01*
X711510Y564077D01*
X710563Y563761D01*
X709644Y563370D01*
X708760Y562905D01*
X707916Y562372D01*
X707117Y561772D01*
X706370Y561109D01*
X705678Y560389D01*
X705046Y559616D01*
X704479Y558794D01*
X703980Y557929D01*
X703551Y557026D01*
X703197Y556093D01*
X702919Y555133D01*
X702720Y554155D01*
X702599Y553163D01*
X702559Y552165D01*
X702599Y551167D01*
X702720Y550176D01*
X702919Y549197D01*
X703197Y548238D01*
X703551Y547304D01*
X703980Y546402D01*
X704479Y545537D01*
X705046Y544715D01*
X705678Y543942D01*
X706370Y543221D01*
X707117Y542559D01*
X707916Y541959D01*
X708760Y541425D01*
X709644Y540961D01*
X710563Y540570D01*
X711510Y540253D01*
X712480Y540014D01*
X713466Y539854D01*
X714461Y539774D01*
X715460D01*
X716456Y539854D01*
X717441Y540014D01*
X718411Y540253D01*
X719358Y540570D01*
X720277Y540961D01*
X721161Y541425D01*
X722006Y541959D01*
X722804Y542559D01*
X723552Y543221D01*
X724243Y543942D01*
X724875Y544715D01*
X725442Y545537D01*
X725942Y546402D01*
X726370Y547304D01*
X726724Y548238D01*
X727002Y549197D01*
X727202Y550176D01*
X727322Y551167D01*
X727362Y552165D01*
X367244Y216417D02*
X366340Y216237D01*
X365574Y215725D01*
X365062Y214959D01*
X364882Y214055D01*
X287756D02*
X287576Y214959D01*
X287064Y215725D01*
X286298Y216237D01*
X285394Y216417D01*
X382795Y232283D02*
X382727Y233275D01*
X382525Y234248D01*
X382192Y235185D01*
X381735Y236068D01*
X381162Y236880D01*
X380483Y237607D01*
X379712Y238234D01*
X378863Y238750D01*
X377951Y239146D01*
X376994Y239415D01*
X376009Y239550D01*
X375015D01*
X374030Y239415D01*
X373073Y239146D01*
X372161Y238750D01*
X371312Y238234D01*
X370540Y237607D01*
X369862Y236880D01*
X369289Y236068D01*
X368831Y235185D01*
X368498Y234248D01*
X368296Y233275D01*
X368228Y232283D01*
X381417Y221209D02*
X381903Y221979D01*
X382289Y222804D01*
X382569Y223670D01*
X382738Y224564D01*
X382795Y225472D01*
X268858Y216417D02*
X267954Y216237D01*
X267188Y215725D01*
X266676Y214959D01*
X266496Y214055D01*
X378117Y220551D02*
X378130Y220807D01*
X372894D02*
X372906Y220551D01*
X386142Y214055D02*
X385962Y214959D01*
X385450Y215725D01*
X384683Y216237D01*
X383780Y216417D01*
X284409Y232283D02*
X284342Y233275D01*
X284139Y234248D01*
X283806Y235185D01*
X283349Y236068D01*
X282776Y236880D01*
X282097Y237607D01*
X281326Y238234D01*
X280477Y238750D01*
X279565Y239146D01*
X278608Y239415D01*
X277623Y239550D01*
X276629D01*
X275644Y239415D01*
X274687Y239146D01*
X273775Y238750D01*
X272926Y238234D01*
X272155Y237607D01*
X271476Y236880D01*
X270903Y236068D01*
X270445Y235185D01*
X270113Y234248D01*
X269910Y233275D01*
X269843Y232283D01*
X279732Y220551D02*
X279744Y220807D01*
X274508D02*
X274520Y220551D01*
X368228Y225472D02*
X368285Y224564D01*
X368455Y223670D01*
X368735Y222804D01*
X369121Y221979D01*
X369606Y221209D01*
X283032D02*
X283517Y221979D01*
X283903Y222804D01*
X284183Y223670D01*
X284353Y224564D01*
X284409Y225472D01*
X269843D02*
X269899Y224564D01*
X270069Y223670D01*
X270349Y222804D01*
X270735Y221979D01*
X271220Y221209D01*
X360039Y194567D02*
X358926Y194106D01*
X358465Y192992D01*
X294173D02*
X293712Y194106D01*
X292598Y194567D01*
X356547Y170945D02*
X357206Y171565D01*
X357743Y172294D01*
X358139Y173108D01*
X358383Y173980D01*
X358465Y174882D01*
X294173D02*
X294255Y173980D01*
X294498Y173108D01*
X294895Y172294D01*
X295432Y171565D01*
X296091Y170945D01*
X322787Y325429D02*
X322524Y326413D01*
X321803Y327134D01*
X320819Y327398D01*
X319835Y327134D01*
X319114Y326413D01*
X318850Y325429D01*
X319114Y324445D01*
X319835Y323724D01*
X320819Y323461D01*
X321803Y323724D01*
X322524Y324445D01*
X322787Y325429D01*
X664173Y473622D02*
X663909Y474606D01*
X663189Y475327D01*
X662205Y475591D01*
X661221Y475327D01*
X660500Y474606D01*
X660236Y473622D01*
X660500Y472638D01*
X661221Y471917D01*
X662205Y471654D01*
X663189Y471917D01*
X663909Y472638D01*
X664173Y473622D01*
X601968Y535433D02*
X601928Y536431D01*
X601808Y537422D01*
X601608Y538401D01*
X601330Y539360D01*
X600976Y540294D01*
X600548Y541196D01*
X600049Y542061D01*
X599481Y542883D01*
X598850Y543657D01*
X598158Y544377D01*
X597410Y545039D01*
X596612Y545639D01*
X595768Y546173D01*
X594883Y546637D01*
X593965Y547029D01*
X593017Y547345D01*
X592048Y547584D01*
X591062Y547744D01*
X590066Y547825D01*
X589068D01*
X588072Y547744D01*
X587086Y547584D01*
X586117Y547345D01*
X585169Y547029D01*
X584250Y546637D01*
X583366Y546173D01*
X582522Y545639D01*
X581724Y545039D01*
X580976Y544377D01*
X580284Y543657D01*
X579653Y542883D01*
X579085Y542061D01*
X578586Y541196D01*
X578158Y540294D01*
X577804Y539360D01*
X577526Y538401D01*
X577326Y537422D01*
X577206Y536431D01*
X577165Y535433D01*
X577206Y534435D01*
X577326Y533444D01*
X577526Y532465D01*
X577804Y531506D01*
X578158Y530572D01*
X578586Y529670D01*
X579085Y528805D01*
X579653Y527983D01*
X580284Y527209D01*
X580976Y526489D01*
X581724Y525827D01*
X582522Y525227D01*
X583366Y524693D01*
X584250Y524229D01*
X585169Y523837D01*
X586117Y523521D01*
X587086Y523282D01*
X588072Y523122D01*
X589068Y523042D01*
X590066D01*
X591062Y523122D01*
X592048Y523282D01*
X593017Y523521D01*
X593965Y523837D01*
X594883Y524229D01*
X595768Y524693D01*
X596612Y525227D01*
X597410Y525827D01*
X598158Y526489D01*
X598850Y527209D01*
X599481Y527983D01*
X600049Y528805D01*
X600548Y529670D01*
X600976Y530572D01*
X601330Y531506D01*
X601608Y532465D01*
X601808Y533444D01*
X601928Y534435D01*
X601968Y535433D01*
X633465D02*
X633424Y536431D01*
X633304Y537422D01*
X633104Y538401D01*
X632826Y539360D01*
X632472Y540294D01*
X632044Y541196D01*
X631545Y542061D01*
X630977Y542883D01*
X630346Y543657D01*
X629654Y544377D01*
X628906Y545039D01*
X628108Y545639D01*
X627264Y546173D01*
X626379Y546637D01*
X625461Y547029D01*
X624513Y547345D01*
X623544Y547584D01*
X622558Y547744D01*
X621562Y547825D01*
X620564D01*
X619568Y547744D01*
X618582Y547584D01*
X617613Y547345D01*
X616665Y547029D01*
X615746Y546637D01*
X614862Y546173D01*
X614018Y545639D01*
X613220Y545039D01*
X612472Y544377D01*
X611780Y543657D01*
X611149Y542883D01*
X610581Y542061D01*
X610082Y541196D01*
X609654Y540294D01*
X609300Y539360D01*
X609022Y538401D01*
X608822Y537422D01*
X608702Y536431D01*
X608661Y535433D01*
X608702Y534435D01*
X608822Y533444D01*
X609022Y532465D01*
X609300Y531506D01*
X609654Y530572D01*
X610082Y529670D01*
X610581Y528805D01*
X611149Y527983D01*
X611780Y527209D01*
X612472Y526489D01*
X613220Y525827D01*
X614018Y525227D01*
X614862Y524693D01*
X615746Y524229D01*
X616665Y523837D01*
X617613Y523521D01*
X618582Y523282D01*
X619568Y523122D01*
X620564Y523042D01*
X621562D01*
X622558Y523122D01*
X623544Y523282D01*
X624513Y523521D01*
X625461Y523837D01*
X626379Y524229D01*
X627264Y524693D01*
X628108Y525227D01*
X628906Y525827D01*
X629654Y526489D01*
X630346Y527209D01*
X630977Y527983D01*
X631545Y528805D01*
X632044Y529670D01*
X632472Y530572D01*
X632826Y531506D01*
X633104Y532465D01*
X633304Y533444D01*
X633424Y534435D01*
X633465Y535433D01*
X570472Y523425D02*
X570432Y524423D01*
X570312Y525415D01*
X570112Y526393D01*
X569834Y527352D01*
X569480Y528286D01*
X569052Y529188D01*
X568552Y530053D01*
X567985Y530875D01*
X567353Y531649D01*
X566662Y532369D01*
X565914Y533032D01*
X565116Y533632D01*
X564272Y534165D01*
X563387Y534629D01*
X562468Y535021D01*
X561521Y535337D01*
X560552Y535576D01*
X559566Y535736D01*
X558570Y535817D01*
X557572D01*
X556576Y535736D01*
X555590Y535576D01*
X554621Y535337D01*
X553673Y535021D01*
X552754Y534629D01*
X551870Y534165D01*
X551026Y533632D01*
X550227Y533032D01*
X549480Y532369D01*
X548788Y531649D01*
X548156Y530875D01*
X547589Y530053D01*
X547090Y529188D01*
X546662Y528286D01*
X546308Y527352D01*
X546030Y526393D01*
X545830Y525415D01*
X545710Y524423D01*
X545669Y523425D01*
X545710Y522427D01*
X545830Y521436D01*
X546030Y520457D01*
X546308Y519498D01*
X546662Y518564D01*
X547090Y517662D01*
X547589Y516797D01*
X548156Y515975D01*
X548788Y515201D01*
X549480Y514481D01*
X550227Y513819D01*
X551026Y513219D01*
X551870Y512685D01*
X552754Y512221D01*
X553673Y511830D01*
X554621Y511513D01*
X555590Y511274D01*
X556576Y511114D01*
X557572Y511034D01*
X558570D01*
X559566Y511114D01*
X560552Y511274D01*
X561521Y511513D01*
X562468Y511830D01*
X563387Y512221D01*
X564272Y512685D01*
X565116Y513219D01*
X565914Y513819D01*
X566662Y514481D01*
X567353Y515201D01*
X567985Y515975D01*
X568552Y516797D01*
X569052Y517662D01*
X569480Y518564D01*
X569834Y519498D01*
X570112Y520457D01*
X570312Y521436D01*
X570432Y522427D01*
X570472Y523425D01*
X459449Y534449D02*
X459409Y535447D01*
X459288Y536438D01*
X459089Y537417D01*
X458811Y538376D01*
X458456Y539310D01*
X458028Y540212D01*
X457529Y541077D01*
X456962Y541899D01*
X456330Y542673D01*
X455638Y543393D01*
X454891Y544055D01*
X454092Y544655D01*
X453248Y545189D01*
X452364Y545653D01*
X451445Y546044D01*
X450498Y546361D01*
X449528Y546600D01*
X448542Y546760D01*
X447547Y546840D01*
X446548D01*
X445552Y546760D01*
X444567Y546600D01*
X443597Y546361D01*
X442650Y546044D01*
X441731Y545653D01*
X440846Y545189D01*
X440002Y544655D01*
X439204Y544055D01*
X438456Y543393D01*
X437765Y542673D01*
X437133Y541899D01*
X436566Y541077D01*
X436066Y540212D01*
X435638Y539310D01*
X435284Y538376D01*
X435006Y537417D01*
X434806Y536438D01*
X434686Y535447D01*
X434646Y534449D01*
X434686Y533451D01*
X434806Y532459D01*
X435006Y531481D01*
X435284Y530522D01*
X435638Y529588D01*
X436066Y528686D01*
X436566Y527821D01*
X437133Y526999D01*
X437765Y526225D01*
X438456Y525505D01*
X439204Y524843D01*
X440002Y524242D01*
X440846Y523709D01*
X441731Y523245D01*
X442650Y522853D01*
X443597Y522537D01*
X444567Y522298D01*
X445552Y522138D01*
X446548Y522057D01*
X447547D01*
X448542Y522138D01*
X449528Y522298D01*
X450498Y522537D01*
X451445Y522853D01*
X452364Y523245D01*
X453248Y523709D01*
X454092Y524242D01*
X454891Y524843D01*
X455638Y525505D01*
X456330Y526225D01*
X456962Y526999D01*
X457529Y527821D01*
X458028Y528686D01*
X458457Y529588D01*
X458811Y530522D01*
X459089Y531481D01*
X459288Y532459D01*
X459409Y533451D01*
X459449Y534449D01*
X743504Y581102D02*
X750197D01*
X743504Y584646D02*
X750197D01*
Y581102D02*
Y584646D01*
X743504Y581102D02*
Y584646D01*
X635925Y483720D02*
X639665D01*
X635925Y476831D02*
X639665D01*
Y483720D01*
X635925Y476831D02*
Y483720D01*
X690789Y523721D02*
Y536122D01*
X694529Y523721D02*
Y536122D01*
X690789D02*
X694529D01*
X690789Y529232D02*
X694529D01*
X677854Y445768D02*
Y452658D01*
X674114Y445768D02*
Y452658D01*
X677854D01*
X674114Y445768D02*
X677854D01*
X370417Y571358D02*
X374157D01*
X370417Y578248D02*
X374157D01*
Y571358D02*
Y578248D01*
X370417Y571358D02*
Y578248D01*
X417579Y570965D02*
X421319D01*
X417579Y577854D02*
X421319D01*
Y570965D02*
Y577854D01*
X417579Y570965D02*
Y577854D01*
X349114Y321358D02*
Y328248D01*
X345374Y321358D02*
Y328248D01*
X349114D01*
X345374Y321358D02*
X349114D01*
X457382Y313090D02*
Y316831D01*
X450492Y313090D02*
Y316831D01*
X457382D01*
X450492Y313090D02*
X457382D01*
X433268Y312303D02*
X441535D01*
X433268Y317618D02*
X441535D01*
Y312303D02*
Y317618D01*
X433268Y312303D02*
Y317618D01*
X689862Y556595D02*
X693602D01*
X689862Y563484D02*
X693602D01*
X689862Y556595D02*
Y563484D01*
X693602Y556595D02*
Y563484D01*
X598316Y336713D02*
X602057D01*
X598316Y343602D02*
X602057D01*
Y336713D02*
Y343602D01*
X598316Y336713D02*
Y343602D01*
X651437Y510925D02*
Y517815D01*
X647697Y510925D02*
Y517815D01*
Y510925D02*
X651437D01*
X647697Y517815D02*
X651437D01*
X545669Y260531D02*
X552559D01*
X545669Y272342D02*
X552559D01*
Y260531D02*
Y272342D01*
X545669Y260531D02*
Y272342D01*
X402559Y570177D02*
Y573917D01*
X395669Y570177D02*
Y573917D01*
Y570177D02*
X402559D01*
X395669Y573917D02*
X402559D01*
X459724Y232598D02*
X486732D01*
X459724Y255591D02*
X486732D01*
X459724Y232598D02*
Y255591D01*
X486732Y232598D02*
Y255591D01*
X441043Y427756D02*
X447933D01*
X441043Y431496D02*
X447933D01*
X441043Y427756D02*
Y431496D01*
X447933Y427756D02*
Y431496D01*
X469193Y433760D02*
X472933D01*
X469193Y440650D02*
X472933D01*
Y433760D02*
Y440650D01*
X469193Y433760D02*
Y440650D01*
X478740Y516732D02*
Y534449D01*
X517323Y516732D02*
Y534449D01*
X478740Y516732D02*
X517323D01*
X478740Y534449D02*
X517323D01*
X670276Y277756D02*
X699803D01*
X670276Y255709D02*
X699803D01*
Y277756D01*
X670276Y255709D02*
Y277756D01*
X650984Y551378D02*
X684055D01*
X650984Y533661D02*
X684055D01*
Y551378D01*
X650984Y533661D02*
Y551378D01*
X741831Y583858D02*
X745571D01*
X741831Y576968D02*
X745571D01*
X741831D02*
Y583858D01*
X745571Y576968D02*
Y583858D01*
X472441Y496358D02*
X479331D01*
X472441Y492618D02*
X479331D01*
Y496358D01*
X472441Y492618D02*
Y496358D01*
X483563Y481457D02*
Y488346D01*
X487303Y481457D02*
Y488346D01*
X483563D02*
X487303D01*
X483563Y481457D02*
X487303D01*
X467520Y512008D02*
Y515551D01*
X474213Y512008D02*
Y515551D01*
X467520Y512008D02*
X474213D01*
X467520Y515551D02*
X474213D01*
X650984Y551181D02*
X684055D01*
X650984Y533465D02*
X684055D01*
Y551181D01*
X650984Y533465D02*
Y551181D01*
X643701Y534055D02*
Y540748D01*
X640158Y534055D02*
Y540748D01*
Y534055D02*
X643701D01*
X640158Y540748D02*
X643701D01*
X598661Y330610D02*
Y336713D01*
X589213Y330610D02*
Y336713D01*
Y330610D02*
X598661D01*
X589213Y336713D02*
X598661D01*
X564468Y242205D02*
Y245984D01*
X557579Y242205D02*
Y245984D01*
X564468D01*
X557579Y242205D02*
X564468D01*
X503642Y232480D02*
Y240945D01*
X509154Y232480D02*
Y240945D01*
X503642D02*
X509154D01*
X503642Y232480D02*
X509154D01*
X516240Y371323D02*
X521949D01*
X516240Y362662D02*
X521949D01*
Y371323D01*
X516240Y362662D02*
Y371323D01*
X480020Y334988D02*
X491043D01*
X480020Y349162D02*
X491043D01*
X480020Y334988D02*
Y349162D01*
X491043Y334988D02*
Y349162D01*
X700394Y468405D02*
X709055D01*
X700394Y462697D02*
X709055D01*
Y468405D01*
X700394Y462697D02*
Y468405D01*
X504114Y422185D02*
X512815D01*
X504114Y427894D02*
X512815D01*
X504114Y422185D02*
Y427894D01*
X512815Y422185D02*
Y427894D01*
X584350Y571746D02*
Y578635D01*
X588091Y571746D02*
Y578635D01*
X584350D02*
X588091D01*
X584350Y571746D02*
X588091D01*
X704095Y489685D02*
X709213D01*
X704095Y478189D02*
X709213D01*
Y489685D01*
X704095Y478189D02*
Y489685D01*
X354862Y211299D02*
Y243386D01*
X369177Y230768D02*
Y233169D01*
X348071Y192992D02*
X358465D01*
X379862Y196260D02*
Y204213D01*
X283461Y230768D02*
Y233169D01*
X272776Y196260D02*
Y204213D01*
X304567Y174882D02*
Y192992D01*
X271595Y194567D02*
Y196260D01*
X294173Y192992D02*
X304567D01*
X369606Y228799D02*
X372894D01*
X297776Y211299D02*
Y243386D01*
X348071Y174882D02*
X358465D01*
X381847Y230768D02*
Y233169D01*
X294173Y174882D02*
X304567D01*
Y170945D02*
Y174882D01*
X378130Y228799D02*
X381417D01*
X348071Y174882D02*
Y192992D01*
X304567D02*
X348071D01*
Y194567D01*
X279744Y228799D02*
X283032D01*
X304567Y174882D02*
X348071D01*
X271220Y228799D02*
X274508D01*
X348071Y170945D02*
Y174882D01*
X270791Y230768D02*
Y233169D01*
X381043Y194567D02*
Y196260D01*
X304567Y192992D02*
Y194567D01*
X365079Y211299D02*
Y212677D01*
X279744Y228799D02*
Y233169D01*
X271772Y220551D02*
X282480D01*
X381417Y230768D02*
X381847D01*
X354862Y211299D02*
X386949D01*
X386142D02*
Y214055D01*
X274508Y220807D02*
Y228799D01*
X368282Y233169D02*
X369177D01*
X271220Y216417D02*
Y228799D01*
X279744Y233169D02*
X283032D01*
X385945Y211299D02*
Y212677D01*
X381847Y230768D02*
X382795D01*
X266693Y212677D02*
X287559D01*
X266496Y211299D02*
Y214055D01*
X378130Y220807D02*
Y228799D01*
X380866Y212677D02*
Y220551D01*
X381417Y216417D02*
X383780D01*
X265689Y204213D02*
X386949D01*
X381417Y233169D02*
X381847D01*
X380853Y170945D02*
Y194567D01*
X370158Y212677D02*
Y220551D01*
X271220Y233169D02*
X274508D01*
X381847D02*
X382741D01*
X360768Y211299D02*
Y243386D01*
X369177Y233169D02*
X369606D01*
X265689Y194567D02*
X386949D01*
X381417Y216417D02*
Y228799D01*
X369606D02*
Y233169D01*
X367244Y216417D02*
X369606D01*
X279744Y220807D02*
Y228799D01*
X378130D02*
Y233169D01*
X270791Y230768D02*
X271220D01*
X270791Y233169D02*
X271220D01*
X291870Y211299D02*
Y243386D01*
X271595Y196260D02*
X272776D01*
X381417Y228799D02*
Y233169D01*
X271784Y170945D02*
Y194567D01*
X382795Y225472D02*
Y243386D01*
X287559Y211299D02*
Y212677D01*
X282468Y170945D02*
Y194567D01*
X269843Y225472D02*
Y243386D01*
X368228Y230768D02*
X369177D01*
X370158Y220551D02*
X380866D01*
X283032Y216417D02*
Y228799D01*
X381043Y196260D02*
X386949D01*
X365079Y212677D02*
X385945D01*
X379862Y196260D02*
X381043D01*
X372894Y220807D02*
Y228799D01*
X265689Y196260D02*
X271595D01*
X283032Y233169D02*
X283461D01*
X287756Y211299D02*
Y214055D01*
X274508Y228799D02*
Y233169D01*
X283032Y228799D02*
Y233169D01*
X271220Y228799D02*
Y233169D01*
X370170Y170945D02*
Y194567D01*
X283461Y233169D02*
X284355D01*
X368228Y225472D02*
Y243386D01*
X372894Y228799D02*
Y233169D01*
X283032Y216417D02*
X285394D01*
X269897Y233169D02*
X270791D01*
X369606Y216417D02*
Y228799D01*
Y233169D02*
X372894D01*
X271772Y212677D02*
Y220551D01*
X265689Y211299D02*
X297776D01*
X364882D02*
Y214055D01*
X266693Y211299D02*
Y212677D01*
X369177Y230768D02*
X369606D01*
X283032D02*
X283461D01*
X284409D01*
X378130Y233169D02*
X381417D01*
X269843Y230768D02*
X270791D01*
X284409Y225472D02*
Y243386D01*
X282480Y212677D02*
Y220551D01*
X268858Y216417D02*
X271220D01*
X265689Y243386D02*
X386949D01*
X265689Y194567D02*
Y243386D01*
X386949Y194567D02*
Y243386D01*
X287809Y170945D02*
Y194567D01*
X266443Y170945D02*
X287809D01*
X364828D02*
X386195D01*
X296091D02*
X356547D01*
X386195Y170945D02*
Y194567D01*
X364828Y170945D02*
Y194567D01*
X266443Y170945D02*
Y194567D01*
X294173Y174882D02*
Y192992D01*
X358465Y174882D02*
Y192992D01*
X680217Y510728D02*
X683957D01*
X680217Y517618D02*
X683957D01*
Y505217D02*
Y517618D01*
X680217Y505217D02*
Y517618D01*
X433268Y321161D02*
Y326476D01*
X441535Y321161D02*
Y326476D01*
X433268D02*
X441535D01*
X433268Y321161D02*
X441535D01*
X658858Y395866D02*
X664370D01*
X658858Y384055D02*
X664370D01*
X658858D02*
Y395866D01*
X664370Y384055D02*
Y395866D01*
X440650Y303839D02*
Y307579D01*
X434154Y303839D02*
Y307579D01*
X440650D01*
X434154Y303839D02*
X440650D01*
X686713Y450295D02*
X693209D01*
X686713Y463091D02*
X693209D01*
Y450295D02*
Y463091D01*
X686713Y450295D02*
Y463091D01*
X530945Y444350D02*
X556929D01*
X530945Y425885D02*
X556929D01*
Y444350D01*
X530945Y425885D02*
Y444350D01*
X656004Y372736D02*
Y379429D01*
X659744Y372736D02*
Y379429D01*
X656004Y372736D02*
X659744D01*
X656004Y379429D02*
X659744D01*
X462795Y549803D02*
Y562402D01*
X487598Y549803D02*
Y562402D01*
X462795Y549803D02*
X487598D01*
X462795Y562402D02*
X487598D01*
X580394Y314636D02*
Y326840D01*
X587480Y314636D02*
Y326840D01*
X580394D02*
X587480D01*
X580394Y314636D02*
X587480D01*
X507283Y354788D02*
Y366205D01*
X500984Y354788D02*
Y366205D01*
Y354788D02*
X507283D01*
X500984Y366205D02*
X507283D01*
X317461Y305929D02*
Y327929D01*
X335177Y305929D02*
Y327929D01*
X317461D02*
X335177D01*
X317461Y305929D02*
X335177D01*
X658661Y457874D02*
Y477165D01*
X674016Y457874D02*
Y477165D01*
X658661D02*
X674016D01*
X658661Y457874D02*
X674016D01*
X565020Y569882D02*
X569941D01*
X565020Y562008D02*
X569941D01*
X565020D02*
Y569882D01*
X569941Y562008D02*
Y569882D01*
X201279Y502658D02*
X205020D01*
X201279Y495768D02*
X205020D01*
Y502658D01*
X201279Y495768D02*
Y502658D01*
X204685Y267637D02*
X306185D01*
X204685D02*
Y287638D01*
X396457Y267637D02*
Y287638D01*
X396457Y507795D02*
Y527796D01*
X204685Y507795D02*
Y527796D01*
Y507795D02*
X306185D01*
X526870Y549311D02*
Y556201D01*
X530610Y549311D02*
Y556201D01*
X526870Y549311D02*
X530610D01*
X526870Y556201D02*
X530610D01*
X680020Y569390D02*
X686909D01*
X680020Y573130D02*
X686909D01*
Y569390D02*
Y573130D01*
X680020Y569390D02*
Y573130D01*
X651575Y564468D02*
Y571358D01*
X655315Y564468D02*
Y571358D01*
X651575Y564468D02*
X655315D01*
X651575Y571358D02*
X655315D01*
X647539Y464075D02*
Y470965D01*
X643799Y464075D02*
Y470965D01*
X647539D01*
X643799Y464075D02*
X647539D01*
X684449Y291397D02*
Y298287D01*
X688189Y291397D02*
Y298287D01*
X684449Y291397D02*
X688189D01*
X684449Y298287D02*
X688189D01*
X568976Y366732D02*
X583150D01*
X568976Y355709D02*
X583150D01*
X568976D02*
Y366732D01*
X583150Y355709D02*
Y366732D01*
X568976Y352953D02*
X583150D01*
X568976Y341929D02*
X583150D01*
X568976D02*
Y352953D01*
X583150Y341929D02*
Y352953D01*
X550276Y299606D02*
X564449D01*
X550276Y310630D02*
X564449D01*
Y299606D02*
Y310630D01*
X550276Y299606D02*
Y310630D01*
Y285827D02*
X564449D01*
X550276Y296850D02*
X564449D01*
Y285827D02*
Y296850D01*
X550276Y285827D02*
Y296850D01*
X663287Y379429D02*
X667028D01*
X663287Y372736D02*
X667028D01*
Y379429D01*
X663287Y372736D02*
Y379429D01*
X503642Y256201D02*
X509154D01*
X503642Y247736D02*
X509154D01*
X503642D02*
Y256201D01*
X509154Y247736D02*
Y256201D01*
X356791Y559154D02*
Y562894D01*
X349902Y559154D02*
Y562894D01*
X356791D01*
X349902Y559154D02*
X356791D01*
X518996Y489075D02*
X531398D01*
X518996Y492815D02*
X531398D01*
X518996Y489075D02*
Y492815D01*
X525886Y489075D02*
Y492815D01*
X499114D02*
X511516D01*
X499114Y489075D02*
X511516D01*
Y492815D01*
X504626Y489075D02*
Y492815D01*
X464961Y546555D02*
X471850D01*
X464961Y542815D02*
X471850D01*
Y546555D01*
X464961Y542815D02*
Y546555D01*
X478248Y538779D02*
Y545669D01*
X474508Y538779D02*
Y545669D01*
Y538779D02*
X478248D01*
X474508Y545669D02*
X478248D01*
X522040Y505807D02*
X534441D01*
X522040Y509547D02*
X534441D01*
X522040Y505807D02*
Y509547D01*
X528929Y505807D02*
Y509547D01*
X522040Y494980D02*
X534441D01*
X522040Y498721D02*
X534441D01*
X522040Y494980D02*
Y498721D01*
X528929Y494980D02*
Y498721D01*
X508268Y549803D02*
X533071D01*
X508268Y562402D02*
X533071D01*
X508268Y549803D02*
Y562402D01*
X533071Y549803D02*
Y562402D01*
X640256Y519980D02*
Y526870D01*
X643996Y519980D02*
Y526870D01*
X640256Y519980D02*
X643996D01*
X640256Y526870D02*
X643996D01*
X664272Y490453D02*
X671161D01*
X664272Y486713D02*
X671161D01*
X664272D02*
Y490453D01*
X671161Y486713D02*
Y490453D01*
X666929Y505807D02*
Y518209D01*
X670669Y505807D02*
Y518209D01*
X666929D02*
X670669D01*
X666929Y511319D02*
X670669D01*
X570866Y564075D02*
Y567815D01*
X563976Y564075D02*
Y567815D01*
X570866D01*
X563976Y564075D02*
X570866D01*
X647146Y522146D02*
Y525886D01*
X640256Y522146D02*
Y525886D01*
X647146D01*
X640256Y522146D02*
X647146D01*
X591968Y564665D02*
X598858D01*
X591968Y568405D02*
X598858D01*
X591968Y564665D02*
Y568405D01*
X598858Y564665D02*
Y568405D01*
X621339Y564665D02*
X628228D01*
X621339Y568405D02*
X628228D01*
X621339Y564665D02*
Y568405D01*
X628228Y564665D02*
Y568405D01*
X594823Y571752D02*
Y578642D01*
X591083Y571752D02*
Y578642D01*
Y571752D02*
X594823D01*
X591083Y578642D02*
X594823D01*
X624193Y571752D02*
Y578642D01*
X620453Y571752D02*
Y578642D01*
Y571752D02*
X624193D01*
X620453Y578642D02*
X624193D01*
X613878Y571746D02*
X617618D01*
X613878Y578635D02*
X617618D01*
Y571746D02*
Y578635D01*
X613878Y571746D02*
Y578635D01*
X743209Y218012D02*
X746949D01*
X743209Y211122D02*
X746949D01*
X743209D02*
Y218012D01*
X746949Y211122D02*
Y218012D01*
X710059Y237697D02*
X713799D01*
X710059Y230807D02*
X713799D01*
X710059D02*
Y237697D01*
X713799Y230807D02*
Y237697D01*
X708760Y574803D02*
X712500D01*
X708760Y567913D02*
X712500D01*
X708760D02*
Y574803D01*
X712500Y567913D02*
Y574803D01*
X751870Y576968D02*
Y583858D01*
X748130Y576968D02*
Y583858D01*
Y576968D02*
X751870D01*
X748130Y583858D02*
X751870D01*
X318327Y569390D02*
X322067D01*
X318327Y576279D02*
X322067D01*
Y569390D02*
Y576279D01*
X318327Y569390D02*
Y576279D01*
X278563Y293307D02*
Y300197D01*
X282303Y293307D02*
Y300197D01*
X278563D02*
X282303D01*
X278563Y293307D02*
X282303D01*
X218563Y495571D02*
Y502461D01*
X222303Y495571D02*
Y502461D01*
X218563D02*
X222303D01*
X218563Y495571D02*
X222303D01*
X278563Y310039D02*
X282303D01*
X278563Y303150D02*
X282303D01*
X278563D02*
Y310039D01*
X282303Y303150D02*
Y310039D01*
X228563Y299213D02*
X232303D01*
X228563Y292323D02*
X232303D01*
X228563D02*
Y299213D01*
X232303Y292323D02*
Y299213D01*
X228563Y495571D02*
Y502461D01*
X232303Y495571D02*
Y502461D01*
X228563D02*
X232303D01*
X228563Y495571D02*
X232303D01*
X433957Y289862D02*
X440846D01*
X433957Y286122D02*
X440846D01*
Y289862D01*
X433957Y286122D02*
Y289862D01*
X450492Y325689D02*
X457382D01*
X450492Y321949D02*
X457382D01*
Y325689D01*
X450492Y321949D02*
Y325689D01*
X434154Y294980D02*
X440650D01*
X434154Y298721D02*
X440650D01*
X434154Y294980D02*
Y298721D01*
X440650Y294980D02*
Y298721D01*
X263779Y291437D02*
Y295177D01*
X270669Y291437D02*
Y295177D01*
X263779Y291437D02*
X270669D01*
X263779Y295177D02*
X270669D01*
X275492Y298228D02*
Y305118D01*
X271752Y298228D02*
Y305118D01*
Y298228D02*
X275492D01*
X271752Y305118D02*
X275492D01*
X378583Y570571D02*
Y574311D01*
X385472Y570571D02*
Y574311D01*
X378583Y570571D02*
X385472D01*
X378583Y574311D02*
X385472D01*
X425689Y570177D02*
Y573917D01*
X432579Y570177D02*
Y573917D01*
X425689Y570177D02*
X432579D01*
X425689Y573917D02*
X432579D01*
X378583Y564671D02*
X385472D01*
X378583Y568411D02*
X385472D01*
X378583Y564671D02*
Y568411D01*
X385472Y564671D02*
Y568411D01*
X364075Y566535D02*
Y573425D01*
X360335Y566535D02*
Y573425D01*
Y566535D02*
X364075D01*
X360335Y573425D02*
X364075D01*
X424902Y560138D02*
Y567028D01*
X428642Y560138D02*
Y567028D01*
X424902D02*
X428642D01*
X424902Y560138D02*
X428642D01*
X411319Y566142D02*
Y573032D01*
X407579Y566142D02*
Y573032D01*
Y566142D02*
X411319D01*
X407579Y573032D02*
X411319D01*
X355315Y570571D02*
Y574311D01*
X348425Y570571D02*
Y574311D01*
X355315D01*
X348425Y570571D02*
X355315D01*
X317028Y314852D02*
X322736D01*
X317028Y306152D02*
X322736D01*
X317028D02*
Y314852D01*
X322736Y306152D02*
Y314852D01*
X299311Y311595D02*
X305020D01*
X299311Y320295D02*
X305020D01*
Y311595D02*
Y320295D01*
X299311Y311595D02*
Y320295D01*
X317028Y327648D02*
X322736D01*
X317028Y318947D02*
X322736D01*
X317028D02*
Y327648D01*
X322736Y318947D02*
Y327648D01*
X299311Y324390D02*
X305020D01*
X299311Y333090D02*
X305020D01*
Y324390D02*
Y333090D01*
X299311Y324390D02*
Y333090D01*
X686713Y468012D02*
Y480807D01*
X693209Y468012D02*
Y480807D01*
X686713D02*
X693209D01*
X686713Y468012D02*
X693209D01*
X739665Y477461D02*
Y481201D01*
X732776Y477461D02*
Y481201D01*
X739665D01*
X732776Y477461D02*
X739665D01*
Y467461D02*
Y471201D01*
X732776Y467461D02*
Y471201D01*
X739665D01*
X732776Y467461D02*
X739665D01*
X709449Y439843D02*
Y451339D01*
X704331Y439843D02*
Y451339D01*
X709449D01*
X704331Y439843D02*
X709449D01*
X732303Y450492D02*
X736043D01*
X732303Y457382D02*
X736043D01*
Y450492D02*
Y457382D01*
X732303Y450492D02*
Y457382D01*
X512303Y414468D02*
Y418209D01*
X505413Y414468D02*
Y418209D01*
X512303D01*
X505413Y414468D02*
X512303D01*
X642224Y390650D02*
X645965D01*
X642224Y397539D02*
X645965D01*
Y390650D02*
Y397539D01*
X642224Y390650D02*
Y397539D01*
X599193Y329977D02*
Y333717D01*
X606083Y329977D02*
Y333717D01*
X599193Y329977D02*
X606083D01*
X599193Y333717D02*
X606083D01*
X599187Y318081D02*
X606076D01*
X599187Y321821D02*
X606076D01*
X599187Y318081D02*
Y321821D01*
X606076Y318081D02*
Y321821D01*
X599187Y327769D02*
X606076D01*
X599187Y324029D02*
X606076D01*
Y327769D01*
X599187Y324029D02*
Y327769D01*
X528248Y280768D02*
X540650D01*
X528248Y284508D02*
X540650D01*
Y280768D02*
Y284508D01*
X533760Y280768D02*
Y284508D01*
X532579Y256398D02*
X536319D01*
X532579Y263287D02*
X536319D01*
X532579Y256398D02*
Y263287D01*
X536319Y256398D02*
Y263287D01*
X529626Y276083D02*
X533366D01*
X529626Y269193D02*
X533366D01*
X529626D02*
Y276083D01*
X533366Y269193D02*
Y276083D01*
X542815Y268406D02*
X549705D01*
X542815Y272146D02*
X549705D01*
X542815Y268406D02*
Y272146D01*
X549705Y268406D02*
Y272146D01*
X523721Y269193D02*
Y276083D01*
X527461Y269193D02*
Y276083D01*
X523721D02*
X527461D01*
X523721Y269193D02*
X527461D01*
X523032Y252559D02*
X547835D01*
X523032Y265158D02*
X547835D01*
X523032Y252559D02*
Y265158D01*
X547835Y252559D02*
Y265158D01*
X523032Y237795D02*
X547835D01*
X523032Y250394D02*
X547835D01*
X523032Y237795D02*
Y250394D01*
X547835Y237795D02*
Y250394D01*
X606004Y493405D02*
Y500295D01*
X609744Y493405D02*
Y500295D01*
X606004D02*
X609744D01*
X606004Y493405D02*
X609744D01*
X460138Y498996D02*
Y505886D01*
X456398Y498996D02*
Y505886D01*
Y498996D02*
X460138D01*
X456398Y505886D02*
X460138D01*
X462697Y505807D02*
X466437D01*
X462697Y498917D02*
X466437D01*
X462697D02*
Y505807D01*
X466437Y498917D02*
Y505807D01*
X613287Y493405D02*
X617028D01*
X613287Y500295D02*
X617028D01*
Y493405D02*
Y500295D01*
X613287Y493405D02*
Y500295D01*
X567205Y315728D02*
Y324429D01*
X561496Y315728D02*
Y324429D01*
X567205D01*
X561496Y315728D02*
X567205D01*
X519783Y549213D02*
Y556102D01*
X523524Y549213D02*
Y556102D01*
X519783Y549213D02*
X523524D01*
X519783Y556102D02*
X523524D01*
X509547Y553435D02*
Y560325D01*
X513287Y553435D02*
Y560325D01*
X509547Y553435D02*
X513287D01*
X509547Y560325D02*
X513287D01*
X482382Y553435D02*
Y560325D01*
X486122Y553435D02*
Y560325D01*
X482382Y553435D02*
X486122D01*
X482382Y560325D02*
X486122D01*
X497539Y371126D02*
Y378016D01*
X501279Y371126D02*
Y378016D01*
X497539Y371126D02*
X501279D01*
X497539Y378016D02*
X501279D01*
Y343158D02*
Y350047D01*
X497539Y343158D02*
Y350047D01*
X501279D01*
X497539Y343158D02*
X501279D01*
X520965Y350851D02*
Y357740D01*
X517224Y350851D02*
Y357740D01*
X520965D01*
X517224Y350851D02*
X520965D01*
X355807Y557087D02*
Y564961D01*
X350886Y557087D02*
Y564961D01*
Y557087D02*
X355807D01*
X350886Y564961D02*
X355807D01*
X650295Y505315D02*
Y513583D01*
X655610Y505315D02*
Y513583D01*
X650295Y505315D02*
X655610D01*
X650295Y513583D02*
X655610D01*
X486516Y486024D02*
Y494291D01*
X491831Y486024D02*
Y494291D01*
X486516Y486024D02*
X491831D01*
X486516Y494291D02*
X491831D01*
X433268Y294193D02*
X441535D01*
X433268Y299508D02*
X441535D01*
Y294193D02*
Y299508D01*
X433268Y294193D02*
Y299508D01*
Y303051D02*
X441535D01*
X433268Y308366D02*
X441535D01*
Y303051D02*
Y308366D01*
X433268Y303051D02*
Y308366D01*
X521358Y538287D02*
Y545177D01*
X525098Y538287D02*
Y545177D01*
X521358Y538287D02*
X525098D01*
X521358Y545177D02*
X525098D01*
X433268Y285335D02*
X441535D01*
X433268Y290650D02*
X441535D01*
Y285335D02*
Y290650D01*
X433268Y285335D02*
Y290650D01*
D173*
X485563Y244094D02*
D03*
M02*
