M48
;Layer_Color=9474304
;FILE_FORMAT=2:5
INCH,TZ
;TYPE=PLATED
T1F00S00C0.01181
T2F00S00C0.01378
T3F00S00C0.01575
T4F00S00C0.02362
T5F00S00C0.02559
T6F00S00C0.03150
T7F00S00C0.03543
T8F00S00C0.03937
T9F00S00C0.04016
T10F00S00C0.04291
T11F00S00C0.04331
T12F00S00C0.04724
T13F00S00C0.11811
T14F00S00C0.13780
;TYPE=NON_PLATED
T16F00S00C0.12520
%
T01
X628740Y261024
X665748Y252756
X698819Y243898
X703543Y280512
X699803Y288287
X696555Y291339
X693580Y294842
X679921Y294488
X676772Y290945
X624803Y264173
X624016Y248031
X616142Y252953
X611221
X603150Y256693
X598898Y252953
X588583Y252756
Y246850
X579567Y251575
X592717Y257480
X605904Y246456
X536417Y269685
X537402Y274606
X531102Y265748
X446260Y287992
Y296850
Y305709
X423130
X425177Y297264
X427638Y288189
X397638Y252756
X384842Y254921
Y259744
X348425Y305118
X273622Y309449
X274016Y248228
X308071Y314961
Y318898
Y323819
X301969Y337795
X283465Y436614
X280242Y439640
X278870Y443577
X276378Y448032
X362205Y422835
X375984Y430708
X372047Y314961
X368109Y312598
X358268Y326939
X340433Y330709
X324803Y325856
Y320738
Y313356
X424962Y318671
X446063Y314961
X446260Y323819
X571260Y320866
X574803
X572835Y316142
X593287Y320738
X597254Y317028
X585630Y333661
X562992Y345472
X610236Y359252
X612991Y362598
X617205Y364961
X620276Y361024
X623425Y358268
X558661Y451575
X560236Y460630
X640551Y464961
X663484Y455709
X666534Y451574
X675984Y455905
X689961Y445866
X671063Y373622
X629921Y353150
X626575Y355512
X668504Y479134
X675984Y488583
X689961Y484252
X696457Y511024
X691929Y516732
X688975Y520078
X687402Y524409
X677559Y520472
X674014Y522835
X660629Y522046
X653012Y520079
X641929Y516535
X630905Y524016
X646654Y530512
X656693Y540354
X661024
X665354
X669685
X674016
X678346
Y544685
X674016
X669685
X665354
X661024
X656693
X660827Y561613
X668896Y564566
X677165Y571260
X648622Y563976
X637795Y575787
X634251Y578345
X627244Y567438
X664172Y514566
X668799Y502441
X674803Y507677
X716142Y521367
X720276Y525000
X757480Y582874
X615748Y562008
X602362Y566929
X584646Y563386
X557812Y565945
X553150Y567438
X557087Y572047
X545665Y555118
X516142
X502756Y550000
Y546063
X494094Y544487
Y548426
X481890Y544882
X475197Y559842
X470866Y566541
X487205Y527756
Y523425
X491535
Y527756
X495866
Y523425
X500197
X504528
Y527756
X500197
X508858
Y523425
X510629Y505511
X515354Y505512
X507307Y503150
X504433Y506505
X483268Y500000
X480709Y487362
X477953Y513779
X605512Y536221
X438779Y544980
X426673Y565945
X404528
X380906Y563583
X377953Y567438
X342913Y561024
X349410Y502441
X355512Y503543
X360433Y500394
X312598Y488189
X316142Y481890
X321457Y469449
X312205Y483465
X308268Y489764
X309449Y494291
X310827Y498622
X239960Y501181
X209055Y496457
T02
X664961Y280512
X650197Y304528
X711417Y304941
X718504Y249803
X745079Y222244
X569685Y252165
X562598Y272047
X541732Y289173
Y294340
Y299508
Y304675
Y309842
X504134Y302165
X506496Y261811
Y215551
X247441Y300000
X240748Y328740
Y404134
X206102Y418504
X212205Y458465
X289173Y465748
X300000Y423032
Y404134
X300197Y352756
X376378
Y404134
X392520Y437992
X397849Y438400
X377953Y463779
X357480Y463779
X360629Y459842
X357480Y455905
X441929Y435118
X446457Y399213
X422047Y360496
X493307
X513189Y369748
X512205Y348425
X494882Y327756
X489239
X483596
X477953
X564350Y328543
X570669Y330118
Y325590
X574213Y333661
X577756Y337008
X581890Y330118
X590551Y346063
Y350787
Y355512
Y360236
Y364961
X604921Y314370
X559252Y456496
X562400Y464369
X499606Y421260
X473622Y429626
X672835Y387795
X701929Y349606
X638779Y348425
X740551Y389764
X735039Y423425
X719398Y440945
X707677Y459055
X740551Y451575
X743307Y474606
X743701Y514961
X724213Y530709
Y535958
Y541207
Y546457
X714961Y530709
X714567Y501673
X709842
X705118
X700394
X695866Y492717
X692659Y540026
Y544423
Y548819
X687205Y549016
Y544619
Y540223
Y535827
X683465Y542520
X651575Y542717
X647835Y540617
Y536221
Y545013
Y549409
X642913Y549409
Y545013
X627953Y551050
Y556299
X643937Y570276
X737008Y577756
X613583Y556496
Y551247
Y545997
Y540748
X599016Y540551
Y545800
Y551050
Y556299
X581496
Y551050
Y545800
Y540551
X568110Y519488
Y514370
X571654Y494980
X545669Y510236
X540263Y519291
Y523688
Y528084
Y532480
X534971Y532546
Y528150
Y523753
Y519357
X529679
Y523753
Y528150
Y532546
X524387Y532480
Y528084
Y523688
Y519291
X519095
Y523688
Y528084
Y532480
X515354Y525984
X522516Y512992
X519685Y486811
X510827Y486024
X499606Y485827
X477165Y519095
X476968Y523491
Y527887
Y532283
X469882Y532283
Y527887
Y523491
Y519095
X481299Y525591
X609055Y470945
X463386Y511417
X465453Y519095
Y523491
Y527887
Y532283
X461024
Y527887
Y523491
Y519095
X447047Y511417
X438583Y517323
Y525591
X436614Y567126
X446850Y563386
X450197Y566535
X391929Y572047
X366929Y560039
X380433Y542126
X342677Y567913
X376181Y474213
X376969Y469095
X406693Y489764
X288189Y480276
X284252Y483858
X281102Y487008
X269685Y532480
X280433Y550197
X209842Y502565
X206890Y489370
T03
X365551Y294842
X433071Y481890
T04
X547244Y319685
X626968Y495079
X634842
X464567Y492126
X456693
T05
X533937Y430118
X543937Y440118
X553937Y430118
T06
X322835Y350394
X342520
X730315Y527887
T07
X783465Y308425
X773465
X731929Y219646
Y209646
X721929
X711929
X701929
X691929
X681929
X671929
X661929
X651929
X641929
Y219646
X651929
X661929
X671929
X681929
X691929
X701929
X711929
X721929
X619567Y219134
X609567
X599567
X589567
X579567
X569567
X559567
X549567
Y209134
X559567
X569567
X579567
X589567
X599567
X609567
X619567
X462598Y349063
X452598
X456693Y389606
Y399606
Y409606
Y419606
Y429606
Y439606
X484646
X494646
X504646
X503937Y405512
X513937
X523937
X533937
X543937
X553937
X563937
X573937
X583937
X593937
X603937
X613937
X623937
X539528Y364173
X529528
X633937Y405512
X643937
X653937
X724016Y449331
Y459331
X773465Y462441
Y452441
Y442441
Y432441
Y378425
Y368425
Y358425
Y348425
Y338425
Y328425
Y318425
X783465
Y328425
Y338425
Y348425
Y358425
Y368425
Y378425
Y432441
Y442441
Y452441
Y462441
Y472441
Y482441
Y492441
Y502441
X773465
Y492441
Y482441
Y472441
X724016Y469331
Y479331
X720630Y586614
X710630
X700630
X679567Y586811
X669567
X659567
X649567
X622323Y586221
X612323
X592953
X582953
X515748Y586614
X505748
X484252
X474252
X419449
X409449
X399449
X372287
X362287
X352287
X320197Y586811
X310197
X300197
X290197
X260433Y586221
X250433
T08
X712224Y264764
X775591Y211417
X579724Y275590
X218140Y206693
X725591Y321654
X787361Y568110
X589567Y470945
X208661Y569291
T09
X320433Y272638
Y282638
X330433
X340433
X350433
X360433
Y272638
X350433
X340433
X330433
X370433
Y282638
X380433
Y272638
X390433
Y282638
X310433
X300433
X290433
Y272638
X300433
X310433
X280433
Y282638
X270433
Y272638
X260433
X250433
X240433
X230433
X220433
X210433
Y282638
X220433
X230433
X240433
X250433
X260433
X320433Y512795
X330433
X340433
X350433
X360433
X370433
X380433
Y522795
X390433
Y512795
X370433Y522795
X360433
X350433
X340433
X330433
X320433
X310433
Y512795
X300433
X290433
X280433
X270433
Y522795
X260433
X250433
X240433
X230433
X220433
X210433
Y512795
X220433
X230433
X240433
X250433
X260433
X280433Y522795
X290433
X300433
T10
X320866Y226378
X331772
X342677
X348130Y237559
X337224
X326319
X315413
X304508
X309961Y226378
T11
X327756Y369094
X337598
X332677Y475394
T12
X482283Y211299
X468504
T13
X777559Y281496
X482283
X438976Y226772
X421260Y238583
X482283Y405512
X777559
T14
X759213Y246850
X421260Y214961
X236850Y246850
X759213Y548425
X236850
T16
X375610Y231968
X277028
M30
