G04*
G04 #@! TF.GenerationSoftware,Altium Limited,Altium Designer,19.0.10 (269)*
G04*
G04 Layer_Color=32896*
%FSLAX25Y25*%
%MOIN*%
G70*
G01*
G75*
%ADD10C,0.01000*%
%ADD11C,0.00984*%
%ADD13C,0.00500*%
%ADD14C,0.00787*%
%ADD16C,0.00709*%
%ADD18C,0.01181*%
%ADD20C,0.01378*%
%ADD21R,0.01575X0.05118*%
%ADD171R,0.05118X0.01575*%
G36*
X476181Y244094D02*
X469291Y237205D01*
Y250984D01*
X469291D01*
X476181Y244094D01*
D02*
G37*
D10*
X476181Y237205D02*
Y250984D01*
D11*
X703209Y476457D02*
X702470Y476883D01*
Y476030D01*
X703209Y476457D01*
X488681Y564173D02*
X487943Y564599D01*
Y563747D01*
X488681Y564173D01*
X508169Y548032D02*
X507431Y548458D01*
Y547605D01*
X508169Y548032D01*
X711319Y453071D02*
X710581Y453497D01*
Y452645D01*
X711319Y453071D01*
X522933Y250787D02*
X522195Y251214D01*
Y250361D01*
X522933Y250787D01*
Y236024D02*
X522195Y236450D01*
Y235597D01*
X522933Y236024D01*
X561221Y400000D02*
X596850D01*
X632480Y213189D02*
X635827Y209842D01*
X632480Y213189D02*
Y224409D01*
X637795Y229724D01*
X422835Y253036D02*
X422385Y253261D01*
X421710Y253936D01*
Y249213D01*
X419146Y252811D02*
Y253036D01*
X418921Y253486D01*
X418696Y253711D01*
X418246Y253936D01*
X417346D01*
X416897Y253711D01*
X416672Y253486D01*
X416447Y253036D01*
Y252587D01*
X416672Y252137D01*
X417122Y251462D01*
X419371Y249213D01*
X416222D01*
X415165Y253936D02*
X413365Y249213D01*
X411566Y253936D02*
X413365Y249213D01*
X485236Y262007D02*
Y258071D01*
Y262007D02*
X483924D01*
X483362Y261820D01*
X482987Y261445D01*
X482799Y261070D01*
X482612Y260507D01*
Y259570D01*
X482799Y259008D01*
X482987Y258633D01*
X483362Y258258D01*
X483924Y258071D01*
X485236D01*
X481731Y261257D02*
X481356Y261445D01*
X480794Y262007D01*
Y258071D01*
D13*
X690100Y537795D02*
X695219D01*
X690100Y522047D02*
Y537795D01*
Y522047D02*
X695219D01*
Y537795D01*
X684646Y503543D02*
Y519291D01*
X679528Y503543D02*
X684646D01*
X679528D02*
Y519291D01*
X684646D01*
X750000Y484173D02*
X756299D01*
X750000Y497559D02*
X756299D01*
X517323Y488386D02*
Y493504D01*
Y488386D02*
X533071D01*
Y493504D01*
X517323D02*
X533071D01*
X513189Y488386D02*
Y493504D01*
X497441D02*
X513189D01*
X497441Y488386D02*
Y493504D01*
Y488386D02*
X513189D01*
X520366Y505118D02*
Y510236D01*
Y505118D02*
X536114D01*
Y510236D01*
X520366D02*
X536114D01*
X520366Y494291D02*
Y499409D01*
Y494291D02*
X536114D01*
Y499409D01*
X520366D02*
X536114D01*
X666240Y519882D02*
X671358D01*
X666240Y504134D02*
Y519882D01*
Y504134D02*
X671358D01*
Y519882D01*
X746850Y453853D02*
X753150D01*
X746850Y440467D02*
X753150D01*
X744882Y375787D02*
X751181D01*
X744882Y362402D02*
X751181D01*
X744882Y359055D02*
X751181D01*
X744882Y345669D02*
X751181D01*
X620866Y241929D02*
Y248228D01*
X607480Y241929D02*
Y248228D01*
X604134Y241929D02*
Y248228D01*
X590748Y241929D02*
Y248228D01*
D14*
X459724Y255591D02*
X486732D01*
X459724Y253169D02*
Y255591D01*
X486732Y253169D02*
Y255591D01*
X459724Y232598D02*
X486732D01*
Y235020D01*
X459724Y232598D02*
Y235020D01*
X709213Y487087D02*
Y489685D01*
X706004D02*
X709213D01*
Y478189D02*
Y480787D01*
X706004Y478189D02*
X709213D01*
X692618Y454724D02*
Y458661D01*
X687303Y454724D02*
Y458661D01*
X483661Y549803D02*
Y562402D01*
X466732Y549803D02*
X483661D01*
X466732D02*
Y562402D01*
X483661D01*
X512205Y549803D02*
X529134D01*
Y562402D01*
X512205D02*
X529134D01*
X512205Y549803D02*
Y562402D01*
X687303Y472441D02*
Y476378D01*
X692618Y472441D02*
Y476378D01*
X704331Y451339D02*
X707539D01*
X704331Y448740D02*
Y451339D01*
Y439843D02*
X707539D01*
X704331D02*
Y442441D01*
X526968Y252559D02*
X543898D01*
Y265158D01*
X526968D02*
X543898D01*
X526968Y252559D02*
Y265158D01*
Y237795D02*
X543898D01*
Y250394D01*
X526968D02*
X543898D01*
X526968Y237795D02*
Y250394D01*
D16*
X281890Y291929D02*
X283268D01*
Y293307D01*
X277559Y300394D02*
Y301575D01*
X278740D01*
X687008Y244882D02*
X688189D01*
Y229724D02*
Y244882D01*
X637795Y229724D02*
X688189D01*
X637795D02*
Y244882D01*
X687008D01*
X485601Y449100D02*
X485901Y448950D01*
X486201Y448650D01*
X486351Y448350D01*
Y447750D01*
X486201Y447450D01*
X485901Y447150D01*
X485601Y447000D01*
X485151Y446850D01*
X484402D01*
X483952Y447000D01*
X483652Y447150D01*
X483352Y447450D01*
X483202Y447750D01*
Y448350D01*
X483352Y448650D01*
X483652Y448950D01*
X483952Y449100D01*
X484402D01*
Y448350D02*
Y449100D01*
X486351Y449819D02*
X483202D01*
X486351D02*
X483202Y451919D01*
X486351D02*
X483202D01*
X486351Y452788D02*
X483202D01*
X486351D02*
Y453838D01*
X486201Y454288D01*
X485901Y454588D01*
X485601Y454738D01*
X485151Y454888D01*
X484402D01*
X483952Y454738D01*
X483652Y454588D01*
X483352Y454288D01*
X483202Y453838D01*
Y452788D01*
X620809Y226312D02*
X621109Y226012D01*
X621259Y225562D01*
Y224962D01*
X621109Y224513D01*
X620809Y224213D01*
X620509D01*
X620210Y224363D01*
X620060Y224513D01*
X619910Y224812D01*
X619610Y225712D01*
X619460Y226012D01*
X619310Y226162D01*
X619010Y226312D01*
X618560D01*
X618260Y226012D01*
X618110Y225562D01*
Y224962D01*
X618260Y224513D01*
X618560Y224213D01*
X621259Y227017D02*
X618110D01*
X621259D02*
Y228366D01*
X621109Y228816D01*
X620959Y228966D01*
X620659Y229116D01*
X620360D01*
X620060Y228966D01*
X619910Y228816D01*
X619760Y228366D01*
Y227017D01*
Y228066D02*
X618110Y229116D01*
X621259Y229821D02*
X618110Y231020D01*
X621259Y232220D02*
X618110Y231020D01*
X611417Y224213D02*
X608268D01*
X611417D02*
Y225562D01*
X611267Y226012D01*
X611117Y226162D01*
X610817Y226312D01*
X610517D01*
X610217Y226162D01*
X610067Y226012D01*
X609917Y225562D01*
Y224213D02*
Y225562D01*
X609767Y226012D01*
X609617Y226162D01*
X609317Y226312D01*
X608868D01*
X608568Y226162D01*
X608418Y226012D01*
X608268Y225562D01*
Y224213D01*
X611417Y227017D02*
X608268D01*
Y228816D01*
X601574Y224213D02*
X598425D01*
X601574D02*
Y225262D01*
X601424Y225712D01*
X601124Y226012D01*
X600824Y226162D01*
X600375Y226312D01*
X599625D01*
X599175Y226162D01*
X598875Y226012D01*
X598575Y225712D01*
X598425Y225262D01*
Y224213D01*
X601574Y229116D02*
X598425Y227616D01*
X601574Y227017D02*
Y229116D01*
X591535Y224213D02*
X588386D01*
X591535D02*
Y225262D01*
X591385Y225712D01*
X591085Y226012D01*
X590785Y226162D01*
X590335Y226312D01*
X589585D01*
X589136Y226162D01*
X588836Y226012D01*
X588536Y225712D01*
X588386Y225262D01*
Y224213D01*
X591085Y228816D02*
X591385Y228666D01*
X591535Y228216D01*
Y227916D01*
X591385Y227467D01*
X590935Y227167D01*
X590185Y227017D01*
X589435D01*
X588836Y227167D01*
X588536Y227467D01*
X588386Y227916D01*
Y228066D01*
X588536Y228516D01*
X588836Y228816D01*
X589286Y228966D01*
X589435D01*
X589885Y228816D01*
X590185Y228516D01*
X590335Y228066D01*
Y227916D01*
X590185Y227467D01*
X589885Y227167D01*
X589435Y227017D01*
X581298Y224213D02*
X578150D01*
X581298D02*
Y225262D01*
X581149Y225712D01*
X580849Y226012D01*
X580549Y226162D01*
X580099Y226312D01*
X579349D01*
X578899Y226162D01*
X578600Y226012D01*
X578300Y225712D01*
X578150Y225262D01*
Y224213D01*
X581298Y228816D02*
Y227317D01*
X579949Y227167D01*
X580099Y227317D01*
X580249Y227766D01*
Y228216D01*
X580099Y228666D01*
X579799Y228966D01*
X579349Y229116D01*
X579049D01*
X578600Y228966D01*
X578300Y228666D01*
X578150Y228216D01*
Y227766D01*
X578300Y227317D01*
X578449Y227167D01*
X578749Y227017D01*
X571653Y224213D02*
X568504D01*
X571653D02*
Y225262D01*
X571503Y225712D01*
X571203Y226012D01*
X570903Y226162D01*
X570453Y226312D01*
X569703D01*
X569254Y226162D01*
X568954Y226012D01*
X568654Y225712D01*
X568504Y225262D01*
Y224213D01*
X571653Y228516D02*
X569554Y227017D01*
Y229266D01*
X571653Y228516D02*
X568504D01*
X561614Y224213D02*
X558465D01*
X561614D02*
Y225562D01*
X561464Y226012D01*
X561314Y226162D01*
X561014Y226312D01*
X560714D01*
X560414Y226162D01*
X560264Y226012D01*
X560114Y225562D01*
Y224213D01*
Y225262D02*
X558465Y226312D01*
X561164Y229116D02*
X561464Y228816D01*
X561614Y228366D01*
Y227766D01*
X561464Y227317D01*
X561164Y227017D01*
X560864D01*
X560564Y227167D01*
X560414Y227317D01*
X560264Y227616D01*
X559964Y228516D01*
X559814Y228816D01*
X559664Y228966D01*
X559364Y229116D01*
X558914D01*
X558614Y228816D01*
X558465Y228366D01*
Y227766D01*
X558614Y227317D01*
X558914Y227017D01*
X551771Y226162D02*
Y224213D01*
X548622D01*
Y226162D01*
X550272Y224213D02*
Y225412D01*
X765224Y463723D02*
X765523Y464023D01*
X765973Y464173D01*
X766573D01*
X767023Y464023D01*
X767323Y463723D01*
Y463423D01*
X767173Y463123D01*
X767023Y462973D01*
X766723Y462823D01*
X765823Y462523D01*
X765523Y462373D01*
X765374Y462223D01*
X765224Y461923D01*
Y461474D01*
X765523Y461174D01*
X765973Y461024D01*
X766573D01*
X767023Y461174D01*
X767323Y461474D01*
X763469Y464173D02*
Y461024D01*
X764519Y464173D02*
X762420D01*
X762045Y462523D02*
X760695D01*
X760245Y462673D01*
X760095Y462823D01*
X759945Y463123D01*
Y463573D01*
X760095Y463873D01*
X760245Y464023D01*
X760695Y464173D01*
X762045D01*
Y461024D01*
X757291Y464173D02*
X759241D01*
Y461024D01*
X757291D01*
X759241Y462673D02*
X758041D01*
X756766Y464173D02*
Y461024D01*
Y464173D02*
X754667Y461024D01*
Y464173D02*
Y461024D01*
X767323Y474212D02*
Y471063D01*
X765523D01*
X765179Y474212D02*
Y471063D01*
X764519Y474212D02*
Y471063D01*
Y474212D02*
X763319Y471063D01*
X762120Y474212D02*
X763319Y471063D01*
X762120Y474212D02*
Y471063D01*
X761220Y474212D02*
Y471063D01*
X759420D01*
X767323Y483858D02*
Y480709D01*
X765523D01*
X765179Y483858D02*
Y480709D01*
X764519Y483858D02*
Y480709D01*
Y483858D02*
X763319Y480709D01*
X762120Y483858D02*
X763319Y480709D01*
X762120Y483858D02*
Y480709D01*
X761220Y483858D02*
Y480709D01*
Y483858D02*
X759870D01*
X759420Y483708D01*
X759271Y483558D01*
X759121Y483258D01*
Y482958D01*
X759271Y482658D01*
X759420Y482508D01*
X759870Y482358D01*
X761220D01*
X760170D02*
X759121Y480709D01*
X765224Y493250D02*
X765523Y493550D01*
X765973Y493700D01*
X766573D01*
X767023Y493550D01*
X767323Y493250D01*
Y492950D01*
X767173Y492651D01*
X767023Y492500D01*
X766723Y492351D01*
X765823Y492051D01*
X765523Y491901D01*
X765374Y491751D01*
X765224Y491451D01*
Y491001D01*
X765523Y490701D01*
X765973Y490551D01*
X766573D01*
X767023Y490701D01*
X767323Y491001D01*
X763469Y493700D02*
Y490551D01*
X764519Y493700D02*
X762420D01*
X762045Y492051D02*
X760695D01*
X760245Y492201D01*
X760095Y492351D01*
X759945Y492651D01*
Y493100D01*
X760095Y493400D01*
X760245Y493550D01*
X760695Y493700D01*
X762045D01*
Y490551D01*
X767323Y503936D02*
Y500787D01*
Y503936D02*
X766273D01*
X765823Y503786D01*
X765523Y503486D01*
X765374Y503187D01*
X765224Y502737D01*
Y501987D01*
X765374Y501537D01*
X765523Y501237D01*
X765823Y500937D01*
X766273Y500787D01*
X767323D01*
X764519Y503936D02*
Y500787D01*
X763859Y503936D02*
Y500787D01*
Y503936D02*
X762509D01*
X762060Y503786D01*
X761910Y503636D01*
X761760Y503336D01*
Y503037D01*
X761910Y502737D01*
X762060Y502587D01*
X762509Y502437D01*
X763859D01*
X762809D02*
X761760Y500787D01*
X767323Y454133D02*
Y450984D01*
Y454133D02*
X765224Y450984D01*
Y454133D02*
Y450984D01*
X762105Y453383D02*
X762255Y453683D01*
X762554Y453983D01*
X762854Y454133D01*
X763454D01*
X763754Y453983D01*
X764054Y453683D01*
X764204Y453383D01*
X764354Y452934D01*
Y452184D01*
X764204Y451734D01*
X764054Y451434D01*
X763754Y451134D01*
X763454Y450984D01*
X762854D01*
X762554Y451134D01*
X762255Y451434D01*
X762105Y451734D01*
X765074Y443147D02*
X765224Y443447D01*
X765523Y443747D01*
X765823Y443897D01*
X766423D01*
X766723Y443747D01*
X767023Y443447D01*
X767173Y443147D01*
X767323Y442697D01*
Y441948D01*
X767173Y441498D01*
X767023Y441198D01*
X766723Y440898D01*
X766423Y440748D01*
X765823D01*
X765523Y440898D01*
X765224Y441198D01*
X765074Y441498D01*
X761790Y440748D02*
X762989Y443897D01*
X764189Y440748D01*
X763739Y441798D02*
X762240D01*
X761055Y443897D02*
Y440748D01*
Y443897D02*
X758956Y440748D01*
Y443897D02*
Y440748D01*
X758086Y443897D02*
Y440748D01*
Y443897D02*
X756736D01*
X756287Y443747D01*
X756137Y443597D01*
X755987Y443297D01*
Y442997D01*
X756137Y442697D01*
X756287Y442547D01*
X756736Y442397D01*
X758086D01*
X757036D02*
X755987Y440748D01*
X755282Y443897D02*
X753183Y440748D01*
Y443897D02*
X755282Y440748D01*
X765074Y432911D02*
X765224Y433211D01*
X765523Y433511D01*
X765823Y433661D01*
X766423D01*
X766723Y433511D01*
X767023Y433211D01*
X767173Y432911D01*
X767323Y432461D01*
Y431711D01*
X767173Y431262D01*
X767023Y430962D01*
X766723Y430662D01*
X766423Y430512D01*
X765823D01*
X765523Y430662D01*
X765224Y430962D01*
X765074Y431262D01*
X761790Y430512D02*
X762989Y433661D01*
X764189Y430512D01*
X763739Y431562D02*
X762240D01*
X761055Y433661D02*
Y430512D01*
Y433661D02*
X758956Y430512D01*
Y433661D02*
Y430512D01*
X757036Y433661D02*
Y430512D01*
X758086Y433661D02*
X755987D01*
X755612D02*
X753512Y430512D01*
Y433661D02*
X755612Y430512D01*
X300318Y570669D02*
Y572019D01*
X300468Y572469D01*
X300618Y572619D01*
X300918Y572769D01*
X301368D01*
X301668Y572619D01*
X301818Y572469D01*
X301968Y572019D01*
Y570669D01*
X298819D01*
X301218Y575723D02*
X301518Y575573D01*
X301818Y575273D01*
X301968Y574973D01*
Y574373D01*
X301818Y574073D01*
X301518Y573773D01*
X301218Y573623D01*
X300768Y573473D01*
X300019D01*
X299569Y573623D01*
X299269Y573773D01*
X298969Y574073D01*
X298819Y574373D01*
Y574973D01*
X298969Y575273D01*
X299269Y575573D01*
X299569Y575723D01*
X301968Y578707D02*
X298819Y577207D01*
X301968Y576607D02*
Y578707D01*
X310161Y570866D02*
Y572216D01*
X310311Y572666D01*
X310461Y572816D01*
X310761Y572965D01*
X311211D01*
X311510Y572816D01*
X311660Y572666D01*
X311810Y572216D01*
Y570866D01*
X308661D01*
X311061Y575919D02*
X311361Y575770D01*
X311660Y575470D01*
X311810Y575170D01*
Y574570D01*
X311660Y574270D01*
X311361Y573970D01*
X311061Y573820D01*
X310611Y573670D01*
X309861D01*
X309411Y573820D01*
X309111Y573970D01*
X308811Y574270D01*
X308661Y574570D01*
Y575170D01*
X308811Y575470D01*
X309111Y575770D01*
X309411Y575919D01*
X311211Y576804D02*
X311361Y577104D01*
X311810Y577554D01*
X308661D01*
X311810Y580613D02*
X309711Y579113D01*
Y581363D01*
X311810Y580613D02*
X308661D01*
X655511Y411024D02*
X652362D01*
X655511D02*
Y412373D01*
X655361Y412823D01*
X655211Y412973D01*
X654911Y413123D01*
X654611D01*
X654312Y412973D01*
X654162Y412823D01*
X654012Y412373D01*
Y411024D02*
Y412373D01*
X653862Y412823D01*
X653712Y412973D01*
X653412Y413123D01*
X652962D01*
X652662Y412973D01*
X652512Y412823D01*
X652362Y412373D01*
Y411024D01*
X655511Y413828D02*
X652362D01*
Y415627D01*
X635432Y411024D02*
X632283D01*
X635432D02*
Y412073D01*
X635282Y412523D01*
X634982Y412823D01*
X634683Y412973D01*
X634233Y413123D01*
X633483D01*
X633033Y412973D01*
X632733Y412823D01*
X632433Y412523D01*
X632283Y412073D01*
Y411024D01*
X635432Y415927D02*
X632283Y414428D01*
X635432Y413828D02*
Y415927D01*
X625590Y411024D02*
X622441D01*
X625590D02*
Y412073D01*
X625440Y412523D01*
X625140Y412823D01*
X624840Y412973D01*
X624390Y413123D01*
X623640D01*
X623191Y412973D01*
X622891Y412823D01*
X622591Y412523D01*
X622441Y412073D01*
Y411024D01*
X625140Y415627D02*
X625440Y415477D01*
X625590Y415027D01*
Y414727D01*
X625440Y414278D01*
X624990Y413978D01*
X624240Y413828D01*
X623491D01*
X622891Y413978D01*
X622591Y414278D01*
X622441Y414727D01*
Y414877D01*
X622591Y415327D01*
X622891Y415627D01*
X623341Y415777D01*
X623491D01*
X623940Y415627D01*
X624240Y415327D01*
X624390Y414877D01*
Y414727D01*
X624240Y414278D01*
X623940Y413978D01*
X623491Y413828D01*
X615551Y411024D02*
X612402D01*
X615551D02*
Y412073D01*
X615401Y412523D01*
X615101Y412823D01*
X614801Y412973D01*
X614351Y413123D01*
X613601D01*
X613151Y412973D01*
X612851Y412823D01*
X612551Y412523D01*
X612402Y412073D01*
Y411024D01*
X615551Y415627D02*
Y414128D01*
X614201Y413978D01*
X614351Y414128D01*
X614501Y414577D01*
Y415027D01*
X614351Y415477D01*
X614051Y415777D01*
X613601Y415927D01*
X613301D01*
X612851Y415777D01*
X612551Y415477D01*
X612402Y415027D01*
Y414577D01*
X612551Y414128D01*
X612702Y413978D01*
X613001Y413828D01*
X605708Y411024D02*
X602559D01*
X605708D02*
Y412073D01*
X605558Y412523D01*
X605258Y412823D01*
X604958Y412973D01*
X604508Y413123D01*
X603759D01*
X603309Y412973D01*
X603009Y412823D01*
X602709Y412523D01*
X602559Y412073D01*
Y411024D01*
X605708Y415327D02*
X603609Y413828D01*
Y416077D01*
X605708Y415327D02*
X602559D01*
X581102Y414369D02*
Y411221D01*
Y414369D02*
X579003Y411221D01*
Y414369D02*
Y411221D01*
X575884Y413620D02*
X576034Y413920D01*
X576334Y414220D01*
X576634Y414369D01*
X577234D01*
X577534Y414220D01*
X577834Y413920D01*
X577983Y413620D01*
X578133Y413170D01*
Y412420D01*
X577983Y411970D01*
X577834Y411670D01*
X577534Y411370D01*
X577234Y411221D01*
X576634D01*
X576334Y411370D01*
X576034Y411670D01*
X575884Y411970D01*
X535629Y395276D02*
X532480D01*
X535629D02*
Y396625D01*
X535479Y397075D01*
X535329Y397225D01*
X535029Y397375D01*
X534730D01*
X534430Y397225D01*
X534280Y397075D01*
X534130Y396625D01*
Y395276D01*
Y396325D02*
X532480Y397375D01*
X535179Y400179D02*
X535479Y399879D01*
X535629Y399429D01*
Y398829D01*
X535479Y398379D01*
X535179Y398080D01*
X534879D01*
X534580Y398230D01*
X534430Y398379D01*
X534280Y398679D01*
X533980Y399579D01*
X533830Y399879D01*
X533680Y400029D01*
X533380Y400179D01*
X532930D01*
X532630Y399879D01*
X532480Y399429D01*
Y398829D01*
X532630Y398379D01*
X532930Y398080D01*
X555511Y400768D02*
Y398819D01*
X552362D01*
Y400768D01*
X554012Y398819D02*
Y400019D01*
X524446Y378824D02*
X524746Y378674D01*
X525046Y378374D01*
X525196Y378074D01*
Y377474D01*
X525046Y377175D01*
X524746Y376875D01*
X524446Y376725D01*
X523997Y376575D01*
X523247D01*
X522797Y376725D01*
X522497Y376875D01*
X522197Y377175D01*
X522047Y377474D01*
Y378074D01*
X522197Y378374D01*
X522497Y378674D01*
X522797Y378824D01*
X525196Y380608D02*
X525046Y380309D01*
X524746Y380009D01*
X524446Y379859D01*
X523997Y379709D01*
X523247D01*
X522797Y379859D01*
X522497Y380009D01*
X522197Y380309D01*
X522047Y380608D01*
Y381208D01*
X522197Y381508D01*
X522497Y381808D01*
X522797Y381958D01*
X523247Y382108D01*
X523997D01*
X524446Y381958D01*
X524746Y381808D01*
X525046Y381508D01*
X525196Y381208D01*
Y380608D01*
Y382843D02*
X522047D01*
X525196D02*
X522047Y384942D01*
X525196D02*
X522047D01*
X525196Y386861D02*
X522047D01*
X525196Y385812D02*
Y387911D01*
Y388286D02*
X522047D01*
X525196D02*
Y389635D01*
X525046Y390085D01*
X524896Y390235D01*
X524596Y390385D01*
X524297D01*
X523997Y390235D01*
X523847Y390085D01*
X523697Y389635D01*
Y388286D01*
Y389335D02*
X522047Y390385D01*
Y393489D02*
X525196Y392289D01*
X522047Y391090D01*
X523097Y391540D02*
Y393039D01*
X524746Y396323D02*
X525046Y396023D01*
X525196Y395573D01*
Y394974D01*
X525046Y394524D01*
X524746Y394224D01*
X524446D01*
X524147Y394374D01*
X523997Y394524D01*
X523847Y394824D01*
X523547Y395723D01*
X523397Y396023D01*
X523247Y396173D01*
X522947Y396323D01*
X522497D01*
X522197Y396023D01*
X522047Y395573D01*
Y394974D01*
X522197Y394524D01*
X522497Y394224D01*
X525196Y398078D02*
X522047D01*
X525196Y397028D02*
Y399127D01*
X460667Y206693D02*
X460854Y207068D01*
X461416Y207630D01*
X457480D01*
X460479Y209767D02*
X460667D01*
X461042Y209954D01*
X461229Y210142D01*
X461416Y210517D01*
Y211266D01*
X461229Y211641D01*
X461042Y211829D01*
X460667Y212016D01*
X460292D01*
X459917Y211829D01*
X459355Y211454D01*
X457480Y209579D01*
Y212204D01*
X461416Y213085D02*
X457480Y214584D01*
X461416Y216084D02*
X457480Y214584D01*
X715842Y204527D02*
X714192D01*
X715092Y203327D01*
X714642D01*
X714342Y203177D01*
X714192Y203027D01*
X714042Y202577D01*
Y202278D01*
X714192Y201828D01*
X714492Y201528D01*
X714942Y201378D01*
X715392D01*
X715842Y201528D01*
X715992Y201678D01*
X716142Y201978D01*
X713338Y204527D02*
X712138Y201378D01*
X710939Y204527D02*
X712138Y201378D01*
X710234Y204527D02*
X708584D01*
X709484Y203327D01*
X709034D01*
X708734Y203177D01*
X708584Y203027D01*
X708434Y202577D01*
Y202278D01*
X708584Y201828D01*
X708884Y201528D01*
X709334Y201378D01*
X709784D01*
X710234Y201528D01*
X710384Y201678D01*
X710534Y201978D01*
X727531Y204527D02*
X729031D01*
X729181Y203177D01*
X729031Y203327D01*
X728581Y203477D01*
X728131D01*
X727681Y203327D01*
X727381Y203027D01*
X727231Y202577D01*
Y202278D01*
X727381Y201828D01*
X727681Y201528D01*
X728131Y201378D01*
X728581D01*
X729031Y201528D01*
X729181Y201678D01*
X729331Y201978D01*
X726527Y204527D02*
X725327Y201378D01*
X724127Y204527D02*
X725327Y201378D01*
X703486Y226288D02*
X703786Y226138D01*
X703936Y225688D01*
Y225388D01*
X703786Y224938D01*
X703336Y224638D01*
X702587Y224488D01*
X701837D01*
X701237Y224638D01*
X700937Y224938D01*
X700787Y225388D01*
Y225538D01*
X700937Y225988D01*
X701237Y226288D01*
X701687Y226437D01*
X701837D01*
X702287Y226288D01*
X702587Y225988D01*
X702737Y225538D01*
Y225388D01*
X702587Y224938D01*
X702287Y224638D01*
X701837Y224488D01*
X693897Y226288D02*
Y224788D01*
X692547Y224638D01*
X692697Y224788D01*
X692847Y225238D01*
Y225688D01*
X692697Y226138D01*
X692397Y226437D01*
X691948Y226588D01*
X691648D01*
X691198Y226437D01*
X690898Y226138D01*
X690748Y225688D01*
Y225238D01*
X690898Y224788D01*
X691048Y224638D01*
X691348Y224488D01*
X684251Y225988D02*
X682152Y224488D01*
Y226737D01*
X684251Y225988D02*
X681102D01*
X674015Y224788D02*
Y226437D01*
X672816Y225538D01*
Y225988D01*
X672666Y226288D01*
X672516Y226437D01*
X672066Y226588D01*
X671766D01*
X671316Y226437D01*
X671016Y226138D01*
X670866Y225688D01*
Y225238D01*
X671016Y224788D01*
X671166Y224638D01*
X671466Y224488D01*
X663029Y224638D02*
X663179D01*
X663479Y224788D01*
X663629Y224938D01*
X663779Y225238D01*
Y225838D01*
X663629Y226138D01*
X663479Y226288D01*
X663179Y226437D01*
X662879D01*
X662579Y226288D01*
X662129Y225988D01*
X660630Y224488D01*
Y226588D01*
X653533Y225013D02*
X653683Y225313D01*
X654133Y225763D01*
X650984D01*
X643503Y225388D02*
X643353Y224938D01*
X642904Y224638D01*
X642154Y224488D01*
X641704D01*
X640954Y224638D01*
X640504Y224938D01*
X640354Y225388D01*
Y225688D01*
X640504Y226138D01*
X640954Y226437D01*
X641704Y226588D01*
X642154D01*
X642904Y226437D01*
X643353Y226138D01*
X643503Y225688D01*
Y225388D01*
X684589Y235761D02*
X684889Y235461D01*
X685039Y235011D01*
Y234411D01*
X684889Y233961D01*
X684589Y233661D01*
X684289D01*
X683989Y233811D01*
X683839Y233961D01*
X683689Y234261D01*
X683389Y235161D01*
X683239Y235461D01*
X683089Y235611D01*
X682790Y235761D01*
X682340D01*
X682040Y235461D01*
X681890Y235011D01*
Y234411D01*
X682040Y233961D01*
X682340Y233661D01*
X684589Y238565D02*
X684889Y238265D01*
X685039Y237815D01*
Y237215D01*
X684889Y236765D01*
X684589Y236466D01*
X684289D01*
X683989Y236615D01*
X683839Y236765D01*
X683689Y237065D01*
X683389Y237965D01*
X683239Y238265D01*
X683089Y238415D01*
X682790Y238565D01*
X682340D01*
X682040Y238265D01*
X681890Y237815D01*
Y237215D01*
X682040Y236765D01*
X682340Y236466D01*
X678149Y231496D02*
X675000D01*
X678149D02*
X675000Y232696D01*
X678149Y233895D02*
X675000Y232696D01*
X678149Y233895D02*
X675000D01*
X678149Y235695D02*
X677999Y235395D01*
X677699Y235095D01*
X677399Y234945D01*
X676949Y234795D01*
X676200D01*
X675750Y234945D01*
X675450Y235095D01*
X675150Y235395D01*
X675000Y235695D01*
Y236294D01*
X675150Y236594D01*
X675450Y236894D01*
X675750Y237044D01*
X676200Y237194D01*
X676949D01*
X677399Y237044D01*
X677699Y236894D01*
X677999Y236594D01*
X678149Y236294D01*
Y235695D01*
X677699Y240028D02*
X677999Y239728D01*
X678149Y239278D01*
Y238679D01*
X677999Y238229D01*
X677699Y237929D01*
X677399D01*
X677099Y238079D01*
X676949Y238229D01*
X676799Y238529D01*
X676500Y239428D01*
X676349Y239728D01*
X676200Y239878D01*
X675900Y240028D01*
X675450D01*
X675150Y239728D01*
X675000Y239278D01*
Y238679D01*
X675150Y238229D01*
X675450Y237929D01*
X678149Y240733D02*
X675000D01*
X671259Y231496D02*
X668110D01*
X671259D02*
X668110Y232696D01*
X671259Y233895D02*
X668110Y232696D01*
X671259Y233895D02*
X668110D01*
X671259Y234795D02*
X668110D01*
X670809Y237554D02*
X671109Y237254D01*
X671259Y236804D01*
Y236205D01*
X671109Y235755D01*
X670809Y235455D01*
X670509D01*
X670210Y235605D01*
X670060Y235755D01*
X669910Y236054D01*
X669610Y236954D01*
X669460Y237254D01*
X669310Y237404D01*
X669010Y237554D01*
X668560D01*
X668260Y237254D01*
X668110Y236804D01*
Y236205D01*
X668260Y235755D01*
X668560Y235455D01*
X671259Y239159D02*
X671109Y238859D01*
X670809Y238559D01*
X670509Y238409D01*
X670060Y238259D01*
X669310D01*
X668860Y238409D01*
X668560Y238559D01*
X668260Y238859D01*
X668110Y239159D01*
Y239758D01*
X668260Y240058D01*
X668560Y240358D01*
X668860Y240508D01*
X669310Y240658D01*
X670060D01*
X670509Y240508D01*
X670809Y240358D01*
X671109Y240058D01*
X671259Y239758D01*
Y239159D01*
X664369Y233071D02*
X661221D01*
X664369D02*
Y234420D01*
X664219Y234870D01*
X664070Y235020D01*
X663770Y235170D01*
X663470D01*
X663170Y235020D01*
X663020Y234870D01*
X662870Y234420D01*
Y233071D01*
Y234120D02*
X661221Y235170D01*
X663919Y237974D02*
X664219Y237674D01*
X664369Y237225D01*
Y236625D01*
X664219Y236175D01*
X663919Y235875D01*
X663620D01*
X663320Y236025D01*
X663170Y236175D01*
X663020Y236475D01*
X662720Y237374D01*
X662570Y237674D01*
X662420Y237824D01*
X662120Y237974D01*
X661670D01*
X661370Y237674D01*
X661221Y237225D01*
Y236625D01*
X661370Y236175D01*
X661670Y235875D01*
X664369Y239729D02*
X661221D01*
X664369Y238679D02*
Y240778D01*
X655830Y231496D02*
Y232846D01*
X655980Y233295D01*
X656130Y233445D01*
X656430Y233595D01*
X656880D01*
X657180Y233445D01*
X657330Y233295D01*
X657480Y232846D01*
Y231496D01*
X654331D01*
X656730Y236549D02*
X657030Y236399D01*
X657330Y236100D01*
X657480Y235800D01*
Y235200D01*
X657330Y234900D01*
X657030Y234600D01*
X656730Y234450D01*
X656280Y234300D01*
X655530D01*
X655081Y234450D01*
X654781Y234600D01*
X654481Y234900D01*
X654331Y235200D01*
Y235800D01*
X654481Y236100D01*
X654781Y236399D01*
X655081Y236549D01*
X656880Y237434D02*
X657030Y237734D01*
X657480Y238184D01*
X654331D01*
X657480Y240043D02*
Y241693D01*
X656280Y240793D01*
Y241243D01*
X656130Y241543D01*
X655980Y241693D01*
X655530Y241843D01*
X655230D01*
X654781Y241693D01*
X654481Y241393D01*
X654331Y240943D01*
Y240493D01*
X654481Y240043D01*
X654631Y239893D01*
X654930Y239743D01*
X650140Y234580D02*
X650440Y234280D01*
X650590Y233830D01*
Y233230D01*
X650440Y232780D01*
X650140Y232480D01*
X649840D01*
X649540Y232630D01*
X649390Y232780D01*
X649240Y233080D01*
X648940Y233980D01*
X648791Y234280D01*
X648640Y234430D01*
X648341Y234580D01*
X647891D01*
X647591Y234280D01*
X647441Y233830D01*
Y233230D01*
X647591Y232780D01*
X647891Y232480D01*
X650590Y235284D02*
X647441D01*
X650590D02*
Y236334D01*
X650440Y236784D01*
X650140Y237084D01*
X649840Y237234D01*
X649390Y237384D01*
X648640D01*
X648191Y237234D01*
X647891Y237084D01*
X647591Y236784D01*
X647441Y236334D01*
Y235284D01*
Y240488D02*
X650590Y239288D01*
X647441Y238088D01*
X648491Y238538D02*
Y240038D01*
X643250Y235170D02*
X643550Y234870D01*
X643700Y234420D01*
Y233821D01*
X643550Y233371D01*
X643250Y233071D01*
X642950D01*
X642651Y233221D01*
X642500Y233371D01*
X642351Y233671D01*
X642051Y234570D01*
X641901Y234870D01*
X641751Y235020D01*
X641451Y235170D01*
X641001D01*
X640701Y234870D01*
X640551Y234420D01*
Y233821D01*
X640701Y233371D01*
X641001Y233071D01*
X642950Y238124D02*
X643250Y237974D01*
X643550Y237674D01*
X643700Y237374D01*
Y236775D01*
X643550Y236475D01*
X643250Y236175D01*
X642950Y236025D01*
X642500Y235875D01*
X641751D01*
X641301Y236025D01*
X641001Y236175D01*
X640701Y236475D01*
X640551Y236775D01*
Y237374D01*
X640701Y237674D01*
X641001Y237974D01*
X641301Y238124D01*
X643700Y239009D02*
X640551D01*
Y240808D01*
X713582Y226588D02*
X710433Y225088D01*
X713582Y224488D02*
Y226588D01*
X768701Y379724D02*
Y376575D01*
Y379724D02*
X766602Y376575D01*
Y379724D02*
Y376575D01*
X763483Y378974D02*
X763632Y379274D01*
X763932Y379574D01*
X764232Y379724D01*
X764832D01*
X765132Y379574D01*
X765432Y379274D01*
X765582Y378974D01*
X765732Y378524D01*
Y377774D01*
X765582Y377325D01*
X765432Y377025D01*
X765132Y376725D01*
X764832Y376575D01*
X764232D01*
X763932Y376725D01*
X763632Y377025D01*
X763483Y377325D01*
X768701Y370078D02*
Y366929D01*
Y370078D02*
X766602Y366929D01*
Y370078D02*
Y366929D01*
X763483Y369328D02*
X763632Y369628D01*
X763932Y369928D01*
X764232Y370078D01*
X764832D01*
X765132Y369928D01*
X765432Y369628D01*
X765582Y369328D01*
X765732Y368879D01*
Y368129D01*
X765582Y367679D01*
X765432Y367379D01*
X765132Y367079D01*
X764832Y366929D01*
X764232D01*
X763932Y367079D01*
X763632Y367379D01*
X763483Y367679D01*
X766751Y359842D02*
X768701D01*
Y356693D01*
X766751D01*
X768701Y358342D02*
X767501D01*
X766227Y359842D02*
Y356693D01*
Y359842D02*
X764127Y356693D01*
Y359842D02*
Y356693D01*
X763258Y359842D02*
Y356693D01*
Y359842D02*
X761908D01*
X761458Y359692D01*
X761308Y359542D01*
X761158Y359242D01*
Y358942D01*
X761308Y358642D01*
X761458Y358492D01*
X761908Y358342D01*
X763258D02*
X761908D01*
X761458Y358192D01*
X761308Y358043D01*
X761158Y357743D01*
Y357293D01*
X761308Y356993D01*
X761458Y356843D01*
X761908Y356693D01*
X763258D01*
X766751Y349802D02*
X768701D01*
Y346654D01*
X766751D01*
X768701Y348303D02*
X767501D01*
X766227Y349802D02*
Y346654D01*
Y349802D02*
X764127Y346654D01*
Y349802D02*
Y346654D01*
X760858D02*
X762058Y349802D01*
X763258Y346654D01*
X762808Y347703D02*
X761308D01*
X768701Y338114D02*
X767351D01*
X766901Y338264D01*
X766751Y338414D01*
X766602Y338714D01*
Y339163D01*
X766751Y339463D01*
X766901Y339613D01*
X767351Y339763D01*
X768701D01*
Y336614D01*
X765897Y339763D02*
Y336614D01*
X763798Y339763D02*
Y336614D01*
X765897Y338264D02*
X763798D01*
X762928Y339763D02*
Y336614D01*
Y339763D02*
X761578D01*
X761128Y339613D01*
X760978Y339463D01*
X760828Y339163D01*
Y338863D01*
X760978Y338563D01*
X761128Y338414D01*
X761578Y338264D01*
X762928D02*
X761578D01*
X761128Y338114D01*
X760978Y337964D01*
X760828Y337664D01*
Y337214D01*
X760978Y336914D01*
X761128Y336764D01*
X761578Y336614D01*
X762928D01*
X768701Y327681D02*
X767351D01*
X766901Y327831D01*
X766751Y327980D01*
X766602Y328280D01*
Y328730D01*
X766751Y329030D01*
X766901Y329180D01*
X767351Y329330D01*
X768701D01*
Y326181D01*
X765897Y329330D02*
Y326181D01*
X763798Y329330D02*
Y326181D01*
X765897Y327831D02*
X763798D01*
X760529Y326181D02*
X761728Y329330D01*
X762928Y326181D01*
X762478Y327231D02*
X760978D01*
X766751Y320275D02*
X768701D01*
Y317126D01*
X766751D01*
X768701Y318775D02*
X767501D01*
X766227Y320275D02*
Y317126D01*
Y320275D02*
X764127Y317126D01*
Y320275D02*
Y317126D01*
X761008Y319525D02*
X761158Y319825D01*
X761458Y320125D01*
X761758Y320275D01*
X762358D01*
X762658Y320125D01*
X762958Y319825D01*
X763108Y319525D01*
X763258Y319075D01*
Y318326D01*
X763108Y317876D01*
X762958Y317576D01*
X762658Y317276D01*
X762358Y317126D01*
X761758D01*
X761458Y317276D01*
X761158Y317576D01*
X761008Y317876D01*
X760124Y320275D02*
Y317126D01*
Y320275D02*
X758774D01*
X758324Y320125D01*
X758174Y319975D01*
X758024Y319675D01*
Y319375D01*
X758174Y319075D01*
X758324Y318925D01*
X758774Y318775D01*
X760124D01*
X759074D02*
X758024Y317126D01*
X766751Y309842D02*
X768701D01*
Y306693D01*
X766751D01*
X768701Y308342D02*
X767501D01*
X766227Y309842D02*
Y306693D01*
Y309842D02*
X764127Y306693D01*
Y309842D02*
Y306693D01*
X761008Y309092D02*
X761158Y309392D01*
X761458Y309692D01*
X761758Y309842D01*
X762358D01*
X762658Y309692D01*
X762958Y309392D01*
X763108Y309092D01*
X763258Y308642D01*
Y307892D01*
X763108Y307443D01*
X762958Y307143D01*
X762658Y306843D01*
X762358Y306693D01*
X761758D01*
X761458Y306843D01*
X761158Y307143D01*
X761008Y307443D01*
X760124Y309842D02*
Y306693D01*
X758324D01*
X372440Y255512D02*
X369291Y256711D01*
X372440Y257911D02*
X369291Y256711D01*
X372440Y258316D02*
X369291D01*
X372440D02*
Y259665D01*
X372290Y260115D01*
X372140Y260265D01*
X371841Y260415D01*
X371541D01*
X371241Y260265D01*
X371091Y260115D01*
X370941Y259665D01*
Y258316D02*
Y259665D01*
X370791Y260115D01*
X370641Y260265D01*
X370341Y260415D01*
X369891D01*
X369591Y260265D01*
X369441Y260115D01*
X369291Y259665D01*
Y258316D01*
Y263519D02*
X372440Y262319D01*
X369291Y261120D01*
X370341Y261570D02*
Y263069D01*
X372440Y265303D02*
X369291D01*
X372440Y264254D02*
Y266353D01*
X241376Y290832D02*
X241675Y290682D01*
X241975Y290382D01*
X242125Y290082D01*
Y289482D01*
X241975Y289182D01*
X241675Y288883D01*
X241376Y288733D01*
X240926Y288583D01*
X240176D01*
X239726Y288733D01*
X239426Y288883D01*
X239126Y289182D01*
X238976Y289482D01*
Y290082D01*
X239126Y290382D01*
X239426Y290682D01*
X239726Y290832D01*
X240176D01*
Y290082D02*
Y290832D01*
X242125Y291552D02*
X238976D01*
X242125D02*
X238976Y293651D01*
X242125D02*
X238976D01*
X242125Y294521D02*
X238976D01*
X242125D02*
Y295570D01*
X241975Y296020D01*
X241675Y296320D01*
X241376Y296470D01*
X240926Y296620D01*
X240176D01*
X239726Y296470D01*
X239426Y296320D01*
X239126Y296020D01*
X238976Y295570D01*
Y294521D01*
X338386Y484054D02*
X337186Y480905D01*
X335987Y484054D02*
X337186Y480905D01*
X335582Y484054D02*
Y480905D01*
Y484054D02*
X334232D01*
X333782Y483905D01*
X333632Y483755D01*
X333483Y483455D01*
Y483155D01*
X333632Y482855D01*
X333782Y482705D01*
X334232Y482555D01*
X335582D02*
X334232D01*
X333782Y482405D01*
X333632Y482255D01*
X333483Y481955D01*
Y481505D01*
X333632Y481205D01*
X333782Y481055D01*
X334232Y480905D01*
X335582D01*
X330379D02*
X331578Y484054D01*
X332778Y480905D01*
X332328Y481955D02*
X330828D01*
X328594Y484054D02*
Y480905D01*
X329644Y484054D02*
X327544D01*
X327170Y482255D02*
X324470D01*
X340158Y378543D02*
X338958Y375394D01*
X337758Y378543D02*
X338958Y375394D01*
X337353Y378543D02*
Y375394D01*
Y378543D02*
X336004D01*
X335554Y378393D01*
X335404Y378243D01*
X335254Y377943D01*
Y377643D01*
X335404Y377343D01*
X335554Y377193D01*
X336004Y377043D01*
X337353D02*
X336004D01*
X335554Y376893D01*
X335404Y376743D01*
X335254Y376443D01*
Y375993D01*
X335404Y375694D01*
X335554Y375544D01*
X336004Y375394D01*
X337353D01*
X332150D02*
X333350Y378543D01*
X334549Y375394D01*
X334100Y376443D02*
X332600D01*
X330366Y378543D02*
Y375394D01*
X331415Y378543D02*
X329316D01*
X327592Y378093D02*
Y375394D01*
X328941Y376743D02*
X326242D01*
X506298Y447666D02*
Y446166D01*
X504949Y446016D01*
X505099Y446166D01*
X505249Y446616D01*
Y447066D01*
X505099Y447516D01*
X504799Y447816D01*
X504349Y447965D01*
X504049D01*
X503600Y447816D01*
X503300Y447516D01*
X503150Y447066D01*
Y446616D01*
X503300Y446166D01*
X503449Y446016D01*
X503749Y445866D01*
X506298Y448670D02*
X503150Y449870D01*
X506298Y451069D02*
X503150Y449870D01*
X515551Y397272D02*
Y395772D01*
X514201Y395622D01*
X514351Y395772D01*
X514501Y396222D01*
Y396672D01*
X514351Y397122D01*
X514051Y397422D01*
X513601Y397572D01*
X513301D01*
X512851Y397422D01*
X512551Y397122D01*
X512402Y396672D01*
Y396222D01*
X512551Y395772D01*
X512702Y395622D01*
X513001Y395472D01*
X515551Y398276D02*
X512402Y399476D01*
X515551Y400676D02*
X512402Y399476D01*
X645669Y412823D02*
Y411323D01*
X644319Y411174D01*
X644469Y411323D01*
X644619Y411773D01*
Y412223D01*
X644469Y412673D01*
X644169Y412973D01*
X643719Y413123D01*
X643419D01*
X642970Y412973D01*
X642670Y412673D01*
X642520Y412223D01*
Y411773D01*
X642670Y411323D01*
X642820Y411174D01*
X643119Y411024D01*
X645669Y413828D02*
X642520Y415027D01*
X645669Y416227D02*
X642520Y415027D01*
X544919Y394769D02*
X545219Y394619D01*
X545519Y394319D01*
X545669Y394019D01*
Y393419D01*
X545519Y393120D01*
X545219Y392820D01*
X544919Y392670D01*
X544469Y392520D01*
X543719D01*
X543269Y392670D01*
X542970Y392820D01*
X542670Y393120D01*
X542520Y393419D01*
Y394019D01*
X542670Y394319D01*
X542970Y394619D01*
X543269Y394769D01*
X543719D01*
Y394019D02*
Y394769D01*
X545669Y395489D02*
X542520D01*
X545669D02*
X542520Y397588D01*
X545669D02*
X542520D01*
X545669Y398458D02*
X542520D01*
X545669D02*
Y399507D01*
X545519Y399957D01*
X545219Y400257D01*
X544919Y400407D01*
X544469Y400557D01*
X543719D01*
X543269Y400407D01*
X542970Y400257D01*
X542670Y399957D01*
X542520Y399507D01*
Y398458D01*
X504761Y394769D02*
X505061Y394619D01*
X505361Y394319D01*
X505511Y394019D01*
Y393419D01*
X505361Y393120D01*
X505061Y392820D01*
X504761Y392670D01*
X504312Y392520D01*
X503562D01*
X503112Y392670D01*
X502812Y392820D01*
X502512Y393120D01*
X502362Y393419D01*
Y394019D01*
X502512Y394319D01*
X502812Y394619D01*
X503112Y394769D01*
X503562D01*
Y394019D02*
Y394769D01*
X505511Y395489D02*
X502362D01*
X505511D02*
X502362Y397588D01*
X505511D02*
X502362D01*
X505511Y398458D02*
X502362D01*
X505511D02*
Y399507D01*
X505361Y399957D01*
X505061Y400257D01*
X504761Y400407D01*
X504312Y400557D01*
X503562D01*
X503112Y400407D01*
X502812Y400257D01*
X502512Y399957D01*
X502362Y399507D01*
Y398458D01*
X784683Y510123D02*
X784982Y509973D01*
X785282Y509673D01*
X785432Y509374D01*
Y508774D01*
X785282Y508474D01*
X784982Y508174D01*
X784683Y508024D01*
X784233Y507874D01*
X783483D01*
X783033Y508024D01*
X782733Y508174D01*
X782433Y508474D01*
X782283Y508774D01*
Y509374D01*
X782433Y509673D01*
X782733Y509973D01*
X783033Y510123D01*
X783483D01*
Y509374D02*
Y510123D01*
X785432Y510843D02*
X782283D01*
X785432D02*
X782283Y512942D01*
X785432D02*
X782283D01*
X785432Y513812D02*
X782283D01*
X785432D02*
Y514862D01*
X785282Y515311D01*
X784982Y515611D01*
X784683Y515761D01*
X784233Y515911D01*
X783483D01*
X783033Y515761D01*
X782733Y515611D01*
X782433Y515311D01*
X782283Y514862D01*
Y513812D01*
X784486Y385911D02*
X784786Y385761D01*
X785086Y385461D01*
X785236Y385161D01*
Y384561D01*
X785086Y384261D01*
X784786Y383961D01*
X784486Y383811D01*
X784036Y383661D01*
X783286D01*
X782836Y383811D01*
X782537Y383961D01*
X782237Y384261D01*
X782087Y384561D01*
Y385161D01*
X782237Y385461D01*
X782537Y385761D01*
X782836Y385911D01*
X783286D01*
Y385161D02*
Y385911D01*
X785236Y386630D02*
X782087D01*
X785236D02*
X782087Y388730D01*
X785236D02*
X782087D01*
X785236Y389599D02*
X782087D01*
X785236D02*
Y390649D01*
X785086Y391099D01*
X784786Y391399D01*
X784486Y391549D01*
X784036Y391699D01*
X783286D01*
X782836Y391549D01*
X782537Y391399D01*
X782237Y391099D01*
X782087Y390649D01*
Y389599D01*
X732517Y227052D02*
X732817Y226902D01*
X733117Y226603D01*
X733267Y226303D01*
Y225703D01*
X733117Y225403D01*
X732817Y225103D01*
X732517Y224953D01*
X732067Y224803D01*
X731318D01*
X730868Y224953D01*
X730568Y225103D01*
X730268Y225403D01*
X730118Y225703D01*
Y226303D01*
X730268Y226603D01*
X730568Y226902D01*
X730868Y227052D01*
X731318D01*
Y226303D02*
Y227052D01*
X733267Y227772D02*
X730118D01*
X733267D02*
X730118Y229871D01*
X733267D02*
X730118D01*
X733267Y230741D02*
X730118D01*
X733267D02*
Y231791D01*
X733117Y232241D01*
X732817Y232540D01*
X732517Y232691D01*
X732067Y232840D01*
X731318D01*
X730868Y232691D01*
X730568Y232540D01*
X730268Y232241D01*
X730118Y231791D01*
Y230741D01*
X722872Y227052D02*
X723172Y226902D01*
X723471Y226603D01*
X723621Y226303D01*
Y225703D01*
X723471Y225403D01*
X723172Y225103D01*
X722872Y224953D01*
X722422Y224803D01*
X721672D01*
X721222Y224953D01*
X720922Y225103D01*
X720622Y225403D01*
X720472Y225703D01*
Y226303D01*
X720622Y226603D01*
X720922Y226902D01*
X721222Y227052D01*
X721672D01*
Y226303D02*
Y227052D01*
X723621Y227772D02*
X720472D01*
X723621D02*
X720472Y229871D01*
X723621D02*
X720472D01*
X723621Y230741D02*
X720472D01*
X723621D02*
Y231791D01*
X723471Y232241D01*
X723172Y232540D01*
X722872Y232691D01*
X722422Y232840D01*
X721672D01*
X721222Y232691D01*
X720922Y232540D01*
X720622Y232241D01*
X720472Y231791D01*
Y230741D01*
X541058Y210076D02*
X541208Y210376D01*
X541508Y210676D01*
X541808Y210826D01*
X542407D01*
X542707Y210676D01*
X543007Y210376D01*
X543157Y210076D01*
X543307Y209627D01*
Y208877D01*
X543157Y208427D01*
X543007Y208127D01*
X542707Y207827D01*
X542407Y207677D01*
X541808D01*
X541508Y207827D01*
X541208Y208127D01*
X541058Y208427D01*
Y208877D01*
X541808D02*
X541058D01*
X540338Y210826D02*
Y207677D01*
Y210826D02*
X538239Y207677D01*
Y210826D02*
Y207677D01*
X537369Y210826D02*
Y207677D01*
Y210826D02*
X536319D01*
X535870Y210676D01*
X535570Y210376D01*
X535420Y210076D01*
X535270Y209627D01*
Y208877D01*
X535420Y208427D01*
X535570Y208127D01*
X535870Y207827D01*
X536319Y207677D01*
X537369D01*
X483108Y225871D02*
X483408Y225721D01*
X483708Y225421D01*
X483858Y225121D01*
Y224522D01*
X483708Y224222D01*
X483408Y223922D01*
X483108Y223772D01*
X482658Y223622D01*
X481908D01*
X481458Y223772D01*
X481158Y223922D01*
X480859Y224222D01*
X480709Y224522D01*
Y225121D01*
X480859Y225421D01*
X481158Y225721D01*
X481458Y225871D01*
X481908D01*
Y225121D02*
Y225871D01*
X483858Y226591D02*
X480709D01*
X483858D02*
X480709Y228690D01*
X483858D02*
X480709D01*
X483858Y229560D02*
X480709D01*
X483858D02*
Y230610D01*
X483708Y231060D01*
X483408Y231359D01*
X483108Y231509D01*
X482658Y231659D01*
X481908D01*
X481458Y231509D01*
X481158Y231359D01*
X480859Y231060D01*
X480709Y230610D01*
Y229560D01*
X305352Y244769D02*
X305652Y244619D01*
X305952Y244319D01*
X306102Y244019D01*
Y243419D01*
X305952Y243120D01*
X305652Y242820D01*
X305352Y242670D01*
X304902Y242520D01*
X304152D01*
X303702Y242670D01*
X303403Y242820D01*
X303103Y243120D01*
X302953Y243419D01*
Y244019D01*
X303103Y244319D01*
X303403Y244619D01*
X303702Y244769D01*
X304152D01*
Y244019D02*
Y244769D01*
X306102Y245489D02*
X302953D01*
X306102D02*
X302953Y247588D01*
X306102D02*
X302953D01*
X306102Y248458D02*
X302953D01*
X306102D02*
Y249507D01*
X305952Y249957D01*
X305652Y250257D01*
X305352Y250407D01*
X304902Y250557D01*
X304152D01*
X303702Y250407D01*
X303403Y250257D01*
X303103Y249957D01*
X302953Y249507D01*
Y248458D01*
X301612Y260714D02*
X301912Y260564D01*
X302212Y260264D01*
X302361Y259964D01*
Y259364D01*
X302212Y259064D01*
X301912Y258765D01*
X301612Y258614D01*
X301162Y258465D01*
X300412D01*
X299962Y258614D01*
X299662Y258765D01*
X299363Y259064D01*
X299213Y259364D01*
Y259964D01*
X299363Y260264D01*
X299662Y260564D01*
X299962Y260714D01*
X300412D01*
Y259964D02*
Y260714D01*
X302361Y261434D02*
X299213D01*
X302361D02*
X299213Y263533D01*
X302361D02*
X299213D01*
X302361Y264403D02*
X299213D01*
X302361D02*
Y265452D01*
X302212Y265902D01*
X301912Y266202D01*
X301612Y266352D01*
X301162Y266502D01*
X300412D01*
X299962Y266352D01*
X299662Y266202D01*
X299363Y265902D01*
X299213Y265452D01*
Y264403D01*
X301612Y290832D02*
X301912Y290682D01*
X302212Y290382D01*
X302361Y290082D01*
Y289482D01*
X302212Y289182D01*
X301912Y288883D01*
X301612Y288733D01*
X301162Y288583D01*
X300412D01*
X299962Y288733D01*
X299662Y288883D01*
X299363Y289182D01*
X299213Y289482D01*
Y290082D01*
X299363Y290382D01*
X299662Y290682D01*
X299962Y290832D01*
X300412D01*
Y290082D02*
Y290832D01*
X302361Y291552D02*
X299213D01*
X302361D02*
X299213Y293651D01*
X302361D02*
X299213D01*
X302361Y294521D02*
X299213D01*
X302361D02*
Y295570D01*
X302212Y296020D01*
X301912Y296320D01*
X301612Y296470D01*
X301162Y296620D01*
X300412D01*
X299962Y296470D01*
X299662Y296320D01*
X299363Y296020D01*
X299213Y295570D01*
Y294521D01*
X311454Y290832D02*
X311754Y290682D01*
X312054Y290382D01*
X312204Y290082D01*
Y289482D01*
X312054Y289182D01*
X311754Y288883D01*
X311454Y288733D01*
X311004Y288583D01*
X310255D01*
X309805Y288733D01*
X309505Y288883D01*
X309205Y289182D01*
X309055Y289482D01*
Y290082D01*
X309205Y290382D01*
X309505Y290682D01*
X309805Y290832D01*
X310255D01*
Y290082D02*
Y290832D01*
X312204Y291552D02*
X309055D01*
X312204D02*
X309055Y293651D01*
X312204D02*
X309055D01*
X312204Y294521D02*
X309055D01*
X312204D02*
Y295570D01*
X312054Y296020D01*
X311754Y296320D01*
X311454Y296470D01*
X311004Y296620D01*
X310255D01*
X309805Y296470D01*
X309505Y296320D01*
X309205Y296020D01*
X309055Y295570D01*
Y294521D01*
X361061Y530989D02*
X361361Y530839D01*
X361660Y530540D01*
X361810Y530240D01*
Y529640D01*
X361660Y529340D01*
X361361Y529040D01*
X361061Y528890D01*
X360611Y528740D01*
X359861D01*
X359411Y528890D01*
X359111Y529040D01*
X358811Y529340D01*
X358661Y529640D01*
Y530240D01*
X358811Y530540D01*
X359111Y530839D01*
X359411Y530989D01*
X359861D01*
Y530240D02*
Y530989D01*
X361810Y531709D02*
X358661D01*
X361810D02*
X358661Y533808D01*
X361810D02*
X358661D01*
X361810Y534678D02*
X358661D01*
X361810D02*
Y535728D01*
X361660Y536178D01*
X361361Y536478D01*
X361061Y536627D01*
X360611Y536777D01*
X359861D01*
X359411Y536627D01*
X359111Y536478D01*
X358811Y536178D01*
X358661Y535728D01*
Y534678D01*
X301218Y530989D02*
X301518Y530839D01*
X301818Y530540D01*
X301968Y530240D01*
Y529640D01*
X301818Y529340D01*
X301518Y529040D01*
X301218Y528890D01*
X300768Y528740D01*
X300019D01*
X299569Y528890D01*
X299269Y529040D01*
X298969Y529340D01*
X298819Y529640D01*
Y530240D01*
X298969Y530540D01*
X299269Y530839D01*
X299569Y530989D01*
X300019D01*
Y530240D02*
Y530989D01*
X301968Y531709D02*
X298819D01*
X301968D02*
X298819Y533808D01*
X301968D02*
X298819D01*
X301968Y534678D02*
X298819D01*
X301968D02*
Y535728D01*
X301818Y536178D01*
X301518Y536478D01*
X301218Y536627D01*
X300768Y536777D01*
X300019D01*
X299569Y536627D01*
X299269Y536478D01*
X298969Y536178D01*
X298819Y535728D01*
Y534678D01*
X251218Y501462D02*
X251518Y501312D01*
X251818Y501012D01*
X251968Y500712D01*
Y500112D01*
X251818Y499812D01*
X251518Y499512D01*
X251218Y499363D01*
X250768Y499213D01*
X250019D01*
X249569Y499363D01*
X249269Y499512D01*
X248969Y499812D01*
X248819Y500112D01*
Y500712D01*
X248969Y501012D01*
X249269Y501312D01*
X249569Y501462D01*
X250019D01*
Y500712D02*
Y501462D01*
X251968Y502182D02*
X248819D01*
X251968D02*
X248819Y504281D01*
X251968D02*
X248819D01*
X251968Y505151D02*
X248819D01*
X251968D02*
Y506200D01*
X251818Y506650D01*
X251518Y506950D01*
X251218Y507100D01*
X250768Y507250D01*
X250019D01*
X249569Y507100D01*
X249269Y506950D01*
X248969Y506650D01*
X248819Y506200D01*
Y505151D01*
X365749Y578740D02*
X368898D01*
X365749D02*
Y577391D01*
X365899Y576941D01*
X366049Y576791D01*
X366349Y576641D01*
X366648D01*
X366948Y576791D01*
X367098Y576941D01*
X367248Y577391D01*
Y578740D01*
Y577691D02*
X368898Y576641D01*
X365749Y575636D02*
Y573987D01*
X366948Y574887D01*
Y574437D01*
X367098Y574137D01*
X367248Y573987D01*
X367698Y573837D01*
X367998D01*
X368448Y573987D01*
X368748Y574287D01*
X368898Y574736D01*
Y575186D01*
X368748Y575636D01*
X368598Y575786D01*
X368298Y575936D01*
X366198Y571333D02*
X365899Y571483D01*
X365749Y571933D01*
Y572232D01*
X365899Y572682D01*
X366349Y572982D01*
X367098Y573132D01*
X367848D01*
X368448Y572982D01*
X368748Y572682D01*
X368898Y572232D01*
Y572082D01*
X368748Y571633D01*
X368448Y571333D01*
X367998Y571183D01*
X367848D01*
X367398Y571333D01*
X367098Y571633D01*
X366948Y572082D01*
Y572232D01*
X367098Y572682D01*
X367398Y572982D01*
X367848Y573132D01*
X412599Y578345D02*
X415748D01*
X412599D02*
Y576996D01*
X412749Y576546D01*
X412899Y576396D01*
X413199Y576246D01*
X413499D01*
X413799Y576396D01*
X413949Y576546D01*
X414099Y576996D01*
Y578345D01*
Y577296D02*
X415748Y576246D01*
X412599Y575241D02*
Y573592D01*
X413799Y574492D01*
Y574042D01*
X413949Y573742D01*
X414099Y573592D01*
X414548Y573442D01*
X414848D01*
X415298Y573592D01*
X415598Y573892D01*
X415748Y574342D01*
Y574791D01*
X415598Y575241D01*
X415448Y575391D01*
X415148Y575541D01*
X412599Y570938D02*
Y572437D01*
X413949Y572587D01*
X413799Y572437D01*
X413649Y571987D01*
Y571538D01*
X413799Y571088D01*
X414099Y570788D01*
X414548Y570638D01*
X414848D01*
X415298Y570788D01*
X415598Y571088D01*
X415748Y571538D01*
Y571987D01*
X415598Y572437D01*
X415448Y572587D01*
X415148Y572737D01*
X699999Y527165D02*
X696850D01*
X699999D02*
X696850Y528365D01*
X699999Y529565D02*
X696850Y528365D01*
X699999Y529565D02*
X696850D01*
X699999Y530764D02*
Y532414D01*
X698800Y531514D01*
Y531964D01*
X698650Y532264D01*
X698500Y532414D01*
X698050Y532563D01*
X697750D01*
X697300Y532414D01*
X697000Y532114D01*
X696850Y531664D01*
Y531214D01*
X697000Y530764D01*
X697150Y530614D01*
X697450Y530464D01*
X465453Y316535D02*
Y313386D01*
Y316535D02*
X464103D01*
X463653Y316385D01*
X463503Y316235D01*
X463353Y315935D01*
Y315635D01*
X463503Y315335D01*
X463653Y315185D01*
X464103Y315035D01*
X465453D01*
X464403D02*
X463353Y313386D01*
X460849Y316535D02*
X462349D01*
X462499Y315185D01*
X462349Y315335D01*
X461899Y315485D01*
X461449D01*
X460999Y315335D01*
X460699Y315035D01*
X460549Y314585D01*
Y314285D01*
X460699Y313836D01*
X460999Y313536D01*
X461449Y313386D01*
X461899D01*
X462349Y313536D01*
X462499Y313686D01*
X462649Y313986D01*
X607480Y337795D02*
X604331D01*
X607480D02*
Y339145D01*
X607330Y339595D01*
X607180Y339745D01*
X606880Y339895D01*
X606580D01*
X606280Y339745D01*
X606130Y339595D01*
X605980Y339145D01*
Y337795D01*
Y338845D02*
X604331Y339895D01*
X607030Y342399D02*
X607330Y342249D01*
X607480Y341799D01*
Y341499D01*
X607330Y341049D01*
X606880Y340749D01*
X606130Y340599D01*
X605380D01*
X604781Y340749D01*
X604481Y341049D01*
X604331Y341499D01*
Y341649D01*
X604481Y342099D01*
X604781Y342399D01*
X605230Y342549D01*
X605380D01*
X605830Y342399D01*
X606130Y342099D01*
X606280Y341649D01*
Y341499D01*
X606130Y341049D01*
X605830Y340749D01*
X605380Y340599D01*
X650655Y502493D02*
X651180Y501968D01*
Y500918D01*
X650655Y500394D01*
X648556D01*
X648032Y500918D01*
Y501968D01*
X648556Y502493D01*
X651180Y505641D02*
Y503542D01*
X649606D01*
X650131Y504592D01*
Y505117D01*
X649606Y505641D01*
X648556D01*
X648032Y505117D01*
Y504067D01*
X648556Y503542D01*
Y506691D02*
X648032Y507216D01*
Y508265D01*
X648556Y508790D01*
X650655D01*
X651180Y508265D01*
Y507216D01*
X650655Y506691D01*
X650131D01*
X649606Y507216D01*
Y508790D01*
X745078Y585630D02*
X741929D01*
X745078D02*
Y586979D01*
X744928Y587429D01*
X744778Y587579D01*
X744478Y587729D01*
X744178D01*
X743879Y587579D01*
X743728Y587429D01*
X743579Y586979D01*
Y585630D01*
Y586680D02*
X741929Y587729D01*
X745078Y589933D02*
X742979Y588434D01*
Y590683D01*
X745078Y589933D02*
X741929D01*
X744478Y591238D02*
X744628Y591538D01*
X745078Y591988D01*
X741929D01*
X472834Y442520D02*
X469685D01*
X472834D02*
Y443869D01*
X472684Y444319D01*
X472534Y444469D01*
X472234Y444619D01*
X471934D01*
X471634Y444469D01*
X471484Y444319D01*
X471335Y443869D01*
Y442520D01*
Y443569D02*
X469685Y444619D01*
X472834Y447123D02*
Y445624D01*
X471484Y445474D01*
X471634Y445624D01*
X471784Y446073D01*
Y446523D01*
X471634Y446973D01*
X471335Y447273D01*
X470885Y447423D01*
X470585D01*
X470135Y447273D01*
X469835Y446973D01*
X469685Y446523D01*
Y446073D01*
X469835Y445624D01*
X469985Y445474D01*
X470285Y445324D01*
X472084Y448278D02*
X472234D01*
X472534Y448428D01*
X472684Y448578D01*
X472834Y448877D01*
Y449477D01*
X472684Y449777D01*
X472534Y449927D01*
X472234Y450077D01*
X471934D01*
X471634Y449927D01*
X471184Y449627D01*
X469685Y448128D01*
Y450227D01*
X436137Y430352D02*
X436286Y430652D01*
X436586Y430952D01*
X436886Y431102D01*
X437486D01*
X437786Y430952D01*
X438086Y430652D01*
X438236Y430352D01*
X438386Y429902D01*
Y429152D01*
X438236Y428702D01*
X438086Y428403D01*
X437786Y428103D01*
X437486Y427953D01*
X436886D01*
X436586Y428103D01*
X436286Y428403D01*
X436137Y428702D01*
X433453Y430652D02*
X433603Y430952D01*
X434052Y431102D01*
X434352D01*
X434802Y430952D01*
X435102Y430502D01*
X435252Y429752D01*
Y429002D01*
X435102Y428403D01*
X434802Y428103D01*
X434352Y427953D01*
X434202D01*
X433752Y428103D01*
X433453Y428403D01*
X433302Y428853D01*
Y429002D01*
X433453Y429452D01*
X433752Y429752D01*
X434202Y429902D01*
X434352D01*
X434802Y429752D01*
X435102Y429452D01*
X435252Y429002D01*
X430663Y430052D02*
X430813Y429602D01*
X431113Y429302D01*
X431563Y429152D01*
X431713D01*
X432163Y429302D01*
X432463Y429602D01*
X432613Y430052D01*
Y430202D01*
X432463Y430652D01*
X432163Y430952D01*
X431713Y431102D01*
X431563D01*
X431113Y430952D01*
X430813Y430652D01*
X430663Y430052D01*
Y429302D01*
X430813Y428553D01*
X431113Y428103D01*
X431563Y427953D01*
X431863D01*
X432313Y428103D01*
X432463Y428403D01*
X757087Y502361D02*
Y499213D01*
Y502361D02*
X755737D01*
X755287Y502212D01*
X755137Y502062D01*
X754987Y501762D01*
Y501462D01*
X755137Y501162D01*
X755287Y501012D01*
X755737Y500862D01*
X757087D01*
X756037D02*
X754987Y499213D01*
X752483Y502361D02*
X753983D01*
X754133Y501012D01*
X753983Y501162D01*
X753533Y501312D01*
X753083D01*
X752633Y501162D01*
X752333Y500862D01*
X752183Y500412D01*
Y500112D01*
X752333Y499662D01*
X752633Y499363D01*
X753083Y499213D01*
X753533D01*
X753983Y499363D01*
X754133Y499512D01*
X754283Y499812D01*
X751478Y501762D02*
X751179Y501912D01*
X750729Y502361D01*
Y499213D01*
X753937Y458267D02*
Y455118D01*
Y458267D02*
X752588D01*
X752138Y458117D01*
X751988Y457967D01*
X751838Y457667D01*
Y457367D01*
X751988Y457067D01*
X752138Y456917D01*
X752588Y456768D01*
X753937D01*
X752887D02*
X751838Y455118D01*
X749334Y458267D02*
X750833D01*
X750983Y456917D01*
X750833Y457067D01*
X750383Y457217D01*
X749933D01*
X749483Y457067D01*
X749184Y456768D01*
X749034Y456318D01*
Y456018D01*
X749184Y455568D01*
X749483Y455268D01*
X749933Y455118D01*
X750383D01*
X750833Y455268D01*
X750983Y455418D01*
X751133Y455718D01*
X747429Y458267D02*
X747879Y458117D01*
X748179Y457667D01*
X748329Y456917D01*
Y456468D01*
X748179Y455718D01*
X747879Y455268D01*
X747429Y455118D01*
X747129D01*
X746679Y455268D01*
X746380Y455718D01*
X746230Y456468D01*
Y456917D01*
X746380Y457667D01*
X746679Y458117D01*
X747129Y458267D01*
X747429D01*
X740747Y364764D02*
X737598D01*
X740747D02*
Y366113D01*
X740597Y366563D01*
X740448Y366713D01*
X740148Y366863D01*
X739848D01*
X739548Y366713D01*
X739398Y366563D01*
X739248Y366113D01*
Y364764D01*
Y365813D02*
X737598Y366863D01*
X740747Y369067D02*
X738648Y367568D01*
Y369817D01*
X740747Y369067D02*
X737598D01*
X739698Y372321D02*
X739248Y372171D01*
X738948Y371871D01*
X738798Y371422D01*
Y371272D01*
X738948Y370822D01*
X739248Y370522D01*
X739698Y370372D01*
X739848D01*
X740298Y370522D01*
X740597Y370822D01*
X740747Y371272D01*
Y371422D01*
X740597Y371871D01*
X740298Y372171D01*
X739698Y372321D01*
X738948D01*
X738198Y372171D01*
X737748Y371871D01*
X737598Y371422D01*
Y371122D01*
X737748Y370672D01*
X738048Y370522D01*
X618110Y239173D02*
Y236024D01*
Y239173D02*
X616761D01*
X616311Y239023D01*
X616161Y238873D01*
X616011Y238573D01*
Y238273D01*
X616161Y237973D01*
X616311Y237823D01*
X616761Y237673D01*
X618110D01*
X617061D02*
X616011Y236024D01*
X613807Y239173D02*
X615306Y237073D01*
X613057D01*
X613807Y239173D02*
Y236024D01*
X610403Y239173D02*
X611902Y236024D01*
X612502Y239173D02*
X610403D01*
X740747Y348228D02*
X737598D01*
X740747D02*
Y349578D01*
X740597Y350028D01*
X740448Y350178D01*
X740148Y350328D01*
X739848D01*
X739548Y350178D01*
X739398Y350028D01*
X739248Y349578D01*
Y348228D01*
Y349278D02*
X737598Y350328D01*
X740747Y352532D02*
X738648Y351032D01*
Y353282D01*
X740747Y352532D02*
X737598D01*
X740747Y354586D02*
X740597Y354136D01*
X740298Y353986D01*
X739998D01*
X739698Y354136D01*
X739548Y354436D01*
X739398Y355036D01*
X739248Y355486D01*
X738948Y355786D01*
X738648Y355936D01*
X738198D01*
X737898Y355786D01*
X737748Y355636D01*
X737598Y355186D01*
Y354586D01*
X737748Y354136D01*
X737898Y353986D01*
X738198Y353836D01*
X738648D01*
X738948Y353986D01*
X739248Y354286D01*
X739398Y354736D01*
X739548Y355336D01*
X739698Y355636D01*
X739998Y355786D01*
X740298D01*
X740597Y355636D01*
X740747Y355186D01*
Y354586D01*
X601575Y238976D02*
Y235827D01*
Y238976D02*
X600225D01*
X599775Y238826D01*
X599625Y238676D01*
X599475Y238376D01*
Y238076D01*
X599625Y237776D01*
X599775Y237626D01*
X600225Y237476D01*
X601575D01*
X600525D02*
X599475Y235827D01*
X597271Y238976D02*
X598771Y236876D01*
X596522D01*
X597271Y238976D02*
Y235827D01*
X594167Y238526D02*
X594317Y238826D01*
X594767Y238976D01*
X595067D01*
X595517Y238826D01*
X595817Y238376D01*
X595967Y237626D01*
Y236876D01*
X595817Y236277D01*
X595517Y235977D01*
X595067Y235827D01*
X594917D01*
X594467Y235977D01*
X594167Y236277D01*
X594017Y236726D01*
Y236876D01*
X594167Y237326D01*
X594467Y237626D01*
X594917Y237776D01*
X595067D01*
X595517Y237626D01*
X595817Y237326D01*
X595967Y236876D01*
X629133Y570965D02*
X625984D01*
X629133D02*
Y572314D01*
X628983Y572764D01*
X628833Y572914D01*
X628533Y573064D01*
X628233D01*
X627934Y572914D01*
X627784Y572764D01*
X627634Y572314D01*
Y570965D01*
Y572014D02*
X625984Y573064D01*
X629133Y575268D02*
X627034Y573769D01*
Y576018D01*
X629133Y575268D02*
X625984D01*
X629133Y578372D02*
Y576873D01*
X627784Y576723D01*
X627934Y576873D01*
X628084Y577322D01*
Y577772D01*
X627934Y578222D01*
X627634Y578522D01*
X627184Y578672D01*
X626884D01*
X626434Y578522D01*
X626134Y578222D01*
X625984Y577772D01*
Y577322D01*
X626134Y576873D01*
X626284Y576723D01*
X626584Y576573D01*
X599999Y571260D02*
X596850D01*
X599999D02*
Y572609D01*
X599849Y573059D01*
X599699Y573209D01*
X599400Y573359D01*
X599100D01*
X598800Y573209D01*
X598650Y573059D01*
X598500Y572609D01*
Y571260D01*
Y572309D02*
X596850Y573359D01*
X599999Y575563D02*
X597900Y574064D01*
Y576313D01*
X599999Y575563D02*
X596850D01*
X599999Y578367D02*
X597900Y576868D01*
Y579117D01*
X599999Y578367D02*
X596850D01*
X599016Y563385D02*
Y560236D01*
Y563385D02*
X597666D01*
X597216Y563235D01*
X597066Y563085D01*
X596916Y562785D01*
Y562486D01*
X597066Y562186D01*
X597216Y562036D01*
X597666Y561886D01*
X599016D01*
X597966D02*
X596916Y560236D01*
X594712Y563385D02*
X596212Y561286D01*
X593962D01*
X594712Y563385D02*
Y560236D01*
X593108Y563385D02*
X591458D01*
X592358Y562186D01*
X591908D01*
X591608Y562036D01*
X591458Y561886D01*
X591308Y561436D01*
Y561136D01*
X591458Y560686D01*
X591758Y560386D01*
X592208Y560236D01*
X592658D01*
X593108Y560386D01*
X593258Y560536D01*
X593408Y560836D01*
X628346Y563385D02*
Y560236D01*
Y563385D02*
X626997D01*
X626547Y563235D01*
X626397Y563085D01*
X626247Y562785D01*
Y562486D01*
X626397Y562186D01*
X626547Y562036D01*
X626997Y561886D01*
X628346D01*
X627297D02*
X626247Y560236D01*
X624043Y563385D02*
X625542Y561286D01*
X623293D01*
X624043Y563385D02*
Y560236D01*
X622588Y562635D02*
Y562785D01*
X622438Y563085D01*
X622289Y563235D01*
X621989Y563385D01*
X621389D01*
X621089Y563235D01*
X620939Y563085D01*
X620789Y562785D01*
Y562486D01*
X620939Y562186D01*
X621239Y561736D01*
X622738Y560236D01*
X620639D01*
X751574Y585630D02*
X748425D01*
X751574D02*
Y586979D01*
X751424Y587429D01*
X751274Y587579D01*
X750974Y587729D01*
X750674D01*
X750375Y587579D01*
X750225Y587429D01*
X750075Y586979D01*
Y585630D01*
Y586680D02*
X748425Y587729D01*
X751574Y589933D02*
X749475Y588434D01*
Y590683D01*
X751574Y589933D02*
X748425D01*
X751574Y592138D02*
X751424Y591688D01*
X750974Y591388D01*
X750225Y591238D01*
X749775D01*
X749025Y591388D01*
X748575Y591688D01*
X748425Y592138D01*
Y592438D01*
X748575Y592887D01*
X749025Y593187D01*
X749775Y593337D01*
X750225D01*
X750974Y593187D01*
X751424Y592887D01*
X751574Y592438D01*
Y592138D01*
X385768Y562598D02*
Y559449D01*
Y562598D02*
X384418D01*
X383968Y562448D01*
X383818Y562298D01*
X383668Y561998D01*
Y561698D01*
X383818Y561398D01*
X383968Y561248D01*
X384418Y561098D01*
X385768D01*
X384718D02*
X383668Y559449D01*
X382664Y562598D02*
X381014D01*
X381914Y561398D01*
X381464D01*
X381164Y561248D01*
X381014Y561098D01*
X380864Y560648D01*
Y560349D01*
X381014Y559899D01*
X381314Y559599D01*
X381764Y559449D01*
X382214D01*
X382664Y559599D01*
X382814Y559749D01*
X382964Y560049D01*
X378660Y562598D02*
X380160Y560499D01*
X377910D01*
X378660Y562598D02*
Y559449D01*
X428188Y549902D02*
X425039D01*
X428188D02*
Y551251D01*
X428038Y551701D01*
X427888Y551851D01*
X427589Y552001D01*
X427289D01*
X426989Y551851D01*
X426839Y551701D01*
X426689Y551251D01*
Y549902D01*
Y550951D02*
X425039Y552001D01*
X428188Y553006D02*
Y554655D01*
X426989Y553755D01*
Y554205D01*
X426839Y554505D01*
X426689Y554655D01*
X426239Y554805D01*
X425939D01*
X425489Y554655D01*
X425189Y554355D01*
X425039Y553905D01*
Y553455D01*
X425189Y553006D01*
X425339Y552856D01*
X425639Y552706D01*
X428188Y555810D02*
Y557459D01*
X426989Y556559D01*
Y557009D01*
X426839Y557309D01*
X426689Y557459D01*
X426239Y557609D01*
X425939D01*
X425489Y557459D01*
X425189Y557159D01*
X425039Y556709D01*
Y556259D01*
X425189Y555810D01*
X425339Y555660D01*
X425639Y555510D01*
X363779Y556299D02*
X360630D01*
X363779D02*
Y557649D01*
X363629Y558099D01*
X363479Y558249D01*
X363179Y558398D01*
X362879D01*
X362579Y558249D01*
X362429Y558099D01*
X362279Y557649D01*
Y556299D01*
Y557349D02*
X360630Y558398D01*
X363779Y559403D02*
Y561053D01*
X362579Y560153D01*
Y560603D01*
X362429Y560903D01*
X362279Y561053D01*
X361829Y561202D01*
X361530D01*
X361080Y561053D01*
X360780Y560753D01*
X360630Y560303D01*
Y559853D01*
X360780Y559403D01*
X360930Y559253D01*
X361230Y559103D01*
X363029Y562057D02*
X363179D01*
X363479Y562207D01*
X363629Y562357D01*
X363779Y562657D01*
Y563257D01*
X363629Y563557D01*
X363479Y563707D01*
X363179Y563857D01*
X362879D01*
X362579Y563707D01*
X362129Y563407D01*
X360630Y561907D01*
Y564007D01*
X411023Y555905D02*
X407874D01*
X411023D02*
Y557255D01*
X410873Y557705D01*
X410723Y557855D01*
X410423Y558005D01*
X410123D01*
X409823Y557855D01*
X409673Y557705D01*
X409523Y557255D01*
Y555905D01*
Y556955D02*
X407874Y558005D01*
X411023Y559010D02*
Y560659D01*
X409823Y559759D01*
Y560209D01*
X409673Y560509D01*
X409523Y560659D01*
X409074Y560809D01*
X408774D01*
X408324Y560659D01*
X408024Y560359D01*
X407874Y559909D01*
Y559459D01*
X408024Y559010D01*
X408174Y558859D01*
X408474Y558710D01*
X410423Y561514D02*
X410573Y561813D01*
X411023Y562263D01*
X407874D01*
X483464Y534646D02*
X480315D01*
X483464D02*
Y535995D01*
X483314Y536445D01*
X483164Y536595D01*
X482864Y536745D01*
X482564D01*
X482264Y536595D01*
X482114Y536445D01*
X481964Y535995D01*
Y534646D01*
Y535695D02*
X480315Y536745D01*
X482714Y537600D02*
X482864D01*
X483164Y537750D01*
X483314Y537900D01*
X483464Y538200D01*
Y538799D01*
X483314Y539099D01*
X483164Y539249D01*
X482864Y539399D01*
X482564D01*
X482264Y539249D01*
X481814Y538949D01*
X480315Y537450D01*
Y539549D01*
X482414Y542203D02*
X481964Y542053D01*
X481665Y541753D01*
X481515Y541303D01*
Y541153D01*
X481665Y540704D01*
X481964Y540404D01*
X482414Y540254D01*
X482564D01*
X483014Y540404D01*
X483314Y540704D01*
X483464Y541153D01*
Y541303D01*
X483314Y541753D01*
X483014Y542053D01*
X482414Y542203D01*
X481665D01*
X480915Y542053D01*
X480465Y541753D01*
X480315Y541303D01*
Y541004D01*
X480465Y540554D01*
X480765Y540404D01*
X472441Y541338D02*
Y538189D01*
Y541338D02*
X471091D01*
X470642Y541188D01*
X470492Y541038D01*
X470342Y540738D01*
Y540438D01*
X470492Y540138D01*
X470642Y539988D01*
X471091Y539838D01*
X472441D01*
X471391D02*
X470342Y538189D01*
X469487Y540588D02*
Y540738D01*
X469337Y541038D01*
X469187Y541188D01*
X468887Y541338D01*
X468287D01*
X467987Y541188D01*
X467837Y541038D01*
X467688Y540738D01*
Y540438D01*
X467837Y540138D01*
X468137Y539688D01*
X469637Y538189D01*
X467538D01*
X466083Y541338D02*
X466533Y541188D01*
X466683Y540888D01*
Y540588D01*
X466533Y540288D01*
X466233Y540138D01*
X465633Y539988D01*
X465183Y539838D01*
X464884Y539538D01*
X464734Y539239D01*
Y538789D01*
X464884Y538489D01*
X465033Y538339D01*
X465483Y538189D01*
X466083D01*
X466533Y538339D01*
X466683Y538489D01*
X466833Y538789D01*
Y539239D01*
X466683Y539538D01*
X466383Y539838D01*
X465933Y539988D01*
X465333Y540138D01*
X465033Y540288D01*
X464884Y540588D01*
Y540888D01*
X465033Y541188D01*
X465483Y541338D01*
X466083D01*
X478740Y491535D02*
Y488386D01*
Y491535D02*
X477391D01*
X476941Y491385D01*
X476791Y491235D01*
X476641Y490935D01*
Y490635D01*
X476791Y490335D01*
X476941Y490185D01*
X477391Y490035D01*
X478740D01*
X477691D02*
X476641Y488386D01*
X475786Y490785D02*
Y490935D01*
X475636Y491235D01*
X475486Y491385D01*
X475186Y491535D01*
X474587D01*
X474287Y491385D01*
X474137Y491235D01*
X473987Y490935D01*
Y490635D01*
X474137Y490335D01*
X474437Y489885D01*
X475936Y488386D01*
X473837D01*
X471033Y491535D02*
X472532Y488386D01*
X473132Y491535D02*
X471033D01*
X483268Y566928D02*
Y563779D01*
Y566928D02*
X481918D01*
X481468Y566779D01*
X481318Y566629D01*
X481168Y566329D01*
Y566029D01*
X481318Y565729D01*
X481468Y565579D01*
X481918Y565429D01*
X483268D01*
X482218D02*
X481168Y563779D01*
X480314Y566179D02*
Y566329D01*
X480164Y566629D01*
X480014Y566779D01*
X479714Y566928D01*
X479114D01*
X478814Y566779D01*
X478664Y566629D01*
X478514Y566329D01*
Y566029D01*
X478664Y565729D01*
X478964Y565279D01*
X480464Y563779D01*
X478364D01*
X475860Y566479D02*
X476010Y566779D01*
X476460Y566928D01*
X476760D01*
X477210Y566779D01*
X477510Y566329D01*
X477660Y565579D01*
Y564829D01*
X477510Y564229D01*
X477210Y563930D01*
X476760Y563779D01*
X476610D01*
X476160Y563930D01*
X475860Y564229D01*
X475710Y564679D01*
Y564829D01*
X475860Y565279D01*
X476160Y565579D01*
X476610Y565729D01*
X476760D01*
X477210Y565579D01*
X477510Y565279D01*
X477660Y564829D01*
X528543Y567322D02*
Y564173D01*
Y567322D02*
X527194D01*
X526744Y567172D01*
X526594Y567022D01*
X526444Y566722D01*
Y566423D01*
X526594Y566123D01*
X526744Y565973D01*
X527194Y565823D01*
X528543D01*
X527494D02*
X526444Y564173D01*
X525589Y566572D02*
Y566722D01*
X525439Y567022D01*
X525289Y567172D01*
X524990Y567322D01*
X524390D01*
X524090Y567172D01*
X523940Y567022D01*
X523790Y566722D01*
Y566423D01*
X523940Y566123D01*
X524240Y565673D01*
X525739Y564173D01*
X523640D01*
X521136Y567322D02*
X522635D01*
X522785Y565973D01*
X522635Y566123D01*
X522186Y566272D01*
X521736D01*
X521286Y566123D01*
X520986Y565823D01*
X520836Y565373D01*
Y565073D01*
X520986Y564623D01*
X521286Y564323D01*
X521736Y564173D01*
X522186D01*
X522635Y564323D01*
X522785Y564473D01*
X522935Y564773D01*
X487401Y471260D02*
X484252D01*
X487401D02*
Y472609D01*
X487251Y473059D01*
X487101Y473209D01*
X486801Y473359D01*
X486501D01*
X486201Y473209D01*
X486051Y473059D01*
X485901Y472609D01*
Y471260D01*
Y472309D02*
X484252Y473359D01*
X486651Y474214D02*
X486801D01*
X487101Y474364D01*
X487251Y474514D01*
X487401Y474814D01*
Y475413D01*
X487251Y475713D01*
X487101Y475863D01*
X486801Y476013D01*
X486501D01*
X486201Y475863D01*
X485751Y475563D01*
X484252Y474064D01*
Y476163D01*
X487401Y478367D02*
X485302Y476868D01*
Y479117D01*
X487401Y478367D02*
X484252D01*
X616535Y502764D02*
X613386D01*
X616535D02*
Y504113D01*
X616385Y504563D01*
X616235Y504713D01*
X615935Y504863D01*
X615635D01*
X615335Y504713D01*
X615185Y504563D01*
X615035Y504113D01*
Y502764D01*
Y503813D02*
X613386Y504863D01*
X615785Y505718D02*
X615935D01*
X616235Y505868D01*
X616385Y506018D01*
X616535Y506318D01*
Y506917D01*
X616385Y507217D01*
X616235Y507367D01*
X615935Y507517D01*
X615635D01*
X615335Y507367D01*
X614885Y507067D01*
X613386Y505568D01*
Y507667D01*
X616535Y508672D02*
Y510321D01*
X615335Y509421D01*
Y509871D01*
X615185Y510171D01*
X615035Y510321D01*
X614585Y510471D01*
X614286D01*
X613836Y510321D01*
X613536Y510021D01*
X613386Y509572D01*
Y509122D01*
X613536Y508672D01*
X613686Y508522D01*
X613986Y508372D01*
X459842Y507677D02*
X456693D01*
X459842D02*
Y509027D01*
X459692Y509477D01*
X459542Y509626D01*
X459242Y509776D01*
X458942D01*
X458642Y509626D01*
X458492Y509477D01*
X458342Y509027D01*
Y507677D01*
Y508727D02*
X456693Y509776D01*
X459092Y510631D02*
X459242D01*
X459542Y510781D01*
X459692Y510931D01*
X459842Y511231D01*
Y511831D01*
X459692Y512131D01*
X459542Y512281D01*
X459242Y512431D01*
X458942D01*
X458642Y512281D01*
X458192Y511981D01*
X456693Y510481D01*
Y512580D01*
X459092Y513435D02*
X459242D01*
X459542Y513585D01*
X459692Y513735D01*
X459842Y514035D01*
Y514635D01*
X459692Y514935D01*
X459542Y515085D01*
X459242Y515235D01*
X458942D01*
X458642Y515085D01*
X458192Y514785D01*
X456693Y513285D01*
Y515385D01*
X270078Y297835D02*
X266929D01*
X270078D02*
Y299184D01*
X269928Y299634D01*
X269778Y299784D01*
X269478Y299934D01*
X269178D01*
X268879Y299784D01*
X268728Y299634D01*
X268579Y299184D01*
Y297835D01*
Y298884D02*
X266929Y299934D01*
X269328Y300789D02*
X269478D01*
X269778Y300939D01*
X269928Y301089D01*
X270078Y301389D01*
Y301988D01*
X269928Y302288D01*
X269778Y302438D01*
X269478Y302588D01*
X269178D01*
X268879Y302438D01*
X268429Y302138D01*
X266929Y300639D01*
Y302738D01*
X269478Y303443D02*
X269628Y303743D01*
X270078Y304192D01*
X266929D01*
X697834Y455512D02*
X694685D01*
X697834D02*
Y456861D01*
X697684Y457311D01*
X697534Y457461D01*
X697234Y457611D01*
X696934D01*
X696634Y457461D01*
X696484Y457311D01*
X696335Y456861D01*
Y455512D01*
Y456562D02*
X694685Y457611D01*
X697234Y458316D02*
X697384Y458616D01*
X697834Y459066D01*
X694685D01*
X697834Y462724D02*
X694685Y461225D01*
X697834Y460625D02*
Y462724D01*
Y473228D02*
X694685D01*
X697834D02*
Y474578D01*
X697684Y475028D01*
X697534Y475178D01*
X697234Y475328D01*
X696934D01*
X696634Y475178D01*
X696484Y475028D01*
X696335Y474578D01*
Y473228D01*
Y474278D02*
X694685Y475328D01*
X697234Y476032D02*
X697384Y476332D01*
X697834Y476782D01*
X694685D01*
X697384Y480141D02*
X697684Y479991D01*
X697834Y479541D01*
Y479241D01*
X697684Y478792D01*
X697234Y478492D01*
X696484Y478342D01*
X695735D01*
X695135Y478492D01*
X694835Y478792D01*
X694685Y479241D01*
Y479391D01*
X694835Y479841D01*
X695135Y480141D01*
X695585Y480291D01*
X695735D01*
X696184Y480141D01*
X696484Y479841D01*
X696634Y479391D01*
Y479241D01*
X696484Y478792D01*
X696184Y478492D01*
X695735Y478342D01*
X457283Y307283D02*
Y304134D01*
Y307283D02*
X455934D01*
X455484Y307133D01*
X455334Y306983D01*
X455184Y306683D01*
Y306383D01*
X455334Y306083D01*
X455484Y305933D01*
X455934Y305783D01*
X457283D01*
X456234D02*
X455184Y304134D01*
X454479Y306683D02*
X454179Y306833D01*
X453730Y307283D01*
Y304134D01*
X450371Y307283D02*
X451870D01*
X452020Y305933D01*
X451870Y306083D01*
X451420Y306233D01*
X450971D01*
X450521Y306083D01*
X450221Y305783D01*
X450071Y305333D01*
Y305034D01*
X450221Y304584D01*
X450521Y304284D01*
X450971Y304134D01*
X451420D01*
X451870Y304284D01*
X452020Y304434D01*
X452170Y304734D01*
X457480Y298818D02*
Y295669D01*
Y298818D02*
X456131D01*
X455681Y298668D01*
X455531Y298518D01*
X455381Y298218D01*
Y297919D01*
X455531Y297619D01*
X455681Y297469D01*
X456131Y297319D01*
X457480D01*
X456431D02*
X455381Y295669D01*
X454676Y298218D02*
X454376Y298368D01*
X453927Y298818D01*
Y295669D01*
X450868Y298818D02*
X452367Y296719D01*
X450118D01*
X450868Y298818D02*
Y295669D01*
X549409Y276771D02*
Y273622D01*
Y276771D02*
X548060D01*
X547610Y276621D01*
X547460Y276471D01*
X547310Y276171D01*
Y275871D01*
X547460Y275571D01*
X547610Y275421D01*
X548060Y275272D01*
X549409D01*
X548360D02*
X547310Y273622D01*
X546605Y276171D02*
X546306Y276321D01*
X545856Y276771D01*
Y273622D01*
X543996Y276771D02*
X542347D01*
X543247Y275571D01*
X542797D01*
X542497Y275421D01*
X542347Y275272D01*
X542197Y274822D01*
Y274522D01*
X542347Y274072D01*
X542647Y273772D01*
X543097Y273622D01*
X543546D01*
X543996Y273772D01*
X544146Y273922D01*
X544296Y274222D01*
X527361Y277953D02*
X524213D01*
X527361D02*
Y279302D01*
X527212Y279752D01*
X527062Y279902D01*
X526762Y280052D01*
X526462D01*
X526162Y279902D01*
X526012Y279752D01*
X525862Y279302D01*
Y277953D01*
Y279002D02*
X524213Y280052D01*
X526762Y280757D02*
X526912Y281057D01*
X527361Y281507D01*
X524213D01*
X526612Y283216D02*
X526762D01*
X527062Y283366D01*
X527212Y283516D01*
X527361Y283816D01*
Y284416D01*
X527212Y284716D01*
X527062Y284865D01*
X526762Y285015D01*
X526462D01*
X526162Y284865D01*
X525712Y284565D01*
X524213Y283066D01*
Y285165D01*
X556102Y253346D02*
X552953D01*
X556102D02*
Y254696D01*
X555952Y255146D01*
X555802Y255296D01*
X555502Y255446D01*
X555202D01*
X554902Y255296D01*
X554752Y255146D01*
X554602Y254696D01*
Y253346D01*
Y254396D02*
X552953Y255446D01*
X555502Y256151D02*
X555652Y256450D01*
X556102Y256900D01*
X552953D01*
X555502Y258460D02*
X555652Y258760D01*
X556102Y259209D01*
X552953D01*
X467762Y325196D02*
Y322047D01*
Y325196D02*
X466412D01*
X465963Y325046D01*
X465813Y324896D01*
X465663Y324596D01*
Y324296D01*
X465813Y323997D01*
X465963Y323847D01*
X466412Y323697D01*
X467762D01*
X466712D02*
X465663Y322047D01*
X464958Y324596D02*
X464658Y324746D01*
X464208Y325196D01*
Y322047D01*
X461749Y325196D02*
X462199Y325046D01*
X462499Y324596D01*
X462649Y323847D01*
Y323397D01*
X462499Y322647D01*
X462199Y322197D01*
X461749Y322047D01*
X461449D01*
X460999Y322197D01*
X460699Y322647D01*
X460549Y323397D01*
Y323847D01*
X460699Y324596D01*
X460999Y325046D01*
X461449Y325196D01*
X461749D01*
X556102Y238189D02*
X552953D01*
X556102D02*
Y239539D01*
X555952Y239988D01*
X555802Y240138D01*
X555502Y240288D01*
X555202D01*
X554902Y240138D01*
X554752Y239988D01*
X554602Y239539D01*
Y238189D01*
Y239239D02*
X552953Y240288D01*
X555052Y242942D02*
X554602Y242792D01*
X554302Y242493D01*
X554152Y242043D01*
Y241893D01*
X554302Y241443D01*
X554602Y241143D01*
X555052Y240993D01*
X555202D01*
X555652Y241143D01*
X555952Y241443D01*
X556102Y241893D01*
Y242043D01*
X555952Y242493D01*
X555652Y242792D01*
X555052Y242942D01*
X554302D01*
X553553Y242792D01*
X553103Y242493D01*
X552953Y242043D01*
Y241743D01*
X553103Y241293D01*
X553403Y241143D01*
X615939Y321062D02*
Y317913D01*
Y321062D02*
X614589D01*
X614139Y320912D01*
X613989Y320762D01*
X613839Y320462D01*
Y320163D01*
X613989Y319863D01*
X614139Y319713D01*
X614589Y319563D01*
X615939D01*
X614889D02*
X613839Y317913D01*
X612385Y321062D02*
X612835Y320912D01*
X612985Y320613D01*
Y320313D01*
X612835Y320013D01*
X612535Y319863D01*
X611935Y319713D01*
X611485Y319563D01*
X611185Y319263D01*
X611035Y318963D01*
Y318513D01*
X611185Y318213D01*
X611335Y318063D01*
X611785Y317913D01*
X612385D01*
X612835Y318063D01*
X612985Y318213D01*
X613134Y318513D01*
Y318963D01*
X612985Y319263D01*
X612685Y319563D01*
X612235Y319713D01*
X611635Y319863D01*
X611335Y320013D01*
X611185Y320313D01*
Y320613D01*
X611335Y320912D01*
X611785Y321062D01*
X612385D01*
X615939Y327010D02*
Y323862D01*
Y327010D02*
X614589D01*
X614139Y326861D01*
X613989Y326711D01*
X613839Y326411D01*
Y326111D01*
X613989Y325811D01*
X614139Y325661D01*
X614589Y325511D01*
X615939D01*
X614889D02*
X613839Y323862D01*
X611035Y327010D02*
X612535Y323862D01*
X613134Y327010D02*
X611035D01*
X232086Y487992D02*
X228937D01*
X232086D02*
Y489342D01*
X231936Y489791D01*
X231786Y489942D01*
X231486Y490091D01*
X231186D01*
X230886Y489942D01*
X230736Y489791D01*
X230587Y489342D01*
Y487992D01*
Y489042D02*
X228937Y490091D01*
X232086Y492296D02*
X229987Y490796D01*
Y493045D01*
X232086Y492296D02*
X228937D01*
X222243Y488189D02*
X219094D01*
X222243D02*
Y489538D01*
X222094Y489988D01*
X221943Y490138D01*
X221644Y490288D01*
X221344D01*
X221044Y490138D01*
X220894Y489988D01*
X220744Y489538D01*
Y488189D01*
Y489239D02*
X219094Y490288D01*
X222243Y491293D02*
Y492942D01*
X221044Y492043D01*
Y492492D01*
X220894Y492792D01*
X220744Y492942D01*
X220294Y493092D01*
X219994D01*
X219544Y492942D01*
X219244Y492642D01*
X219094Y492193D01*
Y491743D01*
X219244Y491293D01*
X219394Y491143D01*
X219694Y490993D01*
X454921Y290354D02*
Y287205D01*
Y290354D02*
X453572D01*
X453122Y290204D01*
X452972Y290054D01*
X452822Y289754D01*
Y289454D01*
X452972Y289154D01*
X453122Y289004D01*
X453572Y288854D01*
X454921D01*
X453872D02*
X452822Y287205D01*
X451967Y289604D02*
Y289754D01*
X451817Y290054D01*
X451667Y290204D01*
X451368Y290354D01*
X450768D01*
X450468Y290204D01*
X450318Y290054D01*
X450168Y289754D01*
Y289454D01*
X450318Y289154D01*
X450618Y288704D01*
X452117Y287205D01*
X450018D01*
X287401Y294882D02*
X284252D01*
X287401D02*
Y296231D01*
X287251Y296681D01*
X287101Y296831D01*
X286801Y296981D01*
X286501D01*
X286201Y296831D01*
X286051Y296681D01*
X285901Y296231D01*
Y294882D01*
Y295932D02*
X284252Y296981D01*
X286801Y297686D02*
X286951Y297986D01*
X287401Y298436D01*
X284252D01*
X685039Y501968D02*
Y498819D01*
Y501968D02*
X683840Y498819D01*
X682640Y501968D02*
X683840Y498819D01*
X682640Y501968D02*
Y498819D01*
X681591Y501218D02*
Y501368D01*
X681441Y501668D01*
X681291Y501818D01*
X680991Y501968D01*
X680391D01*
X680091Y501818D01*
X679941Y501668D01*
X679791Y501368D01*
Y501068D01*
X679941Y500768D01*
X680241Y500318D01*
X681741Y498819D01*
X679641D01*
X670866Y501968D02*
Y498819D01*
Y501968D02*
X669667Y498819D01*
X668467Y501968D02*
X669667Y498819D01*
X668467Y501968D02*
Y498819D01*
X667567Y501368D02*
X667267Y501518D01*
X666818Y501968D01*
Y498819D01*
X708465Y494487D02*
Y491339D01*
Y494487D02*
X707415D01*
X706965Y494338D01*
X706665Y494038D01*
X706515Y493738D01*
X706365Y493288D01*
Y492538D01*
X706515Y492088D01*
X706665Y491788D01*
X706965Y491489D01*
X707415Y491339D01*
X708465D01*
X705361Y494487D02*
X703711D01*
X704611Y493288D01*
X704161D01*
X703861Y493138D01*
X703711Y492988D01*
X703561Y492538D01*
Y492238D01*
X703711Y491788D01*
X704011Y491489D01*
X704461Y491339D01*
X704911D01*
X705361Y491489D01*
X705511Y491639D01*
X705660Y491938D01*
X711221Y437598D02*
Y434449D01*
Y437598D02*
X710171D01*
X709721Y437448D01*
X709421Y437148D01*
X709271Y436848D01*
X709121Y436398D01*
Y435648D01*
X709271Y435199D01*
X709421Y434899D01*
X709721Y434599D01*
X710171Y434449D01*
X711221D01*
X708266Y436848D02*
Y436998D01*
X708116Y437298D01*
X707967Y437448D01*
X707667Y437598D01*
X707067D01*
X706767Y437448D01*
X706617Y437298D01*
X706467Y436998D01*
Y436698D01*
X706617Y436398D01*
X706917Y435948D01*
X708416Y434449D01*
X706317D01*
X581533Y573509D02*
X581833Y573359D01*
X582133Y573059D01*
X582283Y572759D01*
Y572159D01*
X582133Y571860D01*
X581833Y571560D01*
X581533Y571410D01*
X581083Y571260D01*
X580333D01*
X579884Y571410D01*
X579584Y571560D01*
X579284Y571860D01*
X579134Y572159D01*
Y572759D01*
X579284Y573059D01*
X579584Y573359D01*
X579884Y573509D01*
X581833Y576193D02*
X582133Y576043D01*
X582283Y575593D01*
Y575293D01*
X582133Y574844D01*
X581683Y574544D01*
X580933Y574394D01*
X580184D01*
X579584Y574544D01*
X579284Y574844D01*
X579134Y575293D01*
Y575443D01*
X579284Y575893D01*
X579584Y576193D01*
X580034Y576343D01*
X580184D01*
X580633Y576193D01*
X580933Y575893D01*
X581083Y575443D01*
Y575293D01*
X580933Y574844D01*
X580633Y574544D01*
X580184Y574394D01*
X582283Y577783D02*
X582133Y577333D01*
X581833Y577183D01*
X581533D01*
X581233Y577333D01*
X581083Y577633D01*
X580933Y578232D01*
X580783Y578682D01*
X580483Y578982D01*
X580184Y579132D01*
X579734D01*
X579434Y578982D01*
X579284Y578832D01*
X579134Y578382D01*
Y577783D01*
X579284Y577333D01*
X579434Y577183D01*
X579734Y577033D01*
X580184D01*
X580483Y577183D01*
X580783Y577483D01*
X580933Y577933D01*
X581083Y578532D01*
X581233Y578832D01*
X581533Y578982D01*
X581833D01*
X582133Y578832D01*
X582283Y578382D01*
Y577783D01*
X610667Y573306D02*
X610967Y573156D01*
X611267Y572856D01*
X611417Y572556D01*
Y571956D01*
X611267Y571657D01*
X610967Y571357D01*
X610667Y571207D01*
X610217Y571057D01*
X609467D01*
X609018Y571207D01*
X608718Y571357D01*
X608418Y571657D01*
X608268Y571956D01*
Y572556D01*
X608418Y572856D01*
X608718Y573156D01*
X609018Y573306D01*
X610967Y575990D02*
X611267Y575840D01*
X611417Y575390D01*
Y575090D01*
X611267Y574641D01*
X610817Y574341D01*
X610067Y574191D01*
X609317D01*
X608718Y574341D01*
X608418Y574641D01*
X608268Y575090D01*
Y575240D01*
X608418Y575690D01*
X608718Y575990D01*
X609167Y576140D01*
X609317D01*
X609767Y575990D01*
X610067Y575690D01*
X610217Y575240D01*
Y575090D01*
X610067Y574641D01*
X609767Y574341D01*
X609317Y574191D01*
X611417Y578929D02*
X608268Y577429D01*
X611417Y576830D02*
Y578929D01*
X569404Y561848D02*
X569554Y562148D01*
X569854Y562448D01*
X570154Y562598D01*
X570754D01*
X571054Y562448D01*
X571354Y562148D01*
X571504Y561848D01*
X571654Y561398D01*
Y560648D01*
X571504Y560199D01*
X571354Y559899D01*
X571054Y559599D01*
X570754Y559449D01*
X570154D01*
X569854Y559599D01*
X569554Y559899D01*
X569404Y560199D01*
X566720Y562148D02*
X566870Y562448D01*
X567320Y562598D01*
X567620D01*
X568070Y562448D01*
X568370Y561998D01*
X568520Y561248D01*
Y560499D01*
X568370Y559899D01*
X568070Y559599D01*
X567620Y559449D01*
X567470D01*
X567020Y559599D01*
X566720Y559899D01*
X566570Y560349D01*
Y560499D01*
X566720Y560948D01*
X567020Y561248D01*
X567470Y561398D01*
X567620D01*
X568070Y561248D01*
X568370Y560948D01*
X568520Y560499D01*
X564081Y562148D02*
X564231Y562448D01*
X564681Y562598D01*
X564981D01*
X565431Y562448D01*
X565730Y561998D01*
X565880Y561248D01*
Y560499D01*
X565730Y559899D01*
X565431Y559599D01*
X564981Y559449D01*
X564831D01*
X564381Y559599D01*
X564081Y559899D01*
X563931Y560349D01*
Y560499D01*
X564081Y560948D01*
X564381Y561248D01*
X564831Y561398D01*
X564981D01*
X565431Y561248D01*
X565730Y560948D01*
X565880Y560499D01*
X716572Y569769D02*
X716872Y569619D01*
X717172Y569319D01*
X717322Y569019D01*
Y568419D01*
X717172Y568119D01*
X716872Y567820D01*
X716572Y567670D01*
X716123Y567520D01*
X715373D01*
X714923Y567670D01*
X714623Y567820D01*
X714323Y568119D01*
X714173Y568419D01*
Y569019D01*
X714323Y569319D01*
X714623Y569619D01*
X714923Y569769D01*
X716872Y572453D02*
X717172Y572303D01*
X717322Y571853D01*
Y571553D01*
X717172Y571103D01*
X716722Y570804D01*
X715973Y570654D01*
X715223D01*
X714623Y570804D01*
X714323Y571103D01*
X714173Y571553D01*
Y571703D01*
X714323Y572153D01*
X714623Y572453D01*
X715073Y572603D01*
X715223D01*
X715673Y572453D01*
X715973Y572153D01*
X716123Y571703D01*
Y571553D01*
X715973Y571103D01*
X715673Y570804D01*
X715223Y570654D01*
X716722Y573293D02*
X716872Y573593D01*
X717322Y574043D01*
X714173D01*
X638029Y535320D02*
X638329Y535170D01*
X638629Y534870D01*
X638779Y534570D01*
Y533971D01*
X638629Y533671D01*
X638329Y533371D01*
X638029Y533221D01*
X637579Y533071D01*
X636830D01*
X636380Y533221D01*
X636080Y533371D01*
X635780Y533671D01*
X635630Y533971D01*
Y534570D01*
X635780Y534870D01*
X636080Y535170D01*
X636380Y535320D01*
X638329Y538004D02*
X638629Y537854D01*
X638779Y537404D01*
Y537105D01*
X638629Y536655D01*
X638179Y536355D01*
X637429Y536205D01*
X636680D01*
X636080Y536355D01*
X635780Y536655D01*
X635630Y537105D01*
Y537254D01*
X635780Y537704D01*
X636080Y538004D01*
X636530Y538154D01*
X636680D01*
X637129Y538004D01*
X637429Y537704D01*
X637579Y537254D01*
Y537105D01*
X637429Y536655D01*
X637129Y536355D01*
X636680Y536205D01*
X638029Y538994D02*
X638179D01*
X638479Y539144D01*
X638629Y539294D01*
X638779Y539594D01*
Y540194D01*
X638629Y540493D01*
X638479Y540643D01*
X638179Y540793D01*
X637879D01*
X637579Y540643D01*
X637129Y540343D01*
X635630Y538844D01*
Y540943D01*
X637514Y520116D02*
X637665Y520416D01*
X637964Y520716D01*
X638264Y520865D01*
X638864D01*
X639164Y520716D01*
X639464Y520416D01*
X639614Y520116D01*
X639764Y519666D01*
Y518916D01*
X639614Y518466D01*
X639464Y518166D01*
X639164Y517867D01*
X638864Y517717D01*
X638264D01*
X637964Y517867D01*
X637665Y518166D01*
X637514Y518466D01*
X634831Y520865D02*
X636330D01*
X636480Y519516D01*
X636330Y519666D01*
X635880Y519816D01*
X635430D01*
X634980Y519666D01*
X634681Y519366D01*
X634531Y518916D01*
Y518616D01*
X634681Y518166D01*
X634980Y517867D01*
X635430Y517717D01*
X635880D01*
X636330Y517867D01*
X636480Y518016D01*
X636630Y518316D01*
X631727Y520865D02*
X633226Y517717D01*
X633826Y520865D02*
X631727D01*
X343814Y573265D02*
X343964Y573565D01*
X344264Y573865D01*
X344564Y574015D01*
X345163D01*
X345463Y573865D01*
X345763Y573565D01*
X345913Y573265D01*
X346063Y572816D01*
Y572066D01*
X345913Y571616D01*
X345763Y571316D01*
X345463Y571016D01*
X345163Y570866D01*
X344564D01*
X344264Y571016D01*
X343964Y571316D01*
X343814Y571616D01*
X341130Y574015D02*
X342629D01*
X342779Y572666D01*
X342629Y572816D01*
X342179Y572965D01*
X341729D01*
X341280Y572816D01*
X340980Y572516D01*
X340830Y572066D01*
Y571766D01*
X340980Y571316D01*
X341280Y571016D01*
X341729Y570866D01*
X342179D01*
X342629Y571016D01*
X342779Y571166D01*
X342929Y571466D01*
X338626Y574015D02*
X340125Y571916D01*
X337876D01*
X338626Y574015D02*
Y570866D01*
X383715Y578187D02*
X383865Y578486D01*
X384165Y578786D01*
X384465Y578936D01*
X385065D01*
X385365Y578786D01*
X385665Y578486D01*
X385815Y578187D01*
X385965Y577737D01*
Y576987D01*
X385815Y576537D01*
X385665Y576237D01*
X385365Y575937D01*
X385065Y575787D01*
X384465D01*
X384165Y575937D01*
X383865Y576237D01*
X383715Y576537D01*
X381031Y578936D02*
X382531D01*
X382681Y577587D01*
X382531Y577737D01*
X382081Y577887D01*
X381631D01*
X381181Y577737D01*
X380881Y577437D01*
X380731Y576987D01*
Y576687D01*
X380881Y576237D01*
X381181Y575937D01*
X381631Y575787D01*
X382081D01*
X382531Y575937D01*
X382681Y576087D01*
X382831Y576387D01*
X379727Y578936D02*
X378077D01*
X378977Y577737D01*
X378527D01*
X378227Y577587D01*
X378077Y577437D01*
X377927Y576987D01*
Y576687D01*
X378077Y576237D01*
X378377Y575937D01*
X378827Y575787D01*
X379277D01*
X379727Y575937D01*
X379877Y576087D01*
X380027Y576387D01*
X430428Y577793D02*
X430578Y578093D01*
X430878Y578393D01*
X431178Y578543D01*
X431777D01*
X432077Y578393D01*
X432377Y578093D01*
X432527Y577793D01*
X432677Y577343D01*
Y576593D01*
X432527Y576144D01*
X432377Y575843D01*
X432077Y575544D01*
X431777Y575394D01*
X431178D01*
X430878Y575544D01*
X430578Y575843D01*
X430428Y576144D01*
X427744Y578543D02*
X429243D01*
X429393Y577193D01*
X429243Y577343D01*
X428793Y577493D01*
X428344D01*
X427894Y577343D01*
X427594Y577043D01*
X427444Y576593D01*
Y576293D01*
X427594Y575843D01*
X427894Y575544D01*
X428344Y575394D01*
X428793D01*
X429243Y575544D01*
X429393Y575694D01*
X429543Y575993D01*
X426589Y577793D02*
Y577943D01*
X426439Y578243D01*
X426289Y578393D01*
X425989Y578543D01*
X425390D01*
X425090Y578393D01*
X424940Y578243D01*
X424790Y577943D01*
Y577643D01*
X424940Y577343D01*
X425240Y576893D01*
X426739Y575394D01*
X424640D01*
X401294Y578187D02*
X401444Y578486D01*
X401744Y578786D01*
X402044Y578936D01*
X402644D01*
X402944Y578786D01*
X403243Y578486D01*
X403393Y578187D01*
X403543Y577737D01*
Y576987D01*
X403393Y576537D01*
X403243Y576237D01*
X402944Y575937D01*
X402644Y575787D01*
X402044D01*
X401744Y575937D01*
X401444Y576237D01*
X401294Y576537D01*
X398610Y578936D02*
X400109D01*
X400259Y577587D01*
X400109Y577737D01*
X399660Y577887D01*
X399210D01*
X398760Y577737D01*
X398460Y577437D01*
X398310Y576987D01*
Y576687D01*
X398460Y576237D01*
X398760Y575937D01*
X399210Y575787D01*
X399660D01*
X400109Y575937D01*
X400259Y576087D01*
X400409Y576387D01*
X397605Y578336D02*
X397305Y578486D01*
X396856Y578936D01*
Y575787D01*
X355231Y556927D02*
X355381Y557227D01*
X355681Y557527D01*
X355981Y557677D01*
X356581D01*
X356880Y557527D01*
X357180Y557227D01*
X357330Y556927D01*
X357480Y556477D01*
Y555727D01*
X357330Y555277D01*
X357180Y554977D01*
X356880Y554677D01*
X356581Y554528D01*
X355981D01*
X355681Y554677D01*
X355381Y554977D01*
X355231Y555277D01*
X352547Y557677D02*
X354047D01*
X354196Y556327D01*
X354047Y556477D01*
X353597Y556627D01*
X353147D01*
X352697Y556477D01*
X352397Y556177D01*
X352247Y555727D01*
Y555427D01*
X352397Y554977D01*
X352697Y554677D01*
X353147Y554528D01*
X353597D01*
X354047Y554677D01*
X354196Y554827D01*
X354346Y555127D01*
X350643Y557677D02*
X351093Y557527D01*
X351392Y557077D01*
X351542Y556327D01*
Y555877D01*
X351392Y555127D01*
X351093Y554677D01*
X350643Y554528D01*
X350343D01*
X349893Y554677D01*
X349593Y555127D01*
X349443Y555877D01*
Y556327D01*
X349593Y557077D01*
X349893Y557527D01*
X350343Y557677D01*
X350643D01*
X472751Y509879D02*
X472901Y510179D01*
X473201Y510479D01*
X473500Y510629D01*
X474100D01*
X474400Y510479D01*
X474700Y510179D01*
X474850Y509879D01*
X475000Y509430D01*
Y508680D01*
X474850Y508230D01*
X474700Y507930D01*
X474400Y507630D01*
X474100Y507480D01*
X473500D01*
X473201Y507630D01*
X472901Y507930D01*
X472751Y508230D01*
X470367Y510629D02*
X471866Y508530D01*
X469617D01*
X470367Y510629D02*
Y507480D01*
X468312Y510629D02*
X468762Y510479D01*
X468912Y510179D01*
Y509879D01*
X468762Y509580D01*
X468462Y509430D01*
X467862Y509280D01*
X467413Y509130D01*
X467113Y508830D01*
X466963Y508530D01*
Y508080D01*
X467113Y507780D01*
X467263Y507630D01*
X467712Y507480D01*
X468312D01*
X468762Y507630D01*
X468912Y507780D01*
X469062Y508080D01*
Y508530D01*
X468912Y508830D01*
X468612Y509130D01*
X468162Y509280D01*
X467562Y509430D01*
X467263Y509580D01*
X467113Y509879D01*
Y510179D01*
X467263Y510479D01*
X467712Y510629D01*
X468312D01*
X608502Y504816D02*
X608802Y504666D01*
X609101Y504366D01*
X609251Y504066D01*
Y503467D01*
X609101Y503167D01*
X608802Y502867D01*
X608502Y502717D01*
X608052Y502567D01*
X607302D01*
X606852Y502717D01*
X606552Y502867D01*
X606252Y503167D01*
X606102Y503467D01*
Y504066D01*
X606252Y504366D01*
X606552Y504666D01*
X606852Y504816D01*
X609251Y507200D02*
X607152Y505701D01*
Y507950D01*
X609251Y507200D02*
X606102D01*
X608502Y508655D02*
X608651D01*
X608951Y508805D01*
X609101Y508955D01*
X609251Y509255D01*
Y509854D01*
X609101Y510154D01*
X608951Y510304D01*
X608651Y510454D01*
X608352D01*
X608052Y510304D01*
X607602Y510004D01*
X606102Y508505D01*
Y510604D01*
X470706Y500478D02*
X471006Y500328D01*
X471306Y500028D01*
X471456Y499728D01*
Y499128D01*
X471306Y498828D01*
X471006Y498528D01*
X470706Y498378D01*
X470256Y498228D01*
X469507D01*
X469057Y498378D01*
X468757Y498528D01*
X468457Y498828D01*
X468307Y499128D01*
Y499728D01*
X468457Y500028D01*
X468757Y500328D01*
X469057Y500478D01*
X471456Y502862D02*
X469357Y501362D01*
Y503612D01*
X471456Y502862D02*
X468307D01*
X470856Y504166D02*
X471006Y504466D01*
X471456Y504916D01*
X468307D01*
X259365Y294131D02*
X259515Y294431D01*
X259815Y294731D01*
X260115Y294881D01*
X260715D01*
X261014Y294731D01*
X261314Y294431D01*
X261464Y294131D01*
X261614Y293682D01*
Y292932D01*
X261464Y292482D01*
X261314Y292182D01*
X261014Y291882D01*
X260715Y291732D01*
X260115D01*
X259815Y291882D01*
X259515Y292182D01*
X259365Y292482D01*
X258180Y294881D02*
X256531D01*
X257431Y293682D01*
X256981D01*
X256681Y293532D01*
X256531Y293382D01*
X256381Y292932D01*
Y292632D01*
X256531Y292182D01*
X256831Y291882D01*
X257281Y291732D01*
X257731D01*
X258180Y291882D01*
X258330Y292032D01*
X258480Y292332D01*
X254926Y294881D02*
X255376Y294731D01*
X255526Y294431D01*
Y294131D01*
X255376Y293832D01*
X255076Y293682D01*
X254477Y293532D01*
X254027Y293382D01*
X253727Y293082D01*
X253577Y292782D01*
Y292332D01*
X253727Y292032D01*
X253877Y291882D01*
X254327Y291732D01*
X254926D01*
X255376Y291882D01*
X255526Y292032D01*
X255676Y292332D01*
Y292782D01*
X255526Y293082D01*
X255226Y293382D01*
X254777Y293532D01*
X254177Y293682D01*
X253877Y293832D01*
X253727Y294131D01*
Y294431D01*
X253877Y294731D01*
X254327Y294881D01*
X254926D01*
X750824Y212486D02*
X751124Y212335D01*
X751424Y212036D01*
X751574Y211736D01*
Y211136D01*
X751424Y210836D01*
X751124Y210536D01*
X750824Y210386D01*
X750375Y210236D01*
X749625D01*
X749175Y210386D01*
X748875Y210536D01*
X748575Y210836D01*
X748425Y211136D01*
Y211736D01*
X748575Y212036D01*
X748875Y212335D01*
X749175Y212486D01*
X751574Y213670D02*
Y215319D01*
X750375Y214420D01*
Y214870D01*
X750225Y215170D01*
X750075Y215319D01*
X749625Y215470D01*
X749325D01*
X748875Y215319D01*
X748575Y215020D01*
X748425Y214570D01*
Y214120D01*
X748575Y213670D01*
X748725Y213520D01*
X749025Y213370D01*
X751574Y218273D02*
X748425Y216774D01*
X751574Y216174D02*
Y218273D01*
X707714Y232367D02*
X708014Y232217D01*
X708314Y231918D01*
X708464Y231618D01*
Y231018D01*
X708314Y230718D01*
X708014Y230418D01*
X707714Y230268D01*
X707264Y230118D01*
X706515D01*
X706065Y230268D01*
X705765Y230418D01*
X705465Y230718D01*
X705315Y231018D01*
Y231618D01*
X705465Y231918D01*
X705765Y232217D01*
X706065Y232367D01*
X708464Y233552D02*
Y235201D01*
X707264Y234302D01*
Y234752D01*
X707114Y235051D01*
X706964Y235201D01*
X706515Y235351D01*
X706215D01*
X705765Y235201D01*
X705465Y234901D01*
X705315Y234452D01*
Y234002D01*
X705465Y233552D01*
X705615Y233402D01*
X705915Y233252D01*
X708014Y237856D02*
X708314Y237705D01*
X708464Y237256D01*
Y236956D01*
X708314Y236506D01*
X707864Y236206D01*
X707114Y236056D01*
X706365D01*
X705765Y236206D01*
X705465Y236506D01*
X705315Y236956D01*
Y237106D01*
X705465Y237556D01*
X705765Y237856D01*
X706215Y238005D01*
X706365D01*
X706814Y237856D01*
X707114Y237556D01*
X707264Y237106D01*
Y236956D01*
X707114Y236506D01*
X706814Y236206D01*
X706365Y236056D01*
X650234Y392013D02*
X650534Y391863D01*
X650834Y391563D01*
X650984Y391263D01*
Y390664D01*
X650834Y390364D01*
X650534Y390064D01*
X650234Y389914D01*
X649784Y389764D01*
X649034D01*
X648584Y389914D01*
X648284Y390064D01*
X647985Y390364D01*
X647835Y390664D01*
Y391263D01*
X647985Y391563D01*
X648284Y391863D01*
X648584Y392013D01*
X650984Y393198D02*
Y394847D01*
X649784Y393947D01*
Y394397D01*
X649634Y394697D01*
X649484Y394847D01*
X649034Y394997D01*
X648734D01*
X648284Y394847D01*
X647985Y394547D01*
X647835Y394097D01*
Y393648D01*
X647985Y393198D01*
X648135Y393048D01*
X648434Y392898D01*
X650984Y397501D02*
Y396002D01*
X649634Y395852D01*
X649784Y396002D01*
X649934Y396451D01*
Y396901D01*
X649784Y397351D01*
X649484Y397651D01*
X649034Y397801D01*
X648734D01*
X648284Y397651D01*
X647985Y397351D01*
X647835Y396901D01*
Y396451D01*
X647985Y396002D01*
X648135Y395852D01*
X648434Y395702D01*
X509956Y431730D02*
X510105Y432030D01*
X510405Y432330D01*
X510705Y432480D01*
X511305D01*
X511605Y432330D01*
X511905Y432030D01*
X512055Y431730D01*
X512205Y431280D01*
Y430530D01*
X512055Y430081D01*
X511905Y429781D01*
X511605Y429481D01*
X511305Y429331D01*
X510705D01*
X510405Y429481D01*
X510105Y429781D01*
X509956Y430081D01*
X508771Y432480D02*
X507121D01*
X508021Y431280D01*
X507571D01*
X507271Y431130D01*
X507121Y430980D01*
X506972Y430530D01*
Y430230D01*
X507121Y429781D01*
X507421Y429481D01*
X507871Y429331D01*
X508321D01*
X508771Y429481D01*
X508921Y429631D01*
X509071Y429930D01*
X504767Y432480D02*
X506267Y430380D01*
X504017D01*
X504767Y432480D02*
Y429331D01*
X500900Y416966D02*
X501050Y417266D01*
X501350Y417566D01*
X501650Y417716D01*
X502250D01*
X502550Y417566D01*
X502850Y417266D01*
X503000Y416966D01*
X503150Y416516D01*
Y415766D01*
X503000Y415317D01*
X502850Y415017D01*
X502550Y414717D01*
X502250Y414567D01*
X501650D01*
X501350Y414717D01*
X501050Y415017D01*
X500900Y415317D01*
X499716Y417716D02*
X498066D01*
X498966Y416516D01*
X498516D01*
X498216Y416366D01*
X498066Y416216D01*
X497916Y415766D01*
Y415467D01*
X498066Y415017D01*
X498366Y414717D01*
X498816Y414567D01*
X499266D01*
X499716Y414717D01*
X499866Y414867D01*
X500016Y415167D01*
X496912Y417716D02*
X495262D01*
X496162Y416516D01*
X495712D01*
X495412Y416366D01*
X495262Y416216D01*
X495112Y415766D01*
Y415467D01*
X495262Y415017D01*
X495562Y414717D01*
X496012Y414567D01*
X496462D01*
X496912Y414717D01*
X497062Y414867D01*
X497212Y415167D01*
X737514Y475234D02*
X737665Y475534D01*
X737964Y475834D01*
X738264Y475984D01*
X738864D01*
X739164Y475834D01*
X739464Y475534D01*
X739614Y475234D01*
X739764Y474784D01*
Y474034D01*
X739614Y473584D01*
X739464Y473284D01*
X739164Y472985D01*
X738864Y472835D01*
X738264D01*
X737964Y472985D01*
X737665Y473284D01*
X737514Y473584D01*
X736330Y475984D02*
X734681D01*
X735580Y474784D01*
X735130D01*
X734831Y474634D01*
X734681Y474484D01*
X734531Y474034D01*
Y473734D01*
X734681Y473284D01*
X734980Y472985D01*
X735430Y472835D01*
X735880D01*
X736330Y472985D01*
X736480Y473135D01*
X736630Y473434D01*
X733676Y475234D02*
Y475384D01*
X733526Y475684D01*
X733376Y475834D01*
X733076Y475984D01*
X732476D01*
X732176Y475834D01*
X732026Y475684D01*
X731877Y475384D01*
Y475084D01*
X732026Y474784D01*
X732326Y474334D01*
X733826Y472835D01*
X731727D01*
X706412Y472281D02*
X706562Y472581D01*
X706862Y472881D01*
X707162Y473031D01*
X707762D01*
X708062Y472881D01*
X708361Y472581D01*
X708511Y472281D01*
X708661Y471831D01*
Y471081D01*
X708511Y470632D01*
X708361Y470332D01*
X708062Y470032D01*
X707762Y469882D01*
X707162D01*
X706862Y470032D01*
X706562Y470332D01*
X706412Y470632D01*
X705228Y473031D02*
X703578D01*
X704478Y471831D01*
X704028D01*
X703728Y471681D01*
X703578Y471531D01*
X703428Y471081D01*
Y470782D01*
X703578Y470332D01*
X703878Y470032D01*
X704328Y469882D01*
X704778D01*
X705228Y470032D01*
X705377Y470182D01*
X705527Y470482D01*
X702723Y472431D02*
X702423Y472581D01*
X701974Y473031D01*
Y469882D01*
X738105Y485273D02*
X738255Y485573D01*
X738555Y485873D01*
X738855Y486023D01*
X739455D01*
X739754Y485873D01*
X740054Y485573D01*
X740204Y485273D01*
X740354Y484823D01*
Y484074D01*
X740204Y483624D01*
X740054Y483324D01*
X739754Y483024D01*
X739455Y482874D01*
X738855D01*
X738555Y483024D01*
X738255Y483324D01*
X738105Y483624D01*
X736920Y486023D02*
X735271D01*
X736171Y484823D01*
X735721D01*
X735421Y484673D01*
X735271Y484523D01*
X735121Y484074D01*
Y483774D01*
X735271Y483324D01*
X735571Y483024D01*
X736021Y482874D01*
X736471D01*
X736920Y483024D01*
X737070Y483174D01*
X737220Y483474D01*
X733517Y486023D02*
X733966Y485873D01*
X734266Y485423D01*
X734416Y484673D01*
Y484224D01*
X734266Y483474D01*
X733966Y483024D01*
X733517Y482874D01*
X733217D01*
X732767Y483024D01*
X732467Y483474D01*
X732317Y484224D01*
Y484673D01*
X732467Y485423D01*
X732767Y485873D01*
X733217Y486023D01*
X733517D01*
X735273Y442407D02*
X735573Y442257D01*
X735873Y441957D01*
X736023Y441657D01*
Y441057D01*
X735873Y440757D01*
X735573Y440457D01*
X735273Y440307D01*
X734823Y440158D01*
X734074D01*
X733624Y440307D01*
X733324Y440457D01*
X733024Y440757D01*
X732874Y441057D01*
Y441657D01*
X733024Y441957D01*
X733324Y442257D01*
X733624Y442407D01*
X735273Y443441D02*
X735423D01*
X735723Y443591D01*
X735873Y443741D01*
X736023Y444041D01*
Y444641D01*
X735873Y444941D01*
X735723Y445091D01*
X735423Y445241D01*
X735123D01*
X734823Y445091D01*
X734374Y444791D01*
X732874Y443291D01*
Y445391D01*
X734973Y448045D02*
X734523Y447895D01*
X734224Y447595D01*
X734074Y447145D01*
Y446995D01*
X734224Y446545D01*
X734523Y446245D01*
X734973Y446096D01*
X735123D01*
X735573Y446245D01*
X735873Y446545D01*
X736023Y446995D01*
Y447145D01*
X735873Y447595D01*
X735573Y447895D01*
X734973Y448045D01*
X734224D01*
X733474Y447895D01*
X733024Y447595D01*
X732874Y447145D01*
Y446845D01*
X733024Y446395D01*
X733324Y446245D01*
X296297Y314060D02*
X296597Y313910D01*
X296897Y313610D01*
X297047Y313311D01*
Y312711D01*
X296897Y312411D01*
X296597Y312111D01*
X296297Y311961D01*
X295847Y311811D01*
X295097D01*
X294647Y311961D01*
X294348Y312111D01*
X294048Y312411D01*
X293898Y312711D01*
Y313311D01*
X294048Y313610D01*
X294348Y313910D01*
X294647Y314060D01*
X296297Y315095D02*
X296447D01*
X296747Y315245D01*
X296897Y315395D01*
X297047Y315695D01*
Y316295D01*
X296897Y316594D01*
X296747Y316744D01*
X296447Y316894D01*
X296147D01*
X295847Y316744D01*
X295397Y316444D01*
X293898Y314945D01*
Y317044D01*
X296597Y319548D02*
X296897Y319398D01*
X297047Y318949D01*
Y318649D01*
X296897Y318199D01*
X296447Y317899D01*
X295697Y317749D01*
X294947D01*
X294348Y317899D01*
X294048Y318199D01*
X293898Y318649D01*
Y318799D01*
X294048Y319249D01*
X294348Y319548D01*
X294797Y319698D01*
X294947D01*
X295397Y319548D01*
X295697Y319249D01*
X295847Y318799D01*
Y318649D01*
X295697Y318199D01*
X295397Y317899D01*
X294947Y317749D01*
X314604Y321344D02*
X314904Y321194D01*
X315204Y320894D01*
X315354Y320594D01*
Y319994D01*
X315204Y319694D01*
X314904Y319394D01*
X314604Y319244D01*
X314154Y319094D01*
X313404D01*
X312954Y319244D01*
X312655Y319394D01*
X312355Y319694D01*
X312205Y319994D01*
Y320594D01*
X312355Y320894D01*
X312655Y321194D01*
X312954Y321344D01*
X314604Y322378D02*
X314754D01*
X315054Y322528D01*
X315204Y322678D01*
X315354Y322978D01*
Y323578D01*
X315204Y323878D01*
X315054Y324028D01*
X314754Y324178D01*
X314454D01*
X314154Y324028D01*
X313704Y323728D01*
X312205Y322228D01*
Y324328D01*
X315354Y326832D02*
Y325332D01*
X314004Y325182D01*
X314154Y325332D01*
X314304Y325782D01*
Y326232D01*
X314154Y326682D01*
X313854Y326982D01*
X313404Y327132D01*
X313104D01*
X312655Y326982D01*
X312355Y326682D01*
X312205Y326232D01*
Y325782D01*
X312355Y325332D01*
X312505Y325182D01*
X312805Y325032D01*
X314407Y308352D02*
X314707Y308202D01*
X315007Y307902D01*
X315157Y307602D01*
Y307002D01*
X315007Y306702D01*
X314707Y306402D01*
X314407Y306252D01*
X313957Y306102D01*
X313208D01*
X312758Y306252D01*
X312458Y306402D01*
X312158Y306702D01*
X312008Y307002D01*
Y307602D01*
X312158Y307902D01*
X312458Y308202D01*
X312758Y308352D01*
X314407Y309386D02*
X314557D01*
X314857Y309536D01*
X315007Y309686D01*
X315157Y309986D01*
Y310586D01*
X315007Y310886D01*
X314857Y311036D01*
X314557Y311186D01*
X314257D01*
X313957Y311036D01*
X313507Y310736D01*
X312008Y309236D01*
Y311336D01*
X315157Y313540D02*
X313057Y312040D01*
Y314290D01*
X315157Y313540D02*
X312008D01*
X296297Y326462D02*
X296597Y326312D01*
X296897Y326012D01*
X297047Y325712D01*
Y325112D01*
X296897Y324812D01*
X296597Y324513D01*
X296297Y324363D01*
X295847Y324213D01*
X295097D01*
X294647Y324363D01*
X294348Y324513D01*
X294048Y324812D01*
X293898Y325112D01*
Y325712D01*
X294048Y326012D01*
X294348Y326312D01*
X294647Y326462D01*
X296297Y327497D02*
X296447D01*
X296747Y327646D01*
X296897Y327796D01*
X297047Y328096D01*
Y328696D01*
X296897Y328996D01*
X296747Y329146D01*
X296447Y329296D01*
X296147D01*
X295847Y329146D01*
X295397Y328846D01*
X293898Y327346D01*
Y329446D01*
X297047Y330451D02*
Y332100D01*
X295847Y331200D01*
Y331650D01*
X295697Y331950D01*
X295547Y332100D01*
X295097Y332250D01*
X294797D01*
X294348Y332100D01*
X294048Y331800D01*
X293898Y331350D01*
Y330900D01*
X294048Y330451D01*
X294198Y330300D01*
X294497Y330151D01*
X532517Y280202D02*
X532817Y280052D01*
X533117Y279752D01*
X533267Y279452D01*
Y278853D01*
X533117Y278553D01*
X532817Y278253D01*
X532517Y278103D01*
X532067Y277953D01*
X531318D01*
X530868Y278103D01*
X530568Y278253D01*
X530268Y278553D01*
X530118Y278853D01*
Y279452D01*
X530268Y279752D01*
X530568Y280052D01*
X530868Y280202D01*
X532667Y281087D02*
X532817Y281387D01*
X533267Y281837D01*
X530118D01*
X533267Y285195D02*
Y283696D01*
X531917Y283546D01*
X532067Y283696D01*
X532217Y284146D01*
Y284595D01*
X532067Y285045D01*
X531768Y285345D01*
X531318Y285495D01*
X531018D01*
X530568Y285345D01*
X530268Y285045D01*
X530118Y284595D01*
Y284146D01*
X530268Y283696D01*
X530418Y283546D01*
X530718Y283396D01*
X615664Y332996D02*
X615814Y333296D01*
X616114Y333596D01*
X616414Y333746D01*
X617014D01*
X617314Y333596D01*
X617614Y333296D01*
X617763Y332996D01*
X617913Y332546D01*
Y331797D01*
X617763Y331347D01*
X617614Y331047D01*
X617314Y330747D01*
X617014Y330597D01*
X616414D01*
X616114Y330747D01*
X615814Y331047D01*
X615664Y331347D01*
X614779Y333146D02*
X614480Y333296D01*
X614030Y333746D01*
Y330597D01*
X610971Y333746D02*
X612470Y331647D01*
X610221D01*
X610971Y333746D02*
Y330597D01*
X513029Y234926D02*
X513329Y234776D01*
X513629Y234477D01*
X513779Y234177D01*
Y233577D01*
X513629Y233277D01*
X513329Y232977D01*
X513029Y232827D01*
X512579Y232677D01*
X511830D01*
X511380Y232827D01*
X511080Y232977D01*
X510780Y233277D01*
X510630Y233577D01*
Y234177D01*
X510780Y234477D01*
X511080Y234776D01*
X511380Y234926D01*
X513179Y235811D02*
X513329Y236111D01*
X513779Y236561D01*
X510630D01*
X513779Y238420D02*
Y240070D01*
X512579Y239170D01*
Y239620D01*
X512429Y239920D01*
X512279Y240070D01*
X511830Y240220D01*
X511530D01*
X511080Y240070D01*
X510780Y239770D01*
X510630Y239320D01*
Y238870D01*
X510780Y238420D01*
X510930Y238270D01*
X511230Y238120D01*
X513029Y250478D02*
X513329Y250328D01*
X513629Y250028D01*
X513779Y249728D01*
Y249128D01*
X513629Y248828D01*
X513329Y248528D01*
X513029Y248378D01*
X512579Y248228D01*
X511830D01*
X511380Y248378D01*
X511080Y248528D01*
X510780Y248828D01*
X510630Y249128D01*
Y249728D01*
X510780Y250028D01*
X511080Y250328D01*
X511380Y250478D01*
X513179Y251362D02*
X513329Y251662D01*
X513779Y252112D01*
X510630D01*
X513029Y253821D02*
X513179D01*
X513479Y253971D01*
X513629Y254121D01*
X513779Y254421D01*
Y255021D01*
X513629Y255321D01*
X513479Y255471D01*
X513179Y255621D01*
X512879D01*
X512579Y255471D01*
X512129Y255171D01*
X510630Y253672D01*
Y255771D01*
X561333Y249840D02*
X561483Y250140D01*
X561783Y250440D01*
X562083Y250590D01*
X562683D01*
X562983Y250440D01*
X563283Y250140D01*
X563433Y249840D01*
X563583Y249390D01*
Y248640D01*
X563433Y248191D01*
X563283Y247891D01*
X562983Y247591D01*
X562683Y247441D01*
X562083D01*
X561783Y247591D01*
X561483Y247891D01*
X561333Y248191D01*
X558649Y250140D02*
X558799Y250440D01*
X559249Y250590D01*
X559549D01*
X559999Y250440D01*
X560299Y249990D01*
X560449Y249240D01*
Y248491D01*
X560299Y247891D01*
X559999Y247591D01*
X559549Y247441D01*
X559399D01*
X558949Y247591D01*
X558649Y247891D01*
X558499Y248341D01*
Y248491D01*
X558649Y248940D01*
X558949Y249240D01*
X559399Y249390D01*
X559549D01*
X559999Y249240D01*
X560299Y248940D01*
X560449Y248491D01*
X321297Y564454D02*
X321597Y564304D01*
X321897Y564004D01*
X322047Y563704D01*
Y563104D01*
X321897Y562805D01*
X321597Y562505D01*
X321297Y562355D01*
X320847Y562205D01*
X320097D01*
X319647Y562355D01*
X319348Y562505D01*
X319048Y562805D01*
X318898Y563104D01*
Y563704D01*
X319048Y564004D01*
X319348Y564304D01*
X319647Y564454D01*
X322047Y566838D02*
X319947Y565339D01*
Y567588D01*
X322047Y566838D02*
X318898D01*
X231336Y303824D02*
X231636Y303674D01*
X231936Y303374D01*
X232086Y303074D01*
Y302474D01*
X231936Y302175D01*
X231636Y301875D01*
X231336Y301725D01*
X230886Y301575D01*
X230137D01*
X229687Y301725D01*
X229387Y301875D01*
X229087Y302175D01*
X228937Y302474D01*
Y303074D01*
X229087Y303374D01*
X229387Y303674D01*
X229687Y303824D01*
X231486Y304709D02*
X231636Y305009D01*
X232086Y305458D01*
X228937D01*
X286848Y305989D02*
X287148Y305839D01*
X287448Y305540D01*
X287598Y305240D01*
Y304640D01*
X287448Y304340D01*
X287148Y304040D01*
X286848Y303890D01*
X286398Y303740D01*
X285648D01*
X285199Y303890D01*
X284899Y304040D01*
X284599Y304340D01*
X284449Y304640D01*
Y305240D01*
X284599Y305540D01*
X284899Y305839D01*
X285199Y305989D01*
X286848Y307024D02*
X286998D01*
X287298Y307174D01*
X287448Y307324D01*
X287598Y307624D01*
Y308224D01*
X287448Y308524D01*
X287298Y308674D01*
X286998Y308823D01*
X286698D01*
X286398Y308674D01*
X285948Y308374D01*
X284449Y306874D01*
Y308973D01*
X534449Y514369D02*
Y511221D01*
Y514369D02*
X533099D01*
X532649Y514220D01*
X532500Y514070D01*
X532349Y513770D01*
Y513470D01*
X532500Y513170D01*
X532649Y513020D01*
X533099Y512870D01*
X534449D02*
X533099D01*
X532649Y512720D01*
X532500Y512570D01*
X532349Y512270D01*
Y511820D01*
X532500Y511520D01*
X532649Y511370D01*
X533099Y511221D01*
X534449D01*
X531645Y514369D02*
Y511221D01*
X530835Y513620D02*
Y513770D01*
X530685Y514070D01*
X530535Y514220D01*
X530235Y514369D01*
X529635D01*
X529335Y514220D01*
X529186Y514070D01*
X529036Y513770D01*
Y513470D01*
X529186Y513170D01*
X529486Y512720D01*
X530985Y511221D01*
X528886D01*
X534055Y503543D02*
Y500394D01*
Y503543D02*
X532706D01*
X532256Y503393D01*
X532106Y503243D01*
X531956Y502943D01*
Y502643D01*
X532106Y502343D01*
X532256Y502193D01*
X532706Y502043D01*
X534055D02*
X532706D01*
X532256Y501893D01*
X532106Y501743D01*
X531956Y501443D01*
Y500993D01*
X532106Y500694D01*
X532256Y500544D01*
X532706Y500394D01*
X534055D01*
X531251Y503543D02*
Y500394D01*
X530591Y502943D02*
X530291Y503093D01*
X529842Y503543D01*
Y500394D01*
X503506Y494488D02*
X504706Y497637D01*
X505905Y494488D01*
X505456Y495538D02*
X503956D01*
X502772Y497637D02*
Y494488D01*
X501962Y496887D02*
Y497037D01*
X501812Y497337D01*
X501662Y497487D01*
X501362Y497637D01*
X500762D01*
X500462Y497487D01*
X500312Y497337D01*
X500162Y497037D01*
Y496737D01*
X500312Y496438D01*
X500612Y495988D01*
X502112Y494488D01*
X500012D01*
X529294Y483858D02*
X530493Y487007D01*
X531693Y483858D01*
X531243Y484908D02*
X529744D01*
X528559Y487007D02*
Y483858D01*
X527899Y486407D02*
X527599Y486557D01*
X527149Y487007D01*
Y483858D01*
D18*
X242682Y478976D02*
X249767D01*
X242682D02*
X249767Y476277D01*
X242682Y473578D02*
X249767Y476277D01*
X242682Y473578D02*
X249767D01*
Y466156D02*
X242682Y468855D01*
X249767Y471554D01*
X247406Y470542D02*
Y467168D01*
X242682Y462141D02*
X249767D01*
X242682Y464502D02*
Y459779D01*
Y456574D02*
X249767D01*
X242682Y458936D02*
Y454212D01*
Y453369D02*
X249767D01*
X242682Y448645D02*
X249767D01*
X246056Y453369D02*
Y448645D01*
X242682Y442303D02*
Y446689D01*
X249767D01*
Y442303D01*
X246056Y446689D02*
Y443990D01*
X242682Y441122D02*
X249767Y439435D01*
X242682Y437748D02*
X249767Y439435D01*
X242682Y437748D02*
X249767Y436061D01*
X242682Y434374D02*
X249767Y436061D01*
X242682Y427390D02*
X249767D01*
X242682Y422667D02*
X249767D01*
X246056Y427390D02*
Y422667D01*
X242682Y416324D02*
Y420710D01*
X249767D01*
Y416324D01*
X246056Y420710D02*
Y418011D01*
X242682Y415143D02*
X249767D01*
X242682D02*
X249767Y410420D01*
X242682D02*
X249767D01*
X244369Y403402D02*
X243694Y403739D01*
X243020Y404414D01*
X242682Y405089D01*
Y406438D01*
X243020Y407113D01*
X243694Y407788D01*
X244369Y408125D01*
X245381Y408463D01*
X247068D01*
X248080Y408125D01*
X248755Y407788D01*
X249430Y407113D01*
X249767Y406438D01*
Y405089D01*
X249430Y404414D01*
X248755Y403739D01*
X248080Y403402D01*
X247068D01*
Y405089D02*
Y403402D01*
X242682Y397397D02*
Y401783D01*
X249767D01*
Y397397D01*
X246056Y401783D02*
Y399083D01*
X242682Y396216D02*
X249767Y393517D01*
X242682Y390818D02*
X249767Y393517D01*
X242682Y385521D02*
Y389907D01*
X249767D01*
Y385521D01*
X246056Y389907D02*
Y387208D01*
X242682Y384340D02*
X249767D01*
Y380291D01*
X242682Y379515D02*
X249767D01*
X242682D02*
Y377153D01*
X243020Y376141D01*
X243694Y375467D01*
X244369Y375129D01*
X245381Y374792D01*
X247068D01*
X248080Y375129D01*
X248755Y375467D01*
X249430Y376141D01*
X249767Y377153D01*
Y379515D01*
X254019Y477289D02*
X254357Y478302D01*
X255031Y478639D01*
X255706D01*
X256381Y478302D01*
X256718Y477627D01*
X257056Y476277D01*
X257393Y475265D01*
X258068Y474590D01*
X258742Y474253D01*
X259755D01*
X260429Y474590D01*
X260767Y474928D01*
X261104Y475940D01*
Y477289D01*
X260767Y478302D01*
X260429Y478639D01*
X259755Y478976D01*
X258742D01*
X258068Y478639D01*
X257393Y477964D01*
X257056Y476952D01*
X256718Y475602D01*
X256381Y474928D01*
X255706Y474590D01*
X255031D01*
X254357Y474928D01*
X254019Y475940D01*
Y477289D01*
Y468619D02*
Y471992D01*
X257056Y472330D01*
X256718Y471992D01*
X256381Y470980D01*
Y469968D01*
X256718Y468956D01*
X257393Y468281D01*
X258405Y467944D01*
X259080D01*
X260092Y468281D01*
X260767Y468956D01*
X261104Y469968D01*
Y470980D01*
X260767Y471992D01*
X260429Y472330D01*
X259755Y472667D01*
X254019Y465683D02*
Y461972D01*
X256718Y463997D01*
Y462984D01*
X257056Y462310D01*
X257393Y461972D01*
X258405Y461635D01*
X259080D01*
X260092Y461972D01*
X260767Y462647D01*
X261104Y463659D01*
Y464671D01*
X260767Y465683D01*
X260429Y466021D01*
X259755Y466358D01*
X254019Y456675D02*
X258742Y460049D01*
Y454988D01*
X254019Y456675D02*
X261104D01*
X254019Y453065D02*
Y449354D01*
X256718Y451378D01*
Y450366D01*
X257056Y449691D01*
X257393Y449354D01*
X258405Y449017D01*
X259080D01*
X260092Y449354D01*
X260767Y450029D01*
X261104Y451041D01*
Y452053D01*
X260767Y453065D01*
X260429Y453403D01*
X259755Y453740D01*
X254019Y446756D02*
Y443045D01*
X256718Y445069D01*
Y444057D01*
X257056Y443382D01*
X257393Y443045D01*
X258405Y442707D01*
X259080D01*
X260092Y443045D01*
X260767Y443720D01*
X261104Y444732D01*
Y445744D01*
X260767Y446756D01*
X260429Y447093D01*
X259755Y447431D01*
X255369Y441122D02*
X255031Y440447D01*
X254019Y439435D01*
X261104D01*
X265356Y478976D02*
X272441D01*
X265356D02*
Y474590D01*
X268730Y478976D02*
Y476277D01*
X265356Y469395D02*
Y473781D01*
X272441D01*
Y469395D01*
X268730Y473781D02*
Y471082D01*
X265356Y468214D02*
X272441D01*
X265356D02*
Y465177D01*
X265693Y464165D01*
X266031Y463828D01*
X266705Y463490D01*
X267380D01*
X268055Y463828D01*
X268392Y464165D01*
X268730Y465177D01*
Y468214D02*
Y465177D01*
X269067Y464165D01*
X269405Y463828D01*
X270079Y463490D01*
X271091D01*
X271766Y463828D01*
X272104Y464165D01*
X272441Y465177D01*
Y468214D01*
X267043Y456000D02*
X266705D01*
X266031Y455663D01*
X265693Y455326D01*
X265356Y454651D01*
Y453301D01*
X265693Y452627D01*
X266031Y452289D01*
X266705Y451952D01*
X267380D01*
X268055Y452289D01*
X269067Y452964D01*
X272441Y456338D01*
Y451614D01*
X265356Y448004D02*
X265693Y449017D01*
X266705Y449691D01*
X268392Y450029D01*
X269405D01*
X271091Y449691D01*
X272104Y449017D01*
X272441Y448004D01*
Y447330D01*
X272104Y446317D01*
X271091Y445643D01*
X269405Y445305D01*
X268392D01*
X266705Y445643D01*
X265693Y446317D01*
X265356Y447330D01*
Y448004D01*
X266705Y443720D02*
X266368Y443045D01*
X265356Y442033D01*
X272441D01*
X267718Y434138D02*
X268730Y434475D01*
X269405Y435150D01*
X269742Y436162D01*
Y436500D01*
X269405Y437512D01*
X268730Y438187D01*
X267718Y438524D01*
X267380D01*
X266368Y438187D01*
X265693Y437512D01*
X265356Y436500D01*
Y436162D01*
X265693Y435150D01*
X266368Y434475D01*
X267718Y434138D01*
X269405D01*
X271091Y434475D01*
X272104Y435150D01*
X272441Y436162D01*
Y436837D01*
X272104Y437849D01*
X271429Y438187D01*
D20*
X223230Y473419D02*
Y478780D01*
X231890D01*
Y473419D01*
X227354Y478780D02*
Y475481D01*
X224467Y466203D02*
X223643Y467027D01*
X223230Y468264D01*
Y469914D01*
X223643Y471151D01*
X224467Y471976D01*
X225292D01*
X226117Y471563D01*
X226529Y471151D01*
X226941Y470326D01*
X227766Y467852D01*
X228179Y467027D01*
X228591Y466615D01*
X229416Y466203D01*
X230653D01*
X231477Y467027D01*
X231890Y468264D01*
Y469914D01*
X231477Y471151D01*
X230653Y471976D01*
X223230Y458904D02*
Y464264D01*
X231890D01*
Y458904D01*
X227354Y464264D02*
Y460966D01*
X223230Y445296D02*
Y450657D01*
X231890D01*
Y445296D01*
X227354Y450657D02*
Y447358D01*
X223230Y443853D02*
X231890D01*
X223230D02*
X231890Y440554D01*
X223230Y437255D02*
X231890Y440554D01*
X223230Y437255D02*
X231890D01*
X223230Y434781D02*
X231890D01*
X223230D02*
Y431070D01*
X223643Y429832D01*
X224055Y429420D01*
X224880Y429008D01*
X225704D01*
X226529Y429420D01*
X226941Y429832D01*
X227354Y431070D01*
Y434781D02*
Y431070D01*
X227766Y429832D01*
X228179Y429420D01*
X229003Y429008D01*
X230240D01*
X231065Y429420D01*
X231477Y429832D01*
X231890Y431070D01*
Y434781D01*
X223230Y421709D02*
Y427070D01*
X231890D01*
Y421709D01*
X227354Y427070D02*
Y423771D01*
X223230Y420266D02*
X231890D01*
X223230D02*
Y417379D01*
X223643Y416142D01*
X224467Y415317D01*
X225292Y414905D01*
X226529Y414493D01*
X228591D01*
X229828Y414905D01*
X230653Y415317D01*
X231477Y416142D01*
X231890Y417379D01*
Y420266D01*
X223230Y412555D02*
X231890D01*
X223230D02*
Y409668D01*
X223643Y408431D01*
X224467Y407606D01*
X225292Y407194D01*
X226529Y406781D01*
X228591D01*
X229828Y407194D01*
X230653Y407606D01*
X231477Y408431D01*
X231890Y409668D01*
Y412555D01*
X223230Y399483D02*
Y404843D01*
X231890D01*
Y399483D01*
X227354Y404843D02*
Y401545D01*
X223230Y398039D02*
X231890D01*
X223230D02*
Y395153D01*
X223643Y393916D01*
X224467Y393091D01*
X225292Y392679D01*
X226529Y392266D01*
X228591D01*
X229828Y392679D01*
X230653Y393091D01*
X231477Y393916D01*
X231890Y395153D01*
Y398039D01*
X225292Y377339D02*
X224467Y377751D01*
X223643Y378576D01*
X223230Y379401D01*
Y381050D01*
X223643Y381875D01*
X224467Y382700D01*
X225292Y383112D01*
X226529Y383524D01*
X228591D01*
X229828Y383112D01*
X230653Y382700D01*
X231477Y381875D01*
X231890Y381050D01*
Y379401D01*
X231477Y378576D01*
X230653Y377751D01*
X229828Y377339D01*
X223230Y372432D02*
X223643Y373257D01*
X224467Y374081D01*
X225292Y374494D01*
X226529Y374906D01*
X228591D01*
X229828Y374494D01*
X230653Y374081D01*
X231477Y373257D01*
X231890Y372432D01*
Y370782D01*
X231477Y369958D01*
X230653Y369133D01*
X229828Y368721D01*
X228591Y368308D01*
X226529D01*
X225292Y368721D01*
X224467Y369133D01*
X223643Y369958D01*
X223230Y370782D01*
Y372432D01*
Y366288D02*
X231890D01*
X223230D02*
X231890Y360515D01*
X223230D02*
X231890D01*
X223230Y355236D02*
X231890D01*
X223230Y358123D02*
Y352350D01*
Y351319D02*
X231890D01*
X223230D02*
Y347608D01*
X223643Y346371D01*
X224055Y345958D01*
X224880Y345546D01*
X225704D01*
X226529Y345958D01*
X226941Y346371D01*
X227354Y347608D01*
Y351319D01*
Y348432D02*
X231890Y345546D01*
X223230Y341134D02*
X223643Y341958D01*
X224467Y342783D01*
X225292Y343196D01*
X226529Y343608D01*
X228591D01*
X229828Y343196D01*
X230653Y342783D01*
X231477Y341958D01*
X231890Y341134D01*
Y339484D01*
X231477Y338660D01*
X230653Y337835D01*
X229828Y337422D01*
X228591Y337010D01*
X226529D01*
X225292Y337422D01*
X224467Y337835D01*
X223643Y338660D01*
X223230Y339484D01*
Y341134D01*
Y334990D02*
X231890D01*
Y330041D01*
X223230Y329093D02*
X231890D01*
Y324145D01*
X223230Y317835D02*
Y323196D01*
X231890D01*
Y317835D01*
X227354Y323196D02*
Y319897D01*
X223230Y316392D02*
X231890D01*
X223230D02*
Y312681D01*
X223643Y311444D01*
X224055Y311031D01*
X224880Y310619D01*
X225704D01*
X226529Y311031D01*
X226941Y311444D01*
X227354Y312681D01*
Y316392D01*
Y313506D02*
X231890Y310619D01*
D21*
X522441Y490945D02*
D03*
X508071Y490945D02*
D03*
X525485Y507677D02*
D03*
X525485Y496850D02*
D03*
D171*
X692659Y532677D02*
D03*
X682087Y514173D02*
D03*
X668799Y514764D02*
D03*
M02*
