G04*
G04 #@! TF.GenerationSoftware,Altium Limited,Altium Designer,19.0.10 (269)*
G04*
G04 Layer_Color=16711935*
%FSLAX25Y25*%
%MOIN*%
G70*
G01*
G75*
%ADD57R,0.03753X0.04147*%
%ADD60R,0.04147X0.03556*%
%ADD61R,0.04343X0.03753*%
%ADD64R,0.04343X0.03950*%
%ADD82R,0.04147X0.03753*%
%ADD87R,0.03950X0.04343*%
%ADD89R,0.03556X0.04147*%
%ADD90R,0.06115X0.05328*%
%ADD92R,0.06706X0.06706*%
%ADD93C,0.06706*%
G04:AMPARAMS|DCode=94|XSize=236.35mil|YSize=169.42mil|CornerRadius=84.71mil|HoleSize=0mil|Usage=FLASHONLY|Rotation=0.000|XOffset=0mil|YOffset=0mil|HoleType=Round|Shape=RoundedRectangle|*
%AMROUNDEDRECTD94*
21,1,0.23635,0.00000,0,0,0.0*
21,1,0.06693,0.16942,0,0,0.0*
1,1,0.16942,0.03347,0.00000*
1,1,0.16942,-0.03347,0.00000*
1,1,0.16942,-0.03347,0.00000*
1,1,0.16942,0.03347,0.00000*
%
%ADD94ROUNDEDRECTD94*%
G04:AMPARAMS|DCode=95|XSize=196.98mil|YSize=244.22mil|CornerRadius=98.49mil|HoleSize=0mil|Usage=FLASHONLY|Rotation=0.000|XOffset=0mil|YOffset=0mil|HoleType=Round|Shape=RoundedRectangle|*
%AMROUNDEDRECTD95*
21,1,0.19698,0.04724,0,0,0.0*
21,1,0.00000,0.24422,0,0,0.0*
1,1,0.19698,0.00000,-0.02362*
1,1,0.19698,0.00000,-0.02362*
1,1,0.19698,0.00000,0.02362*
1,1,0.19698,0.00000,0.02362*
%
%ADD95ROUNDEDRECTD95*%
G04:AMPARAMS|DCode=96|XSize=169.42mil|YSize=236.35mil|CornerRadius=84.71mil|HoleSize=0mil|Usage=FLASHONLY|Rotation=270.000|XOffset=0mil|YOffset=0mil|HoleType=Round|Shape=RoundedRectangle|*
%AMROUNDEDRECTD96*
21,1,0.16942,0.06693,0,0,270.0*
21,1,0.00000,0.23635,0,0,270.0*
1,1,0.16942,-0.03347,0.00000*
1,1,0.16942,-0.03347,0.00000*
1,1,0.16942,0.03347,0.00000*
1,1,0.16942,0.03347,0.00000*
%
%ADD96ROUNDEDRECTD96*%
%ADD97C,0.07099*%
%ADD98R,0.06706X0.06706*%
%ADD99C,0.19698*%
%ADD100R,0.07887X0.07887*%
%ADD101C,0.07887*%
%ADD102R,0.07099X0.07099*%
%ADD103O,0.08674X0.15761*%
%ADD104C,0.05918*%
%ADD105O,0.07099X0.05524*%
G04:AMPARAMS|DCode=106|XSize=70.99mil|YSize=55.24mil|CornerRadius=27.62mil|HoleSize=0mil|Usage=FLASHONLY|Rotation=0.000|XOffset=0mil|YOffset=0mil|HoleType=Round|Shape=RoundedRectangle|*
%AMROUNDEDRECTD106*
21,1,0.07099,0.00000,0,0,0.0*
21,1,0.01575,0.05524,0,0,0.0*
1,1,0.05524,0.00787,0.00000*
1,1,0.05524,-0.00787,0.00000*
1,1,0.05524,-0.00787,0.00000*
1,1,0.05524,0.00787,0.00000*
%
%ADD106ROUNDEDRECTD106*%
%ADD107C,0.06902*%
%ADD108R,0.06902X0.06902*%
%ADD109C,0.31115*%
%ADD110C,0.03556*%
%ADD111C,0.04343*%
%ADD112C,0.03753*%
%ADD113C,0.04737*%
%ADD160R,0.12611X0.15800*%
%ADD161R,0.03753X0.04343*%
%ADD162R,0.04147X0.04343*%
%ADD163R,0.06115X0.04934*%
%ADD164R,0.04737X0.06115*%
%ADD165R,0.05328X0.06115*%
%ADD166R,0.05524X0.03950*%
%ADD167R,0.06902X0.04343*%
%ADD168R,0.06706X0.12611*%
%ADD169R,0.03556X0.02769*%
%ADD170R,0.02769X0.03556*%
D57*
X468405Y513779D02*
D03*
X473327D02*
D03*
D60*
X372287Y572342D02*
D03*
Y577264D02*
D03*
X419449Y571949D02*
D03*
Y576870D02*
D03*
X600187Y337697D02*
D03*
Y342618D02*
D03*
X471063Y434744D02*
D03*
Y439665D02*
D03*
X743701Y582874D02*
D03*
Y577953D02*
D03*
X485433Y487362D02*
D03*
Y482441D02*
D03*
X476378Y539764D02*
D03*
Y544685D02*
D03*
X592953Y572736D02*
D03*
Y577658D02*
D03*
X622323Y572736D02*
D03*
Y577658D02*
D03*
X750000Y577953D02*
D03*
Y582874D02*
D03*
X280433Y299213D02*
D03*
Y294291D02*
D03*
X220433Y501476D02*
D03*
Y496555D02*
D03*
X230433Y501476D02*
D03*
Y496555D02*
D03*
X273622Y299213D02*
D03*
Y304134D02*
D03*
X362205Y567520D02*
D03*
Y572441D02*
D03*
X426772Y566043D02*
D03*
Y561122D02*
D03*
X409449Y567126D02*
D03*
Y572047D02*
D03*
X525591Y275098D02*
D03*
Y270177D02*
D03*
X607874Y499311D02*
D03*
Y494390D02*
D03*
X458268Y499980D02*
D03*
Y504902D02*
D03*
D61*
X745079Y217028D02*
D03*
Y212106D02*
D03*
X711929Y236713D02*
D03*
Y231791D02*
D03*
X320197Y570374D02*
D03*
Y575295D02*
D03*
X280433Y309055D02*
D03*
Y304134D02*
D03*
X230433Y298228D02*
D03*
Y293307D02*
D03*
X734173Y451476D02*
D03*
Y456398D02*
D03*
X644095Y391634D02*
D03*
Y396555D02*
D03*
X464567Y504823D02*
D03*
Y499902D02*
D03*
X615158Y494390D02*
D03*
Y499311D02*
D03*
D64*
X692659Y524409D02*
D03*
Y535433D02*
D03*
Y529921D02*
D03*
X649567Y511909D02*
D03*
Y516831D02*
D03*
X586221Y577651D02*
D03*
Y572730D02*
D03*
X682087Y511417D02*
D03*
Y516929D02*
D03*
Y505905D02*
D03*
X668799Y506496D02*
D03*
Y517520D02*
D03*
Y512008D02*
D03*
X615748Y572730D02*
D03*
Y577651D02*
D03*
X710630Y573819D02*
D03*
Y568898D02*
D03*
X531496Y275098D02*
D03*
Y270177D02*
D03*
D82*
X641929Y534941D02*
D03*
Y539862D02*
D03*
D87*
X396654Y572047D02*
D03*
X401575D02*
D03*
X530709Y490945D02*
D03*
X519685D02*
D03*
X525197D02*
D03*
X499803D02*
D03*
X510827D02*
D03*
X505315D02*
D03*
X533752Y507677D02*
D03*
X522728D02*
D03*
X528240D02*
D03*
X533752Y496850D02*
D03*
X522728D02*
D03*
X528240D02*
D03*
X646161Y524016D02*
D03*
X641240D02*
D03*
X379567Y572441D02*
D03*
X384488D02*
D03*
X426673Y572047D02*
D03*
X431595D02*
D03*
X354331Y572441D02*
D03*
X349410D02*
D03*
X738681Y479331D02*
D03*
X733760D02*
D03*
X738681Y469331D02*
D03*
X733760D02*
D03*
X600177Y331847D02*
D03*
X605098D02*
D03*
D89*
X456398Y314961D02*
D03*
X451476D02*
D03*
X478346Y494488D02*
D03*
X473425D02*
D03*
X439665Y305709D02*
D03*
X435138D02*
D03*
X470866Y544685D02*
D03*
X465945D02*
D03*
X592953Y566535D02*
D03*
X597874D02*
D03*
X622323D02*
D03*
X627244D02*
D03*
X439862Y287992D02*
D03*
X434941D02*
D03*
X456398Y323819D02*
D03*
X451476D02*
D03*
X435138Y296850D02*
D03*
X439665D02*
D03*
X379567Y566541D02*
D03*
X384488D02*
D03*
X600171Y319951D02*
D03*
X605092D02*
D03*
Y325899D02*
D03*
X600171D02*
D03*
X543799Y270276D02*
D03*
X548721D02*
D03*
D90*
X319882Y313356D02*
D03*
Y307648D02*
D03*
X302165Y313090D02*
D03*
Y318799D02*
D03*
X319882Y326152D02*
D03*
Y320443D02*
D03*
X302165Y325886D02*
D03*
Y331594D02*
D03*
D92*
X504646Y439606D02*
D03*
X452598Y349063D02*
D03*
X529528Y364173D02*
D03*
X250433Y586221D02*
D03*
X503937Y405512D02*
D03*
X641929Y209646D02*
D03*
X679567Y586811D02*
D03*
X720630Y586614D02*
D03*
X549567Y209134D02*
D03*
X612323Y586221D02*
D03*
X582953D02*
D03*
X352287Y586614D02*
D03*
X399449D02*
D03*
X290197Y586811D02*
D03*
X474252Y586614D02*
D03*
X515748D02*
D03*
D93*
X494646Y439606D02*
D03*
X484646D02*
D03*
X462598Y349063D02*
D03*
X539528Y364173D02*
D03*
X456693Y399606D02*
D03*
Y409606D02*
D03*
Y419606D02*
D03*
Y429606D02*
D03*
Y439606D02*
D03*
X260433Y586221D02*
D03*
X653937Y405512D02*
D03*
X643937D02*
D03*
X633937D02*
D03*
X623937D02*
D03*
X613937D02*
D03*
X603937D02*
D03*
X593937D02*
D03*
X583937D02*
D03*
X573937D02*
D03*
X563937D02*
D03*
X553937D02*
D03*
X543937D02*
D03*
X533937D02*
D03*
X523937D02*
D03*
X513937D02*
D03*
X641929Y219646D02*
D03*
X651929Y209646D02*
D03*
Y219646D02*
D03*
X661929Y209646D02*
D03*
Y219646D02*
D03*
X671929Y209646D02*
D03*
Y219646D02*
D03*
X681929Y209646D02*
D03*
Y219646D02*
D03*
X691929Y209646D02*
D03*
Y219646D02*
D03*
X701929Y209646D02*
D03*
Y219646D02*
D03*
X711929Y209646D02*
D03*
Y219646D02*
D03*
X731929D02*
D03*
Y209646D02*
D03*
X721929Y219646D02*
D03*
Y209646D02*
D03*
X669567Y586811D02*
D03*
X659567D02*
D03*
X649567D02*
D03*
X700630Y586614D02*
D03*
X710630D02*
D03*
X773465Y502441D02*
D03*
X783465D02*
D03*
X773465Y492441D02*
D03*
X783465D02*
D03*
X773465Y482441D02*
D03*
X783465D02*
D03*
X773465Y472441D02*
D03*
X783465D02*
D03*
X773465Y462441D02*
D03*
X783465D02*
D03*
X773465Y452441D02*
D03*
X783465D02*
D03*
X773465Y442441D02*
D03*
X783465D02*
D03*
X773465Y432441D02*
D03*
Y308425D02*
D03*
X783465Y318425D02*
D03*
X773465D02*
D03*
X783465Y328425D02*
D03*
X773465D02*
D03*
X783465Y338425D02*
D03*
X773465D02*
D03*
X783465Y348425D02*
D03*
X773465D02*
D03*
X783465Y358425D02*
D03*
X773465D02*
D03*
X783465Y368425D02*
D03*
X773465D02*
D03*
X783465Y378425D02*
D03*
X773465D02*
D03*
X549567Y219134D02*
D03*
X559567Y209134D02*
D03*
Y219134D02*
D03*
X569567Y209134D02*
D03*
Y219134D02*
D03*
X579567Y209134D02*
D03*
Y219134D02*
D03*
X589567Y209134D02*
D03*
Y219134D02*
D03*
X599567Y209134D02*
D03*
Y219134D02*
D03*
X609567Y209134D02*
D03*
Y219134D02*
D03*
X619567Y209134D02*
D03*
Y219134D02*
D03*
X622323Y586221D02*
D03*
X592953D02*
D03*
X362287Y586614D02*
D03*
X372287D02*
D03*
X409449D02*
D03*
X419449D02*
D03*
X724016Y479331D02*
D03*
Y469331D02*
D03*
Y459331D02*
D03*
X320197Y586811D02*
D03*
X310197D02*
D03*
X300197D02*
D03*
X484252Y586614D02*
D03*
X505748D02*
D03*
D94*
X418110Y238583D02*
D03*
D95*
X421260Y212598D02*
D03*
D96*
X442126Y226772D02*
D03*
D97*
X342520Y350394D02*
D03*
X322835D02*
D03*
X304508Y237559D02*
D03*
X315413D02*
D03*
X326319D02*
D03*
X337224D02*
D03*
X309961Y226378D02*
D03*
X320866D02*
D03*
X331772D02*
D03*
X342677D02*
D03*
X588189Y488976D02*
D03*
X725591Y321654D02*
D03*
X712224Y264764D02*
D03*
X730315Y527887D02*
D03*
X775591Y211417D02*
D03*
X787361Y568110D02*
D03*
X218140Y206693D02*
D03*
X208661Y569291D02*
D03*
X579724Y275590D02*
D03*
D98*
X456693Y389606D02*
D03*
X783465Y432441D02*
D03*
Y308425D02*
D03*
X724016Y449331D02*
D03*
D99*
X777559Y405512D02*
D03*
Y281496D02*
D03*
X482283D02*
D03*
Y405512D02*
D03*
D100*
X332677Y475394D02*
D03*
D101*
X337598Y369094D02*
D03*
X327756D02*
D03*
D102*
X348130Y237559D02*
D03*
D103*
X468504Y211299D02*
D03*
X482283D02*
D03*
D104*
X543937Y440118D02*
D03*
X553937Y430118D02*
D03*
X533937D02*
D03*
D105*
X624213Y499409D02*
D03*
X465748Y492126D02*
D03*
D106*
X634449Y499409D02*
D03*
X455512Y492126D02*
D03*
D107*
X300433Y282638D02*
D03*
X290433D02*
D03*
X300433Y272638D02*
D03*
X290433D02*
D03*
X280433Y282638D02*
D03*
Y272638D02*
D03*
X220433D02*
D03*
X230433D02*
D03*
X240433D02*
D03*
X250433D02*
D03*
X260433D02*
D03*
X270433D02*
D03*
X210433Y282638D02*
D03*
X220433D02*
D03*
X230433D02*
D03*
X240433D02*
D03*
X250433D02*
D03*
X260433D02*
D03*
X270433D02*
D03*
X360433D02*
D03*
X350433D02*
D03*
X340433D02*
D03*
X330433D02*
D03*
X320433D02*
D03*
X310433D02*
D03*
X360433Y272638D02*
D03*
X350433D02*
D03*
X340433D02*
D03*
X330433D02*
D03*
X320433D02*
D03*
X310433D02*
D03*
X370433D02*
D03*
Y282638D02*
D03*
X380433Y272638D02*
D03*
X390433D02*
D03*
X380433Y282638D02*
D03*
X390433D02*
D03*
X390433Y522795D02*
D03*
X380433D02*
D03*
X390433Y512795D02*
D03*
X380433D02*
D03*
X370433Y522795D02*
D03*
Y512795D02*
D03*
X310433D02*
D03*
X320433D02*
D03*
X330433D02*
D03*
X340433D02*
D03*
X350433D02*
D03*
X360433D02*
D03*
X310433Y522795D02*
D03*
X320433D02*
D03*
X330433D02*
D03*
X340433D02*
D03*
X350433D02*
D03*
X360433D02*
D03*
X270433D02*
D03*
X260433D02*
D03*
X250433D02*
D03*
X240433D02*
D03*
X230433D02*
D03*
X220433D02*
D03*
X210433D02*
D03*
X270433Y512795D02*
D03*
X260433D02*
D03*
X250433D02*
D03*
X240433D02*
D03*
X230433D02*
D03*
X220433D02*
D03*
X280433D02*
D03*
Y522795D02*
D03*
X290433Y512795D02*
D03*
X300433D02*
D03*
X290433Y522795D02*
D03*
X300433D02*
D03*
D108*
X210433Y272638D02*
D03*
X210433Y512795D02*
D03*
D109*
X759213Y548425D02*
D03*
Y246850D02*
D03*
X236850D02*
D03*
Y548425D02*
D03*
D110*
X613386Y487008D02*
D03*
X625984Y490551D02*
D03*
X637795Y486614D02*
D03*
X657874Y492717D02*
D03*
X647408Y554331D02*
D03*
X643012D02*
D03*
X637795Y545013D02*
D03*
Y549409D02*
D03*
X644882Y564006D02*
D03*
X698032Y540026D02*
D03*
Y544423D02*
D03*
Y548819D02*
D03*
X687402Y529921D02*
D03*
X675984Y488583D02*
D03*
X653012Y520079D02*
D03*
X668110Y475197D02*
D03*
X645669Y461024D02*
D03*
X578740Y499409D02*
D03*
X581496Y556299D02*
D03*
X585827Y568504D02*
D03*
X605512Y560630D02*
D03*
X633465Y563386D02*
D03*
X681004Y451968D02*
D03*
X432677Y359449D02*
D03*
X446850Y563386D02*
D03*
X450197Y566535D02*
D03*
X404331Y566142D02*
D03*
X390433Y566535D02*
D03*
X372246Y567438D02*
D03*
X324803Y313356D02*
D03*
Y320738D02*
D03*
X703543Y280512D02*
D03*
X699803Y288287D02*
D03*
X687402Y524409D02*
D03*
X674803Y507677D02*
D03*
X740551Y389764D02*
D03*
X446063Y314961D02*
D03*
X446260Y323819D02*
D03*
X677165Y571260D02*
D03*
X714567Y501673D02*
D03*
X709842D02*
D03*
X705118D02*
D03*
X700394D02*
D03*
X647835Y536221D02*
D03*
X646654Y530512D02*
D03*
X641929Y516535D02*
D03*
X397638Y252756D02*
D03*
X545665Y555118D02*
D03*
X342913Y561024D02*
D03*
X668896Y564566D02*
D03*
X475197Y559842D02*
D03*
X470866Y566541D02*
D03*
X603150Y256693D02*
D03*
X605904Y246456D02*
D03*
X504433Y506505D02*
D03*
X674014Y522835D02*
D03*
X677559Y520472D02*
D03*
X660827Y561613D02*
D03*
X360629Y459842D02*
D03*
X375984Y430708D02*
D03*
X288189Y480276D02*
D03*
X212205Y458465D02*
D03*
X276378Y448032D02*
D03*
X627559Y556496D02*
D03*
X620866D02*
D03*
X581496Y551050D02*
D03*
Y545800D02*
D03*
Y540551D02*
D03*
X599016Y551050D02*
D03*
Y556299D02*
D03*
Y545800D02*
D03*
Y540551D02*
D03*
X613583Y551247D02*
D03*
Y556496D02*
D03*
Y545997D02*
D03*
Y540748D02*
D03*
X724213Y530709D02*
D03*
Y535958D02*
D03*
X581890Y330118D02*
D03*
X564350Y328543D02*
D03*
X577756Y337008D02*
D03*
X574213Y333661D02*
D03*
X541732Y289173D02*
D03*
X477953Y327756D02*
D03*
X463386Y511417D02*
D03*
X438583Y525591D02*
D03*
Y517323D02*
D03*
X447047Y511417D02*
D03*
X247441Y300000D02*
D03*
X638779Y570472D02*
D03*
X737008Y577756D02*
D03*
X743307Y474606D02*
D03*
X740551Y451575D02*
D03*
X664961Y280512D02*
D03*
X745079Y222244D02*
D03*
X562598Y272047D02*
D03*
X569685Y252165D02*
D03*
X604921Y314370D02*
D03*
X570669Y330118D02*
D03*
Y325590D02*
D03*
X513189Y369748D02*
D03*
X512205Y348425D02*
D03*
X493307Y360496D02*
D03*
X499606Y421260D02*
D03*
X473622Y429626D02*
D03*
X441929Y435118D02*
D03*
X366929Y560039D02*
D03*
X342677Y567913D02*
D03*
X391929Y572047D02*
D03*
X437008Y570472D02*
D03*
X719398Y440945D02*
D03*
X695866Y492717D02*
D03*
X707677Y459055D02*
D03*
X504134Y302165D02*
D03*
X506496Y215551D02*
D03*
Y261811D02*
D03*
X489239Y327756D02*
D03*
X483596D02*
D03*
X494882D02*
D03*
X590551Y346063D02*
D03*
Y350787D02*
D03*
Y355512D02*
D03*
Y360236D02*
D03*
Y364961D02*
D03*
X541732Y294340D02*
D03*
Y299508D02*
D03*
Y304675D02*
D03*
Y309842D02*
D03*
X718504Y249803D02*
D03*
X638779Y348425D02*
D03*
X650197Y304528D02*
D03*
X711417Y304941D02*
D03*
X701929Y349606D02*
D03*
X672835Y387795D02*
D03*
X735039Y423425D02*
D03*
X645669Y474213D02*
D03*
X568110Y519488D02*
D03*
X743701Y514961D02*
D03*
X568110Y524764D02*
D03*
X724213Y546457D02*
D03*
Y541207D02*
D03*
X714961Y530709D02*
D03*
X280433Y550197D02*
D03*
X380433Y542126D02*
D03*
X406693Y489764D02*
D03*
X422047Y360496D02*
D03*
X289173Y465748D02*
D03*
X376378Y404134D02*
D03*
Y352756D02*
D03*
X300000Y423032D02*
D03*
X300197Y352756D02*
D03*
X300000Y404134D02*
D03*
X240748D02*
D03*
Y328740D02*
D03*
X206102Y418504D02*
D03*
X206890Y489370D02*
D03*
X310827Y498622D02*
D03*
X283465Y436614D02*
D03*
X522516Y512992D02*
D03*
X510827Y486024D02*
D03*
X642913Y549409D02*
D03*
Y545013D02*
D03*
X692659Y548819D02*
D03*
Y544423D02*
D03*
Y540026D02*
D03*
X461024Y532283D02*
D03*
Y527887D02*
D03*
Y523491D02*
D03*
Y519095D02*
D03*
X540263Y519291D02*
D03*
Y523688D02*
D03*
Y528084D02*
D03*
Y532480D02*
D03*
X534971Y519357D02*
D03*
Y523753D02*
D03*
Y528150D02*
D03*
Y532546D02*
D03*
X465453Y519095D02*
D03*
Y523491D02*
D03*
Y527887D02*
D03*
Y532283D02*
D03*
X469882Y519095D02*
D03*
Y523491D02*
D03*
Y527887D02*
D03*
Y532283D02*
D03*
X529679Y532546D02*
D03*
Y528150D02*
D03*
Y523753D02*
D03*
Y519357D02*
D03*
X524387Y532480D02*
D03*
Y528084D02*
D03*
Y523688D02*
D03*
Y519291D02*
D03*
X519095D02*
D03*
Y523688D02*
D03*
Y528084D02*
D03*
Y532480D02*
D03*
X515354Y525984D02*
D03*
X476968Y532283D02*
D03*
Y527887D02*
D03*
Y523491D02*
D03*
X477165Y519095D02*
D03*
X481299Y525591D02*
D03*
X687205Y535827D02*
D03*
Y540223D02*
D03*
Y544619D02*
D03*
Y549016D02*
D03*
X683465Y542520D02*
D03*
X651575Y542717D02*
D03*
X647835Y540617D02*
D03*
Y545013D02*
D03*
Y549409D02*
D03*
X696457Y511024D02*
D03*
X757480Y582874D02*
D03*
X626575Y355512D02*
D03*
X623425Y358268D02*
D03*
X620276Y361024D02*
D03*
X617205Y364961D02*
D03*
X610236Y359252D02*
D03*
X612991Y362598D02*
D03*
X634251Y578345D02*
D03*
X557087Y572047D02*
D03*
X637795Y575787D02*
D03*
X553150Y567438D02*
D03*
X691929Y516732D02*
D03*
X355512Y503543D02*
D03*
X688975Y520078D02*
D03*
X716142Y521367D02*
D03*
X720276Y525000D02*
D03*
X562400Y464369D02*
D03*
X560236Y460630D02*
D03*
X559252Y456496D02*
D03*
X664172Y514566D02*
D03*
X571260Y320866D02*
D03*
X209055Y496457D02*
D03*
X209842Y502565D02*
D03*
X377953Y463779D02*
D03*
X357480Y455905D02*
D03*
X376969Y469095D02*
D03*
X376181Y474213D02*
D03*
X357480Y463779D02*
D03*
X281102Y487008D02*
D03*
X284252Y483858D02*
D03*
X321457Y469449D02*
D03*
X362205Y422835D02*
D03*
X446457Y399213D02*
D03*
X278870Y443577D02*
D03*
X696555Y291339D02*
D03*
X280242Y439640D02*
D03*
X693580Y294842D02*
D03*
X679921Y294488D02*
D03*
X676772Y290945D02*
D03*
X349410Y502441D02*
D03*
X628740Y261024D02*
D03*
X624803Y264173D02*
D03*
X239960Y501181D02*
D03*
X499606Y485827D02*
D03*
X519685Y486811D02*
D03*
X423130Y305709D02*
D03*
X372047Y314961D02*
D03*
X397849Y438400D02*
D03*
X425177Y297264D02*
D03*
X368109Y312598D02*
D03*
X392520Y437992D02*
D03*
X558661Y451575D02*
D03*
X269685Y532480D02*
D03*
X545669Y510236D02*
D03*
X507307Y503150D02*
D03*
X515354Y505512D02*
D03*
X572835Y316142D02*
D03*
X574803Y320866D02*
D03*
X312598Y488189D02*
D03*
X312205Y483465D02*
D03*
X309449Y494291D02*
D03*
X510629Y505511D02*
D03*
X557812Y565945D02*
D03*
X666534Y451574D02*
D03*
X629921Y353150D02*
D03*
X592717Y257480D02*
D03*
X480709Y487362D02*
D03*
X483268Y500000D02*
D03*
X671063Y373622D02*
D03*
X605512Y536221D02*
D03*
X274016Y248228D02*
D03*
X579567Y251575D02*
D03*
X665748Y252756D02*
D03*
X273622Y309449D02*
D03*
X427638Y288189D02*
D03*
X446260Y287992D02*
D03*
X531102Y265748D02*
D03*
X360433Y500394D02*
D03*
X316142Y481890D02*
D03*
X308268Y489764D02*
D03*
X477953Y513779D02*
D03*
X481890Y544882D02*
D03*
X516142Y555118D02*
D03*
X663484Y455709D02*
D03*
X588583Y252756D02*
D03*
Y246850D02*
D03*
X384842Y259744D02*
D03*
Y254921D02*
D03*
X438779Y544980D02*
D03*
X348425Y305118D02*
D03*
X419449Y566142D02*
D03*
X615748Y567717D02*
D03*
X630905Y524016D02*
D03*
X689961Y445866D02*
D03*
Y484252D02*
D03*
X616142Y252953D02*
D03*
X611221D02*
D03*
X598898D02*
D03*
X324803Y325856D02*
D03*
X308071Y314961D02*
D03*
Y318898D02*
D03*
Y323819D02*
D03*
X698819Y243898D02*
D03*
X624016Y248031D02*
D03*
X446260Y296850D02*
D03*
Y305709D02*
D03*
X597254Y317028D02*
D03*
X562992Y345472D02*
D03*
X593287Y320738D02*
D03*
X585630Y333661D02*
D03*
X536417Y269685D02*
D03*
X537402Y274606D02*
D03*
D111*
X414173Y557480D02*
D03*
X353150Y331102D02*
D03*
X422047Y497244D02*
D03*
X433071Y481890D02*
D03*
X487205Y523425D02*
D03*
Y527756D02*
D03*
X491535Y523425D02*
D03*
Y527756D02*
D03*
X495866Y523425D02*
D03*
Y527756D02*
D03*
X500197Y523425D02*
D03*
Y527756D02*
D03*
X504528D02*
D03*
X508858D02*
D03*
X504528Y523425D02*
D03*
X508858D02*
D03*
X365551Y294842D02*
D03*
X678346Y544685D02*
D03*
Y540354D02*
D03*
X674016Y544685D02*
D03*
Y540354D02*
D03*
X669685Y544685D02*
D03*
Y540354D02*
D03*
X665354Y544685D02*
D03*
Y540354D02*
D03*
X661024Y544685D02*
D03*
Y540354D02*
D03*
X656693Y544685D02*
D03*
Y540354D02*
D03*
D112*
X502756Y546063D02*
D03*
Y550000D02*
D03*
X494094Y548426D02*
D03*
Y544487D02*
D03*
D113*
X547244Y319685D02*
D03*
D160*
X458661Y244094D02*
D03*
X487795D02*
D03*
D161*
X442028Y429626D02*
D03*
X446949D02*
D03*
X355807Y561024D02*
D03*
X350886D02*
D03*
X569882Y565945D02*
D03*
X564961D02*
D03*
X264764Y293307D02*
D03*
X269685D02*
D03*
X511319Y416339D02*
D03*
X506398D02*
D03*
D162*
X563583Y244094D02*
D03*
X558465D02*
D03*
D163*
X506398Y239665D02*
D03*
Y233760D02*
D03*
Y254921D02*
D03*
Y249016D02*
D03*
D164*
X707677Y465551D02*
D03*
X701772D02*
D03*
D165*
X505315Y425039D02*
D03*
X511319D02*
D03*
D166*
X711378Y483937D02*
D03*
X701929Y487677D02*
D03*
Y480197D02*
D03*
X711614Y449331D02*
D03*
Y441850D02*
D03*
X702165Y445590D02*
D03*
D167*
X689961Y451476D02*
D03*
Y461909D02*
D03*
Y479626D02*
D03*
Y469193D02*
D03*
D168*
X462205Y556102D02*
D03*
X488189D02*
D03*
X507677D02*
D03*
X533661D02*
D03*
X522441Y258858D02*
D03*
X548425D02*
D03*
X522441Y244094D02*
D03*
X548425D02*
D03*
D169*
X756299Y492441D02*
D03*
Y489291D02*
D03*
Y486142D02*
D03*
Y495590D02*
D03*
X750000Y492441D02*
D03*
Y489291D02*
D03*
Y486142D02*
D03*
Y495590D02*
D03*
X746850Y451884D02*
D03*
Y442436D02*
D03*
Y445585D02*
D03*
Y448735D02*
D03*
X753150Y451884D02*
D03*
Y442436D02*
D03*
Y445585D02*
D03*
Y448735D02*
D03*
X744882Y373819D02*
D03*
Y364370D02*
D03*
Y367520D02*
D03*
Y370669D02*
D03*
X751181Y373819D02*
D03*
Y364370D02*
D03*
Y367520D02*
D03*
Y370669D02*
D03*
X744882Y357087D02*
D03*
Y347638D02*
D03*
Y350787D02*
D03*
Y353937D02*
D03*
X751181Y357087D02*
D03*
Y347638D02*
D03*
Y350787D02*
D03*
Y353937D02*
D03*
D170*
X618898Y248228D02*
D03*
X609449D02*
D03*
X612598D02*
D03*
X615748D02*
D03*
X618898Y241929D02*
D03*
X609449D02*
D03*
X612598D02*
D03*
X615748D02*
D03*
X602165Y248228D02*
D03*
X592717D02*
D03*
X595866D02*
D03*
X599016D02*
D03*
X602165Y241929D02*
D03*
X592717D02*
D03*
X595866D02*
D03*
X599016D02*
D03*
M02*
