G04*
G04 #@! TF.GenerationSoftware,Altium Limited,Altium Designer,19.0.10 (269)*
G04*
G04 Layer_Physical_Order=1*
G04 Layer_Color=255*
%FSLAX43Y43*%
%MOMM*%
G71*
G01*
G75*
%ADD13C,0.400*%
%ADD14C,0.600*%
%ADD16C,0.254*%
G04:AMPARAMS|DCode=19|XSize=4mm|YSize=2.2mm|CornerRadius=0.55mm|HoleSize=0mm|Usage=FLASHONLY|Rotation=0.000|XOffset=0mm|YOffset=0mm|HoleType=Round|Shape=RoundedRectangle|*
%AMROUNDEDRECTD19*
21,1,4.000,1.100,0,0,0.0*
21,1,2.900,2.200,0,0,0.0*
1,1,1.100,1.450,-0.550*
1,1,1.100,-1.450,-0.550*
1,1,1.100,-1.450,0.550*
1,1,1.100,1.450,0.550*
%
%ADD19ROUNDEDRECTD19*%
%ADD20R,6.690X2.400*%
%ADD21O,0.350X2.200*%
G04:AMPARAMS|DCode=22|XSize=0.38mm|YSize=1.2mm|CornerRadius=0.042mm|HoleSize=0mm|Usage=FLASHONLY|Rotation=90.000|XOffset=0mm|YOffset=0mm|HoleType=Round|Shape=RoundedRectangle|*
%AMROUNDEDRECTD22*
21,1,0.380,1.116,0,0,90.0*
21,1,0.296,1.200,0,0,90.0*
1,1,0.084,0.558,0.148*
1,1,0.084,0.558,-0.148*
1,1,0.084,-0.558,-0.148*
1,1,0.084,-0.558,0.148*
%
%ADD22ROUNDEDRECTD22*%
%ADD23O,0.350X2.400*%
G04:AMPARAMS|DCode=24|XSize=1.8mm|YSize=1.8mm|CornerRadius=0.225mm|HoleSize=0mm|Usage=FLASHONLY|Rotation=90.000|XOffset=0mm|YOffset=0mm|HoleType=Round|Shape=RoundedRectangle|*
%AMROUNDEDRECTD24*
21,1,1.800,1.350,0,0,90.0*
21,1,1.350,1.800,0,0,90.0*
1,1,0.450,0.675,0.675*
1,1,0.450,0.675,-0.675*
1,1,0.450,-0.675,-0.675*
1,1,0.450,-0.675,0.675*
%
%ADD24ROUNDEDRECTD24*%
G04:AMPARAMS|DCode=25|XSize=1.2mm|YSize=1.8mm|CornerRadius=0.15mm|HoleSize=0mm|Usage=FLASHONLY|Rotation=90.000|XOffset=0mm|YOffset=0mm|HoleType=Round|Shape=RoundedRectangle|*
%AMROUNDEDRECTD25*
21,1,1.200,1.500,0,0,90.0*
21,1,0.900,1.800,0,0,90.0*
1,1,0.300,0.750,0.450*
1,1,0.300,0.750,-0.450*
1,1,0.300,-0.750,-0.450*
1,1,0.300,-0.750,0.450*
%
%ADD25ROUNDEDRECTD25*%
G04:AMPARAMS|DCode=26|XSize=0.9mm|YSize=1.4mm|CornerRadius=0.113mm|HoleSize=0mm|Usage=FLASHONLY|Rotation=90.000|XOffset=0mm|YOffset=0mm|HoleType=Round|Shape=RoundedRectangle|*
%AMROUNDEDRECTD26*
21,1,0.900,1.175,0,0,90.0*
21,1,0.675,1.400,0,0,90.0*
1,1,0.225,0.588,0.338*
1,1,0.225,0.588,-0.338*
1,1,0.225,-0.588,-0.338*
1,1,0.225,-0.588,0.338*
%
%ADD26ROUNDEDRECTD26*%
G04:AMPARAMS|DCode=27|XSize=0.7mm|YSize=1.8mm|CornerRadius=0.088mm|HoleSize=0mm|Usage=FLASHONLY|Rotation=90.000|XOffset=0mm|YOffset=0mm|HoleType=Round|Shape=RoundedRectangle|*
%AMROUNDEDRECTD27*
21,1,0.700,1.625,0,0,90.0*
21,1,0.525,1.800,0,0,90.0*
1,1,0.175,0.813,0.263*
1,1,0.175,0.813,-0.263*
1,1,0.175,-0.813,-0.263*
1,1,0.175,-0.813,0.263*
%
%ADD27ROUNDEDRECTD27*%
%ADD28R,6.200X2.000*%
%ADD29R,1.600X3.500*%
%ADD30R,1.200X1.450*%
%ADD31R,1.350X1.100*%
%ADD32R,2.900X1.150*%
%ADD33R,5.700X1.700*%
%ADD34R,1.100X1.200*%
%ADD35R,1.100X0.600*%
%ADD36R,0.850X0.750*%
%ADD37R,1.300X0.550*%
%ADD38O,1.700X0.350*%
%ADD39O,2.050X0.600*%
%ADD40R,0.800X0.300*%
%ADD41R,0.900X0.750*%
%ADD42R,0.850X0.700*%
%ADD43R,0.900X0.800*%
%ADD44R,1.150X2.900*%
%ADD45R,0.700X0.850*%
%ADD46R,0.800X0.900*%
%ADD47R,1.350X1.150*%
G04:AMPARAMS|DCode=48|XSize=4mm|YSize=2.2mm|CornerRadius=0.55mm|HoleSize=0mm|Usage=FLASHONLY|Rotation=90.000|XOffset=0mm|YOffset=0mm|HoleType=Round|Shape=RoundedRectangle|*
%AMROUNDEDRECTD48*
21,1,4.000,1.100,0,0,90.0*
21,1,2.900,2.200,0,0,90.0*
1,1,1.100,0.550,1.450*
1,1,1.100,0.550,-1.450*
1,1,1.100,-0.550,-1.450*
1,1,1.100,-0.550,1.450*
%
%ADD48ROUNDEDRECTD48*%
%ADD49R,1.200X1.100*%
%ADD103C,0.300*%
%ADD104C,2.500*%
%ADD105C,1.200*%
%ADD106C,0.500*%
%ADD107C,0.700*%
%ADD108C,0.800*%
%ADD109C,1.000*%
%ADD110C,2.000*%
%ADD111C,1.250*%
%ADD112C,0.450*%
%ADD113C,1.500*%
%ADD114R,1.500X1.500*%
%ADD115R,1.500X1.500*%
%ADD116C,4.800*%
%ADD117R,1.800X1.800*%
%ADD118C,1.800*%
%ADD119R,1.600X1.600*%
%ADD120C,1.600*%
%ADD121O,2.000X3.800*%
G04:AMPARAMS|DCode=122|XSize=5mm|YSize=2.8mm|CornerRadius=1.4mm|HoleSize=0mm|Usage=FLASHONLY|Rotation=0.000|XOffset=0mm|YOffset=0mm|HoleType=Round|Shape=RoundedRectangle|*
%AMROUNDEDRECTD122*
21,1,5.000,0.000,0,0,0.0*
21,1,2.200,2.800,0,0,0.0*
1,1,2.800,1.100,0.000*
1,1,2.800,-1.100,0.000*
1,1,2.800,-1.100,0.000*
1,1,2.800,1.100,0.000*
%
%ADD122ROUNDEDRECTD122*%
G04:AMPARAMS|DCode=123|XSize=4.6mm|YSize=2.6mm|CornerRadius=1.3mm|HoleSize=0mm|Usage=FLASHONLY|Rotation=270.000|XOffset=0mm|YOffset=0mm|HoleType=Round|Shape=RoundedRectangle|*
%AMROUNDEDRECTD123*
21,1,4.600,0.000,0,0,270.0*
21,1,2.000,2.600,0,0,270.0*
1,1,2.600,0.000,-1.000*
1,1,2.600,0.000,1.000*
1,1,2.600,0.000,1.000*
1,1,2.600,0.000,-1.000*
%
%ADD123ROUNDEDRECTD123*%
%ADD124C,1.300*%
%ADD125O,1.600X1.200*%
G04:AMPARAMS|DCode=126|XSize=1.6mm|YSize=1.2mm|CornerRadius=0.6mm|HoleSize=0mm|Usage=FLASHONLY|Rotation=0.000|XOffset=0mm|YOffset=0mm|HoleType=Round|Shape=RoundedRectangle|*
%AMROUNDEDRECTD126*
21,1,1.600,0.000,0,0,0.0*
21,1,0.400,1.200,0,0,0.0*
1,1,1.200,0.200,0.000*
1,1,1.200,-0.200,0.000*
1,1,1.200,-0.200,0.000*
1,1,1.200,0.200,0.000*
%
%ADD126ROUNDEDRECTD126*%
%ADD127C,1.550*%
%ADD128R,1.550X1.550*%
%ADD129C,7.700*%
%ADD130C,0.700*%
%ADD131C,0.900*%
%ADD132C,1.000*%
%ADD133C,0.600*%
%ADD134C,0.650*%
G36*
X115702Y149171D02*
X115711Y149146D01*
X115726Y149124D01*
X115747Y149104D01*
X115774Y149087D01*
X115808Y149074D01*
X115847Y149064D01*
X115893Y149056D01*
X115944Y149051D01*
X116002Y149050D01*
Y148750D01*
X115944Y148749D01*
X115893Y148744D01*
X115847Y148736D01*
X115808Y148726D01*
X115774Y148712D01*
X115747Y148696D01*
X115726Y148676D01*
X115711Y148654D01*
X115702Y148628D01*
X115699Y148600D01*
Y149200D01*
X115702Y149171D01*
D02*
G37*
G36*
X131384Y148253D02*
X131322Y148298D01*
X131249Y148321D01*
X131164D01*
X131068Y148298D01*
X130960Y148253D01*
X130841Y148185D01*
X130711Y148095D01*
X130570Y147982D01*
X130253Y147687D01*
X129687Y148253D01*
X129846Y148417D01*
X130095Y148711D01*
X130185Y148841D01*
X130253Y148960D01*
X130298Y149068D01*
X130321Y149164D01*
Y149249D01*
X130298Y149322D01*
X130253Y149384D01*
X131384Y148253D01*
D02*
G37*
G36*
X181020Y148455D02*
X181016Y148438D01*
X181012Y148411D01*
X181006Y148334D01*
X181000Y148077D01*
X181000Y147991D01*
X180000D01*
X179975Y148464D01*
X181025D01*
X181020Y148455D01*
D02*
G37*
G36*
X128452Y148250D02*
X128416Y148247D01*
X128377Y148239D01*
X128336Y148224D01*
X128292Y148203D01*
X128246Y148176D01*
X128197Y148143D01*
X128146Y148104D01*
X128035Y148008D01*
X127976Y147950D01*
X127410Y148516D01*
X127468Y148575D01*
X127564Y148686D01*
X127603Y148737D01*
X127636Y148786D01*
X127663Y148832D01*
X127684Y148876D01*
X127699Y148917D01*
X127707Y148956D01*
X127710Y148992D01*
X128452Y148250D01*
D02*
G37*
G36*
X123753Y148956D02*
X123761Y148917D01*
X123776Y148876D01*
X123797Y148832D01*
X123824Y148786D01*
X123857Y148737D01*
X123896Y148686D01*
X123992Y148575D01*
X124050Y148516D01*
X123484Y147950D01*
X123425Y148008D01*
X123314Y148104D01*
X123263Y148143D01*
X123214Y148176D01*
X123168Y148203D01*
X123124Y148224D01*
X123083Y148239D01*
X123044Y148247D01*
X123007Y148250D01*
X123750Y148992D01*
X123753Y148956D01*
D02*
G37*
G36*
X170562Y148478D02*
X170532Y148436D01*
X170506Y148390D01*
X170483Y148340D01*
X170464Y148284D01*
X170448Y148224D01*
X170436Y148159D01*
X170427Y148090D01*
X170422Y148016D01*
X170420Y147937D01*
X169720D01*
X169718Y148016D01*
X169704Y148159D01*
X169692Y148224D01*
X169676Y148284D01*
X169657Y148340D01*
X169634Y148390D01*
X169608Y148436D01*
X169578Y148478D01*
X169545Y148514D01*
X170595D01*
X170562Y148478D01*
D02*
G37*
G36*
X168022D02*
X167992Y148436D01*
X167966Y148390D01*
X167943Y148340D01*
X167924Y148284D01*
X167908Y148224D01*
X167896Y148159D01*
X167887Y148090D01*
X167882Y148016D01*
X167880Y147937D01*
X167180D01*
X167178Y148016D01*
X167164Y148159D01*
X167152Y148224D01*
X167136Y148284D01*
X167117Y148340D01*
X167094Y148390D01*
X167068Y148436D01*
X167038Y148478D01*
X167005Y148514D01*
X168055D01*
X168022Y148478D01*
D02*
G37*
G36*
X165482D02*
X165452Y148436D01*
X165426Y148390D01*
X165403Y148340D01*
X165384Y148284D01*
X165368Y148224D01*
X165356Y148159D01*
X165347Y148090D01*
X165342Y148016D01*
X165340Y147937D01*
X164640D01*
X164638Y148016D01*
X164624Y148159D01*
X164612Y148224D01*
X164596Y148284D01*
X164577Y148340D01*
X164554Y148390D01*
X164528Y148436D01*
X164498Y148478D01*
X164465Y148514D01*
X165515D01*
X165482Y148478D01*
D02*
G37*
G36*
X66901Y148804D02*
X66907Y148720D01*
X66918Y148640D01*
X66933Y148565D01*
X66953Y148495D01*
X66977Y148429D01*
X67006Y148368D01*
X67040Y148311D01*
X67078Y148259D01*
X67121Y148212D01*
X66838Y147929D01*
X66791Y147972D01*
X66739Y148010D01*
X66682Y148044D01*
X66621Y148073D01*
X66555Y148097D01*
X66485Y148117D01*
X66410Y148132D01*
X66330Y148143D01*
X66246Y148149D01*
X66158Y148150D01*
X66900Y148893D01*
X66901Y148804D01*
D02*
G37*
G36*
X192634Y148313D02*
X192657Y148300D01*
X192681Y148288D01*
X192707Y148278D01*
X192735Y148270D01*
X192764Y148263D01*
X192795Y148257D01*
X192827Y148253D01*
X192897Y148250D01*
X192945Y147950D01*
X192910Y147949D01*
X192876Y147946D01*
X192844Y147940D01*
X192815Y147933D01*
X192787Y147923D01*
X192762Y147912D01*
X192739Y147898D01*
X192718Y147882D01*
X192699Y147864D01*
X192682Y147843D01*
X192612Y148328D01*
X192634Y148313D01*
D02*
G37*
G36*
X194351Y147800D02*
X194348Y147829D01*
X194339Y147854D01*
X194324Y147877D01*
X194303Y147896D01*
X194276Y147913D01*
X194242Y147926D01*
X194203Y147937D01*
X194157Y147944D01*
X194106Y147949D01*
X194048Y147950D01*
Y148250D01*
X194106Y148252D01*
X194157Y148256D01*
X194203Y148264D01*
X194242Y148274D01*
X194276Y148288D01*
X194303Y148304D01*
X194324Y148324D01*
X194339Y148346D01*
X194348Y148372D01*
X194351Y148400D01*
Y147800D01*
D02*
G37*
G36*
X173137Y148297D02*
X173100Y148280D01*
X173067Y148252D01*
X173038Y148212D01*
X173015Y148161D01*
X172995Y148099D01*
X172980Y148025D01*
X172969Y147939D01*
X172962Y147843D01*
X172960Y147735D01*
X172260D01*
X172258Y147843D01*
X172240Y148025D01*
X172225Y148099D01*
X172205Y148161D01*
X172182Y148212D01*
X172153Y148252D01*
X172120Y148280D01*
X172083Y148297D01*
X172042Y148303D01*
X173178D01*
X173137Y148297D01*
D02*
G37*
G36*
X121162Y149322D02*
X121139Y149249D01*
Y149164D01*
X121162Y149068D01*
X121207Y148960D01*
X121275Y148841D01*
X121365Y148711D01*
X121478Y148570D01*
X121773Y148253D01*
X121207Y147687D01*
X121043Y147846D01*
X120749Y148095D01*
X120619Y148185D01*
X120500Y148253D01*
X120392Y148298D01*
X120296Y148321D01*
X120211D01*
X120138Y148298D01*
X120076Y148253D01*
X121207Y149384D01*
X121162Y149322D01*
D02*
G37*
G36*
X161096Y146550D02*
X161070Y146549D01*
X161043Y146545D01*
X161017Y146539D01*
X160990Y146530D01*
X160964Y146518D01*
X160938Y146504D01*
X160912Y146487D01*
X160886Y146468D01*
X160860Y146446D01*
X160834Y146422D01*
X160622Y146634D01*
X160646Y146660D01*
X160668Y146686D01*
X160687Y146712D01*
X160704Y146738D01*
X160718Y146764D01*
X160730Y146790D01*
X160739Y146817D01*
X160745Y146843D01*
X160749Y146870D01*
X160750Y146896D01*
X161096Y146550D01*
D02*
G37*
G36*
X161997Y145900D02*
X161970Y145899D01*
X161943Y145895D01*
X161917Y145889D01*
X161891Y145880D01*
X161864Y145869D01*
X161838Y145855D01*
X161812Y145838D01*
X161786Y145818D01*
X161760Y145796D01*
X161734Y145772D01*
X161522Y145984D01*
X161546Y146010D01*
X161568Y146036D01*
X161588Y146062D01*
X161605Y146088D01*
X161619Y146114D01*
X161630Y146141D01*
X161639Y146167D01*
X161645Y146193D01*
X161649Y146220D01*
X161650Y146247D01*
X161997Y145900D01*
D02*
G37*
G36*
X172765Y145443D02*
X172689Y145365D01*
X172519Y145164D01*
X172482Y145108D01*
X172455Y145058D01*
X172438Y145013D01*
X172430Y144974D01*
X172432Y144941D01*
X172444Y144913D01*
X172108Y145419D01*
X172127Y145398D01*
X172151Y145387D01*
X172181Y145385D01*
X172216Y145393D01*
X172255Y145410D01*
X172300Y145436D01*
X172351Y145472D01*
X172406Y145516D01*
X172532Y145634D01*
X172765Y145443D01*
D02*
G37*
G36*
X181003Y145707D02*
X181027Y145387D01*
X181048Y145257D01*
X181074Y145147D01*
X181107Y145057D01*
X181146Y144987D01*
X181190Y144937D01*
X181241Y144907D01*
X181297Y144897D01*
X179703D01*
X179759Y144907D01*
X179810Y144937D01*
X179854Y144987D01*
X179893Y145057D01*
X179926Y145147D01*
X179952Y145257D01*
X179973Y145387D01*
X179988Y145537D01*
X180000Y145897D01*
X181000D01*
X181003Y145707D01*
D02*
G37*
G36*
X141846Y145235D02*
X141848Y145208D01*
X141852Y145182D01*
X141859Y145156D01*
X141869Y145130D01*
X141882Y145103D01*
X141898Y145077D01*
X141917Y145051D01*
X141939Y145025D01*
X141963Y144999D01*
X141727Y144811D01*
X141702Y144835D01*
X141650Y144877D01*
X141624Y144895D01*
X141598Y144910D01*
X141572Y144923D01*
X141546Y144934D01*
X141520Y144942D01*
X141494Y144948D01*
X141468Y144951D01*
X141848Y145261D01*
X141846Y145235D01*
D02*
G37*
G36*
X143292Y144789D02*
X143296Y144738D01*
X143303Y144692D01*
X143314Y144653D01*
X143327Y144620D01*
X143344Y144592D01*
X143363Y144571D01*
X143386Y144556D01*
X143411Y144547D01*
X143440Y144544D01*
X142840D01*
X142868Y144547D01*
X142894Y144556D01*
X142917Y144571D01*
X142936Y144592D01*
X142952Y144620D01*
X142966Y144653D01*
X142977Y144692D01*
X142984Y144738D01*
X142988Y144789D01*
X142990Y144847D01*
X143290D01*
X143292Y144789D01*
D02*
G37*
G36*
X169749Y144348D02*
X169738Y144345D01*
X169723Y144337D01*
X169705Y144325D01*
X169683Y144309D01*
X169629Y144264D01*
X169524Y144165D01*
X169482Y144123D01*
X169128Y144477D01*
X169170Y144519D01*
X169330Y144700D01*
X169342Y144718D01*
X169350Y144733D01*
X169353Y144744D01*
X169749Y144348D01*
D02*
G37*
G36*
X114110Y144354D02*
X114136Y144332D01*
X114162Y144312D01*
X114188Y144295D01*
X114214Y144281D01*
X114241Y144270D01*
X114267Y144261D01*
X114293Y144255D01*
X114320Y144251D01*
X114346Y144250D01*
X114000Y143904D01*
X113999Y143930D01*
X113995Y143957D01*
X113989Y143983D01*
X113980Y144009D01*
X113969Y144036D01*
X113955Y144062D01*
X113938Y144088D01*
X113918Y144114D01*
X113896Y144140D01*
X113872Y144166D01*
X114084Y144378D01*
X114110Y144354D01*
D02*
G37*
G36*
X140727Y143860D02*
X140711Y143838D01*
X140697Y143815D01*
X140684Y143790D01*
X140674Y143764D01*
X140665Y143735D01*
X140659Y143705D01*
X140654Y143673D01*
X140651Y143639D01*
X140650Y143603D01*
X140350D01*
X140349Y143639D01*
X140346Y143673D01*
X140341Y143705D01*
X140335Y143735D01*
X140326Y143764D01*
X140316Y143790D01*
X140303Y143815D01*
X140289Y143838D01*
X140273Y143860D01*
X140255Y143879D01*
X140745D01*
X140727Y143860D01*
D02*
G37*
G36*
X141954Y143977D02*
X141975Y143961D01*
X141998Y143947D01*
X142023Y143934D01*
X142050Y143924D01*
X142078Y143915D01*
X142109Y143909D01*
X142141Y143904D01*
X142175Y143901D01*
X142211Y143900D01*
Y143600D01*
X142175Y143599D01*
X142141Y143596D01*
X142109Y143591D01*
X142078Y143585D01*
X142050Y143576D01*
X142023Y143566D01*
X141998Y143553D01*
X141975Y143539D01*
X141954Y143523D01*
X141934Y143505D01*
Y143995D01*
X141954Y143977D01*
D02*
G37*
G36*
X119751Y143691D02*
X119754Y143657D01*
X119759Y143624D01*
X119765Y143594D01*
X119774Y143566D01*
X119784Y143539D01*
X119797Y143514D01*
X119811Y143491D01*
X119827Y143469D01*
X119845Y143450D01*
X119355D01*
X119373Y143469D01*
X119389Y143491D01*
X119403Y143514D01*
X119416Y143539D01*
X119426Y143566D01*
X119435Y143594D01*
X119441Y143624D01*
X119446Y143657D01*
X119449Y143691D01*
X119450Y143726D01*
X119750D01*
X119751Y143691D01*
D02*
G37*
G36*
X171663Y143714D02*
X171670Y143724D01*
X171680Y143742D01*
X171688Y143759D01*
X171694Y143775D01*
X171699Y143792D01*
X171702Y143808D01*
X171983Y143527D01*
X171967Y143524D01*
X171950Y143519D01*
X171934Y143513D01*
X171917Y143505D01*
X171899Y143495D01*
X171881Y143483D01*
X171863Y143470D01*
X171936Y143381D01*
X171915Y143400D01*
X171889Y143409D01*
X171858Y143410D01*
X171823Y143402D01*
X171783Y143385D01*
X171738Y143359D01*
X171689Y143324D01*
X171634Y143280D01*
X171512Y143166D01*
X171235Y143313D01*
X171313Y143393D01*
X171486Y143598D01*
X171523Y143654D01*
X171550Y143704D01*
X171567Y143748D01*
X171573Y143786D01*
X171570Y143818D01*
X171556Y143844D01*
X171663Y143714D01*
D02*
G37*
G36*
X172452Y144144D02*
X172467Y144119D01*
X172492Y144097D01*
X172527Y144078D01*
X172572Y144062D01*
X172627Y144049D01*
X172692Y144038D01*
X172767Y144031D01*
X172947Y144025D01*
Y143525D01*
X172852Y143524D01*
X172692Y143512D01*
X172627Y143501D01*
X172572Y143488D01*
X172527Y143472D01*
X172492Y143453D01*
X172467Y143431D01*
X172452Y143406D01*
X172447Y143378D01*
Y144172D01*
X172452Y144144D01*
D02*
G37*
G36*
X113651Y143590D02*
X113654Y143557D01*
X113659Y143524D01*
X113665Y143494D01*
X113674Y143466D01*
X113684Y143439D01*
X113697Y143414D01*
X113711Y143391D01*
X113727Y143369D01*
X113745Y143350D01*
X113255D01*
X113273Y143369D01*
X113289Y143391D01*
X113303Y143414D01*
X113316Y143439D01*
X113326Y143466D01*
X113335Y143494D01*
X113341Y143524D01*
X113346Y143557D01*
X113349Y143590D01*
X113350Y143626D01*
X113650D01*
X113651Y143590D01*
D02*
G37*
G36*
X108371Y143400D02*
X108345Y143399D01*
X108318Y143395D01*
X108292Y143389D01*
X108266Y143380D01*
X108239Y143369D01*
X108213Y143355D01*
X108187Y143338D01*
X108161Y143318D01*
X108135Y143296D01*
X108109Y143272D01*
X107897Y143484D01*
X107921Y143510D01*
X107943Y143536D01*
X107963Y143562D01*
X107980Y143588D01*
X107994Y143614D01*
X108005Y143641D01*
X108014Y143667D01*
X108020Y143693D01*
X108024Y143720D01*
X108025Y143747D01*
X108371Y143400D01*
D02*
G37*
G36*
X165528Y143228D02*
X165524Y143240D01*
X165510Y143250D01*
X165488Y143259D01*
X165458Y143267D01*
X165418Y143273D01*
X165370Y143279D01*
X165247Y143286D01*
X165089Y143289D01*
Y143889D01*
X165172Y143890D01*
X165313Y143901D01*
X165370Y143910D01*
X165418Y143922D01*
X165458Y143937D01*
X165488Y143954D01*
X165510Y143974D01*
X165524Y143997D01*
X165528Y144022D01*
Y143228D01*
D02*
G37*
G36*
X168124Y143281D02*
X168113Y143266D01*
X168104Y143248D01*
X168097Y143229D01*
X168090Y143208D01*
X168085Y143184D01*
X168080Y143158D01*
X168077Y143130D01*
X168075Y143068D01*
X167775D01*
X167774Y143100D01*
X167770Y143158D01*
X167765Y143184D01*
X167760Y143208D01*
X167753Y143229D01*
X167746Y143248D01*
X167737Y143266D01*
X167726Y143281D01*
X167715Y143293D01*
X168135D01*
X168124Y143281D01*
D02*
G37*
G36*
X170074Y143273D02*
X170063Y143258D01*
X170054Y143241D01*
X170047Y143221D01*
X170040Y143200D01*
X170035Y143176D01*
X170030Y143151D01*
X170027Y143123D01*
X170025Y143060D01*
X169725D01*
X169724Y143092D01*
X169720Y143151D01*
X169715Y143176D01*
X169710Y143200D01*
X169703Y143221D01*
X169696Y143241D01*
X169687Y143258D01*
X169676Y143273D01*
X169665Y143286D01*
X170085D01*
X170074Y143273D01*
D02*
G37*
G36*
X167419Y143763D02*
X167398Y143723D01*
X167380Y143672D01*
X167364Y143610D01*
X167351Y143538D01*
X167332Y143360D01*
X167322Y143140D01*
X167321Y143014D01*
X167067D01*
X167066Y143140D01*
X167037Y143538D01*
X167024Y143610D01*
X167008Y143672D01*
X166990Y143723D01*
X166969Y143763D01*
X166946Y143793D01*
X167442D01*
X167419Y143763D01*
D02*
G37*
G36*
X143127Y142953D02*
X143101Y142967D01*
X143072Y142974D01*
X143039Y142973D01*
X143002Y142963D01*
X142961Y142946D01*
X142917Y142921D01*
X142869Y142888D01*
X142817Y142847D01*
X142762Y142798D01*
X142703Y142741D01*
X142531Y142993D01*
X142571Y143034D01*
X142724Y143207D01*
X142735Y143223D01*
X142741Y143237D01*
X142743Y143247D01*
X143127Y142953D01*
D02*
G37*
G36*
X166423Y143225D02*
X166423Y143216D01*
X166425Y142928D01*
X166125D01*
X166124Y142985D01*
X166119Y143036D01*
X166111Y143081D01*
X166101Y143120D01*
X166087Y143153D01*
X166071Y143180D01*
X166051Y143201D01*
X166029Y143216D01*
X166003Y143225D01*
X165975Y143228D01*
X166422D01*
X166423Y143225D01*
D02*
G37*
G36*
X96500Y142905D02*
X96481Y142923D01*
X96459Y142939D01*
X96436Y142953D01*
X96411Y142966D01*
X96384Y142976D01*
X96356Y142985D01*
X96326Y142991D01*
X96293Y142996D01*
X96259Y142999D01*
X96224Y143000D01*
Y143300D01*
X96259Y143301D01*
X96293Y143304D01*
X96326Y143309D01*
X96356Y143315D01*
X96384Y143324D01*
X96411Y143334D01*
X96436Y143347D01*
X96459Y143361D01*
X96481Y143377D01*
X96500Y143395D01*
Y142905D01*
D02*
G37*
G36*
X148250Y142855D02*
X148231Y142873D01*
X148209Y142889D01*
X148186Y142903D01*
X148161Y142916D01*
X148134Y142926D01*
X148106Y142935D01*
X148076Y142941D01*
X148043Y142946D01*
X148010Y142949D01*
X147974Y142950D01*
Y143250D01*
X148010Y143251D01*
X148043Y143254D01*
X148076Y143259D01*
X148106Y143265D01*
X148134Y143274D01*
X148161Y143284D01*
X148186Y143297D01*
X148209Y143311D01*
X148231Y143327D01*
X148250Y143345D01*
Y142855D01*
D02*
G37*
G36*
X156160Y143204D02*
X156186Y143182D01*
X156212Y143162D01*
X156238Y143145D01*
X156264Y143131D01*
X156291Y143120D01*
X156317Y143111D01*
X156343Y143105D01*
X156370Y143101D01*
X156396Y143100D01*
X156050Y142753D01*
X156049Y142780D01*
X156045Y142807D01*
X156039Y142833D01*
X156030Y142859D01*
X156019Y142886D01*
X156005Y142912D01*
X155988Y142938D01*
X155968Y142964D01*
X155946Y142990D01*
X155922Y143016D01*
X156134Y143228D01*
X156160Y143204D01*
D02*
G37*
G36*
X170026Y142908D02*
X170030Y142849D01*
X170035Y142824D01*
X170040Y142800D01*
X170047Y142779D01*
X170054Y142759D01*
X170063Y142742D01*
X170074Y142727D01*
X170085Y142714D01*
X169665D01*
X169676Y142727D01*
X169687Y142742D01*
X169696Y142759D01*
X169703Y142779D01*
X169710Y142800D01*
X169715Y142824D01*
X169720Y142849D01*
X169723Y142877D01*
X169725Y142940D01*
X170025D01*
X170026Y142908D01*
D02*
G37*
G36*
X168076D02*
X168080Y142849D01*
X168085Y142824D01*
X168090Y142800D01*
X168097Y142779D01*
X168104Y142759D01*
X168113Y142742D01*
X168124Y142727D01*
X168135Y142714D01*
X167715D01*
X167726Y142727D01*
X167737Y142742D01*
X167746Y142759D01*
X167753Y142779D01*
X167760Y142800D01*
X167765Y142824D01*
X167770Y142849D01*
X167773Y142877D01*
X167775Y142940D01*
X168075D01*
X168076Y142908D01*
D02*
G37*
G36*
X173447Y142700D02*
X173442Y142705D01*
X173434Y142709D01*
X173423Y142713D01*
X173408Y142716D01*
X173390Y142719D01*
X173344Y142723D01*
X173285Y142725D01*
X173250Y142725D01*
Y143025D01*
X173285Y143025D01*
X173408Y143034D01*
X173423Y143037D01*
X173434Y143041D01*
X173442Y143045D01*
X173447Y143050D01*
Y142700D01*
D02*
G37*
G36*
X87769Y142727D02*
X87791Y142711D01*
X87814Y142697D01*
X87839Y142684D01*
X87866Y142674D01*
X87894Y142665D01*
X87924Y142659D01*
X87957Y142654D01*
X87991Y142651D01*
X88026Y142650D01*
Y142350D01*
X87991Y142349D01*
X87957Y142346D01*
X87924Y142341D01*
X87894Y142335D01*
X87866Y142326D01*
X87839Y142316D01*
X87814Y142303D01*
X87791Y142289D01*
X87769Y142273D01*
X87750Y142255D01*
Y142745D01*
X87769Y142727D01*
D02*
G37*
G36*
X172637Y141792D02*
X172313D01*
X172315Y141798D01*
X172317Y141810D01*
X172319Y141827D01*
X172323Y141912D01*
X172325Y142100D01*
X172625D01*
X172637Y141792D01*
D02*
G37*
G36*
X172090Y142329D02*
X172068Y142318D01*
X172048Y142303D01*
X172031Y142286D01*
X172016Y142267D01*
X172004Y142244D01*
X171993Y142219D01*
X171985Y142191D01*
X171980Y142160D01*
X171976Y142127D01*
X171975Y142101D01*
X171987Y141792D01*
X171663D01*
X171665Y141798D01*
X171667Y141811D01*
X171669Y141828D01*
X171673Y141915D01*
X171675Y142110D01*
X171931D01*
X171675Y142223D01*
X171675Y142259D01*
X171668Y142357D01*
X171664Y142386D01*
X171654Y142439D01*
X171647Y142462D01*
X171640Y142484D01*
X171632Y142503D01*
X172090Y142329D01*
D02*
G37*
G36*
X171333Y142098D02*
X171337Y141792D01*
X171013D01*
X171017Y141801D01*
X171020Y141815D01*
X171023Y141834D01*
X171028Y141890D01*
X171032Y142013D01*
X171033Y142122D01*
X171333Y142098D01*
D02*
G37*
G36*
X170652Y142050D02*
X170665Y141866D01*
X170669Y141842D01*
X170674Y141821D01*
X170680Y141805D01*
X170687Y141792D01*
X170363D01*
X170370Y141805D01*
X170376Y141821D01*
X170381Y141842D01*
X170385Y141866D01*
X170392Y141928D01*
X170397Y142005D01*
X170398Y142098D01*
X170652D01*
X170652Y142050D01*
D02*
G37*
G36*
X170074Y142273D02*
X170063Y142258D01*
X170054Y142241D01*
X170047Y142221D01*
X170040Y142200D01*
X170035Y142176D01*
X170030Y142151D01*
X170027Y142123D01*
X170026Y142085D01*
X170037Y141792D01*
X169713D01*
X169715Y141798D01*
X169717Y141811D01*
X169719Y141828D01*
X169723Y141915D01*
X169725Y142077D01*
X169724Y142092D01*
X169720Y142151D01*
X169715Y142176D01*
X169710Y142200D01*
X169703Y142221D01*
X169696Y142241D01*
X169687Y142258D01*
X169676Y142273D01*
X169665Y142286D01*
X170085D01*
X170074Y142273D01*
D02*
G37*
G36*
X169321Y142122D02*
X169322Y142077D01*
X169332Y141958D01*
X169337Y141924D01*
X169345Y141892D01*
X169353Y141863D01*
X169363Y141837D01*
X169374Y141813D01*
X169387Y141792D01*
X169063D01*
X169064Y141797D01*
X169064Y141808D01*
X169067Y142148D01*
X169321Y142122D01*
D02*
G37*
G36*
X168702Y142050D02*
X168715Y141866D01*
X168719Y141842D01*
X168724Y141821D01*
X168730Y141805D01*
X168737Y141792D01*
X168413D01*
X168420Y141805D01*
X168426Y141821D01*
X168431Y141842D01*
X168435Y141866D01*
X168442Y141928D01*
X168447Y142005D01*
X168448Y142098D01*
X168702D01*
X168702Y142050D01*
D02*
G37*
G36*
X168124Y142273D02*
X168113Y142258D01*
X168104Y142241D01*
X168097Y142221D01*
X168090Y142200D01*
X168085Y142176D01*
X168080Y142151D01*
X168077Y142123D01*
X168076Y142085D01*
X168087Y141792D01*
X167763D01*
X167765Y141798D01*
X167767Y141811D01*
X167769Y141828D01*
X167773Y141915D01*
X167775Y142077D01*
X167774Y142092D01*
X167770Y142151D01*
X167765Y142176D01*
X167760Y142200D01*
X167753Y142221D01*
X167746Y142241D01*
X167737Y142258D01*
X167726Y142273D01*
X167715Y142286D01*
X168135D01*
X168124Y142273D01*
D02*
G37*
G36*
X167402Y142050D02*
X167415Y141866D01*
X167419Y141842D01*
X167424Y141821D01*
X167430Y141805D01*
X167437Y141792D01*
X167113D01*
X167120Y141805D01*
X167126Y141821D01*
X167131Y141842D01*
X167135Y141866D01*
X167142Y141928D01*
X167147Y142005D01*
X167148Y142098D01*
X167402D01*
X167402Y142050D01*
D02*
G37*
G36*
X166767Y142065D02*
X166783Y141801D01*
X166787Y141792D01*
X166463D01*
X166464Y141796D01*
X166464Y141806D01*
X166467Y141990D01*
X166467Y142098D01*
X166767Y142122D01*
X166767Y142065D01*
D02*
G37*
G36*
X132953Y141379D02*
X132971Y141362D01*
X133001Y141348D01*
X133043Y141335D01*
X133097Y141324D01*
X133163Y141316D01*
X133242Y141310D01*
X133554Y141330D01*
X133572Y141338D01*
X133578Y141347D01*
Y140653D01*
X133572Y140662D01*
X133554Y140670D01*
X133524Y140677D01*
X133482Y140683D01*
X133362Y140692D01*
X133344Y140693D01*
X133097Y140676D01*
X133043Y140665D01*
X133001Y140652D01*
X132971Y140638D01*
X132953Y140621D01*
X132947Y140603D01*
Y141397D01*
X132953Y141379D01*
D02*
G37*
G36*
X132053Y140603D02*
X132047Y140621D01*
X132029Y140638D01*
X131999Y140652D01*
X131957Y140665D01*
X131903Y140676D01*
X131837Y140684D01*
X131669Y140696D01*
X131453Y140700D01*
Y141300D01*
X131567Y141301D01*
X131903Y141324D01*
X131957Y141335D01*
X131999Y141348D01*
X132029Y141362D01*
X132047Y141379D01*
X132053Y141397D01*
Y140603D01*
D02*
G37*
G36*
X174725Y140528D02*
X174715Y140537D01*
X174701Y140544D01*
X174684Y140551D01*
X174664Y140557D01*
X174641Y140562D01*
X174615Y140566D01*
X174553Y140571D01*
X174478Y140573D01*
Y140973D01*
X174517Y140974D01*
X174615Y140980D01*
X174641Y140984D01*
X174664Y140989D01*
X174684Y140995D01*
X174701Y141002D01*
X174715Y141010D01*
X174725Y141018D01*
Y140528D01*
D02*
G37*
G36*
X130973Y140523D02*
X130854Y140522D01*
X130503Y140498D01*
X130447Y140488D01*
X130403Y140475D01*
X130372Y140460D01*
X130353Y140444D01*
X130347Y140426D01*
Y141219D01*
X130353Y141220D01*
X130372Y141221D01*
X130973Y141223D01*
Y140523D01*
D02*
G37*
G36*
X122553Y141219D02*
Y140426D01*
X122548Y140444D01*
X122532Y140460D01*
X122506Y140475D01*
X122469Y140488D01*
X122422Y140498D01*
X122364Y140507D01*
X122217Y140519D01*
X122027Y140523D01*
Y141223D01*
X122553Y141219D01*
D02*
G37*
G36*
X173301Y141135D02*
X173313Y141101D01*
X173334Y141071D01*
X173362Y141045D01*
X173398Y141023D01*
X173442Y141005D01*
X173495Y140991D01*
X173555Y140981D01*
X173624Y140975D01*
X173700Y140973D01*
Y140573D01*
X173624Y140571D01*
X173555Y140565D01*
X173495Y140555D01*
X173442Y140541D01*
X173398Y140523D01*
X173362Y140501D01*
X173334Y140475D01*
X173313Y140445D01*
X173301Y140411D01*
X173297Y140373D01*
Y141173D01*
X173301Y141135D01*
D02*
G37*
G36*
X123445Y140774D02*
X123451Y140759D01*
X123464Y140738D01*
X123486Y140709D01*
X123552Y140633D01*
X123777Y140399D01*
X123397Y140072D01*
X123325Y140143D01*
X123017Y140419D01*
X123000Y140426D01*
X122991Y140426D01*
X123447Y140782D01*
X123445Y140774D01*
D02*
G37*
G36*
X126105Y140095D02*
X126117Y140047D01*
X126133Y140000D01*
X126153Y139953D01*
X126177Y139906D01*
X126204Y139859D01*
X126236Y139813D01*
X126272Y139766D01*
X126311Y139720D01*
X126355Y139675D01*
X126175Y139495D01*
X126130Y139539D01*
X126037Y139614D01*
X125991Y139646D01*
X125944Y139673D01*
X125897Y139697D01*
X125850Y139717D01*
X125803Y139733D01*
X125755Y139745D01*
X125707Y139753D01*
X126097Y140143D01*
X126105Y140095D01*
D02*
G37*
G36*
X127299Y139653D02*
X127250Y139645D01*
X127158Y139623D01*
X127116Y139608D01*
X127076Y139592D01*
X127038Y139574D01*
X127002Y139553D01*
X126969Y139530D01*
X126938Y139506D01*
X126909Y139479D01*
X126729Y139659D01*
X126756Y139688D01*
X126780Y139719D01*
X126803Y139752D01*
X126824Y139788D01*
X126842Y139826D01*
X126858Y139866D01*
X126873Y139908D01*
X126885Y139953D01*
X126895Y140000D01*
X126903Y140049D01*
X127299Y139653D01*
D02*
G37*
G36*
X132056Y139450D02*
X132053Y139479D01*
X132044Y139504D01*
X132029Y139527D01*
X132008Y139546D01*
X131980Y139562D01*
X131947Y139576D01*
X131908Y139587D01*
X131862Y139594D01*
X131811Y139598D01*
X131753Y139600D01*
Y139900D01*
X131811Y139902D01*
X131862Y139906D01*
X131908Y139913D01*
X131947Y139924D01*
X131980Y139938D01*
X132008Y139954D01*
X132029Y139973D01*
X132044Y139996D01*
X132053Y140021D01*
X132056Y140050D01*
Y139450D01*
D02*
G37*
G36*
X132951Y140110D02*
X132963Y140076D01*
X132983Y140047D01*
X133011Y140021D01*
X133047Y139999D01*
X133091Y139982D01*
X133143Y139968D01*
X133203Y139958D01*
X133265Y139952D01*
X133382Y139963D01*
X133434Y139974D01*
X133478Y139987D01*
X133514Y140003D01*
X133542Y140022D01*
X133562Y140044D01*
X133574Y140069D01*
X133578Y140097D01*
Y139403D01*
X133574Y139431D01*
X133562Y139456D01*
X133542Y139478D01*
X133514Y139497D01*
X133478Y139513D01*
X133434Y139526D01*
X133382Y139537D01*
X133322Y139544D01*
X133267Y139548D01*
X133203Y139542D01*
X133143Y139532D01*
X133091Y139518D01*
X133047Y139501D01*
X133011Y139479D01*
X132983Y139453D01*
X132963Y139424D01*
X132951Y139390D01*
X132947Y139353D01*
Y140147D01*
X132951Y140110D01*
D02*
G37*
G36*
X128489Y139111D02*
X128271Y139091D01*
X128091Y139271D01*
X128092Y139273D01*
X128093Y139280D01*
X128111Y139489D01*
X128489Y139111D01*
D02*
G37*
G36*
X124884Y138946D02*
X124704Y138766D01*
X124699Y138769D01*
X124690Y138772D01*
X124677Y138775D01*
X124638Y138782D01*
X124466Y138802D01*
X124848Y139184D01*
X124884Y138946D01*
D02*
G37*
G36*
X129400Y138850D02*
X129389Y138846D01*
X129372Y138836D01*
X129349Y138818D01*
X129284Y138762D01*
X129011Y138499D01*
X128799Y138711D01*
X129150Y139100D01*
X129400Y138850D01*
D02*
G37*
G36*
X123854Y138689D02*
X123864Y138672D01*
X123882Y138649D01*
X123938Y138584D01*
X124201Y138311D01*
X123989Y138099D01*
X123600Y138450D01*
X123850Y138700D01*
X123854Y138689D01*
D02*
G37*
G36*
X132456Y137925D02*
X132453Y137954D01*
X132444Y137979D01*
X132429Y138001D01*
X132408Y138021D01*
X132380Y138038D01*
X132347Y138051D01*
X132308Y138061D01*
X132262Y138069D01*
X132211Y138074D01*
X132153Y138075D01*
Y138375D01*
X132211Y138376D01*
X132262Y138381D01*
X132308Y138389D01*
X132347Y138399D01*
X132380Y138413D01*
X132408Y138429D01*
X132429Y138449D01*
X132444Y138471D01*
X132453Y138497D01*
X132456Y138525D01*
Y137925D01*
D02*
G37*
G36*
X122751Y138370D02*
X122755Y138343D01*
X122761Y138317D01*
X122770Y138291D01*
X122781Y138264D01*
X122795Y138238D01*
X122812Y138212D01*
X122832Y138186D01*
X122854Y138160D01*
X122878Y138134D01*
X122666Y137922D01*
X122640Y137946D01*
X122614Y137968D01*
X122588Y137988D01*
X122562Y138005D01*
X122536Y138019D01*
X122509Y138030D01*
X122483Y138039D01*
X122457Y138045D01*
X122430Y138049D01*
X122404Y138050D01*
X122750Y138396D01*
X122751Y138370D01*
D02*
G37*
G36*
X127691Y138069D02*
X127679Y138057D01*
X127668Y138043D01*
X127658Y138026D01*
X127649Y138007D01*
X127642Y137986D01*
X127636Y137963D01*
X127631Y137937D01*
X127628Y137909D01*
X127626Y137880D01*
X127625Y137847D01*
X127325Y137876D01*
X127324Y137909D01*
X127320Y137967D01*
X127317Y137993D01*
X127312Y138017D01*
X127306Y138039D01*
X127299Y138058D01*
X127292Y138076D01*
X127283Y138091D01*
X127273Y138104D01*
X127691Y138069D01*
D02*
G37*
G36*
X130235Y137796D02*
X130237Y137492D01*
X129913D01*
X129917Y137501D01*
X129921Y137516D01*
X129924Y137536D01*
X129929Y137591D01*
X129934Y137715D01*
X129935Y137824D01*
X130235Y137796D01*
D02*
G37*
G36*
X129587Y137492D02*
X129263D01*
X129265Y137499D01*
X129267Y137511D01*
X129269Y137528D01*
X129273Y137615D01*
X129275Y137810D01*
X129575D01*
X129587Y137492D01*
D02*
G37*
G36*
X128937D02*
X128613D01*
X128615Y137499D01*
X128617Y137511D01*
X128619Y137528D01*
X128623Y137615D01*
X128625Y137810D01*
X128925D01*
X128937Y137492D01*
D02*
G37*
G36*
X128252Y137750D02*
X128265Y137566D01*
X128269Y137542D01*
X128274Y137521D01*
X128280Y137505D01*
X128287Y137492D01*
X127963D01*
X127970Y137505D01*
X127976Y137521D01*
X127981Y137542D01*
X127985Y137566D01*
X127992Y137628D01*
X127997Y137705D01*
X127998Y137798D01*
X128252D01*
X128252Y137750D01*
D02*
G37*
G36*
X127637Y137492D02*
X127313D01*
X127315Y137499D01*
X127317Y137511D01*
X127319Y137528D01*
X127323Y137615D01*
X127325Y137810D01*
X127625D01*
X127637Y137492D01*
D02*
G37*
G36*
X126946Y137757D02*
X126956Y137601D01*
X126961Y137572D01*
X126966Y137546D01*
X126972Y137524D01*
X126979Y137506D01*
X126987Y137492D01*
X126663D01*
X126669Y137503D01*
X126673Y137518D01*
X126678Y137537D01*
X126682Y137560D01*
X126687Y137620D01*
X126692Y137741D01*
X126692Y137789D01*
X126946Y137805D01*
X126946Y137757D01*
D02*
G37*
G36*
X126302Y137750D02*
X126315Y137566D01*
X126319Y137542D01*
X126324Y137521D01*
X126330Y137505D01*
X126337Y137492D01*
X126013D01*
X126020Y137505D01*
X126026Y137521D01*
X126031Y137542D01*
X126035Y137566D01*
X126042Y137628D01*
X126047Y137705D01*
X126048Y137798D01*
X126302D01*
X126302Y137750D01*
D02*
G37*
G36*
X124367Y137765D02*
X124383Y137501D01*
X124387Y137492D01*
X124063D01*
X124064Y137496D01*
X124064Y137506D01*
X124067Y137741D01*
X124067Y137798D01*
X124367Y137822D01*
X124367Y137765D01*
D02*
G37*
G36*
X123066Y137767D02*
X123083Y137501D01*
X123087Y137492D01*
X122763D01*
X122763Y137496D01*
X122764Y137505D01*
X122765Y137796D01*
X123065Y137824D01*
X123066Y137767D01*
D02*
G37*
G36*
X125713Y138051D02*
X125699Y138033D01*
X125688Y138013D01*
X125678Y137991D01*
X125669Y137967D01*
X125662Y137941D01*
X125657Y137913D01*
X125653Y137883D01*
X125651Y137850D01*
X125650Y137823D01*
X125650Y137790D01*
X125663Y137576D01*
X125668Y137548D01*
X125674Y137524D01*
X125680Y137506D01*
X125687Y137492D01*
X125363D01*
X125360Y137491D01*
X125358Y137495D01*
X125356Y137505D01*
X125354Y137520D01*
X125352Y137566D01*
X125350Y137725D01*
X125573Y137816D01*
X125350D01*
X125349Y137850D01*
X125343Y137913D01*
X125337Y137941D01*
X125330Y137967D01*
X125322Y137991D01*
X125312Y138013D01*
X125300Y138033D01*
X125287Y138051D01*
X125272Y138068D01*
X125727D01*
X125713Y138051D01*
D02*
G37*
G36*
X124922Y137798D02*
X124928Y137716D01*
X124933Y137681D01*
X124940Y137649D01*
X124949Y137621D01*
X124959Y137598D01*
X124971Y137578D01*
X124984Y137561D01*
X124999Y137549D01*
X124713Y137492D01*
X124704Y137483D01*
X124696Y137484D01*
X124689Y137494D01*
X124683Y137513D01*
X124678Y137542D01*
X124674Y137581D01*
X124669Y137687D01*
X124667Y137832D01*
X124921Y137845D01*
X124922Y137798D01*
D02*
G37*
G36*
X112756Y137122D02*
X112743Y137180D01*
X112704Y137231D01*
X112639Y137277D01*
X112547Y137316D01*
X112430Y137349D01*
X112286Y137377D01*
X112116Y137398D01*
X111698Y137422D01*
X111450Y137425D01*
Y139425D01*
X111698Y139428D01*
X112286Y139473D01*
X112430Y139501D01*
X112547Y139534D01*
X112639Y139574D01*
X112704Y139619D01*
X112743Y139670D01*
X112756Y139728D01*
Y137122D01*
D02*
G37*
G36*
X123403Y136200D02*
X123400Y136229D01*
X123391Y136254D01*
X123375Y136277D01*
X123354Y136296D01*
X123327Y136312D01*
X123294Y136326D01*
X123254Y136337D01*
X123250Y136337D01*
X123246Y136337D01*
X123206Y136326D01*
X123173Y136312D01*
X123146Y136296D01*
X123125Y136277D01*
X123109Y136254D01*
X123100Y136229D01*
X123097Y136200D01*
Y136800D01*
X123100Y136771D01*
X123109Y136746D01*
X123125Y136723D01*
X123146Y136704D01*
X123173Y136688D01*
X123206Y136674D01*
X123246Y136663D01*
X123250Y136663D01*
X123254Y136663D01*
X123294Y136674D01*
X123327Y136688D01*
X123354Y136704D01*
X123375Y136723D01*
X123391Y136746D01*
X123400Y136771D01*
X123403Y136800D01*
Y136200D01*
D02*
G37*
G36*
X130900Y136771D02*
X130909Y136746D01*
X130925Y136723D01*
X130946Y136704D01*
X130973Y136688D01*
X131006Y136674D01*
X131046Y136663D01*
X131091Y136656D01*
X131143Y136652D01*
X131200Y136650D01*
Y136350D01*
X131143Y136348D01*
X131091Y136344D01*
X131046Y136337D01*
X131006Y136326D01*
X130973Y136312D01*
X130946Y136296D01*
X130925Y136277D01*
X130909Y136254D01*
X130900Y136229D01*
X130897Y136200D01*
Y136800D01*
X130900Y136771D01*
D02*
G37*
G36*
X68799Y135436D02*
X68818Y135418D01*
X68839Y135402D01*
X68862Y135388D01*
X68887Y135377D01*
X68915Y135367D01*
X68944Y135360D01*
X68976Y135354D01*
X69010Y135351D01*
X69045Y135350D01*
X68997Y135050D01*
X68962Y135049D01*
X68895Y135043D01*
X68864Y135037D01*
X68835Y135030D01*
X68807Y135022D01*
X68781Y135012D01*
X68757Y135000D01*
X68734Y134987D01*
X68712Y134972D01*
X68782Y135457D01*
X68799Y135436D01*
D02*
G37*
G36*
X174659Y134662D02*
X174253Y134650D01*
X174200Y134950D01*
X174236Y134951D01*
X174268Y134954D01*
X174297Y134960D01*
X174322Y134967D01*
X174345Y134977D01*
X174363Y134989D01*
X174379Y135003D01*
X174391Y135019D01*
X174400Y135038D01*
X174405Y135058D01*
X174659Y134662D01*
D02*
G37*
G36*
X164519Y134977D02*
X164541Y134961D01*
X164564Y134947D01*
X164589Y134934D01*
X164616Y134924D01*
X164644Y134915D01*
X164674Y134909D01*
X164707Y134904D01*
X164740Y134901D01*
X164776Y134900D01*
Y134600D01*
X164740Y134599D01*
X164707Y134596D01*
X164674Y134591D01*
X164644Y134585D01*
X164616Y134576D01*
X164589Y134566D01*
X164564Y134553D01*
X164541Y134539D01*
X164519Y134523D01*
X164500Y134505D01*
Y134995D01*
X164519Y134977D01*
D02*
G37*
G36*
X173300Y135072D02*
X173309Y135046D01*
X173325Y135023D01*
X173346Y135004D01*
X173373Y134988D01*
X173406Y134974D01*
X173446Y134964D01*
X173491Y134956D01*
X173543Y134952D01*
X173600Y134950D01*
Y134650D01*
X173543Y134648D01*
X173491Y134644D01*
X173446Y134637D01*
X173406Y134626D01*
X173373Y134613D01*
X173346Y134596D01*
X173325Y134577D01*
X173309Y134554D01*
X173300Y134529D01*
X173297Y134500D01*
Y135100D01*
X173300Y135072D01*
D02*
G37*
G36*
X165803Y134450D02*
X165800Y134479D01*
X165791Y134504D01*
X165775Y134527D01*
X165754Y134546D01*
X165727Y134562D01*
X165694Y134576D01*
X165654Y134587D01*
X165609Y134594D01*
X165557Y134598D01*
X165500Y134600D01*
Y134900D01*
X165557Y134902D01*
X165609Y134906D01*
X165654Y134913D01*
X165694Y134924D01*
X165727Y134938D01*
X165754Y134954D01*
X165775Y134973D01*
X165791Y134996D01*
X165800Y135021D01*
X165803Y135050D01*
Y134450D01*
D02*
G37*
G36*
X164247Y134400D02*
X164220Y134399D01*
X164193Y134395D01*
X164167Y134389D01*
X164141Y134380D01*
X164114Y134369D01*
X164088Y134355D01*
X164062Y134338D01*
X164036Y134318D01*
X164010Y134296D01*
X163984Y134272D01*
X163772Y134484D01*
X163796Y134510D01*
X163818Y134536D01*
X163838Y134562D01*
X163855Y134588D01*
X163869Y134614D01*
X163880Y134641D01*
X163889Y134667D01*
X163895Y134693D01*
X163899Y134720D01*
X163900Y134747D01*
X164247Y134400D01*
D02*
G37*
G36*
X142571Y137503D02*
X142645Y137418D01*
X142768Y137344D01*
X142939Y137279D01*
X143160Y137224D01*
X143430Y137180D01*
X143749Y137145D01*
X144534Y137105D01*
X145000Y137100D01*
Y134600D01*
X144534Y134595D01*
X143430Y134520D01*
X143160Y134476D01*
X142939Y134421D01*
X142768Y134356D01*
X142645Y134282D01*
X142571Y134197D01*
X142547Y134103D01*
Y137597D01*
X142571Y137503D01*
D02*
G37*
G36*
X158556Y134186D02*
X158592Y134084D01*
X158646Y134003D01*
X158744Y133950D01*
X158882Y133891D01*
X159034Y133841D01*
X159201Y133798D01*
X159381Y133762D01*
X159577Y133735D01*
X160011Y133704D01*
X160250Y133700D01*
Y132500D01*
X160011Y132496D01*
X159577Y132465D01*
X159381Y132438D01*
X159201Y132402D01*
X159034Y132359D01*
X158882Y132309D01*
X158744Y132250D01*
X158646Y132197D01*
X158592Y132116D01*
X158556Y132014D01*
X158544Y131900D01*
Y132131D01*
X158512Y132109D01*
Y134090D01*
X158544Y134069D01*
Y134300D01*
X158556Y134186D01*
D02*
G37*
G36*
X166785Y133802D02*
X166783Y133791D01*
X166781Y133776D01*
X166777Y133700D01*
X166775Y133533D01*
X166475D01*
X166463Y133808D01*
X166787D01*
X166785Y133802D01*
D02*
G37*
G36*
X170685Y133801D02*
X170683Y133789D01*
X170681Y133772D01*
X170677Y133685D01*
X170675Y133490D01*
X170375D01*
X170363Y133808D01*
X170687D01*
X170685Y133801D01*
D02*
G37*
G36*
X169385D02*
X169383Y133789D01*
X169381Y133772D01*
X169377Y133685D01*
X169375Y133490D01*
X169075D01*
X169063Y133808D01*
X169387D01*
X169385Y133801D01*
D02*
G37*
G36*
X168735D02*
X168733Y133789D01*
X168731Y133772D01*
X168727Y133685D01*
X168725Y133490D01*
X168425D01*
X168413Y133808D01*
X168737D01*
X168735Y133801D01*
D02*
G37*
G36*
X168085D02*
X168083Y133789D01*
X168081Y133772D01*
X168077Y133685D01*
X168075Y133490D01*
X167775D01*
X167763Y133808D01*
X168087D01*
X168085Y133801D01*
D02*
G37*
G36*
X167435D02*
X167433Y133789D01*
X167431Y133772D01*
X167427Y133685D01*
X167425Y133490D01*
X167125D01*
X167113Y133808D01*
X167437D01*
X167435Y133801D01*
D02*
G37*
G36*
X171987Y133804D02*
X171986Y133795D01*
X171985Y133504D01*
X171685Y133476D01*
X171684Y133533D01*
X171667Y133799D01*
X171663Y133808D01*
X171987D01*
X171987Y133804D01*
D02*
G37*
G36*
X170029Y133793D02*
X170022Y133774D01*
X170016Y133750D01*
X170011Y133721D01*
X170002Y133649D01*
X169997Y133558D01*
X169996Y133449D01*
X169696Y133406D01*
X169713Y133808D01*
X170037D01*
X170029Y133793D01*
D02*
G37*
G36*
X171335Y133801D02*
X171333Y133789D01*
X171331Y133772D01*
X171327Y133685D01*
X171325Y133525D01*
X171326Y133501D01*
X171329Y133467D01*
X171334Y133435D01*
X171341Y133405D01*
X171350Y133377D01*
X171362Y133351D01*
X171375Y133327D01*
X171390Y133305D01*
X171407Y133285D01*
X171426Y133266D01*
X170938Y133232D01*
X170954Y133252D01*
X170969Y133275D01*
X170982Y133299D01*
X170994Y133324D01*
X171003Y133351D01*
X171011Y133380D01*
X171017Y133411D01*
X171022Y133443D01*
X171024Y133477D01*
X171025Y133499D01*
X171013Y133808D01*
X171337D01*
X171335Y133801D01*
D02*
G37*
G36*
X182700Y133105D02*
X182681Y133123D01*
X182659Y133139D01*
X182636Y133153D01*
X182611Y133166D01*
X182584Y133176D01*
X182556Y133185D01*
X182526Y133191D01*
X182493Y133196D01*
X182460Y133199D01*
X182424Y133200D01*
Y133500D01*
X182460Y133501D01*
X182493Y133504D01*
X182526Y133509D01*
X182556Y133515D01*
X182584Y133524D01*
X182611Y133534D01*
X182636Y133547D01*
X182659Y133561D01*
X182681Y133577D01*
X182700Y133595D01*
Y133105D01*
D02*
G37*
G36*
X166642Y133338D02*
X166617Y133312D01*
X166596Y133286D01*
X166578Y133260D01*
X166563Y133234D01*
X166551Y133208D01*
X166542Y133182D01*
X166537Y133156D01*
X166535Y133131D01*
X166536Y133105D01*
X166540Y133080D01*
X166127Y133342D01*
X166151Y133348D01*
X166175Y133356D01*
X166200Y133367D01*
X166225Y133379D01*
X166249Y133394D01*
X166275Y133410D01*
X166325Y133450D01*
X166351Y133472D01*
X166377Y133497D01*
X166642Y133338D01*
D02*
G37*
G36*
X168075Y133213D02*
X168082Y132809D01*
X167663Y133039D01*
X167684Y133046D01*
X167703Y133057D01*
X167720Y133071D01*
X167735Y133088D01*
X167747Y133108D01*
X167757Y133132D01*
X167765Y133159D01*
X167771Y133189D01*
X167774Y133222D01*
X167775Y133259D01*
X168075Y133213D01*
D02*
G37*
G36*
X172190Y132940D02*
X172193Y132906D01*
X172198Y132875D01*
X172206Y132845D01*
X172216Y132818D01*
X172228Y132793D01*
X172242Y132771D01*
X172258Y132750D01*
X172277Y132732D01*
X172297Y132716D01*
X171815Y132630D01*
X171829Y132652D01*
X171841Y132675D01*
X171852Y132699D01*
X171862Y132726D01*
X171870Y132753D01*
X171877Y132783D01*
X171882Y132814D01*
X171888Y132880D01*
X171889Y132916D01*
X172189Y132976D01*
X172190Y132940D01*
D02*
G37*
G36*
X52818Y132341D02*
X52775Y132398D01*
X52729Y132449D01*
X52682Y132493D01*
X52632Y132532D01*
X52580Y132565D01*
X52526Y132592D01*
X52470Y132613D01*
X52412Y132628D01*
X52352Y132637D01*
X52290Y132640D01*
Y132940D01*
X52352Y132943D01*
X52412Y132952D01*
X52470Y132967D01*
X52526Y132988D01*
X52580Y133015D01*
X52632Y133048D01*
X52682Y133087D01*
X52729Y133131D01*
X52775Y133182D01*
X52818Y133239D01*
Y132341D01*
D02*
G37*
G36*
X181896Y132077D02*
X181870Y132076D01*
X181843Y132072D01*
X181817Y132066D01*
X181791Y132057D01*
X181764Y132046D01*
X181738Y132032D01*
X181712Y132015D01*
X181686Y131996D01*
X181660Y131974D01*
X181634Y131949D01*
X181422Y132161D01*
X181446Y132187D01*
X181468Y132213D01*
X181488Y132239D01*
X181505Y132265D01*
X181519Y132292D01*
X181530Y132318D01*
X181539Y132344D01*
X181545Y132371D01*
X181549Y132397D01*
X181550Y132424D01*
X181896Y132077D01*
D02*
G37*
G36*
X148956Y131897D02*
X148940Y131969D01*
X148891Y132034D01*
X148809Y132091D01*
X148695Y132140D01*
X148548Y132182D01*
X148368Y132216D01*
X148156Y132242D01*
X147633Y132273D01*
X147323Y132277D01*
Y134777D01*
X148953Y134847D01*
X148956Y131897D01*
D02*
G37*
G36*
X175269Y132327D02*
X175290Y132311D01*
X175314Y132296D01*
X175339Y132284D01*
X175365Y132273D01*
X175394Y132265D01*
X175424Y132258D01*
X175456Y132254D01*
X175490Y132251D01*
X175526Y132250D01*
Y131950D01*
X175490Y131949D01*
X175456Y131946D01*
X175424Y131941D01*
X175394Y131935D01*
X175365Y131926D01*
X175339Y131916D01*
X175314Y131903D01*
X175290Y131889D01*
X175269Y131873D01*
X175250Y131855D01*
Y132345D01*
X175269Y132327D01*
D02*
G37*
G36*
X174750Y131855D02*
X174730Y131873D01*
X174709Y131889D01*
X174686Y131903D01*
X174661Y131916D01*
X174634Y131926D01*
X174606Y131935D01*
X174575Y131941D01*
X174543Y131946D01*
X174509Y131949D01*
X174473Y131950D01*
Y132250D01*
X174509Y132251D01*
X174543Y132254D01*
X174575Y132258D01*
X174606Y132265D01*
X174634Y132273D01*
X174661Y132284D01*
X174686Y132296D01*
X174709Y132311D01*
X174730Y132327D01*
X174750Y132345D01*
Y131855D01*
D02*
G37*
G36*
X69466Y132670D02*
X69479Y132468D01*
X69492Y132380D01*
X69508Y132298D01*
X69528Y132225D01*
X69553Y132160D01*
X69581Y132102D01*
X69613Y132052D01*
X69649Y132010D01*
X69470Y131831D01*
X69428Y131867D01*
X69378Y131899D01*
X69320Y131927D01*
X69255Y131952D01*
X69182Y131972D01*
X69101Y131988D01*
X69012Y132001D01*
X68810Y132014D01*
X68698Y132015D01*
X69465Y132782D01*
X69466Y132670D01*
D02*
G37*
G36*
X66926D02*
X66939Y132468D01*
X66952Y132380D01*
X66968Y132298D01*
X66988Y132225D01*
X67013Y132160D01*
X67041Y132102D01*
X67073Y132052D01*
X67109Y132010D01*
X66930Y131831D01*
X66888Y131867D01*
X66838Y131899D01*
X66780Y131927D01*
X66715Y131952D01*
X66642Y131972D01*
X66561Y131988D01*
X66472Y132001D01*
X66270Y132014D01*
X66158Y132015D01*
X66925Y132782D01*
X66926Y132670D01*
D02*
G37*
G36*
X89002Y132015D02*
X88896Y132014D01*
X88704Y132000D01*
X88618Y131986D01*
X88539Y131968D01*
X88467Y131947D01*
X88403Y131921D01*
X88345Y131890D01*
X88294Y131856D01*
X88250Y131817D01*
X88037Y132030D01*
X88076Y132074D01*
X88110Y132125D01*
X88141Y132183D01*
X88167Y132248D01*
X88188Y132319D01*
X88206Y132398D01*
X88220Y132484D01*
X88229Y132576D01*
X88235Y132782D01*
X89002Y132015D01*
D02*
G37*
G36*
X86462D02*
X86356Y132014D01*
X86164Y132000D01*
X86078Y131986D01*
X85999Y131968D01*
X85927Y131947D01*
X85863Y131921D01*
X85805Y131890D01*
X85754Y131856D01*
X85710Y131817D01*
X85497Y132030D01*
X85536Y132074D01*
X85570Y132125D01*
X85601Y132183D01*
X85627Y132248D01*
X85648Y132319D01*
X85666Y132398D01*
X85680Y132484D01*
X85689Y132576D01*
X85695Y132782D01*
X86462Y132015D01*
D02*
G37*
G36*
X83922D02*
X83816Y132014D01*
X83624Y132000D01*
X83538Y131986D01*
X83459Y131968D01*
X83387Y131947D01*
X83323Y131921D01*
X83265Y131890D01*
X83214Y131856D01*
X83170Y131817D01*
X82957Y132030D01*
X82996Y132074D01*
X83030Y132125D01*
X83061Y132183D01*
X83087Y132248D01*
X83108Y132319D01*
X83126Y132398D01*
X83140Y132484D01*
X83149Y132576D01*
X83155Y132782D01*
X83922Y132015D01*
D02*
G37*
G36*
X74546Y132676D02*
X74560Y132484D01*
X74574Y132398D01*
X74592Y132319D01*
X74613Y132248D01*
X74639Y132183D01*
X74670Y132125D01*
X74704Y132074D01*
X74743Y132030D01*
X74530Y131817D01*
X74486Y131856D01*
X74435Y131890D01*
X74377Y131921D01*
X74312Y131947D01*
X74241Y131968D01*
X74162Y131986D01*
X74076Y132000D01*
X73984Y132009D01*
X73778Y132015D01*
X74545Y132782D01*
X74546Y132676D01*
D02*
G37*
G36*
X59306D02*
X59320Y132484D01*
X59334Y132398D01*
X59352Y132319D01*
X59373Y132248D01*
X59399Y132183D01*
X59430Y132125D01*
X59464Y132074D01*
X59503Y132030D01*
X59290Y131817D01*
X59246Y131856D01*
X59195Y131890D01*
X59137Y131921D01*
X59072Y131947D01*
X59001Y131968D01*
X58922Y131986D01*
X58836Y132000D01*
X58744Y132009D01*
X58538Y132015D01*
X59305Y132782D01*
X59306Y132676D01*
D02*
G37*
G36*
X163777Y131914D02*
X163781Y131863D01*
X163788Y131817D01*
X163799Y131778D01*
X163812Y131745D01*
X163829Y131717D01*
X163848Y131696D01*
X163871Y131681D01*
X163896Y131672D01*
X163925Y131669D01*
X163325D01*
X163354Y131672D01*
X163379Y131681D01*
X163402Y131696D01*
X163421Y131717D01*
X163438Y131745D01*
X163451Y131778D01*
X163462Y131817D01*
X163469Y131863D01*
X163473Y131914D01*
X163475Y131972D01*
X163775D01*
X163777Y131914D01*
D02*
G37*
G36*
X167147Y131839D02*
X167152Y131788D01*
X167159Y131742D01*
X167170Y131703D01*
X167183Y131670D01*
X167200Y131642D01*
X167219Y131621D01*
X167242Y131606D01*
X167267Y131597D01*
X167296Y131594D01*
X166696D01*
X166724Y131597D01*
X166750Y131606D01*
X166772Y131621D01*
X166792Y131642D01*
X166808Y131670D01*
X166822Y131703D01*
X166832Y131742D01*
X166840Y131788D01*
X166844Y131839D01*
X166846Y131897D01*
X167146D01*
X167147Y131839D01*
D02*
G37*
G36*
X156953Y131353D02*
X156928Y131447D01*
X156853Y131532D01*
X156728Y131607D01*
X156553Y131671D01*
X156328Y131726D01*
X156053Y131770D01*
X155728Y131805D01*
X154928Y131845D01*
X154453Y131850D01*
Y134350D01*
X154928Y134355D01*
X156053Y134430D01*
X156328Y134474D01*
X156553Y134529D01*
X156728Y134594D01*
X156853Y134668D01*
X156928Y134753D01*
X156953Y134847D01*
Y131353D01*
D02*
G37*
G36*
X150572Y134753D02*
X150647Y134668D01*
X150772Y134594D01*
X150947Y134529D01*
X151172Y134474D01*
X151447Y134430D01*
X151772Y134395D01*
X152572Y134355D01*
X153047Y134350D01*
Y131850D01*
X152572Y131845D01*
X151447Y131770D01*
X151172Y131726D01*
X150947Y131671D01*
X150772Y131606D01*
X150647Y131532D01*
X150572Y131447D01*
X150547Y131353D01*
Y134847D01*
X150572Y134753D01*
D02*
G37*
G36*
X176019Y131477D02*
X176041Y131461D01*
X176064Y131447D01*
X176089Y131434D01*
X176116Y131424D01*
X176144Y131415D01*
X176174Y131409D01*
X176207Y131404D01*
X176240Y131401D01*
X176276Y131400D01*
Y131100D01*
X176240Y131099D01*
X176207Y131096D01*
X176174Y131091D01*
X176144Y131085D01*
X176116Y131076D01*
X176089Y131066D01*
X176064Y131053D01*
X176041Y131039D01*
X176019Y131023D01*
X176000Y131005D01*
Y131495D01*
X176019Y131477D01*
D02*
G37*
G36*
X166656Y130950D02*
X166653Y130979D01*
X166644Y131004D01*
X166629Y131027D01*
X166608Y131046D01*
X166580Y131062D01*
X166547Y131076D01*
X166508Y131087D01*
X166462Y131094D01*
X166411Y131098D01*
X166353Y131100D01*
Y131400D01*
X166411Y131402D01*
X166462Y131406D01*
X166508Y131413D01*
X166547Y131424D01*
X166580Y131438D01*
X166608Y131454D01*
X166629Y131473D01*
X166644Y131496D01*
X166653Y131521D01*
X166656Y131550D01*
Y130950D01*
D02*
G37*
G36*
X165225Y131521D02*
X165234Y131496D01*
X165249Y131473D01*
X165270Y131454D01*
X165297Y131438D01*
X165330Y131424D01*
X165369Y131413D01*
X165414Y131406D01*
X165465Y131402D01*
X165522Y131400D01*
Y131100D01*
X165465Y131098D01*
X165414Y131094D01*
X165369Y131087D01*
X165330Y131076D01*
X165297Y131062D01*
X165270Y131046D01*
X165249Y131027D01*
X165234Y131004D01*
X165225Y130979D01*
X165222Y130950D01*
Y131550D01*
X165225Y131521D01*
D02*
G37*
G36*
X175660Y130912D02*
X175653Y130912D01*
X175645Y130909D01*
X175634Y130904D01*
X175621Y130896D01*
X175606Y130885D01*
X175571Y130855D01*
X175527Y130814D01*
X175502Y130790D01*
X175290Y131002D01*
X175314Y131027D01*
X175396Y131121D01*
X175404Y131134D01*
X175409Y131145D01*
X175412Y131153D01*
X175412Y131160D01*
X175660Y130912D01*
D02*
G37*
G36*
X168726Y131223D02*
X168730Y131189D01*
X168735Y131158D01*
X168743Y131130D01*
X168754Y131105D01*
X168766Y131083D01*
X168781Y131063D01*
X168798Y131046D01*
X168818Y131032D01*
X168840Y131021D01*
X168382Y130846D01*
X168390Y130866D01*
X168397Y130887D01*
X168404Y130911D01*
X168414Y130963D01*
X168418Y130992D01*
X168425Y131090D01*
X168425Y131127D01*
X168725Y131259D01*
X168726Y131223D01*
D02*
G37*
G36*
X122103Y130200D02*
X122100Y130229D01*
X122091Y130254D01*
X122075Y130277D01*
X122054Y130296D01*
X122027Y130312D01*
X121994Y130326D01*
X121954Y130337D01*
X121909Y130344D01*
X121870Y130347D01*
X121857Y130346D01*
X121824Y130341D01*
X121794Y130335D01*
X121766Y130326D01*
X121739Y130316D01*
X121714Y130303D01*
X121691Y130289D01*
X121669Y130273D01*
X121650Y130255D01*
Y130745D01*
X121669Y130727D01*
X121691Y130711D01*
X121714Y130697D01*
X121739Y130684D01*
X121766Y130674D01*
X121794Y130665D01*
X121824Y130659D01*
X121857Y130654D01*
X121870Y130653D01*
X121909Y130656D01*
X121954Y130663D01*
X121994Y130674D01*
X122027Y130688D01*
X122054Y130704D01*
X122075Y130723D01*
X122091Y130746D01*
X122100Y130771D01*
X122103Y130800D01*
Y130200D01*
D02*
G37*
G36*
X165146Y130828D02*
X165121Y130819D01*
X165098Y130804D01*
X165079Y130783D01*
X165062Y130755D01*
X165049Y130722D01*
X165038Y130683D01*
X165031Y130637D01*
X165027Y130586D01*
X165025Y130528D01*
X164766D01*
X164978Y130316D01*
X164951Y130288D01*
X164907Y130237D01*
X164889Y130213D01*
X164874Y130191D01*
X164863Y130170D01*
X164854Y130150D01*
X164848Y130132D01*
X164846Y130115D01*
X164847Y130099D01*
X164549Y130397D01*
X164565Y130396D01*
X164582Y130398D01*
X164600Y130404D01*
X164620Y130413D01*
X164641Y130424D01*
X164663Y130439D01*
X164687Y130457D01*
X164738Y130501D01*
X164766Y130528D01*
X164725D01*
X164723Y130586D01*
X164719Y130637D01*
X164712Y130683D01*
X164701Y130722D01*
X164688Y130755D01*
X164671Y130783D01*
X164652Y130804D01*
X164629Y130819D01*
X164604Y130828D01*
X164575Y130831D01*
X165175D01*
X165146Y130828D01*
D02*
G37*
G36*
X78134Y131184D02*
X78185Y131150D01*
X78243Y131119D01*
X78308Y131093D01*
X78379Y131072D01*
X78458Y131054D01*
X78544Y131040D01*
X78636Y131031D01*
X78842Y131025D01*
X78075Y130258D01*
X78074Y130364D01*
X78060Y130556D01*
X78046Y130642D01*
X78028Y130721D01*
X78007Y130792D01*
X77981Y130857D01*
X77950Y130915D01*
X77916Y130966D01*
X77877Y131010D01*
X78090Y131223D01*
X78134Y131184D01*
D02*
G37*
G36*
X72203Y131010D02*
X72164Y130966D01*
X72130Y130915D01*
X72099Y130857D01*
X72073Y130792D01*
X72052Y130721D01*
X72034Y130642D01*
X72020Y130556D01*
X72011Y130464D01*
X72005Y130258D01*
X71238Y131025D01*
X71344Y131026D01*
X71536Y131040D01*
X71622Y131054D01*
X71701Y131072D01*
X71772Y131093D01*
X71837Y131119D01*
X71895Y131150D01*
X71946Y131184D01*
X71990Y131223D01*
X72203Y131010D01*
D02*
G37*
G36*
X65434Y131184D02*
X65485Y131150D01*
X65543Y131119D01*
X65607Y131093D01*
X65679Y131072D01*
X65758Y131054D01*
X65844Y131040D01*
X65936Y131031D01*
X66142Y131025D01*
X65375Y130258D01*
X65374Y130364D01*
X65360Y130556D01*
X65346Y130642D01*
X65328Y130721D01*
X65307Y130792D01*
X65281Y130857D01*
X65250Y130915D01*
X65216Y130966D01*
X65177Y131010D01*
X65390Y131223D01*
X65434Y131184D01*
D02*
G37*
G36*
X80530Y131053D02*
X80583Y131018D01*
X80641Y130991D01*
X80704Y130971D01*
X80772Y130958D01*
X80845Y130951D01*
X80923Y130953D01*
X81006Y130961D01*
X81095Y130976D01*
X81188Y130998D01*
X80638Y130063D01*
X80608Y130179D01*
X80485Y130555D01*
X80454Y130626D01*
X80423Y130690D01*
X80391Y130744D01*
X80359Y130789D01*
X80327Y130826D01*
X80483Y131094D01*
X80530Y131053D01*
D02*
G37*
G36*
X176660Y130254D02*
X176686Y130232D01*
X176712Y130212D01*
X176738Y130195D01*
X176764Y130181D01*
X176791Y130170D01*
X176817Y130161D01*
X176843Y130155D01*
X176870Y130151D01*
X176896Y130150D01*
X176550Y129803D01*
X176549Y129830D01*
X176545Y129857D01*
X176539Y129883D01*
X176530Y129909D01*
X176519Y129936D01*
X176505Y129962D01*
X176488Y129988D01*
X176468Y130014D01*
X176446Y130040D01*
X176422Y130066D01*
X176634Y130278D01*
X176660Y130254D01*
D02*
G37*
G36*
X99147Y129475D02*
X99045Y129476D01*
X98860Y129464D01*
X98777Y129451D01*
X98701Y129434D01*
X98630Y129412D01*
X98566Y129385D01*
X98507Y129354D01*
X98455Y129318D01*
X98410Y129277D01*
X98197Y129490D01*
X98238Y129535D01*
X98274Y129587D01*
X98305Y129646D01*
X98332Y129710D01*
X98354Y129781D01*
X98371Y129857D01*
X98384Y129941D01*
X98392Y130030D01*
X98396Y130125D01*
X98395Y130227D01*
X99147Y129475D01*
D02*
G37*
G36*
X97404Y130125D02*
X97416Y129941D01*
X97429Y129857D01*
X97446Y129781D01*
X97468Y129710D01*
X97495Y129646D01*
X97526Y129587D01*
X97562Y129535D01*
X97603Y129490D01*
X97390Y129277D01*
X97345Y129318D01*
X97293Y129354D01*
X97234Y129385D01*
X97170Y129412D01*
X97099Y129434D01*
X97022Y129451D01*
X96939Y129464D01*
X96850Y129472D01*
X96755Y129476D01*
X96653Y129475D01*
X97405Y130227D01*
X97404Y130125D01*
D02*
G37*
G36*
X79626Y130136D02*
X79640Y129944D01*
X79654Y129858D01*
X79672Y129779D01*
X79693Y129708D01*
X79719Y129643D01*
X79750Y129585D01*
X79784Y129534D01*
X79823Y129490D01*
X79610Y129277D01*
X79566Y129316D01*
X79515Y129350D01*
X79457Y129381D01*
X79393Y129407D01*
X79321Y129428D01*
X79242Y129446D01*
X79156Y129460D01*
X79064Y129469D01*
X78858Y129475D01*
X79625Y130242D01*
X79626Y130136D01*
D02*
G37*
G36*
X56766D02*
X56780Y129944D01*
X56794Y129858D01*
X56812Y129779D01*
X56833Y129708D01*
X56859Y129643D01*
X56890Y129585D01*
X56924Y129534D01*
X56963Y129490D01*
X56750Y129277D01*
X56706Y129316D01*
X56655Y129350D01*
X56597Y129381D01*
X56533Y129407D01*
X56461Y129428D01*
X56382Y129446D01*
X56296Y129460D01*
X56204Y129469D01*
X55998Y129475D01*
X56765Y130242D01*
X56766Y130136D01*
D02*
G37*
G36*
X54205Y129879D02*
X54196Y129851D01*
Y129820D01*
X54205Y129784D01*
X54222Y129743D01*
X54247Y129699D01*
X54281Y129650D01*
X54324Y129597D01*
X54434Y129478D01*
X54222Y129266D01*
X54160Y129325D01*
X54050Y129419D01*
X54001Y129453D01*
X53957Y129478D01*
X53916Y129495D01*
X53880Y129504D01*
X53849D01*
X53821Y129495D01*
X53798Y129478D01*
X54222Y129902D01*
X54205Y129879D01*
D02*
G37*
G36*
X130217Y129486D02*
X130214Y129479D01*
X130211Y129467D01*
X130209Y129450D01*
X130205Y129403D01*
X130202Y129252D01*
X129948D01*
X129948Y129297D01*
X129936Y129479D01*
X129933Y129486D01*
X129930Y129488D01*
X130220D01*
X130217Y129486D01*
D02*
G37*
G36*
X123085Y129502D02*
X123083Y129491D01*
X123081Y129475D01*
X123077Y129397D01*
X123075Y129225D01*
X122775D01*
X122763Y129508D01*
X123087D01*
X123085Y129502D01*
D02*
G37*
G36*
X129580Y129495D02*
X129574Y129479D01*
X129569Y129458D01*
X129565Y129434D01*
X129558Y129372D01*
X129553Y129295D01*
X129552Y129202D01*
X129298D01*
X129298Y129250D01*
X129285Y129434D01*
X129281Y129458D01*
X129276Y129479D01*
X129270Y129495D01*
X129263Y129508D01*
X129587D01*
X129580Y129495D01*
D02*
G37*
G36*
X128930D02*
X128924Y129479D01*
X128919Y129458D01*
X128915Y129434D01*
X128908Y129372D01*
X128903Y129295D01*
X128902Y129202D01*
X128648D01*
X128648Y129250D01*
X128635Y129434D01*
X128631Y129458D01*
X128626Y129479D01*
X128620Y129495D01*
X128613Y129508D01*
X128937D01*
X128930Y129495D01*
D02*
G37*
G36*
X128280D02*
X128274Y129479D01*
X128269Y129458D01*
X128265Y129434D01*
X128258Y129372D01*
X128253Y129295D01*
X128252Y129202D01*
X127998D01*
X127998Y129250D01*
X127985Y129434D01*
X127981Y129458D01*
X127976Y129479D01*
X127970Y129495D01*
X127963Y129508D01*
X128287D01*
X128280Y129495D01*
D02*
G37*
G36*
X127630D02*
X127624Y129479D01*
X127619Y129458D01*
X127615Y129434D01*
X127608Y129372D01*
X127603Y129295D01*
X127602Y129202D01*
X127348D01*
X127348Y129250D01*
X127335Y129434D01*
X127331Y129458D01*
X127326Y129479D01*
X127320Y129495D01*
X127313Y129508D01*
X127637D01*
X127630Y129495D01*
D02*
G37*
G36*
X126980D02*
X126974Y129479D01*
X126969Y129458D01*
X126965Y129434D01*
X126958Y129372D01*
X126953Y129295D01*
X126952Y129202D01*
X126698D01*
X126698Y129250D01*
X126685Y129434D01*
X126681Y129458D01*
X126676Y129479D01*
X126670Y129495D01*
X126663Y129508D01*
X126987D01*
X126980Y129495D01*
D02*
G37*
G36*
X89308Y129531D02*
X89277Y129508D01*
X89249Y129481D01*
X89226Y129451D01*
X89206Y129417D01*
X89189Y129379D01*
X89176Y129337D01*
X89167Y129292D01*
X89162Y129243D01*
X89160Y129190D01*
X88860D01*
X88858Y129243D01*
X88853Y129292D01*
X88844Y129337D01*
X88831Y129379D01*
X88814Y129417D01*
X88794Y129451D01*
X88771Y129481D01*
X88743Y129508D01*
X88712Y129531D01*
X88677Y129550D01*
X89342D01*
X89308Y129531D01*
D02*
G37*
G36*
X126335Y129501D02*
X126333Y129489D01*
X126331Y129472D01*
X126327Y129385D01*
X126325Y129190D01*
X126025D01*
X126013Y129508D01*
X126337D01*
X126335Y129501D01*
D02*
G37*
G36*
X125685D02*
X125683Y129489D01*
X125681Y129472D01*
X125677Y129385D01*
X125675Y129190D01*
X125375D01*
X125363Y129508D01*
X125687D01*
X125685Y129501D01*
D02*
G37*
G36*
X124385D02*
X124383Y129489D01*
X124381Y129472D01*
X124377Y129385D01*
X124375Y129190D01*
X124075D01*
X124063Y129508D01*
X124387D01*
X124385Y129501D01*
D02*
G37*
G36*
X123735D02*
X123733Y129489D01*
X123731Y129472D01*
X123727Y129385D01*
X123725Y129190D01*
X123425D01*
X123413Y129508D01*
X123737D01*
X123735Y129501D01*
D02*
G37*
G36*
X138827Y129331D02*
X138811Y129309D01*
X138797Y129286D01*
X138784Y129261D01*
X138774Y129234D01*
X138765Y129206D01*
X138759Y129176D01*
X138754Y129143D01*
X138751Y129109D01*
X138750Y129074D01*
X138450D01*
X138449Y129109D01*
X138446Y129143D01*
X138441Y129176D01*
X138435Y129206D01*
X138426Y129234D01*
X138416Y129261D01*
X138403Y129286D01*
X138389Y129309D01*
X138373Y129331D01*
X138355Y129350D01*
X138845D01*
X138827Y129331D01*
D02*
G37*
G36*
X81825Y129599D02*
X81765Y129539D01*
X81712Y129479D01*
X81667Y129418D01*
X81628Y129356D01*
X81596Y129295D01*
X81572Y129233D01*
X81554Y129171D01*
X81544Y129108D01*
X81540Y129045D01*
X81240D01*
X81236Y129108D01*
X81226Y129171D01*
X81208Y129233D01*
X81184Y129295D01*
X81152Y129356D01*
X81113Y129418D01*
X81068Y129479D01*
X81015Y129539D01*
X80955Y129599D01*
X80888Y129659D01*
X81892D01*
X81825Y129599D01*
D02*
G37*
G36*
X92018Y129621D02*
X91892Y129474D01*
X91841Y129404D01*
X91798Y129336D01*
X91763Y129270D01*
X91735Y129206D01*
X91716Y129143D01*
X91704Y129083D01*
X91700Y129025D01*
X91400D01*
X91396Y129083D01*
X91384Y129143D01*
X91365Y129206D01*
X91337Y129270D01*
X91302Y129336D01*
X91259Y129404D01*
X91208Y129474D01*
X91149Y129547D01*
X91007Y129697D01*
X92092Y129697D01*
X92018Y129621D01*
D02*
G37*
G36*
X128253Y129080D02*
X128257Y129047D01*
X128263Y129016D01*
X128271Y128986D01*
X128281Y128956D01*
X128294Y128928D01*
X128310Y128901D01*
X128328Y128875D01*
X128348Y128851D01*
X128370Y128827D01*
X127880D01*
X127902Y128851D01*
X127922Y128875D01*
X127940Y128901D01*
X127956Y128928D01*
X127968Y128956D01*
X127979Y128986D01*
X127987Y129016D01*
X127993Y129047D01*
X127997Y129080D01*
X127998Y129113D01*
X128252D01*
X128253Y129080D01*
D02*
G37*
G36*
X129574Y128871D02*
X129648Y128806D01*
X129671Y128790D01*
X129711Y128764D01*
X129730Y128755D01*
X129747Y128748D01*
X129763Y128744D01*
X129393Y128568D01*
X129400Y128584D01*
X129405Y128601D01*
X129406Y128618D01*
X129405Y128636D01*
X129400Y128654D01*
X129393Y128672D01*
X129383Y128691D01*
X129370Y128710D01*
X129354Y128730D01*
X129335Y128750D01*
X129546Y128898D01*
X129574Y128871D01*
D02*
G37*
G36*
X130654Y128854D02*
X130680Y128833D01*
X130706Y128815D01*
X130733Y128799D01*
X130761Y128785D01*
X130790Y128774D01*
X130820Y128764D01*
X130851Y128757D01*
X130883Y128752D01*
X130916Y128750D01*
X130551Y128423D01*
X130552Y128455D01*
X130550Y128486D01*
X130545Y128517D01*
X130538Y128547D01*
X130528Y128576D01*
X130516Y128604D01*
X130501Y128631D01*
X130483Y128657D01*
X130463Y128683D01*
X130440Y128708D01*
X130630Y128877D01*
X130654Y128854D01*
D02*
G37*
G36*
X167521Y128400D02*
X167496Y128391D01*
X167473Y128376D01*
X167454Y128355D01*
X167438Y128328D01*
X167424Y128295D01*
X167413Y128256D01*
X167406Y128211D01*
X167402Y128160D01*
X167400Y128103D01*
X167100D01*
X167098Y128160D01*
X167094Y128211D01*
X167087Y128256D01*
X167076Y128295D01*
X167062Y128328D01*
X167046Y128355D01*
X167027Y128376D01*
X167004Y128391D01*
X166979Y128400D01*
X166950Y128403D01*
X167550D01*
X167521Y128400D01*
D02*
G37*
G36*
X128984Y128303D02*
X128988Y128270D01*
X128994Y128239D01*
X129002Y128208D01*
X129012Y128179D01*
X129025Y128151D01*
X129041Y128124D01*
X129059Y128098D01*
X129079Y128074D01*
X129101Y128050D01*
X128611D01*
X128633Y128074D01*
X128653Y128098D01*
X128671Y128124D01*
X128687Y128151D01*
X128699Y128179D01*
X128710Y128208D01*
X128718Y128239D01*
X128724Y128270D01*
X128728Y128303D01*
X128729Y128336D01*
X128983D01*
X128984Y128303D01*
D02*
G37*
G36*
X90060Y128354D02*
X90086Y128332D01*
X90112Y128312D01*
X90138Y128295D01*
X90164Y128281D01*
X90191Y128270D01*
X90217Y128261D01*
X90243Y128255D01*
X90270Y128251D01*
X90297Y128250D01*
X89950Y127904D01*
X89949Y127930D01*
X89945Y127957D01*
X89939Y127983D01*
X89930Y128009D01*
X89919Y128036D01*
X89905Y128062D01*
X89888Y128088D01*
X89868Y128114D01*
X89846Y128140D01*
X89822Y128166D01*
X90034Y128378D01*
X90060Y128354D01*
D02*
G37*
G36*
X167402Y127664D02*
X167406Y127613D01*
X167413Y127567D01*
X167424Y127528D01*
X167438Y127495D01*
X167454Y127467D01*
X167473Y127446D01*
X167496Y127431D01*
X167521Y127422D01*
X167550Y127419D01*
X166950D01*
X166979Y127422D01*
X167004Y127431D01*
X167027Y127446D01*
X167046Y127467D01*
X167062Y127495D01*
X167076Y127528D01*
X167087Y127567D01*
X167094Y127613D01*
X167098Y127664D01*
X167100Y127722D01*
X167400D01*
X167402Y127664D01*
D02*
G37*
G36*
X91701Y127590D02*
X91704Y127557D01*
X91709Y127524D01*
X91715Y127494D01*
X91724Y127466D01*
X91734Y127439D01*
X91747Y127414D01*
X91761Y127391D01*
X91777Y127369D01*
X91795Y127350D01*
X91305D01*
X91323Y127369D01*
X91339Y127391D01*
X91353Y127414D01*
X91366Y127439D01*
X91376Y127466D01*
X91385Y127494D01*
X91391Y127524D01*
X91396Y127557D01*
X91399Y127590D01*
X91400Y127626D01*
X91700D01*
X91701Y127590D01*
D02*
G37*
G36*
X60628Y127711D02*
X60654Y127690D01*
X60680Y127672D01*
X60706Y127657D01*
X60732Y127645D01*
X60757Y127637D01*
X60783Y127632D01*
X60808Y127631D01*
X60833Y127633D01*
X60858Y127638D01*
X60610Y127215D01*
X60604Y127239D01*
X60595Y127262D01*
X60584Y127286D01*
X60571Y127310D01*
X60556Y127335D01*
X60539Y127360D01*
X60499Y127410D01*
X60477Y127435D01*
X60452Y127461D01*
X60601Y127736D01*
X60628Y127711D01*
D02*
G37*
G36*
X53651Y127621D02*
X53655Y127595D01*
X53661Y127568D01*
X53670Y127542D01*
X53681Y127516D01*
X53695Y127490D01*
X53712Y127463D01*
X53732Y127437D01*
X53754Y127411D01*
X53778Y127385D01*
X53566Y127173D01*
X53540Y127198D01*
X53514Y127220D01*
X53488Y127239D01*
X53462Y127256D01*
X53436Y127270D01*
X53409Y127282D01*
X53383Y127291D01*
X53357Y127297D01*
X53330Y127300D01*
X53304Y127301D01*
X53650Y127648D01*
X53651Y127621D01*
D02*
G37*
G36*
X169872Y127270D02*
X169858Y127269D01*
X169843Y127265D01*
X169826Y127257D01*
X169808Y127247D01*
X169788Y127235D01*
X169767Y127219D01*
X169719Y127179D01*
X169665Y127127D01*
X169382Y127410D01*
X169409Y127438D01*
X169474Y127512D01*
X169490Y127533D01*
X169502Y127553D01*
X169512Y127571D01*
X169520Y127588D01*
X169524Y127603D01*
X169525Y127617D01*
X169872Y127270D01*
D02*
G37*
G36*
X88977Y127351D02*
X88961Y127329D01*
X88947Y127306D01*
X88934Y127281D01*
X88924Y127254D01*
X88915Y127226D01*
X88909Y127196D01*
X88904Y127163D01*
X88901Y127130D01*
X88900Y127094D01*
X88600D01*
X88599Y127130D01*
X88596Y127163D01*
X88591Y127196D01*
X88585Y127226D01*
X88576Y127254D01*
X88566Y127281D01*
X88553Y127306D01*
X88539Y127329D01*
X88523Y127351D01*
X88505Y127370D01*
X88995D01*
X88977Y127351D01*
D02*
G37*
G36*
X123228Y127266D02*
X123204Y127240D01*
X123182Y127214D01*
X123162Y127188D01*
X123145Y127162D01*
X123131Y127136D01*
X123120Y127109D01*
X123111Y127083D01*
X123105Y127057D01*
X123101Y127030D01*
X123100Y127004D01*
X122754Y127350D01*
X122780Y127351D01*
X122807Y127355D01*
X122833Y127361D01*
X122859Y127370D01*
X122886Y127381D01*
X122912Y127395D01*
X122938Y127412D01*
X122964Y127432D01*
X122990Y127454D01*
X123016Y127478D01*
X123228Y127266D01*
D02*
G37*
G36*
X122500Y126755D02*
X122481Y126773D01*
X122459Y126789D01*
X122436Y126803D01*
X122411Y126816D01*
X122384Y126826D01*
X122356Y126835D01*
X122326Y126841D01*
X122293Y126846D01*
X122259Y126849D01*
X122224Y126850D01*
Y127150D01*
X122259Y127151D01*
X122293Y127154D01*
X122326Y127159D01*
X122356Y127165D01*
X122384Y127174D01*
X122411Y127184D01*
X122436Y127197D01*
X122459Y127211D01*
X122481Y127227D01*
X122500Y127245D01*
Y126755D01*
D02*
G37*
G36*
X168873Y127348D02*
X168884Y127317D01*
X168904Y127290D01*
X168931Y127266D01*
X168965Y127246D01*
X169008Y127229D01*
X169058Y127216D01*
X169116Y127207D01*
X169182Y127202D01*
X169255Y127200D01*
Y126800D01*
X169182Y126798D01*
X169116Y126793D01*
X169058Y126784D01*
X169008Y126771D01*
X168965Y126754D01*
X168931Y126734D01*
X168904Y126710D01*
X168884Y126683D01*
X168873Y126652D01*
X168869Y126617D01*
Y127383D01*
X168873Y127348D01*
D02*
G37*
G36*
X123101Y126970D02*
X123105Y126943D01*
X123111Y126917D01*
X123120Y126891D01*
X123131Y126864D01*
X123145Y126838D01*
X123162Y126812D01*
X123182Y126786D01*
X123204Y126760D01*
X123228Y126734D01*
X123016Y126522D01*
X122990Y126546D01*
X122964Y126568D01*
X122938Y126588D01*
X122912Y126605D01*
X122886Y126619D01*
X122859Y126630D01*
X122833Y126639D01*
X122807Y126645D01*
X122780Y126649D01*
X122754Y126650D01*
X123100Y126996D01*
X123101Y126970D01*
D02*
G37*
G36*
X78480Y126355D02*
X78461Y126373D01*
X78439Y126389D01*
X78416Y126403D01*
X78391Y126416D01*
X78364Y126426D01*
X78336Y126435D01*
X78306Y126441D01*
X78273Y126446D01*
X78240Y126449D01*
X78204Y126450D01*
Y126750D01*
X78240Y126751D01*
X78273Y126754D01*
X78306Y126759D01*
X78336Y126765D01*
X78364Y126774D01*
X78391Y126784D01*
X78416Y126797D01*
X78439Y126811D01*
X78461Y126827D01*
X78480Y126845D01*
Y126355D01*
D02*
G37*
G36*
X52803Y125914D02*
X52794Y125926D01*
X52782Y125936D01*
X52766Y125945D01*
X52747Y125953D01*
X52724Y125960D01*
X52699Y125965D01*
X52670Y125970D01*
X52602Y125974D01*
X52563Y125975D01*
X52673Y126375D01*
X52713Y126375D01*
X52890Y126386D01*
X52901Y126389D01*
X52908Y126393D01*
X52803Y125914D01*
D02*
G37*
G36*
X52051Y126514D02*
X52063Y126485D01*
X52083Y126459D01*
X52111Y126437D01*
X52147Y126418D01*
X52191Y126403D01*
X52243Y126390D01*
X52303Y126382D01*
X52371Y126377D01*
X52447Y126375D01*
Y125975D01*
X52371Y125973D01*
X52303Y125968D01*
X52243Y125960D01*
X52191Y125947D01*
X52147Y125932D01*
X52111Y125913D01*
X52083Y125891D01*
X52063Y125865D01*
X52051Y125836D01*
X52047Y125803D01*
Y126547D01*
X52051Y126514D01*
D02*
G37*
G36*
X51684Y125803D02*
X51661Y125812D01*
X51630Y125811D01*
X51593Y125800D01*
X51549Y125779D01*
X51498Y125747D01*
X51440Y125705D01*
X51305Y125590D01*
X51141Y125434D01*
X50870Y125728D01*
X50942Y125802D01*
X51100Y125985D01*
X51133Y126034D01*
X51156Y126076D01*
X51170Y126113D01*
X51174Y126143D01*
X51168Y126167D01*
X51153Y126184D01*
X51684Y125803D01*
D02*
G37*
G36*
X123715Y126249D02*
X123826Y126155D01*
X123874Y126121D01*
X123919Y126095D01*
X123959Y126078D01*
X123995Y126069D01*
X124027Y126069D01*
X124054Y126077D01*
X124077Y126094D01*
X123656Y125673D01*
X123673Y125696D01*
X123681Y125723D01*
X123681Y125755D01*
X123672Y125791D01*
X123655Y125831D01*
X123629Y125876D01*
X123595Y125924D01*
X123552Y125978D01*
X123441Y126097D01*
X123653Y126309D01*
X123715Y126249D01*
D02*
G37*
G36*
X144950Y125480D02*
X144931Y125498D01*
X144909Y125514D01*
X144886Y125528D01*
X144861Y125541D01*
X144834Y125551D01*
X144806Y125560D01*
X144776Y125566D01*
X144743Y125571D01*
X144710Y125574D01*
X144674Y125575D01*
Y125875D01*
X144710Y125876D01*
X144743Y125879D01*
X144776Y125884D01*
X144806Y125890D01*
X144834Y125899D01*
X144861Y125909D01*
X144886Y125922D01*
X144909Y125936D01*
X144931Y125952D01*
X144950Y125970D01*
Y125480D01*
D02*
G37*
G36*
X78350Y125305D02*
X78326Y125327D01*
X78302Y125347D01*
X78276Y125365D01*
X78249Y125381D01*
X78221Y125394D01*
X78191Y125404D01*
X78161Y125412D01*
X78130Y125418D01*
X78097Y125422D01*
X78064Y125423D01*
Y125677D01*
X78097Y125678D01*
X78130Y125682D01*
X78161Y125688D01*
X78191Y125696D01*
X78221Y125706D01*
X78249Y125719D01*
X78276Y125735D01*
X78302Y125753D01*
X78326Y125773D01*
X78350Y125795D01*
Y125305D01*
D02*
G37*
G36*
X78050Y124155D02*
X78026Y124177D01*
X78002Y124197D01*
X77976Y124215D01*
X77949Y124231D01*
X77921Y124243D01*
X77892Y124254D01*
X77861Y124262D01*
X77830Y124268D01*
X77797Y124272D01*
X77764Y124273D01*
Y124527D01*
X77797Y124528D01*
X77830Y124532D01*
X77861Y124538D01*
X77892Y124546D01*
X77921Y124557D01*
X77949Y124569D01*
X77976Y124585D01*
X78002Y124603D01*
X78026Y124623D01*
X78050Y124645D01*
Y124155D01*
D02*
G37*
G36*
X79217Y123701D02*
X79197Y123711D01*
X79177Y123718D01*
X79155Y123720D01*
X79133Y123718D01*
X79110Y123713D01*
X79086Y123703D01*
X79062Y123690D01*
X79037Y123672D01*
X79011Y123651D01*
X78984Y123626D01*
X78806Y123872D01*
X79089Y124161D01*
X79217Y123701D01*
D02*
G37*
G36*
X71150Y123455D02*
X71131Y123473D01*
X71109Y123489D01*
X71086Y123503D01*
X71061Y123516D01*
X71034Y123526D01*
X71006Y123535D01*
X70976Y123541D01*
X70943Y123546D01*
X70910Y123549D01*
X70874Y123550D01*
Y123850D01*
X70910Y123851D01*
X70943Y123854D01*
X70976Y123859D01*
X71006Y123865D01*
X71034Y123874D01*
X71061Y123884D01*
X71086Y123897D01*
X71109Y123911D01*
X71131Y123927D01*
X71150Y123945D01*
Y123455D01*
D02*
G37*
G36*
X122432Y123674D02*
X122435Y123670D01*
X122459Y123644D01*
X122546Y123556D01*
X122334Y123344D01*
X122215Y123459D01*
X122431Y123675D01*
X122432Y123674D01*
D02*
G37*
G36*
X123656Y123150D02*
X123653Y123178D01*
X123644Y123204D01*
X123629Y123227D01*
X123608Y123246D01*
X123580Y123262D01*
X123547Y123276D01*
X123508Y123286D01*
X123462Y123294D01*
X123411Y123299D01*
X123353Y123300D01*
Y123600D01*
X123411Y123602D01*
X123462Y123606D01*
X123508Y123614D01*
X123547Y123624D01*
X123580Y123637D01*
X123608Y123654D01*
X123629Y123674D01*
X123644Y123696D01*
X123653Y123721D01*
X123656Y123750D01*
Y123150D01*
D02*
G37*
G36*
X79794Y123002D02*
X79770Y122976D01*
X79727Y122925D01*
X79709Y122899D01*
X79693Y122874D01*
X79679Y122848D01*
X79667Y122823D01*
X79658Y122798D01*
X79651Y122772D01*
X79646Y122747D01*
X79360Y123145D01*
X79386Y123142D01*
X79412Y123142D01*
X79438Y123145D01*
X79464Y123151D01*
X79490Y123161D01*
X79516Y123173D01*
X79542Y123188D01*
X79569Y123207D01*
X79595Y123228D01*
X79621Y123253D01*
X79794Y123002D01*
D02*
G37*
G36*
X71950Y122655D02*
X71931Y122673D01*
X71909Y122689D01*
X71886Y122703D01*
X71861Y122716D01*
X71834Y122726D01*
X71806Y122735D01*
X71776Y122741D01*
X71743Y122746D01*
X71710Y122749D01*
X71674Y122750D01*
Y123050D01*
X71710Y123051D01*
X71743Y123054D01*
X71776Y123059D01*
X71806Y123065D01*
X71834Y123074D01*
X71861Y123084D01*
X71886Y123097D01*
X71909Y123111D01*
X71931Y123127D01*
X71950Y123145D01*
Y122655D01*
D02*
G37*
G36*
X175486Y122740D02*
X175479Y122726D01*
X175472Y122709D01*
X175466Y122689D01*
X175461Y122666D01*
X175457Y122640D01*
X175452Y122578D01*
X175450Y122503D01*
X175050D01*
X175050Y122542D01*
X175043Y122640D01*
X175039Y122666D01*
X175034Y122689D01*
X175028Y122709D01*
X175021Y122726D01*
X175014Y122740D01*
X175005Y122750D01*
X175495D01*
X175486Y122740D01*
D02*
G37*
G36*
X80778Y122666D02*
X80754Y122640D01*
X80732Y122614D01*
X80712Y122588D01*
X80695Y122562D01*
X80681Y122536D01*
X80670Y122509D01*
X80661Y122483D01*
X80655Y122457D01*
X80651Y122430D01*
X80650Y122404D01*
X80303Y122750D01*
X80330Y122751D01*
X80357Y122755D01*
X80383Y122761D01*
X80409Y122770D01*
X80436Y122781D01*
X80462Y122795D01*
X80488Y122812D01*
X80514Y122832D01*
X80540Y122854D01*
X80566Y122878D01*
X80778Y122666D01*
D02*
G37*
G36*
X72753Y121902D02*
X72733Y121920D01*
X72712Y121936D01*
X72688Y121950D01*
X72663Y121962D01*
X72637Y121973D01*
X72608Y121981D01*
X72578Y121988D01*
X72545Y121992D01*
X72511Y121995D01*
X72476Y121996D01*
X72472Y122296D01*
X72508Y122297D01*
X72542Y122300D01*
X72574Y122305D01*
X72604Y122311D01*
X72632Y122320D01*
X72659Y122331D01*
X72684Y122343D01*
X72707Y122358D01*
X72728Y122374D01*
X72747Y122392D01*
X72753Y121902D01*
D02*
G37*
G36*
X170151Y121664D02*
X170154Y121632D01*
X170160Y121601D01*
X170168Y121571D01*
X170179Y121542D01*
X170192Y121514D01*
X170208Y121487D01*
X170226Y121461D01*
X170246Y121435D01*
X170269Y121411D01*
X170089Y121231D01*
X170065Y121254D01*
X170039Y121274D01*
X170013Y121292D01*
X169986Y121308D01*
X169958Y121321D01*
X169929Y121332D01*
X169899Y121340D01*
X169868Y121346D01*
X169836Y121349D01*
X169803Y121350D01*
X170150Y121697D01*
X170151Y121664D01*
D02*
G37*
G36*
X170647Y121035D02*
X170729Y120967D01*
X170765Y120943D01*
X170797Y120927D01*
X170827Y120917D01*
X170852Y120914D01*
X170875Y120918D01*
X170894Y120929D01*
X170910Y120946D01*
X170661Y120577D01*
X170657Y120597D01*
X170649Y120619D01*
X170639Y120642D01*
X170625Y120666D01*
X170607Y120692D01*
X170587Y120720D01*
X170536Y120781D01*
X170473Y120848D01*
X170601Y121079D01*
X170647Y121035D01*
D02*
G37*
G36*
X95547Y120100D02*
X95520Y120099D01*
X95493Y120095D01*
X95467Y120089D01*
X95441Y120080D01*
X95414Y120069D01*
X95388Y120055D01*
X95362Y120038D01*
X95336Y120018D01*
X95310Y119996D01*
X95284Y119972D01*
X95072Y120184D01*
X95096Y120210D01*
X95118Y120236D01*
X95138Y120262D01*
X95155Y120288D01*
X95169Y120314D01*
X95180Y120341D01*
X95189Y120367D01*
X95195Y120393D01*
X95199Y120420D01*
X95200Y120447D01*
X95547Y120100D01*
D02*
G37*
G36*
X172568Y119633D02*
X172593Y119623D01*
X172625Y119614D01*
X172662Y119606D01*
X172706Y119600D01*
X172813Y119590D01*
X172945Y119586D01*
X173021Y119585D01*
Y119185D01*
X172945Y119184D01*
X172662Y119164D01*
X172625Y119156D01*
X172593Y119147D01*
X172568Y119137D01*
X172550Y119126D01*
Y119644D01*
X172568Y119633D01*
D02*
G37*
G36*
X82000Y119279D02*
X82008Y119254D01*
X82017Y119229D01*
X82029Y119204D01*
X82044Y119179D01*
X82060Y119153D01*
X82078Y119128D01*
X82121Y119077D01*
X82146Y119051D01*
X81980Y118792D01*
X81954Y118817D01*
X81928Y118839D01*
X81902Y118857D01*
X81876Y118872D01*
X81850Y118884D01*
X81824Y118893D01*
X81798Y118899D01*
X81772Y118901D01*
X81746Y118901D01*
X81721Y118897D01*
X81994Y119304D01*
X82000Y119279D01*
D02*
G37*
G36*
X95746Y118800D02*
X95720Y118799D01*
X95693Y118795D01*
X95667Y118789D01*
X95641Y118780D01*
X95614Y118769D01*
X95588Y118755D01*
X95562Y118738D01*
X95536Y118718D01*
X95510Y118696D01*
X95484Y118672D01*
X95272Y118884D01*
X95296Y118910D01*
X95318Y118936D01*
X95338Y118962D01*
X95355Y118988D01*
X95369Y119014D01*
X95380Y119041D01*
X95389Y119067D01*
X95395Y119093D01*
X95399Y119120D01*
X95400Y119146D01*
X95746Y118800D01*
D02*
G37*
G36*
X51727Y118347D02*
X51708Y118370D01*
X51684Y118391D01*
X51656Y118410D01*
X51624Y118426D01*
X51586Y118439D01*
X51544Y118450D01*
X51498Y118459D01*
X51446Y118465D01*
X51391Y118469D01*
X51330Y118470D01*
Y118870D01*
X51391Y118871D01*
X51498Y118881D01*
X51544Y118890D01*
X51586Y118901D01*
X51624Y118914D01*
X51656Y118930D01*
X51684Y118949D01*
X51708Y118970D01*
X51727Y118993D01*
Y118347D01*
D02*
G37*
G36*
X172568Y118363D02*
X172593Y118353D01*
X172625Y118344D01*
X172662Y118336D01*
X172706Y118330D01*
X172813Y118320D01*
X172945Y118316D01*
X173021Y118315D01*
Y117915D01*
X172945Y117914D01*
X172662Y117894D01*
X172625Y117886D01*
X172593Y117877D01*
X172568Y117867D01*
X172550Y117856D01*
Y118374D01*
X172568Y118363D01*
D02*
G37*
G36*
X165950Y117856D02*
X165932Y117867D01*
X165907Y117877D01*
X165875Y117886D01*
X165838Y117894D01*
X165794Y117900D01*
X165687Y117910D01*
X165555Y117914D01*
X165479Y117915D01*
Y118315D01*
X165555Y118316D01*
X165838Y118336D01*
X165875Y118344D01*
X165907Y118353D01*
X165932Y118363D01*
X165950Y118374D01*
Y117856D01*
D02*
G37*
G36*
X164451Y118462D02*
X164463Y118431D01*
X164483Y118404D01*
X164511Y118381D01*
X164547Y118360D01*
X164591Y118344D01*
X164643Y118331D01*
X164703Y118322D01*
X164771Y118317D01*
X164847Y118315D01*
Y117915D01*
X164771Y117913D01*
X164643Y117900D01*
X164591Y117889D01*
X164547Y117875D01*
X164511Y117857D01*
X164483Y117836D01*
X164463Y117811D01*
X164451Y117784D01*
X164447Y117753D01*
Y118497D01*
X164451Y118462D01*
D02*
G37*
G36*
X163553Y117753D02*
X163548Y117776D01*
X163533Y117797D01*
X163508Y117815D01*
X163473Y117831D01*
X163428Y117845D01*
X163373Y117855D01*
X163308Y117864D01*
X163148Y117874D01*
X163053Y117875D01*
Y118375D01*
X163148Y118376D01*
X163373Y118395D01*
X163428Y118405D01*
X163473Y118419D01*
X163508Y118435D01*
X163533Y118453D01*
X163548Y118474D01*
X163553Y118497D01*
Y117753D01*
D02*
G37*
G36*
X142600Y117705D02*
X142580Y117723D01*
X142559Y117739D01*
X142536Y117753D01*
X142511Y117766D01*
X142484Y117776D01*
X142456Y117785D01*
X142425Y117791D01*
X142393Y117796D01*
X142359Y117799D01*
X142323Y117800D01*
Y118100D01*
X142359Y118101D01*
X142393Y118104D01*
X142425Y118108D01*
X142456Y118115D01*
X142484Y118124D01*
X142511Y118134D01*
X142536Y118146D01*
X142559Y118161D01*
X142580Y118177D01*
X142600Y118195D01*
Y117705D01*
D02*
G37*
G36*
X91152Y117781D02*
X91158Y117765D01*
X91168Y117750D01*
X91181Y117738D01*
X91199Y117728D01*
X91221Y117719D01*
X91246Y117713D01*
X91276Y117708D01*
X91309Y117705D01*
X91347Y117704D01*
X91259Y117404D01*
X90854Y117454D01*
X91150Y117799D01*
X91152Y117781D01*
D02*
G37*
G36*
X95996Y117450D02*
X95970Y117449D01*
X95943Y117445D01*
X95917Y117439D01*
X95891Y117430D01*
X95864Y117419D01*
X95838Y117405D01*
X95812Y117388D01*
X95786Y117368D01*
X95760Y117346D01*
X95734Y117322D01*
X95522Y117534D01*
X95546Y117560D01*
X95568Y117586D01*
X95588Y117612D01*
X95605Y117638D01*
X95619Y117664D01*
X95630Y117691D01*
X95639Y117717D01*
X95645Y117743D01*
X95649Y117770D01*
X95650Y117797D01*
X95996Y117450D01*
D02*
G37*
G36*
X51714Y117272D02*
X51710Y117300D01*
X51701Y117325D01*
X51685Y117347D01*
X51664Y117367D01*
X51635Y117383D01*
X51601Y117396D01*
X51561Y117407D01*
X51514Y117414D01*
X51461Y117419D01*
X51401Y117420D01*
Y117720D01*
X51461Y117721D01*
X51514Y117726D01*
X51561Y117733D01*
X51601Y117744D01*
X51635Y117757D01*
X51664Y117773D01*
X51685Y117793D01*
X51701Y117815D01*
X51710Y117840D01*
X51714Y117868D01*
Y117272D01*
D02*
G37*
G36*
X141891Y117323D02*
X141917Y117301D01*
X141942Y117284D01*
X141965Y117271D01*
X141988Y117262D01*
X142009Y117256D01*
X142030Y117255D01*
X142049Y117258D01*
X142068Y117265D01*
X142085Y117276D01*
X142001Y116817D01*
X141699Y117089D01*
X141864Y117348D01*
X141891Y117323D01*
D02*
G37*
G36*
X91069Y117027D02*
X91091Y117011D01*
X91114Y116997D01*
X91139Y116984D01*
X91166Y116974D01*
X91194Y116965D01*
X91224Y116959D01*
X91257Y116954D01*
X91290Y116951D01*
X91326Y116950D01*
Y116650D01*
X91290Y116649D01*
X91257Y116646D01*
X91224Y116641D01*
X91194Y116635D01*
X91166Y116626D01*
X91139Y116616D01*
X91114Y116603D01*
X91091Y116589D01*
X91069Y116573D01*
X91050Y116555D01*
Y117045D01*
X91069Y117027D01*
D02*
G37*
G36*
X167055Y116546D02*
X167033Y116538D01*
X167014Y116525D01*
X166998Y116507D01*
X166984Y116484D01*
X166972Y116456D01*
X166963Y116423D01*
X166957Y116384D01*
X166953Y116340D01*
X166952Y116291D01*
X166698D01*
X166697Y116340D01*
X166693Y116384D01*
X166687Y116423D01*
X166678Y116456D01*
X166666Y116484D01*
X166652Y116507D01*
X166636Y116525D01*
X166617Y116538D01*
X166595Y116546D01*
X166571Y116549D01*
X167079D01*
X167055Y116546D01*
D02*
G37*
G36*
X53493Y116731D02*
X53502Y116706D01*
X53517Y116683D01*
X53538Y116664D01*
X53566Y116647D01*
X53571Y116645D01*
X53592Y116655D01*
X53615Y116669D01*
X53637Y116685D01*
X53657Y116702D01*
X53655Y116621D01*
X53687Y116616D01*
X53740Y116611D01*
X53799Y116610D01*
Y116310D01*
X53738Y116309D01*
X53685Y116304D01*
X53646Y116298D01*
X53643Y116212D01*
X53624Y116231D01*
X53603Y116247D01*
X53580Y116262D01*
X53560Y116273D01*
X53532Y116257D01*
X53510Y116237D01*
X53493Y116215D01*
X53483Y116190D01*
X53480Y116162D01*
X53482Y116299D01*
X53471Y116301D01*
X53439Y116306D01*
X53405Y116309D01*
X53369Y116310D01*
X53379Y116610D01*
X53414Y116611D01*
X53448Y116614D01*
X53481Y116618D01*
X53488Y116620D01*
X53490Y116759D01*
X53493Y116731D01*
D02*
G37*
G36*
X172152Y116544D02*
X172110Y116528D01*
X172072Y116503D01*
X172040Y116468D01*
X172012Y116423D01*
X171990Y116367D01*
X171973Y116302D01*
X171960Y116227D01*
X171952Y116141D01*
X171950Y116045D01*
X171450D01*
X171447Y116141D01*
X171440Y116227D01*
X171428Y116302D01*
X171410Y116367D01*
X171387Y116423D01*
X171360Y116468D01*
X171327Y116503D01*
X171290Y116528D01*
X171247Y116544D01*
X171200Y116549D01*
X172200D01*
X172152Y116544D01*
D02*
G37*
G36*
X168653Y116253D02*
X168657Y116220D01*
X168663Y116189D01*
X168671Y116159D01*
X168682Y116129D01*
X168694Y116101D01*
X168710Y116074D01*
X168728Y116048D01*
X168748Y116024D01*
X168770Y116000D01*
X168280D01*
X168302Y116024D01*
X168322Y116048D01*
X168340Y116074D01*
X168356Y116101D01*
X168368Y116129D01*
X168379Y116159D01*
X168387Y116189D01*
X168393Y116220D01*
X168397Y116253D01*
X168398Y116286D01*
X168652D01*
X168653Y116253D01*
D02*
G37*
G36*
X141743Y116371D02*
X141769Y116349D01*
X141795Y116331D01*
X141821Y116316D01*
X141847Y116304D01*
X141873Y116295D01*
X141899Y116290D01*
X141925Y116287D01*
X141950Y116288D01*
X141976Y116292D01*
X141707Y115883D01*
X141701Y115907D01*
X141693Y115932D01*
X141683Y115957D01*
X141670Y115982D01*
X141656Y116007D01*
X141640Y116032D01*
X141621Y116058D01*
X141578Y116109D01*
X141553Y116134D01*
X141717Y116396D01*
X141743Y116371D01*
D02*
G37*
G36*
X91347Y115896D02*
X91309Y115895D01*
X91276Y115892D01*
X91246Y115887D01*
X91221Y115881D01*
X91199Y115872D01*
X91181Y115862D01*
X91168Y115850D01*
X91158Y115835D01*
X91152Y115819D01*
X91150Y115801D01*
X90854Y116146D01*
X91259Y116196D01*
X91347Y115896D01*
D02*
G37*
G36*
X142378Y114966D02*
X142354Y114940D01*
X142332Y114914D01*
X142312Y114888D01*
X142295Y114862D01*
X142281Y114836D01*
X142270Y114809D01*
X142261Y114783D01*
X142255Y114757D01*
X142251Y114730D01*
X142250Y114703D01*
X141904Y115050D01*
X141930Y115051D01*
X141957Y115055D01*
X141983Y115061D01*
X142009Y115070D01*
X142036Y115081D01*
X142062Y115095D01*
X142088Y115112D01*
X142114Y115132D01*
X142140Y115154D01*
X142166Y115178D01*
X142378Y114966D01*
D02*
G37*
G36*
X169050Y114455D02*
X169026Y114477D01*
X169001Y114497D01*
X168975Y114515D01*
X168948Y114530D01*
X168920Y114543D01*
X168891Y114554D01*
X168861Y114562D01*
X168830Y114568D01*
X168797Y114572D01*
X168764Y114573D01*
Y114827D01*
X168797Y114828D01*
X168830Y114831D01*
X168861Y114837D01*
X168891Y114846D01*
X168920Y114856D01*
X168948Y114869D01*
X168975Y114885D01*
X169001Y114902D01*
X169026Y114922D01*
X169050Y114945D01*
Y114455D01*
D02*
G37*
G36*
X175450Y113708D02*
X175457Y113610D01*
X175461Y113584D01*
X175466Y113561D01*
X175472Y113541D01*
X175479Y113524D01*
X175486Y113510D01*
X175495Y113500D01*
X175005D01*
X175014Y113510D01*
X175021Y113524D01*
X175028Y113541D01*
X175034Y113561D01*
X175039Y113584D01*
X175043Y113610D01*
X175048Y113672D01*
X175050Y113747D01*
X175450D01*
X175450Y113708D01*
D02*
G37*
G36*
X70170Y112942D02*
X70166Y112934D01*
X70162Y112923D01*
X70159Y112908D01*
X70156Y112890D01*
X70152Y112844D01*
X70150Y112785D01*
X70150Y112750D01*
X69850D01*
X69850Y112785D01*
X69841Y112908D01*
X69838Y112923D01*
X69834Y112934D01*
X69830Y112942D01*
X69825Y112947D01*
X70175D01*
X70170Y112942D01*
D02*
G37*
G36*
X71102Y112896D02*
X71124Y112879D01*
X71147Y112865D01*
X71172Y112853D01*
X71198Y112842D01*
X71227Y112834D01*
X71257Y112827D01*
X71289Y112822D01*
X71323Y112820D01*
X71359Y112819D01*
Y112519D01*
X71323Y112518D01*
X71289Y112515D01*
X71257Y112510D01*
X71227Y112503D01*
X71198Y112495D01*
X71172Y112484D01*
X71147Y112472D01*
X71124Y112458D01*
X71102Y112442D01*
X71083Y112424D01*
Y112914D01*
X71102Y112896D01*
D02*
G37*
G36*
X70977Y112350D02*
X70964Y112343D01*
X70949Y112334D01*
X70933Y112323D01*
X70896Y112294D01*
X70852Y112256D01*
X70776Y112182D01*
X70439Y112270D01*
X70464Y112297D01*
X70486Y112323D01*
X70503Y112348D01*
X70517Y112373D01*
X70527Y112398D01*
X70533Y112422D01*
X70535Y112445D01*
X70534Y112468D01*
X70529Y112490D01*
X70520Y112512D01*
X70977Y112350D01*
D02*
G37*
G36*
X71489Y111839D02*
X71496Y111836D01*
X71507Y111833D01*
X71520Y111831D01*
X71558Y111828D01*
X71641Y111825D01*
X71675Y111825D01*
Y111525D01*
X71642Y111525D01*
X71512Y111516D01*
X71502Y111513D01*
X71495Y111510D01*
X71492Y111507D01*
X71486Y111842D01*
X71489Y111839D01*
D02*
G37*
G36*
X100813Y111807D02*
X100839Y111785D01*
X100866Y111766D01*
X100892Y111749D01*
X100918Y111735D01*
X100944Y111723D01*
X100971Y111715D01*
X100997Y111708D01*
X101023Y111705D01*
X101050Y111704D01*
X100704Y111357D01*
X100703Y111384D01*
X100699Y111410D01*
X100693Y111437D01*
X100684Y111463D01*
X100672Y111489D01*
X100658Y111515D01*
X100641Y111542D01*
X100622Y111568D01*
X100600Y111594D01*
X100575Y111620D01*
X100788Y111832D01*
X100813Y111807D01*
D02*
G37*
G36*
X99493Y111713D02*
X99545Y111671D01*
X99570Y111654D01*
X99596Y111639D01*
X99622Y111626D01*
X99648Y111616D01*
X99675Y111608D01*
X99701Y111602D01*
X99727Y111599D01*
X99352Y111284D01*
X99353Y111310D01*
X99351Y111337D01*
X99346Y111363D01*
X99339Y111389D01*
X99329Y111416D01*
X99316Y111442D01*
X99300Y111468D01*
X99281Y111494D01*
X99259Y111520D01*
X99234Y111546D01*
X99467Y111738D01*
X99493Y111713D01*
D02*
G37*
G36*
X71178Y111319D02*
X71151Y111318D01*
X71125Y111314D01*
X71098Y111308D01*
X71072Y111299D01*
X71046Y111287D01*
X71020Y111273D01*
X70993Y111256D01*
X70967Y111237D01*
X70941Y111215D01*
X70915Y111190D01*
X70703Y111403D01*
X70728Y111429D01*
X70750Y111455D01*
X70769Y111481D01*
X70786Y111507D01*
X70800Y111533D01*
X70812Y111559D01*
X70820Y111586D01*
X70827Y111612D01*
X70830Y111639D01*
X70831Y111665D01*
X71178Y111319D01*
D02*
G37*
G36*
X72325Y111263D02*
X72300Y111236D01*
X72279Y111210D01*
X72261Y111184D01*
X72247Y111159D01*
X72236Y111133D01*
X72228Y111108D01*
X72224Y111083D01*
X72223Y111058D01*
X72226Y111034D01*
X72232Y111009D01*
X71795Y111005D01*
X71790Y110567D01*
X71766Y110574D01*
X71742Y110576D01*
X71717Y110576D01*
X71692Y110572D01*
X71666Y110564D01*
X71641Y110553D01*
X71615Y110539D01*
X71589Y110521D01*
X71563Y110499D01*
X71537Y110475D01*
X71402Y110764D01*
X71427Y110790D01*
X71471Y110840D01*
X71490Y110865D01*
X71523Y110912D01*
X71537Y110936D01*
X71548Y110958D01*
X71558Y110981D01*
X71565Y111003D01*
X71795Y111005D01*
X71797Y111234D01*
X71819Y111242D01*
X71841Y111252D01*
X71864Y111263D01*
X71887Y111277D01*
X71935Y111309D01*
X71960Y111329D01*
X72010Y111373D01*
X72036Y111398D01*
X72325Y111263D01*
D02*
G37*
G36*
X143229Y110220D02*
X143227Y110248D01*
X143218Y110274D01*
X143203Y110297D01*
X143182Y110316D01*
X143155Y110332D01*
X143122Y110346D01*
X143082Y110356D01*
X143036Y110364D01*
X142984Y110368D01*
X142926Y110370D01*
Y110670D01*
X142986Y110672D01*
X143039Y110676D01*
X143087Y110683D01*
X143128Y110694D01*
X143163Y110707D01*
X143192Y110724D01*
X143214Y110743D01*
X143231Y110766D01*
X143241Y110791D01*
X143245Y110820D01*
X143229Y110220D01*
D02*
G37*
G36*
X138684Y110917D02*
X138800Y110819D01*
X138857Y110780D01*
X138913Y110746D01*
X138969Y110719D01*
X139023Y110697D01*
X139077Y110682D01*
X139130Y110673D01*
X139182Y110670D01*
Y110370D01*
X139130Y110367D01*
X139077Y110358D01*
X139023Y110343D01*
X138969Y110321D01*
X138913Y110294D01*
X138857Y110260D01*
X138800Y110221D01*
X138742Y110175D01*
X138684Y110123D01*
X138624Y110065D01*
Y110975D01*
X138684Y110917D01*
D02*
G37*
G36*
X95260Y109954D02*
X95286Y109932D01*
X95312Y109912D01*
X95338Y109895D01*
X95364Y109881D01*
X95391Y109870D01*
X95417Y109861D01*
X95443Y109855D01*
X95470Y109851D01*
X95496Y109850D01*
X95150Y109504D01*
X95149Y109530D01*
X95145Y109557D01*
X95139Y109583D01*
X95130Y109609D01*
X95119Y109636D01*
X95105Y109662D01*
X95088Y109688D01*
X95068Y109714D01*
X95046Y109740D01*
X95022Y109766D01*
X95234Y109978D01*
X95260Y109954D01*
D02*
G37*
G36*
X138557Y109996D02*
X138459Y109880D01*
X138420Y109823D01*
X138386Y109767D01*
X138359Y109711D01*
X138337Y109657D01*
X138322Y109603D01*
X138313Y109550D01*
X138310Y109498D01*
X138010D01*
X138007Y109550D01*
X137998Y109603D01*
X137983Y109657D01*
X137961Y109711D01*
X137934Y109767D01*
X137900Y109823D01*
X137861Y109880D01*
X137815Y109938D01*
X137763Y109996D01*
X137705Y110056D01*
X138615D01*
X138557Y109996D01*
D02*
G37*
G36*
X92151Y107891D02*
X92154Y107857D01*
X92159Y107824D01*
X92165Y107794D01*
X92174Y107766D01*
X92184Y107739D01*
X92197Y107714D01*
X92211Y107691D01*
X92227Y107669D01*
X92245Y107650D01*
X91755D01*
X91773Y107669D01*
X91789Y107691D01*
X91803Y107714D01*
X91816Y107739D01*
X91826Y107766D01*
X91835Y107794D01*
X91841Y107824D01*
X91846Y107857D01*
X91849Y107891D01*
X91850Y107926D01*
X92150D01*
X92151Y107891D01*
D02*
G37*
G36*
X150021Y107248D02*
X149996Y107239D01*
X149973Y107224D01*
X149954Y107203D01*
X149938Y107176D01*
X149924Y107142D01*
X149913Y107103D01*
X149906Y107057D01*
X149902Y107006D01*
X149900Y106948D01*
X149600D01*
X149598Y107006D01*
X149594Y107057D01*
X149587Y107103D01*
X149576Y107142D01*
X149562Y107176D01*
X149546Y107203D01*
X149527Y107224D01*
X149504Y107239D01*
X149479Y107248D01*
X149450Y107251D01*
X150050D01*
X150021Y107248D01*
D02*
G37*
G36*
X133234Y104128D02*
X133245Y104069D01*
X133264Y104008D01*
X133290Y103946D01*
X133324Y103882D01*
X133365Y103816D01*
X133414Y103748D01*
X133470Y103679D01*
X133605Y103536D01*
X132555D01*
X132626Y103608D01*
X132746Y103748D01*
X132795Y103816D01*
X132836Y103882D01*
X132870Y103946D01*
X132896Y104008D01*
X132915Y104069D01*
X132926Y104128D01*
X132930Y104185D01*
X133230D01*
X133234Y104128D01*
D02*
G37*
G36*
X116021Y103290D02*
X115918Y103286D01*
X115731Y103265D01*
X115648Y103250D01*
X115572Y103230D01*
X115503Y103208D01*
X115440Y103181D01*
X115384Y103151D01*
X115335Y103118D01*
X115293Y103081D01*
X115072Y103285D01*
X115111Y103328D01*
X115145Y103378D01*
X115174Y103435D01*
X115198Y103497D01*
X115219Y103566D01*
X115234Y103641D01*
X115245Y103723D01*
X115252Y103810D01*
X115254Y103904D01*
X115251Y104004D01*
X116021Y103290D01*
D02*
G37*
G36*
X165411Y103906D02*
X165461Y103872D01*
X165517Y103843D01*
X165580Y103817D01*
X165649Y103796D01*
X165725Y103778D01*
X165807Y103765D01*
X165896Y103756D01*
X166092Y103750D01*
X165350Y103007D01*
X165349Y103109D01*
X165335Y103293D01*
X165322Y103375D01*
X165304Y103451D01*
X165283Y103520D01*
X165257Y103583D01*
X165228Y103639D01*
X165194Y103689D01*
X165156Y103732D01*
X165368Y103944D01*
X165411Y103906D01*
D02*
G37*
G36*
X161012Y102250D02*
X160911Y102249D01*
X160727Y102235D01*
X160645Y102222D01*
X160569Y102204D01*
X160500Y102183D01*
X160437Y102157D01*
X160381Y102128D01*
X160331Y102094D01*
X160288Y102056D01*
X160076Y102268D01*
X160114Y102311D01*
X160148Y102361D01*
X160177Y102417D01*
X160203Y102480D01*
X160224Y102549D01*
X160242Y102625D01*
X160255Y102707D01*
X160264Y102796D01*
X160270Y102993D01*
X161012Y102250D01*
D02*
G37*
G36*
X156691Y102891D02*
X156705Y102707D01*
X156718Y102625D01*
X156736Y102549D01*
X156757Y102480D01*
X156783Y102417D01*
X156812Y102361D01*
X156846Y102311D01*
X156884Y102268D01*
X156672Y102056D01*
X156629Y102094D01*
X156579Y102128D01*
X156523Y102157D01*
X156460Y102183D01*
X156391Y102204D01*
X156315Y102222D01*
X156233Y102235D01*
X156145Y102244D01*
X155947Y102250D01*
X156690Y102993D01*
X156691Y102891D01*
D02*
G37*
G36*
X154151D02*
X154165Y102707D01*
X154178Y102625D01*
X154196Y102549D01*
X154217Y102480D01*
X154243Y102417D01*
X154272Y102361D01*
X154306Y102311D01*
X154344Y102268D01*
X154132Y102056D01*
X154089Y102094D01*
X154039Y102128D01*
X153983Y102157D01*
X153920Y102183D01*
X153851Y102204D01*
X153775Y102222D01*
X153693Y102235D01*
X153605Y102244D01*
X153408Y102250D01*
X154150Y102993D01*
X154151Y102891D01*
D02*
G37*
G36*
X141451D02*
X141465Y102707D01*
X141478Y102625D01*
X141496Y102549D01*
X141517Y102480D01*
X141543Y102417D01*
X141572Y102361D01*
X141606Y102311D01*
X141644Y102268D01*
X141432Y102056D01*
X141389Y102094D01*
X141339Y102128D01*
X141283Y102157D01*
X141220Y102183D01*
X141151Y102204D01*
X141075Y102222D01*
X140993Y102235D01*
X140904Y102244D01*
X140708Y102250D01*
X141450Y102993D01*
X141451Y102891D01*
D02*
G37*
G36*
X136371D02*
X136385Y102707D01*
X136398Y102625D01*
X136416Y102549D01*
X136437Y102480D01*
X136463Y102417D01*
X136492Y102361D01*
X136526Y102311D01*
X136564Y102268D01*
X136352Y102056D01*
X136309Y102094D01*
X136259Y102128D01*
X136203Y102157D01*
X136140Y102183D01*
X136071Y102204D01*
X135995Y102222D01*
X135913Y102235D01*
X135824Y102244D01*
X135628Y102250D01*
X136370Y102993D01*
X136371Y102891D01*
D02*
G37*
G36*
X166563Y102401D02*
X166508Y102337D01*
X166459Y102273D01*
X166417Y102210D01*
X166381Y102146D01*
X166352Y102082D01*
X166329Y102018D01*
X166313Y101955D01*
X166303Y101891D01*
X166300Y101827D01*
X165900D01*
X165897Y101891D01*
X165887Y101955D01*
X165871Y102018D01*
X165848Y102082D01*
X165819Y102146D01*
X165783Y102210D01*
X165741Y102273D01*
X165692Y102337D01*
X165637Y102401D01*
X165575Y102464D01*
X166625D01*
X166563Y102401D01*
D02*
G37*
G36*
X158904Y102382D02*
X158827Y102326D01*
X158759Y102270D01*
X158698Y102213D01*
X158646Y102155D01*
X158601Y102098D01*
X158565Y102039D01*
X158536Y101980D01*
X158516Y101921D01*
X158504Y101861D01*
X158500Y101800D01*
X158200Y101854D01*
X158197Y101906D01*
X158187Y101962D01*
X158170Y102022D01*
X158147Y102087D01*
X158118Y102156D01*
X158081Y102229D01*
X157989Y102388D01*
X157870Y102563D01*
X158904Y102382D01*
D02*
G37*
G36*
X113878Y101666D02*
X113854Y101640D01*
X113832Y101614D01*
X113812Y101588D01*
X113795Y101562D01*
X113781Y101536D01*
X113770Y101509D01*
X113761Y101483D01*
X113755Y101457D01*
X113751Y101430D01*
X113750Y101404D01*
X113404Y101750D01*
X113430Y101751D01*
X113457Y101755D01*
X113483Y101761D01*
X113509Y101770D01*
X113536Y101781D01*
X113562Y101795D01*
X113588Y101812D01*
X113614Y101832D01*
X113640Y101854D01*
X113666Y101878D01*
X113878Y101666D01*
D02*
G37*
G36*
X167385Y100351D02*
X167532Y100226D01*
X167597Y100181D01*
X167657Y100147D01*
X167710Y100124D01*
X167758Y100113D01*
X167801D01*
X167838Y100124D01*
X167869Y100147D01*
X167303Y99581D01*
X167326Y99612D01*
X167337Y99649D01*
Y99692D01*
X167326Y99740D01*
X167303Y99793D01*
X167269Y99853D01*
X167224Y99918D01*
X167167Y99989D01*
X167020Y100147D01*
X167303Y100430D01*
X167385Y100351D01*
D02*
G37*
G36*
X169921Y98603D02*
X169896Y98594D01*
X169874Y98579D01*
X169854Y98558D01*
X169837Y98530D01*
X169824Y98497D01*
X169814Y98458D01*
X169806Y98412D01*
X169801Y98361D01*
X169800Y98303D01*
X169500D01*
X169499Y98361D01*
X169494Y98412D01*
X169486Y98458D01*
X169476Y98497D01*
X169462Y98530D01*
X169446Y98558D01*
X169426Y98579D01*
X169404Y98594D01*
X169378Y98603D01*
X169350Y98606D01*
X169950D01*
X169921Y98603D01*
D02*
G37*
G36*
X169801Y97564D02*
X169806Y97513D01*
X169814Y97467D01*
X169824Y97428D01*
X169837Y97395D01*
X169854Y97367D01*
X169874Y97346D01*
X169896Y97331D01*
X169921Y97322D01*
X169950Y97319D01*
X169350D01*
X169378Y97322D01*
X169404Y97331D01*
X169426Y97346D01*
X169446Y97367D01*
X169462Y97395D01*
X169476Y97428D01*
X169486Y97467D01*
X169494Y97513D01*
X169499Y97564D01*
X169500Y97622D01*
X169800D01*
X169801Y97564D01*
D02*
G37*
G36*
X169231Y96650D02*
X169228Y96678D01*
X169219Y96704D01*
X169204Y96727D01*
X169183Y96746D01*
X169155Y96762D01*
X169122Y96776D01*
X169083Y96786D01*
X169037Y96794D01*
X168986Y96799D01*
X168928Y96800D01*
Y97100D01*
X168986Y97102D01*
X169037Y97106D01*
X169083Y97114D01*
X169122Y97124D01*
X169155Y97137D01*
X169183Y97154D01*
X169204Y97174D01*
X169219Y97196D01*
X169228Y97221D01*
X169231Y97250D01*
Y96650D01*
D02*
G37*
G36*
X168222Y97221D02*
X168231Y97196D01*
X168246Y97174D01*
X168267Y97154D01*
X168295Y97137D01*
X168328Y97124D01*
X168367Y97114D01*
X168413Y97106D01*
X168464Y97102D01*
X168522Y97100D01*
Y96800D01*
X168464Y96799D01*
X168413Y96794D01*
X168367Y96786D01*
X168328Y96776D01*
X168295Y96762D01*
X168267Y96746D01*
X168246Y96727D01*
X168231Y96704D01*
X168222Y96678D01*
X168219Y96650D01*
Y97250D01*
X168222Y97221D01*
D02*
G37*
G36*
X167381Y95400D02*
X167378Y95428D01*
X167369Y95454D01*
X167354Y95477D01*
X167333Y95496D01*
X167305Y95512D01*
X167272Y95526D01*
X167233Y95536D01*
X167187Y95544D01*
X167136Y95549D01*
X167078Y95550D01*
Y95850D01*
X167136Y95852D01*
X167187Y95856D01*
X167233Y95864D01*
X167272Y95874D01*
X167305Y95887D01*
X167333Y95904D01*
X167354Y95924D01*
X167369Y95946D01*
X167378Y95971D01*
X167381Y96000D01*
Y95400D01*
D02*
G37*
G36*
X170078Y96058D02*
X170096Y96046D01*
X170126Y96035D01*
X170168Y96026D01*
X170222Y96018D01*
X170366Y96006D01*
X170672Y96000D01*
Y95400D01*
X170558Y95399D01*
X170168Y95374D01*
X170126Y95365D01*
X170096Y95354D01*
X170078Y95342D01*
X170072Y95328D01*
Y96072D01*
X170078Y96058D01*
D02*
G37*
G36*
X127260Y94114D02*
X127226Y94099D01*
X127197Y94074D01*
X127171Y94039D01*
X127149Y93994D01*
X127132Y93939D01*
X127118Y93874D01*
X127108Y93799D01*
X127102Y93714D01*
X127100Y93619D01*
X126600D01*
X126598Y93714D01*
X126582Y93874D01*
X126568Y93939D01*
X126551Y93994D01*
X126529Y94039D01*
X126503Y94074D01*
X126474Y94099D01*
X126440Y94114D01*
X126403Y94119D01*
X127297D01*
X127260Y94114D01*
D02*
G37*
G36*
X156921Y93190D02*
X156924Y93157D01*
X156929Y93124D01*
X156935Y93094D01*
X156944Y93066D01*
X156954Y93039D01*
X156967Y93014D01*
X156981Y92991D01*
X156997Y92969D01*
X157015Y92950D01*
X156525D01*
X156543Y92969D01*
X156559Y92991D01*
X156574Y93014D01*
X156586Y93039D01*
X156596Y93066D01*
X156605Y93094D01*
X156612Y93124D01*
X156616Y93157D01*
X156619Y93190D01*
X156620Y93226D01*
X156920D01*
X156921Y93190D01*
D02*
G37*
G36*
X127103Y93192D02*
X127110Y93107D01*
X127122Y93031D01*
X127140Y92966D01*
X127162Y92911D01*
X127190Y92865D01*
X127223Y92830D01*
X127260Y92805D01*
X127302Y92790D01*
X127350Y92785D01*
X126350D01*
X126397Y92790D01*
X126440Y92805D01*
X126478Y92830D01*
X126510Y92865D01*
X126537Y92911D01*
X126560Y92966D01*
X126577Y93031D01*
X126590Y93107D01*
X126598Y93192D01*
X126600Y93288D01*
X127100D01*
X127103Y93192D01*
D02*
G37*
G36*
X155851Y92590D02*
X155853Y92556D01*
X155858Y92524D01*
X155865Y92494D01*
X155873Y92465D01*
X155884Y92439D01*
X155896Y92414D01*
X155910Y92391D01*
X155927Y92369D01*
X155945Y92350D01*
X155455D01*
X155473Y92369D01*
X155489Y92391D01*
X155503Y92414D01*
X155515Y92439D01*
X155526Y92465D01*
X155534Y92494D01*
X155541Y92524D01*
X155546Y92556D01*
X155549Y92590D01*
X155550Y92626D01*
X155850D01*
X155851Y92590D01*
D02*
G37*
G36*
X131181Y92668D02*
X131673Y92693D01*
Y92339D01*
X131663Y92344D01*
X131644Y92349D01*
X131615Y92353D01*
X131529Y92359D01*
X131181Y92366D01*
Y92216D01*
X131178Y92245D01*
X131169Y92270D01*
X131154Y92293D01*
X131133Y92312D01*
X131105Y92329D01*
X131072Y92342D01*
X131033Y92353D01*
X130987Y92360D01*
X130936Y92365D01*
X130878Y92366D01*
Y92666D01*
X130936Y92668D01*
X130987Y92672D01*
X131033Y92680D01*
X131072Y92690D01*
X131105Y92704D01*
X131133Y92720D01*
X131154Y92740D01*
X131169Y92762D01*
X131178Y92788D01*
X131181Y92816D01*
Y92668D01*
D02*
G37*
G36*
X129900Y92765D02*
X129909Y92744D01*
X129924Y92726D01*
X129945Y92710D01*
X129972Y92697D01*
X130005Y92686D01*
X130044Y92677D01*
X130089Y92671D01*
X130140Y92667D01*
X130197Y92666D01*
Y92366D01*
X130140Y92365D01*
X130044Y92355D01*
X130005Y92347D01*
X129972Y92336D01*
X129945Y92322D01*
X129924Y92306D01*
X129909Y92288D01*
X129900Y92267D01*
X129897Y92244D01*
Y92788D01*
X129900Y92765D01*
D02*
G37*
G36*
X133756Y92016D02*
X133751Y92064D01*
X133736Y92106D01*
X133711Y92144D01*
X133676Y92176D01*
X133630Y92204D01*
X133575Y92226D01*
X133510Y92244D01*
X133434Y92256D01*
X133349Y92264D01*
X133253Y92266D01*
Y92766D01*
X133349Y92769D01*
X133434Y92776D01*
X133510Y92789D01*
X133575Y92806D01*
X133630Y92829D01*
X133676Y92856D01*
X133711Y92889D01*
X133736Y92926D01*
X133751Y92969D01*
X133756Y93016D01*
Y92016D01*
D02*
G37*
G36*
X132524Y92969D02*
X132539Y92926D01*
X132564Y92889D01*
X132599Y92856D01*
X132645Y92829D01*
X132700Y92806D01*
X132765Y92789D01*
X132841Y92776D01*
X132926Y92769D01*
X133022Y92766D01*
Y92266D01*
X132926Y92264D01*
X132841Y92256D01*
X132765Y92244D01*
X132700Y92226D01*
X132645Y92204D01*
X132599Y92176D01*
X132564Y92144D01*
X132539Y92106D01*
X132524Y92064D01*
X132519Y92016D01*
Y93016D01*
X132524Y92969D01*
D02*
G37*
G36*
X157701Y92190D02*
X157704Y92157D01*
X157709Y92124D01*
X157715Y92094D01*
X157724Y92066D01*
X157734Y92039D01*
X157747Y92014D01*
X157761Y91991D01*
X157777Y91969D01*
X157795Y91950D01*
X157305D01*
X157323Y91969D01*
X157339Y91991D01*
X157353Y92014D01*
X157366Y92039D01*
X157376Y92066D01*
X157385Y92094D01*
X157391Y92124D01*
X157396Y92157D01*
X157399Y92190D01*
X157400Y92226D01*
X157700D01*
X157701Y92190D01*
D02*
G37*
G36*
X143716Y93454D02*
Y92150D01*
X144545D01*
Y91350D01*
X143716D01*
Y90046D01*
X143716D01*
Y89954D01*
X143716D01*
Y87912D01*
X143589Y87904D01*
X143588Y87908D01*
X143528Y88055D01*
X143431Y88181D01*
X143400Y88204D01*
Y87750D01*
Y87296D01*
X143431Y87319D01*
X143528Y87445D01*
X143588Y87592D01*
X143589Y87596D01*
X143716Y87588D01*
Y86546D01*
X143608Y86500D01*
X136000D01*
Y86646D01*
X138600D01*
Y87750D01*
Y88854D01*
X136000D01*
Y92055D01*
X136127Y92081D01*
X136163Y91994D01*
X136324Y91784D01*
X136534Y91623D01*
X136640Y91579D01*
Y92500D01*
X137040D01*
Y92900D01*
X137961D01*
X137917Y93006D01*
X137756Y93216D01*
X137552Y93373D01*
X137550Y93386D01*
X137592Y93500D01*
X143608D01*
X143716Y93454D01*
D02*
G37*
G36*
X154762Y91701D02*
X154813Y91657D01*
X154837Y91639D01*
X154859Y91624D01*
X154880Y91613D01*
X154900Y91604D01*
X154918Y91598D01*
X154935Y91596D01*
X154951Y91597D01*
X154653Y91299D01*
X154654Y91315D01*
X154652Y91332D01*
X154646Y91350D01*
X154637Y91370D01*
X154626Y91391D01*
X154611Y91413D01*
X154593Y91437D01*
X154549Y91488D01*
X154522Y91516D01*
X154734Y91728D01*
X154762Y91701D01*
D02*
G37*
G36*
X158501Y91491D02*
X158504Y91457D01*
X158509Y91424D01*
X158515Y91394D01*
X158524Y91366D01*
X158534Y91339D01*
X158547Y91314D01*
X158561Y91291D01*
X158577Y91269D01*
X158595Y91250D01*
X158105D01*
X158123Y91269D01*
X158139Y91291D01*
X158153Y91314D01*
X158166Y91339D01*
X158176Y91366D01*
X158185Y91394D01*
X158191Y91424D01*
X158196Y91457D01*
X158199Y91491D01*
X158200Y91526D01*
X158500D01*
X158501Y91491D01*
D02*
G37*
G36*
X132303Y91964D02*
X132260Y91949D01*
X132223Y91924D01*
X132190Y91889D01*
X132163Y91844D01*
X132140Y91789D01*
X132122Y91724D01*
X132110Y91649D01*
X132102Y91564D01*
X132101Y91488D01*
X132102Y91418D01*
X132118Y91258D01*
X132132Y91193D01*
X132149Y91138D01*
X132171Y91093D01*
X132197Y91058D01*
X132226Y91033D01*
X132260Y91018D01*
X132297Y91013D01*
X131403D01*
X131440Y91018D01*
X131474Y91033D01*
X131503Y91058D01*
X131529Y91093D01*
X131551Y91138D01*
X131568Y91193D01*
X131582Y91258D01*
X131592Y91333D01*
X131598Y91418D01*
X131599Y91488D01*
X131598Y91564D01*
X131590Y91649D01*
X131577Y91724D01*
X131560Y91789D01*
X131538Y91844D01*
X131510Y91889D01*
X131477Y91924D01*
X131440Y91949D01*
X131398Y91964D01*
X131350Y91969D01*
X132350D01*
X132303Y91964D01*
D02*
G37*
G36*
X159301Y90790D02*
X159304Y90757D01*
X159309Y90724D01*
X159315Y90694D01*
X159324Y90666D01*
X159334Y90639D01*
X159347Y90614D01*
X159361Y90591D01*
X159377Y90569D01*
X159395Y90550D01*
X158905D01*
X158923Y90569D01*
X158939Y90591D01*
X158953Y90614D01*
X158966Y90639D01*
X158976Y90666D01*
X158985Y90694D01*
X158991Y90724D01*
X158996Y90757D01*
X158999Y90790D01*
X159000Y90826D01*
X159300D01*
X159301Y90790D01*
D02*
G37*
G36*
X129902Y90884D02*
X129917Y90880D01*
X129942Y90877D01*
X130022Y90872D01*
X130397Y90866D01*
Y90366D01*
X129897Y90344D01*
Y90888D01*
X129902Y90884D01*
D02*
G37*
G36*
X131403Y90219D02*
X131398Y90247D01*
X131383Y90272D01*
X131358Y90294D01*
X131323Y90313D01*
X131278Y90329D01*
X131223Y90343D01*
X131158Y90353D01*
X131083Y90360D01*
X130903Y90366D01*
Y90866D01*
X130998Y90868D01*
X131158Y90879D01*
X131223Y90890D01*
X131278Y90903D01*
X131323Y90919D01*
X131358Y90938D01*
X131383Y90960D01*
X131398Y90985D01*
X131403Y91013D01*
Y90219D01*
D02*
G37*
G36*
X127302Y90342D02*
X127260Y90327D01*
X127223Y90302D01*
X127190Y90267D01*
X127162Y90221D01*
X127140Y90166D01*
X127122Y90101D01*
X127110Y90025D01*
X127103Y89940D01*
X127100Y89844D01*
X126600D01*
X126598Y89940D01*
X126590Y90025D01*
X126577Y90101D01*
X126560Y90166D01*
X126537Y90221D01*
X126510Y90267D01*
X126478Y90302D01*
X126440Y90327D01*
X126397Y90342D01*
X126350Y90347D01*
X127350D01*
X127302Y90342D01*
D02*
G37*
G36*
X160478Y89966D02*
X160454Y89940D01*
X160432Y89914D01*
X160412Y89888D01*
X160395Y89862D01*
X160381Y89836D01*
X160370Y89809D01*
X160361Y89783D01*
X160355Y89757D01*
X160351Y89730D01*
X160350Y89703D01*
X160003Y90050D01*
X160030Y90051D01*
X160057Y90055D01*
X160083Y90061D01*
X160109Y90070D01*
X160136Y90081D01*
X160162Y90095D01*
X160188Y90112D01*
X160214Y90132D01*
X160240Y90154D01*
X160266Y90178D01*
X160478Y89966D01*
D02*
G37*
G36*
X127102Y89464D02*
X127118Y89304D01*
X127132Y89239D01*
X127149Y89184D01*
X127171Y89139D01*
X127197Y89104D01*
X127226Y89079D01*
X127260Y89064D01*
X127297Y89059D01*
X126403D01*
X126440Y89064D01*
X126474Y89079D01*
X126503Y89104D01*
X126529Y89139D01*
X126551Y89184D01*
X126568Y89239D01*
X126582Y89304D01*
X126592Y89379D01*
X126598Y89464D01*
X126600Y89559D01*
X127100D01*
X127102Y89464D01*
D02*
G37*
G36*
X126403Y88265D02*
X126398Y88293D01*
X126383Y88318D01*
X126358Y88340D01*
X126323Y88359D01*
X126278Y88375D01*
X126223Y88389D01*
X126158Y88399D01*
X126083Y88406D01*
X125903Y88412D01*
Y88912D01*
X125998Y88914D01*
X126158Y88925D01*
X126223Y88936D01*
X126278Y88949D01*
X126323Y88965D01*
X126358Y88984D01*
X126383Y89006D01*
X126398Y89031D01*
X126403Y89059D01*
Y88265D01*
D02*
G37*
G36*
X124774Y89115D02*
X124789Y89072D01*
X124814Y89035D01*
X124849Y89002D01*
X124895Y88975D01*
X124950Y88952D01*
X125015Y88935D01*
X125091Y88922D01*
X125176Y88915D01*
X125272Y88912D01*
Y88412D01*
X125176Y88410D01*
X125091Y88402D01*
X125015Y88390D01*
X124950Y88372D01*
X124895Y88350D01*
X124849Y88322D01*
X124814Y88290D01*
X124789Y88252D01*
X124774Y88210D01*
X124769Y88162D01*
Y89162D01*
X124774Y89115D01*
D02*
G37*
G36*
X121881Y88162D02*
X121876Y88210D01*
X121861Y88252D01*
X121836Y88290D01*
X121801Y88322D01*
X121755Y88350D01*
X121700Y88372D01*
X121635Y88390D01*
X121559Y88402D01*
X121474Y88410D01*
X121378Y88412D01*
Y88912D01*
X121474Y88915D01*
X121559Y88922D01*
X121635Y88935D01*
X121700Y88952D01*
X121755Y88975D01*
X121801Y89002D01*
X121836Y89035D01*
X121861Y89072D01*
X121876Y89115D01*
X121881Y89162D01*
Y88162D01*
D02*
G37*
G36*
X118090Y89135D02*
X118147Y89088D01*
X118205Y89047D01*
X118264Y89011D01*
X118326Y88981D01*
X118389Y88956D01*
X118453Y88937D01*
X118520Y88923D01*
X118588Y88915D01*
X118657Y88912D01*
Y88412D01*
X118588Y88409D01*
X118520Y88401D01*
X118453Y88387D01*
X118389Y88368D01*
X118326Y88343D01*
X118264Y88313D01*
X118205Y88277D01*
X118147Y88236D01*
X118090Y88189D01*
X118036Y88137D01*
Y89187D01*
X118090Y89135D01*
D02*
G37*
G36*
X115412Y87910D02*
X115370Y87895D01*
X115332Y87870D01*
X115300Y87835D01*
X115272Y87790D01*
X115250Y87735D01*
X115232Y87670D01*
X115220Y87595D01*
X115213Y87510D01*
X115210Y87415D01*
X114710D01*
X114707Y87510D01*
X114700Y87595D01*
X114688Y87670D01*
X114670Y87735D01*
X114647Y87790D01*
X114620Y87835D01*
X114588Y87870D01*
X114550Y87895D01*
X114507Y87910D01*
X114460Y87915D01*
X115460D01*
X115412Y87910D01*
D02*
G37*
G36*
X149513Y84300D02*
X149509Y84343D01*
X149495Y84381D01*
X149473Y84415D01*
X149441Y84444D01*
X149401Y84469D01*
X149351Y84489D01*
X149293Y84505D01*
X149225Y84516D01*
X149151Y84523D01*
X149029Y84515D01*
X149015Y84512D01*
X149006Y84509D01*
X149000Y84505D01*
Y84995D01*
X149006Y84991D01*
X149015Y84988D01*
X149029Y84985D01*
X149046Y84982D01*
X149091Y84978D01*
X149134Y84977D01*
X149149Y84977D01*
X149225Y84984D01*
X149293Y84995D01*
X149351Y85011D01*
X149401Y85031D01*
X149441Y85056D01*
X149473Y85085D01*
X149495Y85119D01*
X149509Y85157D01*
X149513Y85200D01*
Y84300D01*
D02*
G37*
G36*
X151972Y84027D02*
X151938Y84015D01*
X151908Y83995D01*
X151882Y83967D01*
X151860Y83930D01*
X151842Y83886D01*
X151828Y83834D01*
X151818Y83773D01*
X151812Y83705D01*
X151810Y83628D01*
X151410D01*
X151408Y83705D01*
X151402Y83773D01*
X151392Y83834D01*
X151378Y83886D01*
X151360Y83930D01*
X151338Y83967D01*
X151312Y83995D01*
X151282Y84015D01*
X151248Y84027D01*
X151210Y84031D01*
X152010D01*
X151972Y84027D01*
D02*
G37*
G36*
X86466Y83650D02*
X86440Y83649D01*
X86413Y83645D01*
X86387Y83639D01*
X86361Y83630D01*
X86334Y83619D01*
X86308Y83605D01*
X86282Y83588D01*
X86256Y83568D01*
X86230Y83546D01*
X86204Y83522D01*
X85992Y83734D01*
X86016Y83760D01*
X86038Y83786D01*
X86058Y83812D01*
X86075Y83838D01*
X86089Y83864D01*
X86100Y83891D01*
X86109Y83917D01*
X86115Y83943D01*
X86119Y83970D01*
X86120Y83996D01*
X86466Y83650D01*
D02*
G37*
G36*
X85886Y83185D02*
X85891Y83134D01*
X85898Y83088D01*
X85909Y83049D01*
X85923Y83016D01*
X85939Y82988D01*
X85959Y82967D01*
X85981Y82952D01*
X86007Y82943D01*
X86035Y82940D01*
X85435D01*
X85464Y82943D01*
X85489Y82952D01*
X85511Y82967D01*
X85531Y82988D01*
X85548Y83016D01*
X85561Y83049D01*
X85572Y83088D01*
X85579Y83134D01*
X85584Y83185D01*
X85585Y83243D01*
X85885D01*
X85886Y83185D01*
D02*
G37*
G36*
X80784Y82927D02*
X80796Y82925D01*
X80813Y82923D01*
X80900Y82919D01*
X81095Y82918D01*
Y82618D01*
X80777Y82606D01*
Y82929D01*
X80784Y82927D01*
D02*
G37*
G36*
X82250Y82522D02*
X82231Y82541D01*
X82209Y82557D01*
X82186Y82571D01*
X82161Y82583D01*
X82134Y82594D01*
X82106Y82602D01*
X82076Y82609D01*
X82043Y82614D01*
X82009Y82617D01*
X81974Y82618D01*
Y82918D01*
X82009Y82918D01*
X82043Y82921D01*
X82076Y82926D01*
X82106Y82933D01*
X82134Y82941D01*
X82161Y82952D01*
X82186Y82964D01*
X82209Y82978D01*
X82231Y82994D01*
X82250Y83012D01*
Y82522D01*
D02*
G37*
G36*
X150071Y82696D02*
X150083Y82680D01*
X150103Y82665D01*
X150131Y82652D01*
X150167Y82642D01*
X150211Y82633D01*
X150263Y82626D01*
X150391Y82618D01*
X150467Y82618D01*
Y82217D01*
X150391Y82217D01*
X150211Y82202D01*
X150167Y82193D01*
X150131Y82183D01*
X150103Y82170D01*
X150083Y82155D01*
X150071Y82139D01*
X150067Y82121D01*
Y82714D01*
X150071Y82696D01*
D02*
G37*
G36*
X79293Y81956D02*
X79286Y81958D01*
X79274Y81960D01*
X79257Y81962D01*
X79170Y81966D01*
X78975Y81967D01*
Y82268D01*
X79293Y82279D01*
Y81956D01*
D02*
G37*
G36*
X78585Y82360D02*
X78598Y82341D01*
X78615Y82324D01*
X78634Y82309D01*
X78656Y82296D01*
X78681Y82286D01*
X78709Y82278D01*
X78740Y82272D01*
X78773Y82269D01*
X78810Y82268D01*
X78667Y81967D01*
X78630Y81967D01*
X78503Y81958D01*
X78476Y81953D01*
X78429Y81943D01*
X78408Y81936D01*
X78389Y81929D01*
X78574Y82382D01*
X78585Y82360D01*
D02*
G37*
G36*
X114100Y82271D02*
X114109Y82246D01*
X114124Y82224D01*
X114145Y82204D01*
X114172Y82188D01*
X114205Y82174D01*
X114244Y82163D01*
X114289Y82156D01*
X114301Y82155D01*
X114326Y82159D01*
X114356Y82165D01*
X114384Y82174D01*
X114411Y82184D01*
X114436Y82197D01*
X114459Y82211D01*
X114481Y82227D01*
X114500Y82245D01*
Y81755D01*
X114481Y81773D01*
X114459Y81789D01*
X114436Y81803D01*
X114411Y81816D01*
X114384Y81826D01*
X114356Y81835D01*
X114326Y81841D01*
X114301Y81845D01*
X114289Y81844D01*
X114244Y81837D01*
X114205Y81826D01*
X114172Y81812D01*
X114145Y81796D01*
X114124Y81776D01*
X114109Y81754D01*
X114100Y81729D01*
X114097Y81700D01*
Y82300D01*
X114100Y82271D01*
D02*
G37*
G36*
X84993Y81306D02*
X84987Y81308D01*
X84974Y81310D01*
X84957Y81312D01*
X84870Y81316D01*
X84675Y81317D01*
Y81618D01*
X84993Y81629D01*
Y81306D01*
D02*
G37*
G36*
X80784Y81627D02*
X80796Y81625D01*
X80813Y81623D01*
X80900Y81619D01*
X81095Y81618D01*
Y81317D01*
X80777Y81306D01*
Y81629D01*
X80784Y81627D01*
D02*
G37*
G36*
X150070Y81737D02*
X150079Y81712D01*
X150094Y81690D01*
X150115Y81670D01*
X150142Y81654D01*
X150175Y81641D01*
X150214Y81631D01*
X150256Y81624D01*
X150271Y81626D01*
X150301Y81633D01*
X150329Y81641D01*
X150356Y81652D01*
X150381Y81664D01*
X150404Y81678D01*
X150426Y81694D01*
X150445Y81713D01*
Y81223D01*
X150426Y81241D01*
X150404Y81257D01*
X150381Y81271D01*
X150356Y81283D01*
X150329Y81294D01*
X150301Y81302D01*
X150271Y81309D01*
X150256Y81311D01*
X150214Y81304D01*
X150175Y81294D01*
X150142Y81281D01*
X150115Y81265D01*
X150094Y81245D01*
X150079Y81223D01*
X150070Y81198D01*
X150067Y81171D01*
Y81764D01*
X150070Y81737D01*
D02*
G37*
G36*
X82250Y81223D02*
X82231Y81241D01*
X82209Y81257D01*
X82186Y81271D01*
X82161Y81283D01*
X82134Y81294D01*
X82106Y81302D01*
X82076Y81309D01*
X82043Y81314D01*
X82009Y81317D01*
X81974Y81317D01*
Y81618D01*
X82009Y81618D01*
X82043Y81621D01*
X82076Y81626D01*
X82106Y81633D01*
X82134Y81641D01*
X82161Y81652D01*
X82186Y81664D01*
X82209Y81678D01*
X82231Y81694D01*
X82250Y81713D01*
Y81223D01*
D02*
G37*
G36*
X140086Y82394D02*
X139984Y82358D01*
X139894Y82298D01*
X139816Y82214D01*
X139750Y82105D01*
X139696Y81973D01*
X139654Y81817D01*
X139624Y81636D01*
X139606Y81432D01*
X139600Y81203D01*
X138400D01*
X138394Y81432D01*
X138376Y81636D01*
X138346Y81817D01*
X138304Y81973D01*
X138250Y82105D01*
X138184Y82214D01*
X138106Y82298D01*
X138016Y82358D01*
X137914Y82394D01*
X137800Y82406D01*
X140200D01*
X140086Y82394D01*
D02*
G37*
G36*
X146573Y81171D02*
X146568Y81186D01*
X146553Y81199D01*
X146528Y81211D01*
X146493Y81221D01*
X146448Y81230D01*
X146393Y81237D01*
X146253Y81247D01*
X146073Y81250D01*
Y81750D01*
X146573Y81764D01*
Y81171D01*
D02*
G37*
G36*
X78598Y81058D02*
X78608Y81039D01*
X78621Y81022D01*
X78638Y81008D01*
X78658Y80995D01*
X78682Y80985D01*
X78708Y80978D01*
X78738Y80972D01*
X78772Y80969D01*
X78808Y80967D01*
X78759Y80668D01*
X78354Y80666D01*
X78591Y81079D01*
X78598Y81058D01*
D02*
G37*
G36*
X79293Y80656D02*
X79286Y80658D01*
X79274Y80660D01*
X79257Y80662D01*
X79170Y80666D01*
X78975Y80668D01*
Y80967D01*
X79293Y80979D01*
Y80656D01*
D02*
G37*
G36*
X150070Y80787D02*
X150079Y80762D01*
X150094Y80740D01*
X150115Y80720D01*
X150142Y80704D01*
X150175Y80691D01*
X150214Y80681D01*
X150259Y80673D01*
X150310Y80669D01*
X150367Y80668D01*
Y80368D01*
X150310Y80366D01*
X150259Y80362D01*
X150214Y80354D01*
X150175Y80344D01*
X150142Y80331D01*
X150115Y80315D01*
X150094Y80296D01*
X150079Y80273D01*
X150070Y80248D01*
X150067Y80221D01*
Y80814D01*
X150070Y80787D01*
D02*
G37*
G36*
X86483Y80327D02*
X86496Y80325D01*
X86513Y80323D01*
X86600Y80319D01*
X86795Y80317D01*
Y80018D01*
X86477Y80006D01*
Y80329D01*
X86483Y80327D01*
D02*
G37*
G36*
X79293Y80006D02*
X79286Y80008D01*
X79274Y80010D01*
X79257Y80012D01*
X79170Y80016D01*
X78975Y80018D01*
Y80317D01*
X79293Y80329D01*
Y80006D01*
D02*
G37*
G36*
X151458Y80275D02*
X151947D01*
X151929Y80256D01*
X151913Y80234D01*
X151899Y80211D01*
X151887Y80186D01*
X151876Y80159D01*
X151868Y80131D01*
X151861Y80101D01*
X151856Y80068D01*
X151853Y80035D01*
X151852Y79999D01*
X151553D01*
X151552Y80035D01*
X151549Y80068D01*
X151544Y80101D01*
X151537Y80131D01*
X151529Y80159D01*
X151518Y80186D01*
X151506Y80211D01*
X151492Y80234D01*
X151476Y80256D01*
X151458Y80275D01*
X151438Y80292D01*
X151416Y80308D01*
X151393Y80322D01*
X151368Y80334D01*
X151341Y80344D01*
X151312Y80353D01*
X151282Y80359D01*
X151250Y80364D01*
X151216Y80367D01*
X151180Y80368D01*
X151173Y80668D01*
X151209Y80668D01*
X151242Y80671D01*
X151275Y80676D01*
X151305Y80683D01*
X151333Y80692D01*
X151360Y80702D01*
X151384Y80715D01*
X151407Y80730D01*
X151428Y80746D01*
X151447Y80765D01*
X151458Y80275D01*
D02*
G37*
G36*
X94163Y79905D02*
X94155Y79926D01*
X94144Y79945D01*
X94130Y79962D01*
X94112Y79977D01*
X94092Y79989D01*
X94068Y79999D01*
X94041Y80007D01*
X94010Y80013D01*
X93977Y80016D01*
X93940Y80018D01*
X93983Y80317D01*
X94386Y80331D01*
X94163Y79905D01*
D02*
G37*
G36*
X78375Y80328D02*
X78393Y80326D01*
X78447Y80322D01*
X78767Y80317D01*
X78810Y80018D01*
X78773Y80016D01*
X78740Y80013D01*
X78709Y80007D01*
X78682Y79999D01*
X78658Y79989D01*
X78638Y79977D01*
X78620Y79962D01*
X78606Y79945D01*
X78595Y79926D01*
X78587Y79905D01*
X78364Y80331D01*
X78375Y80328D01*
D02*
G37*
G36*
X108635Y80204D02*
X108661Y80182D01*
X108687Y80162D01*
X108713Y80145D01*
X108739Y80131D01*
X108766Y80120D01*
X108792Y80111D01*
X108818Y80105D01*
X108845Y80101D01*
X108871Y80100D01*
X108525Y79754D01*
X108524Y79780D01*
X108520Y79807D01*
X108514Y79833D01*
X108505Y79859D01*
X108494Y79886D01*
X108480Y79912D01*
X108463Y79938D01*
X108443Y79964D01*
X108421Y79990D01*
X108397Y80016D01*
X108609Y80228D01*
X108635Y80204D01*
D02*
G37*
G36*
X114100Y80021D02*
X114109Y79996D01*
X114124Y79974D01*
X114145Y79954D01*
X114172Y79938D01*
X114205Y79924D01*
X114244Y79913D01*
X114289Y79906D01*
X114301Y79905D01*
X114326Y79909D01*
X114356Y79915D01*
X114384Y79924D01*
X114411Y79934D01*
X114436Y79947D01*
X114459Y79961D01*
X114481Y79977D01*
X114500Y79995D01*
Y79505D01*
X114481Y79523D01*
X114459Y79539D01*
X114436Y79553D01*
X114411Y79566D01*
X114384Y79576D01*
X114356Y79585D01*
X114326Y79591D01*
X114301Y79595D01*
X114289Y79594D01*
X114244Y79587D01*
X114205Y79576D01*
X114172Y79562D01*
X114145Y79546D01*
X114124Y79526D01*
X114109Y79504D01*
X114100Y79479D01*
X114097Y79450D01*
Y80050D01*
X114100Y80021D01*
D02*
G37*
G36*
X109144Y79977D02*
X109166Y79961D01*
X109189Y79947D01*
X109214Y79934D01*
X109241Y79924D01*
X109269Y79915D01*
X109299Y79909D01*
X109332Y79904D01*
X109366Y79901D01*
X109401Y79900D01*
Y79600D01*
X109366Y79599D01*
X109332Y79596D01*
X109299Y79591D01*
X109269Y79585D01*
X109241Y79576D01*
X109214Y79566D01*
X109189Y79553D01*
X109166Y79539D01*
X109144Y79523D01*
X109125Y79505D01*
Y79995D01*
X109144Y79977D01*
D02*
G37*
G36*
X110906Y79450D02*
X110903Y79479D01*
X110894Y79504D01*
X110879Y79526D01*
X110858Y79546D01*
X110830Y79562D01*
X110797Y79576D01*
X110758Y79587D01*
X110712Y79594D01*
X110661Y79599D01*
X110603Y79600D01*
Y79900D01*
X110661Y79901D01*
X110712Y79906D01*
X110758Y79913D01*
X110797Y79924D01*
X110830Y79938D01*
X110858Y79954D01*
X110879Y79974D01*
X110894Y79996D01*
X110903Y80021D01*
X110906Y80050D01*
Y79450D01*
D02*
G37*
G36*
X86483Y79677D02*
X86496Y79675D01*
X86513Y79673D01*
X86600Y79669D01*
X86795Y79668D01*
Y79368D01*
X86477Y79356D01*
Y79679D01*
X86483Y79677D01*
D02*
G37*
G36*
X80784D02*
X80796Y79675D01*
X80813Y79673D01*
X80900Y79669D01*
X81095Y79668D01*
Y79368D01*
X80777Y79356D01*
Y79679D01*
X80784Y79677D01*
D02*
G37*
G36*
X82308Y79300D02*
X82287Y79313D01*
X82264Y79324D01*
X82239Y79334D01*
X82213Y79343D01*
X82185Y79351D01*
X82155Y79357D01*
X82124Y79361D01*
X82058Y79367D01*
X82022Y79368D01*
X81948Y79668D01*
X81984Y79669D01*
X82018Y79672D01*
X82049Y79677D01*
X82078Y79685D01*
X82105Y79695D01*
X82129Y79707D01*
X82151Y79722D01*
X82171Y79738D01*
X82188Y79757D01*
X82203Y79778D01*
X82308Y79300D01*
D02*
G37*
G36*
X93182Y79253D02*
X93170Y79275D01*
X93156Y79294D01*
X93138Y79311D01*
X93118Y79326D01*
X93095Y79339D01*
X93070Y79349D01*
X93042Y79357D01*
X93011Y79363D01*
X92978Y79366D01*
X92941Y79368D01*
X93064Y79668D01*
X93101Y79668D01*
X93199Y79675D01*
X93228Y79679D01*
X93281Y79691D01*
X93304Y79698D01*
X93326Y79706D01*
X93347Y79715D01*
X93182Y79253D01*
D02*
G37*
G36*
X144019Y80999D02*
X144035Y80978D01*
X144061Y80960D01*
X144098Y80944D01*
X144145Y80930D01*
X144203Y80919D01*
X144271Y80911D01*
X144439Y80901D01*
X144539Y80900D01*
Y80100D01*
X144440Y80099D01*
X144147Y80076D01*
X144100Y80065D01*
X144064Y80052D01*
X144038Y80038D01*
X144022Y80021D01*
X144017Y80003D01*
X143984Y79993D01*
X143955Y79963D01*
X143929Y79913D01*
X143907Y79843D01*
X143888Y79753D01*
X143873Y79643D01*
X143861Y79492D01*
X143891Y78987D01*
X143903Y78957D01*
X143917Y78947D01*
X142773D01*
X142787Y78957D01*
X142799Y78987D01*
X142810Y79037D01*
X142819Y79107D01*
X142833Y79307D01*
X142834Y79322D01*
X142802Y79753D01*
X142783Y79843D01*
X142761Y79913D01*
X142735Y79963D01*
X142706Y79993D01*
X142673Y80003D01*
X144017D01*
X144014Y81022D01*
X144019Y80999D01*
D02*
G37*
G36*
X86483Y79027D02*
X86496Y79025D01*
X86513Y79023D01*
X86600Y79019D01*
X86795Y79018D01*
Y78717D01*
X86477Y78706D01*
Y79029D01*
X86483Y79027D01*
D02*
G37*
G36*
X80784D02*
X80796Y79025D01*
X80813Y79023D01*
X80900Y79019D01*
X81095Y79018D01*
Y78717D01*
X80777Y78706D01*
Y79029D01*
X80784Y79027D01*
D02*
G37*
G36*
X81763Y78700D02*
X81550Y78487D01*
X81276Y78761D01*
X81489Y78974D01*
X81763Y78700D01*
D02*
G37*
G36*
X151854Y78344D02*
X151859Y78293D01*
X151866Y78247D01*
X151876Y78208D01*
X151890Y78174D01*
X151906Y78147D01*
X151926Y78126D01*
X151949Y78111D01*
X151974Y78102D01*
X152003Y78099D01*
X151402D01*
X151431Y78102D01*
X151456Y78111D01*
X151479Y78126D01*
X151499Y78147D01*
X151515Y78174D01*
X151529Y78208D01*
X151539Y78247D01*
X151546Y78293D01*
X151551Y78344D01*
X151553Y78402D01*
X151852D01*
X151854Y78344D01*
D02*
G37*
G36*
X86021Y78057D02*
X85996Y78048D01*
X85974Y78033D01*
X85954Y78012D01*
X85938Y77984D01*
X85924Y77951D01*
X85913Y77912D01*
X85906Y77866D01*
X85901Y77815D01*
X85900Y77757D01*
X85600D01*
X85599Y77815D01*
X85594Y77866D01*
X85587Y77912D01*
X85576Y77951D01*
X85562Y77984D01*
X85546Y78012D01*
X85526Y78033D01*
X85504Y78048D01*
X85479Y78057D01*
X85450Y78060D01*
X86050D01*
X86021Y78057D01*
D02*
G37*
G36*
X80307D02*
X80281Y78048D01*
X80258Y78033D01*
X80239Y78012D01*
X80223Y77984D01*
X80209Y77951D01*
X80199Y77912D01*
X80191Y77866D01*
X80187Y77815D01*
X80185Y77757D01*
X79885D01*
X79883Y77815D01*
X79879Y77866D01*
X79871Y77912D01*
X79861Y77951D01*
X79848Y77984D01*
X79831Y78012D01*
X79812Y78033D01*
X79789Y78048D01*
X79763Y78057D01*
X79735Y78060D01*
X80335D01*
X80307Y78057D01*
D02*
G37*
G36*
X109155Y78059D02*
X109181Y78037D01*
X109207Y78017D01*
X109233Y78001D01*
X109259Y77986D01*
X109286Y77975D01*
X109312Y77966D01*
X109338Y77960D01*
X109365Y77956D01*
X109391Y77955D01*
X109045Y77609D01*
X109044Y77635D01*
X109040Y77662D01*
X109034Y77688D01*
X109025Y77714D01*
X109014Y77741D01*
X108999Y77767D01*
X108983Y77793D01*
X108963Y77819D01*
X108941Y77845D01*
X108917Y77871D01*
X109129Y78083D01*
X109155Y78059D01*
D02*
G37*
G36*
X88260Y77954D02*
X88286Y77932D01*
X88312Y77912D01*
X88338Y77895D01*
X88364Y77881D01*
X88391Y77870D01*
X88417Y77861D01*
X88443Y77855D01*
X88470Y77851D01*
X88496Y77850D01*
X88150Y77504D01*
X88149Y77530D01*
X88145Y77557D01*
X88139Y77583D01*
X88130Y77609D01*
X88119Y77636D01*
X88105Y77662D01*
X88088Y77688D01*
X88068Y77714D01*
X88046Y77740D01*
X88022Y77766D01*
X88234Y77978D01*
X88260Y77954D01*
D02*
G37*
G36*
X109664Y77832D02*
X109686Y77816D01*
X109709Y77802D01*
X109734Y77789D01*
X109761Y77779D01*
X109789Y77770D01*
X109819Y77764D01*
X109852Y77759D01*
X109885Y77756D01*
X109921Y77755D01*
Y77455D01*
X109885Y77454D01*
X109852Y77451D01*
X109819Y77446D01*
X109789Y77440D01*
X109761Y77431D01*
X109734Y77421D01*
X109709Y77408D01*
X109686Y77394D01*
X109664Y77378D01*
X109645Y77360D01*
Y77850D01*
X109664Y77832D01*
D02*
G37*
G36*
X110906Y77305D02*
X110903Y77334D01*
X110894Y77359D01*
X110879Y77382D01*
X110858Y77401D01*
X110830Y77418D01*
X110797Y77431D01*
X110758Y77442D01*
X110712Y77449D01*
X110661Y77454D01*
X110603Y77455D01*
Y77755D01*
X110661Y77757D01*
X110712Y77761D01*
X110758Y77769D01*
X110797Y77779D01*
X110830Y77793D01*
X110858Y77809D01*
X110879Y77829D01*
X110894Y77851D01*
X110903Y77877D01*
X110906Y77905D01*
Y77305D01*
D02*
G37*
G36*
X114100Y77771D02*
X114109Y77746D01*
X114124Y77724D01*
X114145Y77704D01*
X114172Y77688D01*
X114205Y77674D01*
X114244Y77663D01*
X114289Y77656D01*
X114301Y77655D01*
X114326Y77659D01*
X114356Y77665D01*
X114384Y77674D01*
X114411Y77684D01*
X114436Y77697D01*
X114459Y77711D01*
X114481Y77727D01*
X114500Y77745D01*
Y77255D01*
X114481Y77273D01*
X114459Y77289D01*
X114436Y77303D01*
X114411Y77316D01*
X114384Y77326D01*
X114356Y77335D01*
X114326Y77341D01*
X114301Y77345D01*
X114289Y77344D01*
X114244Y77337D01*
X114205Y77326D01*
X114172Y77312D01*
X114145Y77296D01*
X114124Y77276D01*
X114109Y77254D01*
X114100Y77229D01*
X114097Y77200D01*
Y77800D01*
X114100Y77771D01*
D02*
G37*
G36*
X109780Y75754D02*
X109806Y75732D01*
X109832Y75712D01*
X109858Y75695D01*
X109884Y75681D01*
X109911Y75670D01*
X109937Y75661D01*
X109963Y75655D01*
X109990Y75651D01*
X110016Y75650D01*
X109670Y75303D01*
X109669Y75330D01*
X109665Y75357D01*
X109659Y75383D01*
X109650Y75409D01*
X109639Y75436D01*
X109624Y75462D01*
X109608Y75488D01*
X109588Y75514D01*
X109566Y75540D01*
X109542Y75566D01*
X109754Y75778D01*
X109780Y75754D01*
D02*
G37*
G36*
X114100Y75521D02*
X114109Y75496D01*
X114124Y75474D01*
X114145Y75454D01*
X114172Y75438D01*
X114205Y75424D01*
X114244Y75413D01*
X114289Y75406D01*
X114301Y75405D01*
X114326Y75409D01*
X114356Y75415D01*
X114384Y75424D01*
X114411Y75434D01*
X114436Y75447D01*
X114459Y75461D01*
X114481Y75477D01*
X114500Y75495D01*
Y75005D01*
X114481Y75023D01*
X114459Y75039D01*
X114436Y75053D01*
X114411Y75066D01*
X114384Y75076D01*
X114356Y75085D01*
X114326Y75091D01*
X114301Y75095D01*
X114289Y75094D01*
X114244Y75087D01*
X114205Y75076D01*
X114172Y75062D01*
X114145Y75046D01*
X114124Y75026D01*
X114109Y75004D01*
X114100Y74979D01*
X114097Y74950D01*
Y75550D01*
X114100Y75521D01*
D02*
G37*
G36*
X176439Y75117D02*
X176460Y75101D01*
X176483Y75086D01*
X176508Y75074D01*
X176535Y75064D01*
X176563Y75055D01*
X176594Y75048D01*
X176626Y75044D01*
X176660Y75041D01*
X176695Y75040D01*
Y74740D01*
X176660Y74739D01*
X176626Y74736D01*
X176594Y74731D01*
X176563Y74725D01*
X176535Y74716D01*
X176508Y74706D01*
X176483Y74693D01*
X176460Y74679D01*
X176439Y74663D01*
X176419Y74645D01*
Y75135D01*
X176439Y75117D01*
D02*
G37*
G36*
X173030Y74677D02*
X173029Y74657D01*
X173030Y74636D01*
X173035Y74614D01*
X173044Y74592D01*
X173055Y74569D01*
X173069Y74546D01*
X173087Y74522D01*
X173107Y74498D01*
X173131Y74473D01*
X172877Y74303D01*
X172850Y74329D01*
X172774Y74393D01*
X172751Y74410D01*
X172729Y74423D01*
X172708Y74435D01*
X172688Y74443D01*
X172669Y74450D01*
X172651Y74453D01*
X173034Y74697D01*
X173030Y74677D01*
D02*
G37*
G36*
X176675Y73755D02*
X176656Y73773D01*
X176634Y73789D01*
X176611Y73803D01*
X176586Y73816D01*
X176559Y73826D01*
X176531Y73835D01*
X176501Y73841D01*
X176468Y73846D01*
X176434Y73849D01*
X176399Y73850D01*
Y74150D01*
X176434Y74151D01*
X176468Y74154D01*
X176501Y74159D01*
X176531Y74165D01*
X176559Y74174D01*
X176586Y74184D01*
X176611Y74197D01*
X176634Y74211D01*
X176656Y74227D01*
X176675Y74245D01*
Y73755D01*
D02*
G37*
G36*
X174596Y73890D02*
X174571Y73881D01*
X174548Y73866D01*
X174529Y73845D01*
X174512Y73818D01*
X174499Y73785D01*
X174488Y73746D01*
X174481Y73701D01*
X174477Y73650D01*
X174475Y73593D01*
X174175D01*
X174173Y73650D01*
X174169Y73701D01*
X174161Y73746D01*
X174151Y73785D01*
X174137Y73818D01*
X174121Y73845D01*
X174102Y73866D01*
X174079Y73881D01*
X174053Y73890D01*
X174025Y73893D01*
X174625D01*
X174596Y73890D01*
D02*
G37*
G36*
X172246Y73832D02*
X172247Y73806D01*
X172251Y73779D01*
X172258Y73753D01*
X172268Y73727D01*
X172281Y73701D01*
X172297Y73674D01*
X172316Y73648D01*
X172337Y73622D01*
X172362Y73596D01*
X172124Y73410D01*
X172098Y73434D01*
X172047Y73477D01*
X172021Y73494D01*
X171995Y73510D01*
X171969Y73523D01*
X171943Y73534D01*
X171917Y73542D01*
X171891Y73548D01*
X171865Y73552D01*
X172247Y73858D01*
X172246Y73832D01*
D02*
G37*
G36*
X177500Y72980D02*
X177481Y72998D01*
X177459Y73014D01*
X177436Y73028D01*
X177411Y73041D01*
X177384Y73051D01*
X177356Y73060D01*
X177326Y73066D01*
X177293Y73071D01*
X177260Y73074D01*
X177224Y73075D01*
Y73375D01*
X177260Y73376D01*
X177293Y73379D01*
X177326Y73384D01*
X177356Y73390D01*
X177384Y73399D01*
X177411Y73409D01*
X177436Y73422D01*
X177459Y73436D01*
X177481Y73452D01*
X177500Y73470D01*
Y72980D01*
D02*
G37*
G36*
X82699Y73102D02*
X82696Y73087D01*
X82694Y73065D01*
X82689Y72953D01*
X82687Y72696D01*
X82433D01*
X82418Y73109D01*
X82702D01*
X82699Y73102D01*
D02*
G37*
G36*
X89164Y72957D02*
X89176Y72897D01*
X89195Y72834D01*
X89223Y72770D01*
X89258Y72704D01*
X89301Y72636D01*
X89352Y72566D01*
X89411Y72493D01*
X89552Y72343D01*
X88467D01*
X88542Y72419D01*
X88668Y72566D01*
X88719Y72636D01*
X88762Y72704D01*
X88797Y72770D01*
X88825Y72834D01*
X88844Y72897D01*
X88856Y72957D01*
X88860Y73015D01*
X89160D01*
X89164Y72957D01*
D02*
G37*
G36*
X53604D02*
X53616Y72897D01*
X53635Y72834D01*
X53663Y72770D01*
X53698Y72704D01*
X53741Y72636D01*
X53792Y72566D01*
X53851Y72493D01*
X53993Y72343D01*
X52908D01*
X52982Y72419D01*
X53108Y72566D01*
X53159Y72636D01*
X53202Y72704D01*
X53237Y72770D01*
X53265Y72834D01*
X53284Y72897D01*
X53296Y72957D01*
X53300Y73015D01*
X53600D01*
X53604Y72957D01*
D02*
G37*
G36*
X56144D02*
X56156Y72897D01*
X56175Y72834D01*
X56203Y72770D01*
X56238Y72704D01*
X56281Y72636D01*
X56332Y72566D01*
X56391Y72493D01*
X56533Y72343D01*
X55447Y72343D01*
X55522Y72419D01*
X55648Y72566D01*
X55699Y72636D01*
X55742Y72704D01*
X55777Y72770D01*
X55805Y72834D01*
X55824Y72897D01*
X55836Y72957D01*
X55840Y73015D01*
X56140D01*
X56144Y72957D01*
D02*
G37*
G36*
X176437Y72342D02*
X176113D01*
X176115Y72349D01*
X176117Y72361D01*
X176119Y72378D01*
X176123Y72465D01*
X176125Y72660D01*
X176425D01*
X176437Y72342D01*
D02*
G37*
G36*
X175787D02*
X175463D01*
X175465Y72349D01*
X175467Y72361D01*
X175469Y72378D01*
X175473Y72465D01*
X175475Y72660D01*
X175775D01*
X175787Y72342D01*
D02*
G37*
G36*
X174487D02*
X174163D01*
X174165Y72349D01*
X174167Y72361D01*
X174169Y72378D01*
X174173Y72465D01*
X174175Y72660D01*
X174475D01*
X174487Y72342D01*
D02*
G37*
G36*
X173187D02*
X172863D01*
X172865Y72349D01*
X172867Y72361D01*
X172869Y72378D01*
X172873Y72465D01*
X172875Y72660D01*
X173175D01*
X173187Y72342D01*
D02*
G37*
G36*
X172537D02*
X172213D01*
X172215Y72349D01*
X172217Y72361D01*
X172219Y72378D01*
X172223Y72465D01*
X172225Y72660D01*
X172525D01*
X172537Y72342D01*
D02*
G37*
G36*
X134601Y72642D02*
X134613Y72482D01*
X134624Y72417D01*
X134637Y72362D01*
X134653Y72317D01*
X134672Y72282D01*
X134694Y72257D01*
X134719Y72242D01*
X134747Y72237D01*
X133953D01*
X133981Y72242D01*
X134006Y72257D01*
X134028Y72282D01*
X134047Y72317D01*
X134063Y72362D01*
X134076Y72417D01*
X134087Y72482D01*
X134094Y72557D01*
X134100Y72737D01*
X134600D01*
X134601Y72642D01*
D02*
G37*
G36*
X97603Y72550D02*
X97564Y72506D01*
X97530Y72455D01*
X97499Y72397D01*
X97473Y72332D01*
X97452Y72261D01*
X97434Y72182D01*
X97420Y72096D01*
X97411Y72004D01*
X97405Y71798D01*
X96638Y72565D01*
X96744Y72566D01*
X96936Y72580D01*
X97022Y72594D01*
X97101Y72612D01*
X97173Y72633D01*
X97237Y72659D01*
X97295Y72690D01*
X97346Y72724D01*
X97390Y72763D01*
X97603Y72550D01*
D02*
G37*
G36*
X95063D02*
X95024Y72506D01*
X94990Y72455D01*
X94959Y72397D01*
X94933Y72332D01*
X94912Y72261D01*
X94894Y72182D01*
X94880Y72096D01*
X94871Y72004D01*
X94865Y71798D01*
X94098Y72565D01*
X94204Y72566D01*
X94396Y72580D01*
X94482Y72594D01*
X94561Y72612D01*
X94632Y72633D01*
X94697Y72659D01*
X94755Y72690D01*
X94806Y72724D01*
X94850Y72763D01*
X95063Y72550D01*
D02*
G37*
G36*
X92523D02*
X92484Y72506D01*
X92450Y72455D01*
X92419Y72397D01*
X92393Y72332D01*
X92372Y72261D01*
X92354Y72182D01*
X92340Y72096D01*
X92331Y72004D01*
X92325Y71798D01*
X91558Y72565D01*
X91664Y72566D01*
X91856Y72580D01*
X91942Y72594D01*
X92021Y72612D01*
X92092Y72633D01*
X92157Y72659D01*
X92215Y72690D01*
X92266Y72724D01*
X92310Y72763D01*
X92523Y72550D01*
D02*
G37*
G36*
X178851Y71741D02*
X178854Y71707D01*
X178859Y71674D01*
X178865Y71644D01*
X178874Y71616D01*
X178884Y71589D01*
X178897Y71564D01*
X178911Y71541D01*
X178927Y71519D01*
X178945Y71500D01*
X178455D01*
X178473Y71519D01*
X178489Y71541D01*
X178503Y71564D01*
X178516Y71589D01*
X178526Y71616D01*
X178535Y71644D01*
X178541Y71674D01*
X178546Y71707D01*
X178549Y71741D01*
X178550Y71776D01*
X178850D01*
X178851Y71741D01*
D02*
G37*
G36*
X174803Y70950D02*
X174800Y70979D01*
X174791Y71004D01*
X174775Y71026D01*
X174754Y71046D01*
X174727Y71062D01*
X174694Y71076D01*
X174654Y71087D01*
X174650Y71087D01*
X174646Y71087D01*
X174606Y71076D01*
X174573Y71062D01*
X174546Y71046D01*
X174525Y71026D01*
X174509Y71004D01*
X174500Y70979D01*
X174497Y70950D01*
Y71550D01*
X174500Y71521D01*
X174509Y71496D01*
X174525Y71474D01*
X174546Y71454D01*
X174573Y71438D01*
X174606Y71424D01*
X174646Y71413D01*
X174650Y71413D01*
X174654Y71413D01*
X174694Y71424D01*
X174727Y71438D01*
X174754Y71454D01*
X174775Y71474D01*
X174791Y71496D01*
X174800Y71521D01*
X174803Y71550D01*
Y70950D01*
D02*
G37*
G36*
X135980Y71344D02*
X135958Y71336D01*
X135939Y71323D01*
X135923Y71305D01*
X135909Y71282D01*
X135897Y71254D01*
X135888Y71220D01*
X135882Y71182D01*
X135878Y71138D01*
X135877Y71089D01*
X135623D01*
X135622Y71138D01*
X135618Y71182D01*
X135612Y71220D01*
X135603Y71254D01*
X135591Y71282D01*
X135577Y71305D01*
X135561Y71323D01*
X135542Y71336D01*
X135520Y71344D01*
X135496Y71346D01*
X136004D01*
X135980Y71344D01*
D02*
G37*
G36*
X134522Y71603D02*
X134517Y71584D01*
X134513Y71555D01*
X134507Y71469D01*
X134505Y71346D01*
X134650D01*
X134622Y71343D01*
X134596Y71334D01*
X134574Y71319D01*
X134554Y71298D01*
X134538Y71270D01*
X134524Y71237D01*
X134514Y71198D01*
X134506Y71152D01*
X134501Y71101D01*
X134500Y71043D01*
X134200D01*
X134199Y71101D01*
X134194Y71152D01*
X134186Y71198D01*
X134176Y71237D01*
X134163Y71270D01*
X134146Y71298D01*
X134126Y71319D01*
X134104Y71334D01*
X134079Y71343D01*
X134050Y71346D01*
X134187D01*
X134173Y71613D01*
X134527D01*
X134522Y71603D01*
D02*
G37*
G36*
X178450Y71005D02*
X178431Y71023D01*
X178409Y71039D01*
X178386Y71053D01*
X178361Y71066D01*
X178334Y71076D01*
X178306Y71085D01*
X178276Y71091D01*
X178243Y71096D01*
X178210Y71099D01*
X178174Y71100D01*
Y71400D01*
X178210Y71401D01*
X178243Y71404D01*
X178276Y71409D01*
X178306Y71415D01*
X178334Y71424D01*
X178361Y71434D01*
X178386Y71447D01*
X178409Y71461D01*
X178431Y71477D01*
X178450Y71495D01*
Y71005D01*
D02*
G37*
G36*
X177100Y71521D02*
X177109Y71496D01*
X177125Y71474D01*
X177146Y71454D01*
X177173Y71438D01*
X177206Y71424D01*
X177246Y71413D01*
X177291Y71406D01*
X177343Y71401D01*
X177400Y71400D01*
Y71100D01*
X177343Y71099D01*
X177291Y71094D01*
X177246Y71087D01*
X177206Y71076D01*
X177173Y71062D01*
X177146Y71046D01*
X177125Y71026D01*
X177109Y71004D01*
X177100Y70979D01*
X177097Y70950D01*
Y71550D01*
X177100Y71521D01*
D02*
G37*
G36*
X68682Y71015D02*
X68570Y71014D01*
X68368Y71001D01*
X68280Y70988D01*
X68198Y70972D01*
X68125Y70951D01*
X68060Y70927D01*
X68002Y70899D01*
X67952Y70867D01*
X67910Y70831D01*
X67731Y71010D01*
X67767Y71052D01*
X67799Y71102D01*
X67827Y71160D01*
X67852Y71225D01*
X67872Y71298D01*
X67888Y71380D01*
X67901Y71468D01*
X67914Y71670D01*
X67915Y71782D01*
X68682Y71015D01*
D02*
G37*
G36*
X99946Y71676D02*
X99960Y71484D01*
X99974Y71398D01*
X99992Y71319D01*
X100013Y71247D01*
X100039Y71183D01*
X100070Y71125D01*
X100104Y71074D01*
X100143Y71030D01*
X99930Y70817D01*
X99886Y70856D01*
X99835Y70890D01*
X99777Y70921D01*
X99713Y70947D01*
X99641Y70968D01*
X99562Y70986D01*
X99476Y71000D01*
X99384Y71009D01*
X99178Y71015D01*
X99945Y71782D01*
X99946Y71676D01*
D02*
G37*
G36*
X175135Y70151D02*
X175133Y70139D01*
X175131Y70122D01*
X175127Y70035D01*
X175125Y69840D01*
X174825D01*
X174813Y70158D01*
X175137D01*
X175135Y70151D01*
D02*
G37*
G36*
X173835D02*
X173833Y70139D01*
X173831Y70122D01*
X173827Y70035D01*
X173825Y69840D01*
X173525D01*
X173513Y70158D01*
X173837D01*
X173835Y70151D01*
D02*
G37*
G36*
X52740Y70174D02*
X52851Y70080D01*
X52899Y70046D01*
X52944Y70020D01*
X52984Y70003D01*
X53020Y69994D01*
X53052Y69994D01*
X53079Y70002D01*
X53102Y70019D01*
X52681Y69598D01*
X52698Y69621D01*
X52706Y69648D01*
X52706Y69680D01*
X52697Y69716D01*
X52680Y69756D01*
X52654Y69801D01*
X52620Y69849D01*
X52577Y69903D01*
X52466Y70022D01*
X52678Y70234D01*
X52740Y70174D01*
D02*
G37*
G36*
X136850Y69713D02*
X136854Y69686D01*
X136859Y69660D01*
X136868Y69633D01*
X136879Y69607D01*
X136893Y69581D01*
X136910Y69555D01*
X136929Y69529D01*
X136951Y69503D01*
X136975Y69477D01*
X136759Y69269D01*
X136733Y69294D01*
X136707Y69316D01*
X136681Y69335D01*
X136655Y69352D01*
X136628Y69367D01*
X136602Y69378D01*
X136576Y69388D01*
X136549Y69394D01*
X136523Y69398D01*
X136496Y69400D01*
X136850Y69739D01*
X136850Y69713D01*
D02*
G37*
G36*
X55274Y70184D02*
X55325Y70150D01*
X55383Y70119D01*
X55447Y70093D01*
X55519Y70072D01*
X55598Y70054D01*
X55684Y70040D01*
X55776Y70031D01*
X55982Y70025D01*
X55215Y69258D01*
X55214Y69364D01*
X55200Y69556D01*
X55186Y69642D01*
X55168Y69721D01*
X55147Y69793D01*
X55121Y69857D01*
X55090Y69915D01*
X55056Y69966D01*
X55017Y70010D01*
X55230Y70223D01*
X55274Y70184D01*
D02*
G37*
G36*
X141078Y69045D02*
X141082Y69002D01*
X141088Y68963D01*
X141097Y68930D01*
X141109Y68901D01*
X141123Y68878D01*
X141139Y68860D01*
X141158Y68847D01*
X141180Y68840D01*
X141204Y68837D01*
X140696D01*
X140720Y68840D01*
X140742Y68847D01*
X140761Y68860D01*
X140777Y68878D01*
X140791Y68901D01*
X140803Y68930D01*
X140812Y68963D01*
X140818Y69002D01*
X140822Y69045D01*
X140823Y69094D01*
X141077D01*
X141078Y69045D01*
D02*
G37*
G36*
X137459Y68995D02*
X137567Y68905D01*
X137615Y68871D01*
X137659Y68846D01*
X137700Y68829D01*
X137736Y68820D01*
X137769Y68819D01*
X137799Y68825D01*
X137824Y68840D01*
X137400Y68502D01*
X137398Y68528D01*
X137391Y68556D01*
X137381Y68585D01*
X137366Y68617D01*
X137347Y68649D01*
X137323Y68684D01*
X137296Y68721D01*
X137228Y68799D01*
X137188Y68840D01*
X137400Y69052D01*
X137459Y68995D01*
D02*
G37*
G36*
X82702Y68391D02*
X82418D01*
X82421Y68398D01*
X82424Y68413D01*
X82426Y68435D01*
X82431Y68547D01*
X82433Y68804D01*
X82687D01*
X82702Y68391D01*
D02*
G37*
G36*
X99946Y69136D02*
X99960Y68944D01*
X99974Y68858D01*
X99992Y68779D01*
X100013Y68707D01*
X100039Y68643D01*
X100070Y68585D01*
X100104Y68534D01*
X100143Y68490D01*
X99930Y68277D01*
X99886Y68316D01*
X99835Y68350D01*
X99777Y68381D01*
X99713Y68407D01*
X99641Y68428D01*
X99562Y68446D01*
X99476Y68460D01*
X99384Y68469D01*
X99178Y68475D01*
X99945Y69242D01*
X99946Y69136D01*
D02*
G37*
G36*
X97406D02*
X97420Y68944D01*
X97434Y68858D01*
X97452Y68779D01*
X97473Y68707D01*
X97499Y68643D01*
X97530Y68585D01*
X97564Y68534D01*
X97603Y68490D01*
X97390Y68277D01*
X97346Y68316D01*
X97295Y68350D01*
X97237Y68381D01*
X97173Y68407D01*
X97101Y68428D01*
X97022Y68446D01*
X96936Y68460D01*
X96844Y68469D01*
X96638Y68475D01*
X97405Y69242D01*
X97406Y69136D01*
D02*
G37*
G36*
X67642Y68241D02*
X67358D01*
X67361Y68248D01*
X67364Y68263D01*
X67366Y68285D01*
X67371Y68397D01*
X67373Y68655D01*
X67627D01*
X67642Y68241D01*
D02*
G37*
G36*
X136601Y68470D02*
X136605Y68443D01*
X136611Y68417D01*
X136620Y68391D01*
X136631Y68364D01*
X136645Y68338D01*
X136662Y68312D01*
X136682Y68286D01*
X136704Y68260D01*
X136728Y68234D01*
X136516Y68022D01*
X136490Y68046D01*
X136464Y68068D01*
X136438Y68088D01*
X136412Y68105D01*
X136386Y68119D01*
X136359Y68130D01*
X136333Y68139D01*
X136307Y68145D01*
X136280Y68149D01*
X136253Y68150D01*
X136600Y68496D01*
X136601Y68470D01*
D02*
G37*
G36*
X137412Y67822D02*
X137407Y67827D01*
X137396Y67832D01*
X137379Y67836D01*
X137357Y67840D01*
X137294Y67846D01*
X137158Y67850D01*
X137101Y67850D01*
Y68150D01*
X137158Y68150D01*
X137379Y68164D01*
X137396Y68168D01*
X137407Y68173D01*
X137412Y68178D01*
Y67822D01*
D02*
G37*
G36*
X141543Y67523D02*
X141554Y67518D01*
X141571Y67514D01*
X141593Y67510D01*
X141656Y67504D01*
X141792Y67500D01*
X141849Y67500D01*
Y67200D01*
X141792Y67200D01*
X141571Y67186D01*
X141554Y67182D01*
X141543Y67177D01*
X141538Y67172D01*
Y67528D01*
X141543Y67523D01*
D02*
G37*
G36*
X158628Y67443D02*
X158351Y67073D01*
X158348Y67092D01*
X158340Y67110D01*
X158329Y67125D01*
X158315Y67138D01*
X158296Y67150D01*
X158274Y67159D01*
X158248Y67166D01*
X158219Y67171D01*
X158185Y67174D01*
X158148Y67175D01*
X158222Y67475D01*
X158628Y67443D01*
D02*
G37*
G36*
X134642Y67947D02*
X134668Y67925D01*
X134694Y67906D01*
X134720Y67889D01*
X134747Y67876D01*
X134773Y67865D01*
X134799Y67857D01*
X134826Y67852D01*
X134852Y67849D01*
X134879Y67849D01*
X134883Y67482D01*
X135249Y67479D01*
X135249Y67452D01*
X135252Y67426D01*
X135257Y67399D01*
X135265Y67373D01*
X135276Y67347D01*
X135289Y67320D01*
X135306Y67294D01*
X135325Y67268D01*
X135336Y67255D01*
X135529Y67092D01*
X135585Y67055D01*
X135636Y67028D01*
X135680Y67011D01*
X135718Y67005D01*
X135751Y67008D01*
X135777Y67022D01*
X135303Y66648D01*
X135322Y66669D01*
X135333Y66695D01*
X135334Y66725D01*
X135326Y66760D01*
X135309Y66801D01*
X135284Y66845D01*
X135249Y66895D01*
X135205Y66949D01*
X135117Y67044D01*
X135095Y67062D01*
X135069Y67082D01*
X135043Y67099D01*
X135017Y67114D01*
X134991Y67126D01*
X134965Y67136D01*
X134939Y67143D01*
X134912Y67148D01*
X134886Y67150D01*
X134883Y67482D01*
X134550Y67486D01*
X134548Y67512D01*
X134543Y67539D01*
X134536Y67565D01*
X134526Y67591D01*
X134514Y67617D01*
X134499Y67643D01*
X134482Y67669D01*
X134462Y67695D01*
X134440Y67721D01*
X134416Y67747D01*
X134616Y67971D01*
X134642Y67947D01*
D02*
G37*
G36*
X159851Y66790D02*
X159854Y66757D01*
X159859Y66724D01*
X159865Y66694D01*
X159874Y66666D01*
X159884Y66639D01*
X159897Y66614D01*
X159911Y66591D01*
X159927Y66569D01*
X159945Y66550D01*
X159455D01*
X159473Y66569D01*
X159489Y66591D01*
X159503Y66614D01*
X159516Y66639D01*
X159526Y66666D01*
X159535Y66694D01*
X159541Y66724D01*
X159546Y66757D01*
X159549Y66790D01*
X159550Y66826D01*
X159850D01*
X159851Y66790D01*
D02*
G37*
G36*
X141543Y66873D02*
X141554Y66868D01*
X141571Y66864D01*
X141593Y66860D01*
X141656Y66854D01*
X141792Y66850D01*
X141849Y66850D01*
Y66550D01*
X141792Y66550D01*
X141571Y66536D01*
X141554Y66532D01*
X141543Y66527D01*
X141538Y66522D01*
Y66878D01*
X141543Y66873D01*
D02*
G37*
G36*
X137412Y66522D02*
X137410Y66520D01*
X137402Y66519D01*
X137389Y66517D01*
X137345Y66515D01*
X137135Y66512D01*
X137100Y66812D01*
X137154Y66813D01*
X137287Y66823D01*
X137321Y66829D01*
X137349Y66836D01*
X137373Y66845D01*
X137391Y66854D01*
X137404Y66865D01*
X137412Y66878D01*
Y66522D01*
D02*
G37*
G36*
X136197Y66934D02*
X136206Y66909D01*
X136221Y66886D01*
X136242Y66867D01*
X136270Y66850D01*
X136303Y66837D01*
X136342Y66826D01*
X136388Y66818D01*
X136439Y66814D01*
X136497Y66812D01*
Y66512D01*
X136439Y66511D01*
X136388Y66507D01*
X136342Y66499D01*
X136303Y66489D01*
X136270Y66475D01*
X136242Y66459D01*
X136221Y66439D01*
X136206Y66416D01*
X136197Y66391D01*
X136194Y66363D01*
Y66963D01*
X136197Y66934D01*
D02*
G37*
G36*
X98019Y66202D02*
X98041Y66186D01*
X98064Y66172D01*
X98089Y66159D01*
X98116Y66149D01*
X98144Y66140D01*
X98174Y66134D01*
X98207Y66129D01*
X98241Y66126D01*
X98276Y66125D01*
Y65825D01*
X98241Y65824D01*
X98207Y65821D01*
X98174Y65816D01*
X98144Y65810D01*
X98116Y65801D01*
X98089Y65791D01*
X98064Y65778D01*
X98041Y65764D01*
X98019Y65748D01*
X98000Y65730D01*
Y66220D01*
X98019Y66202D01*
D02*
G37*
G36*
X177087Y65342D02*
X176763D01*
X176765Y65349D01*
X176767Y65361D01*
X176769Y65378D01*
X176773Y65465D01*
X176775Y65660D01*
X177075D01*
X177087Y65342D01*
D02*
G37*
G36*
X150777Y65131D02*
X150761Y65109D01*
X150747Y65086D01*
X150734Y65061D01*
X150724Y65034D01*
X150715Y65006D01*
X150709Y64976D01*
X150704Y64943D01*
X150701Y64910D01*
X150700Y64874D01*
X150400D01*
X150399Y64910D01*
X150396Y64943D01*
X150391Y64976D01*
X150385Y65006D01*
X150376Y65034D01*
X150366Y65061D01*
X150353Y65086D01*
X150339Y65109D01*
X150323Y65131D01*
X150305Y65150D01*
X150795D01*
X150777Y65131D01*
D02*
G37*
G36*
X152846Y64759D02*
X152827Y64777D01*
X152805Y64793D01*
X152782Y64807D01*
X152757Y64820D01*
X152730Y64830D01*
X152702Y64839D01*
X152672Y64845D01*
X152639Y64850D01*
X152605Y64853D01*
X152570Y64854D01*
Y65154D01*
X152605Y65155D01*
X152639Y65158D01*
X152672Y65163D01*
X152702Y65169D01*
X152730Y65178D01*
X152757Y65188D01*
X152782Y65201D01*
X152805Y65215D01*
X152827Y65231D01*
X152846Y65249D01*
Y64759D01*
D02*
G37*
G36*
X98010Y64986D02*
X98024Y64979D01*
X98041Y64972D01*
X98061Y64966D01*
X98084Y64961D01*
X98110Y64957D01*
X98172Y64952D01*
X98247Y64950D01*
Y64550D01*
X98208Y64550D01*
X98110Y64543D01*
X98084Y64539D01*
X98061Y64534D01*
X98041Y64528D01*
X98024Y64521D01*
X98010Y64514D01*
X98000Y64505D01*
Y64995D01*
X98010Y64986D01*
D02*
G37*
G36*
X169300Y64658D02*
X169307Y64560D01*
X169311Y64534D01*
X169316Y64511D01*
X169322Y64491D01*
X169329Y64474D01*
X169336Y64460D01*
X169345Y64450D01*
X168855D01*
X168864Y64460D01*
X168871Y64474D01*
X168878Y64491D01*
X168884Y64511D01*
X168889Y64534D01*
X168893Y64560D01*
X168898Y64622D01*
X168900Y64697D01*
X169300D01*
X169300Y64658D01*
D02*
G37*
G36*
X155000Y64005D02*
X154981Y64023D01*
X154959Y64039D01*
X154936Y64053D01*
X154911Y64066D01*
X154884Y64076D01*
X154856Y64085D01*
X154826Y64091D01*
X154793Y64096D01*
X154760Y64099D01*
X154724Y64100D01*
Y64400D01*
X154760Y64401D01*
X154793Y64404D01*
X154826Y64409D01*
X154856Y64415D01*
X154884Y64424D01*
X154911Y64434D01*
X154936Y64447D01*
X154959Y64461D01*
X154981Y64477D01*
X155000Y64495D01*
Y64005D01*
D02*
G37*
G36*
X147703Y64110D02*
X147676Y64082D01*
X147611Y64008D01*
X147595Y63987D01*
X147583Y63967D01*
X147573Y63949D01*
X147566Y63932D01*
X147561Y63917D01*
X147560Y63903D01*
X147214Y64250D01*
X147227Y64251D01*
X147242Y64256D01*
X147259Y64263D01*
X147277Y64273D01*
X147297Y64285D01*
X147318Y64301D01*
X147366Y64341D01*
X147420Y64393D01*
X147703Y64110D01*
D02*
G37*
G36*
X156727Y63981D02*
X156711Y63959D01*
X156697Y63936D01*
X156684Y63911D01*
X156674Y63884D01*
X156665Y63856D01*
X156659Y63826D01*
X156654Y63793D01*
X156651Y63759D01*
X156650Y63724D01*
X156350D01*
X156349Y63759D01*
X156346Y63793D01*
X156341Y63826D01*
X156335Y63856D01*
X156326Y63884D01*
X156316Y63911D01*
X156303Y63936D01*
X156289Y63959D01*
X156273Y63981D01*
X156255Y64000D01*
X156745D01*
X156727Y63981D01*
D02*
G37*
G36*
X152347D02*
X152331Y63959D01*
X152317Y63936D01*
X152304Y63911D01*
X152294Y63884D01*
X152285Y63856D01*
X152279Y63826D01*
X152274Y63793D01*
X152271Y63759D01*
X152270Y63724D01*
X151970D01*
X151969Y63759D01*
X151966Y63793D01*
X151961Y63826D01*
X151955Y63856D01*
X151946Y63884D01*
X151936Y63911D01*
X151923Y63936D01*
X151909Y63959D01*
X151893Y63981D01*
X151875Y64000D01*
X152365D01*
X152347Y63981D01*
D02*
G37*
G36*
X149497Y63850D02*
X149470Y63849D01*
X149443Y63845D01*
X149417Y63839D01*
X149391Y63830D01*
X149364Y63819D01*
X149338Y63805D01*
X149312Y63788D01*
X149286Y63768D01*
X149260Y63746D01*
X149234Y63722D01*
X149022Y63934D01*
X149046Y63960D01*
X149068Y63986D01*
X149088Y64012D01*
X149105Y64038D01*
X149119Y64064D01*
X149130Y64091D01*
X149139Y64117D01*
X149145Y64143D01*
X149149Y64170D01*
X149150Y64197D01*
X149497Y63850D01*
D02*
G37*
G36*
X169096D02*
X169083Y63849D01*
X169068Y63845D01*
X169051Y63837D01*
X169033Y63827D01*
X169013Y63815D01*
X168992Y63799D01*
X168944Y63759D01*
X168890Y63707D01*
X168607Y63990D01*
X168634Y64018D01*
X168699Y64092D01*
X168715Y64113D01*
X168727Y64133D01*
X168737Y64151D01*
X168745Y64168D01*
X168749Y64183D01*
X168750Y64197D01*
X169096Y63850D01*
D02*
G37*
G36*
X102760Y63536D02*
X102774Y63529D01*
X102791Y63522D01*
X102811Y63516D01*
X102834Y63511D01*
X102860Y63507D01*
X102922Y63502D01*
X102997Y63500D01*
Y63100D01*
X102958Y63100D01*
X102860Y63093D01*
X102834Y63089D01*
X102811Y63084D01*
X102791Y63078D01*
X102774Y63071D01*
X102760Y63064D01*
X102750Y63055D01*
Y63545D01*
X102760Y63536D01*
D02*
G37*
G36*
X176430Y63145D02*
X176424Y63129D01*
X176419Y63108D01*
X176415Y63084D01*
X176408Y63022D01*
X176403Y62945D01*
X176402Y62852D01*
X176148D01*
X176148Y62900D01*
X176135Y63084D01*
X176131Y63108D01*
X176126Y63129D01*
X176120Y63145D01*
X176113Y63158D01*
X176437D01*
X176430Y63145D01*
D02*
G37*
G36*
X175780D02*
X175774Y63129D01*
X175769Y63108D01*
X175765Y63084D01*
X175758Y63022D01*
X175753Y62945D01*
X175752Y62852D01*
X175498D01*
X175498Y62900D01*
X175485Y63084D01*
X175481Y63108D01*
X175476Y63129D01*
X175470Y63145D01*
X175463Y63158D01*
X175787D01*
X175780Y63145D01*
D02*
G37*
G36*
X175130D02*
X175124Y63129D01*
X175119Y63108D01*
X175115Y63084D01*
X175108Y63022D01*
X175103Y62945D01*
X175102Y62852D01*
X174848D01*
X174848Y62900D01*
X174835Y63084D01*
X174831Y63108D01*
X174826Y63129D01*
X174820Y63145D01*
X174813Y63158D01*
X175137D01*
X175130Y63145D01*
D02*
G37*
G36*
X174480D02*
X174474Y63129D01*
X174469Y63108D01*
X174465Y63084D01*
X174458Y63022D01*
X174453Y62945D01*
X174452Y62852D01*
X174198D01*
X174198Y62900D01*
X174185Y63084D01*
X174181Y63108D01*
X174176Y63129D01*
X174170Y63145D01*
X174163Y63158D01*
X174487D01*
X174480Y63145D01*
D02*
G37*
G36*
X173830D02*
X173824Y63129D01*
X173819Y63108D01*
X173815Y63084D01*
X173808Y63022D01*
X173803Y62945D01*
X173802Y62852D01*
X173548D01*
X173548Y62900D01*
X173535Y63084D01*
X173531Y63108D01*
X173526Y63129D01*
X173520Y63145D01*
X173513Y63158D01*
X173837D01*
X173830Y63145D01*
D02*
G37*
G36*
X173180D02*
X173174Y63129D01*
X173169Y63108D01*
X173165Y63084D01*
X173158Y63022D01*
X173153Y62945D01*
X173152Y62852D01*
X172898D01*
X172898Y62900D01*
X172885Y63084D01*
X172881Y63108D01*
X172876Y63129D01*
X172870Y63145D01*
X172863Y63158D01*
X173187D01*
X173180Y63145D01*
D02*
G37*
G36*
X172530D02*
X172524Y63129D01*
X172519Y63108D01*
X172515Y63084D01*
X172508Y63022D01*
X172503Y62945D01*
X172502Y62852D01*
X172248D01*
X172248Y62900D01*
X172235Y63084D01*
X172231Y63108D01*
X172226Y63129D01*
X172220Y63145D01*
X172213Y63158D01*
X172537D01*
X172530Y63145D01*
D02*
G37*
G36*
X171880D02*
X171874Y63129D01*
X171869Y63108D01*
X171865Y63084D01*
X171858Y63022D01*
X171853Y62945D01*
X171852Y62852D01*
X171598D01*
X171598Y62900D01*
X171585Y63084D01*
X171581Y63108D01*
X171576Y63129D01*
X171570Y63145D01*
X171563Y63158D01*
X171887D01*
X171880Y63145D01*
D02*
G37*
G36*
X177085Y63152D02*
X177083Y63139D01*
X177081Y63122D01*
X177077Y63035D01*
X177075Y62840D01*
X176775D01*
X176763Y63158D01*
X177087D01*
X177085Y63152D01*
D02*
G37*
G36*
X149978Y62966D02*
X149954Y62940D01*
X149932Y62914D01*
X149912Y62888D01*
X149895Y62862D01*
X149881Y62836D01*
X149870Y62809D01*
X149861Y62783D01*
X149855Y62757D01*
X149851Y62730D01*
X149850Y62703D01*
X149444Y62644D01*
X149503Y63050D01*
X149530Y63051D01*
X149557Y63055D01*
X149583Y63061D01*
X149609Y63070D01*
X149636Y63081D01*
X149662Y63095D01*
X149688Y63112D01*
X149714Y63132D01*
X149740Y63154D01*
X149766Y63178D01*
X149978Y62966D01*
D02*
G37*
G36*
X158497Y62650D02*
X158483Y62649D01*
X158468Y62645D01*
X158451Y62637D01*
X158433Y62627D01*
X158413Y62615D01*
X158392Y62599D01*
X158344Y62559D01*
X158290Y62507D01*
X158007Y62790D01*
X158034Y62818D01*
X158099Y62892D01*
X158115Y62913D01*
X158127Y62933D01*
X158137Y62951D01*
X158145Y62968D01*
X158149Y62983D01*
X158150Y62996D01*
X158497Y62650D01*
D02*
G37*
G36*
X149403Y62364D02*
X149398Y62364D01*
X149390Y62361D01*
X149381Y62355D01*
X149280Y62268D01*
X149256Y62244D01*
X149044Y62456D01*
X149108Y62522D01*
X149137Y62556D01*
X149147Y62569D01*
X149156Y62581D01*
X149161Y62590D01*
X149164Y62598D01*
X149164Y62603D01*
X149444Y62644D01*
X149403Y62364D01*
D02*
G37*
G36*
X154227Y62231D02*
X154211Y62209D01*
X154197Y62186D01*
X154184Y62161D01*
X154174Y62134D01*
X154165Y62106D01*
X154159Y62076D01*
X154154Y62043D01*
X154151Y62009D01*
X154150Y61974D01*
X153850D01*
X153849Y62009D01*
X153846Y62043D01*
X153841Y62076D01*
X153835Y62106D01*
X153826Y62134D01*
X153816Y62161D01*
X153803Y62186D01*
X153789Y62209D01*
X153773Y62231D01*
X153755Y62250D01*
X154245D01*
X154227Y62231D01*
D02*
G37*
G36*
X177260Y62404D02*
X177286Y62382D01*
X177312Y62362D01*
X177338Y62345D01*
X177364Y62331D01*
X177391Y62320D01*
X177417Y62311D01*
X177443Y62305D01*
X177470Y62301D01*
X177497Y62300D01*
X177150Y61953D01*
X177149Y61980D01*
X177145Y62007D01*
X177139Y62033D01*
X177130Y62059D01*
X177119Y62086D01*
X177105Y62112D01*
X177088Y62138D01*
X177068Y62164D01*
X177046Y62190D01*
X177022Y62216D01*
X177234Y62428D01*
X177260Y62404D01*
D02*
G37*
G36*
X85859Y61528D02*
X85869Y61462D01*
X85887Y61394D01*
X85913Y61327D01*
X85945Y61259D01*
X85985Y61190D01*
X86031Y61121D01*
X86085Y61052D01*
X86147Y60982D01*
X86215Y60911D01*
X85095D01*
X85163Y60982D01*
X85279Y61121D01*
X85325Y61190D01*
X85365Y61259D01*
X85397Y61327D01*
X85423Y61394D01*
X85441Y61462D01*
X85451Y61528D01*
X85455Y61595D01*
X85855D01*
X85859Y61528D01*
D02*
G37*
G36*
X83886Y61129D02*
X83847Y61084D01*
X83812Y61032D01*
X83781Y60972D01*
X83755Y60905D01*
X83732Y60830D01*
X83714Y60749D01*
X83701Y60659D01*
X83691Y60563D01*
X83685Y60348D01*
X82893Y61140D01*
X83004Y61141D01*
X83204Y61156D01*
X83294Y61169D01*
X83375Y61187D01*
X83450Y61210D01*
X83517Y61236D01*
X83577Y61267D01*
X83629Y61302D01*
X83674Y61341D01*
X83886Y61129D01*
D02*
G37*
G36*
X81704Y58688D02*
X81714Y58622D01*
X81732Y58554D01*
X81758Y58487D01*
X81790Y58419D01*
X81830Y58350D01*
X81876Y58281D01*
X81930Y58212D01*
X81992Y58142D01*
X82060Y58071D01*
X80940D01*
X81008Y58142D01*
X81124Y58281D01*
X81170Y58350D01*
X81210Y58419D01*
X81242Y58487D01*
X81268Y58554D01*
X81286Y58622D01*
X81296Y58688D01*
X81300Y58755D01*
X81700D01*
X81704Y58688D01*
D02*
G37*
G36*
X84262Y56700D02*
X84164Y56699D01*
X83984Y56682D01*
X83902Y56666D01*
X83826Y56645D01*
X83754Y56620D01*
X83689Y56590D01*
X83629Y56555D01*
X83574Y56516D01*
X83524Y56471D01*
X83241Y56754D01*
X83286Y56804D01*
X83325Y56859D01*
X83360Y56919D01*
X83390Y56984D01*
X83415Y57056D01*
X83436Y57132D01*
X83452Y57214D01*
X83463Y57301D01*
X83469Y57394D01*
X83470Y57492D01*
X84262Y56700D01*
D02*
G37*
G36*
X166361Y56706D02*
X166322Y56661D01*
X166290Y56611D01*
X166266Y56555D01*
X166249Y56495D01*
X166239Y56429D01*
X166237Y56359D01*
X166242Y56283D01*
X166254Y56203D01*
X166274Y56117D01*
X166302Y56027D01*
X165367Y56506D01*
X165488Y56545D01*
X165942Y56716D01*
X166002Y56746D01*
X166052Y56774D01*
X166092Y56801D01*
X166122Y56827D01*
X166361Y56706D01*
D02*
G37*
G36*
X175107Y56617D02*
X175151Y56585D01*
X175197Y56558D01*
X175246Y56536D01*
X175297Y56520D01*
X175351Y56510D01*
X175407Y56505D01*
X175465Y56505D01*
X175526Y56511D01*
X175588Y56522D01*
X175018Y55952D01*
X175029Y56014D01*
X175035Y56075D01*
X175035Y56133D01*
X175030Y56189D01*
X175020Y56243D01*
X175004Y56294D01*
X174982Y56343D01*
X174955Y56389D01*
X174923Y56433D01*
X174885Y56475D01*
X175065Y56655D01*
X175107Y56617D01*
D02*
G37*
G36*
X180120Y56685D02*
X180168Y56654D01*
X180224Y56626D01*
X180287Y56602D01*
X180358Y56582D01*
X180436Y56566D01*
X180522Y56554D01*
X180715Y56541D01*
X180822Y56540D01*
X180080Y55798D01*
X180079Y55905D01*
X180066Y56098D01*
X180054Y56184D01*
X180038Y56262D01*
X180018Y56333D01*
X179994Y56396D01*
X179966Y56452D01*
X179935Y56500D01*
X179899Y56541D01*
X180079Y56721D01*
X180120Y56685D01*
D02*
G37*
G36*
X177580D02*
X177628Y56654D01*
X177684Y56626D01*
X177747Y56602D01*
X177818Y56582D01*
X177896Y56566D01*
X177982Y56554D01*
X178175Y56541D01*
X178283Y56540D01*
X177540Y55798D01*
X177539Y55905D01*
X177526Y56098D01*
X177514Y56184D01*
X177498Y56262D01*
X177478Y56333D01*
X177454Y56396D01*
X177426Y56452D01*
X177395Y56500D01*
X177359Y56541D01*
X177539Y56721D01*
X177580Y56685D01*
D02*
G37*
G36*
X174141Y56541D02*
X174105Y56500D01*
X174074Y56452D01*
X174046Y56396D01*
X174022Y56333D01*
X174002Y56262D01*
X173986Y56184D01*
X173974Y56098D01*
X173961Y55905D01*
X173960Y55798D01*
X173217Y56540D01*
X173325Y56541D01*
X173518Y56554D01*
X173604Y56566D01*
X173682Y56582D01*
X173753Y56602D01*
X173816Y56626D01*
X173872Y56654D01*
X173920Y56685D01*
X173961Y56721D01*
X174141Y56541D01*
D02*
G37*
G36*
X171601D02*
X171565Y56500D01*
X171534Y56452D01*
X171506Y56396D01*
X171482Y56333D01*
X171462Y56262D01*
X171446Y56184D01*
X171434Y56098D01*
X171421Y55905D01*
X171420Y55798D01*
X170678Y56540D01*
X170785Y56541D01*
X170978Y56554D01*
X171064Y56566D01*
X171142Y56582D01*
X171213Y56602D01*
X171276Y56626D01*
X171332Y56654D01*
X171380Y56685D01*
X171421Y56721D01*
X171601Y56541D01*
D02*
G37*
G36*
X169061D02*
X169025Y56500D01*
X168994Y56452D01*
X168966Y56396D01*
X168942Y56333D01*
X168922Y56262D01*
X168906Y56184D01*
X168894Y56098D01*
X168881Y55905D01*
X168880Y55798D01*
X168137Y56540D01*
X168245Y56541D01*
X168438Y56554D01*
X168524Y56566D01*
X168602Y56582D01*
X168673Y56602D01*
X168736Y56626D01*
X168792Y56654D01*
X168840Y56685D01*
X168881Y56721D01*
X169061Y56541D01*
D02*
G37*
G36*
X163981D02*
X163945Y56500D01*
X163914Y56452D01*
X163886Y56396D01*
X163862Y56333D01*
X163842Y56262D01*
X163826Y56184D01*
X163814Y56098D01*
X163801Y55905D01*
X163800Y55798D01*
X163057Y56540D01*
X163165Y56541D01*
X163358Y56554D01*
X163444Y56566D01*
X163522Y56582D01*
X163593Y56602D01*
X163656Y56626D01*
X163712Y56654D01*
X163760Y56685D01*
X163801Y56721D01*
X163981Y56541D01*
D02*
G37*
G36*
X168122Y52500D02*
X168034Y52499D01*
X167950Y52493D01*
X167870Y52482D01*
X167795Y52467D01*
X167725Y52447D01*
X167659Y52423D01*
X167598Y52394D01*
X167541Y52360D01*
X167489Y52322D01*
X167442Y52279D01*
X167159Y52562D01*
X167202Y52609D01*
X167240Y52661D01*
X167274Y52718D01*
X167303Y52779D01*
X167327Y52845D01*
X167347Y52915D01*
X167362Y52990D01*
X167373Y53070D01*
X167379Y53154D01*
X167380Y53243D01*
X168122Y52500D01*
D02*
G37*
%LPC*%
G36*
X137961Y92100D02*
X137440D01*
Y91579D01*
X137546Y91623D01*
X137756Y91784D01*
X137917Y91994D01*
X137961Y92100D01*
D02*
G37*
G36*
X142104Y88854D02*
X139400D01*
Y88150D01*
X142104D01*
Y88854D01*
D02*
G37*
G36*
X142600Y88204D02*
X142569Y88181D01*
X142546Y88150D01*
X142600D01*
Y88204D01*
D02*
G37*
G36*
Y87350D02*
X142546D01*
X142569Y87319D01*
X142600Y87296D01*
Y87350D01*
D02*
G37*
G36*
X142104Y87350D02*
X139400D01*
Y86646D01*
X142104D01*
Y87350D01*
D02*
G37*
%LPD*%
D13*
X61350Y54050D02*
Y54800D01*
X166100Y101350D02*
X167600Y99850D01*
X166100Y101350D02*
Y103000D01*
X167600Y99850D02*
X167850D01*
X168100Y63200D02*
X169100Y64200D01*
X160050Y63200D02*
X168100D01*
X157046Y66204D02*
X160050Y63200D01*
X158630Y57020D02*
X160750Y54900D01*
Y52500D02*
Y54900D01*
Y52500D02*
X161500Y51750D01*
X121080Y57020D02*
X158630D01*
X153500Y58000D02*
X158500Y63000D01*
X122250Y58000D02*
X153500D01*
X173148Y140750D02*
Y140771D01*
X173150Y140773D02*
X174975D01*
X173148Y140771D02*
X173150Y140773D01*
X53019Y126100D02*
X53100D01*
X52944Y126175D02*
X53019Y126100D01*
X51600Y126175D02*
X52944D01*
X51000Y119000D02*
Y125575D01*
X51350Y125925D01*
Y126000D01*
X51525Y126175D01*
X51600D01*
X149514Y66204D02*
X157046D01*
X147210Y63900D02*
X149514Y66204D01*
X61350Y54800D02*
X69600Y63050D01*
X67500Y65150D02*
X69600Y63050D01*
X67500Y65150D02*
Y68100D01*
X169100Y64200D02*
Y68200D01*
X169800Y68900D01*
X173125D01*
X173675Y69450D01*
X102500Y63300D02*
X114800D01*
X121080Y57020D01*
X132500Y139750D02*
X134000D01*
X66150Y148900D02*
X67900Y147150D01*
Y137050D02*
Y147150D01*
X64900Y134050D02*
X67900Y137050D01*
X166630Y51750D02*
X168130Y53250D01*
X161500Y51750D02*
X166630D01*
X115500Y64750D02*
X122250Y58000D01*
X97750Y64750D02*
X115500D01*
X168525Y127000D02*
X169255D01*
X169875Y127620D01*
X175250Y113250D02*
Y116845D01*
X173980Y118115D02*
X175250Y116845D01*
X171675Y118115D02*
X173980D01*
X175250Y120500D02*
Y123000D01*
X174135Y119385D02*
X175250Y120500D01*
X171675Y119385D02*
X174135D01*
X164000Y118125D02*
X164010Y118115D01*
X166825D01*
X51000Y119000D02*
X51330Y118670D01*
X52600D01*
X85655Y60340D02*
Y66155D01*
X87750Y68250D01*
X84270Y76730D02*
X87750Y73250D01*
X84270Y76730D02*
Y80525D01*
X84562Y80817D01*
X85735D01*
X81500Y57500D02*
Y62250D01*
X82560Y63310D01*
Y68250D01*
X81750Y74060D02*
X82560Y73250D01*
X81750Y74060D02*
Y78500D01*
X80035Y72960D02*
Y77500D01*
X77250Y55790D02*
X82560D01*
X84270Y57500D01*
X75250Y57790D02*
X77250Y55790D01*
X75250Y57790D02*
Y61500D01*
X80035Y66285D01*
Y68250D01*
X78250Y82250D02*
X78382Y82118D01*
X151610Y83250D02*
Y84750D01*
X150777Y82418D02*
X151610Y83250D01*
X149520Y82418D02*
X150777D01*
D14*
X171150Y95700D02*
X171150Y95700D01*
X169650Y95700D02*
X171150D01*
X146836Y80518D02*
X147120D01*
X146618Y80300D02*
X146836Y80518D01*
X145500Y80300D02*
X146618D01*
X130973Y140872D02*
X131100Y141000D01*
X132500D01*
X134000D01*
X164750Y143250D02*
X165089Y143589D01*
X165939D01*
X165975Y143625D01*
D16*
X171725Y61158D02*
Y64250D01*
X170907Y60340D02*
X171725Y61158D01*
X167600Y60340D02*
X170907D01*
X163050Y55790D02*
X167600Y60340D01*
X172375Y61025D02*
Y64250D01*
X171100Y59750D02*
X172375Y61025D01*
X169225Y59750D02*
X171100D01*
X167265Y140810D02*
X167275Y140819D01*
X54750Y70500D02*
Y73000D01*
X54500Y73250D02*
X54750Y73000D01*
X54500Y73250D02*
X54500Y73250D01*
X126825Y127450D02*
X127375Y126900D01*
X126825Y127450D02*
Y130500D01*
X126819Y139569D02*
X127250Y140000D01*
X126819Y137457D02*
Y139569D01*
X126265Y138052D02*
Y139585D01*
X125750Y140100D02*
X126265Y139585D01*
X128181Y139181D02*
X128460Y139460D01*
X128181Y137885D02*
Y139181D01*
X124794Y137532D02*
Y138856D01*
X124500Y139150D02*
X124794Y138856D01*
X129425Y128840D02*
X129845Y128420D01*
X70000Y129000D02*
X70750Y128250D01*
X70000Y129000D02*
Y131480D01*
X68690Y132790D02*
X70000Y131480D01*
X67500Y128950D02*
Y131440D01*
X66150Y132790D02*
X67500Y131440D01*
X70750Y128250D02*
X74913D01*
X127394Y127706D02*
Y128880D01*
X128125Y128577D02*
Y130500D01*
X128856Y127800D02*
Y128880D01*
X127394D02*
X127475Y128961D01*
Y130500D01*
X130900Y128400D02*
Y128427D01*
X124794Y137532D02*
X124865Y137461D01*
X126175Y137962D02*
X126265Y138052D01*
X170525Y140800D02*
Y142116D01*
X169194Y141824D02*
X169207Y141811D01*
Y140818D02*
Y141811D01*
X168575Y140800D02*
Y142187D01*
X167194Y142197D02*
X167275Y142116D01*
Y140800D02*
Y142116D01*
X168606Y142218D02*
Y144094D01*
X169194Y141824D02*
Y144189D01*
X74913Y128250D02*
X77613Y125550D01*
X78600D01*
X128068Y127032D02*
X129632D01*
X128775Y128961D02*
X128856Y128880D01*
X128775Y128961D02*
Y130500D01*
X130075Y129252D02*
X130900Y128427D01*
X127394Y127706D02*
X128068Y127032D01*
X126819Y137457D02*
X126825Y137451D01*
X126175Y136500D02*
Y137962D01*
X128125Y137829D02*
X128181Y137885D01*
X128125Y136500D02*
Y137829D01*
X126825Y136500D02*
Y137451D01*
X124865Y136510D02*
Y137461D01*
X168400Y144300D02*
X168606Y144094D01*
X168575Y142187D02*
X168606Y142218D01*
X169207Y140818D02*
X169215Y140810D01*
X170606Y142197D02*
Y143801D01*
X167194Y142197D02*
Y144040D01*
X170606Y143801D02*
X170845Y144040D01*
X170525Y142116D02*
X170606Y142197D01*
X170845Y120655D02*
X171675D01*
X169800Y121700D02*
X170845Y120655D01*
X166825Y115750D02*
X167875Y114700D01*
X169300D01*
X67500Y68100D02*
Y70600D01*
X68690Y71790D01*
X77609Y124400D02*
X78300D01*
X74313Y127696D02*
X77609Y124400D01*
X129425Y128840D02*
Y130500D01*
X130075Y129252D02*
Y130500D01*
X57500Y104000D02*
X57500D01*
X167688Y120337D02*
X168525Y119500D01*
Y115750D02*
Y119500D01*
X166825Y120655D02*
X167456D01*
X167688Y120424D01*
Y120337D02*
Y120424D01*
X68754Y127696D02*
X74313D01*
X67500Y128950D02*
X68754Y127696D01*
X166825Y115750D02*
Y116845D01*
X82560Y68250D02*
Y73250D01*
X165590Y56115D02*
X169225Y59750D01*
X165590Y55790D02*
Y56115D01*
X168130Y55790D02*
X173025Y60685D01*
Y64250D01*
X170670Y55790D02*
X173675Y58795D01*
Y64250D01*
X176275Y60345D02*
X180830Y55790D01*
X176275Y60345D02*
Y64250D01*
X175625Y58455D02*
X178290Y55790D01*
X175625Y58455D02*
Y64250D01*
X173210Y55790D02*
X174325Y56905D01*
Y64250D01*
X174975Y56565D02*
X175750Y55790D01*
X174975Y56565D02*
Y64250D01*
X140950Y68650D02*
Y70000D01*
X140200Y70750D02*
X140950Y70000D01*
X136000Y70750D02*
X140200D01*
X135750Y71000D02*
X136000Y70750D01*
X135750Y71000D02*
Y71790D01*
D19*
X151500Y77000D02*
D03*
X113700Y148900D02*
D03*
D20*
X126500Y133500D02*
D03*
D21*
X122275Y130500D02*
D03*
X122925D02*
D03*
X123575D02*
D03*
X124225D02*
D03*
X124875D02*
D03*
X125525D02*
D03*
X126175D02*
D03*
X126825D02*
D03*
X127475D02*
D03*
X128125D02*
D03*
X128775D02*
D03*
X129425D02*
D03*
X130075D02*
D03*
X130725D02*
D03*
X122275Y136500D02*
D03*
X122925D02*
D03*
X123575D02*
D03*
X124225D02*
D03*
X124875D02*
D03*
X125525D02*
D03*
X126175D02*
D03*
X126825D02*
D03*
X127475D02*
D03*
X128125D02*
D03*
X128775D02*
D03*
X129425D02*
D03*
X130075D02*
D03*
X130725D02*
D03*
X173125Y140800D02*
D03*
X172475D02*
D03*
X171825D02*
D03*
X171175D02*
D03*
X170525D02*
D03*
X169875D02*
D03*
X169225D02*
D03*
X168575D02*
D03*
X167925D02*
D03*
X167275D02*
D03*
X166625D02*
D03*
X165975D02*
D03*
Y134800D02*
D03*
X166625D02*
D03*
X173125D02*
D03*
X172475D02*
D03*
X171825D02*
D03*
X171175D02*
D03*
X170525D02*
D03*
X169875D02*
D03*
X169225D02*
D03*
X168575D02*
D03*
X167925D02*
D03*
X167275D02*
D03*
D22*
X138000Y68650D02*
D03*
Y68000D02*
D03*
Y67350D02*
D03*
Y66700D02*
D03*
X140950D02*
D03*
Y67350D02*
D03*
Y68000D02*
D03*
Y68650D02*
D03*
D23*
X176925Y71250D02*
D03*
X176275D02*
D03*
X175625D02*
D03*
X174975D02*
D03*
X174325D02*
D03*
X173675D02*
D03*
X173025D02*
D03*
X172375D02*
D03*
X171725D02*
D03*
X171075D02*
D03*
X176925Y64250D02*
D03*
X176275D02*
D03*
X175625D02*
D03*
X174975D02*
D03*
X174325D02*
D03*
X173675D02*
D03*
X173025D02*
D03*
X172375D02*
D03*
X171725D02*
D03*
X171075D02*
D03*
D24*
X63800Y119960D02*
D03*
Y114960D02*
D03*
D25*
Y117460D02*
D03*
D26*
X58250Y111789D02*
D03*
X55000Y122960D02*
D03*
D27*
X52600Y121970D02*
D03*
Y120870D02*
D03*
Y119770D02*
D03*
Y118670D02*
D03*
Y117570D02*
D03*
Y116470D02*
D03*
Y115370D02*
D03*
Y114270D02*
D03*
D28*
X169550Y137800D02*
D03*
D29*
X180500Y137350D02*
D03*
Y143150D02*
D03*
X149750Y138900D02*
D03*
Y133100D02*
D03*
X157750Y138900D02*
D03*
Y133100D02*
D03*
X141750Y130050D02*
D03*
Y135850D02*
D03*
X113550Y132850D02*
D03*
Y138650D02*
D03*
D30*
X151610Y84750D02*
D03*
X150110D02*
D03*
D31*
X131850Y93916D02*
D03*
Y92516D02*
D03*
D32*
X123325Y85112D02*
D03*
Y88662D02*
D03*
D33*
X139000Y83250D02*
D03*
Y87750D02*
D03*
D34*
X111450Y82000D02*
D03*
X113550D02*
D03*
Y77500D02*
D03*
X111450D02*
D03*
X113550Y79750D02*
D03*
X111450D02*
D03*
X113550Y75250D02*
D03*
X111450D02*
D03*
D35*
X167850Y99850D02*
D03*
X169650Y100800D02*
D03*
Y98900D02*
D03*
X147120Y82418D02*
D03*
Y81467D02*
D03*
Y80518D02*
D03*
X149520D02*
D03*
Y81467D02*
D03*
Y82418D02*
D03*
D36*
X167800Y95700D02*
D03*
Y96950D02*
D03*
X169650D02*
D03*
Y95700D02*
D03*
D37*
X129250Y90616D02*
D03*
Y91566D02*
D03*
Y92516D02*
D03*
X126850D02*
D03*
Y90616D02*
D03*
D38*
X80035Y82768D02*
D03*
Y82118D02*
D03*
Y81467D02*
D03*
Y80817D02*
D03*
Y80168D02*
D03*
Y79518D02*
D03*
Y78868D02*
D03*
X85735Y82768D02*
D03*
Y82118D02*
D03*
Y81467D02*
D03*
Y80817D02*
D03*
Y80168D02*
D03*
Y79518D02*
D03*
Y78868D02*
D03*
X80035Y78232D02*
D03*
X85750D02*
D03*
D39*
X166825Y120655D02*
D03*
Y119385D02*
D03*
Y118115D02*
D03*
Y116845D02*
D03*
X171675Y120655D02*
D03*
Y119385D02*
D03*
Y118115D02*
D03*
Y116845D02*
D03*
D40*
X143140Y143100D02*
D03*
Y143750D02*
D03*
Y144400D02*
D03*
X145140D02*
D03*
Y143750D02*
D03*
Y143100D02*
D03*
X90750Y141850D02*
D03*
Y142500D02*
D03*
Y143150D02*
D03*
X88750D02*
D03*
Y142500D02*
D03*
Y141850D02*
D03*
D41*
X51600Y127425D02*
D03*
Y126175D02*
D03*
X164000Y119375D02*
D03*
Y118125D02*
D03*
X174325Y74265D02*
D03*
Y75515D02*
D03*
D42*
X134000Y139750D02*
D03*
Y141000D02*
D03*
D43*
X172000Y145025D02*
D03*
Y143775D02*
D03*
X165975Y143625D02*
D03*
Y144875D02*
D03*
X135750Y65375D02*
D03*
Y66625D02*
D03*
X132500Y139750D02*
D03*
Y141000D02*
D03*
X129900Y140822D02*
D03*
Y142072D02*
D03*
X123000Y140822D02*
D03*
Y142072D02*
D03*
X126850Y94516D02*
D03*
Y95766D02*
D03*
Y88662D02*
D03*
Y87412D02*
D03*
X131850Y90616D02*
D03*
Y89366D02*
D03*
X132900Y136975D02*
D03*
Y138225D02*
D03*
D44*
X144545Y91750D02*
D03*
X148095D02*
D03*
X144545Y88250D02*
D03*
X148095D02*
D03*
X143345Y77500D02*
D03*
X139795D02*
D03*
X143345Y74000D02*
D03*
X139795D02*
D03*
D45*
X164875Y131250D02*
D03*
X163625D02*
D03*
X167275Y127000D02*
D03*
X168525D02*
D03*
D46*
X134350Y71790D02*
D03*
X137150D02*
D03*
X135750D02*
D03*
D47*
X143345Y82025D02*
D03*
Y80575D02*
D03*
D48*
X195450Y148050D02*
D03*
X61350Y54050D02*
D03*
X149750Y109250D02*
D03*
X53000Y148050D02*
D03*
X200000D02*
D03*
Y53670D02*
D03*
X53000Y54020D02*
D03*
X144328Y109250D02*
D03*
D49*
X167250Y128950D02*
D03*
Y131050D02*
D03*
X124250Y123450D02*
D03*
Y125550D02*
D03*
D103*
X171825Y142571D02*
X171950Y142696D01*
Y142650D02*
Y142696D01*
X91550Y71790D02*
X94760Y75000D01*
X100460D01*
X168575Y130824D02*
X168700Y130700D01*
X168575Y130824D02*
Y134800D01*
X180723Y131250D02*
X181900Y132427D01*
X175750Y131250D02*
X180723D01*
X180905Y133350D02*
X182950D01*
X179655Y132100D02*
X180905Y133350D01*
X175000Y132100D02*
X179655D01*
X176404Y130296D02*
X176900Y129800D01*
X170508Y130296D02*
X176404D01*
X192400Y148050D02*
X192450Y148100D01*
X195400D01*
X166000Y95700D02*
X167800D01*
X160000Y89700D02*
X166000Y95700D01*
X159150Y90300D02*
Y101130D01*
X161020Y103000D01*
X158350Y91000D02*
Y102870D01*
X157550Y91700D02*
Y101290D01*
X156770Y92700D02*
Y99630D01*
X154625Y91625D02*
X155000Y91250D01*
X153650Y100925D02*
X155700Y98875D01*
Y92100D02*
Y98875D01*
X154625Y91625D02*
Y98960D01*
X169650Y96950D02*
Y98900D01*
X167800Y96950D02*
X169650D01*
X69250Y108400D02*
X87750Y126900D01*
X106950Y78370D02*
Y84140D01*
X104090Y87000D02*
X106950Y84140D01*
X75800Y87000D02*
X104090D01*
X106950Y78370D02*
X110020Y75300D01*
X171846Y73900D02*
X172375Y73371D01*
X160450Y146250D02*
X161100Y146900D01*
X144390Y146250D02*
X160450D01*
X143140Y144400D02*
Y145000D01*
X144390Y146250D01*
X141500Y145250D02*
X142350Y144400D01*
X141500Y145250D02*
Y145300D01*
X142350Y144400D02*
X143140D01*
X161347Y145597D02*
X162000Y146250D01*
X144597Y145597D02*
X161347D01*
X144000Y143350D02*
Y145000D01*
X144597Y145597D01*
X143750Y143100D02*
X144000Y143350D01*
X143140Y143100D02*
X143750D01*
X142850D02*
X143140D01*
X140500Y143400D02*
Y144129D01*
Y143400D02*
X141150Y142750D01*
X142500D02*
X142850Y143100D01*
X141150Y142750D02*
X142500D01*
X169865Y133852D02*
Y134790D01*
X169875Y134800D01*
X170756Y130896D02*
X175396D01*
X169846Y131807D02*
X170756Y130896D01*
X175396D02*
X175750Y131250D01*
X169846Y133832D02*
X169865Y133852D01*
X169846Y131807D02*
Y133832D01*
X89010Y129190D02*
X90300Y127900D01*
X89010Y129190D02*
Y130250D01*
X173073Y132100D02*
X175000D01*
X172646Y131673D02*
X173073Y132100D01*
X170828Y131673D02*
X172646D01*
X170525Y133391D02*
Y134800D01*
X170446Y132055D02*
X170828Y131673D01*
X170446Y132055D02*
Y133312D01*
X170525Y133391D01*
X156500Y62251D02*
Y64250D01*
X153349Y59100D02*
X156500Y62251D01*
X123400Y59100D02*
X153349D01*
X134168Y127032D02*
X142300Y118900D01*
X143300D01*
X144200Y118000D01*
Y117000D02*
Y118000D01*
X141900Y114700D02*
X144200Y117000D01*
X141414Y118817D02*
X142281Y117950D01*
X142850D01*
X133200Y125800D02*
X142000Y117000D01*
X142300D01*
X141950Y115950D02*
X142050D01*
X167750Y132700D02*
X167925Y132875D01*
X169225Y134800D02*
X169225Y134800D01*
X169225Y131579D02*
Y134800D01*
X168575Y134800D02*
X168575Y134800D01*
X171175Y133024D02*
Y134800D01*
Y133024D02*
X171200Y133000D01*
X167925Y140800D02*
X167925Y140800D01*
X171825D02*
Y142571D01*
X167925Y142500D02*
Y143508D01*
X166200Y133000D02*
Y133108D01*
X174200Y134800D02*
X174200Y134800D01*
X172039Y132489D02*
X172100Y132427D01*
X172475Y140800D02*
Y142100D01*
X169875Y142500D02*
Y143500D01*
X174696Y135000D02*
X174750D01*
X171835Y133431D02*
Y134790D01*
X172475Y142100D02*
X172475Y142100D01*
X170525Y140800D02*
X170535Y140810D01*
X174200Y134800D02*
X174496D01*
X172039Y132489D02*
Y133227D01*
X172475Y142100D02*
X173250Y142875D01*
X166625Y133533D02*
Y134800D01*
X173125Y140773D02*
Y140800D01*
X173250Y142875D02*
X173750D01*
X169875Y140800D02*
Y142500D01*
X164250Y134750D02*
X165952D01*
X167265Y140810D02*
X167275Y140800D01*
X173125Y134800D02*
X174200D01*
X171825Y142571D02*
X171825Y142571D01*
X168575Y140800D02*
X168585Y140810D01*
X167925Y132875D02*
Y134800D01*
X174496Y134800D02*
X174696Y135000D01*
X171825Y134800D02*
X171835Y134790D01*
Y133431D02*
X172039Y133227D01*
X173125Y140773D02*
X173148Y140750D01*
X166200Y133108D02*
X166625Y133533D01*
X169225Y131579D02*
X170508Y130296D01*
X167925Y140800D02*
Y142500D01*
X54750Y70490D02*
X55990Y69250D01*
X52000Y70700D02*
X53450Y69250D01*
X52000Y72750D02*
X52923Y73673D01*
X54750Y70490D02*
Y70500D01*
X53450Y71790D02*
Y73250D01*
X53723Y73523D01*
X52000Y70700D02*
Y72750D01*
X54500Y73250D02*
Y101000D01*
X53723Y73523D02*
Y101322D01*
X52923Y73673D02*
Y101653D01*
X54500Y101000D02*
X57500Y104000D01*
X53723Y101322D02*
X57401Y105000D01*
X52923Y101653D02*
X57385Y106115D01*
X53890Y116460D02*
X53900Y116450D01*
X52610Y116460D02*
X53890D01*
X134350Y68025D02*
X135450Y66925D01*
X52600Y116470D02*
X52610Y116460D01*
X54000Y117911D02*
Y119040D01*
X53616Y119424D02*
X54000Y119040D01*
X53496Y119424D02*
X53616D01*
X53150Y119770D02*
X53496Y119424D01*
X52600Y119770D02*
X53150D01*
X55446Y111554D02*
Y116465D01*
Y111554D02*
X57200Y109800D01*
X54000Y117911D02*
X55446Y116465D01*
X56046Y111834D02*
Y116714D01*
X54750Y118010D02*
X56046Y116714D01*
X54750Y118010D02*
Y119500D01*
X56046Y111834D02*
X57380Y110500D01*
X58350Y125350D02*
X65650D01*
X52400Y128700D02*
X53500D01*
X51800Y129300D02*
X52400Y128700D01*
X51800Y129300D02*
Y132300D01*
X53500Y128700D02*
X57450Y124750D01*
X65401D01*
X56801Y124150D02*
X65153D01*
X53300Y127651D02*
X56801Y124150D01*
X53450Y130250D02*
X58350Y125350D01*
X51800Y132300D02*
X52290Y132790D01*
X53450D01*
X132750Y125150D02*
X141950Y115950D01*
X127350Y125150D02*
X132750D01*
X125525Y126975D02*
Y130500D01*
Y126975D02*
X127350Y125150D01*
X94400Y116200D02*
X96000Y117800D01*
X92150Y116200D02*
X94400D01*
X91996Y116046D02*
X92150Y116200D01*
X91046Y116046D02*
X91996D01*
X90800Y115800D02*
X91046Y116046D01*
X127600Y125800D02*
X133200D01*
X126175Y127225D02*
Y130500D01*
Y127225D02*
X127600Y125800D01*
X93400Y116800D02*
X95750Y119150D01*
X90800Y116800D02*
X93400D01*
X134750Y125330D02*
X141414Y118817D01*
X127375Y126900D02*
X127843Y126432D01*
X133648D02*
X134750Y125330D01*
X127843Y126432D02*
X133648D01*
X92500Y117400D02*
X95550Y120450D01*
X91046Y117554D02*
X91996D01*
X92150Y117400D02*
X92500D01*
X91996Y117554D02*
X92150Y117400D01*
X90800Y117800D02*
X91046Y117554D01*
X65401Y124750D02*
X67251Y122900D01*
X65153Y124150D02*
X67157Y122146D01*
X72996D01*
X73000Y122150D01*
X67251Y122900D02*
X72200D01*
X65650Y125350D02*
X67300Y123700D01*
X71400D01*
X81745Y119240D02*
X92000Y108985D01*
X81650Y119240D02*
X81745D01*
X88750Y116250D02*
X95500Y109500D01*
X88750Y116250D02*
Y127620D01*
X97500Y113493D02*
Y129380D01*
X98300Y114107D02*
Y129380D01*
X92000Y107400D02*
Y108985D01*
X115620Y100950D02*
X115855Y101185D01*
X114850Y101200D02*
X115224D01*
X115295Y101270D01*
X115770D01*
X113400Y101400D02*
X116000Y104000D01*
Y104040D01*
X93547Y79518D02*
X93630Y79434D01*
X85735Y79518D02*
X93547D01*
X113400Y101250D02*
Y101400D01*
X113200Y101050D02*
X113400Y101250D01*
X113200Y101050D02*
X113200Y101050D01*
X112100Y99950D02*
X113200Y101050D01*
X112100Y88700D02*
Y99950D01*
X112750Y99100D02*
X114850Y101200D01*
X112750Y88501D02*
Y99100D01*
X176750Y73225D02*
X177750D01*
X176275Y72750D02*
X176750Y73225D01*
X176275Y71250D02*
Y72750D01*
X82750Y131610D02*
X83930Y132790D01*
X82750Y123599D02*
Y131610D01*
X72101Y112949D02*
X82750Y123599D01*
X72101Y112949D02*
X72101D01*
X71820Y112669D02*
X72101Y112949D01*
X70833Y112669D02*
X71820D01*
X70833Y112451D02*
Y112669D01*
X68181Y109800D02*
X70833Y112451D01*
X57200Y109800D02*
X68181D01*
X176125Y74000D02*
X176925D01*
X175625Y73500D02*
X176125Y74000D01*
X175625Y71250D02*
Y73500D01*
X85250Y131570D02*
X86470Y132790D01*
X85250Y125250D02*
Y131570D01*
X71675Y111675D02*
X85250Y125250D01*
X54000Y112000D02*
Y114750D01*
X52600Y115370D02*
X52800Y115170D01*
X53580D02*
X54000Y114750D01*
X52800Y115170D02*
X53580D01*
X71447Y111675D02*
X71675D01*
X71441Y111669D02*
X71447Y111675D01*
X71181Y111669D02*
X71441D01*
X54000Y112000D02*
X56900Y109100D01*
X68613D02*
X71181Y111669D01*
X56900Y109100D02*
X68613D01*
X178700Y71250D02*
Y73800D01*
X177610Y74890D02*
X178700Y73800D01*
X176925Y71250D02*
X178700D01*
X176169Y74890D02*
X177610D01*
X87750Y131530D02*
X89010Y132790D01*
X87750Y126900D02*
Y131530D01*
X51320Y117570D02*
X52600D01*
X51000Y112380D02*
Y117250D01*
X51320Y117570D01*
X51000Y112380D02*
X54980Y108400D01*
X69250D01*
X173025Y71250D02*
Y74367D01*
X172700Y74692D02*
X173025Y74367D01*
X172700Y74692D02*
Y74800D01*
X172375Y71250D02*
Y73371D01*
X171846Y73900D02*
X171900D01*
X159700Y66300D02*
Y67325D01*
X142925Y67925D02*
X159100D01*
X159700Y67325D01*
X142350Y67350D02*
X142925Y67925D01*
X140950Y67350D02*
X142350D01*
X158475Y67325D02*
X158700Y67100D01*
X143175Y67325D02*
X158475D01*
X142550Y66700D02*
X143175Y67325D01*
X140950Y66700D02*
X142550D01*
X59625Y128500D02*
X60825Y127300D01*
X57740Y128500D02*
X59625D01*
X60825Y127300D02*
X60950D01*
X55990Y130250D02*
X57740Y128500D01*
X124217Y136508D02*
Y138083D01*
X125500Y136525D02*
Y138300D01*
X108210Y83961D02*
X112750Y88501D01*
X108875Y79750D02*
X111450D01*
X108210Y80415D02*
X108875Y79750D01*
X108210Y80415D02*
Y83961D01*
X94332Y80168D02*
X94500Y80000D01*
X85735Y80168D02*
X94332D01*
X98300Y114107D02*
X101054Y111354D01*
X98300Y129380D02*
X99170Y130250D01*
X107560Y84160D02*
X112100Y88700D01*
X111345Y77605D02*
X111450Y77500D01*
X109395Y77605D02*
X111345D01*
X107560Y79440D02*
X109395Y77605D01*
X107560Y79440D02*
Y84160D01*
X93596Y79400D02*
X93630Y79434D01*
X93500Y79400D02*
X93596D01*
X97500Y113493D02*
X99700Y111293D01*
Y111250D02*
Y111293D01*
X96630Y130250D02*
X97500Y129380D01*
X97635Y106115D02*
X106280Y114760D01*
X98166Y105515D02*
X107080Y114429D01*
X98650Y104900D02*
X107857Y114107D01*
X57385Y106115D02*
X97635D01*
X106280Y114760D02*
Y125680D01*
X57916Y105515D02*
X98166D01*
X107080Y114429D02*
Y125255D01*
X58400Y104900D02*
X98650D01*
X107857Y114107D02*
Y124757D01*
X166996Y131304D02*
X167050Y131250D01*
X71230Y130250D02*
X72500Y131520D01*
Y135501D01*
X81149Y144150D01*
X84149D01*
X86149Y146150D01*
X111251D01*
X113500Y143901D01*
Y143100D02*
Y143901D01*
X119600Y143200D02*
Y146150D01*
X68500Y135250D02*
X68550Y135200D01*
X71350D01*
X80900Y144750D01*
X83900D01*
X85900Y146750D01*
X111500D01*
X114350Y143900D01*
X113700Y148900D02*
X116850D01*
X119600Y146150D01*
X77500Y139400D02*
X81424Y143324D01*
X77500Y131600D02*
Y139400D01*
X81424Y143324D02*
X88326D01*
X138600Y128850D02*
X141725Y125725D01*
X138600Y128850D02*
Y129600D01*
X141725Y125725D02*
X145200D01*
X124225Y128475D02*
Y130500D01*
X122750Y127000D02*
X124225Y128475D01*
X123575Y128988D02*
Y130500D01*
X122364Y127777D02*
X123575Y128988D01*
X122925Y129225D02*
Y130500D01*
X122277Y128577D02*
X122925Y129225D01*
X129632Y127032D02*
X134168D01*
X124217Y136508D02*
X124225Y136500D01*
X123600Y138700D02*
X124217Y138083D01*
X125500Y136525D02*
X125525Y136500D01*
X166996Y133012D02*
X167275Y133292D01*
Y134800D01*
X171183Y140808D02*
Y143049D01*
X171175Y140800D02*
X171183Y140808D01*
X166617Y140808D02*
Y142365D01*
X70000Y112750D02*
Y113250D01*
X79146Y124000D02*
X79400D01*
X78850Y130250D02*
X80448Y128652D01*
Y123868D02*
Y128652D01*
X79380Y122800D02*
X80448Y123868D01*
X79300Y122800D02*
X79380D01*
X75000Y129150D02*
X77550Y126600D01*
X75000Y129150D02*
Y131560D01*
X77550Y126600D02*
X78730D01*
X128775Y138475D02*
X129400Y139100D01*
X128775Y136500D02*
Y138475D01*
X127475Y138275D02*
X127500Y138300D01*
X129425Y138135D02*
X130200Y138910D01*
X129425Y136500D02*
Y138135D01*
X130085Y137885D02*
X130425Y138225D01*
X130085Y136510D02*
Y137885D01*
X127475Y136500D02*
Y138275D01*
X130200Y139300D02*
X130650Y139750D01*
X130200Y138910D02*
Y139300D01*
X130650Y139750D02*
X132500D01*
X127475Y136500D02*
X127475Y136500D01*
X130425Y138225D02*
X132900D01*
X141684Y143750D02*
X143140D01*
X169194Y144189D02*
X169305Y144300D01*
X171183Y143049D02*
X171659Y143525D01*
X171700D02*
X171950Y143775D01*
X171659Y143525D02*
X171700D01*
X166275Y142707D02*
X166617Y142365D01*
Y140808D02*
X166625Y140800D01*
X166275Y142707D02*
Y143375D01*
X166025Y143625D02*
X166275Y143375D01*
X172385Y145275D02*
X172760Y145650D01*
X173171D01*
X166996Y131304D02*
Y133012D01*
X164875Y131250D02*
X167050D01*
X157500Y101340D02*
X157550Y101290D01*
X153246Y63069D02*
X154427Y64250D01*
X153246Y62188D02*
Y63069D01*
Y62188D02*
X153250Y62184D01*
Y60750D02*
Y62184D01*
X154427Y64250D02*
X155250D01*
X151250Y64500D02*
X151754Y65004D01*
X153096D01*
X150550Y63750D02*
Y65400D01*
X195400Y148100D02*
X195450Y148050D01*
X122100Y123790D02*
X122440Y123450D01*
X124250D01*
X122750Y127000D02*
X124200Y125550D01*
Y125600D02*
X124250Y125550D01*
X124200D02*
X124250D01*
X110100Y127000D02*
X122750D01*
X173675Y69450D02*
Y71250D01*
X68700Y79900D02*
X75800Y87000D01*
X59190Y79900D02*
X68700D01*
X55990Y71790D02*
Y76700D01*
Y71790D02*
X55990Y71790D01*
X55990Y76700D02*
X59190Y79900D01*
X113550Y75250D02*
X114750D01*
X59800Y129400D02*
Y131520D01*
X58530Y132790D02*
X59800Y131520D01*
Y129400D02*
X60623Y128577D01*
X66300D01*
X67777Y127100D01*
X74000D01*
X77500Y123600D01*
X78746D01*
X79146Y124000D01*
X91550Y127100D02*
Y130250D01*
X91550Y130250D02*
X91550Y130250D01*
X81390Y129045D02*
Y130250D01*
X81048Y128703D02*
X81390Y129045D01*
X81048Y123148D02*
Y128703D01*
X88500Y141850D02*
X88750D01*
X88326Y141676D02*
X88500Y141850D01*
X82476Y141676D02*
X88326D01*
X80115Y139315D02*
X82476Y141676D01*
X80115Y131250D02*
X81115Y130250D01*
X80115Y131250D02*
Y139315D01*
X81115Y130250D02*
X81390D01*
X88326Y143324D02*
X88500Y143150D01*
X88750D01*
X77500Y131600D02*
X78850Y130250D01*
X80300Y122400D02*
X81048Y123148D01*
X109602Y127777D02*
X122364D01*
X109177Y128577D02*
X122277D01*
X121400Y130500D02*
X122275D01*
X122400Y138400D02*
X122915Y137885D01*
Y136510D02*
Y137885D01*
Y136510D02*
X122925Y136500D01*
X123575D01*
X130725D02*
X132375D01*
X132850Y136975D01*
X132900D01*
X130075Y136500D02*
X130085Y136510D01*
X123600Y138700D02*
Y138700D01*
X128125Y136500D02*
X128135Y136510D01*
X126175Y136500D02*
X126185Y136510D01*
X107857Y124757D02*
X110100Y127000D01*
X107080Y125255D02*
X109602Y127777D01*
X106280Y125680D02*
X109177Y128577D01*
X123575Y130500D02*
X123575Y130500D01*
X57401Y105000D02*
X57916Y105515D01*
X57401Y105000D02*
X57401D01*
X57500Y104000D02*
X58400Y104900D01*
X73770Y132790D02*
X75000Y131560D01*
X167050Y131250D02*
X167075Y131225D01*
X167300Y131050D02*
X167700Y130650D01*
Y130600D02*
Y130650D01*
X167075Y131225D02*
X167250Y131050D01*
X164875Y130425D02*
Y131250D01*
X167250Y131050D02*
X167300D01*
X164500Y130050D02*
X164875Y130425D01*
X64900Y131500D02*
Y134050D01*
Y131500D02*
X66150Y130250D01*
X149150Y62350D02*
X150550Y63750D01*
X148350Y63050D02*
X149500Y64200D01*
X124965Y63050D02*
X148350D01*
X124746Y62350D02*
X149150D01*
X67750Y110500D02*
X70000Y112750D01*
X137230Y101390D02*
X141119D01*
X135620Y103000D02*
X137230Y101390D01*
X141119D02*
X142284Y100225D01*
X140700Y103000D02*
X142775Y100925D01*
X101750Y71519D02*
Y72745D01*
X100245Y74250D02*
X101750Y72745D01*
X96550Y74250D02*
X100245D01*
X94090Y71790D02*
X96550Y74250D01*
X103269Y70000D02*
X117096D01*
X101750Y71519D02*
X103269Y70000D01*
X117096D02*
X124746Y62350D01*
X102500Y71617D02*
Y72960D01*
X100460Y75000D02*
X102500Y72960D01*
X103367Y70750D02*
X117265D01*
X102500Y71617D02*
X103367Y70750D01*
X117265D02*
X124965Y63050D01*
X142775Y100925D02*
X153650D01*
X142284Y100225D02*
X153360D01*
X154625Y98960D01*
X153400Y103000D02*
X156770Y99630D01*
X176925Y64250D02*
Y65975D01*
X174975Y67925D02*
X176925Y65975D01*
X174975Y67925D02*
Y71250D01*
X174325D02*
X174975D01*
X97750Y65975D02*
X116525D01*
X87132Y78868D02*
X88500Y77500D01*
X85750Y77510D02*
X89010Y74250D01*
X85750Y77510D02*
Y78232D01*
X85735Y78868D02*
X87132D01*
X89010Y71790D02*
Y74250D01*
X87500Y142500D02*
X88750D01*
X97975Y142875D02*
X107500D01*
X108375Y143750D01*
X96950Y141850D02*
X97975Y142875D01*
X90750Y141850D02*
X96950D01*
X90750Y143150D02*
X96750D01*
X167250Y127025D02*
X167275Y127000D01*
X167250Y127025D02*
Y128950D01*
X165975Y143625D02*
X166025D01*
X172250Y145275D02*
X172385D01*
X172000Y145025D02*
X172250Y145275D01*
X163625Y134125D02*
X164250Y134750D01*
X163625Y131250D02*
Y134125D01*
X147000Y144997D02*
X154153D01*
X156400Y142750D01*
X145140Y143100D02*
X148500D01*
X146403Y144400D02*
X147000Y144997D01*
X145140Y144400D02*
X146403D01*
X133080Y103000D02*
Y104830D01*
X134000Y105750D01*
X136750D01*
X138160Y107160D01*
Y110520D01*
X144328Y109250D02*
Y109600D01*
X143408Y110520D02*
X144328Y109600D01*
X138160Y110520D02*
X143408D01*
X149750Y106250D02*
Y109250D01*
Y106250D02*
X151000Y105000D01*
X164100D01*
X166100Y103000D01*
X157500Y101340D02*
X157550Y101390D01*
X155940Y103000D02*
X157550Y101390D01*
X124477Y61700D02*
X150600D01*
X158350Y102870D02*
X158480Y103000D01*
X116525Y65975D02*
X123400Y59100D01*
X100920Y67500D02*
X116838D01*
X99170Y69250D02*
X100920Y67500D01*
X152900Y60400D02*
X153250Y60750D01*
X116838Y67500D02*
X123938Y60400D01*
X152900D01*
X99180Y66700D02*
X116719D01*
X96630Y69250D02*
X99180Y66700D01*
X154000Y60600D02*
Y62500D01*
X153150Y59750D02*
X154000Y60600D01*
X116719Y66700D02*
X123669Y59750D01*
X153150D01*
X100920Y71500D02*
Y72580D01*
X100000Y73500D02*
X100920Y72580D01*
X103170Y69250D02*
X116927D01*
X98340Y73500D02*
X100000D01*
X96630Y71790D02*
X98340Y73500D01*
X151250Y62350D02*
Y64500D01*
X150600Y61700D02*
X151250Y62350D01*
X116927Y69250D02*
X124477Y61700D01*
X100920Y71500D02*
X103170Y69250D01*
X152120Y62200D02*
Y64250D01*
X102460Y68500D02*
X116758D01*
X99170Y71790D02*
X102460Y68500D01*
X150970Y61050D02*
X152120Y62200D01*
X116758Y68500D02*
X124208Y61050D01*
X150970D01*
X52800Y120670D02*
X53580D01*
X52600Y120870D02*
X52800Y120670D01*
X53580D02*
X54750Y119500D01*
X57380Y110500D02*
X67750D01*
X82885Y60340D02*
X84250Y61705D01*
Y67000D01*
X85250Y68000D01*
Y73000D01*
X83500Y74750D02*
X85250Y73000D01*
X83500Y74750D02*
Y80817D01*
X84150Y81467D01*
X85735D01*
X87750Y68250D02*
Y73250D01*
X81382Y78868D02*
X81750Y78500D01*
X80035Y78868D02*
X81382D01*
X80035Y77500D02*
Y78232D01*
Y68250D02*
Y72960D01*
X82446Y79592D02*
X82500D01*
X82371Y79518D02*
X82446Y79592D01*
X80035Y79518D02*
X82371D01*
X80035Y82768D02*
X82500D01*
X80035Y81467D02*
X82500D01*
X78250Y80000D02*
X78277D01*
X78445Y80168D01*
X80035D01*
X78433Y80817D02*
X80035D01*
X78250Y81000D02*
X78433Y80817D01*
X78382Y82118D02*
X80035D01*
X85735Y83265D02*
X86470Y84000D01*
X85735Y82768D02*
Y83265D01*
X174325Y71250D02*
Y74265D01*
X176925Y62525D02*
X177500Y61950D01*
X176925Y62525D02*
Y64250D01*
X113550Y82000D02*
X114750D01*
X113550Y77500D02*
X114750D01*
X113550Y79750D02*
X114750D01*
X129250Y92516D02*
X131850D01*
X151500Y77000D02*
X151702Y77202D01*
Y80525D01*
X151695Y80518D02*
X151702Y80525D01*
X149520Y80518D02*
X151695D01*
X149520Y81467D02*
X150695D01*
X135450Y66875D02*
Y66925D01*
Y66875D02*
X135700Y66625D01*
X135750D01*
X134350Y68025D02*
Y71790D01*
X137962Y66662D02*
X138000Y66700D01*
X135788Y66662D02*
X137962D01*
X135750Y66625D02*
X135788Y66662D01*
X136750Y68000D02*
X138000D01*
X136250Y68500D02*
X136750Y68000D01*
X136500Y69740D02*
Y69750D01*
Y69740D02*
X137590Y68650D01*
X138000D01*
D104*
X180905Y67250D02*
X187000Y73345D01*
Y82400D01*
X149750Y133100D02*
X157750D01*
X141750Y135850D02*
X145000D01*
X147323Y133527D01*
X149323D01*
X149750Y133100D01*
Y119620D02*
Y133100D01*
D105*
X139000Y81200D02*
Y83250D01*
X157750Y133100D02*
X160250D01*
D106*
X145100Y81500D02*
X146000D01*
X134350Y71790D02*
Y78800D01*
X130150Y83000D02*
X134350Y78800D01*
X120500Y83000D02*
X130150D01*
X146000Y81500D02*
X147087D01*
X129400Y140322D02*
X129700Y140622D01*
X129400Y139100D02*
Y140322D01*
X169305Y144300D02*
X169700Y144695D01*
X173650Y144400D02*
X173675D01*
X173025Y143775D02*
X173650Y144400D01*
X162700Y118100D02*
X162725Y118125D01*
X164000D01*
X171700Y115800D02*
Y116820D01*
X171675Y116845D02*
X171700Y116820D01*
X123600Y138700D02*
Y140223D01*
X123200Y140622D02*
X123600Y140223D01*
X172000Y143775D02*
X173025D01*
X171950D02*
X172000D01*
X119750Y83750D02*
X120500Y83000D01*
X119750Y83750D02*
Y85960D01*
X119064Y86646D02*
X119750Y85960D01*
X115500Y86646D02*
X119064D01*
X114960Y87186D02*
X115500Y86646D01*
X114960Y87186D02*
Y88662D01*
X117500D02*
X123325D01*
X131850Y90616D02*
Y92516D01*
X129250Y90616D02*
X131850D01*
X123325Y88662D02*
X126850D01*
Y90616D01*
Y92516D02*
Y94516D01*
X134484Y92516D02*
X134500Y92500D01*
X131850Y92516D02*
X134484D01*
D107*
X127250Y140000D02*
Y147790D01*
X125750Y140100D02*
Y146250D01*
X128460Y139460D02*
Y146460D01*
X124500Y139150D02*
Y144960D01*
X167194Y144040D02*
Y145631D01*
X164990Y147835D02*
X167194Y145631D01*
X164990Y147835D02*
Y149050D01*
X169700Y147325D02*
X170070Y147695D01*
X169700Y144695D02*
Y147325D01*
X168205Y144495D02*
X168400Y144300D01*
X168205Y144495D02*
Y147075D01*
X170070Y147695D02*
Y149050D01*
X167530Y147750D02*
Y149050D01*
Y147750D02*
X168205Y147075D01*
X170845Y145970D02*
X172610Y147735D01*
X170845Y144040D02*
Y145970D01*
X121800Y141100D02*
X122027Y140872D01*
X122950D01*
X123000Y140822D01*
X129950Y140872D02*
X130973D01*
X129900Y140822D02*
X129950Y140872D01*
X172610Y147735D02*
Y149050D01*
D108*
X144739Y80300D02*
X145500D01*
X144539Y80500D02*
X144739Y80300D01*
X143420Y80500D02*
X144539D01*
X120460Y149000D02*
X124500Y144960D01*
X128460Y146460D02*
X131000Y149000D01*
X123000D02*
X125750Y146250D01*
X127250Y147790D02*
X128460Y149000D01*
D109*
X143345Y80575D02*
X143420Y80500D01*
X143345Y77500D02*
Y80575D01*
X180500Y143150D02*
Y149000D01*
D110*
X139425Y140975D02*
Y140975D01*
Y140975D02*
X141550Y138850D01*
Y136050D02*
Y138850D01*
Y136050D02*
X141750Y135850D01*
X111450Y138425D02*
X113350D01*
X113550Y138625D01*
Y138650D01*
D111*
X143345Y74000D02*
Y77500D01*
Y71500D02*
Y74000D01*
Y71500D02*
X144845Y70000D01*
X147250D01*
D112*
X148750Y84750D02*
X150110D01*
X147087Y81500D02*
X147120Y81467D01*
D113*
X117500Y88662D02*
D03*
X137040Y92500D02*
D03*
X116000Y101500D02*
D03*
Y104040D02*
D03*
Y106580D02*
D03*
Y109120D02*
D03*
Y111660D02*
D03*
X123150Y111700D02*
D03*
X66150Y148900D02*
D03*
X166100Y103000D02*
D03*
X163560D02*
D03*
X161020D02*
D03*
X158480D02*
D03*
X155940D02*
D03*
X153400D02*
D03*
X150860D02*
D03*
X148320D02*
D03*
X145780D02*
D03*
X143240D02*
D03*
X140700D02*
D03*
X138160D02*
D03*
X135620D02*
D03*
X133080D02*
D03*
X130540D02*
D03*
X163050Y55790D02*
D03*
X165590Y53250D02*
D03*
Y55790D02*
D03*
X168130Y53250D02*
D03*
Y55790D02*
D03*
X170670Y53250D02*
D03*
Y55790D02*
D03*
X173210Y53250D02*
D03*
Y55790D02*
D03*
X175750Y53250D02*
D03*
Y55790D02*
D03*
X178290Y53250D02*
D03*
Y55790D02*
D03*
X180830Y53250D02*
D03*
Y55790D02*
D03*
X185910D02*
D03*
Y53250D02*
D03*
X183370Y55790D02*
D03*
Y53250D02*
D03*
X170070Y149050D02*
D03*
X167530D02*
D03*
X164990D02*
D03*
X177960Y149000D02*
D03*
X180500D02*
D03*
X196460Y127620D02*
D03*
X199000D02*
D03*
X196460Y125080D02*
D03*
X199000D02*
D03*
X196460Y122540D02*
D03*
X199000D02*
D03*
X196460Y120000D02*
D03*
X199000D02*
D03*
X196460Y117460D02*
D03*
X199000D02*
D03*
X196460Y114920D02*
D03*
X199000D02*
D03*
X196460Y112380D02*
D03*
X199000D02*
D03*
X196460Y109840D02*
D03*
Y78340D02*
D03*
X199000Y80880D02*
D03*
X196460D02*
D03*
X199000Y83420D02*
D03*
X196460D02*
D03*
X199000Y85960D02*
D03*
X196460D02*
D03*
X199000Y88500D02*
D03*
X196460D02*
D03*
X199000Y91040D02*
D03*
X196460D02*
D03*
X199000Y93580D02*
D03*
X196460D02*
D03*
X199000Y96120D02*
D03*
X196460D02*
D03*
X139590Y55660D02*
D03*
X142130Y53120D02*
D03*
Y55660D02*
D03*
X144670Y53120D02*
D03*
Y55660D02*
D03*
X147210Y53120D02*
D03*
Y55660D02*
D03*
X149750Y53120D02*
D03*
Y55660D02*
D03*
X152290Y53120D02*
D03*
Y55660D02*
D03*
X154830Y53120D02*
D03*
Y55660D02*
D03*
X157370Y53120D02*
D03*
Y55660D02*
D03*
X158070Y148900D02*
D03*
X150610D02*
D03*
X92021Y149000D02*
D03*
X94561D02*
D03*
X104000D02*
D03*
X106540D02*
D03*
X183900Y121750D02*
D03*
Y119210D02*
D03*
Y116670D02*
D03*
X81330Y149050D02*
D03*
X78790D02*
D03*
X76250D02*
D03*
X123000Y149000D02*
D03*
X128460D02*
D03*
D114*
X114960Y88662D02*
D03*
X134500Y92500D02*
D03*
X125690Y111700D02*
D03*
X63610Y148900D02*
D03*
X128000Y103000D02*
D03*
X163050Y53250D02*
D03*
X172610Y149050D02*
D03*
X183040Y149000D02*
D03*
X139590Y53120D02*
D03*
X155530Y148900D02*
D03*
X148070D02*
D03*
X89481Y149000D02*
D03*
X101460D02*
D03*
X73710Y149050D02*
D03*
X120460Y149000D02*
D03*
X131000D02*
D03*
D115*
X116000Y98960D02*
D03*
X199000Y109840D02*
D03*
Y78340D02*
D03*
X183900Y114130D02*
D03*
D116*
X197500Y103000D02*
D03*
Y71500D02*
D03*
X122500D02*
D03*
Y103000D02*
D03*
D117*
X84500Y120750D02*
D03*
D118*
X85750Y93750D02*
D03*
X83250D02*
D03*
D119*
X88425Y60340D02*
D03*
D120*
X77345D02*
D03*
X80115D02*
D03*
X82885D02*
D03*
X85655D02*
D03*
X78730Y57500D02*
D03*
X81500D02*
D03*
X84270D02*
D03*
X87040D02*
D03*
D121*
X116500Y53670D02*
D03*
X120000D02*
D03*
D122*
X105500Y60020D02*
D03*
Y54020D02*
D03*
D123*
X110000Y57020D02*
D03*
D124*
X138160Y110520D02*
D03*
X140700Y107980D02*
D03*
X135620D02*
D03*
D125*
X158950Y125750D02*
D03*
X118300Y125000D02*
D03*
D126*
X161550Y125750D02*
D03*
X115700Y125000D02*
D03*
D127*
X76310Y71790D02*
D03*
X73770D02*
D03*
X76310Y69250D02*
D03*
X73770D02*
D03*
X71230Y71790D02*
D03*
Y69250D02*
D03*
X55990D02*
D03*
X58530D02*
D03*
X61070D02*
D03*
X63610D02*
D03*
X66150D02*
D03*
X68690D02*
D03*
X53450Y71790D02*
D03*
X55990D02*
D03*
X58530D02*
D03*
X61070D02*
D03*
X63610D02*
D03*
X66150D02*
D03*
X68690D02*
D03*
X91550D02*
D03*
X89010D02*
D03*
X86470D02*
D03*
X83930D02*
D03*
X81390D02*
D03*
X78850D02*
D03*
X91550Y69250D02*
D03*
X89010D02*
D03*
X86470D02*
D03*
X83930D02*
D03*
X81390D02*
D03*
X78850D02*
D03*
X94090D02*
D03*
Y71790D02*
D03*
X96630Y69250D02*
D03*
X99170D02*
D03*
X96630Y71790D02*
D03*
X99170D02*
D03*
X99170Y132790D02*
D03*
X96630D02*
D03*
X99170Y130250D02*
D03*
X96630D02*
D03*
X94090Y132790D02*
D03*
Y130250D02*
D03*
X78850D02*
D03*
X81390D02*
D03*
X83930D02*
D03*
X86470D02*
D03*
X89010D02*
D03*
X91550D02*
D03*
X78850Y132790D02*
D03*
X81390D02*
D03*
X83930D02*
D03*
X86470D02*
D03*
X89010D02*
D03*
X91550D02*
D03*
X68690D02*
D03*
X66150D02*
D03*
X63610D02*
D03*
X61070D02*
D03*
X58530D02*
D03*
X55990D02*
D03*
X53450D02*
D03*
X68690Y130250D02*
D03*
X66150D02*
D03*
X63610D02*
D03*
X61070D02*
D03*
X58530D02*
D03*
X55990D02*
D03*
X71230D02*
D03*
Y132790D02*
D03*
X73770Y130250D02*
D03*
X76310D02*
D03*
X73770Y132790D02*
D03*
X76310D02*
D03*
D128*
X53450Y69250D02*
D03*
X53450Y130250D02*
D03*
D129*
X192840Y139300D02*
D03*
Y62700D02*
D03*
X60160D02*
D03*
Y139300D02*
D03*
D130*
X123750Y132950D02*
D03*
Y134050D02*
D03*
X124850Y132950D02*
D03*
Y134050D02*
D03*
X125950Y132950D02*
D03*
Y134050D02*
D03*
X127050Y132950D02*
D03*
Y134050D02*
D03*
X128150D02*
D03*
X129250D02*
D03*
X128150Y132950D02*
D03*
X129250D02*
D03*
X171950Y142650D02*
D03*
X176900Y129800D02*
D03*
X192400Y148050D02*
D03*
X159150Y90300D02*
D03*
X158350Y91000D02*
D03*
X157550Y91700D02*
D03*
X156770Y92700D02*
D03*
X155000Y91250D02*
D03*
X155700Y92100D02*
D03*
X161100Y146900D02*
D03*
X141500Y145300D02*
D03*
X162000Y146250D02*
D03*
X140500Y144129D02*
D03*
X175750Y131250D02*
D03*
X90300Y127900D02*
D03*
X175000Y132100D02*
D03*
X181900Y132427D02*
D03*
X182950Y133350D02*
D03*
X142850Y117950D02*
D03*
X142300Y117000D02*
D03*
X142050Y115950D02*
D03*
X168700Y130700D02*
D03*
X167750Y132700D02*
D03*
X174750Y135000D02*
D03*
X164250Y134750D02*
D03*
X172100Y132427D02*
D03*
X171200Y133000D02*
D03*
X173750Y142875D02*
D03*
X174975Y140773D02*
D03*
X166200Y133000D02*
D03*
X145100Y81500D02*
D03*
X53900Y116450D02*
D03*
X53100Y126100D02*
D03*
X53300Y127651D02*
D03*
X96000Y117800D02*
D03*
X90800Y115800D02*
D03*
X95750Y119150D02*
D03*
X90800Y116800D02*
D03*
X95550Y120450D02*
D03*
X90800Y117800D02*
D03*
X73000Y122150D02*
D03*
X71400Y123700D02*
D03*
X72200Y122900D02*
D03*
X81650Y119240D02*
D03*
X92000Y107400D02*
D03*
X113400Y101400D02*
D03*
X177750Y73225D02*
D03*
X70833Y112669D02*
D03*
X176925Y74000D02*
D03*
X71181Y111669D02*
D03*
X178700Y71250D02*
D03*
X176169Y74890D02*
D03*
X71900Y110900D02*
D03*
X172700Y74800D02*
D03*
X171900Y73900D02*
D03*
X88750Y127620D02*
D03*
X95500Y109500D02*
D03*
X159700Y66300D02*
D03*
X158700Y67100D02*
D03*
X60950Y127300D02*
D03*
X126900Y123400D02*
D03*
X132000Y123650D02*
D03*
X108875Y79750D02*
D03*
X94500Y80000D02*
D03*
X101054Y111354D02*
D03*
X109395Y77605D02*
D03*
X93500Y79400D02*
D03*
X99700Y111250D02*
D03*
X141900Y114700D02*
D03*
X113500Y143100D02*
D03*
X119600Y143200D02*
D03*
X68500Y135250D02*
D03*
X114350Y143900D02*
D03*
X138600Y129600D02*
D03*
X128125Y128577D02*
D03*
X128856Y127800D02*
D03*
X130900Y128400D02*
D03*
X145200Y125725D02*
D03*
X172300Y138350D02*
D03*
Y137250D02*
D03*
X171200Y138350D02*
D03*
Y137250D02*
D03*
X170100Y138350D02*
D03*
Y137250D02*
D03*
X169000Y138350D02*
D03*
Y137250D02*
D03*
X167900Y138350D02*
D03*
Y137250D02*
D03*
X166800Y138350D02*
D03*
Y137250D02*
D03*
X145500Y80300D02*
D03*
X146000Y81500D02*
D03*
X70000Y113250D02*
D03*
X79400Y124000D02*
D03*
X79300Y122800D02*
D03*
X78600Y125550D02*
D03*
X78730Y126600D02*
D03*
X129700Y128400D02*
D03*
X141684Y143750D02*
D03*
X173675Y144400D02*
D03*
X173171Y145650D02*
D03*
X169800Y121700D02*
D03*
X169300Y114700D02*
D03*
X160000Y89700D02*
D03*
X153096Y65004D02*
D03*
X150550Y65400D02*
D03*
X122100Y123790D02*
D03*
X122750Y127000D02*
D03*
X162700Y118100D02*
D03*
X171150Y95700D02*
D03*
X171700Y124100D02*
D03*
Y115800D02*
D03*
X153800Y136200D02*
D03*
X69600Y63050D02*
D03*
X147210Y63900D02*
D03*
X169100Y64200D02*
D03*
X76700Y85800D02*
D03*
X69500Y78600D02*
D03*
X110020Y75300D02*
D03*
X114750Y75250D02*
D03*
X102500Y63300D02*
D03*
X134900Y67500D02*
D03*
X91550Y127100D02*
D03*
X80300Y122400D02*
D03*
X78300Y124400D02*
D03*
X121400Y130500D02*
D03*
X122400Y138400D02*
D03*
X121800Y141100D02*
D03*
X131100Y141000D02*
D03*
X139425Y140975D02*
D03*
X168525Y115750D02*
D03*
X164500Y130050D02*
D03*
X149500Y64200D02*
D03*
Y62700D02*
D03*
X91000Y83043D02*
D03*
X180905Y67250D02*
D03*
X97750Y65975D02*
D03*
Y64750D02*
D03*
X111450Y138425D02*
D03*
X88500Y77500D02*
D03*
X87500Y142500D02*
D03*
X108375Y143750D02*
D03*
X96750Y143150D02*
D03*
X96000Y144129D02*
D03*
X102750Y143750D02*
D03*
X109340Y83043D02*
D03*
X159320Y144129D02*
D03*
X156400Y142750D02*
D03*
X153000Y144000D02*
D03*
X148500Y143100D02*
D03*
X169875Y127620D02*
D03*
X160250Y133100D02*
D03*
X149750Y119620D02*
D03*
X164750Y143250D02*
D03*
X175250Y113250D02*
D03*
Y123000D02*
D03*
X156500Y64250D02*
D03*
X155250D02*
D03*
X154000Y62500D02*
D03*
X152120Y64250D02*
D03*
X82500Y79592D02*
D03*
Y82768D02*
D03*
Y81467D02*
D03*
X78250Y80000D02*
D03*
Y81000D02*
D03*
Y82250D02*
D03*
X86470Y84000D02*
D03*
X177500Y61950D02*
D03*
X158500Y63000D02*
D03*
X114750Y82000D02*
D03*
Y77500D02*
D03*
Y79750D02*
D03*
X151702Y80525D02*
D03*
X143000Y87750D02*
D03*
X150695Y81467D02*
D03*
X148750Y84750D02*
D03*
X147250Y70000D02*
D03*
X136250Y68500D02*
D03*
X136500Y69750D02*
D03*
D131*
X92850Y74890D02*
D03*
D132*
X187000Y82400D02*
D03*
X139000Y81200D02*
D03*
D133*
X167925Y143508D02*
D03*
X169875Y143500D02*
D03*
X167925Y142500D02*
D03*
X169875D02*
D03*
X127500Y139000D02*
D03*
Y138300D02*
D03*
D134*
X125500Y138300D02*
D03*
X125525Y139000D02*
D03*
M02*
