G04*
G04 #@! TF.GenerationSoftware,Altium Limited,Altium Designer,19.0.10 (269)*
G04*
G04 Layer_Color=2752767*
%FSLAX43Y43*%
%MOMM*%
G71*
G01*
G75*
%ADD168C,0.051*%
%ADD169C,0.068*%
%ADD170C,0.034*%
D168*
X117297Y88459D02*
Y88865D01*
X117703D01*
Y88459D01*
X117297D01*
X114757D02*
Y88865D01*
X115163D01*
Y88459D01*
X114757D01*
X136837Y92297D02*
Y92703D01*
X137243D01*
Y92297D01*
X136837D01*
X134297D02*
Y92703D01*
X134703D01*
Y92297D01*
X134297D01*
X115797Y98757D02*
Y99163D01*
X116203D01*
Y98757D01*
X115797D01*
Y101297D02*
Y101703D01*
X116203D01*
Y101297D01*
X115797D01*
Y103837D02*
Y104243D01*
X116203D01*
Y103837D01*
X115797D01*
Y106377D02*
Y106783D01*
X116203D01*
Y106377D01*
X115797D01*
Y108917D02*
Y109323D01*
X116203D01*
Y108917D01*
X115797D01*
Y111457D02*
Y111863D01*
X116203D01*
Y111457D01*
X115797D01*
X125487Y111497D02*
Y111903D01*
X125893D01*
Y111497D01*
X125487D01*
X122947D02*
Y111903D01*
X123353D01*
Y111497D01*
X122947D01*
X65947Y148697D02*
Y149103D01*
X66353D01*
Y148697D01*
X65947D01*
X63407D02*
Y149103D01*
X63813D01*
Y148697D01*
X63407D01*
X165897Y102797D02*
Y103203D01*
X166303D01*
Y102797D01*
X165897D01*
X163357D02*
Y103203D01*
X163763D01*
Y102797D01*
X163357D01*
X160817D02*
Y103203D01*
X161223D01*
Y102797D01*
X160817D01*
X158277D02*
Y103203D01*
X158683D01*
Y102797D01*
X158277D01*
X155737D02*
Y103203D01*
X156143D01*
Y102797D01*
X155737D01*
X153197D02*
Y103203D01*
X153603D01*
Y102797D01*
X153197D01*
X150657D02*
Y103203D01*
X151063D01*
Y102797D01*
X150657D01*
X148117D02*
Y103203D01*
X148523D01*
Y102797D01*
X148117D01*
X145577D02*
Y103203D01*
X145983D01*
Y102797D01*
X145577D01*
X143037D02*
Y103203D01*
X143443D01*
Y102797D01*
X143037D01*
X140497D02*
Y103203D01*
X140903D01*
Y102797D01*
X140497D01*
X137957D02*
Y103203D01*
X138363D01*
Y102797D01*
X137957D01*
X135417D02*
Y103203D01*
X135823D01*
Y102797D01*
X135417D01*
X132877D02*
Y103203D01*
X133283D01*
Y102797D01*
X132877D01*
X130337D02*
Y103203D01*
X130743D01*
Y102797D01*
X130337D01*
X127797D02*
Y103203D01*
X128203D01*
Y102797D01*
X127797D01*
X84500Y120547D02*
X84297Y120953D01*
X84703D01*
X84500Y120547D01*
X85750Y93547D02*
X85547Y93953D01*
X85953D01*
X85750Y93547D01*
X83250D02*
X83047Y93953D01*
X83453D01*
X83250Y93547D01*
X95405Y58717D02*
X95507Y58818D01*
X95608D01*
X95507Y58920D01*
X95608Y59022D01*
X95507D01*
X95405Y59123D01*
X95303Y59022D01*
X95202D01*
X95303Y58920D01*
X95202Y58818D01*
X95303D01*
X95405Y58717D01*
X70365D02*
X70467Y58818D01*
X70568D01*
X70467Y58920D01*
X70568Y59022D01*
X70467D01*
X70365Y59123D01*
X70263Y59022D01*
X70162D01*
X70263Y58920D01*
X70162Y58818D01*
X70263D01*
X70365Y58717D01*
X88222Y60137D02*
X88323Y60340D01*
X88222Y60543D01*
X88425Y60442D01*
X88628Y60543D01*
X88527Y60340D01*
X88628Y60137D01*
X88425Y60238D01*
X88222Y60137D01*
X77142D02*
X77243Y60340D01*
X77142Y60543D01*
X77345Y60442D01*
X77548Y60543D01*
X77447Y60340D01*
X77548Y60137D01*
X77345Y60238D01*
X77142Y60137D01*
X79912D02*
X80013Y60340D01*
X79912Y60543D01*
X80115Y60442D01*
X80318Y60543D01*
X80217Y60340D01*
X80318Y60137D01*
X80115Y60238D01*
X79912Y60137D01*
X82682D02*
X82783Y60340D01*
X82682Y60543D01*
X82885Y60442D01*
X83088Y60543D01*
X82987Y60340D01*
X83088Y60137D01*
X82885Y60238D01*
X82682Y60137D01*
X85452D02*
X85553Y60340D01*
X85452Y60543D01*
X85655Y60442D01*
X85858Y60543D01*
X85757Y60340D01*
X85858Y60137D01*
X85655Y60238D01*
X85452Y60137D01*
X78527Y57297D02*
X78628Y57500D01*
X78527Y57703D01*
X78730Y57602D01*
X78933Y57703D01*
X78832Y57500D01*
X78933Y57297D01*
X78730Y57398D01*
X78527Y57297D01*
X81297D02*
X81398Y57500D01*
X81297Y57703D01*
X81500Y57602D01*
X81703Y57703D01*
X81602Y57500D01*
X81703Y57297D01*
X81500Y57398D01*
X81297Y57297D01*
X84067D02*
X84168Y57500D01*
X84067Y57703D01*
X84270Y57602D01*
X84473Y57703D01*
X84372Y57500D01*
X84473Y57297D01*
X84270Y57398D01*
X84067Y57297D01*
X86837D02*
X86938Y57500D01*
X86837Y57703D01*
X87040Y57602D01*
X87243Y57703D01*
X87142Y57500D01*
X87243Y57297D01*
X87040Y57398D01*
X86837Y57297D01*
X116398Y53568D02*
Y53467D01*
X116602D01*
Y53568D01*
X116703D01*
Y53772D01*
X116602D01*
Y53873D01*
X116398D01*
Y53772D01*
X116297D01*
Y53568D01*
X116398D01*
X119898D02*
Y53467D01*
X120102D01*
Y53568D01*
X120203D01*
Y53772D01*
X120102D01*
Y53873D01*
X119898D01*
Y53772D01*
X119797D01*
Y53568D01*
X119898D01*
X105297Y59817D02*
X105398D01*
X105500Y59918D01*
X105602Y59817D01*
X105703D01*
Y59918D01*
X105602Y60020D01*
X105703Y60122D01*
Y60223D01*
X105602D01*
X105500Y60122D01*
X105398Y60223D01*
X105297D01*
Y60122D01*
X105398Y60020D01*
X105297Y59918D01*
Y59817D01*
Y53817D02*
X105398D01*
X105500Y53918D01*
X105602Y53817D01*
X105703D01*
Y53918D01*
X105602Y54020D01*
X105703Y54122D01*
Y54223D01*
X105602D01*
X105500Y54122D01*
X105398Y54223D01*
X105297D01*
Y54122D01*
X105398Y54020D01*
X105297Y53918D01*
Y53817D01*
X109797Y57020D02*
X110000Y57223D01*
X110203Y57020D01*
X110000Y56817D01*
X109797Y57020D01*
X162847Y53047D02*
Y53453D01*
X163253D01*
Y53047D01*
X162847D01*
Y55587D02*
Y55993D01*
X163253D01*
Y55587D01*
X162847D01*
X165387Y53047D02*
Y53453D01*
X165793D01*
Y53047D01*
X165387D01*
Y55587D02*
Y55993D01*
X165793D01*
Y55587D01*
X165387D01*
X167927Y53047D02*
Y53453D01*
X168333D01*
Y53047D01*
X167927D01*
Y55587D02*
Y55993D01*
X168333D01*
Y55587D01*
X167927D01*
X170467Y53047D02*
Y53453D01*
X170873D01*
Y53047D01*
X170467D01*
Y55587D02*
Y55993D01*
X170873D01*
Y55587D01*
X170467D01*
X173007Y53047D02*
Y53453D01*
X173413D01*
Y53047D01*
X173007D01*
Y55587D02*
Y55993D01*
X173413D01*
Y55587D01*
X173007D01*
X175547Y53047D02*
Y53453D01*
X175953D01*
Y53047D01*
X175547D01*
Y55587D02*
Y55993D01*
X175953D01*
Y55587D01*
X175547D01*
X178087Y53047D02*
Y53453D01*
X178493D01*
Y53047D01*
X178087D01*
Y55587D02*
Y55993D01*
X178493D01*
Y55587D01*
X178087D01*
X180627Y53047D02*
Y53453D01*
X181033D01*
Y53047D01*
X180627D01*
Y55587D02*
Y55993D01*
X181033D01*
Y55587D01*
X180627D01*
X185707D02*
Y55993D01*
X186113D01*
Y55587D01*
X185707D01*
Y53047D02*
Y53453D01*
X186113D01*
Y53047D01*
X185707D01*
X183167Y55587D02*
Y55993D01*
X183573D01*
Y55587D01*
X183167D01*
Y53047D02*
Y53453D01*
X183573D01*
Y53047D01*
X183167D01*
X172407Y148847D02*
Y149253D01*
X172813D01*
Y148847D01*
X172407D01*
X169867D02*
Y149253D01*
X170273D01*
Y148847D01*
X169867D01*
X167327D02*
Y149253D01*
X167733D01*
Y148847D01*
X167327D01*
X164787D02*
Y149253D01*
X165193D01*
Y148847D01*
X164787D01*
X177757Y148797D02*
Y149203D01*
X178163D01*
Y148797D01*
X177757D01*
X180297D02*
Y149203D01*
X180703D01*
Y148797D01*
X180297D01*
X182837D02*
Y149203D01*
X183243D01*
Y148797D01*
X182837D01*
X196257Y127417D02*
Y127823D01*
X196663D01*
Y127417D01*
X196257D01*
X198797D02*
Y127823D01*
X199203D01*
Y127417D01*
X198797D01*
X196257Y124877D02*
Y125283D01*
X196663D01*
Y124877D01*
X196257D01*
X198797D02*
Y125283D01*
X199203D01*
Y124877D01*
X198797D01*
X196257Y122337D02*
Y122743D01*
X196663D01*
Y122337D01*
X196257D01*
X198797D02*
Y122743D01*
X199203D01*
Y122337D01*
X198797D01*
X196257Y119797D02*
Y120203D01*
X196663D01*
Y119797D01*
X196257D01*
X198797D02*
Y120203D01*
X199203D01*
Y119797D01*
X198797D01*
X196257Y117257D02*
Y117663D01*
X196663D01*
Y117257D01*
X196257D01*
X198797D02*
Y117663D01*
X199203D01*
Y117257D01*
X198797D01*
X196257Y114717D02*
Y115123D01*
X196663D01*
Y114717D01*
X196257D01*
X198797D02*
Y115123D01*
X199203D01*
Y114717D01*
X198797D01*
X196257Y112177D02*
Y112583D01*
X196663D01*
Y112177D01*
X196257D01*
X198797D02*
Y112583D01*
X199203D01*
Y112177D01*
X198797D01*
X196257Y109637D02*
Y110043D01*
X196663D01*
Y109637D01*
X196257D01*
X198797D02*
Y110043D01*
X199203D01*
Y109637D01*
X198797D01*
X137957Y110317D02*
Y110723D01*
X138363D01*
Y110317D01*
X137957D01*
X138058Y110418D02*
Y110622D01*
X138262D01*
Y110418D01*
X138058D01*
X140497Y107777D02*
Y108183D01*
X140903D01*
Y107777D01*
X140497D01*
X140598Y107878D02*
Y108082D01*
X140802D01*
Y107878D01*
X140598D01*
X135417Y107777D02*
Y108183D01*
X135823D01*
Y107777D01*
X135417D01*
X135518Y107878D02*
Y108082D01*
X135722D01*
Y107878D01*
X135518D01*
X76310Y71587D02*
X76107Y71993D01*
X76513D01*
X76310Y71587D01*
Y71688D02*
X76208Y71892D01*
X76412D01*
X76310Y71688D01*
X73770Y71587D02*
X73567Y71993D01*
X73973D01*
X73770Y71587D01*
Y71688D02*
X73668Y71892D01*
X73872D01*
X73770Y71688D01*
X76310Y69047D02*
X76107Y69453D01*
X76513D01*
X76310Y69047D01*
Y69148D02*
X76208Y69352D01*
X76412D01*
X76310Y69148D01*
X73770Y69047D02*
X73567Y69453D01*
X73973D01*
X73770Y69047D01*
Y69148D02*
X73668Y69352D01*
X73872D01*
X73770Y69148D01*
X71230Y71587D02*
X71027Y71993D01*
X71433D01*
X71230Y71587D01*
Y71688D02*
X71128Y71892D01*
X71332D01*
X71230Y71688D01*
Y69047D02*
X71027Y69453D01*
X71433D01*
X71230Y69047D01*
Y69148D02*
X71128Y69352D01*
X71332D01*
X71230Y69148D01*
X55990Y69047D02*
X55787Y69453D01*
X56193D01*
X55990Y69047D01*
Y69148D02*
X55888Y69352D01*
X56092D01*
X55990Y69148D01*
X53450Y69047D02*
X53247Y69453D01*
X53653D01*
X53450Y69047D01*
Y69148D02*
X53348Y69352D01*
X53552D01*
X53450Y69148D01*
X58530Y69047D02*
X58327Y69453D01*
X58733D01*
X58530Y69047D01*
Y69148D02*
X58428Y69352D01*
X58632D01*
X58530Y69148D01*
X61070Y69047D02*
X60867Y69453D01*
X61273D01*
X61070Y69047D01*
Y69148D02*
X60968Y69352D01*
X61172D01*
X61070Y69148D01*
X63610Y69047D02*
X63407Y69453D01*
X63813D01*
X63610Y69047D01*
Y69148D02*
X63508Y69352D01*
X63712D01*
X63610Y69148D01*
X66150Y69047D02*
X65947Y69453D01*
X66353D01*
X66150Y69047D01*
Y69148D02*
X66048Y69352D01*
X66252D01*
X66150Y69148D01*
X68690Y69047D02*
X68487Y69453D01*
X68893D01*
X68690Y69047D01*
Y69148D02*
X68588Y69352D01*
X68792D01*
X68690Y69148D01*
X53450Y71587D02*
X53247Y71993D01*
X53653D01*
X53450Y71587D01*
Y71688D02*
X53348Y71892D01*
X53552D01*
X53450Y71688D01*
X55990Y71587D02*
X55787Y71993D01*
X56193D01*
X55990Y71587D01*
Y71688D02*
X55888Y71892D01*
X56092D01*
X55990Y71688D01*
X58530Y71587D02*
X58327Y71993D01*
X58733D01*
X58530Y71587D01*
Y71688D02*
X58428Y71892D01*
X58632D01*
X58530Y71688D01*
X61070Y71587D02*
X60867Y71993D01*
X61273D01*
X61070Y71587D01*
Y71688D02*
X60968Y71892D01*
X61172D01*
X61070Y71688D01*
X63610Y71587D02*
X63407Y71993D01*
X63813D01*
X63610Y71587D01*
Y71688D02*
X63508Y71892D01*
X63712D01*
X63610Y71688D01*
X66150Y71587D02*
X65947Y71993D01*
X66353D01*
X66150Y71587D01*
Y71688D02*
X66048Y71892D01*
X66252D01*
X66150Y71688D01*
X68690Y71587D02*
X68487Y71993D01*
X68893D01*
X68690Y71587D01*
Y71688D02*
X68588Y71892D01*
X68792D01*
X68690Y71688D01*
X91550Y71587D02*
X91347Y71993D01*
X91753D01*
X91550Y71587D01*
Y71688D02*
X91448Y71892D01*
X91652D01*
X91550Y71688D01*
X89010Y71587D02*
X88807Y71993D01*
X89213D01*
X89010Y71587D01*
Y71688D02*
X88908Y71892D01*
X89112D01*
X89010Y71688D01*
X86470Y71587D02*
X86267Y71993D01*
X86673D01*
X86470Y71587D01*
Y71688D02*
X86368Y71892D01*
X86572D01*
X86470Y71688D01*
X83930Y71587D02*
X83727Y71993D01*
X84133D01*
X83930Y71587D01*
Y71688D02*
X83828Y71892D01*
X84032D01*
X83930Y71688D01*
X81390Y71587D02*
X81187Y71993D01*
X81593D01*
X81390Y71587D01*
Y71688D02*
X81288Y71892D01*
X81492D01*
X81390Y71688D01*
X78850Y71587D02*
X78647Y71993D01*
X79053D01*
X78850Y71587D01*
Y71688D02*
X78748Y71892D01*
X78952D01*
X78850Y71688D01*
X91550Y69047D02*
X91347Y69453D01*
X91753D01*
X91550Y69047D01*
Y69148D02*
X91448Y69352D01*
X91652D01*
X91550Y69148D01*
X89010Y69047D02*
X88807Y69453D01*
X89213D01*
X89010Y69047D01*
Y69148D02*
X88908Y69352D01*
X89112D01*
X89010Y69148D01*
X86470Y69047D02*
X86267Y69453D01*
X86673D01*
X86470Y69047D01*
Y69148D02*
X86368Y69352D01*
X86572D01*
X86470Y69148D01*
X83930Y69047D02*
X83727Y69453D01*
X84133D01*
X83930Y69047D01*
Y69148D02*
X83828Y69352D01*
X84032D01*
X83930Y69148D01*
X81390Y69047D02*
X81187Y69453D01*
X81593D01*
X81390Y69047D01*
Y69148D02*
X81288Y69352D01*
X81492D01*
X81390Y69148D01*
X78850Y69047D02*
X78647Y69453D01*
X79053D01*
X78850Y69047D01*
Y69148D02*
X78748Y69352D01*
X78952D01*
X78850Y69148D01*
X94090Y69047D02*
X93887Y69453D01*
X94293D01*
X94090Y69047D01*
Y69148D02*
X93988Y69352D01*
X94192D01*
X94090Y69148D01*
Y71587D02*
X93887Y71993D01*
X94293D01*
X94090Y71587D01*
Y71688D02*
X93988Y71892D01*
X94192D01*
X94090Y71688D01*
X96630Y69047D02*
X96427Y69453D01*
X96833D01*
X96630Y69047D01*
Y69148D02*
X96528Y69352D01*
X96732D01*
X96630Y69148D01*
X99170Y69047D02*
X98967Y69453D01*
X99373D01*
X99170Y69047D01*
Y69148D02*
X99068Y69352D01*
X99272D01*
X99170Y69148D01*
X96630Y71587D02*
X96427Y71993D01*
X96833D01*
X96630Y71587D01*
Y71688D02*
X96528Y71892D01*
X96732D01*
X96630Y71688D01*
X99170Y71587D02*
X98967Y71993D01*
X99373D01*
X99170Y71587D01*
Y71688D02*
X99068Y71892D01*
X99272D01*
X99170Y71688D01*
X99170Y132587D02*
X98967Y132993D01*
X99373D01*
X99170Y132587D01*
Y132688D02*
X99068Y132892D01*
X99272D01*
X99170Y132688D01*
X96630Y132587D02*
X96427Y132993D01*
X96833D01*
X96630Y132587D01*
Y132688D02*
X96528Y132892D01*
X96732D01*
X96630Y132688D01*
X99170Y130047D02*
X98967Y130453D01*
X99373D01*
X99170Y130047D01*
Y130148D02*
X99068Y130352D01*
X99272D01*
X99170Y130148D01*
X96630Y130047D02*
X96427Y130453D01*
X96833D01*
X96630Y130047D01*
Y130148D02*
X96528Y130352D01*
X96732D01*
X96630Y130148D01*
X94090Y132587D02*
X93887Y132993D01*
X94293D01*
X94090Y132587D01*
Y132688D02*
X93988Y132892D01*
X94192D01*
X94090Y132688D01*
Y130047D02*
X93887Y130453D01*
X94293D01*
X94090Y130047D01*
Y130148D02*
X93988Y130352D01*
X94192D01*
X94090Y130148D01*
X78850Y130047D02*
X78647Y130453D01*
X79053D01*
X78850Y130047D01*
Y130148D02*
X78748Y130352D01*
X78952D01*
X78850Y130148D01*
X81390Y130047D02*
X81187Y130453D01*
X81593D01*
X81390Y130047D01*
Y130148D02*
X81288Y130352D01*
X81492D01*
X81390Y130148D01*
X83930Y130047D02*
X83727Y130453D01*
X84133D01*
X83930Y130047D01*
Y130148D02*
X83828Y130352D01*
X84032D01*
X83930Y130148D01*
X86470Y130047D02*
X86267Y130453D01*
X86673D01*
X86470Y130047D01*
Y130148D02*
X86368Y130352D01*
X86572D01*
X86470Y130148D01*
X89010Y130047D02*
X88807Y130453D01*
X89213D01*
X89010Y130047D01*
Y130148D02*
X88908Y130352D01*
X89112D01*
X89010Y130148D01*
X91550Y130047D02*
X91347Y130453D01*
X91753D01*
X91550Y130047D01*
Y130148D02*
X91448Y130352D01*
X91652D01*
X91550Y130148D01*
X78850Y132587D02*
X78647Y132993D01*
X79053D01*
X78850Y132587D01*
Y132688D02*
X78748Y132892D01*
X78952D01*
X78850Y132688D01*
X81390Y132587D02*
X81187Y132993D01*
X81593D01*
X81390Y132587D01*
Y132688D02*
X81288Y132892D01*
X81492D01*
X81390Y132688D01*
X83930Y132587D02*
X83727Y132993D01*
X84133D01*
X83930Y132587D01*
Y132688D02*
X83828Y132892D01*
X84032D01*
X83930Y132688D01*
X86470Y132587D02*
X86267Y132993D01*
X86673D01*
X86470Y132587D01*
Y132688D02*
X86368Y132892D01*
X86572D01*
X86470Y132688D01*
X89010Y132587D02*
X88807Y132993D01*
X89213D01*
X89010Y132587D01*
Y132688D02*
X88908Y132892D01*
X89112D01*
X89010Y132688D01*
X91550Y132587D02*
X91347Y132993D01*
X91753D01*
X91550Y132587D01*
Y132688D02*
X91448Y132892D01*
X91652D01*
X91550Y132688D01*
X68690Y132587D02*
X68487Y132993D01*
X68893D01*
X68690Y132587D01*
Y132688D02*
X68588Y132892D01*
X68792D01*
X68690Y132688D01*
X66150Y132587D02*
X65947Y132993D01*
X66353D01*
X66150Y132587D01*
Y132688D02*
X66048Y132892D01*
X66252D01*
X66150Y132688D01*
X63610Y132587D02*
X63407Y132993D01*
X63813D01*
X63610Y132587D01*
Y132688D02*
X63508Y132892D01*
X63712D01*
X63610Y132688D01*
X61070Y132587D02*
X60867Y132993D01*
X61273D01*
X61070Y132587D01*
Y132688D02*
X60968Y132892D01*
X61172D01*
X61070Y132688D01*
X58530Y132587D02*
X58327Y132993D01*
X58733D01*
X58530Y132587D01*
Y132688D02*
X58428Y132892D01*
X58632D01*
X58530Y132688D01*
X55990Y132587D02*
X55787Y132993D01*
X56193D01*
X55990Y132587D01*
Y132688D02*
X55888Y132892D01*
X56092D01*
X55990Y132688D01*
X53450Y132587D02*
X53247Y132993D01*
X53653D01*
X53450Y132587D01*
Y132688D02*
X53348Y132892D01*
X53552D01*
X53450Y132688D01*
X68690Y130047D02*
X68487Y130453D01*
X68893D01*
X68690Y130047D01*
Y130148D02*
X68588Y130352D01*
X68792D01*
X68690Y130148D01*
X66150Y130047D02*
X65947Y130453D01*
X66353D01*
X66150Y130047D01*
Y130148D02*
X66048Y130352D01*
X66252D01*
X66150Y130148D01*
X63610Y130047D02*
X63407Y130453D01*
X63813D01*
X63610Y130047D01*
Y130148D02*
X63508Y130352D01*
X63712D01*
X63610Y130148D01*
X61070Y130047D02*
X60867Y130453D01*
X61273D01*
X61070Y130047D01*
Y130148D02*
X60968Y130352D01*
X61172D01*
X61070Y130148D01*
X58530Y130047D02*
X58327Y130453D01*
X58733D01*
X58530Y130047D01*
Y130148D02*
X58428Y130352D01*
X58632D01*
X58530Y130148D01*
X53450Y130047D02*
X53247Y130453D01*
X53653D01*
X53450Y130047D01*
Y130148D02*
X53348Y130352D01*
X53552D01*
X53450Y130148D01*
X55990Y130047D02*
X55787Y130453D01*
X56193D01*
X55990Y130047D01*
Y130148D02*
X55888Y130352D01*
X56092D01*
X55990Y130148D01*
X71230Y130047D02*
X71027Y130453D01*
X71433D01*
X71230Y130047D01*
Y130148D02*
X71128Y130352D01*
X71332D01*
X71230Y130148D01*
Y132587D02*
X71027Y132993D01*
X71433D01*
X71230Y132587D01*
Y132688D02*
X71128Y132892D01*
X71332D01*
X71230Y132688D01*
X73770Y130047D02*
X73567Y130453D01*
X73973D01*
X73770Y130047D01*
Y130148D02*
X73668Y130352D01*
X73872D01*
X73770Y130148D01*
X76310Y130047D02*
X76107Y130453D01*
X76513D01*
X76310Y130047D01*
Y130148D02*
X76208Y130352D01*
X76412D01*
X76310Y130148D01*
X73770Y132587D02*
X73567Y132993D01*
X73973D01*
X73770Y132587D01*
Y132688D02*
X73668Y132892D01*
X73872D01*
X73770Y132688D01*
X76310Y132587D02*
X76107Y132993D01*
X76513D01*
X76310Y132587D01*
Y132688D02*
X76208Y132892D01*
X76412D01*
X76310Y132688D01*
X198797Y78137D02*
Y78543D01*
X199203D01*
Y78137D01*
X198797D01*
X196257D02*
Y78543D01*
X196663D01*
Y78137D01*
X196257D01*
X198797Y80677D02*
Y81083D01*
X199203D01*
Y80677D01*
X198797D01*
X196257D02*
Y81083D01*
X196663D01*
Y80677D01*
X196257D01*
X198797Y83217D02*
Y83623D01*
X199203D01*
Y83217D01*
X198797D01*
X196257D02*
Y83623D01*
X196663D01*
Y83217D01*
X196257D01*
X198797Y85757D02*
Y86163D01*
X199203D01*
Y85757D01*
X198797D01*
X196257D02*
Y86163D01*
X196663D01*
Y85757D01*
X196257D01*
X198797Y88297D02*
Y88703D01*
X199203D01*
Y88297D01*
X198797D01*
X196257D02*
Y88703D01*
X196663D01*
Y88297D01*
X196257D01*
X198797Y90837D02*
Y91243D01*
X199203D01*
Y90837D01*
X198797D01*
X196257D02*
Y91243D01*
X196663D01*
Y90837D01*
X196257D01*
X198797Y93377D02*
Y93783D01*
X199203D01*
Y93377D01*
X198797D01*
X196257D02*
Y93783D01*
X196663D01*
Y93377D01*
X196257D01*
X198797Y95917D02*
Y96323D01*
X199203D01*
Y95917D01*
X198797D01*
X196257D02*
Y96323D01*
X196663D01*
Y95917D01*
X196257D01*
X139387Y52917D02*
Y53323D01*
X139793D01*
Y52917D01*
X139387D01*
Y55457D02*
Y55863D01*
X139793D01*
Y55457D01*
X139387D01*
X141927Y52917D02*
Y53323D01*
X142333D01*
Y52917D01*
X141927D01*
Y55457D02*
Y55863D01*
X142333D01*
Y55457D01*
X141927D01*
X144467Y52917D02*
Y53323D01*
X144873D01*
Y52917D01*
X144467D01*
Y55457D02*
Y55863D01*
X144873D01*
Y55457D01*
X144467D01*
X147007Y52917D02*
Y53323D01*
X147413D01*
Y52917D01*
X147007D01*
Y55457D02*
Y55863D01*
X147413D01*
Y55457D01*
X147007D01*
X149547Y52917D02*
Y53323D01*
X149953D01*
Y52917D01*
X149547D01*
Y55457D02*
Y55863D01*
X149953D01*
Y55457D01*
X149547D01*
X152087Y52917D02*
Y53323D01*
X152493D01*
Y52917D01*
X152087D01*
Y55457D02*
Y55863D01*
X152493D01*
Y55457D01*
X152087D01*
X154627Y52917D02*
Y53323D01*
X155033D01*
Y52917D01*
X154627D01*
Y55457D02*
Y55863D01*
X155033D01*
Y55457D01*
X154627D01*
X157167Y52917D02*
Y53323D01*
X157573D01*
Y52917D01*
X157167D01*
Y55457D02*
Y55863D01*
X157573D01*
Y55457D01*
X157167D01*
X155327Y148697D02*
Y149103D01*
X155733D01*
Y148697D01*
X155327D01*
X157867D02*
Y149103D01*
X158273D01*
Y148697D01*
X157867D01*
X147867D02*
Y149103D01*
X148273D01*
Y148697D01*
X147867D01*
X150407D02*
Y149103D01*
X150813D01*
Y148697D01*
X150407D01*
X89278Y148797D02*
Y149203D01*
X89684D01*
Y148797D01*
X89278D01*
X91818D02*
Y149203D01*
X92224D01*
Y148797D01*
X91818D01*
X94358D02*
Y149203D01*
X94764D01*
Y148797D01*
X94358D01*
X101257D02*
Y149203D01*
X101663D01*
Y148797D01*
X101257D01*
X103797D02*
Y149203D01*
X104203D01*
Y148797D01*
X103797D01*
X106337D02*
Y149203D01*
X106743D01*
Y148797D01*
X106337D01*
X183697Y121547D02*
Y121953D01*
X184103D01*
Y121547D01*
X183697D01*
Y119007D02*
Y119413D01*
X184103D01*
Y119007D01*
X183697D01*
Y116467D02*
Y116873D01*
X184103D01*
Y116467D01*
X183697D01*
Y113927D02*
Y114333D01*
X184103D01*
Y113927D01*
X183697D01*
X81127Y148847D02*
Y149253D01*
X81533D01*
Y148847D01*
X81127D01*
X78587D02*
Y149253D01*
X78993D01*
Y148847D01*
X78587D01*
X76047D02*
Y149253D01*
X76453D01*
Y148847D01*
X76047D01*
X73507D02*
Y149253D01*
X73913D01*
Y148847D01*
X73507D01*
X120257Y148797D02*
Y149203D01*
X120663D01*
Y148797D01*
X120257D01*
X122797D02*
Y149203D01*
X123203D01*
Y148797D01*
X122797D01*
X130797D02*
Y149203D01*
X131203D01*
Y148797D01*
X130797D01*
X128257D02*
Y149203D01*
X128663D01*
Y148797D01*
X128257D01*
X192840Y139097D02*
X192942Y139198D01*
X193043D01*
X192942Y139300D01*
X193043Y139402D01*
X192942D01*
X192840Y139503D01*
X192738Y139402D01*
X192637D01*
X192738Y139300D01*
X192637Y139198D01*
X192738D01*
X192840Y139097D01*
Y139198D02*
X192891Y139249D01*
X192942D01*
X192891Y139300D01*
X192942Y139351D01*
X192891D01*
X192840Y139402D01*
X192789Y139351D01*
X192738D01*
X192789Y139300D01*
X192738Y139249D01*
X192789D01*
X192840Y139198D01*
Y62497D02*
X192942Y62598D01*
X193043D01*
X192942Y62700D01*
X193043Y62802D01*
X192942D01*
X192840Y62903D01*
X192738Y62802D01*
X192637D01*
X192738Y62700D01*
X192637Y62598D01*
X192738D01*
X192840Y62497D01*
Y62598D02*
X192891Y62649D01*
X192942D01*
X192891Y62700D01*
X192942Y62751D01*
X192891D01*
X192840Y62802D01*
X192789Y62751D01*
X192738D01*
X192789Y62700D01*
X192738Y62649D01*
X192789D01*
X192840Y62598D01*
X60160Y62497D02*
X60262Y62598D01*
X60363D01*
X60262Y62700D01*
X60363Y62802D01*
X60262D01*
X60160Y62903D01*
X60058Y62802D01*
X59957D01*
X60058Y62700D01*
X59957Y62598D01*
X60058D01*
X60160Y62497D01*
Y62598D02*
X60211Y62649D01*
X60262D01*
X60211Y62700D01*
X60262Y62751D01*
X60211D01*
X60160Y62802D01*
X60109Y62751D01*
X60058D01*
X60109Y62700D01*
X60058Y62649D01*
X60109D01*
X60160Y62598D01*
Y139097D02*
X60262Y139198D01*
X60363D01*
X60262Y139300D01*
X60363Y139402D01*
X60262D01*
X60160Y139503D01*
X60058Y139402D01*
X59957D01*
X60058Y139300D01*
X59957Y139198D01*
X60058D01*
X60160Y139097D01*
Y139198D02*
X60211Y139249D01*
X60262D01*
X60211Y139300D01*
X60262Y139351D01*
X60211D01*
X60160Y139402D01*
X60109Y139351D01*
X60058D01*
X60109Y139300D01*
X60058Y139249D01*
X60109D01*
X60160Y139198D01*
X123547Y132747D02*
X123648Y132950D01*
X123547Y133153D01*
X123750Y133052D01*
X123953Y133153D01*
X123852Y132950D01*
X123953Y132747D01*
X123750Y132848D01*
X123547Y132747D01*
X123648Y132848D02*
X123699Y132950D01*
X123648Y133052D01*
X123750Y133001D01*
X123852Y133052D01*
X123801Y132950D01*
X123852Y132848D01*
X123750Y132899D01*
X123648Y132848D01*
X123547Y133847D02*
X123648Y134050D01*
X123547Y134253D01*
X123750Y134152D01*
X123953Y134253D01*
X123852Y134050D01*
X123953Y133847D01*
X123750Y133948D01*
X123547Y133847D01*
X123648Y133948D02*
X123699Y134050D01*
X123648Y134152D01*
X123750Y134101D01*
X123852Y134152D01*
X123801Y134050D01*
X123852Y133948D01*
X123750Y133999D01*
X123648Y133948D01*
X124647Y132747D02*
X124748Y132950D01*
X124647Y133153D01*
X124850Y133052D01*
X125053Y133153D01*
X124952Y132950D01*
X125053Y132747D01*
X124850Y132848D01*
X124647Y132747D01*
X124748Y132848D02*
X124799Y132950D01*
X124748Y133052D01*
X124850Y133001D01*
X124952Y133052D01*
X124901Y132950D01*
X124952Y132848D01*
X124850Y132899D01*
X124748Y132848D01*
X124647Y133847D02*
X124748Y134050D01*
X124647Y134253D01*
X124850Y134152D01*
X125053Y134253D01*
X124952Y134050D01*
X125053Y133847D01*
X124850Y133948D01*
X124647Y133847D01*
X124748Y133948D02*
X124799Y134050D01*
X124748Y134152D01*
X124850Y134101D01*
X124952Y134152D01*
X124901Y134050D01*
X124952Y133948D01*
X124850Y133999D01*
X124748Y133948D01*
X125747Y132747D02*
X125848Y132950D01*
X125747Y133153D01*
X125950Y133052D01*
X126153Y133153D01*
X126052Y132950D01*
X126153Y132747D01*
X125950Y132848D01*
X125747Y132747D01*
X125848Y132848D02*
X125899Y132950D01*
X125848Y133052D01*
X125950Y133001D01*
X126052Y133052D01*
X126001Y132950D01*
X126052Y132848D01*
X125950Y132899D01*
X125848Y132848D01*
X125747Y133847D02*
X125848Y134050D01*
X125747Y134253D01*
X125950Y134152D01*
X126153Y134253D01*
X126052Y134050D01*
X126153Y133847D01*
X125950Y133948D01*
X125747Y133847D01*
X125848Y133948D02*
X125899Y134050D01*
X125848Y134152D01*
X125950Y134101D01*
X126052Y134152D01*
X126001Y134050D01*
X126052Y133948D01*
X125950Y133999D01*
X125848Y133948D01*
X126847Y132747D02*
X126948Y132950D01*
X126847Y133153D01*
X127050Y133052D01*
X127253Y133153D01*
X127152Y132950D01*
X127253Y132747D01*
X127050Y132848D01*
X126847Y132747D01*
X126948Y132848D02*
X126999Y132950D01*
X126948Y133052D01*
X127050Y133001D01*
X127152Y133052D01*
X127101Y132950D01*
X127152Y132848D01*
X127050Y132899D01*
X126948Y132848D01*
X126847Y133847D02*
X126948Y134050D01*
X126847Y134253D01*
X127050Y134152D01*
X127253Y134253D01*
X127152Y134050D01*
X127253Y133847D01*
X127050Y133948D01*
X126847Y133847D01*
X126948Y133948D02*
X126999Y134050D01*
X126948Y134152D01*
X127050Y134101D01*
X127152Y134152D01*
X127101Y134050D01*
X127152Y133948D01*
X127050Y133999D01*
X126948Y133948D01*
X127947Y133847D02*
X128048Y134050D01*
X127947Y134253D01*
X128150Y134152D01*
X128353Y134253D01*
X128252Y134050D01*
X128353Y133847D01*
X128150Y133948D01*
X127947Y133847D01*
X128048Y133948D02*
X128099Y134050D01*
X128048Y134152D01*
X128150Y134101D01*
X128252Y134152D01*
X128201Y134050D01*
X128252Y133948D01*
X128150Y133999D01*
X128048Y133948D01*
X129047Y133847D02*
X129148Y134050D01*
X129047Y134253D01*
X129250Y134152D01*
X129453Y134253D01*
X129352Y134050D01*
X129453Y133847D01*
X129250Y133948D01*
X129047Y133847D01*
X129148Y133948D02*
X129199Y134050D01*
X129148Y134152D01*
X129250Y134101D01*
X129352Y134152D01*
X129301Y134050D01*
X129352Y133948D01*
X129250Y133999D01*
X129148Y133948D01*
X127947Y132747D02*
X128048Y132950D01*
X127947Y133153D01*
X128150Y133052D01*
X128353Y133153D01*
X128252Y132950D01*
X128353Y132747D01*
X128150Y132848D01*
X127947Y132747D01*
X128048Y132848D02*
X128099Y132950D01*
X128048Y133052D01*
X128150Y133001D01*
X128252Y133052D01*
X128201Y132950D01*
X128252Y132848D01*
X128150Y132899D01*
X128048Y132848D01*
X129047Y132747D02*
X129148Y132950D01*
X129047Y133153D01*
X129250Y133052D01*
X129453Y133153D01*
X129352Y132950D01*
X129453Y132747D01*
X129250Y132848D01*
X129047Y132747D01*
X129148Y132848D02*
X129199Y132950D01*
X129148Y133052D01*
X129250Y133001D01*
X129352Y133052D01*
X129301Y132950D01*
X129352Y132848D01*
X129250Y132899D01*
X129148Y132848D01*
X171848Y142548D02*
Y142447D01*
X172051D01*
Y142548D01*
X172153D01*
Y142751D01*
X172051D01*
Y142853D01*
X171848D01*
Y142751D01*
X171746D01*
Y142548D01*
X171848D01*
X171899Y142599D02*
Y142548D01*
X172000D01*
Y142599D01*
X172051D01*
Y142701D01*
X172000D01*
Y142751D01*
X171899D01*
Y142701D01*
X171848D01*
Y142599D01*
X171899D01*
X92647Y74687D02*
X92748D01*
X92850Y74788D01*
X92952Y74687D01*
X93053D01*
Y74788D01*
X92952Y74890D01*
X93053Y74992D01*
Y75093D01*
X92952D01*
X92850Y74992D01*
X92748Y75093D01*
X92647D01*
Y74992D01*
X92748Y74890D01*
X92647Y74788D01*
Y74687D01*
X92748Y74788D02*
X92799D01*
X92850Y74839D01*
X92901Y74788D01*
X92952D01*
Y74839D01*
X92901Y74890D01*
X92952Y74941D01*
Y74992D01*
X92901D01*
X92850Y74941D01*
X92799Y74992D01*
X92748D01*
Y74941D01*
X92799Y74890D01*
X92748Y74839D01*
Y74788D01*
X176798Y129698D02*
Y129597D01*
X177002D01*
Y129698D01*
X177103D01*
Y129902D01*
X177002D01*
Y130003D01*
X176798D01*
Y129902D01*
X176697D01*
Y129698D01*
X176798D01*
X176849Y129749D02*
Y129698D01*
X176951D01*
Y129749D01*
X177002D01*
Y129851D01*
X176951D01*
Y129902D01*
X176849D01*
Y129851D01*
X176798D01*
Y129749D01*
X176849D01*
X192298Y147948D02*
Y147847D01*
X192502D01*
Y147948D01*
X192603D01*
Y148152D01*
X192502D01*
Y148253D01*
X192298D01*
Y148152D01*
X192197D01*
Y147948D01*
X192298D01*
X192349Y147999D02*
Y147948D01*
X192451D01*
Y147999D01*
X192502D01*
Y148101D01*
X192451D01*
Y148152D01*
X192349D01*
Y148101D01*
X192298D01*
Y147999D01*
X192349D01*
X159048Y90198D02*
Y90097D01*
X159252D01*
Y90198D01*
X159353D01*
Y90402D01*
X159252D01*
Y90503D01*
X159048D01*
Y90402D01*
X158947D01*
Y90198D01*
X159048D01*
X159099Y90249D02*
Y90198D01*
X159201D01*
Y90249D01*
X159252D01*
Y90351D01*
X159201D01*
Y90402D01*
X159099D01*
Y90351D01*
X159048D01*
Y90249D01*
X159099D01*
X158248Y90898D02*
Y90797D01*
X158452D01*
Y90898D01*
X158553D01*
Y91102D01*
X158452D01*
Y91203D01*
X158248D01*
Y91102D01*
X158147D01*
Y90898D01*
X158248D01*
X158299Y90949D02*
Y90898D01*
X158401D01*
Y90949D01*
X158452D01*
Y91051D01*
X158401D01*
Y91102D01*
X158299D01*
Y91051D01*
X158248D01*
Y90949D01*
X158299D01*
X157448Y91598D02*
Y91497D01*
X157652D01*
Y91598D01*
X157753D01*
Y91802D01*
X157652D01*
Y91903D01*
X157448D01*
Y91802D01*
X157347D01*
Y91598D01*
X157448D01*
X157499Y91649D02*
Y91598D01*
X157601D01*
Y91649D01*
X157652D01*
Y91751D01*
X157601D01*
Y91802D01*
X157499D01*
Y91751D01*
X157448D01*
Y91649D01*
X157499D01*
X156669Y92598D02*
Y92497D01*
X156872D01*
Y92598D01*
X156973D01*
Y92802D01*
X156872D01*
Y92903D01*
X156669D01*
Y92802D01*
X156567D01*
Y92598D01*
X156669D01*
X156719Y92649D02*
Y92598D01*
X156821D01*
Y92649D01*
X156872D01*
Y92751D01*
X156821D01*
Y92802D01*
X156719D01*
Y92751D01*
X156669D01*
Y92649D01*
X156719D01*
X154898Y91148D02*
Y91047D01*
X155102D01*
Y91148D01*
X155203D01*
Y91352D01*
X155102D01*
Y91453D01*
X154898D01*
Y91352D01*
X154797D01*
Y91148D01*
X154898D01*
X154949Y91199D02*
Y91148D01*
X155051D01*
Y91199D01*
X155102D01*
Y91301D01*
X155051D01*
Y91352D01*
X154949D01*
Y91301D01*
X154898D01*
Y91199D01*
X154949D01*
X155598Y91998D02*
Y91897D01*
X155801D01*
Y91998D01*
X155903D01*
Y92201D01*
X155801D01*
Y92303D01*
X155598D01*
Y92201D01*
X155496D01*
Y91998D01*
X155598D01*
X155649Y92049D02*
Y91998D01*
X155750D01*
Y92049D01*
X155801D01*
Y92151D01*
X155750D01*
Y92201D01*
X155649D01*
Y92151D01*
X155598D01*
Y92049D01*
X155649D01*
X160998Y146798D02*
Y146697D01*
X161201D01*
Y146798D01*
X161303D01*
Y147001D01*
X161201D01*
Y147103D01*
X160998D01*
Y147001D01*
X160896D01*
Y146798D01*
X160998D01*
X161049Y146849D02*
Y146798D01*
X161150D01*
Y146849D01*
X161201D01*
Y146951D01*
X161150D01*
Y147001D01*
X161049D01*
Y146951D01*
X160998D01*
Y146849D01*
X161049D01*
X141398Y145198D02*
Y145097D01*
X141602D01*
Y145198D01*
X141703D01*
Y145402D01*
X141602D01*
Y145503D01*
X141398D01*
Y145402D01*
X141297D01*
Y145198D01*
X141398D01*
X141449Y145249D02*
Y145198D01*
X141551D01*
Y145249D01*
X141602D01*
Y145351D01*
X141551D01*
Y145402D01*
X141449D01*
Y145351D01*
X141398D01*
Y145249D01*
X141449D01*
X161898Y146148D02*
Y146047D01*
X162102D01*
Y146148D01*
X162203D01*
Y146352D01*
X162102D01*
Y146453D01*
X161898D01*
Y146352D01*
X161797D01*
Y146148D01*
X161898D01*
X161949Y146199D02*
Y146148D01*
X162051D01*
Y146199D01*
X162102D01*
Y146301D01*
X162051D01*
Y146352D01*
X161949D01*
Y146301D01*
X161898D01*
Y146199D01*
X161949D01*
X140398Y144028D02*
Y143926D01*
X140602D01*
Y144028D01*
X140703D01*
Y144231D01*
X140602D01*
Y144332D01*
X140398D01*
Y144231D01*
X140297D01*
Y144028D01*
X140398D01*
X140449Y144078D02*
Y144028D01*
X140551D01*
Y144078D01*
X140602D01*
Y144180D01*
X140551D01*
Y144231D01*
X140449D01*
Y144180D01*
X140398D01*
Y144078D01*
X140449D01*
X175648Y131148D02*
Y131047D01*
X175852D01*
Y131148D01*
X175953D01*
Y131352D01*
X175852D01*
Y131453D01*
X175648D01*
Y131352D01*
X175547D01*
Y131148D01*
X175648D01*
X175699Y131199D02*
Y131148D01*
X175801D01*
Y131199D01*
X175852D01*
Y131301D01*
X175801D01*
Y131352D01*
X175699D01*
Y131301D01*
X175648D01*
Y131199D01*
X175699D01*
X90198Y127798D02*
Y127697D01*
X90402D01*
Y127798D01*
X90503D01*
Y128002D01*
X90402D01*
Y128103D01*
X90198D01*
Y128002D01*
X90097D01*
Y127798D01*
X90198D01*
X90249Y127849D02*
Y127798D01*
X90351D01*
Y127849D01*
X90402D01*
Y127951D01*
X90351D01*
Y128002D01*
X90249D01*
Y127951D01*
X90198D01*
Y127849D01*
X90249D01*
X174898Y131998D02*
Y131897D01*
X175101D01*
Y131998D01*
X175203D01*
Y132201D01*
X175101D01*
Y132303D01*
X174898D01*
Y132201D01*
X174796D01*
Y131998D01*
X174898D01*
X174949Y132049D02*
Y131998D01*
X175050D01*
Y132049D01*
X175101D01*
Y132151D01*
X175050D01*
Y132201D01*
X174949D01*
Y132151D01*
X174898D01*
Y132049D01*
X174949D01*
X181798Y132326D02*
Y132224D01*
X182002D01*
Y132326D01*
X182103D01*
Y132529D01*
X182002D01*
Y132630D01*
X181798D01*
Y132529D01*
X181697D01*
Y132326D01*
X181798D01*
X181849Y132376D02*
Y132326D01*
X181951D01*
Y132376D01*
X182002D01*
Y132478D01*
X181951D01*
Y132529D01*
X181849D01*
Y132478D01*
X181798D01*
Y132376D01*
X181849D01*
X182848Y133248D02*
Y133147D01*
X183052D01*
Y133248D01*
X183153D01*
Y133452D01*
X183052D01*
Y133553D01*
X182848D01*
Y133452D01*
X182747D01*
Y133248D01*
X182848D01*
X182899Y133299D02*
Y133248D01*
X183001D01*
Y133299D01*
X183052D01*
Y133401D01*
X183001D01*
Y133452D01*
X182899D01*
Y133401D01*
X182848D01*
Y133299D01*
X182899D01*
X142850Y117950D02*
Y118288D01*
X143019Y118458D01*
X143188Y118288D01*
Y117950D01*
Y118204D01*
X142850D01*
X142198Y116898D02*
Y116797D01*
X142402D01*
Y116898D01*
X142503D01*
Y117102D01*
X142402D01*
Y117203D01*
X142198D01*
Y117102D01*
X142097D01*
Y116898D01*
X142198D01*
X142249Y116949D02*
Y116898D01*
X142351D01*
Y116949D01*
X142402D01*
Y117051D01*
X142351D01*
Y117102D01*
X142249D01*
Y117051D01*
X142198D01*
Y116949D01*
X142249D01*
X142050Y115950D02*
Y116289D01*
X142219Y116458D01*
X142389Y116289D01*
Y115950D01*
Y116204D01*
X142050D01*
X168598Y130598D02*
Y130497D01*
X168801D01*
Y130598D01*
X168903D01*
Y130801D01*
X168801D01*
Y130903D01*
X168598D01*
Y130801D01*
X168496D01*
Y130598D01*
X168598D01*
X168649Y130649D02*
Y130598D01*
X168750D01*
Y130649D01*
X168801D01*
Y130751D01*
X168750D01*
Y130801D01*
X168649D01*
Y130751D01*
X168598D01*
Y130649D01*
X168649D01*
X167648Y132598D02*
Y132497D01*
X167851D01*
Y132598D01*
X167953D01*
Y132802D01*
X167851D01*
Y132903D01*
X167648D01*
Y132802D01*
X167546D01*
Y132598D01*
X167648D01*
X167699Y132649D02*
Y132598D01*
X167800D01*
Y132649D01*
X167851D01*
Y132751D01*
X167800D01*
Y132802D01*
X167699D01*
Y132751D01*
X167648D01*
Y132649D01*
X167699D01*
X167722Y143304D02*
X167823Y143508D01*
X167722Y143711D01*
X167925Y143609D01*
X168128Y143711D01*
X168027Y143508D01*
X168128Y143304D01*
X167925Y143406D01*
X167722Y143304D01*
X167823Y143406D02*
X167874Y143508D01*
X167823Y143609D01*
X167925Y143558D01*
X168027Y143609D01*
X167976Y143508D01*
X168027Y143406D01*
X167925Y143457D01*
X167823Y143406D01*
X174648Y134898D02*
Y134797D01*
X174852D01*
Y134898D01*
X174953D01*
Y135102D01*
X174852D01*
Y135203D01*
X174648D01*
Y135102D01*
X174547D01*
Y134898D01*
X174648D01*
X174699Y134949D02*
Y134898D01*
X174801D01*
Y134949D01*
X174852D01*
Y135051D01*
X174801D01*
Y135102D01*
X174699D01*
Y135051D01*
X174648D01*
Y134949D01*
X174699D01*
X169672Y143297D02*
X169773Y143500D01*
X169672Y143703D01*
X169875Y143602D01*
X170078Y143703D01*
X169977Y143500D01*
X170078Y143297D01*
X169875Y143398D01*
X169672Y143297D01*
X169773Y143398D02*
X169824Y143500D01*
X169773Y143602D01*
X169875Y143551D01*
X169977Y143602D01*
X169926Y143500D01*
X169977Y143398D01*
X169875Y143449D01*
X169773Y143398D01*
X164148Y134648D02*
Y134547D01*
X164352D01*
Y134648D01*
X164453D01*
Y134852D01*
X164352D01*
Y134953D01*
X164148D01*
Y134852D01*
X164047D01*
Y134648D01*
X164148D01*
X164199Y134699D02*
Y134648D01*
X164301D01*
Y134699D01*
X164352D01*
Y134801D01*
X164301D01*
Y134852D01*
X164199D01*
Y134801D01*
X164148D01*
Y134699D01*
X164199D01*
X171998Y132326D02*
Y132224D01*
X172202D01*
Y132326D01*
X172303D01*
Y132529D01*
X172202D01*
Y132630D01*
X171998D01*
Y132529D01*
X171897D01*
Y132326D01*
X171998D01*
X172049Y132376D02*
Y132326D01*
X172151D01*
Y132376D01*
X172202D01*
Y132478D01*
X172151D01*
Y132529D01*
X172049D01*
Y132478D01*
X171998D01*
Y132376D01*
X172049D01*
X171098Y132898D02*
Y132797D01*
X171301D01*
Y132898D01*
X171403D01*
Y133101D01*
X171301D01*
Y133203D01*
X171098D01*
Y133101D01*
X170996D01*
Y132898D01*
X171098D01*
X171149Y132949D02*
Y132898D01*
X171250D01*
Y132949D01*
X171301D01*
Y133051D01*
X171250D01*
Y133101D01*
X171149D01*
Y133051D01*
X171098D01*
Y132949D01*
X171149D01*
X173648Y142773D02*
Y142672D01*
X173852D01*
Y142773D01*
X173953D01*
Y142977D01*
X173852D01*
Y143078D01*
X173648D01*
Y142977D01*
X173547D01*
Y142773D01*
X173648D01*
X173699Y142824D02*
Y142773D01*
X173801D01*
Y142824D01*
X173852D01*
Y142926D01*
X173801D01*
Y142977D01*
X173699D01*
Y142926D01*
X173648D01*
Y142824D01*
X173699D01*
X174873Y140671D02*
Y140570D01*
X175077D01*
Y140671D01*
X175178D01*
Y140875D01*
X175077D01*
Y140976D01*
X174873D01*
Y140875D01*
X174772D01*
Y140671D01*
X174873D01*
X174924Y140722D02*
Y140671D01*
X175026D01*
Y140722D01*
X175077D01*
Y140824D01*
X175026D01*
Y140875D01*
X174924D01*
Y140824D01*
X174873D01*
Y140722D01*
X174924D01*
X166098Y132898D02*
Y132797D01*
X166301D01*
Y132898D01*
X166403D01*
Y133101D01*
X166301D01*
Y133203D01*
X166098D01*
Y133101D01*
X165996D01*
Y132898D01*
X166098D01*
X166149Y132949D02*
Y132898D01*
X166250D01*
Y132949D01*
X166301D01*
Y133051D01*
X166250D01*
Y133101D01*
X166149D01*
Y133051D01*
X166098D01*
Y132949D01*
X166149D01*
X167722Y142297D02*
X167823Y142500D01*
X167722Y142703D01*
X167925Y142602D01*
X168128Y142703D01*
X168027Y142500D01*
X168128Y142297D01*
X167925Y142398D01*
X167722Y142297D01*
X167823Y142398D02*
X167874Y142500D01*
X167823Y142602D01*
X167925Y142551D01*
X168027Y142602D01*
X167976Y142500D01*
X168027Y142398D01*
X167925Y142449D01*
X167823Y142398D01*
X169672Y142297D02*
X169773Y142500D01*
X169672Y142703D01*
X169875Y142602D01*
X170078Y142703D01*
X169977Y142500D01*
X170078Y142297D01*
X169875Y142398D01*
X169672Y142297D01*
X169773Y142398D02*
X169824Y142500D01*
X169773Y142602D01*
X169875Y142551D01*
X169977Y142602D01*
X169926Y142500D01*
X169977Y142398D01*
X169875Y142449D01*
X169773Y142398D01*
X144998Y81398D02*
Y81297D01*
X145202D01*
Y81398D01*
X145303D01*
Y81602D01*
X145202D01*
Y81703D01*
X144998D01*
Y81602D01*
X144897D01*
Y81398D01*
X144998D01*
X145049Y81449D02*
Y81398D01*
X145151D01*
Y81449D01*
X145202D01*
Y81551D01*
X145151D01*
Y81602D01*
X145049D01*
Y81551D01*
X144998D01*
Y81449D01*
X145049D01*
X53900Y116450D02*
Y116789D01*
X54069Y116958D01*
X54239Y116789D01*
Y116450D01*
Y116704D01*
X53900D01*
X52998Y125998D02*
Y125897D01*
X53202D01*
Y125998D01*
X53303D01*
Y126202D01*
X53202D01*
Y126303D01*
X52998D01*
Y126202D01*
X52897D01*
Y125998D01*
X52998D01*
X53049Y126049D02*
Y125998D01*
X53151D01*
Y126049D01*
X53202D01*
Y126151D01*
X53151D01*
Y126202D01*
X53049D01*
Y126151D01*
X52998D01*
Y126049D01*
X53049D01*
X53300Y127651D02*
Y127990D01*
X53469Y128159D01*
X53639Y127990D01*
Y127651D01*
Y127905D01*
X53300D01*
X96000Y117800D02*
Y118139D01*
X96169Y118308D01*
X96339Y118139D01*
Y117800D01*
Y118054D01*
X96000D01*
X90800Y115800D02*
Y116139D01*
X90969Y116308D01*
X91139Y116139D01*
Y115800D01*
Y116054D01*
X90800D01*
X95750Y119150D02*
Y119489D01*
X95919Y119658D01*
X96089Y119489D01*
Y119150D01*
Y119404D01*
X95750D01*
X90800Y116800D02*
Y117139D01*
X90969Y117308D01*
X91139Y117139D01*
Y116800D01*
Y117054D01*
X90800D01*
X95550Y120450D02*
Y120789D01*
X95719Y120958D01*
X95889Y120789D01*
Y120450D01*
Y120704D01*
X95550D01*
X90800Y117800D02*
Y118139D01*
X90969Y118308D01*
X91139Y118139D01*
Y117800D01*
Y118054D01*
X90800D01*
X73000Y122150D02*
Y122489D01*
X73169Y122658D01*
X73339Y122489D01*
Y122150D01*
Y122404D01*
X73000D01*
X71400Y123700D02*
Y124039D01*
X71569Y124208D01*
X71739Y124039D01*
Y123700D01*
Y123954D01*
X71400D01*
X72200Y122900D02*
Y123239D01*
X72369Y123408D01*
X72539Y123239D01*
Y122900D01*
Y123154D01*
X72200D01*
X81548Y119138D02*
Y119037D01*
X81752D01*
Y119138D01*
X81853D01*
Y119342D01*
X81752D01*
Y119443D01*
X81548D01*
Y119342D01*
X81447D01*
Y119138D01*
X81548D01*
X81599Y119189D02*
Y119138D01*
X81701D01*
Y119189D01*
X81752D01*
Y119291D01*
X81701D01*
Y119342D01*
X81599D01*
Y119291D01*
X81548D01*
Y119189D01*
X81599D01*
X91898Y107298D02*
Y107197D01*
X92102D01*
Y107298D01*
X92203D01*
Y107502D01*
X92102D01*
Y107603D01*
X91898D01*
Y107502D01*
X91797D01*
Y107298D01*
X91898D01*
X91949Y107349D02*
Y107298D01*
X92051D01*
Y107349D01*
X92102D01*
Y107451D01*
X92051D01*
Y107502D01*
X91949D01*
Y107451D01*
X91898D01*
Y107349D01*
X91949D01*
X113400Y101400D02*
Y101739D01*
X113569Y101908D01*
X113739Y101739D01*
Y101400D01*
Y101654D01*
X113400D01*
X177648Y73123D02*
Y73022D01*
X177852D01*
Y73123D01*
X177953D01*
Y73327D01*
X177852D01*
Y73428D01*
X177648D01*
Y73327D01*
X177547D01*
Y73123D01*
X177648D01*
X177699Y73174D02*
Y73123D01*
X177801D01*
Y73174D01*
X177852D01*
Y73276D01*
X177801D01*
Y73327D01*
X177699D01*
Y73276D01*
X177648D01*
Y73174D01*
X177699D01*
X70731Y112567D02*
Y112465D01*
X70934D01*
Y112567D01*
X71036D01*
Y112770D01*
X70934D01*
Y112872D01*
X70731D01*
Y112770D01*
X70630D01*
Y112567D01*
X70731D01*
X70782Y112618D02*
Y112567D01*
X70884D01*
Y112618D01*
X70934D01*
Y112719D01*
X70884D01*
Y112770D01*
X70782D01*
Y112719D01*
X70731D01*
Y112618D01*
X70782D01*
X176823Y73898D02*
Y73797D01*
X177027D01*
Y73898D01*
X177128D01*
Y74102D01*
X177027D01*
Y74203D01*
X176823D01*
Y74102D01*
X176722D01*
Y73898D01*
X176823D01*
X176874Y73949D02*
Y73898D01*
X176976D01*
Y73949D01*
X177027D01*
Y74051D01*
X176976D01*
Y74102D01*
X176874D01*
Y74051D01*
X176823D01*
Y73949D01*
X176874D01*
X71080Y111567D02*
Y111465D01*
X71283D01*
Y111567D01*
X71385D01*
Y111770D01*
X71283D01*
Y111872D01*
X71080D01*
Y111770D01*
X70978D01*
Y111567D01*
X71080D01*
X71131Y111618D02*
Y111567D01*
X71232D01*
Y111618D01*
X71283D01*
Y111719D01*
X71232D01*
Y111770D01*
X71131D01*
Y111719D01*
X71080D01*
Y111618D01*
X71131D01*
X178598Y71148D02*
Y71047D01*
X178802D01*
Y71148D01*
X178903D01*
Y71352D01*
X178802D01*
Y71453D01*
X178598D01*
Y71352D01*
X178497D01*
Y71148D01*
X178598D01*
X178649Y71199D02*
Y71148D01*
X178751D01*
Y71199D01*
X178802D01*
Y71301D01*
X178751D01*
Y71352D01*
X178649D01*
Y71301D01*
X178598D01*
Y71199D01*
X178649D01*
X176068Y74788D02*
Y74687D01*
X176271D01*
Y74788D01*
X176372D01*
Y74992D01*
X176271D01*
Y75093D01*
X176068D01*
Y74992D01*
X175966D01*
Y74788D01*
X176068D01*
X176118Y74839D02*
Y74788D01*
X176220D01*
Y74839D01*
X176271D01*
Y74941D01*
X176220D01*
Y74992D01*
X176118D01*
Y74941D01*
X176068D01*
Y74839D01*
X176118D01*
X71798Y110798D02*
Y110697D01*
X72001D01*
Y110798D01*
X72103D01*
Y111001D01*
X72001D01*
Y111103D01*
X71798D01*
Y111001D01*
X71697D01*
Y110798D01*
X71798D01*
X71849Y110849D02*
Y110798D01*
X71951D01*
Y110849D01*
X72001D01*
Y110951D01*
X71951D01*
Y111001D01*
X71849D01*
Y110951D01*
X71798D01*
Y110849D01*
X71849D01*
X172598Y74698D02*
Y74597D01*
X172802D01*
Y74698D01*
X172903D01*
Y74902D01*
X172802D01*
Y75003D01*
X172598D01*
Y74902D01*
X172497D01*
Y74698D01*
X172598D01*
X172649Y74749D02*
Y74698D01*
X172751D01*
Y74749D01*
X172802D01*
Y74851D01*
X172751D01*
Y74902D01*
X172649D01*
Y74851D01*
X172598D01*
Y74749D01*
X172649D01*
X171798Y73798D02*
Y73697D01*
X172002D01*
Y73798D01*
X172103D01*
Y74002D01*
X172002D01*
Y74103D01*
X171798D01*
Y74002D01*
X171697D01*
Y73798D01*
X171798D01*
X171849Y73849D02*
Y73798D01*
X171951D01*
Y73849D01*
X172002D01*
Y73951D01*
X171951D01*
Y74002D01*
X171849D01*
Y73951D01*
X171798D01*
Y73849D01*
X171849D01*
X88648Y127518D02*
Y127417D01*
X88852D01*
Y127518D01*
X88953D01*
Y127722D01*
X88852D01*
Y127823D01*
X88648D01*
Y127722D01*
X88547D01*
Y127518D01*
X88648D01*
X88699Y127569D02*
Y127518D01*
X88801D01*
Y127569D01*
X88852D01*
Y127671D01*
X88801D01*
Y127722D01*
X88699D01*
Y127671D01*
X88648D01*
Y127569D01*
X88699D01*
X95398Y109398D02*
Y109297D01*
X95602D01*
Y109398D01*
X95703D01*
Y109602D01*
X95602D01*
Y109703D01*
X95398D01*
Y109602D01*
X95297D01*
Y109398D01*
X95398D01*
X95449Y109449D02*
Y109398D01*
X95551D01*
Y109449D01*
X95602D01*
Y109551D01*
X95551D01*
Y109602D01*
X95449D01*
Y109551D01*
X95398D01*
Y109449D01*
X95449D01*
X159598Y66198D02*
Y66097D01*
X159802D01*
Y66198D01*
X159903D01*
Y66402D01*
X159802D01*
Y66503D01*
X159598D01*
Y66402D01*
X159497D01*
Y66198D01*
X159598D01*
X159649Y66249D02*
Y66198D01*
X159751D01*
Y66249D01*
X159802D01*
Y66351D01*
X159751D01*
Y66402D01*
X159649D01*
Y66351D01*
X159598D01*
Y66249D01*
X159649D01*
X158598Y66998D02*
Y66897D01*
X158802D01*
Y66998D01*
X158903D01*
Y67202D01*
X158802D01*
Y67303D01*
X158598D01*
Y67202D01*
X158497D01*
Y66998D01*
X158598D01*
X158649Y67049D02*
Y66998D01*
X158751D01*
Y67049D01*
X158802D01*
Y67151D01*
X158751D01*
Y67202D01*
X158649D01*
Y67151D01*
X158598D01*
Y67049D01*
X158649D01*
X60848Y127198D02*
Y127097D01*
X61052D01*
Y127198D01*
X61153D01*
Y127402D01*
X61052D01*
Y127503D01*
X60848D01*
Y127402D01*
X60747D01*
Y127198D01*
X60848D01*
X60899Y127249D02*
Y127198D01*
X61001D01*
Y127249D01*
X61052D01*
Y127351D01*
X61001D01*
Y127402D01*
X60899D01*
Y127351D01*
X60848D01*
Y127249D01*
X60899D01*
X126900Y123400D02*
Y123739D01*
X127069Y123908D01*
X127239Y123739D01*
Y123400D01*
Y123654D01*
X126900D01*
X125297Y138097D02*
X125398Y138300D01*
X125297Y138503D01*
X125500Y138401D01*
X125703Y138503D01*
X125601Y138300D01*
X125703Y138097D01*
X125500Y138198D01*
X125297Y138097D01*
X125398Y138198D02*
X125449Y138300D01*
X125398Y138401D01*
X125500Y138351D01*
X125601Y138401D01*
X125551Y138300D01*
X125601Y138198D01*
X125500Y138249D01*
X125398Y138198D01*
X125322Y138797D02*
X125423Y139000D01*
X125322Y139203D01*
X125525Y139102D01*
X125728Y139203D01*
X125627Y139000D01*
X125728Y138797D01*
X125525Y138898D01*
X125322Y138797D01*
X125423Y138898D02*
X125474Y139000D01*
X125423Y139102D01*
X125525Y139051D01*
X125627Y139102D01*
X125576Y139000D01*
X125627Y138898D01*
X125525Y138949D01*
X125423Y138898D01*
X132000Y123650D02*
Y123989D01*
X132169Y124158D01*
X132339Y123989D01*
Y123650D01*
Y123904D01*
X132000D01*
X108773Y79648D02*
Y79547D01*
X108977D01*
Y79648D01*
X109078D01*
Y79852D01*
X108977D01*
Y79953D01*
X108773D01*
Y79852D01*
X108672D01*
Y79648D01*
X108773D01*
X108824Y79699D02*
Y79648D01*
X108926D01*
Y79699D01*
X108977D01*
Y79801D01*
X108926D01*
Y79852D01*
X108824D01*
Y79801D01*
X108773D01*
Y79699D01*
X108824D01*
X94398Y79898D02*
Y79797D01*
X94602D01*
Y79898D01*
X94703D01*
Y80102D01*
X94602D01*
Y80203D01*
X94398D01*
Y80102D01*
X94297D01*
Y79898D01*
X94398D01*
X94449Y79949D02*
Y79898D01*
X94551D01*
Y79949D01*
X94602D01*
Y80051D01*
X94551D01*
Y80102D01*
X94449D01*
Y80051D01*
X94398D01*
Y79949D01*
X94449D01*
X101054Y111354D02*
Y111692D01*
X101223Y111861D01*
X101392Y111692D01*
Y111354D01*
Y111607D01*
X101054D01*
X109293Y77503D02*
Y77402D01*
X109497D01*
Y77503D01*
X109598D01*
Y77707D01*
X109497D01*
Y77808D01*
X109293D01*
Y77707D01*
X109192D01*
Y77503D01*
X109293D01*
X109344Y77554D02*
Y77503D01*
X109446D01*
Y77554D01*
X109497D01*
Y77656D01*
X109446D01*
Y77707D01*
X109344D01*
Y77656D01*
X109293D01*
Y77554D01*
X109344D01*
X93398Y79298D02*
Y79197D01*
X93601D01*
Y79298D01*
X93703D01*
Y79501D01*
X93601D01*
Y79603D01*
X93398D01*
Y79501D01*
X93297D01*
Y79298D01*
X93398D01*
X93449Y79349D02*
Y79298D01*
X93551D01*
Y79349D01*
X93601D01*
Y79451D01*
X93551D01*
Y79501D01*
X93449D01*
Y79451D01*
X93398D01*
Y79349D01*
X93449D01*
X99700Y111250D02*
Y111589D01*
X99869Y111758D01*
X100039Y111589D01*
Y111250D01*
Y111504D01*
X99700D01*
X141798Y114598D02*
Y114497D01*
X142002D01*
Y114598D01*
X142103D01*
Y114802D01*
X142002D01*
Y114903D01*
X141798D01*
Y114802D01*
X141697D01*
Y114598D01*
X141798D01*
X141849Y114649D02*
Y114598D01*
X141951D01*
Y114649D01*
X142002D01*
Y114751D01*
X141951D01*
Y114802D01*
X141849D01*
Y114751D01*
X141798D01*
Y114649D01*
X141849D01*
X113500Y143100D02*
Y143439D01*
X113669Y143608D01*
X113839Y143439D01*
Y143100D01*
Y143354D01*
X113500D01*
X119498Y143098D02*
Y142997D01*
X119702D01*
Y143098D01*
X119803D01*
Y143302D01*
X119702D01*
Y143403D01*
X119498D01*
Y143302D01*
X119397D01*
Y143098D01*
X119498D01*
X119549Y143149D02*
Y143098D01*
X119651D01*
Y143149D01*
X119702D01*
Y143251D01*
X119651D01*
Y143302D01*
X119549D01*
Y143251D01*
X119498D01*
Y143149D01*
X119549D01*
X68500Y135250D02*
Y135589D01*
X68669Y135758D01*
X68839Y135589D01*
Y135250D01*
Y135504D01*
X68500D01*
X114350Y143900D02*
Y144239D01*
X114519Y144408D01*
X114689Y144239D01*
Y143900D01*
Y144154D01*
X114350D01*
X138600Y129600D02*
Y129939D01*
X138769Y130108D01*
X138939Y129939D01*
Y129600D01*
Y129854D01*
X138600D01*
X128023Y128475D02*
Y128374D01*
X128227D01*
Y128475D01*
X128328D01*
Y128679D01*
X128227D01*
Y128780D01*
X128023D01*
Y128679D01*
X127922D01*
Y128475D01*
X128023D01*
X128074Y128526D02*
Y128475D01*
X128176D01*
Y128526D01*
X128227D01*
Y128628D01*
X128176D01*
Y128679D01*
X128074D01*
Y128628D01*
X128023D01*
Y128526D01*
X128074D01*
X128754Y127698D02*
Y127597D01*
X128958D01*
Y127698D01*
X129059D01*
Y127902D01*
X128958D01*
Y128003D01*
X128754D01*
Y127902D01*
X128653D01*
Y127698D01*
X128754D01*
X128805Y127749D02*
Y127698D01*
X128907D01*
Y127749D01*
X128958D01*
Y127851D01*
X128907D01*
Y127902D01*
X128805D01*
Y127851D01*
X128754D01*
Y127749D01*
X128805D01*
X130798Y128298D02*
Y128197D01*
X131002D01*
Y128298D01*
X131103D01*
Y128502D01*
X131002D01*
Y128603D01*
X130798D01*
Y128502D01*
X130697D01*
Y128298D01*
X130798D01*
X130849Y128349D02*
Y128298D01*
X130951D01*
Y128349D01*
X131002D01*
Y128451D01*
X130951D01*
Y128502D01*
X130849D01*
Y128451D01*
X130798D01*
Y128349D01*
X130849D01*
X145200Y125725D02*
Y126064D01*
X145369Y126233D01*
X145539Y126064D01*
Y125725D01*
Y125979D01*
X145200D01*
X172097Y138147D02*
X172198Y138350D01*
X172097Y138553D01*
X172300Y138452D01*
X172503Y138553D01*
X172402Y138350D01*
X172503Y138147D01*
X172300Y138248D01*
X172097Y138147D01*
X172198Y138248D02*
X172249Y138350D01*
X172198Y138452D01*
X172300Y138401D01*
X172402Y138452D01*
X172351Y138350D01*
X172402Y138248D01*
X172300Y138299D01*
X172198Y138248D01*
X172097Y137047D02*
X172198Y137250D01*
X172097Y137453D01*
X172300Y137352D01*
X172503Y137453D01*
X172402Y137250D01*
X172503Y137047D01*
X172300Y137148D01*
X172097Y137047D01*
X172198Y137148D02*
X172249Y137250D01*
X172198Y137352D01*
X172300Y137301D01*
X172402Y137352D01*
X172351Y137250D01*
X172402Y137148D01*
X172300Y137199D01*
X172198Y137148D01*
X170997Y138147D02*
X171098Y138350D01*
X170997Y138553D01*
X171200Y138452D01*
X171403Y138553D01*
X171302Y138350D01*
X171403Y138147D01*
X171200Y138248D01*
X170997Y138147D01*
X171098Y138248D02*
X171149Y138350D01*
X171098Y138452D01*
X171200Y138401D01*
X171302Y138452D01*
X171251Y138350D01*
X171302Y138248D01*
X171200Y138299D01*
X171098Y138248D01*
X170997Y137047D02*
X171098Y137250D01*
X170997Y137453D01*
X171200Y137352D01*
X171403Y137453D01*
X171302Y137250D01*
X171403Y137047D01*
X171200Y137148D01*
X170997Y137047D01*
X171098Y137148D02*
X171149Y137250D01*
X171098Y137352D01*
X171200Y137301D01*
X171302Y137352D01*
X171251Y137250D01*
X171302Y137148D01*
X171200Y137199D01*
X171098Y137148D01*
X169897Y138147D02*
X169998Y138350D01*
X169897Y138553D01*
X170100Y138452D01*
X170303Y138553D01*
X170202Y138350D01*
X170303Y138147D01*
X170100Y138248D01*
X169897Y138147D01*
X169998Y138248D02*
X170049Y138350D01*
X169998Y138452D01*
X170100Y138401D01*
X170202Y138452D01*
X170151Y138350D01*
X170202Y138248D01*
X170100Y138299D01*
X169998Y138248D01*
X169897Y137047D02*
X169998Y137250D01*
X169897Y137453D01*
X170100Y137352D01*
X170303Y137453D01*
X170202Y137250D01*
X170303Y137047D01*
X170100Y137148D01*
X169897Y137047D01*
X169998Y137148D02*
X170049Y137250D01*
X169998Y137352D01*
X170100Y137301D01*
X170202Y137352D01*
X170151Y137250D01*
X170202Y137148D01*
X170100Y137199D01*
X169998Y137148D01*
X168797Y138147D02*
X168898Y138350D01*
X168797Y138553D01*
X169000Y138452D01*
X169203Y138553D01*
X169102Y138350D01*
X169203Y138147D01*
X169000Y138248D01*
X168797Y138147D01*
X168898Y138248D02*
X168949Y138350D01*
X168898Y138452D01*
X169000Y138401D01*
X169102Y138452D01*
X169051Y138350D01*
X169102Y138248D01*
X169000Y138299D01*
X168898Y138248D01*
X168797Y137047D02*
X168898Y137250D01*
X168797Y137453D01*
X169000Y137352D01*
X169203Y137453D01*
X169102Y137250D01*
X169203Y137047D01*
X169000Y137148D01*
X168797Y137047D01*
X168898Y137148D02*
X168949Y137250D01*
X168898Y137352D01*
X169000Y137301D01*
X169102Y137352D01*
X169051Y137250D01*
X169102Y137148D01*
X169000Y137199D01*
X168898Y137148D01*
X167697Y138147D02*
X167798Y138350D01*
X167697Y138553D01*
X167900Y138452D01*
X168103Y138553D01*
X168002Y138350D01*
X168103Y138147D01*
X167900Y138248D01*
X167697Y138147D01*
X167798Y138248D02*
X167849Y138350D01*
X167798Y138452D01*
X167900Y138401D01*
X168002Y138452D01*
X167951Y138350D01*
X168002Y138248D01*
X167900Y138299D01*
X167798Y138248D01*
X167697Y137047D02*
X167798Y137250D01*
X167697Y137453D01*
X167900Y137352D01*
X168103Y137453D01*
X168002Y137250D01*
X168103Y137047D01*
X167900Y137148D01*
X167697Y137047D01*
X167798Y137148D02*
X167849Y137250D01*
X167798Y137352D01*
X167900Y137301D01*
X168002Y137352D01*
X167951Y137250D01*
X168002Y137148D01*
X167900Y137199D01*
X167798Y137148D01*
X166597Y138147D02*
X166698Y138350D01*
X166597Y138553D01*
X166800Y138452D01*
X167003Y138553D01*
X166902Y138350D01*
X167003Y138147D01*
X166800Y138248D01*
X166597Y138147D01*
X166698Y138248D02*
X166749Y138350D01*
X166698Y138452D01*
X166800Y138401D01*
X166902Y138452D01*
X166851Y138350D01*
X166902Y138248D01*
X166800Y138299D01*
X166698Y138248D01*
X166597Y137047D02*
X166698Y137250D01*
X166597Y137453D01*
X166800Y137352D01*
X167003Y137453D01*
X166902Y137250D01*
X167003Y137047D01*
X166800Y137148D01*
X166597Y137047D01*
X166698Y137148D02*
X166749Y137250D01*
X166698Y137352D01*
X166800Y137301D01*
X166902Y137352D01*
X166851Y137250D01*
X166902Y137148D01*
X166800Y137199D01*
X166698Y137148D01*
X145398Y80198D02*
Y80097D01*
X145602D01*
Y80198D01*
X145703D01*
Y80402D01*
X145602D01*
Y80503D01*
X145398D01*
Y80402D01*
X145297D01*
Y80198D01*
X145398D01*
X145449Y80249D02*
Y80198D01*
X145551D01*
Y80249D01*
X145602D01*
Y80351D01*
X145551D01*
Y80402D01*
X145449D01*
Y80351D01*
X145398D01*
Y80249D01*
X145449D01*
X145898Y81398D02*
Y81297D01*
X146102D01*
Y81398D01*
X146203D01*
Y81602D01*
X146102D01*
Y81703D01*
X145898D01*
Y81602D01*
X145797D01*
Y81398D01*
X145898D01*
X145949Y81449D02*
Y81398D01*
X146051D01*
Y81449D01*
X146102D01*
Y81551D01*
X146051D01*
Y81602D01*
X145949D01*
Y81551D01*
X145898D01*
Y81449D01*
X145949D01*
X69898Y113148D02*
Y113047D01*
X70102D01*
Y113148D01*
X70203D01*
Y113352D01*
X70102D01*
Y113453D01*
X69898D01*
Y113352D01*
X69797D01*
Y113148D01*
X69898D01*
X69949Y113199D02*
Y113148D01*
X70051D01*
Y113199D01*
X70102D01*
Y113301D01*
X70051D01*
Y113352D01*
X69949D01*
Y113301D01*
X69898D01*
Y113199D01*
X69949D01*
X79298Y123898D02*
Y123797D01*
X79502D01*
Y123898D01*
X79603D01*
Y124102D01*
X79502D01*
Y124203D01*
X79298D01*
Y124102D01*
X79197D01*
Y123898D01*
X79298D01*
X79349Y123949D02*
Y123898D01*
X79451D01*
Y123949D01*
X79502D01*
Y124051D01*
X79451D01*
Y124102D01*
X79349D01*
Y124051D01*
X79298D01*
Y123949D01*
X79349D01*
X79198Y122698D02*
Y122597D01*
X79402D01*
Y122698D01*
X79503D01*
Y122902D01*
X79402D01*
Y123003D01*
X79198D01*
Y122902D01*
X79097D01*
Y122698D01*
X79198D01*
X79249Y122749D02*
Y122698D01*
X79351D01*
Y122749D01*
X79402D01*
Y122851D01*
X79351D01*
Y122902D01*
X79249D01*
Y122851D01*
X79198D01*
Y122749D01*
X79249D01*
X78498Y125448D02*
Y125347D01*
X78702D01*
Y125448D01*
X78803D01*
Y125652D01*
X78702D01*
Y125753D01*
X78498D01*
Y125652D01*
X78397D01*
Y125448D01*
X78498D01*
X78549Y125499D02*
Y125448D01*
X78651D01*
Y125499D01*
X78702D01*
Y125601D01*
X78651D01*
Y125652D01*
X78549D01*
Y125601D01*
X78498D01*
Y125499D01*
X78549D01*
X78628Y126498D02*
Y126397D01*
X78832D01*
Y126498D01*
X78933D01*
Y126702D01*
X78832D01*
Y126803D01*
X78628D01*
Y126702D01*
X78527D01*
Y126498D01*
X78628D01*
X78679Y126549D02*
Y126498D01*
X78781D01*
Y126549D01*
X78832D01*
Y126651D01*
X78781D01*
Y126702D01*
X78679D01*
Y126651D01*
X78628D01*
Y126549D01*
X78679D01*
X129598Y128298D02*
Y128197D01*
X129801D01*
Y128298D01*
X129903D01*
Y128501D01*
X129801D01*
Y128603D01*
X129598D01*
Y128501D01*
X129497D01*
Y128298D01*
X129598D01*
X129649Y128349D02*
Y128298D01*
X129751D01*
Y128349D01*
X129801D01*
Y128451D01*
X129751D01*
Y128501D01*
X129649D01*
Y128451D01*
X129598D01*
Y128349D01*
X129649D01*
X127297Y138797D02*
X127398Y139000D01*
X127297Y139203D01*
X127500Y139102D01*
X127703Y139203D01*
X127602Y139000D01*
X127703Y138797D01*
X127500Y138898D01*
X127297Y138797D01*
X127398Y138898D02*
X127449Y139000D01*
X127398Y139102D01*
X127500Y139051D01*
X127602Y139102D01*
X127551Y139000D01*
X127602Y138898D01*
X127500Y138949D01*
X127398Y138898D01*
X127297Y138097D02*
X127398Y138300D01*
X127297Y138503D01*
X127500Y138402D01*
X127703Y138503D01*
X127602Y138300D01*
X127703Y138097D01*
X127500Y138198D01*
X127297Y138097D01*
X127398Y138198D02*
X127449Y138300D01*
X127398Y138402D01*
X127500Y138351D01*
X127602Y138402D01*
X127551Y138300D01*
X127602Y138198D01*
X127500Y138249D01*
X127398Y138198D01*
X141583Y143648D02*
Y143547D01*
X141786D01*
Y143648D01*
X141888D01*
Y143852D01*
X141786D01*
Y143953D01*
X141583D01*
Y143852D01*
X141481D01*
Y143648D01*
X141583D01*
X141634Y143699D02*
Y143648D01*
X141735D01*
Y143699D01*
X141786D01*
Y143801D01*
X141735D01*
Y143852D01*
X141634D01*
Y143801D01*
X141583D01*
Y143699D01*
X141634D01*
X173573Y144298D02*
Y144197D01*
X173777D01*
Y144298D01*
X173878D01*
Y144502D01*
X173777D01*
Y144603D01*
X173573D01*
Y144502D01*
X173472D01*
Y144298D01*
X173573D01*
X173624Y144349D02*
Y144298D01*
X173726D01*
Y144349D01*
X173777D01*
Y144451D01*
X173726D01*
Y144502D01*
X173624D01*
Y144451D01*
X173573D01*
Y144349D01*
X173624D01*
X173070Y145548D02*
Y145447D01*
X173273D01*
Y145548D01*
X173374D01*
Y145752D01*
X173273D01*
Y145853D01*
X173070D01*
Y145752D01*
X172968D01*
Y145548D01*
X173070D01*
X173120Y145599D02*
Y145548D01*
X173222D01*
Y145599D01*
X173273D01*
Y145701D01*
X173222D01*
Y145752D01*
X173120D01*
Y145701D01*
X173070D01*
Y145599D01*
X173120D01*
X169698Y121598D02*
Y121497D01*
X169902D01*
Y121598D01*
X170003D01*
Y121802D01*
X169902D01*
Y121903D01*
X169698D01*
Y121802D01*
X169597D01*
Y121598D01*
X169698D01*
X169749Y121649D02*
Y121598D01*
X169851D01*
Y121649D01*
X169902D01*
Y121751D01*
X169851D01*
Y121802D01*
X169749D01*
Y121751D01*
X169698D01*
Y121649D01*
X169749D01*
X169198Y114598D02*
Y114497D01*
X169401D01*
Y114598D01*
X169503D01*
Y114801D01*
X169401D01*
Y114903D01*
X169198D01*
Y114801D01*
X169096D01*
Y114598D01*
X169198D01*
X169249Y114649D02*
Y114598D01*
X169350D01*
Y114649D01*
X169401D01*
Y114751D01*
X169350D01*
Y114801D01*
X169249D01*
Y114751D01*
X169198D01*
Y114649D01*
X169249D01*
X159898Y89598D02*
Y89497D01*
X160102D01*
Y89598D01*
X160203D01*
Y89802D01*
X160102D01*
Y89903D01*
X159898D01*
Y89802D01*
X159797D01*
Y89598D01*
X159898D01*
X159949Y89649D02*
Y89598D01*
X160051D01*
Y89649D01*
X160102D01*
Y89751D01*
X160051D01*
Y89802D01*
X159949D01*
Y89751D01*
X159898D01*
Y89649D01*
X159949D01*
X152994Y64902D02*
Y64801D01*
X153198D01*
Y64902D01*
X153299D01*
Y65106D01*
X153198D01*
Y65207D01*
X152994D01*
Y65106D01*
X152893D01*
Y64902D01*
X152994D01*
X153045Y64953D02*
Y64902D01*
X153147D01*
Y64953D01*
X153198D01*
Y65055D01*
X153147D01*
Y65106D01*
X153045D01*
Y65055D01*
X152994D01*
Y64953D01*
X153045D01*
X150448Y65298D02*
Y65197D01*
X150652D01*
Y65298D01*
X150753D01*
Y65502D01*
X150652D01*
Y65603D01*
X150448D01*
Y65502D01*
X150347D01*
Y65298D01*
X150448D01*
X150499Y65349D02*
Y65298D01*
X150601D01*
Y65349D01*
X150652D01*
Y65451D01*
X150601D01*
Y65502D01*
X150499D01*
Y65451D01*
X150448D01*
Y65349D01*
X150499D01*
X121998Y123688D02*
Y123587D01*
X122202D01*
Y123688D01*
X122303D01*
Y123892D01*
X122202D01*
Y123993D01*
X121998D01*
Y123892D01*
X121897D01*
Y123688D01*
X121998D01*
X122049Y123739D02*
Y123688D01*
X122151D01*
Y123739D01*
X122202D01*
Y123841D01*
X122151D01*
Y123892D01*
X122049D01*
Y123841D01*
X121998D01*
Y123739D01*
X122049D01*
X122648Y126898D02*
Y126797D01*
X122852D01*
Y126898D01*
X122953D01*
Y127102D01*
X122852D01*
Y127203D01*
X122648D01*
Y127102D01*
X122547D01*
Y126898D01*
X122648D01*
X122699Y126949D02*
Y126898D01*
X122801D01*
Y126949D01*
X122852D01*
Y127051D01*
X122801D01*
Y127102D01*
X122699D01*
Y127051D01*
X122648D01*
Y126949D01*
X122699D01*
X162598Y117998D02*
Y117897D01*
X162802D01*
Y117998D01*
X162903D01*
Y118202D01*
X162802D01*
Y118303D01*
X162598D01*
Y118202D01*
X162497D01*
Y117998D01*
X162598D01*
X162649Y118049D02*
Y117998D01*
X162751D01*
Y118049D01*
X162802D01*
Y118151D01*
X162751D01*
Y118202D01*
X162649D01*
Y118151D01*
X162598D01*
Y118049D01*
X162649D01*
X171048Y95598D02*
Y95497D01*
X171252D01*
Y95598D01*
X171353D01*
Y95802D01*
X171252D01*
Y95903D01*
X171048D01*
Y95802D01*
X170947D01*
Y95598D01*
X171048D01*
X171099Y95649D02*
Y95598D01*
X171201D01*
Y95649D01*
X171252D01*
Y95751D01*
X171201D01*
Y95802D01*
X171099D01*
Y95751D01*
X171048D01*
Y95649D01*
X171099D01*
X171598Y123998D02*
Y123897D01*
X171802D01*
Y123998D01*
X171903D01*
Y124202D01*
X171802D01*
Y124303D01*
X171598D01*
Y124202D01*
X171497D01*
Y123998D01*
X171598D01*
X171649Y124049D02*
Y123998D01*
X171751D01*
Y124049D01*
X171802D01*
Y124151D01*
X171751D01*
Y124202D01*
X171649D01*
Y124151D01*
X171598D01*
Y124049D01*
X171649D01*
X171598Y115698D02*
Y115597D01*
X171802D01*
Y115698D01*
X171903D01*
Y115902D01*
X171802D01*
Y116003D01*
X171598D01*
Y115902D01*
X171497D01*
Y115698D01*
X171598D01*
X171649Y115749D02*
Y115698D01*
X171751D01*
Y115749D01*
X171802D01*
Y115851D01*
X171751D01*
Y115902D01*
X171649D01*
Y115851D01*
X171598D01*
Y115749D01*
X171649D01*
X153698Y136098D02*
Y135997D01*
X153902D01*
Y136098D01*
X154003D01*
Y136302D01*
X153902D01*
Y136403D01*
X153698D01*
Y136302D01*
X153597D01*
Y136098D01*
X153698D01*
X153749Y136149D02*
Y136098D01*
X153851D01*
Y136149D01*
X153902D01*
Y136251D01*
X153851D01*
Y136302D01*
X153749D01*
Y136251D01*
X153698D01*
Y136149D01*
X153749D01*
X69498Y62948D02*
Y62847D01*
X69702D01*
Y62948D01*
X69803D01*
Y63152D01*
X69702D01*
Y63253D01*
X69498D01*
Y63152D01*
X69397D01*
Y62948D01*
X69498D01*
X69549Y62999D02*
Y62948D01*
X69651D01*
Y62999D01*
X69702D01*
Y63101D01*
X69651D01*
Y63152D01*
X69549D01*
Y63101D01*
X69498D01*
Y62999D01*
X69549D01*
X147108Y63798D02*
Y63697D01*
X147312D01*
Y63798D01*
X147413D01*
Y64002D01*
X147312D01*
Y64103D01*
X147108D01*
Y64002D01*
X147007D01*
Y63798D01*
X147108D01*
X147159Y63849D02*
Y63798D01*
X147261D01*
Y63849D01*
X147312D01*
Y63951D01*
X147261D01*
Y64002D01*
X147159D01*
Y63951D01*
X147108D01*
Y63849D01*
X147159D01*
X168998Y64098D02*
Y63997D01*
X169202D01*
Y64098D01*
X169303D01*
Y64302D01*
X169202D01*
Y64403D01*
X168998D01*
Y64302D01*
X168897D01*
Y64098D01*
X168998D01*
X169049Y64149D02*
Y64098D01*
X169151D01*
Y64149D01*
X169202D01*
Y64251D01*
X169151D01*
Y64302D01*
X169049D01*
Y64251D01*
X168998D01*
Y64149D01*
X169049D01*
X76598Y85698D02*
Y85597D01*
X76802D01*
Y85698D01*
X76903D01*
Y85902D01*
X76802D01*
Y86003D01*
X76598D01*
Y85902D01*
X76497D01*
Y85698D01*
X76598D01*
X76649Y85749D02*
Y85698D01*
X76751D01*
Y85749D01*
X76802D01*
Y85851D01*
X76751D01*
Y85902D01*
X76649D01*
Y85851D01*
X76598D01*
Y85749D01*
X76649D01*
X69398Y78498D02*
Y78397D01*
X69602D01*
Y78498D01*
X69703D01*
Y78702D01*
X69602D01*
Y78803D01*
X69398D01*
Y78702D01*
X69297D01*
Y78498D01*
X69398D01*
X69449Y78549D02*
Y78498D01*
X69551D01*
Y78549D01*
X69602D01*
Y78651D01*
X69551D01*
Y78702D01*
X69449D01*
Y78651D01*
X69398D01*
Y78549D01*
X69449D01*
X109918Y75198D02*
Y75097D01*
X110122D01*
Y75198D01*
X110223D01*
Y75402D01*
X110122D01*
Y75503D01*
X109918D01*
Y75402D01*
X109817D01*
Y75198D01*
X109918D01*
X109969Y75249D02*
Y75198D01*
X110071D01*
Y75249D01*
X110122D01*
Y75351D01*
X110071D01*
Y75402D01*
X109969D01*
Y75351D01*
X109918D01*
Y75249D01*
X109969D01*
X114648Y75148D02*
Y75047D01*
X114852D01*
Y75148D01*
X114953D01*
Y75352D01*
X114852D01*
Y75453D01*
X114648D01*
Y75352D01*
X114547D01*
Y75148D01*
X114648D01*
X114699Y75199D02*
Y75148D01*
X114801D01*
Y75199D01*
X114852D01*
Y75301D01*
X114801D01*
Y75352D01*
X114699D01*
Y75301D01*
X114648D01*
Y75199D01*
X114699D01*
X102398Y63198D02*
Y63097D01*
X102602D01*
Y63198D01*
X102703D01*
Y63402D01*
X102602D01*
Y63503D01*
X102398D01*
Y63402D01*
X102297D01*
Y63198D01*
X102398D01*
X102449Y63249D02*
Y63198D01*
X102551D01*
Y63249D01*
X102602D01*
Y63351D01*
X102551D01*
Y63402D01*
X102449D01*
Y63351D01*
X102398D01*
Y63249D01*
X102449D01*
X134798Y67398D02*
Y67297D01*
X135002D01*
Y67398D01*
X135103D01*
Y67602D01*
X135002D01*
Y67703D01*
X134798D01*
Y67602D01*
X134697D01*
Y67398D01*
X134798D01*
X134849Y67449D02*
Y67398D01*
X134951D01*
Y67449D01*
X135002D01*
Y67551D01*
X134951D01*
Y67602D01*
X134849D01*
Y67551D01*
X134798D01*
Y67449D01*
X134849D01*
X91448Y126998D02*
Y126897D01*
X91652D01*
Y126998D01*
X91753D01*
Y127202D01*
X91652D01*
Y127303D01*
X91448D01*
Y127202D01*
X91347D01*
Y126998D01*
X91448D01*
X91499Y127049D02*
Y126998D01*
X91601D01*
Y127049D01*
X91652D01*
Y127151D01*
X91601D01*
Y127202D01*
X91499D01*
Y127151D01*
X91448D01*
Y127049D01*
X91499D01*
X80198Y122298D02*
Y122197D01*
X80402D01*
Y122298D01*
X80503D01*
Y122502D01*
X80402D01*
Y122603D01*
X80198D01*
Y122502D01*
X80097D01*
Y122298D01*
X80198D01*
X80249Y122349D02*
Y122298D01*
X80351D01*
Y122349D01*
X80402D01*
Y122451D01*
X80351D01*
Y122502D01*
X80249D01*
Y122451D01*
X80198D01*
Y122349D01*
X80249D01*
X78198Y124298D02*
Y124197D01*
X78402D01*
Y124298D01*
X78503D01*
Y124502D01*
X78402D01*
Y124603D01*
X78198D01*
Y124502D01*
X78097D01*
Y124298D01*
X78198D01*
X78249Y124349D02*
Y124298D01*
X78351D01*
Y124349D01*
X78402D01*
Y124451D01*
X78351D01*
Y124502D01*
X78249D01*
Y124451D01*
X78198D01*
Y124349D01*
X78249D01*
X121298Y130398D02*
Y130297D01*
X121502D01*
Y130398D01*
X121603D01*
Y130602D01*
X121502D01*
Y130703D01*
X121298D01*
Y130602D01*
X121197D01*
Y130398D01*
X121298D01*
X121349Y130449D02*
Y130398D01*
X121451D01*
Y130449D01*
X121502D01*
Y130551D01*
X121451D01*
Y130602D01*
X121349D01*
Y130551D01*
X121298D01*
Y130449D01*
X121349D01*
X122298Y138298D02*
Y138197D01*
X122502D01*
Y138298D01*
X122603D01*
Y138502D01*
X122502D01*
Y138603D01*
X122298D01*
Y138502D01*
X122197D01*
Y138298D01*
X122298D01*
X122349Y138349D02*
Y138298D01*
X122451D01*
Y138349D01*
X122502D01*
Y138451D01*
X122451D01*
Y138502D01*
X122349D01*
Y138451D01*
X122298D01*
Y138349D01*
X122349D01*
X121698Y140998D02*
Y140897D01*
X121902D01*
Y140998D01*
X122003D01*
Y141202D01*
X121902D01*
Y141303D01*
X121698D01*
Y141202D01*
X121597D01*
Y140998D01*
X121698D01*
X121749Y141049D02*
Y140998D01*
X121851D01*
Y141049D01*
X121902D01*
Y141151D01*
X121851D01*
Y141202D01*
X121749D01*
Y141151D01*
X121698D01*
Y141049D01*
X121749D01*
X130998Y140898D02*
Y140797D01*
X131202D01*
Y140898D01*
X131303D01*
Y141102D01*
X131202D01*
Y141203D01*
X130998D01*
Y141102D01*
X130897D01*
Y140898D01*
X130998D01*
X131049Y140949D02*
Y140898D01*
X131151D01*
Y140949D01*
X131202D01*
Y141051D01*
X131151D01*
Y141102D01*
X131049D01*
Y141051D01*
X130998D01*
Y140949D01*
X131049D01*
X139323Y140873D02*
Y140772D01*
X139527D01*
Y140873D01*
X139628D01*
Y141077D01*
X139527D01*
Y141178D01*
X139323D01*
Y141077D01*
X139222D01*
Y140873D01*
X139323D01*
X139374Y140924D02*
Y140873D01*
X139476D01*
Y140924D01*
X139527D01*
Y141026D01*
X139476D01*
Y141077D01*
X139374D01*
Y141026D01*
X139323D01*
Y140924D01*
X139374D01*
X168423Y115648D02*
Y115547D01*
X168627D01*
Y115648D01*
X168728D01*
Y115852D01*
X168627D01*
Y115953D01*
X168423D01*
Y115852D01*
X168322D01*
Y115648D01*
X168423D01*
X168474Y115699D02*
Y115648D01*
X168576D01*
Y115699D01*
X168627D01*
Y115801D01*
X168576D01*
Y115852D01*
X168474D01*
Y115801D01*
X168423D01*
Y115699D01*
X168474D01*
X164398Y129948D02*
Y129847D01*
X164602D01*
Y129948D01*
X164703D01*
Y130152D01*
X164602D01*
Y130253D01*
X164398D01*
Y130152D01*
X164297D01*
Y129948D01*
X164398D01*
X164449Y129999D02*
Y129948D01*
X164551D01*
Y129999D01*
X164602D01*
Y130101D01*
X164551D01*
Y130152D01*
X164449D01*
Y130101D01*
X164398D01*
Y129999D01*
X164449D01*
X149398Y64098D02*
Y63997D01*
X149602D01*
Y64098D01*
X149703D01*
Y64302D01*
X149602D01*
Y64403D01*
X149398D01*
Y64302D01*
X149297D01*
Y64098D01*
X149398D01*
X149449Y64149D02*
Y64098D01*
X149551D01*
Y64149D01*
X149602D01*
Y64251D01*
X149551D01*
Y64302D01*
X149449D01*
Y64251D01*
X149398D01*
Y64149D01*
X149449D01*
X149398Y62598D02*
Y62497D01*
X149602D01*
Y62598D01*
X149703D01*
Y62802D01*
X149602D01*
Y62903D01*
X149398D01*
Y62802D01*
X149297D01*
Y62598D01*
X149398D01*
X149449Y62649D02*
Y62598D01*
X149551D01*
Y62649D01*
X149602D01*
Y62751D01*
X149551D01*
Y62802D01*
X149449D01*
Y62751D01*
X149398D01*
Y62649D01*
X149449D01*
X90898Y82941D02*
Y82839D01*
X91102D01*
Y82941D01*
X91203D01*
Y83144D01*
X91102D01*
Y83246D01*
X90898D01*
Y83144D01*
X90797D01*
Y82941D01*
X90898D01*
X90949Y82992D02*
Y82941D01*
X91051D01*
Y82992D01*
X91102D01*
Y83093D01*
X91051D01*
Y83144D01*
X90949D01*
Y83093D01*
X90898D01*
Y82992D01*
X90949D01*
X180803Y67148D02*
Y67047D01*
X181007D01*
Y67148D01*
X181108D01*
Y67352D01*
X181007D01*
Y67453D01*
X180803D01*
Y67352D01*
X180702D01*
Y67148D01*
X180803D01*
X180854Y67199D02*
Y67148D01*
X180956D01*
Y67199D01*
X181007D01*
Y67301D01*
X180956D01*
Y67352D01*
X180854D01*
Y67301D01*
X180803D01*
Y67199D01*
X180854D01*
X97648Y65873D02*
Y65772D01*
X97852D01*
Y65873D01*
X97953D01*
Y66077D01*
X97852D01*
Y66178D01*
X97648D01*
Y66077D01*
X97547D01*
Y65873D01*
X97648D01*
X97699Y65924D02*
Y65873D01*
X97801D01*
Y65924D01*
X97852D01*
Y66026D01*
X97801D01*
Y66077D01*
X97699D01*
Y66026D01*
X97648D01*
Y65924D01*
X97699D01*
X97648Y64648D02*
Y64547D01*
X97852D01*
Y64648D01*
X97953D01*
Y64852D01*
X97852D01*
Y64953D01*
X97648D01*
Y64852D01*
X97547D01*
Y64648D01*
X97648D01*
X97699Y64699D02*
Y64648D01*
X97801D01*
Y64699D01*
X97852D01*
Y64801D01*
X97801D01*
Y64852D01*
X97699D01*
Y64801D01*
X97648D01*
Y64699D01*
X97699D01*
X111348Y138323D02*
Y138222D01*
X111552D01*
Y138323D01*
X111653D01*
Y138527D01*
X111552D01*
Y138628D01*
X111348D01*
Y138527D01*
X111247D01*
Y138323D01*
X111348D01*
X111399Y138374D02*
Y138323D01*
X111501D01*
Y138374D01*
X111552D01*
Y138476D01*
X111501D01*
Y138527D01*
X111399D01*
Y138476D01*
X111348D01*
Y138374D01*
X111399D01*
X88398Y77398D02*
Y77297D01*
X88602D01*
Y77398D01*
X88703D01*
Y77602D01*
X88602D01*
Y77703D01*
X88398D01*
Y77602D01*
X88297D01*
Y77398D01*
X88398D01*
X88449Y77449D02*
Y77398D01*
X88551D01*
Y77449D01*
X88602D01*
Y77551D01*
X88551D01*
Y77602D01*
X88449D01*
Y77551D01*
X88398D01*
Y77449D01*
X88449D01*
X87398Y142398D02*
Y142297D01*
X87602D01*
Y142398D01*
X87703D01*
Y142602D01*
X87602D01*
Y142703D01*
X87398D01*
Y142602D01*
X87297D01*
Y142398D01*
X87398D01*
X87449Y142449D02*
Y142398D01*
X87551D01*
Y142449D01*
X87602D01*
Y142551D01*
X87551D01*
Y142602D01*
X87449D01*
Y142551D01*
X87398D01*
Y142449D01*
X87449D01*
X108273Y143648D02*
Y143547D01*
X108477D01*
Y143648D01*
X108578D01*
Y143852D01*
X108477D01*
Y143953D01*
X108273D01*
Y143852D01*
X108172D01*
Y143648D01*
X108273D01*
X108324Y143699D02*
Y143648D01*
X108426D01*
Y143699D01*
X108477D01*
Y143801D01*
X108426D01*
Y143852D01*
X108324D01*
Y143801D01*
X108273D01*
Y143699D01*
X108324D01*
X96648Y143048D02*
Y142947D01*
X96852D01*
Y143048D01*
X96953D01*
Y143252D01*
X96852D01*
Y143353D01*
X96648D01*
Y143252D01*
X96547D01*
Y143048D01*
X96648D01*
X96699Y143099D02*
Y143048D01*
X96801D01*
Y143099D01*
X96852D01*
Y143201D01*
X96801D01*
Y143252D01*
X96699D01*
Y143201D01*
X96648D01*
Y143099D01*
X96699D01*
X95898Y144028D02*
Y143926D01*
X96102D01*
Y144028D01*
X96203D01*
Y144231D01*
X96102D01*
Y144332D01*
X95898D01*
Y144231D01*
X95797D01*
Y144028D01*
X95898D01*
X95949Y144078D02*
Y144028D01*
X96051D01*
Y144078D01*
X96102D01*
Y144180D01*
X96051D01*
Y144231D01*
X95949D01*
Y144180D01*
X95898D01*
Y144078D01*
X95949D01*
X102648Y143648D02*
Y143547D01*
X102852D01*
Y143648D01*
X102953D01*
Y143852D01*
X102852D01*
Y143953D01*
X102648D01*
Y143852D01*
X102547D01*
Y143648D01*
X102648D01*
X102699Y143699D02*
Y143648D01*
X102801D01*
Y143699D01*
X102852D01*
Y143801D01*
X102801D01*
Y143852D01*
X102699D01*
Y143801D01*
X102648D01*
Y143699D01*
X102699D01*
X109239Y82941D02*
Y82839D01*
X109442D01*
Y82941D01*
X109544D01*
Y83144D01*
X109442D01*
Y83246D01*
X109239D01*
Y83144D01*
X109137D01*
Y82941D01*
X109239D01*
X109290Y82992D02*
Y82941D01*
X109391D01*
Y82992D01*
X109442D01*
Y83093D01*
X109391D01*
Y83144D01*
X109290D01*
Y83093D01*
X109239D01*
Y82992D01*
X109290D01*
X159218Y144028D02*
Y143926D01*
X159422D01*
Y144028D01*
X159523D01*
Y144231D01*
X159422D01*
Y144332D01*
X159218D01*
Y144231D01*
X159117D01*
Y144028D01*
X159218D01*
X159269Y144078D02*
Y144028D01*
X159371D01*
Y144078D01*
X159422D01*
Y144180D01*
X159371D01*
Y144231D01*
X159269D01*
Y144180D01*
X159218D01*
Y144078D01*
X159269D01*
X156298Y142648D02*
Y142547D01*
X156502D01*
Y142648D01*
X156603D01*
Y142852D01*
X156502D01*
Y142953D01*
X156298D01*
Y142852D01*
X156197D01*
Y142648D01*
X156298D01*
X156349Y142699D02*
Y142648D01*
X156451D01*
Y142699D01*
X156502D01*
Y142801D01*
X156451D01*
Y142852D01*
X156349D01*
Y142801D01*
X156298D01*
Y142699D01*
X156349D01*
X152898Y143898D02*
Y143797D01*
X153102D01*
Y143898D01*
X153203D01*
Y144102D01*
X153102D01*
Y144203D01*
X152898D01*
Y144102D01*
X152797D01*
Y143898D01*
X152898D01*
X152949Y143949D02*
Y143898D01*
X153051D01*
Y143949D01*
X153102D01*
Y144051D01*
X153051D01*
Y144102D01*
X152949D01*
Y144051D01*
X152898D01*
Y143949D01*
X152949D01*
X148398Y142998D02*
Y142897D01*
X148602D01*
Y142998D01*
X148703D01*
Y143202D01*
X148602D01*
Y143303D01*
X148398D01*
Y143202D01*
X148297D01*
Y142998D01*
X148398D01*
X148449Y143049D02*
Y142998D01*
X148551D01*
Y143049D01*
X148602D01*
Y143151D01*
X148551D01*
Y143202D01*
X148449D01*
Y143151D01*
X148398D01*
Y143049D01*
X148449D01*
X169773Y127518D02*
Y127417D01*
X169977D01*
Y127518D01*
X170078D01*
Y127722D01*
X169977D01*
Y127823D01*
X169773D01*
Y127722D01*
X169672D01*
Y127518D01*
X169773D01*
X169824Y127569D02*
Y127518D01*
X169926D01*
Y127569D01*
X169977D01*
Y127671D01*
X169926D01*
Y127722D01*
X169824D01*
Y127671D01*
X169773D01*
Y127569D01*
X169824D01*
X160148Y132998D02*
Y132897D01*
X160352D01*
Y132998D01*
X160453D01*
Y133202D01*
X160352D01*
Y133303D01*
X160148D01*
Y133202D01*
X160047D01*
Y132998D01*
X160148D01*
X160199Y133049D02*
Y132998D01*
X160301D01*
Y133049D01*
X160352D01*
Y133151D01*
X160301D01*
Y133202D01*
X160199D01*
Y133151D01*
X160148D01*
Y133049D01*
X160199D01*
X149648Y119518D02*
Y119417D01*
X149852D01*
Y119518D01*
X149953D01*
Y119722D01*
X149852D01*
Y119823D01*
X149648D01*
Y119722D01*
X149547D01*
Y119518D01*
X149648D01*
X149699Y119569D02*
Y119518D01*
X149801D01*
Y119569D01*
X149852D01*
Y119671D01*
X149801D01*
Y119722D01*
X149699D01*
Y119671D01*
X149648D01*
Y119569D01*
X149699D01*
X164648Y143148D02*
Y143047D01*
X164852D01*
Y143148D01*
X164953D01*
Y143352D01*
X164852D01*
Y143453D01*
X164648D01*
Y143352D01*
X164547D01*
Y143148D01*
X164648D01*
X164699Y143199D02*
Y143148D01*
X164801D01*
Y143199D01*
X164852D01*
Y143301D01*
X164801D01*
Y143352D01*
X164699D01*
Y143301D01*
X164648D01*
Y143199D01*
X164699D01*
X175148Y113148D02*
Y113047D01*
X175352D01*
Y113148D01*
X175453D01*
Y113352D01*
X175352D01*
Y113453D01*
X175148D01*
Y113352D01*
X175047D01*
Y113148D01*
X175148D01*
X175199Y113199D02*
Y113148D01*
X175301D01*
Y113199D01*
X175352D01*
Y113301D01*
X175301D01*
Y113352D01*
X175199D01*
Y113301D01*
X175148D01*
Y113199D01*
X175199D01*
X175148Y122898D02*
Y122797D01*
X175352D01*
Y122898D01*
X175453D01*
Y123102D01*
X175352D01*
Y123203D01*
X175148D01*
Y123102D01*
X175047D01*
Y122898D01*
X175148D01*
X175199Y122949D02*
Y122898D01*
X175301D01*
Y122949D01*
X175352D01*
Y123051D01*
X175301D01*
Y123102D01*
X175199D01*
Y123051D01*
X175148D01*
Y122949D01*
X175199D01*
X156398Y64148D02*
Y64047D01*
X156602D01*
Y64148D01*
X156703D01*
Y64352D01*
X156602D01*
Y64453D01*
X156398D01*
Y64352D01*
X156297D01*
Y64148D01*
X156398D01*
X156449Y64199D02*
Y64148D01*
X156551D01*
Y64199D01*
X156602D01*
Y64301D01*
X156551D01*
Y64352D01*
X156449D01*
Y64301D01*
X156398D01*
Y64199D01*
X156449D01*
X155148Y64148D02*
Y64047D01*
X155352D01*
Y64148D01*
X155453D01*
Y64352D01*
X155352D01*
Y64453D01*
X155148D01*
Y64352D01*
X155047D01*
Y64148D01*
X155148D01*
X155199Y64199D02*
Y64148D01*
X155301D01*
Y64199D01*
X155352D01*
Y64301D01*
X155301D01*
Y64352D01*
X155199D01*
Y64301D01*
X155148D01*
Y64199D01*
X155199D01*
X153898Y62398D02*
Y62297D01*
X154102D01*
Y62398D01*
X154203D01*
Y62602D01*
X154102D01*
Y62703D01*
X153898D01*
Y62602D01*
X153797D01*
Y62398D01*
X153898D01*
X153949Y62449D02*
Y62398D01*
X154051D01*
Y62449D01*
X154102D01*
Y62551D01*
X154051D01*
Y62602D01*
X153949D01*
Y62551D01*
X153898D01*
Y62449D01*
X153949D01*
X152018Y64148D02*
Y64047D01*
X152222D01*
Y64148D01*
X152323D01*
Y64352D01*
X152222D01*
Y64453D01*
X152018D01*
Y64352D01*
X151917D01*
Y64148D01*
X152018D01*
X152069Y64199D02*
Y64148D01*
X152171D01*
Y64199D01*
X152222D01*
Y64301D01*
X152171D01*
Y64352D01*
X152069D01*
Y64301D01*
X152018D01*
Y64199D01*
X152069D01*
X82398Y79491D02*
Y79389D01*
X82602D01*
Y79491D01*
X82703D01*
Y79694D01*
X82602D01*
Y79796D01*
X82398D01*
Y79694D01*
X82297D01*
Y79491D01*
X82398D01*
X82449Y79542D02*
Y79491D01*
X82551D01*
Y79542D01*
X82602D01*
Y79643D01*
X82551D01*
Y79694D01*
X82449D01*
Y79643D01*
X82398D01*
Y79542D01*
X82449D01*
X82398Y82666D02*
Y82564D01*
X82602D01*
Y82666D01*
X82703D01*
Y82869D01*
X82602D01*
Y82971D01*
X82398D01*
Y82869D01*
X82297D01*
Y82666D01*
X82398D01*
X82449Y82717D02*
Y82666D01*
X82551D01*
Y82717D01*
X82602D01*
Y82818D01*
X82551D01*
Y82869D01*
X82449D01*
Y82818D01*
X82398D01*
Y82717D01*
X82449D01*
X82398Y81366D02*
Y81264D01*
X82602D01*
Y81366D01*
X82703D01*
Y81569D01*
X82602D01*
Y81671D01*
X82398D01*
Y81569D01*
X82297D01*
Y81366D01*
X82398D01*
X82449Y81417D02*
Y81366D01*
X82551D01*
Y81417D01*
X82602D01*
Y81518D01*
X82551D01*
Y81569D01*
X82449D01*
Y81518D01*
X82398D01*
Y81417D01*
X82449D01*
X78148Y79898D02*
Y79797D01*
X78352D01*
Y79898D01*
X78453D01*
Y80102D01*
X78352D01*
Y80203D01*
X78148D01*
Y80102D01*
X78047D01*
Y79898D01*
X78148D01*
X78199Y79949D02*
Y79898D01*
X78301D01*
Y79949D01*
X78352D01*
Y80051D01*
X78301D01*
Y80102D01*
X78199D01*
Y80051D01*
X78148D01*
Y79949D01*
X78199D01*
X78148Y80898D02*
Y80797D01*
X78352D01*
Y80898D01*
X78453D01*
Y81102D01*
X78352D01*
Y81203D01*
X78148D01*
Y81102D01*
X78047D01*
Y80898D01*
X78148D01*
X78199Y80949D02*
Y80898D01*
X78301D01*
Y80949D01*
X78352D01*
Y81051D01*
X78301D01*
Y81102D01*
X78199D01*
Y81051D01*
X78148D01*
Y80949D01*
X78199D01*
X78148Y82148D02*
Y82047D01*
X78352D01*
Y82148D01*
X78453D01*
Y82352D01*
X78352D01*
Y82453D01*
X78148D01*
Y82352D01*
X78047D01*
Y82148D01*
X78148D01*
X78199Y82199D02*
Y82148D01*
X78301D01*
Y82199D01*
X78352D01*
Y82301D01*
X78301D01*
Y82352D01*
X78199D01*
Y82301D01*
X78148D01*
Y82199D01*
X78199D01*
X86368Y83898D02*
Y83797D01*
X86572D01*
Y83898D01*
X86673D01*
Y84102D01*
X86572D01*
Y84203D01*
X86368D01*
Y84102D01*
X86267D01*
Y83898D01*
X86368D01*
X86419Y83949D02*
Y83898D01*
X86521D01*
Y83949D01*
X86572D01*
Y84051D01*
X86521D01*
Y84102D01*
X86419D01*
Y84051D01*
X86368D01*
Y83949D01*
X86419D01*
X177398Y61848D02*
Y61747D01*
X177602D01*
Y61848D01*
X177703D01*
Y62052D01*
X177602D01*
Y62153D01*
X177398D01*
Y62052D01*
X177297D01*
Y61848D01*
X177398D01*
X177449Y61899D02*
Y61848D01*
X177551D01*
Y61899D01*
X177602D01*
Y62001D01*
X177551D01*
Y62052D01*
X177449D01*
Y62001D01*
X177398D01*
Y61899D01*
X177449D01*
X158398Y62898D02*
Y62797D01*
X158602D01*
Y62898D01*
X158703D01*
Y63102D01*
X158602D01*
Y63203D01*
X158398D01*
Y63102D01*
X158297D01*
Y62898D01*
X158398D01*
X158449Y62949D02*
Y62898D01*
X158551D01*
Y62949D01*
X158602D01*
Y63051D01*
X158551D01*
Y63102D01*
X158449D01*
Y63051D01*
X158398D01*
Y62949D01*
X158449D01*
X114648Y81898D02*
Y81797D01*
X114852D01*
Y81898D01*
X114953D01*
Y82102D01*
X114852D01*
Y82203D01*
X114648D01*
Y82102D01*
X114547D01*
Y81898D01*
X114648D01*
X114699Y81949D02*
Y81898D01*
X114801D01*
Y81949D01*
X114852D01*
Y82051D01*
X114801D01*
Y82102D01*
X114699D01*
Y82051D01*
X114648D01*
Y81949D01*
X114699D01*
X114648Y77398D02*
Y77297D01*
X114852D01*
Y77398D01*
X114953D01*
Y77602D01*
X114852D01*
Y77703D01*
X114648D01*
Y77602D01*
X114547D01*
Y77398D01*
X114648D01*
X114699Y77449D02*
Y77398D01*
X114801D01*
Y77449D01*
X114852D01*
Y77551D01*
X114801D01*
Y77602D01*
X114699D01*
Y77551D01*
X114648D01*
Y77449D01*
X114699D01*
X114648Y79648D02*
Y79547D01*
X114852D01*
Y79648D01*
X114953D01*
Y79852D01*
X114852D01*
Y79953D01*
X114648D01*
Y79852D01*
X114547D01*
Y79648D01*
X114648D01*
X114699Y79699D02*
Y79648D01*
X114801D01*
Y79699D01*
X114852D01*
Y79801D01*
X114801D01*
Y79852D01*
X114699D01*
Y79801D01*
X114648D01*
Y79699D01*
X114699D01*
X151601Y80423D02*
Y80322D01*
X151804D01*
Y80423D01*
X151906D01*
Y80627D01*
X151804D01*
Y80728D01*
X151601D01*
Y80627D01*
X151499D01*
Y80423D01*
X151601D01*
X151652Y80474D02*
Y80423D01*
X151753D01*
Y80474D01*
X151804D01*
Y80576D01*
X151753D01*
Y80627D01*
X151652D01*
Y80576D01*
X151601D01*
Y80474D01*
X151652D01*
X142898Y87648D02*
Y87547D01*
X143102D01*
Y87648D01*
X143203D01*
Y87852D01*
X143102D01*
Y87953D01*
X142898D01*
Y87852D01*
X142797D01*
Y87648D01*
X142898D01*
X142949Y87699D02*
Y87648D01*
X143051D01*
Y87699D01*
X143102D01*
Y87801D01*
X143051D01*
Y87852D01*
X142949D01*
Y87801D01*
X142898D01*
Y87699D01*
X142949D01*
X150593Y81366D02*
Y81264D01*
X150797D01*
Y81366D01*
X150898D01*
Y81569D01*
X150797D01*
Y81671D01*
X150593D01*
Y81569D01*
X150492D01*
Y81366D01*
X150593D01*
X150644Y81417D02*
Y81366D01*
X150746D01*
Y81417D01*
X150797D01*
Y81518D01*
X150746D01*
Y81569D01*
X150644D01*
Y81518D01*
X150593D01*
Y81417D01*
X150644D01*
X148648Y84648D02*
Y84547D01*
X148852D01*
Y84648D01*
X148953D01*
Y84852D01*
X148852D01*
Y84953D01*
X148648D01*
Y84852D01*
X148547D01*
Y84648D01*
X148648D01*
X148699Y84699D02*
Y84648D01*
X148801D01*
Y84699D01*
X148852D01*
Y84801D01*
X148801D01*
Y84852D01*
X148699D01*
Y84801D01*
X148648D01*
Y84699D01*
X148699D01*
X147148Y69898D02*
Y69797D01*
X147352D01*
Y69898D01*
X147453D01*
Y70102D01*
X147352D01*
Y70203D01*
X147148D01*
Y70102D01*
X147047D01*
Y69898D01*
X147148D01*
X147199Y69949D02*
Y69898D01*
X147301D01*
Y69949D01*
X147352D01*
Y70051D01*
X147301D01*
Y70102D01*
X147199D01*
Y70051D01*
X147148D01*
Y69949D01*
X147199D01*
X136148Y68398D02*
Y68297D01*
X136352D01*
Y68398D01*
X136453D01*
Y68602D01*
X136352D01*
Y68703D01*
X136148D01*
Y68602D01*
X136047D01*
Y68398D01*
X136148D01*
X136199Y68449D02*
Y68398D01*
X136301D01*
Y68449D01*
X136352D01*
Y68551D01*
X136301D01*
Y68602D01*
X136199D01*
Y68551D01*
X136148D01*
Y68449D01*
X136199D01*
X136398Y69648D02*
Y69547D01*
X136602D01*
Y69648D01*
X136703D01*
Y69852D01*
X136602D01*
Y69953D01*
X136398D01*
Y69852D01*
X136297D01*
Y69648D01*
X136398D01*
X136449Y69699D02*
Y69648D01*
X136551D01*
Y69699D01*
X136602D01*
Y69801D01*
X136551D01*
Y69852D01*
X136449D01*
Y69801D01*
X136398D01*
Y69699D01*
X136449D01*
D169*
X197703Y103000D02*
G03*
X197703Y103000I-203J0D01*
G01*
Y71500D02*
G03*
X197703Y71500I-203J0D01*
G01*
X122703D02*
G03*
X122703Y71500I-203J0D01*
G01*
Y103000D02*
G03*
X122703Y103000I-203J0D01*
G01*
X159453Y125750D02*
G03*
X159453Y125750I-203J0D01*
G01*
X161453D02*
G03*
X161453Y125750I-203J0D01*
G01*
X116203Y125000D02*
G03*
X116203Y125000I-203J0D01*
G01*
X118203D02*
G03*
X118203Y125000I-203J0D01*
G01*
X187203Y82400D02*
G03*
X187203Y82400I-203J0D01*
G01*
X139203Y81200D02*
G03*
X139203Y81200I-203J0D01*
G01*
D170*
X159352Y125750D02*
G03*
X159352Y125750I-102J0D01*
G01*
X161352D02*
G03*
X161352Y125750I-102J0D01*
G01*
X116102Y125000D02*
G03*
X116102Y125000I-102J0D01*
G01*
X118102D02*
G03*
X118102Y125000I-102J0D01*
G01*
X187102Y82400D02*
G03*
X187102Y82400I-102J0D01*
G01*
X139102Y81200D02*
G03*
X139102Y81200I-102J0D01*
G01*
M02*
