M48
;Layer_Color=9474304
;FILE_FORMAT=4:3
METRIC,TZ
T15F00S00C2.000
%
G90
G05
T15
G00X203314Y49050
M15
G01X203596Y49197
G01X203818Y49424
G01X203957Y49710
G01X204000Y50000
G01X204000Y152000
G01X203950Y152314
G01X203803Y152596
G01X203576Y152818
G01X203290Y152957
G01X203000Y153000
G01X50000Y153000
G01X49686Y152950
G01X49404Y152803
G01X49182Y152576
G01X49043Y152290
G01X49000Y152000
G01X49000Y50000
G01X49050Y49686
G01X49197Y49404
G01X49424Y49182
G01X49710Y49043
G01X50000Y49000
G01X203000Y49000
G01X203314Y49050
M16
M17
M30
