M48
;Layer_Color=9474304
;FILE_FORMAT=4:3
METRIC,TZ
;TYPE=PLATED
T1F00S00C0.300
T2F00S00C0.350
T3F00S00C0.400
T4F00S00C0.600
T5F00S00C0.650
T6F00S00C0.800
T7F00S00C0.900
T8F00S00C1.000
T9F00S00C1.020
T10F00S00C1.090
T11F00S00C1.100
T12F00S00C1.200
T13F00S00C3.000
T14F00S00C3.500
%
T01
X159700Y66300
X169100Y64200
X177500Y61950
X178700Y71250
X177750Y73225
X176925Y74000
X176169Y74890
X172700Y74800
X171900Y73900
X158700Y67100
X158500Y63000
X156500Y64250
X155250
X153200Y65200
X152120Y64250
X149500Y64200
Y62700
X147210Y63900
X150550Y65400
X153900Y62600
X136250Y68500
X136500Y69750
X134900Y67500
X114750Y75250
Y77500
X109395Y77605
X110020Y75300
X101000Y64200
X97750Y64750
Y65975
X88500Y77500
X69500Y78600
X69600Y63050
X78250Y80000
Y81000
Y82250
X76700Y85800
X72000Y110900
X71181Y111669
X70833Y112669
X70200Y113800
X92000Y107400
X95500Y109400
X94500Y80000
X93500Y79400
X91000Y83043
X86470Y84000
X82500Y82768
Y81467
Y79592
X108875Y79750
X109340Y83043
X114750Y82000
Y79750
X145500Y80300
X145100Y81500
X146000
X150695Y81467
X151702Y80525
X148750Y84750
X143000Y87750
X155000Y91250
X155700Y92100
X156770Y92700
X157550Y91700
X158350Y91000
X141900Y114700
X142300Y117000
X162700Y118100
X168525Y115750
X169300Y114700
X171700Y115800
X175250Y113250
X171150Y95700
X160000Y89700
X159150Y90300
X169800Y121700
X171700Y124100
X175250Y123000
X176900Y129800
X175750Y131250
X175000Y132100
X172100Y132200
X171200Y132800
X167800Y132600
X165900Y133017
X164250Y134750
X164500Y130050
X168700Y130700
X169875Y127620
X170100Y137250
X171200
X172300
Y138350
X171200
X170100
X169000
Y137250
X167900
Y138350
X166800
Y137250
X167850Y142650
X169900Y143400
X171950Y142650
X173750Y142875
X173675Y144400
X173171Y145650
X174975Y140773
X174750Y135000
X181900Y132427
X182950Y133350
X160250Y133100
X159320Y144129
X161100Y146900
X162000Y146250
X164750Y143250
X192400Y148050
X156400Y142750
X153000Y144000
X148500Y143100
X141684Y143750
X140500Y144129
X141500Y145300
X138599Y141000
X131100
X127700Y139700
Y138700
X125500Y138300
Y139300
X122400Y138400
X120700Y142200
X119600Y143901
X123750Y134050
Y132950
X124850
Y134050
X125950
Y132950
X127050
X128150
Y134050
X127050
X129250
Y132950
X129700Y128400
X130900Y128400
X128856Y127800
X128126Y128652
X122750Y127000
X122100Y123790
X121400Y130500
X153800Y136200
X111450Y138425
X108375Y143750
X102750
X96750Y143150
X96000Y144129
X87100Y142500
X88750Y127620
X90300Y127900
X91550Y127100
X79400Y124000
X80300Y122400
X81650Y119240
X79300Y122800
X78300Y124400
X78600Y125550
X78950Y126650
X60950Y127300
X53100Y126100
T02
X200000Y56950
X196350Y53670
X189250Y56450
X182500Y63450
Y77350
X165150
X168900Y71250
X142900Y69100
X144700Y64050
X137600Y73450
Y74762
Y76075
Y77387
Y78700
X128050Y76750
X128650Y66500
Y54750
X57100Y54050
X62850Y76200
X61150Y83500
Y102650
X52350Y106300
X53900Y116450
X73450Y118300
X76200Y107450
Y102650
X76250Y89600
X95600
Y102650
X99700Y111250
X101054Y111354
X96000Y117800
X90800Y117800
X91600Y116800
X90800Y115800
X112250Y110520
X113400Y101400
X110400Y89600
X125300Y91566
X130350Y93916
X133350Y89350
X125700Y83250
X124267
X122833
X121400
X143345Y83450
X144950Y83850
Y82700
X145850Y84750
X146750Y85600
X147800Y83850
X150000Y87412
Y88759
Y90106
Y91453
Y92800
X153650Y79850
X142050Y115950
X142850Y117950
X126900Y107000
X120850Y109250
X173750Y102000
Y88400
X182500
X162250Y88500
X186700Y107550
X182727Y112000
X179750Y116600
X188100Y114700
X200000Y144750
X187200Y146750
X182850Y138800
Y137467
Y136133
Y134800
X180500Y134800
X175936Y136050
Y137167
Y138283
Y139400
X174550Y139450
Y138333
Y137217
Y136100
X173600Y137800
X165500Y137850
X164550Y137317
Y136200
Y138433
Y139550
X163300Y139550
Y138433
X159500Y139967
Y141300
X163560Y144850
X176750Y125150
X187650Y130450
X188800Y120550
X154700Y119620
X145200Y125725
X144300Y130650
Y131950
X137227Y131900
Y133017
Y134133
Y135250
X135883Y135267
Y134150
Y133033
Y131917
X134538
Y133033
Y134150
Y135267
X133194Y135250
Y134133
Y133017
Y131900
X131850
Y133017
Y134133
Y135250
X130900Y133600
X132719Y130300
X138600Y129600
X132000Y123650
X129750Y123450
X126900Y123400
X121200Y131850
X121150Y132967
Y134083
Y135200
X119350Y135200
Y134083
Y132967
Y131850
X122250Y133500
X147700Y137300
Y138633
Y139967
Y141300
X152150
Y139967
Y138633
Y137300
X155850Y137350
Y138683
Y140017
Y141350
X118225Y135200
Y134083
Y132967
Y131850
X117100
Y132967
Y134083
Y135200
X117700Y129900
X113550
X111400Y131400
Y133500
X110900Y144050
X113500Y143100
X114350Y143900
X99550Y145300
X93200Y142250
X96630Y137700
X87040Y144250
X95550Y120450
X95750Y119150
X103300Y124400
X73200Y121990
X72200Y122900
X71400Y123700
X68500Y135250
X71230Y139750
X56850Y148050
X53000Y144875
X53300Y127651
X52550Y124300
T03
X92850Y74890
T04
X139000Y81200
X159250Y125750
X161250
X118000Y125000
X116000
T05
X135620Y107980
X138160Y110520
X140700Y107980
T06
X82000Y89000
X87000
T07
X199000Y78340
X196460
X185910Y55790
Y53250
X183370
X180830
X178290
X175750
X173210
X170670
X168130
X165590
X163050
Y55790
X165590
X168130
X170670
X173210
X175750
X178290
X180830
X183370
X157370Y55660
X154830
X152290
X149750
X147210
X144670
X142130
X139590
Y53120
X142130
X144670
X147210
X149750
X152290
X154830
X157370
X117500Y88662
X114960
X116000Y98960
Y101500
Y104040
Y106580
Y109120
Y111660
X123150Y111700
X125690
X128000Y103000
X130540
X133080
X135620
X138160
X140700
X143240
X145780
X148320
X150860
X153400
X155940
X158480
X137040Y92500
X134500
X161020Y103000
X163560
X166100
X183900Y114130
Y116670
X196460Y117460
Y114920
Y112380
Y109840
Y96120
Y93580
Y91040
Y88500
Y85960
Y83420
Y80880
X199000
Y83420
Y85960
Y88500
Y91040
Y93580
Y96120
Y109840
Y112380
Y114920
Y117460
Y120000
Y122540
Y125080
Y127620
X196460
Y125080
Y122540
Y120000
X183900Y119210
Y121750
X183040Y149000
X180500
X177960
X172610Y149050
X170070
X167530
X164990
X158070Y148900
X155530
X150610
X148070
X131000Y149000
X128460
X123000
X120460
X106540
X104000
X101460
X94561
X92021
X89481
X81330Y149050
X78790
X76250
X73710
X66150Y148900
X63610
T08
X180905Y67250
X147250Y70000
X187000Y82400
X149750Y119620
T09
X81390Y69250
Y71790
X83930
X86470
X89010
X91550
Y69250
X89010
X86470
X83930
X94090
Y71790
X96630
Y69250
X99170
Y71790
X78850
X76310
X73770
Y69250
X76310
X78850
X71230
Y71790
X68690
Y69250
X66150
X63610
X61070
X58530
X55990
X53450
Y71790
X55990
X58530
X61070
X63610
X66150
X81390Y130250
X83930
X86470
X89010
X91550
X94090
X96630
Y132790
X99170
Y130250
X94090Y132790
X91550
X89010
X86470
X83930
X81390
X78850
Y130250
X76310
X73770
X71230
X68690
Y132790
X66150
X63610
X61070
X58530
X55990
X53450
Y130250
X55990
X58530
X61070
X63610
X66150
X71230Y132790
X73770
X76310
T10
X81500Y57500
X84270
X87040
X88425Y60340
X85655
X82885
X80115
X77345
X78730Y57500
T11
X83250Y93750
X85750
X84500Y120750
T12
X122500Y53670
X119000
T13
X197500Y71500
X122500
X110300Y57600
X105800Y60600
X122500Y103000
X197500
T14
X192840Y62700
X105800Y54600
X60160Y62700
X192840Y139300
X60160
M30
